<svg width="714" height="239" viewBox="0 0 714 239" fill="none" xmlns="http://www.w3.org/2000/svg">
<path d="M662.5 150C662.5 177.89 639.89 200.5 612 200.5L109 200.5C81.1096 200.5 58.5 177.89 58.5 150L58.5 105C58.5 77.1096 81.1096 54.5 109 54.5L612 54.4999C639.89 54.4999 662.5 77.1096 662.5 105L662.5 150Z" fill="#272222" stroke="#BF3948"/>
<path d="M654.5 141C654.5 168.89 631.89 191.5 604 191.5L84 191.5C56.1096 191.5 33.5 168.89 33.5 141L33.5 93C33.5 65.1096 56.1096 42.5 84 42.5L604 42.4999C631.89 42.4999 654.5 65.1096 654.5 92.9999L654.5 141Z" fill="url(#paint0_linear_2064_149163)" stroke="#C154F3"/>
<path d="M685.246 166.919C695.463 166.919 703.746 158.636 703.746 148.419L703.746 105.165C703.746 94.9475 695.463 86.6648 685.246 86.6648L656.765 86.6648C646.548 86.6648 638.265 94.9475 638.265 105.165L638.265 148.419C638.265 158.636 646.548 166.919 656.765 166.919L685.246 166.919Z" fill="#6D2222" stroke="#BF3948"/>
<path d="M679.889 161.836C690.106 161.836 698.389 153.554 698.389 143.336L698.389 100.754C698.389 90.5365 690.106 82.2538 679.889 82.2538L651.408 82.2538C641.191 82.2538 632.908 90.5365 632.908 100.754L632.908 143.336C632.908 153.554 641.191 161.836 651.408 161.836L679.889 161.836Z" fill="#9A3641" stroke="#E63E50"/>
<path d="M674.531 156.754C684.749 156.754 693.031 148.472 693.031 138.254L693.031 95.0002C693.031 84.783 684.749 76.5002 674.531 76.5002L646.722 76.5002C636.505 76.5002 628.222 84.783 628.222 95.0002L628.222 138.254C628.222 148.472 636.505 156.754 646.722 156.754L674.531 156.754Z" fill="#E45261" stroke="#F251BC"/>
<path fill-rule="evenodd" clip-rule="evenodd" d="M629.684 109.993L618.181 98.7931L618.949 98.0456L630.457 109.25L624.229 94.6098L625.232 94.2053L631.459 108.843L631.459 93.0005L632.544 93.0005L632.544 108.843L638.771 94.2053L639.774 94.6098L633.548 109.245L645.051 98.0456L645.819 98.7931L634.316 109.993L649.347 103.931L649.763 104.908L634.729 110.97L651 110.97L651 112.028L634.729 112.028L649.763 118.09L649.347 119.067L634.311 113.003L645.819 124.208L645.051 124.955L633.548 113.756L639.774 128.391L638.771 128.796L632.544 114.158L632.544 130L631.459 130L631.459 114.158L625.232 128.796L624.229 128.391L630.457 113.751L618.949 124.955L618.181 124.208L629.689 113.003L614.653 119.067L614.237 118.09L629.271 112.028L613 112.028L613 110.97L629.271 110.97L614.237 104.908L614.653 103.931L629.684 109.993Z" fill="#FF9FA9"/>
<path d="M668.869 157.246C668.316 157.246 667.865 156.798 667.898 156.246C668.009 154.355 668.436 152.493 669.163 150.738C670.017 148.675 671.27 146.801 672.849 145.222C674.428 143.643 676.303 142.39 678.366 141.536C680.429 140.681 682.64 140.241 684.873 140.241C687.106 140.241 689.317 140.681 691.38 141.536C693.443 142.39 695.318 143.643 696.897 145.222C698.476 146.801 699.728 148.675 700.583 150.738C701.354 152.6 700.955 165.062 700.87 169.117C700.859 169.669 700.408 170.114 699.856 170.114L698.274 170.114C697.722 170.114 697.28 169.673 697.296 169.121C697.405 165.337 697.876 153.561 697.274 152.109C696.6 150.48 695.611 149.001 694.364 147.754C693.118 146.508 691.638 145.519 690.01 144.844C688.381 144.17 686.636 143.823 684.873 143.823C683.11 143.823 681.365 144.17 679.736 144.844C678.107 145.519 676.628 146.508 675.381 147.754C674.135 149.001 673.146 150.48 672.471 152.109C671.925 153.429 671.593 154.826 671.487 156.247C671.446 156.797 671.002 157.246 670.45 157.246L668.869 157.246Z" fill="#C154F3"/>
<path d="M662.435 157.246C661.882 157.246 661.432 156.798 661.456 156.246C661.573 153.51 662.169 150.812 663.219 148.277C664.397 145.433 666.123 142.849 668.299 140.673C670.476 138.496 673.06 136.77 675.903 135.592C678.747 134.414 681.795 133.808 684.873 133.808C687.951 133.808 690.999 134.414 693.842 135.592C696.686 136.77 699.27 138.496 701.446 140.673C703.623 142.849 705.349 145.433 706.527 148.277C707.602 150.871 707.435 160.906 707.398 164.981C707.393 165.534 706.944 165.978 706.392 165.978L704.779 165.978C704.227 165.978 703.781 165.533 703.789 164.98C703.845 161.247 704.088 151.829 703.189 149.659C702.193 147.254 700.733 145.068 698.892 143.227C697.051 141.386 694.865 139.926 692.46 138.93C690.054 137.934 687.476 137.421 684.873 137.421C682.269 137.421 679.691 137.934 677.286 138.93C674.881 139.926 672.695 141.386 670.854 143.227C669.013 145.068 667.553 147.254 666.557 149.659C665.688 151.756 665.187 153.985 665.073 156.247C665.045 156.798 664.6 157.246 664.047 157.246L662.435 157.246Z" fill="#C154F3"/>
<path d="M656 157.246C655.448 157.246 654.999 156.798 655.017 156.246C655.137 152.664 655.901 149.13 657.274 145.814C658.776 142.19 660.976 138.897 663.75 136.123C666.524 133.349 669.817 131.149 673.441 129.647C677.065 128.146 680.95 127.374 684.873 127.374C688.796 127.374 692.68 128.146 696.304 129.647C699.929 131.149 703.222 133.349 705.996 136.123C708.77 138.897 710.97 142.19 712.471 145.814C713.874 149.201 713.7 168.87 713.671 174.633C713.669 175.185 713.22 175.629 712.668 175.629L711.022 175.629C710.47 175.629 710.023 175.19 710.027 174.638C710.07 169.199 710.328 150.167 709.103 147.209C707.785 144.027 705.853 141.136 703.418 138.701C700.982 136.266 698.091 134.334 694.909 133.016C691.727 131.698 688.317 131.019 684.873 131.019C681.429 131.019 678.018 131.698 674.836 133.016C671.654 134.334 668.763 136.266 666.328 138.701C663.892 141.136 661.961 144.027 660.643 147.209C659.452 150.083 658.784 153.143 658.665 156.246C658.644 156.798 658.198 157.246 657.646 157.246L656 157.246Z" fill="#C154F3"/>
<g clip-path="url(#clip0_2064_149163)">
<mask id="mask0_2064_149163" style="mask-type:luminance" maskUnits="userSpaceOnUse" x="0" y="167" width="35" height="35">
<path d="M35 167H0V202H35V167Z" fill="white"/>
</mask>
<g mask="url(#mask0_2064_149163)">
<path d="M17.5 202C16.9933 185.421 16.5791 185.009 0 184.5C16.5791 183.993 16.9908 183.579 17.5 167C18.0066 183.579 18.4209 183.991 35 184.5C18.4209 185.009 18.0093 185.416 17.5 202Z" fill="#F251BC"/>
</g>
</g>
<g clip-path="url(#clip1_2064_149163)">
<mask id="mask1_2064_149163" style="mask-type:luminance" maskUnits="userSpaceOnUse" x="18" y="195" width="44" height="44">
<path d="M62 195H18V239H62V195Z" fill="white"/>
</mask>
<g mask="url(#mask1_2064_149163)">
<path d="M40 239C39.3631 218.158 38.8424 217.64 18 217C38.8424 216.363 39.3599 215.842 40 195C40.6369 215.842 41.1576 216.36 62 217C41.1576 217.64 40.6402 218.151 40 239Z" fill="#C154F3"/>
</g>
</g>
<g clip-path="url(#clip2_2064_149163)">
<mask id="mask2_2064_149163" style="mask-type:luminance" maskUnits="userSpaceOnUse" x="565" y="17" width="54" height="54">
<path d="M619 17H565V71H619V17Z" fill="white"/>
</mask>
<g mask="url(#mask2_2064_149163)">
<path d="M592 71C591.218 45.4207 590.579 44.7857 565 44C590.579 43.2183 591.214 42.5793 592 17C592.782 42.5793 593.421 43.2144 619 44C593.421 44.7857 592.786 45.4129 592 71Z" fill="#F251BC"/>
</g>
</g>
<g clip-path="url(#clip3_2064_149163)">
<mask id="mask3_2064_149163" style="mask-type:luminance" maskUnits="userSpaceOnUse" x="603" y="0" width="35" height="35">
<path d="M638 0H603V35H638V0Z" fill="white"/>
</mask>
<g mask="url(#mask3_2064_149163)">
<path d="M620.5 35C619.993 18.4209 619.579 18.0093 603 17.5C619.579 16.9933 619.991 16.5791 620.5 0C621.007 16.5791 621.421 16.9908 638 17.5C621.421 18.0093 621.009 18.4158 620.5 35Z" fill="#E63E50"/>
</g>
</g>
<path fill-rule="evenodd" clip-rule="evenodd" d="M91.6817 96.2887L105 83.5754L104.111 82.7269L90.7869 95.4458L97.998 78.8268L96.8365 78.3676L89.6268 94.9834V77H88.3697V94.9834L81.16 78.3676L79.9985 78.8268L87.2072 95.44L73.8885 82.7269L72.9996 83.5754L86.3181 96.2886L68.9138 89.4076L68.4328 90.5163L85.8398 97.3983H67V98.5983H85.8398L68.4328 105.48L68.9138 106.589L86.3242 99.7057L72.9996 112.425L73.8885 113.273L87.2072 100.56L79.9985 117.173L81.16 117.632L88.3697 101.017V119H89.6268V101.017L96.8365 117.632L97.998 117.173L90.7869 100.554L104.111 113.273L105 112.425L91.6758 99.7057L109.086 106.589L109.567 105.48L92.1602 98.5983H111V97.3983H92.1602L109.567 90.5163L109.086 89.4076L91.6817 96.2887Z" fill="#FF9FA9"/>
<path d="M141.95 126.238C141.035 126.238 140.251 126.079 139.598 125.762C138.954 125.435 138.427 125.011 138.016 124.488C137.615 123.965 137.321 123.401 137.134 122.794C136.947 122.178 136.854 121.581 136.854 121.002V120.736C136.854 120.111 136.947 119.49 137.134 118.874C137.33 118.249 137.629 117.684 138.03 117.18C138.441 116.676 138.963 116.275 139.598 115.976C140.233 115.668 140.984 115.514 141.852 115.514C142.729 115.514 143.485 115.668 144.12 115.976C144.764 116.284 145.277 116.718 145.66 117.278C146.043 117.829 146.276 118.482 146.36 119.238H145.282C145.207 118.631 145.011 118.127 144.694 117.726C144.377 117.315 143.971 117.007 143.476 116.802C142.991 116.597 142.449 116.494 141.852 116.494C141.208 116.494 140.639 116.611 140.144 116.844C139.659 117.068 139.253 117.385 138.926 117.796C138.599 118.197 138.352 118.664 138.184 119.196C138.016 119.719 137.932 120.279 137.932 120.876C137.932 121.445 138.011 121.991 138.17 122.514C138.338 123.037 138.59 123.508 138.926 123.928C139.262 124.339 139.682 124.665 140.186 124.908C140.69 125.141 141.278 125.258 141.95 125.258C142.883 125.258 143.667 125.025 144.302 124.558C144.937 124.082 145.329 123.401 145.478 122.514H146.556C146.453 123.214 146.211 123.849 145.828 124.418C145.445 124.978 144.927 125.421 144.274 125.748C143.63 126.075 142.855 126.238 141.95 126.238ZM152.291 126.238C151.657 126.238 151.097 126.131 150.611 125.916C150.135 125.692 149.729 125.398 149.393 125.034C149.067 124.661 148.815 124.245 148.637 123.788C148.469 123.331 148.385 122.864 148.385 122.388V122.192C148.385 121.716 148.474 121.249 148.651 120.792C148.829 120.325 149.085 119.91 149.421 119.546C149.757 119.182 150.163 118.893 150.639 118.678C151.125 118.454 151.675 118.342 152.291 118.342C152.917 118.342 153.467 118.454 153.943 118.678C154.429 118.893 154.839 119.182 155.175 119.546C155.511 119.91 155.763 120.325 155.931 120.792C156.109 121.249 156.197 121.716 156.197 122.192V122.388C156.197 122.864 156.113 123.331 155.945 123.788C155.777 124.245 155.525 124.661 155.189 125.034C154.863 125.398 154.457 125.692 153.971 125.916C153.486 126.131 152.926 126.238 152.291 126.238ZM152.291 125.3C152.907 125.3 153.425 125.165 153.845 124.894C154.275 124.614 154.601 124.25 154.825 123.802C155.049 123.345 155.161 122.841 155.161 122.29C155.161 121.73 155.045 121.226 154.811 120.778C154.587 120.321 154.261 119.961 153.831 119.7C153.402 119.429 152.889 119.294 152.291 119.294C151.703 119.294 151.195 119.429 150.765 119.7C150.336 119.961 150.005 120.321 149.771 120.778C149.547 121.226 149.435 121.73 149.435 122.29C149.435 122.841 149.547 123.345 149.771 123.802C149.995 124.25 150.317 124.614 150.737 124.894C151.167 125.165 151.685 125.3 152.291 125.3ZM158.838 126V118.594H159.678V121.702H159.51C159.51 121.011 159.613 120.419 159.818 119.924C160.024 119.429 160.332 119.047 160.742 118.776C161.153 118.505 161.671 118.37 162.296 118.37H162.338C163.272 118.37 163.967 118.664 164.424 119.252C164.882 119.831 165.11 120.647 165.11 121.702V126H164.074V121.478C164.074 120.834 163.897 120.316 163.542 119.924C163.188 119.532 162.693 119.336 162.058 119.336C161.405 119.336 160.878 119.541 160.476 119.952C160.084 120.353 159.888 120.885 159.888 121.548V126H158.838ZM171.053 128.898C170.708 128.898 170.358 128.879 170.003 128.842C169.658 128.814 169.327 128.777 169.009 128.73V127.834C169.345 127.881 169.695 127.918 170.059 127.946C170.433 127.983 170.783 128.002 171.109 128.002C171.819 128.002 172.383 127.909 172.803 127.722C173.223 127.535 173.522 127.237 173.699 126.826C173.886 126.425 173.979 125.893 173.979 125.23V123.746L174.371 122.71C174.353 123.419 174.203 124.031 173.923 124.544C173.643 125.048 173.265 125.435 172.789 125.706C172.313 125.977 171.772 126.112 171.165 126.112C170.633 126.112 170.148 126.009 169.709 125.804C169.28 125.599 168.911 125.319 168.603 124.964C168.295 124.6 168.057 124.189 167.889 123.732C167.721 123.275 167.637 122.794 167.637 122.29V122.094C167.637 121.599 167.721 121.128 167.889 120.68C168.057 120.223 168.295 119.821 168.603 119.476C168.911 119.121 169.285 118.846 169.723 118.65C170.171 118.445 170.666 118.342 171.207 118.342C171.861 118.342 172.43 118.487 172.915 118.776C173.401 119.065 173.779 119.467 174.049 119.98C174.329 120.493 174.479 121.095 174.497 121.786L174.161 121.604V118.594H174.987V125.188C174.987 126.075 174.857 126.789 174.595 127.33C174.334 127.871 173.914 128.268 173.335 128.52C172.766 128.772 172.005 128.898 171.053 128.898ZM171.347 125.146C171.851 125.146 172.299 125.039 172.691 124.824C173.093 124.6 173.41 124.287 173.643 123.886C173.877 123.485 173.993 123.018 173.993 122.486V121.8C173.993 121.287 173.872 120.839 173.629 120.456C173.396 120.073 173.083 119.775 172.691 119.56C172.299 119.345 171.851 119.238 171.347 119.238C170.806 119.238 170.335 119.369 169.933 119.63C169.532 119.891 169.224 120.246 169.009 120.694C168.795 121.133 168.687 121.632 168.687 122.192C168.687 122.761 168.795 123.27 169.009 123.718C169.233 124.166 169.546 124.516 169.947 124.768C170.349 125.02 170.815 125.146 171.347 125.146ZM178.118 126V118.594H178.958V121.688H178.874C178.874 120.605 179.112 119.807 179.588 119.294C180.064 118.771 180.81 118.51 181.828 118.51H182.066V119.462H181.632C180.829 119.462 180.218 119.672 179.798 120.092C179.378 120.503 179.168 121.109 179.168 121.912V126H178.118ZM188.745 126V123.774H188.577V121.142C188.577 120.591 188.432 120.171 188.143 119.882C187.854 119.583 187.406 119.434 186.799 119.434C186.519 119.434 186.234 119.439 185.945 119.448C185.665 119.457 185.394 119.471 185.133 119.49C184.881 119.499 184.657 119.513 184.461 119.532V118.608C184.666 118.589 184.876 118.571 185.091 118.552C185.306 118.533 185.525 118.524 185.749 118.524C185.982 118.515 186.206 118.51 186.421 118.51C187.177 118.51 187.784 118.603 188.241 118.79C188.708 118.977 189.048 119.271 189.263 119.672C189.478 120.064 189.585 120.587 189.585 121.24V126H188.745ZM186.239 126.196C185.716 126.196 185.254 126.103 184.853 125.916C184.452 125.729 184.139 125.459 183.915 125.104C183.7 124.749 183.593 124.32 183.593 123.816C183.593 123.321 183.705 122.901 183.929 122.556C184.162 122.211 184.494 121.949 184.923 121.772C185.362 121.585 185.889 121.492 186.505 121.492H188.675V122.29H186.435C185.847 122.29 185.394 122.435 185.077 122.724C184.769 123.004 184.615 123.373 184.615 123.83C184.615 124.297 184.778 124.67 185.105 124.95C185.432 125.221 185.875 125.356 186.435 125.356C186.78 125.356 187.112 125.295 187.429 125.174C187.746 125.043 188.012 124.829 188.227 124.53C188.442 124.222 188.558 123.802 188.577 123.27L188.885 123.704C188.848 124.255 188.717 124.717 188.493 125.09C188.269 125.454 187.966 125.729 187.583 125.916C187.2 126.103 186.752 126.196 186.239 126.196ZM195.396 126.084C194.882 126.084 194.439 126.009 194.066 125.86C193.692 125.711 193.403 125.459 193.198 125.104C192.992 124.74 192.89 124.255 192.89 123.648V116.256H193.898V123.802C193.898 124.231 194.014 124.563 194.248 124.796C194.481 125.02 194.812 125.132 195.242 125.132H196.572V126.084H195.396ZM191.56 119.392V118.594H196.572V119.392H191.56ZM201.662 126.21C200.776 126.21 200.099 125.925 199.632 125.356C199.166 124.777 198.932 123.975 198.932 122.948V118.58H199.968V123.158C199.968 123.802 200.136 124.315 200.472 124.698C200.818 125.071 201.294 125.258 201.9 125.258C202.535 125.258 203.039 125.057 203.412 124.656C203.795 124.255 203.986 123.718 203.986 123.046V118.58H205.036V126H204.196V122.906H204.364C204.364 123.597 204.266 124.189 204.07 124.684C203.874 125.169 203.58 125.547 203.188 125.818C202.796 126.079 202.302 126.21 201.704 126.21H201.662ZM208.352 126V115.78H209.402V126H208.352ZM207.274 116.634V115.78H209.402V116.634H207.274ZM217.132 126V123.774H216.964V121.142C216.964 120.591 216.819 120.171 216.53 119.882C216.24 119.583 215.792 119.434 215.186 119.434C214.906 119.434 214.621 119.439 214.332 119.448C214.052 119.457 213.781 119.471 213.52 119.49C213.268 119.499 213.044 119.513 212.848 119.532V118.608C213.053 118.589 213.263 118.571 213.478 118.552C213.692 118.533 213.912 118.524 214.136 118.524C214.369 118.515 214.593 118.51 214.808 118.51C215.564 118.51 216.17 118.603 216.628 118.79C217.094 118.977 217.435 119.271 217.65 119.672C217.864 120.064 217.972 120.587 217.972 121.24V126H217.132ZM214.626 126.196C214.103 126.196 213.641 126.103 213.24 125.916C212.838 125.729 212.526 125.459 212.302 125.104C212.087 124.749 211.98 124.32 211.98 123.816C211.98 123.321 212.092 122.901 212.316 122.556C212.549 122.211 212.88 121.949 213.31 121.772C213.748 121.585 214.276 121.492 214.892 121.492H217.062V122.29H214.822C214.234 122.29 213.781 122.435 213.464 122.724C213.156 123.004 213.002 123.373 213.002 123.83C213.002 124.297 213.165 124.67 213.492 124.95C213.818 125.221 214.262 125.356 214.822 125.356C215.167 125.356 215.498 125.295 215.816 125.174C216.133 125.043 216.399 124.829 216.614 124.53C216.828 124.222 216.945 123.802 216.964 123.27L217.272 123.704C217.234 124.255 217.104 124.717 216.88 125.09C216.656 125.454 216.352 125.729 215.97 125.916C215.587 126.103 215.139 126.196 214.626 126.196ZM223.782 126.084C223.269 126.084 222.826 126.009 222.452 125.86C222.079 125.711 221.79 125.459 221.584 125.104C221.379 124.74 221.276 124.255 221.276 123.648V116.256H222.284V123.802C222.284 124.231 222.401 124.563 222.634 124.796C222.868 125.02 223.199 125.132 223.628 125.132H224.958V126.084H223.782ZM219.946 119.392V118.594H224.958V119.392H219.946ZM227.879 126V118.594H228.915V126H227.879ZM226.689 119.434V118.594H228.915V119.434H226.689ZM228.103 117.222C227.851 117.222 227.66 117.157 227.529 117.026C227.408 116.886 227.347 116.713 227.347 116.508C227.347 116.303 227.408 116.135 227.529 116.004C227.66 115.864 227.851 115.794 228.103 115.794C228.355 115.794 228.542 115.864 228.663 116.004C228.784 116.135 228.845 116.303 228.845 116.508C228.845 116.713 228.784 116.886 228.663 117.026C228.542 117.157 228.355 117.222 228.103 117.222ZM235.489 126.238C234.854 126.238 234.294 126.131 233.809 125.916C233.333 125.692 232.927 125.398 232.591 125.034C232.264 124.661 232.012 124.245 231.835 123.788C231.667 123.331 231.583 122.864 231.583 122.388V122.192C231.583 121.716 231.671 121.249 231.849 120.792C232.026 120.325 232.283 119.91 232.619 119.546C232.955 119.182 233.361 118.893 233.837 118.678C234.322 118.454 234.873 118.342 235.489 118.342C236.114 118.342 236.665 118.454 237.141 118.678C237.626 118.893 238.037 119.182 238.373 119.546C238.709 119.91 238.961 120.325 239.129 120.792C239.306 121.249 239.395 121.716 239.395 122.192V122.388C239.395 122.864 239.311 123.331 239.143 123.788C238.975 124.245 238.723 124.661 238.387 125.034C238.06 125.398 237.654 125.692 237.169 125.916C236.683 126.131 236.123 126.238 235.489 126.238ZM235.489 125.3C236.105 125.3 236.623 125.165 237.043 124.894C237.472 124.614 237.799 124.25 238.023 123.802C238.247 123.345 238.359 122.841 238.359 122.29C238.359 121.73 238.242 121.226 238.008 120.778C237.785 120.321 237.458 119.961 237.029 119.7C236.599 119.429 236.086 119.294 235.489 119.294C234.901 119.294 234.392 119.429 233.963 119.7C233.533 119.961 233.202 120.321 232.969 120.778C232.745 121.226 232.633 121.73 232.633 122.29C232.633 122.841 232.745 123.345 232.969 123.802C233.193 124.25 233.515 124.614 233.935 124.894C234.364 125.165 234.882 125.3 235.489 125.3ZM242.036 126V118.594H242.876V121.702H242.708C242.708 121.011 242.81 120.419 243.016 119.924C243.221 119.429 243.529 119.047 243.94 118.776C244.35 118.505 244.868 118.37 245.494 118.37H245.536C246.469 118.37 247.164 118.664 247.622 119.252C248.079 119.831 248.308 120.647 248.308 121.702V126H247.272V121.478C247.272 120.834 247.094 120.316 246.74 119.924C246.385 119.532 245.89 119.336 245.256 119.336C244.602 119.336 244.075 119.541 243.674 119.952C243.282 120.353 243.086 120.885 243.086 121.548V126H242.036ZM253.76 126.21C252.808 126.21 252.076 126.005 251.562 125.594C251.049 125.174 250.788 124.614 250.778 123.914H251.758C251.777 124.269 251.936 124.591 252.234 124.88C252.542 125.169 253.051 125.314 253.76 125.314C254.423 125.314 254.918 125.179 255.244 124.908C255.58 124.628 255.748 124.292 255.748 123.9C255.748 123.536 255.608 123.256 255.328 123.06C255.058 122.855 254.661 122.724 254.138 122.668L253.298 122.584C252.626 122.509 252.08 122.304 251.66 121.968C251.25 121.623 251.044 121.151 251.044 120.554C251.044 120.115 251.156 119.733 251.38 119.406C251.604 119.079 251.917 118.827 252.318 118.65C252.729 118.463 253.21 118.37 253.76 118.37C254.554 118.37 255.198 118.557 255.692 118.93C256.196 119.303 256.453 119.835 256.462 120.526H255.482C255.473 120.171 255.324 119.873 255.034 119.63C254.745 119.387 254.32 119.266 253.76 119.266C253.182 119.266 252.748 119.392 252.458 119.644C252.178 119.896 252.038 120.204 252.038 120.568C252.038 120.876 252.146 121.133 252.36 121.338C252.575 121.534 252.911 121.655 253.368 121.702L254.208 121.786C254.955 121.87 255.562 122.085 256.028 122.43C256.504 122.775 256.742 123.27 256.742 123.914C256.742 124.353 256.616 124.749 256.364 125.104C256.122 125.449 255.776 125.72 255.328 125.916C254.88 126.112 254.358 126.21 253.76 126.21ZM259.182 128.142L258.328 127.834L259.546 124.46L260.428 124.782L259.182 128.142ZM272.113 126L269.131 122.528H267.927L271.441 118.594H272.561L269.411 122.108L269.481 121.534L273.345 126H272.113ZM267.073 126V115.78H268.123V126H267.073ZM278.2 126.238C277.565 126.238 277.015 126.131 276.548 125.916C276.081 125.692 275.699 125.398 275.4 125.034C275.101 124.661 274.877 124.245 274.728 123.788C274.588 123.331 274.518 122.859 274.518 122.374V122.178C274.518 121.702 274.588 121.235 274.728 120.778C274.877 120.321 275.101 119.91 275.4 119.546C275.699 119.182 276.072 118.893 276.52 118.678C276.977 118.454 277.509 118.342 278.116 118.342C278.891 118.342 279.535 118.515 280.048 118.86C280.571 119.205 280.963 119.649 281.224 120.19C281.485 120.722 281.616 121.296 281.616 121.912V122.458H274.994V121.646H280.888L280.622 122.052C280.622 121.501 280.524 121.021 280.328 120.61C280.141 120.19 279.861 119.863 279.488 119.63C279.124 119.387 278.667 119.266 278.116 119.266C277.537 119.266 277.057 119.401 276.674 119.672C276.291 119.943 276.002 120.302 275.806 120.75C275.619 121.198 275.526 121.707 275.526 122.276C275.526 122.836 275.619 123.349 275.806 123.816C276.002 124.273 276.296 124.637 276.688 124.908C277.089 125.179 277.593 125.314 278.2 125.314C278.844 125.314 279.367 125.169 279.768 124.88C280.169 124.581 280.417 124.231 280.51 123.83H281.49C281.397 124.325 281.201 124.754 280.902 125.118C280.603 125.473 280.225 125.748 279.768 125.944C279.311 126.14 278.788 126.238 278.2 126.238ZM287.231 126.238C286.597 126.238 286.046 126.131 285.579 125.916C285.113 125.692 284.73 125.398 284.431 125.034C284.133 124.661 283.909 124.245 283.759 123.788C283.619 123.331 283.549 122.859 283.549 122.374V122.178C283.549 121.702 283.619 121.235 283.759 120.778C283.909 120.321 284.133 119.91 284.431 119.546C284.73 119.182 285.103 118.893 285.551 118.678C286.009 118.454 286.541 118.342 287.147 118.342C287.922 118.342 288.566 118.515 289.079 118.86C289.602 119.205 289.994 119.649 290.255 120.19C290.517 120.722 290.647 121.296 290.647 121.912V122.458H284.025V121.646H289.919L289.653 122.052C289.653 121.501 289.555 121.021 289.359 120.61C289.173 120.19 288.893 119.863 288.519 119.63C288.155 119.387 287.698 119.266 287.147 119.266C286.569 119.266 286.088 119.401 285.705 119.672C285.323 119.943 285.033 120.302 284.837 120.75C284.651 121.198 284.557 121.707 284.557 122.276C284.557 122.836 284.651 123.349 284.837 123.816C285.033 124.273 285.327 124.637 285.719 124.908C286.121 125.179 286.625 125.314 287.231 125.314C287.875 125.314 288.398 125.169 288.799 124.88C289.201 124.581 289.448 124.231 289.541 123.83H290.521C290.428 124.325 290.232 124.754 289.933 125.118C289.635 125.473 289.257 125.748 288.799 125.944C288.342 126.14 287.819 126.238 287.231 126.238ZM293.169 128.8V118.594H294.009V121.772L293.757 121.8C293.794 121.053 293.953 120.423 294.233 119.91C294.522 119.397 294.909 119.009 295.395 118.748C295.889 118.477 296.44 118.342 297.047 118.342C297.588 118.342 298.078 118.449 298.517 118.664C298.965 118.869 299.343 119.154 299.651 119.518C299.968 119.873 300.206 120.283 300.365 120.75C300.533 121.207 300.617 121.688 300.617 122.192V122.388C300.617 122.892 300.533 123.377 300.365 123.844C300.197 124.301 299.954 124.712 299.637 125.076C299.329 125.431 298.951 125.715 298.503 125.93C298.064 126.135 297.569 126.238 297.019 126.238C296.431 126.238 295.889 126.107 295.395 125.846C294.909 125.575 294.513 125.179 294.205 124.656C293.906 124.133 293.743 123.489 293.715 122.724L294.219 123.774V128.8H293.169ZM296.879 125.314C297.439 125.314 297.919 125.183 298.321 124.922C298.722 124.651 299.03 124.287 299.245 123.83C299.459 123.363 299.567 122.85 299.567 122.29C299.567 121.711 299.455 121.198 299.231 120.75C299.016 120.293 298.708 119.933 298.307 119.672C297.905 119.401 297.429 119.266 296.879 119.266C296.375 119.266 295.917 119.378 295.507 119.602C295.096 119.826 294.769 120.143 294.527 120.554C294.293 120.955 294.177 121.431 294.177 121.982V122.668C294.177 123.191 294.293 123.653 294.527 124.054C294.769 124.446 295.096 124.754 295.507 124.978C295.917 125.202 296.375 125.314 296.879 125.314ZM308.616 126V116.326L309.078 116.69H306.292V115.78H309.666V126H308.616ZM320.22 126.238C319.595 126.238 319.049 126.131 318.582 125.916C318.125 125.692 317.742 125.393 317.434 125.02C317.126 124.637 316.893 124.217 316.734 123.76C316.585 123.303 316.51 122.841 316.51 122.374V122.178C316.51 121.702 316.585 121.24 316.734 120.792C316.893 120.335 317.126 119.924 317.434 119.56C317.742 119.187 318.125 118.893 318.582 118.678C319.049 118.454 319.586 118.342 320.192 118.342C320.808 118.342 321.354 118.454 321.83 118.678C322.316 118.902 322.708 119.219 323.006 119.63C323.305 120.041 323.482 120.526 323.538 121.086H322.53C322.446 120.573 322.204 120.148 321.802 119.812C321.41 119.467 320.874 119.294 320.192 119.294C319.604 119.294 319.114 119.429 318.722 119.7C318.34 119.961 318.05 120.321 317.854 120.778C317.658 121.226 317.56 121.725 317.56 122.276C317.56 122.817 317.658 123.321 317.854 123.788C318.05 124.245 318.344 124.614 318.736 124.894C319.128 125.165 319.623 125.3 320.22 125.3C320.678 125.3 321.074 125.221 321.41 125.062C321.756 124.894 322.031 124.67 322.236 124.39C322.451 124.11 322.577 123.802 322.614 123.466H323.622C323.585 124.026 323.408 124.516 323.09 124.936C322.782 125.347 322.381 125.669 321.886 125.902C321.392 126.126 320.836 126.238 320.22 126.238ZM330.555 126V123.774H330.387V121.142C330.387 120.591 330.243 120.171 329.953 119.882C329.664 119.583 329.216 119.434 328.609 119.434C328.329 119.434 328.045 119.439 327.755 119.448C327.475 119.457 327.205 119.471 326.943 119.49C326.691 119.499 326.467 119.513 326.271 119.532V118.608C326.477 118.589 326.687 118.571 326.901 118.552C327.116 118.533 327.335 118.524 327.559 118.524C327.793 118.515 328.017 118.51 328.231 118.51C328.987 118.51 329.594 118.603 330.051 118.79C330.518 118.977 330.859 119.271 331.073 119.672C331.288 120.064 331.395 120.587 331.395 121.24V126H330.555ZM328.049 126.196C327.527 126.196 327.065 126.103 326.663 125.916C326.262 125.729 325.949 125.459 325.725 125.104C325.511 124.749 325.403 124.32 325.403 123.816C325.403 123.321 325.515 122.901 325.739 122.556C325.973 122.211 326.304 121.949 326.733 121.772C327.172 121.585 327.699 121.492 328.315 121.492H330.485V122.29H328.245C327.657 122.29 327.205 122.435 326.887 122.724C326.579 123.004 326.425 123.373 326.425 123.83C326.425 124.297 326.589 124.67 326.915 124.95C327.242 125.221 327.685 125.356 328.245 125.356C328.591 125.356 328.922 125.295 329.239 125.174C329.557 125.043 329.823 124.829 330.037 124.53C330.252 124.222 330.369 123.802 330.387 123.27L330.695 123.704C330.658 124.255 330.527 124.717 330.303 125.09C330.079 125.454 329.776 125.729 329.393 125.916C329.011 126.103 328.563 126.196 328.049 126.196ZM334.518 126V118.594H335.358V121.688H335.274C335.274 120.605 335.512 119.807 335.988 119.294C336.464 118.771 337.211 118.51 338.228 118.51H338.466V119.462H338.032C337.229 119.462 336.618 119.672 336.198 120.092C335.778 120.503 335.568 121.109 335.568 121.912V126H334.518ZM343.607 126.238C343.066 126.238 342.571 126.14 342.123 125.944C341.684 125.739 341.302 125.459 340.975 125.104C340.658 124.74 340.41 124.329 340.233 123.872C340.065 123.405 339.981 122.911 339.981 122.388V122.192C339.981 121.688 340.065 121.207 340.233 120.75C340.401 120.283 340.639 119.873 340.947 119.518C341.264 119.154 341.642 118.869 342.081 118.664C342.529 118.449 343.028 118.342 343.579 118.342C344.204 118.342 344.755 118.477 345.231 118.748C345.707 119.019 346.09 119.411 346.379 119.924C346.668 120.428 346.822 121.049 346.841 121.786L346.379 120.918V115.78H347.429V126H346.589V122.71H346.925C346.906 123.485 346.743 124.138 346.435 124.67C346.136 125.193 345.74 125.585 345.245 125.846C344.76 126.107 344.214 126.238 343.607 126.238ZM343.747 125.314C344.251 125.314 344.704 125.202 345.105 124.978C345.516 124.754 345.838 124.437 346.071 124.026C346.304 123.606 346.421 123.125 346.421 122.584V121.912C346.421 121.389 346.304 120.932 346.071 120.54C345.838 120.139 345.516 119.826 345.105 119.602C344.704 119.378 344.246 119.266 343.733 119.266C343.182 119.266 342.702 119.401 342.291 119.672C341.89 119.933 341.577 120.293 341.353 120.75C341.138 121.207 341.031 121.721 341.031 122.29C341.031 122.878 341.143 123.401 341.367 123.858C341.591 124.315 341.908 124.675 342.319 124.936C342.73 125.188 343.206 125.314 343.747 125.314ZM354.799 126V118.594H355.835V126H354.799ZM353.609 119.434V118.594H355.835V119.434H353.609ZM355.023 117.222C354.771 117.222 354.579 117.157 354.449 117.026C354.327 116.886 354.267 116.713 354.267 116.508C354.267 116.303 354.327 116.135 354.449 116.004C354.579 115.864 354.771 115.794 355.023 115.794C355.275 115.794 355.461 115.864 355.583 116.004C355.704 116.135 355.765 116.303 355.765 116.508C355.765 116.713 355.704 116.886 355.583 117.026C355.461 117.157 355.275 117.222 355.023 117.222ZM359.09 126V118.594H359.93V121.702H359.762C359.762 121.011 359.865 120.419 360.07 119.924C360.276 119.429 360.584 119.047 360.994 118.776C361.405 118.505 361.923 118.37 362.548 118.37H362.59C363.524 118.37 364.219 118.664 364.676 119.252C365.134 119.831 365.362 120.647 365.362 121.702V126H364.326V121.478C364.326 120.834 364.149 120.316 363.794 119.924C363.44 119.532 362.945 119.336 362.31 119.336C361.657 119.336 361.13 119.541 360.728 119.952C360.336 120.353 360.14 120.885 360.14 121.548V126H359.09ZM375.339 126.238C374.704 126.238 374.153 126.131 373.687 125.916C373.22 125.692 372.837 125.398 372.539 125.034C372.24 124.661 372.016 124.245 371.867 123.788C371.727 123.331 371.657 122.859 371.657 122.374V122.178C371.657 121.702 371.727 121.235 371.867 120.778C372.016 120.321 372.24 119.91 372.539 119.546C372.837 119.182 373.211 118.893 373.659 118.678C374.116 118.454 374.648 118.342 375.255 118.342C376.029 118.342 376.673 118.515 377.187 118.86C377.709 119.205 378.101 119.649 378.363 120.19C378.624 120.722 378.755 121.296 378.755 121.912V122.458H372.133V121.646H378.027L377.761 122.052C377.761 121.501 377.663 121.021 377.467 120.61C377.28 120.19 377 119.863 376.627 119.63C376.263 119.387 375.805 119.266 375.255 119.266C374.676 119.266 374.195 119.401 373.813 119.672C373.43 119.943 373.141 120.302 372.945 120.75C372.758 121.198 372.665 121.707 372.665 122.276C372.665 122.836 372.758 123.349 372.945 123.816C373.141 124.273 373.435 124.637 373.827 124.908C374.228 125.179 374.732 125.314 375.339 125.314C375.983 125.314 376.505 125.169 376.907 124.88C377.308 124.581 377.555 124.231 377.649 123.83H378.629C378.535 124.325 378.339 124.754 378.041 125.118C377.742 125.473 377.364 125.748 376.907 125.944C376.449 126.14 375.927 126.238 375.339 126.238ZM385.784 126V123.774H385.616V121.142C385.616 120.591 385.471 120.171 385.182 119.882C384.893 119.583 384.445 119.434 383.838 119.434C383.558 119.434 383.273 119.439 382.984 119.448C382.704 119.457 382.433 119.471 382.172 119.49C381.92 119.499 381.696 119.513 381.5 119.532V118.608C381.705 118.589 381.915 118.571 382.13 118.552C382.345 118.533 382.564 118.524 382.788 118.524C383.021 118.515 383.245 118.51 383.46 118.51C384.216 118.51 384.823 118.603 385.28 118.79C385.747 118.977 386.087 119.271 386.302 119.672C386.517 120.064 386.624 120.587 386.624 121.24V126H385.784ZM383.278 126.196C382.755 126.196 382.293 126.103 381.892 125.916C381.491 125.729 381.178 125.459 380.954 125.104C380.739 124.749 380.632 124.32 380.632 123.816C380.632 123.321 380.744 122.901 380.968 122.556C381.201 122.211 381.533 121.949 381.962 121.772C382.401 121.585 382.928 121.492 383.544 121.492H385.714V122.29H383.474C382.886 122.29 382.433 122.435 382.116 122.724C381.808 123.004 381.654 123.373 381.654 123.83C381.654 124.297 381.817 124.67 382.144 124.95C382.471 125.221 382.914 125.356 383.474 125.356C383.819 125.356 384.151 125.295 384.468 125.174C384.785 125.043 385.051 124.829 385.266 124.53C385.481 124.222 385.597 123.802 385.616 123.27L385.924 123.704C385.887 124.255 385.756 124.717 385.532 125.09C385.308 125.454 385.005 125.729 384.622 125.916C384.239 126.103 383.791 126.196 383.278 126.196ZM392.869 126.238C392.243 126.238 391.697 126.131 391.231 125.916C390.773 125.692 390.391 125.393 390.083 125.02C389.775 124.637 389.541 124.217 389.383 123.76C389.233 123.303 389.159 122.841 389.159 122.374V122.178C389.159 121.702 389.233 121.24 389.383 120.792C389.541 120.335 389.775 119.924 390.083 119.56C390.391 119.187 390.773 118.893 391.231 118.678C391.697 118.454 392.234 118.342 392.841 118.342C393.457 118.342 394.003 118.454 394.479 118.678C394.964 118.902 395.356 119.219 395.655 119.63C395.953 120.041 396.131 120.526 396.187 121.086H395.179C395.095 120.573 394.852 120.148 394.451 119.812C394.059 119.467 393.522 119.294 392.841 119.294C392.253 119.294 391.763 119.429 391.371 119.7C390.988 119.961 390.699 120.321 390.503 120.778C390.307 121.226 390.209 121.725 390.209 122.276C390.209 122.817 390.307 123.321 390.503 123.788C390.699 124.245 390.993 124.614 391.385 124.894C391.777 125.165 392.271 125.3 392.869 125.3C393.326 125.3 393.723 125.221 394.059 125.062C394.404 124.894 394.679 124.67 394.885 124.39C395.099 124.11 395.225 123.802 395.263 123.466H396.271C396.233 124.026 396.056 124.516 395.739 124.936C395.431 125.347 395.029 125.669 394.535 125.902C394.04 126.126 393.485 126.238 392.869 126.238ZM398.696 126V115.78H399.746V121.562L399.438 121.8C399.438 121.109 399.536 120.507 399.732 119.994C399.937 119.481 400.241 119.084 400.642 118.804C401.053 118.515 401.566 118.37 402.182 118.37H402.238C403.134 118.37 403.811 118.664 404.268 119.252C404.735 119.84 404.968 120.657 404.968 121.702V126H403.932V121.478C403.932 120.815 403.75 120.293 403.386 119.91C403.022 119.527 402.532 119.336 401.916 119.336C401.253 119.336 400.726 119.551 400.334 119.98C399.942 120.4 399.746 120.955 399.746 121.646V126H398.696ZM411.92 126V115.78H412.97V126H411.92ZM410.842 116.634V115.78H412.97V116.634H410.842ZM419.286 126.238C418.651 126.238 418.101 126.131 417.634 125.916C417.167 125.692 416.785 125.398 416.486 125.034C416.187 124.661 415.963 124.245 415.814 123.788C415.674 123.331 415.604 122.859 415.604 122.374V122.178C415.604 121.702 415.674 121.235 415.814 120.778C415.963 120.321 416.187 119.91 416.486 119.546C416.785 119.182 417.158 118.893 417.606 118.678C418.063 118.454 418.595 118.342 419.202 118.342C419.977 118.342 420.621 118.515 421.134 118.86C421.657 119.205 422.049 119.649 422.31 120.19C422.571 120.722 422.702 121.296 422.702 121.912V122.458H416.08V121.646H421.974L421.708 122.052C421.708 121.501 421.61 121.021 421.414 120.61C421.227 120.19 420.947 119.863 420.574 119.63C420.21 119.387 419.753 119.266 419.202 119.266C418.623 119.266 418.143 119.401 417.76 119.672C417.377 119.943 417.088 120.302 416.892 120.75C416.705 121.198 416.612 121.707 416.612 122.276C416.612 122.836 416.705 123.349 416.892 123.816C417.088 124.273 417.382 124.637 417.774 124.908C418.175 125.179 418.679 125.314 419.286 125.314C419.93 125.314 420.453 125.169 420.854 124.88C421.255 124.581 421.503 124.231 421.596 123.83H422.576C422.483 124.325 422.287 124.754 421.988 125.118C421.689 125.473 421.311 125.748 420.854 125.944C420.397 126.14 419.874 126.238 419.286 126.238ZM426.821 126L424.217 118.594H425.295L427.871 126H426.821ZM427.101 126V125.146H428.431V126H427.101ZM427.675 126L429.929 118.594H430.965L428.669 126H427.675ZM436.296 126.238C435.661 126.238 435.11 126.131 434.644 125.916C434.177 125.692 433.794 125.398 433.496 125.034C433.197 124.661 432.973 124.245 432.824 123.788C432.684 123.331 432.614 122.859 432.614 122.374V122.178C432.614 121.702 432.684 121.235 432.824 120.778C432.973 120.321 433.197 119.91 433.496 119.546C433.794 119.182 434.168 118.893 434.616 118.678C435.073 118.454 435.605 118.342 436.212 118.342C436.986 118.342 437.63 118.515 438.144 118.86C438.666 119.205 439.058 119.649 439.32 120.19C439.581 120.722 439.712 121.296 439.712 121.912V122.458H433.09V121.646H438.984L438.718 122.052C438.718 121.501 438.62 121.021 438.424 120.61C438.237 120.19 437.957 119.863 437.584 119.63C437.22 119.387 436.762 119.266 436.212 119.266C435.633 119.266 435.152 119.401 434.77 119.672C434.387 119.943 434.098 120.302 433.902 120.75C433.715 121.198 433.622 121.707 433.622 122.276C433.622 122.836 433.715 123.349 433.902 123.816C434.098 124.273 434.392 124.637 434.784 124.908C435.185 125.179 435.689 125.314 436.296 125.314C436.94 125.314 437.462 125.169 437.864 124.88C438.265 124.581 438.512 124.231 438.606 123.83H439.586C439.492 124.325 439.296 124.754 438.998 125.118C438.699 125.473 438.321 125.748 437.864 125.944C437.406 126.14 436.884 126.238 436.296 126.238ZM442.303 126V115.78H443.353V126H442.303ZM441.225 116.634V115.78H443.353V116.634H441.225ZM452.904 126.21C452.018 126.21 451.341 125.925 450.874 125.356C450.408 124.777 450.174 123.975 450.174 122.948V118.58H451.21V123.158C451.21 123.802 451.378 124.315 451.714 124.698C452.06 125.071 452.536 125.258 453.142 125.258C453.777 125.258 454.281 125.057 454.654 124.656C455.037 124.255 455.228 123.718 455.228 123.046V118.58H456.278V126H455.438V122.906H455.606C455.606 123.597 455.508 124.189 455.312 124.684C455.116 125.169 454.822 125.547 454.43 125.818C454.038 126.079 453.544 126.21 452.946 126.21H452.904ZM459.524 126V118.594H460.364V121.702H460.196C460.196 121.011 460.299 120.419 460.504 119.924C460.709 119.429 461.017 119.047 461.428 118.776C461.839 118.505 462.357 118.37 462.982 118.37H463.024C463.957 118.37 464.653 118.664 465.11 119.252C465.567 119.831 465.796 120.647 465.796 121.702V126H464.76V121.478C464.76 120.834 464.583 120.316 464.228 119.924C463.873 119.532 463.379 119.336 462.744 119.336C462.091 119.336 461.563 119.541 461.162 119.952C460.77 120.353 460.574 120.885 460.574 121.548V126H459.524ZM471.599 126.084C471.085 126.084 470.642 126.009 470.269 125.86C469.895 125.711 469.606 125.459 469.401 125.104C469.195 124.74 469.093 124.255 469.093 123.648V116.256H470.101V123.802C470.101 124.231 470.217 124.563 470.451 124.796C470.684 125.02 471.015 125.132 471.445 125.132H472.775V126.084H471.599ZM467.763 119.392V118.594H472.775V119.392H467.763ZM475.695 126V118.594H476.731V126H475.695ZM474.505 119.434V118.594H476.731V119.434H474.505ZM475.919 117.222C475.667 117.222 475.476 117.157 475.345 117.026C475.224 116.886 475.163 116.713 475.163 116.508C475.163 116.303 475.224 116.135 475.345 116.004C475.476 115.864 475.667 115.794 475.919 115.794C476.171 115.794 476.358 115.864 476.479 116.004C476.601 116.135 476.661 116.303 476.661 116.508C476.661 116.713 476.601 116.886 476.479 117.026C476.358 117.157 476.171 117.222 475.919 117.222ZM480.057 126V115.78H481.107V126H480.057ZM478.979 116.634V115.78H481.107V116.634H478.979ZM490.784 126.084C490.271 126.084 489.828 126.009 489.454 125.86C489.081 125.711 488.792 125.459 488.586 125.104C488.381 124.74 488.278 124.255 488.278 123.648V116.256H489.286V123.802C489.286 124.231 489.403 124.563 489.636 124.796C489.87 125.02 490.201 125.132 490.63 125.132H491.96V126.084H490.784ZM486.948 119.392V118.594H491.96V119.392H486.948ZM494.489 126V115.78H495.539V121.562L495.231 121.8C495.231 121.109 495.329 120.507 495.525 119.994C495.73 119.481 496.034 119.084 496.435 118.804C496.846 118.515 497.359 118.37 497.975 118.37H498.031C498.927 118.37 499.604 118.664 500.061 119.252C500.528 119.84 500.761 120.657 500.761 121.702V126H499.725V121.478C499.725 120.815 499.543 120.293 499.179 119.91C498.815 119.527 498.325 119.336 497.709 119.336C497.046 119.336 496.519 119.551 496.127 119.98C495.735 120.4 495.539 120.955 495.539 121.646V126H494.489ZM506.97 126.238C506.335 126.238 505.784 126.131 505.318 125.916C504.851 125.692 504.468 125.398 504.17 125.034C503.871 124.661 503.647 124.245 503.498 123.788C503.358 123.331 503.288 122.859 503.288 122.374V122.178C503.288 121.702 503.358 121.235 503.498 120.778C503.647 120.321 503.871 119.91 504.17 119.546C504.468 119.182 504.842 118.893 505.29 118.678C505.747 118.454 506.279 118.342 506.886 118.342C507.66 118.342 508.304 118.515 508.818 118.86C509.34 119.205 509.732 119.649 509.994 120.19C510.255 120.722 510.386 121.296 510.386 121.912V122.458H503.764V121.646H509.658L509.392 122.052C509.392 121.501 509.294 121.021 509.098 120.61C508.911 120.19 508.631 119.863 508.258 119.63C507.894 119.387 507.436 119.266 506.886 119.266C506.307 119.266 505.826 119.401 505.444 119.672C505.061 119.943 504.772 120.302 504.576 120.75C504.389 121.198 504.296 121.707 504.296 122.276C504.296 122.836 504.389 123.349 504.576 123.816C504.772 124.273 505.066 124.637 505.458 124.908C505.859 125.179 506.363 125.314 506.97 125.314C507.614 125.314 508.136 125.169 508.538 124.88C508.939 124.581 509.186 124.231 509.28 123.83H510.26C510.166 124.325 509.97 124.754 509.672 125.118C509.373 125.473 508.995 125.748 508.538 125.944C508.08 126.14 507.558 126.238 506.97 126.238ZM140.186 147.898C139.841 147.898 139.491 147.879 139.136 147.842C138.791 147.814 138.459 147.777 138.142 147.73V146.834C138.478 146.881 138.828 146.918 139.192 146.946C139.565 146.983 139.915 147.002 140.242 147.002C140.951 147.002 141.516 146.909 141.936 146.722C142.356 146.535 142.655 146.237 142.832 145.826C143.019 145.425 143.112 144.893 143.112 144.23V142.746L143.504 141.71C143.485 142.419 143.336 143.031 143.056 143.544C142.776 144.048 142.398 144.435 141.922 144.706C141.446 144.977 140.905 145.112 140.298 145.112C139.766 145.112 139.281 145.009 138.842 144.804C138.413 144.599 138.044 144.319 137.736 143.964C137.428 143.6 137.19 143.189 137.022 142.732C136.854 142.275 136.77 141.794 136.77 141.29V141.094C136.77 140.599 136.854 140.128 137.022 139.68C137.19 139.223 137.428 138.821 137.736 138.476C138.044 138.121 138.417 137.846 138.856 137.65C139.304 137.445 139.799 137.342 140.34 137.342C140.993 137.342 141.563 137.487 142.048 137.776C142.533 138.065 142.911 138.467 143.182 138.98C143.462 139.493 143.611 140.095 143.63 140.786L143.294 140.604V137.594H144.12V144.188C144.12 145.075 143.989 145.789 143.728 146.33C143.467 146.871 143.047 147.268 142.468 147.52C141.899 147.772 141.138 147.898 140.186 147.898ZM140.48 144.146C140.984 144.146 141.432 144.039 141.824 143.824C142.225 143.6 142.543 143.287 142.776 142.886C143.009 142.485 143.126 142.018 143.126 141.486V140.8C143.126 140.287 143.005 139.839 142.762 139.456C142.529 139.073 142.216 138.775 141.824 138.56C141.432 138.345 140.984 138.238 140.48 138.238C139.939 138.238 139.467 138.369 139.066 138.63C138.665 138.891 138.357 139.246 138.142 139.694C137.927 140.133 137.82 140.632 137.82 141.192C137.82 141.761 137.927 142.27 138.142 142.718C138.366 143.166 138.679 143.516 139.08 143.768C139.481 144.02 139.948 144.146 140.48 144.146ZM151.759 145V142.774H151.591V140.142C151.591 139.591 151.446 139.171 151.157 138.882C150.867 138.583 150.419 138.434 149.813 138.434C149.533 138.434 149.248 138.439 148.959 138.448C148.679 138.457 148.408 138.471 148.147 138.49C147.895 138.499 147.671 138.513 147.475 138.532V137.608C147.68 137.589 147.89 137.571 148.105 137.552C148.319 137.533 148.539 137.524 148.763 137.524C148.996 137.515 149.22 137.51 149.435 137.51C150.191 137.51 150.797 137.603 151.255 137.79C151.721 137.977 152.062 138.271 152.277 138.672C152.491 139.064 152.599 139.587 152.599 140.24V145H151.759ZM149.253 145.196C148.73 145.196 148.268 145.103 147.867 144.916C147.465 144.729 147.153 144.459 146.929 144.104C146.714 143.749 146.607 143.32 146.607 142.816C146.607 142.321 146.719 141.901 146.943 141.556C147.176 141.211 147.507 140.949 147.937 140.772C148.375 140.585 148.903 140.492 149.519 140.492H151.689V141.29H149.449C148.861 141.29 148.408 141.435 148.091 141.724C147.783 142.004 147.629 142.373 147.629 142.83C147.629 143.297 147.792 143.67 148.119 143.95C148.445 144.221 148.889 144.356 149.449 144.356C149.794 144.356 150.125 144.295 150.443 144.174C150.76 144.043 151.026 143.829 151.241 143.53C151.455 143.222 151.572 142.802 151.591 142.27L151.899 142.704C151.861 143.255 151.731 143.717 151.507 144.09C151.283 144.454 150.979 144.729 150.597 144.916C150.214 145.103 149.766 145.196 149.253 145.196ZM155.721 145V137.58H156.561V140.702H156.393C156.393 140.021 156.487 139.433 156.673 138.938C156.869 138.443 157.159 138.061 157.541 137.79C157.924 137.51 158.409 137.37 158.997 137.37H159.039C159.627 137.37 160.113 137.505 160.495 137.776C160.878 138.047 161.163 138.429 161.349 138.924C161.536 139.419 161.629 140.011 161.629 140.702H161.293C161.293 140.021 161.387 139.433 161.573 138.938C161.769 138.443 162.059 138.061 162.441 137.79C162.833 137.51 163.323 137.37 163.911 137.37H163.953C164.541 137.37 165.027 137.505 165.409 137.776C165.801 138.047 166.091 138.429 166.277 138.924C166.473 139.419 166.571 140.011 166.571 140.702V145H165.521V140.464C165.521 139.811 165.363 139.293 165.045 138.91C164.728 138.527 164.271 138.336 163.673 138.336C163.057 138.336 162.567 138.537 162.203 138.938C161.849 139.33 161.671 139.862 161.671 140.534V145H160.621V140.464C160.621 139.811 160.463 139.293 160.145 138.91C159.828 138.527 159.371 138.336 158.773 138.336C158.157 138.336 157.667 138.537 157.303 138.938C156.949 139.33 156.771 139.862 156.771 140.534V145H155.721ZM172.782 145.238C172.147 145.238 171.597 145.131 171.13 144.916C170.663 144.692 170.281 144.398 169.982 144.034C169.683 143.661 169.459 143.245 169.31 142.788C169.17 142.331 169.1 141.859 169.1 141.374V141.178C169.1 140.702 169.17 140.235 169.31 139.778C169.459 139.321 169.683 138.91 169.982 138.546C170.281 138.182 170.654 137.893 171.102 137.678C171.559 137.454 172.091 137.342 172.698 137.342C173.473 137.342 174.117 137.515 174.63 137.86C175.153 138.205 175.545 138.649 175.806 139.19C176.067 139.722 176.198 140.296 176.198 140.912V141.458H169.576V140.646H175.47L175.204 141.052C175.204 140.501 175.106 140.021 174.91 139.61C174.723 139.19 174.443 138.863 174.07 138.63C173.706 138.387 173.249 138.266 172.698 138.266C172.119 138.266 171.639 138.401 171.256 138.672C170.873 138.943 170.584 139.302 170.388 139.75C170.201 140.198 170.108 140.707 170.108 141.276C170.108 141.836 170.201 142.349 170.388 142.816C170.584 143.273 170.878 143.637 171.27 143.908C171.671 144.179 172.175 144.314 172.782 144.314C173.426 144.314 173.949 144.169 174.35 143.88C174.751 143.581 174.999 143.231 175.092 142.83H176.072C175.979 143.325 175.783 143.754 175.484 144.118C175.185 144.473 174.807 144.748 174.35 144.944C173.893 145.14 173.37 145.238 172.782 145.238ZM185.805 145.238C185.17 145.238 184.61 145.131 184.125 144.916C183.649 144.692 183.243 144.398 182.907 144.034C182.58 143.661 182.328 143.245 182.151 142.788C181.983 142.331 181.899 141.864 181.899 141.388V141.192C181.899 140.716 181.988 140.249 182.165 139.792C182.342 139.325 182.599 138.91 182.935 138.546C183.271 138.182 183.677 137.893 184.153 137.678C184.638 137.454 185.189 137.342 185.805 137.342C186.43 137.342 186.981 137.454 187.457 137.678C187.942 137.893 188.353 138.182 188.689 138.546C189.025 138.91 189.277 139.325 189.445 139.792C189.622 140.249 189.711 140.716 189.711 141.192V141.388C189.711 141.864 189.627 142.331 189.459 142.788C189.291 143.245 189.039 143.661 188.703 144.034C188.376 144.398 187.97 144.692 187.485 144.916C187 145.131 186.44 145.238 185.805 145.238ZM185.805 144.3C186.421 144.3 186.939 144.165 187.359 143.894C187.788 143.614 188.115 143.25 188.339 142.802C188.563 142.345 188.675 141.841 188.675 141.29C188.675 140.73 188.558 140.226 188.325 139.778C188.101 139.321 187.774 138.961 187.345 138.7C186.916 138.429 186.402 138.294 185.805 138.294C185.217 138.294 184.708 138.429 184.279 138.7C183.85 138.961 183.518 139.321 183.285 139.778C183.061 140.226 182.949 140.73 182.949 141.29C182.949 141.841 183.061 142.345 183.285 142.802C183.509 143.25 183.831 143.614 184.251 143.894C184.68 144.165 185.198 144.3 185.805 144.3ZM192.562 145V136.88C192.562 136.105 192.763 135.531 193.164 135.158C193.565 134.785 194.167 134.598 194.97 134.598H195.768V135.494H194.774C194.382 135.494 194.083 135.597 193.878 135.802C193.673 136.007 193.57 136.297 193.57 136.67V145H192.562ZM197.308 145V136.964C197.308 136.189 197.509 135.615 197.91 135.242C198.311 134.869 198.913 134.682 199.716 134.682H200.556V135.578H199.52C199.128 135.578 198.829 135.681 198.624 135.886C198.419 136.091 198.316 136.381 198.316 136.754V145H197.308ZM202.46 145V137.594H203.496V145H202.46ZM191.484 138.392V137.594H200.528V138.392H191.484ZM201.312 138.434V137.594H203.496V138.434H201.312ZM202.684 136.222C202.432 136.222 202.241 136.157 202.11 136.026C201.989 135.886 201.928 135.713 201.928 135.508C201.928 135.303 201.989 135.135 202.11 135.004C202.241 134.864 202.432 134.794 202.684 134.794C202.936 134.794 203.123 134.864 203.244 135.004C203.365 135.135 203.426 135.303 203.426 135.508C203.426 135.713 203.365 135.886 203.244 136.026C203.123 136.157 202.936 136.222 202.684 136.222ZM209.878 145.238C209.253 145.238 208.707 145.131 208.24 144.916C207.783 144.692 207.4 144.393 207.092 144.02C206.784 143.637 206.551 143.217 206.392 142.76C206.243 142.303 206.168 141.841 206.168 141.374V141.178C206.168 140.702 206.243 140.24 206.392 139.792C206.551 139.335 206.784 138.924 207.092 138.56C207.4 138.187 207.783 137.893 208.24 137.678C208.707 137.454 209.244 137.342 209.85 137.342C210.466 137.342 211.012 137.454 211.488 137.678C211.974 137.902 212.366 138.219 212.664 138.63C212.963 139.041 213.14 139.526 213.196 140.086H212.188C212.104 139.573 211.862 139.148 211.46 138.812C211.068 138.467 210.532 138.294 209.85 138.294C209.262 138.294 208.772 138.429 208.38 138.7C207.998 138.961 207.708 139.321 207.512 139.778C207.316 140.226 207.218 140.725 207.218 141.276C207.218 141.817 207.316 142.321 207.512 142.788C207.708 143.245 208.002 143.614 208.394 143.894C208.786 144.165 209.281 144.3 209.878 144.3C210.336 144.3 210.732 144.221 211.068 144.062C211.414 143.894 211.689 143.67 211.894 143.39C212.109 143.11 212.235 142.802 212.272 142.466H213.28C213.243 143.026 213.066 143.516 212.748 143.936C212.44 144.347 212.039 144.669 211.544 144.902C211.05 145.126 210.494 145.238 209.878 145.238ZM216.098 145V137.594H217.134V145H216.098ZM214.908 138.434V137.594H217.134V138.434H214.908ZM216.322 136.222C216.07 136.222 215.878 136.157 215.748 136.026C215.626 135.886 215.566 135.713 215.566 135.508C215.566 135.303 215.626 135.135 215.748 135.004C215.878 134.864 216.07 134.794 216.322 134.794C216.574 134.794 216.76 134.864 216.882 135.004C217.003 135.135 217.064 135.303 217.064 135.508C217.064 135.713 217.003 135.886 216.882 136.026C216.76 136.157 216.574 136.222 216.322 136.222ZM224.897 145V142.774H224.729V140.142C224.729 139.591 224.585 139.171 224.295 138.882C224.006 138.583 223.558 138.434 222.951 138.434C222.671 138.434 222.387 138.439 222.097 138.448C221.817 138.457 221.547 138.471 221.285 138.49C221.033 138.499 220.809 138.513 220.613 138.532V137.608C220.819 137.589 221.029 137.571 221.243 137.552C221.458 137.533 221.677 137.524 221.901 137.524C222.135 137.515 222.359 137.51 222.573 137.51C223.329 137.51 223.936 137.603 224.393 137.79C224.86 137.977 225.201 138.271 225.415 138.672C225.63 139.064 225.737 139.587 225.737 140.24V145H224.897ZM222.391 145.196C221.869 145.196 221.407 145.103 221.005 144.916C220.604 144.729 220.291 144.459 220.067 144.104C219.853 143.749 219.745 143.32 219.745 142.816C219.745 142.321 219.857 141.901 220.081 141.556C220.315 141.211 220.646 140.949 221.075 140.772C221.514 140.585 222.041 140.492 222.657 140.492H224.827V141.29H222.587C221.999 141.29 221.547 141.435 221.229 141.724C220.921 142.004 220.767 142.373 220.767 142.83C220.767 143.297 220.931 143.67 221.257 143.95C221.584 144.221 222.027 144.356 222.587 144.356C222.933 144.356 223.264 144.295 223.581 144.174C223.899 144.043 224.165 143.829 224.379 143.53C224.594 143.222 224.711 142.802 224.729 142.27L225.037 142.704C225 143.255 224.869 143.717 224.645 144.09C224.421 144.454 224.118 144.729 223.735 144.916C223.353 145.103 222.905 145.196 222.391 145.196ZM228.93 145V134.78H229.98V145H228.93ZM227.852 135.634V134.78H229.98V135.634H227.852ZM233.272 145V134.78H234.322V145H233.272ZM232.194 135.634V134.78H234.322V135.634H232.194ZM236.886 147.884V146.946H237.838C238.164 146.946 238.444 146.904 238.678 146.82C238.911 146.745 239.107 146.61 239.266 146.414C239.424 146.218 239.56 145.947 239.672 145.602L242.164 137.594H243.186L240.582 145.896C240.432 146.372 240.227 146.755 239.966 147.044C239.704 147.343 239.392 147.557 239.028 147.688C238.664 147.819 238.248 147.884 237.782 147.884H236.886ZM239.294 144.818V143.936H240.624V144.818H239.294ZM239.168 144.818L236.48 137.594H237.558L240.148 144.818H239.168ZM252.384 145.238C251.749 145.238 251.198 145.131 250.732 144.916C250.265 144.692 249.882 144.398 249.584 144.034C249.285 143.661 249.061 143.245 248.912 142.788C248.772 142.331 248.702 141.859 248.702 141.374V141.178C248.702 140.702 248.772 140.235 248.912 139.778C249.061 139.321 249.285 138.91 249.584 138.546C249.882 138.182 250.256 137.893 250.704 137.678C251.161 137.454 251.693 137.342 252.3 137.342C253.074 137.342 253.718 137.515 254.232 137.86C254.754 138.205 255.146 138.649 255.408 139.19C255.669 139.722 255.8 140.296 255.8 140.912V141.458H249.178V140.646H255.072L254.806 141.052C254.806 140.501 254.708 140.021 254.512 139.61C254.325 139.19 254.045 138.863 253.672 138.63C253.308 138.387 252.85 138.266 252.3 138.266C251.721 138.266 251.24 138.401 250.858 138.672C250.475 138.943 250.186 139.302 249.99 139.75C249.803 140.198 249.71 140.707 249.71 141.276C249.71 141.836 249.803 142.349 249.99 142.816C250.186 143.273 250.48 143.637 250.872 143.908C251.273 144.179 251.777 144.314 252.384 144.314C253.028 144.314 253.55 144.169 253.952 143.88C254.353 143.581 254.6 143.231 254.694 142.83H255.674C255.58 143.325 255.384 143.754 255.086 144.118C254.787 144.473 254.409 144.748 253.952 144.944C253.494 145.14 252.972 145.238 252.384 145.238ZM258.321 145V137.594H259.161V140.702H258.993C258.993 140.011 259.096 139.419 259.301 138.924C259.506 138.429 259.814 138.047 260.225 137.776C260.636 137.505 261.154 137.37 261.779 137.37H261.821C262.754 137.37 263.45 137.664 263.907 138.252C264.364 138.831 264.593 139.647 264.593 140.702V145H263.557V140.478C263.557 139.834 263.38 139.316 263.025 138.924C262.67 138.532 262.176 138.336 261.541 138.336C260.888 138.336 260.36 138.541 259.959 138.952C259.567 139.353 259.371 139.885 259.371 140.548V145H258.321ZM270.746 145.238C270.204 145.238 269.71 145.14 269.262 144.944C268.823 144.739 268.44 144.459 268.114 144.104C267.796 143.74 267.549 143.329 267.372 142.872C267.204 142.405 267.12 141.911 267.12 141.388V141.192C267.12 140.688 267.204 140.207 267.372 139.75C267.54 139.283 267.778 138.873 268.086 138.518C268.403 138.154 268.781 137.869 269.22 137.664C269.668 137.449 270.167 137.342 270.718 137.342C271.343 137.342 271.894 137.477 272.37 137.748C272.846 138.019 273.228 138.411 273.518 138.924C273.807 139.428 273.961 140.049 273.98 140.786L273.518 139.918V134.78H274.568V145H273.728V141.71H274.064C274.045 142.485 273.882 143.138 273.574 143.67C273.275 144.193 272.878 144.585 272.384 144.846C271.898 145.107 271.352 145.238 270.746 145.238ZM270.886 144.314C271.39 144.314 271.842 144.202 272.244 143.978C272.654 143.754 272.976 143.437 273.21 143.026C273.443 142.606 273.56 142.125 273.56 141.584V140.912C273.56 140.389 273.443 139.932 273.21 139.54C272.976 139.139 272.654 138.826 272.244 138.602C271.842 138.378 271.385 138.266 270.872 138.266C270.321 138.266 269.84 138.401 269.43 138.672C269.028 138.933 268.716 139.293 268.492 139.75C268.277 140.207 268.17 140.721 268.17 141.29C268.17 141.878 268.282 142.401 268.506 142.858C268.73 143.315 269.047 143.675 269.458 143.936C269.868 144.188 270.344 144.314 270.886 144.314ZM280.116 145.21C279.164 145.21 278.431 145.005 277.918 144.594C277.405 144.174 277.143 143.614 277.134 142.914H278.114C278.133 143.269 278.291 143.591 278.59 143.88C278.898 144.169 279.407 144.314 280.116 144.314C280.779 144.314 281.273 144.179 281.6 143.908C281.936 143.628 282.104 143.292 282.104 142.9C282.104 142.536 281.964 142.256 281.684 142.06C281.413 141.855 281.017 141.724 280.494 141.668L279.654 141.584C278.982 141.509 278.436 141.304 278.016 140.968C277.605 140.623 277.4 140.151 277.4 139.554C277.4 139.115 277.512 138.733 277.736 138.406C277.96 138.079 278.273 137.827 278.674 137.65C279.085 137.463 279.565 137.37 280.116 137.37C280.909 137.37 281.553 137.557 282.048 137.93C282.552 138.303 282.809 138.835 282.818 139.526H281.838C281.829 139.171 281.679 138.873 281.39 138.63C281.101 138.387 280.676 138.266 280.116 138.266C279.537 138.266 279.103 138.392 278.814 138.644C278.534 138.896 278.394 139.204 278.394 139.568C278.394 139.876 278.501 140.133 278.716 140.338C278.931 140.534 279.267 140.655 279.724 140.702L280.564 140.786C281.311 140.87 281.917 141.085 282.384 141.43C282.86 141.775 283.098 142.27 283.098 142.914C283.098 143.353 282.972 143.749 282.72 144.104C282.477 144.449 282.132 144.72 281.684 144.916C281.236 145.112 280.713 145.21 280.116 145.21ZM285.341 145V143.614H286.657V145H285.341ZM299.128 145L296.3 134.78H297.392L299.954 144.314L299.464 144.034H300.822L300.29 144.314L302.376 135.228H303.384L301.088 145H299.128ZM305.274 145L302.754 135.228H303.79L306.114 144.314L305.596 144.034H306.982L306.45 144.314L308.76 134.78H309.824L307.234 145H305.274ZM314.94 145.238C314.306 145.238 313.755 145.131 313.288 144.916C312.822 144.692 312.439 144.398 312.14 144.034C311.842 143.661 311.618 143.245 311.468 142.788C311.328 142.331 311.258 141.859 311.258 141.374V141.178C311.258 140.702 311.328 140.235 311.468 139.778C311.618 139.321 311.842 138.91 312.14 138.546C312.439 138.182 312.812 137.893 313.26 137.678C313.718 137.454 314.25 137.342 314.856 137.342C315.631 137.342 316.275 137.515 316.788 137.86C317.311 138.205 317.703 138.649 317.964 139.19C318.226 139.722 318.356 140.296 318.356 140.912V141.458H311.734V140.646H317.628L317.362 141.052C317.362 140.501 317.264 140.021 317.068 139.61C316.882 139.19 316.602 138.863 316.228 138.63C315.864 138.387 315.407 138.266 314.856 138.266C314.278 138.266 313.797 138.401 313.414 138.672C313.032 138.943 312.742 139.302 312.546 139.75C312.36 140.198 312.266 140.707 312.266 141.276C312.266 141.836 312.36 142.349 312.546 142.816C312.742 143.273 313.036 143.637 313.428 143.908C313.83 144.179 314.334 144.314 314.94 144.314C315.584 144.314 316.107 144.169 316.508 143.88C316.91 143.581 317.157 143.231 317.25 142.83H318.23C318.137 143.325 317.941 143.754 317.642 144.118C317.344 144.473 316.966 144.748 316.508 144.944C316.051 145.14 315.528 145.238 314.94 145.238ZM326.717 145L328.299 137.832H329.769L331.603 145H330.693L328.859 137.874H329.195L327.599 145H326.717ZM326.115 145V144.146H327.389V145H326.115ZM325.863 145L323.721 137.594H324.729L326.843 145H325.863ZM330.931 145V144.146H332.177V145H330.931ZM331.477 145L333.325 137.594H334.291L332.401 145H331.477ZM337.117 145V137.594H338.153V145H337.117ZM335.927 138.434V137.594H338.153V138.434H335.927ZM337.341 136.222C337.089 136.222 336.898 136.157 336.767 136.026C336.646 135.886 336.585 135.713 336.585 135.508C336.585 135.303 336.646 135.135 336.767 135.004C336.898 134.864 337.089 134.794 337.341 134.794C337.593 134.794 337.78 134.864 337.901 135.004C338.023 135.135 338.083 135.303 338.083 135.508C338.083 135.713 338.023 135.886 337.901 136.026C337.78 136.157 337.593 136.222 337.341 136.222ZM341.479 145V134.78H342.529V145H341.479ZM340.401 135.634V134.78H342.529V135.634H340.401ZM345.821 145V134.78H346.871V145H345.821ZM344.743 135.634V134.78H346.871V135.634H344.743ZM353.86 145V137.594H354.7V140.688H354.616C354.616 139.605 354.854 138.807 355.33 138.294C355.806 137.771 356.553 137.51 357.57 137.51H357.808V138.462H357.374C356.571 138.462 355.96 138.672 355.54 139.092C355.12 139.503 354.91 140.109 354.91 140.912V145H353.86ZM363.005 145.238C362.37 145.238 361.819 145.131 361.353 144.916C360.886 144.692 360.503 144.398 360.205 144.034C359.906 143.661 359.682 143.245 359.533 142.788C359.393 142.331 359.323 141.859 359.323 141.374V141.178C359.323 140.702 359.393 140.235 359.533 139.778C359.682 139.321 359.906 138.91 360.205 138.546C360.503 138.182 360.877 137.893 361.325 137.678C361.782 137.454 362.314 137.342 362.921 137.342C363.695 137.342 364.339 137.515 364.853 137.86C365.375 138.205 365.767 138.649 366.029 139.19C366.29 139.722 366.421 140.296 366.421 140.912V141.458H359.799V140.646H365.693L365.427 141.052C365.427 140.501 365.329 140.021 365.133 139.61C364.946 139.19 364.666 138.863 364.293 138.63C363.929 138.387 363.471 138.266 362.921 138.266C362.342 138.266 361.861 138.401 361.479 138.672C361.096 138.943 360.807 139.302 360.611 139.75C360.424 140.198 360.331 140.707 360.331 141.276C360.331 141.836 360.424 142.349 360.611 142.816C360.807 143.273 361.101 143.637 361.493 143.908C361.894 144.179 362.398 144.314 363.005 144.314C363.649 144.314 364.171 144.169 364.573 143.88C364.974 143.581 365.221 143.231 365.315 142.83H366.295C366.201 143.325 366.005 143.754 365.707 144.118C365.408 144.473 365.03 144.748 364.573 144.944C364.115 145.14 363.593 145.238 363.005 145.238ZM373.45 145V142.774H373.282V140.142C373.282 139.591 373.137 139.171 372.848 138.882C372.559 138.583 372.111 138.434 371.504 138.434C371.224 138.434 370.939 138.439 370.65 138.448C370.37 138.457 370.099 138.471 369.838 138.49C369.586 138.499 369.362 138.513 369.166 138.532V137.608C369.371 137.589 369.581 137.571 369.796 137.552C370.011 137.533 370.23 137.524 370.454 137.524C370.687 137.515 370.911 137.51 371.126 137.51C371.882 137.51 372.489 137.603 372.946 137.79C373.413 137.977 373.753 138.271 373.968 138.672C374.183 139.064 374.29 139.587 374.29 140.24V145H373.45ZM370.944 145.196C370.421 145.196 369.959 145.103 369.558 144.916C369.157 144.729 368.844 144.459 368.62 144.104C368.405 143.749 368.298 143.32 368.298 142.816C368.298 142.321 368.41 141.901 368.634 141.556C368.867 141.211 369.199 140.949 369.628 140.772C370.067 140.585 370.594 140.492 371.21 140.492H373.38V141.29H371.14C370.552 141.29 370.099 141.435 369.782 141.724C369.474 142.004 369.32 142.373 369.32 142.83C369.32 143.297 369.483 143.67 369.81 143.95C370.137 144.221 370.58 144.356 371.14 144.356C371.485 144.356 371.817 144.295 372.134 144.174C372.451 144.043 372.717 143.829 372.932 143.53C373.147 143.222 373.263 142.802 373.282 142.27L373.59 142.704C373.553 143.255 373.422 143.717 373.198 144.09C372.974 144.454 372.671 144.729 372.288 144.916C371.905 145.103 371.457 145.196 370.944 145.196ZM380.535 145.238C379.909 145.238 379.363 145.131 378.897 144.916C378.439 144.692 378.057 144.393 377.749 144.02C377.441 143.637 377.207 143.217 377.049 142.76C376.899 142.303 376.825 141.841 376.825 141.374V141.178C376.825 140.702 376.899 140.24 377.049 139.792C377.207 139.335 377.441 138.924 377.749 138.56C378.057 138.187 378.439 137.893 378.897 137.678C379.363 137.454 379.9 137.342 380.507 137.342C381.123 137.342 381.669 137.454 382.145 137.678C382.63 137.902 383.022 138.219 383.321 138.63C383.619 139.041 383.797 139.526 383.853 140.086H382.845C382.761 139.573 382.518 139.148 382.117 138.812C381.725 138.467 381.188 138.294 380.507 138.294C379.919 138.294 379.429 138.429 379.037 138.7C378.654 138.961 378.365 139.321 378.169 139.778C377.973 140.226 377.875 140.725 377.875 141.276C377.875 141.817 377.973 142.321 378.169 142.788C378.365 143.245 378.659 143.614 379.051 143.894C379.443 144.165 379.937 144.3 380.535 144.3C380.992 144.3 381.389 144.221 381.725 144.062C382.07 143.894 382.345 143.67 382.551 143.39C382.765 143.11 382.891 142.802 382.929 142.466H383.937C383.899 143.026 383.722 143.516 383.405 143.936C383.097 144.347 382.695 144.669 382.201 144.902C381.706 145.126 381.151 145.238 380.535 145.238ZM386.362 145V134.78H387.412V140.562L387.104 140.8C387.104 140.109 387.202 139.507 387.398 138.994C387.603 138.481 387.907 138.084 388.308 137.804C388.719 137.515 389.232 137.37 389.848 137.37H389.904C390.8 137.37 391.477 137.664 391.934 138.252C392.401 138.84 392.634 139.657 392.634 140.702V145H391.598V140.478C391.598 139.815 391.416 139.293 391.052 138.91C390.688 138.527 390.198 138.336 389.582 138.336C388.919 138.336 388.392 138.551 388 138.98C387.608 139.4 387.412 139.955 387.412 140.646V145H386.362ZM402.834 145.238C402.2 145.238 401.64 145.131 401.154 144.916C400.678 144.692 400.272 144.398 399.936 144.034C399.61 143.661 399.358 143.245 399.18 142.788C399.012 142.331 398.928 141.864 398.928 141.388V141.192C398.928 140.716 399.017 140.249 399.194 139.792C399.372 139.325 399.628 138.91 399.964 138.546C400.3 138.182 400.706 137.893 401.182 137.678C401.668 137.454 402.218 137.342 402.834 137.342C403.46 137.342 404.01 137.454 404.486 137.678C404.972 137.893 405.382 138.182 405.718 138.546C406.054 138.91 406.306 139.325 406.474 139.792C406.652 140.249 406.74 140.716 406.74 141.192V141.388C406.74 141.864 406.656 142.331 406.488 142.788C406.32 143.245 406.068 143.661 405.732 144.034C405.406 144.398 405 144.692 404.514 144.916C404.029 145.131 403.469 145.238 402.834 145.238ZM402.834 144.3C403.45 144.3 403.968 144.165 404.388 143.894C404.818 143.614 405.144 143.25 405.368 142.802C405.592 142.345 405.704 141.841 405.704 141.29C405.704 140.73 405.588 140.226 405.354 139.778C405.13 139.321 404.804 138.961 404.374 138.7C403.945 138.429 403.432 138.294 402.834 138.294C402.246 138.294 401.738 138.429 401.308 138.7C400.879 138.961 400.548 139.321 400.314 139.778C400.09 140.226 399.978 140.73 399.978 141.29C399.978 141.841 400.09 142.345 400.314 142.802C400.538 143.25 400.86 143.614 401.28 143.894C401.71 144.165 402.228 144.3 402.834 144.3ZM411.943 145.21C411.057 145.21 410.38 144.925 409.913 144.356C409.447 143.777 409.213 142.975 409.213 141.948V137.58H410.249V142.158C410.249 142.802 410.417 143.315 410.753 143.698C411.099 144.071 411.575 144.258 412.181 144.258C412.816 144.258 413.32 144.057 413.693 143.656C414.076 143.255 414.267 142.718 414.267 142.046V137.58H415.317V145H414.477V141.906H414.645C414.645 142.597 414.547 143.189 414.351 143.684C414.155 144.169 413.861 144.547 413.469 144.818C413.077 145.079 412.583 145.21 411.985 145.21H411.943ZM421.251 145.084C420.738 145.084 420.294 145.009 419.921 144.86C419.548 144.711 419.258 144.459 419.053 144.104C418.848 143.74 418.745 143.255 418.745 142.648V135.256H419.753V142.802C419.753 143.231 419.87 143.563 420.103 143.796C420.336 144.02 420.668 144.132 421.097 144.132H422.427V145.084H421.251ZM417.415 138.392V137.594H422.427V138.392H417.415ZM431.411 145.084C430.898 145.084 430.455 145.009 430.081 144.86C429.708 144.711 429.419 144.459 429.213 144.104C429.008 143.74 428.905 143.255 428.905 142.648V135.256H429.913V142.802C429.913 143.231 430.03 143.563 430.263 143.796C430.497 144.02 430.828 144.132 431.257 144.132H432.587V145.084H431.411ZM427.575 138.392V137.594H432.587V138.392H427.575ZM438.365 145.238C437.731 145.238 437.171 145.131 436.685 144.916C436.209 144.692 435.803 144.398 435.467 144.034C435.141 143.661 434.889 143.245 434.711 142.788C434.543 142.331 434.459 141.864 434.459 141.388V141.192C434.459 140.716 434.548 140.249 434.725 139.792C434.903 139.325 435.159 138.91 435.495 138.546C435.831 138.182 436.237 137.893 436.713 137.678C437.199 137.454 437.749 137.342 438.365 137.342C438.991 137.342 439.541 137.454 440.017 137.678C440.503 137.893 440.913 138.182 441.249 138.546C441.585 138.91 441.837 139.325 442.005 139.792C442.183 140.249 442.271 140.716 442.271 141.192V141.388C442.271 141.864 442.187 142.331 442.019 142.788C441.851 143.245 441.599 143.661 441.263 144.034C440.937 144.398 440.531 144.692 440.045 144.916C439.56 145.131 439 145.238 438.365 145.238ZM438.365 144.3C438.981 144.3 439.499 144.165 439.919 143.894C440.349 143.614 440.675 143.25 440.899 142.802C441.123 142.345 441.235 141.841 441.235 141.29C441.235 140.73 441.119 140.226 440.885 139.778C440.661 139.321 440.335 138.961 439.905 138.7C439.476 138.429 438.963 138.294 438.365 138.294C437.777 138.294 437.269 138.429 436.839 138.7C436.41 138.961 436.079 139.321 435.845 139.778C435.621 140.226 435.509 140.73 435.509 141.29C435.509 141.841 435.621 142.345 435.845 142.802C436.069 143.25 436.391 143.614 436.811 143.894C437.241 144.165 437.759 144.3 438.365 144.3ZM448.022 147.884V146.946H448.974C449.301 146.946 449.581 146.904 449.814 146.82C450.048 146.745 450.244 146.61 450.402 146.414C450.561 146.218 450.696 145.947 450.808 145.602L453.3 137.594H454.322L451.718 145.896C451.569 146.372 451.364 146.755 451.102 147.044C450.841 147.343 450.528 147.557 450.164 147.688C449.8 147.819 449.385 147.884 448.918 147.884H448.022ZM450.43 144.818V143.936H451.76V144.818H450.43ZM450.304 144.818L447.616 137.594H448.694L451.284 144.818H450.304ZM459.854 145.238C459.219 145.238 458.659 145.131 458.174 144.916C457.698 144.692 457.292 144.398 456.956 144.034C456.629 143.661 456.377 143.245 456.2 142.788C456.032 142.331 455.948 141.864 455.948 141.388V141.192C455.948 140.716 456.036 140.249 456.214 139.792C456.391 139.325 456.648 138.91 456.984 138.546C457.32 138.182 457.726 137.893 458.202 137.678C458.687 137.454 459.238 137.342 459.854 137.342C460.479 137.342 461.03 137.454 461.506 137.678C461.991 137.893 462.402 138.182 462.738 138.546C463.074 138.91 463.326 139.325 463.494 139.792C463.671 140.249 463.76 140.716 463.76 141.192V141.388C463.76 141.864 463.676 142.331 463.508 142.788C463.34 143.245 463.088 143.661 462.752 144.034C462.425 144.398 462.019 144.692 461.534 144.916C461.048 145.131 460.488 145.238 459.854 145.238ZM459.854 144.3C460.47 144.3 460.988 144.165 461.408 143.894C461.837 143.614 462.164 143.25 462.388 142.802C462.612 142.345 462.724 141.841 462.724 141.29C462.724 140.73 462.607 140.226 462.374 139.778C462.15 139.321 461.823 138.961 461.394 138.7C460.964 138.429 460.451 138.294 459.854 138.294C459.266 138.294 458.757 138.429 458.328 138.7C457.898 138.961 457.567 139.321 457.334 139.778C457.11 140.226 456.998 140.73 456.998 141.29C456.998 141.841 457.11 142.345 457.334 142.802C457.558 143.25 457.88 143.614 458.3 143.894C458.729 144.165 459.247 144.3 459.854 144.3ZM468.963 145.21C468.076 145.21 467.4 144.925 466.933 144.356C466.466 143.777 466.233 142.975 466.233 141.948V137.58H467.269V142.158C467.269 142.802 467.437 143.315 467.773 143.698C468.118 144.071 468.594 144.258 469.201 144.258C469.836 144.258 470.34 144.057 470.713 143.656C471.096 143.255 471.287 142.718 471.287 142.046V137.58H472.337V145H471.497V141.906H471.665C471.665 142.597 471.567 143.189 471.371 143.684C471.175 144.169 470.881 144.547 470.489 144.818C470.097 145.079 469.602 145.21 469.005 145.21H468.963ZM475.373 145V143.614H476.689V145H475.373Z" fill="#F5F5F5"/>
<path d="M137.712 88.604L133.304 80.13H135.242L138.966 87.388L138.244 87.179H140.486L139.726 87.388L143.222 80.13H145.046L140.904 88.604H137.712ZM138.396 94V88.224H140.22V94H138.396ZM153.348 94.342C152.106 94.342 151.036 94.1203 150.137 93.677C149.237 93.2337 148.496 92.651 147.914 91.929C147.331 91.207 146.894 90.4343 146.603 89.611C146.324 88.7877 146.185 87.996 146.185 87.236V86.818C146.185 85.9947 146.33 85.165 146.622 84.329C146.913 83.493 147.356 82.733 147.952 82.049C148.547 81.3523 149.288 80.795 150.175 80.377C151.074 79.959 152.132 79.75 153.348 79.75C154.564 79.75 155.615 79.959 156.502 80.377C157.401 80.795 158.148 81.3523 158.744 82.049C159.339 82.733 159.782 83.493 160.074 84.329C160.365 85.165 160.511 85.9947 160.511 86.818V87.236C160.511 87.996 160.365 88.7877 160.074 89.611C159.795 90.4343 159.364 91.207 158.782 91.929C158.199 92.651 157.458 93.2337 156.559 93.677C155.659 94.1203 154.589 94.342 153.348 94.342ZM153.348 92.632C154.158 92.632 154.887 92.48 155.533 92.176C156.191 91.872 156.749 91.4603 157.205 90.941C157.661 90.409 158.009 89.8137 158.25 89.155C158.49 88.4837 158.611 87.7807 158.611 87.046C158.611 86.2733 158.49 85.5513 158.25 84.88C158.009 84.2087 157.661 83.6197 157.205 83.113C156.749 82.5937 156.191 82.1883 155.533 81.897C154.887 81.6057 154.158 81.46 153.348 81.46C152.537 81.46 151.802 81.6057 151.144 81.897C150.498 82.1883 149.947 82.5937 149.491 83.113C149.035 83.6197 148.686 84.2087 148.446 84.88C148.205 85.5513 148.085 86.2733 148.085 87.046C148.085 87.7807 148.205 88.4837 148.446 89.155C148.686 89.8137 149.035 90.409 149.491 90.941C149.947 91.4603 150.498 91.872 151.144 92.176C151.802 92.48 152.537 92.632 153.348 92.632ZM169.255 94.342C168.001 94.342 166.943 94.1013 166.082 93.62C165.233 93.126 164.587 92.442 164.144 91.568C163.713 90.6813 163.498 89.6553 163.498 88.49V80.13H165.36V88.718C165.36 89.4907 165.506 90.1747 165.797 90.77C166.101 91.3527 166.544 91.8087 167.127 92.138C167.71 92.4673 168.419 92.632 169.255 92.632C170.091 92.632 170.794 92.4737 171.364 92.157C171.947 91.8277 172.384 91.3717 172.675 90.789C172.979 90.1937 173.131 89.5033 173.131 88.718V80.13H174.993V88.49C174.993 89.6553 174.778 90.6813 174.347 91.568C173.916 92.442 173.277 93.126 172.428 93.62C171.579 94.1013 170.522 94.342 169.255 94.342ZM192.238 98.009C191.554 98.009 190.958 97.9077 190.452 97.705C189.945 97.515 189.552 97.1793 189.274 96.698C188.995 96.2167 188.856 95.558 188.856 94.722V93.05H190.566V95.007C190.566 95.425 190.686 95.7543 190.927 95.995C191.18 96.2357 191.509 96.356 191.915 96.356H194.271V98.009H192.238ZM189.673 94.342C188.431 94.342 187.361 94.1203 186.462 93.677C185.562 93.2337 184.821 92.651 184.239 91.929C183.656 91.207 183.219 90.4343 182.928 89.611C182.649 88.7877 182.51 87.996 182.51 87.236V86.818C182.51 85.9947 182.655 85.165 182.947 84.329C183.238 83.493 183.681 82.733 184.277 82.049C184.872 81.3523 185.613 80.795 186.5 80.377C187.399 79.959 188.457 79.75 189.673 79.75C190.889 79.75 191.94 79.959 192.827 80.377C193.726 80.795 194.473 81.3523 195.069 82.049C195.664 82.733 196.107 83.493 196.399 84.329C196.69 85.165 196.836 85.9947 196.836 86.818V87.236C196.836 87.996 196.69 88.7877 196.399 89.611C196.12 90.4343 195.689 91.207 195.107 91.929C194.524 92.651 193.783 93.2337 192.884 93.677C191.984 94.1203 190.914 94.342 189.673 94.342ZM189.673 92.632C190.483 92.632 191.212 92.48 191.858 92.176C192.516 91.872 193.074 91.4603 193.53 90.941C193.986 90.409 194.334 89.8137 194.575 89.155C194.815 88.4837 194.936 87.7807 194.936 87.046C194.936 86.2733 194.815 85.5513 194.575 84.88C194.334 84.2087 193.986 83.6197 193.53 83.113C193.074 82.5937 192.516 82.1883 191.858 81.897C191.212 81.6057 190.483 81.46 189.673 81.46C188.862 81.46 188.127 81.6057 187.469 81.897C186.823 82.1883 186.272 82.5937 185.816 83.113C185.36 83.6197 185.011 84.2087 184.771 84.88C184.53 85.5513 184.41 86.2733 184.41 87.046C184.41 87.7807 184.53 88.4837 184.771 89.155C185.011 89.8137 185.36 90.409 185.816 90.941C186.272 91.4603 186.823 91.872 187.469 92.176C188.127 92.48 188.862 92.632 189.673 92.632ZM205.58 94.342C204.326 94.342 203.268 94.1013 202.407 93.62C201.558 93.126 200.912 92.442 200.469 91.568C200.038 90.6813 199.823 89.6553 199.823 88.49V80.13H201.685V88.718C201.685 89.4907 201.831 90.1747 202.122 90.77C202.426 91.3527 202.869 91.8087 203.452 92.138C204.035 92.4673 204.744 92.632 205.58 92.632C206.416 92.632 207.119 92.4737 207.689 92.157C208.272 91.8277 208.709 91.3717 209 90.789C209.304 90.1937 209.456 89.5033 209.456 88.718V80.13H211.318V88.49C211.318 89.6553 211.103 90.6813 210.672 91.568C210.241 92.442 209.602 93.126 208.753 93.62C207.904 94.1013 206.847 94.342 205.58 94.342ZM213.325 94L218.322 80.13H221.476L226.625 94H224.706L220.051 81.346L220.963 81.802H218.721L219.69 81.346L215.187 94H213.325ZM216.308 89.858L216.935 88.186H222.92L223.547 89.858H216.308ZM229.359 94V80.13H231.221V94H229.359ZM230.841 94V92.328H237.187V94H230.841ZM239.922 94V80.13H241.784V94H239.922ZM246.048 94V80.13H247.91V94H246.048ZM247.53 87.825V86.153L253.477 86.134V87.806L247.53 87.825ZM247.53 81.802V80.13H253.8V81.802H247.53ZM259.679 88.604L255.271 80.13H257.209L260.933 87.388L260.211 87.179H262.453L261.693 87.388L265.189 80.13H267.013L262.871 88.604H259.679ZM260.363 94V88.224H262.187V94H260.363ZM272.597 94L277.594 80.13H280.748L285.897 94H283.978L279.323 81.346L280.235 81.802H277.993L278.962 81.346L274.459 94H272.597ZM275.58 89.858L276.207 88.186H282.192L282.819 89.858H275.58ZM293.022 94.342C291.869 94.342 290.888 94.152 290.077 93.772C289.266 93.392 288.646 92.8663 288.215 92.195C287.784 91.5237 287.569 90.7637 287.569 89.915H289.431C289.431 90.333 289.539 90.751 289.754 91.169C289.982 91.587 290.356 91.9353 290.875 92.214C291.407 92.4927 292.123 92.632 293.022 92.632C293.858 92.632 294.542 92.5117 295.074 92.271C295.606 92.0177 295.999 91.6947 296.252 91.302C296.505 90.8967 296.632 90.4597 296.632 89.991C296.632 89.421 296.385 88.9523 295.891 88.585C295.397 88.205 294.675 87.9707 293.725 87.882L292.186 87.749C290.957 87.6477 289.976 87.2677 289.241 86.609C288.506 85.9503 288.139 85.0827 288.139 84.006C288.139 83.1573 288.342 82.4163 288.747 81.783C289.165 81.1497 289.741 80.6557 290.476 80.301C291.211 79.9337 292.066 79.75 293.041 79.75C294.004 79.75 294.852 79.9273 295.587 80.282C296.322 80.6367 296.892 81.137 297.297 81.783C297.715 82.4163 297.924 83.1763 297.924 84.063H296.062C296.062 83.6197 295.954 83.2017 295.739 82.809C295.536 82.4163 295.213 82.0933 294.77 81.84C294.327 81.5867 293.75 81.46 293.041 81.46C292.357 81.46 291.787 81.5803 291.331 81.821C290.888 82.0617 290.552 82.3783 290.324 82.771C290.109 83.151 290.001 83.5627 290.001 84.006C290.001 84.5127 290.197 84.9623 290.59 85.355C290.983 85.7477 291.565 85.9757 292.338 86.039L293.877 86.172C294.827 86.248 295.644 86.4507 296.328 86.78C297.025 87.0967 297.557 87.5273 297.924 88.072C298.304 88.604 298.494 89.2437 298.494 89.991C298.494 90.8397 298.266 91.5933 297.81 92.252C297.354 92.9107 296.714 93.4237 295.891 93.791C295.068 94.1583 294.111 94.342 293.022 94.342ZM309.353 94L314.35 80.13H317.504L322.653 94H320.734L316.079 81.346L316.991 81.802H314.749L315.718 81.346L311.215 94H309.353ZM312.336 89.858L312.963 88.186H318.948L319.575 89.858H312.336ZM329.9 94V80.13H331.762V94H329.9ZM331.382 87.825V86.153L337.329 86.134V87.806L331.382 87.825ZM331.382 81.802V80.13H337.652V81.802H331.382ZM346.213 94.342C344.959 94.342 343.901 94.1013 343.04 93.62C342.191 93.126 341.545 92.442 341.102 91.568C340.671 90.6813 340.456 89.6553 340.456 88.49V80.13H342.318V88.718C342.318 89.4907 342.463 90.1747 342.755 90.77C343.059 91.3527 343.502 91.8087 344.085 92.138C344.667 92.4673 345.377 92.632 346.213 92.632C347.049 92.632 347.752 92.4737 348.322 92.157C348.904 91.8277 349.341 91.3717 349.633 90.789C349.937 90.1937 350.089 89.5033 350.089 88.718V80.13H351.951V88.49C351.951 89.6553 351.735 90.6813 351.305 91.568C350.874 92.442 350.234 93.126 349.386 93.62C348.537 94.1013 347.479 94.342 346.213 94.342ZM355.904 94V80.13H357.766V94H355.904ZM357.386 94V92.328H363.732V94H357.386ZM366.429 94V80.13H368.291V94H366.429ZM367.911 94V92.328H374.257V94H367.911ZM385.97 94.342C384.817 94.342 383.836 94.152 383.025 93.772C382.214 93.392 381.594 92.8663 381.163 92.195C380.732 91.5237 380.517 90.7637 380.517 89.915H382.379C382.379 90.333 382.487 90.751 382.702 91.169C382.93 91.587 383.304 91.9353 383.823 92.214C384.355 92.4927 385.071 92.632 385.97 92.632C386.806 92.632 387.49 92.5117 388.022 92.271C388.554 92.0177 388.947 91.6947 389.2 91.302C389.453 90.8967 389.58 90.4597 389.58 89.991C389.58 89.421 389.333 88.9523 388.839 88.585C388.345 88.205 387.623 87.9707 386.673 87.882L385.134 87.749C383.905 87.6477 382.924 87.2677 382.189 86.609C381.454 85.9503 381.087 85.0827 381.087 84.006C381.087 83.1573 381.29 82.4163 381.695 81.783C382.113 81.1497 382.689 80.6557 383.424 80.301C384.159 79.9337 385.014 79.75 385.989 79.75C386.952 79.75 387.8 79.9273 388.535 80.282C389.27 80.6367 389.84 81.137 390.245 81.783C390.663 82.4163 390.872 83.1763 390.872 84.063H389.01C389.01 83.6197 388.902 83.2017 388.687 82.809C388.484 82.4163 388.161 82.0933 387.718 81.84C387.275 81.5867 386.698 81.46 385.989 81.46C385.305 81.46 384.735 81.5803 384.279 81.821C383.836 82.0617 383.5 82.3783 383.272 82.771C383.057 83.151 382.949 83.5627 382.949 84.006C382.949 84.5127 383.145 84.9623 383.538 85.355C383.931 85.7477 384.513 85.9757 385.286 86.039L386.825 86.172C387.775 86.248 388.592 86.4507 389.276 86.78C389.973 87.0967 390.505 87.5273 390.872 88.072C391.252 88.604 391.442 89.2437 391.442 89.991C391.442 90.8397 391.214 91.5933 390.758 92.252C390.302 92.9107 389.662 93.4237 388.839 93.791C388.016 94.1583 387.059 94.342 385.97 94.342ZM394.757 94V80.13H396.619V94H394.757ZM396.239 94V92.328H402.965V94H396.239ZM396.239 87.787V86.115H402.376V87.787H396.239ZM396.239 81.802V80.13H402.775V81.802H396.239ZM409.037 94V81.422H410.899V94H409.037ZM404.819 81.802V80.13H415.117V81.802H404.819ZM431.71 94V80.13H433.572V94H431.71ZM422.324 94V80.13H424.186V94H422.324ZM423.806 87.939V86.267H432.09V87.939H423.806ZM443.997 94.342C442.756 94.342 441.686 94.1203 440.786 93.677C439.887 93.2337 439.146 92.651 438.563 91.929C437.981 91.207 437.544 90.4343 437.252 89.611C436.974 88.7877 436.834 87.996 436.834 87.236V86.818C436.834 85.9947 436.98 85.165 437.271 84.329C437.563 83.493 438.006 82.733 438.601 82.049C439.197 81.3523 439.938 80.795 440.824 80.377C441.724 79.959 442.781 79.75 443.997 79.75C445.213 79.75 446.265 79.959 447.151 80.377C448.051 80.795 448.798 81.3523 449.393 82.049C449.989 82.733 450.432 83.493 450.723 84.329C451.015 85.165 451.16 85.9947 451.16 86.818V87.236C451.16 87.996 451.015 88.7877 450.723 89.611C450.445 90.4343 450.014 91.207 449.431 91.929C448.849 92.651 448.108 93.2337 447.208 93.677C446.309 94.1203 445.239 94.342 443.997 94.342ZM443.997 92.632C444.808 92.632 445.536 92.48 446.182 92.176C446.841 91.872 447.398 91.4603 447.854 90.941C448.31 90.409 448.659 89.8137 448.899 89.155C449.14 88.4837 449.26 87.7807 449.26 87.046C449.26 86.2733 449.14 85.5513 448.899 84.88C448.659 84.2087 448.31 83.6197 447.854 83.113C447.398 82.5937 446.841 82.1883 446.182 81.897C445.536 81.6057 444.808 81.46 443.997 81.46C443.187 81.46 442.452 81.6057 441.793 81.897C441.147 82.1883 440.596 82.5937 440.14 83.113C439.684 83.6197 439.336 84.2087 439.095 84.88C438.855 85.5513 438.734 86.2733 438.734 87.046C438.734 87.7807 438.855 88.4837 439.095 89.155C439.336 89.8137 439.684 90.409 440.14 90.941C440.596 91.4603 441.147 91.872 441.793 92.176C442.452 92.48 443.187 92.632 443.997 92.632ZM454.414 94V80.13H456.276V94H454.414ZM455.896 94V92.328H462.242V94H455.896ZM466.421 94.076V92.366H469.879C470.715 92.366 471.456 92.233 472.102 91.967C472.76 91.6883 473.318 91.3083 473.774 90.827C474.242 90.3457 474.597 89.782 474.838 89.136C475.078 88.49 475.199 87.7933 475.199 87.046C475.199 86.2607 475.078 85.5513 474.838 84.918C474.597 84.272 474.242 83.7147 473.774 83.246C473.318 82.7647 472.76 82.3973 472.102 82.144C471.456 81.8907 470.715 81.764 469.879 81.764H466.421V80.054H469.689C470.943 80.054 472.032 80.2503 472.957 80.643C473.881 81.023 474.648 81.5423 475.256 82.201C475.876 82.847 476.339 83.5753 476.643 84.386C476.947 85.184 477.099 86.001 477.099 86.837V87.255C477.099 88.0657 476.947 88.8763 476.643 89.687C476.339 90.4977 475.876 91.2323 475.256 91.891C474.648 92.5497 473.881 93.0817 472.957 93.487C472.032 93.8797 470.943 94.076 469.689 94.076H466.421ZM464.939 94.076V80.054H466.801V94.076H464.939ZM480.158 94V80.13H482.02V94H480.158ZM481.64 94V92.328H488.366V94H481.64ZM481.64 87.787V86.115H487.777V87.787H481.64ZM481.64 81.802V80.13H488.176V81.802H481.64ZM491.74 94V80.054H493.602V94H491.74ZM500.309 94L495.711 87.825H497.896L502.57 94H500.309ZM492.899 88.984V87.331H496.623C497.206 87.331 497.706 87.2107 498.124 86.97C498.542 86.7293 498.865 86.4 499.093 85.982C499.321 85.5513 499.435 85.0637 499.435 84.519C499.435 83.9743 499.321 83.493 499.093 83.075C498.865 82.6443 498.542 82.3087 498.124 82.068C497.706 81.8147 497.206 81.688 496.623 81.688H492.899V80.054H496.281C497.295 80.054 498.181 80.206 498.941 80.51C499.701 80.814 500.29 81.2827 500.708 81.916C501.126 82.5493 501.335 83.3663 501.335 84.367V84.671C501.335 85.6717 501.12 86.4887 500.689 87.122C500.271 87.7553 499.682 88.224 498.922 88.528C498.175 88.832 497.295 88.984 496.281 88.984H492.899ZM505.101 89.858V80.13H506.963V89.858H505.101ZM504.93 94V91.682H507.134V94H504.93Z" fill="#FF9FA9"/>
<defs>
<linearGradient id="paint0_linear_2064_149163" x1="351" y1="190" x2="353" y2="42" gradientUnits="userSpaceOnUse">
<stop stop-color="#BF3948"/>
<stop offset="1" stop-color="#962BC7"/>
</linearGradient>
<clipPath id="clip0_2064_149163">
<rect width="35" height="35" fill="white" transform="translate(0 167)"/>
</clipPath>
<clipPath id="clip1_2064_149163">
<rect width="44" height="44" fill="white" transform="translate(18 195)"/>
</clipPath>
<clipPath id="clip2_2064_149163">
<rect width="54" height="54" fill="white" transform="translate(565 17)"/>
</clipPath>
<clipPath id="clip3_2064_149163">
<rect width="35" height="35" fill="white" transform="translate(603)"/>
</clipPath>
</defs>
</svg>
