<svg width="140" height="140" viewBox="0 0 140 140" fill="none" xmlns="http://www.w3.org/2000/svg">
<circle cx="70" cy="70" r="68.5" stroke="#D9D9D9" stroke-width="3" stroke-dasharray="6 6"/>
<line x1="70.5" y1="57" x2="70.5" y2="42" stroke="black" stroke-width="3"/>
<line x1="70.5" y1="57" x2="70.5" y2="42" stroke="#646F85" stroke-width="3"/>
<line x1="63" y1="49.5" x2="78" y2="49.5" stroke="black" stroke-width="3"/>
<line x1="63" y1="49.5" x2="78" y2="49.5" stroke="#646F85" stroke-width="3"/>
<path d="M47.0236 77.07C46.3983 77.07 45.8523 76.9533 45.3856 76.72C44.9189 76.4867 44.5549 76.1367 44.2936 75.67C44.0416 75.2033 43.9156 74.62 43.9156 73.92V69.65H44.9096V73.808C44.9096 74.592 45.1009 75.1847 45.4836 75.586C45.8756 75.978 46.4216 76.174 47.1216 76.174C47.6349 76.174 48.0783 76.0713 48.4516 75.866C48.8343 75.6513 49.1236 75.3433 49.3196 74.942C49.5249 74.5407 49.6276 74.06 49.6276 73.5V69.65H50.6216V77H49.6696V74.984L49.8236 75.348C49.5903 75.8893 49.2263 76.314 48.7316 76.622C48.2463 76.9207 47.6769 77.07 47.0236 77.07ZM57.1859 77.07C56.5512 77.07 55.9772 76.9253 55.4639 76.636C54.9505 76.3373 54.5399 75.9127 54.2319 75.362C53.9332 74.802 53.7839 74.1207 53.7839 73.318C53.7839 72.5153 53.9332 71.8387 54.2319 71.288C54.5305 70.728 54.9365 70.3033 55.4499 70.014C55.9632 69.7247 56.5419 69.58 57.1859 69.58C57.8859 69.58 58.5112 69.7387 59.0619 70.056C59.6219 70.364 60.0605 70.8027 60.3779 71.372C60.6952 71.932 60.8539 72.5807 60.8539 73.318C60.8539 74.0647 60.6952 74.718 60.3779 75.278C60.0605 75.838 59.6219 76.2767 59.0619 76.594C58.5112 76.9113 57.8859 77.07 57.1859 77.07ZM53.3919 79.716V69.65H54.3439V71.862L54.2459 73.332L54.3859 74.816V79.716H53.3919ZM57.1159 76.188C57.6385 76.188 58.1052 76.0713 58.5159 75.838C58.9265 75.5953 59.2532 75.2593 59.4959 74.83C59.7385 74.3913 59.8599 73.8873 59.8599 73.318C59.8599 72.7487 59.7385 72.2493 59.4959 71.82C59.2532 71.3907 58.9265 71.0547 58.5159 70.812C58.1052 70.5693 57.6385 70.448 57.1159 70.448C56.5932 70.448 56.1219 70.5693 55.7019 70.812C55.2912 71.0547 54.9645 71.3907 54.7219 71.82C54.4885 72.2493 54.3719 72.7487 54.3719 73.318C54.3719 73.8873 54.4885 74.3913 54.7219 74.83C54.9645 75.2593 55.2912 75.5953 55.7019 75.838C56.1219 76.0713 56.5932 76.188 57.1159 76.188ZM62.8801 77V66.612H63.8741V77H62.8801ZM69.6359 77.07C68.9266 77.07 68.2872 76.9113 67.7179 76.594C67.1579 76.2673 66.7146 75.824 66.3879 75.264C66.0612 74.6947 65.8979 74.046 65.8979 73.318C65.8979 72.5807 66.0612 71.932 66.3879 71.372C66.7146 70.812 67.1579 70.3733 67.7179 70.056C68.2779 69.7387 68.9172 69.58 69.6359 69.58C70.3639 69.58 71.0079 69.7387 71.5679 70.056C72.1372 70.3733 72.5806 70.812 72.8979 71.372C73.2246 71.932 73.3879 72.5807 73.3879 73.318C73.3879 74.046 73.2246 74.6947 72.8979 75.264C72.5806 75.824 72.1372 76.2673 71.5679 76.594C70.9986 76.9113 70.3546 77.07 69.6359 77.07ZM69.6359 76.188C70.1679 76.188 70.6392 76.0713 71.0499 75.838C71.4606 75.5953 71.7826 75.2593 72.0159 74.83C72.2586 74.3913 72.3799 73.8873 72.3799 73.318C72.3799 72.7393 72.2586 72.2353 72.0159 71.806C71.7826 71.3767 71.4606 71.0453 71.0499 70.812C70.6392 70.5693 70.1726 70.448 69.6499 70.448C69.1272 70.448 68.6606 70.5693 68.2499 70.812C67.8392 71.0453 67.5126 71.3767 67.2699 71.806C67.0272 72.2353 66.9059 72.7393 66.9059 73.318C66.9059 73.8873 67.0272 74.3913 67.2699 74.83C67.5126 75.2593 67.8392 75.5953 68.2499 75.838C68.6606 76.0713 69.1226 76.188 69.6359 76.188ZM79.9822 77V75.376L79.9402 75.11V72.394C79.9402 71.7687 79.7629 71.288 79.4082 70.952C79.0629 70.616 78.5449 70.448 77.8542 70.448C77.3782 70.448 76.9256 70.5273 76.4962 70.686C76.0669 70.8447 75.7029 71.0547 75.4042 71.316L74.9562 70.574C75.3296 70.2567 75.7776 70.014 76.3002 69.846C76.8229 69.6687 77.3736 69.58 77.9522 69.58C78.9042 69.58 79.6369 69.818 80.1502 70.294C80.6729 70.7607 80.9342 71.4747 80.9342 72.436V77H79.9822ZM77.4482 77.07C76.8976 77.07 76.4169 76.9813 76.0062 76.804C75.6049 76.6173 75.2969 76.3653 75.0822 76.048C74.8676 75.7213 74.7602 75.348 74.7602 74.928C74.7602 74.5453 74.8489 74.2 75.0262 73.892C75.2129 73.5747 75.5116 73.3227 75.9222 73.136C76.3422 72.94 76.9022 72.842 77.6022 72.842H80.1362V73.584H77.6302C76.9209 73.584 76.4262 73.71 76.1462 73.962C75.8756 74.214 75.7402 74.5267 75.7402 74.9C75.7402 75.32 75.9036 75.656 76.2302 75.908C76.5569 76.16 77.0142 76.286 77.6022 76.286C78.1622 76.286 78.6429 76.16 79.0442 75.908C79.4549 75.6467 79.7536 75.2733 79.9402 74.788L80.1642 75.474C79.9776 75.9593 79.6509 76.3467 79.1842 76.636C78.7269 76.9253 78.1482 77.07 77.4482 77.07ZM86.56 77.07C85.86 77.07 85.23 76.9113 84.67 76.594C84.1194 76.2767 83.6854 75.838 83.368 75.278C83.0507 74.7087 82.892 74.0553 82.892 73.318C82.892 72.5713 83.0507 71.918 83.368 71.358C83.6854 70.798 84.1194 70.364 84.67 70.056C85.23 69.7387 85.86 69.58 86.56 69.58C87.204 69.58 87.778 69.7247 88.282 70.014C88.7954 70.3033 89.2014 70.728 89.5 71.288C89.808 71.8387 89.962 72.5153 89.962 73.318C89.962 74.1113 89.8127 74.788 89.514 75.348C89.2154 75.908 88.8094 76.3373 88.296 76.636C87.792 76.9253 87.2134 77.07 86.56 77.07ZM86.63 76.188C87.1527 76.188 87.6194 76.0713 88.03 75.838C88.45 75.5953 88.7767 75.2593 89.01 74.83C89.2527 74.3913 89.374 73.8873 89.374 73.318C89.374 72.7393 89.2527 72.2353 89.01 71.806C88.7767 71.3767 88.45 71.0453 88.03 70.812C87.6194 70.5693 87.1527 70.448 86.63 70.448C86.1167 70.448 85.6547 70.5693 85.244 70.812C84.8334 71.0453 84.5067 71.3767 84.264 71.806C84.0214 72.2353 83.9 72.7393 83.9 73.318C83.9 73.8873 84.0214 74.3913 84.264 74.83C84.5067 75.2593 84.8334 75.5953 85.244 75.838C85.6547 76.0713 86.1167 76.188 86.63 76.188ZM89.402 77V74.788L89.5 73.304L89.36 71.82V66.612H90.354V77H89.402ZM49.0784 94.07C48.4438 94.07 47.8698 93.9253 47.3564 93.636C46.8431 93.3373 46.4324 92.9127 46.1244 92.362C45.8258 91.802 45.6764 91.1207 45.6764 90.318C45.6764 89.5153 45.8258 88.8387 46.1244 88.288C46.4231 87.728 46.8291 87.3033 47.3424 87.014C47.8558 86.7247 48.4344 86.58 49.0784 86.58C49.7784 86.58 50.4038 86.7387 50.9544 87.056C51.5144 87.364 51.9531 87.8027 52.2704 88.372C52.5878 88.932 52.7464 89.5807 52.7464 90.318C52.7464 91.0647 52.5878 91.718 52.2704 92.278C51.9531 92.838 51.5144 93.2767 50.9544 93.594C50.4038 93.9113 49.7784 94.07 49.0784 94.07ZM45.2844 96.716V86.65H46.2364V88.862L46.1384 90.332L46.2784 91.816V96.716H45.2844ZM49.0084 93.188C49.5311 93.188 49.9978 93.0713 50.4084 92.838C50.8191 92.5953 51.1458 92.2593 51.3884 91.83C51.6311 91.3913 51.7524 90.8873 51.7524 90.318C51.7524 89.7487 51.6311 89.2493 51.3884 88.82C51.1458 88.3907 50.8191 88.0547 50.4084 87.812C49.9978 87.5693 49.5311 87.448 49.0084 87.448C48.4858 87.448 48.0144 87.5693 47.5944 87.812C47.1838 88.0547 46.8571 88.3907 46.6144 88.82C46.3811 89.2493 46.2644 89.7487 46.2644 90.318C46.2644 90.8873 46.3811 91.3913 46.6144 91.83C46.8571 92.2593 47.1838 92.5953 47.5944 92.838C48.0144 93.0713 48.4858 93.188 49.0084 93.188ZM54.7727 94V86.65H55.7667V94H54.7727ZM55.2767 85.026C55.0714 85.026 54.8987 84.956 54.7587 84.816C54.6187 84.676 54.5487 84.508 54.5487 84.312C54.5487 84.116 54.6187 83.9527 54.7587 83.822C54.8987 83.682 55.0714 83.612 55.2767 83.612C55.4821 83.612 55.6547 83.6773 55.7947 83.808C55.9347 83.9387 56.0047 84.102 56.0047 84.298C56.0047 84.5033 55.9347 84.676 55.7947 84.816C55.6641 84.956 55.4914 85.026 55.2767 85.026ZM61.5845 94.07C60.8565 94.07 60.2032 93.9113 59.6245 93.594C59.0552 93.2673 58.6072 92.824 58.2805 92.264C57.9538 91.6947 57.7905 91.046 57.7905 90.318C57.7905 89.5807 57.9538 88.932 58.2805 88.372C58.6072 87.812 59.0552 87.3733 59.6245 87.056C60.2032 86.7387 60.8565 86.58 61.5845 86.58C62.2098 86.58 62.7745 86.7013 63.2785 86.944C63.7825 87.1867 64.1792 87.5507 64.4685 88.036L63.7265 88.54C63.4745 88.1667 63.1618 87.8913 62.7885 87.714C62.4152 87.5367 62.0092 87.448 61.5705 87.448C61.0478 87.448 60.5765 87.5693 60.1565 87.812C59.7365 88.0453 59.4052 88.3767 59.1625 88.806C58.9198 89.2353 58.7985 89.7393 58.7985 90.318C58.7985 90.8967 58.9198 91.4007 59.1625 91.83C59.4052 92.2593 59.7365 92.5953 60.1565 92.838C60.5765 93.0713 61.0478 93.188 61.5705 93.188C62.0092 93.188 62.4152 93.0993 62.7885 92.922C63.1618 92.7447 63.4745 92.474 63.7265 92.11L64.4685 92.614C64.1792 93.09 63.7825 93.454 63.2785 93.706C62.7745 93.9487 62.2098 94.07 61.5845 94.07ZM68.8272 94.07C68.1365 94.07 67.6045 93.8833 67.2312 93.51C66.8579 93.1367 66.6712 92.6093 66.6712 91.928V85.026H67.6652V91.872C67.6652 92.3013 67.7725 92.6327 67.9872 92.866C68.2112 93.0993 68.5285 93.216 68.9392 93.216C69.3779 93.216 69.7419 93.09 70.0312 92.838L70.3812 93.552C70.1852 93.7293 69.9472 93.86 69.6672 93.944C69.3965 94.028 69.1165 94.07 68.8272 94.07ZM65.3552 87.476V86.65H69.9052V87.476H65.3552ZM75.2287 94.07C74.6034 94.07 74.0574 93.9533 73.5907 93.72C73.124 93.4867 72.76 93.1367 72.4987 92.67C72.2467 92.2033 72.1207 91.62 72.1207 90.92V86.65H73.1147V90.808C73.1147 91.592 73.306 92.1847 73.6887 92.586C74.0807 92.978 74.6267 93.174 75.3267 93.174C75.84 93.174 76.2834 93.0713 76.6567 92.866C77.0394 92.6513 77.3287 92.3433 77.5247 91.942C77.73 91.5407 77.8327 91.06 77.8327 90.5V86.65H78.8267V94H77.8747V91.984L78.0287 92.348C77.7954 92.8893 77.4314 93.314 76.9367 93.622C76.4514 93.9207 75.882 94.07 75.2287 94.07ZM81.5969 94V86.65H82.5489V88.652L82.4509 88.302C82.6563 87.742 83.0016 87.3173 83.4869 87.028C83.9723 86.7293 84.5743 86.58 85.2929 86.58V87.546C85.2556 87.546 85.2183 87.546 85.1809 87.546C85.1436 87.5367 85.1063 87.532 85.0689 87.532C84.2943 87.532 83.6876 87.77 83.2489 88.246C82.8103 88.7127 82.5909 89.38 82.5909 90.248V94H81.5969ZM90.1603 94.07C89.395 94.07 88.723 93.9113 88.1443 93.594C87.5657 93.2673 87.113 92.824 86.7863 92.264C86.4597 91.6947 86.2963 91.046 86.2963 90.318C86.2963 89.59 86.4503 88.946 86.7583 88.386C87.0757 87.826 87.505 87.3873 88.0463 87.07C88.597 86.7433 89.213 86.58 89.8943 86.58C90.585 86.58 91.1963 86.7387 91.7283 87.056C92.2697 87.364 92.6943 87.8027 93.0023 88.372C93.3103 88.932 93.4643 89.5807 93.4643 90.318C93.4643 90.3647 93.4597 90.416 93.4503 90.472C93.4503 90.5187 93.4503 90.57 93.4503 90.626H87.0523V89.884H92.9183L92.5263 90.178C92.5263 89.646 92.4097 89.1747 92.1763 88.764C91.9523 88.344 91.6443 88.0173 91.2523 87.784C90.8603 87.5507 90.4077 87.434 89.8943 87.434C89.3903 87.434 88.9377 87.5507 88.5363 87.784C88.135 88.0173 87.8223 88.344 87.5983 88.764C87.3743 89.184 87.2623 89.6647 87.2623 90.206V90.36C87.2623 90.92 87.3837 91.4147 87.6263 91.844C87.8783 92.264 88.2237 92.5953 88.6623 92.838C89.1103 93.0713 89.619 93.188 90.1883 93.188C90.6363 93.188 91.0517 93.1087 91.4343 92.95C91.8263 92.7913 92.1623 92.5487 92.4423 92.222L93.0023 92.866C92.6757 93.258 92.265 93.5567 91.7703 93.762C91.285 93.9673 90.7483 94.07 90.1603 94.07Z" fill="#646F85"/>
<path d="M42.5996 78.75H95.4043V79.45H42.5996V78.75ZM43.8984 95.75H94.1083V96.45H43.8984V95.75Z" fill="#646F85"/>
</svg>
