<svg width="203" height="25" viewBox="0 0 203 25" fill="none" xmlns="http://www.w3.org/2000/svg">
<path fill-rule="evenodd" clip-rule="evenodd" d="M184.033 9.4393C184.021 9.18831 183.927 8.94973 183.768 8.76472L176.502 0.345957C176.256 0.0627446 175.888 -0.0588043 175.536 0.0271002C175.184 0.113005 174.901 0.393311 174.795 0.762421C174.688 1.13153 174.774 1.53336 175.02 1.81654L181.649 9.5L175.02 17.1834C174.774 17.4667 174.688 17.8684 174.795 18.2376C174.901 18.6067 175.184 18.887 175.536 18.9729C175.888 19.0587 176.256 18.9373 176.502 18.654L183.768 10.2353C183.954 10.0195 184.049 9.7321 184.033 9.4393Z" fill="#FF9FA9"/>
<path fill-rule="evenodd" clip-rule="evenodd" d="M191.033 9.4393C191.021 9.18831 190.927 8.94973 190.768 8.76472L183.502 0.345957C183.256 0.0627446 182.888 -0.0588043 182.536 0.0271002C182.184 0.113005 181.901 0.393311 181.795 0.762421C181.688 1.13153 181.774 1.53336 182.02 1.81654L188.649 9.5L182.02 17.1834C181.774 17.4667 181.688 17.8684 181.795 18.2376C181.901 18.6067 182.184 18.887 182.536 18.9729C182.888 19.0587 183.256 18.9373 183.502 18.654L190.768 10.2353C190.954 10.0195 191.049 9.7321 191.033 9.4393Z" fill="#FF9FA9"/>
<path d="M1 10L175 10" stroke="#FF9FA9" stroke-width="1.25" stroke-linecap="round"/>
</svg>
