<svg width="13" height="10" viewBox="0 0 13 10" fill="none" xmlns="http://www.w3.org/2000/svg">
<path d="M12.4021 5.09587C12.4021 4.93856 12.34 4.79989 12.2159 4.67984L8.09896 0.575354C8.03272 0.509119 7.96442 0.461513 7.89404 0.432535C7.82781 0.403557 7.75743 0.389069 7.68292 0.389069C7.52975 0.389069 7.40142 0.440814 7.29793 0.544306C7.19444 0.643658 7.14269 0.769918 7.14269 0.923086C7.14269 0.9976 7.15511 1.07004 7.17995 1.14042C7.20479 1.20665 7.24204 1.26461 7.29172 1.31428L8.68265 2.73005L11.1478 4.97789L11.272 4.66742L9.27255 4.54323H1.41753C1.25608 4.54323 1.12361 4.59497 1.02012 4.69846C0.92077 4.80196 0.871094 4.93442 0.871094 5.09587C0.871094 5.25732 0.92077 5.38979 1.02012 5.49328C1.12361 5.59677 1.25608 5.64852 1.41753 5.64852H9.27255L11.272 5.52433L11.1478 5.22006L8.68265 7.46169L7.29172 8.87746C7.24204 8.92714 7.20479 8.98716 7.17995 9.05754C7.15511 9.12377 7.14269 9.19414 7.14269 9.26866C7.14269 9.42183 7.19444 9.54809 7.29793 9.64744C7.40142 9.75093 7.52975 9.80268 7.68292 9.80268C7.83195 9.80268 7.96649 9.74472 8.08654 9.62881L12.2159 5.51191C12.34 5.39186 12.4021 5.25318 12.4021 5.09587Z" fill="#F251BC"/>
</svg>
