<svg width="1055" height="25" viewBox="0 0 1055 25" fill="none" xmlns="http://www.w3.org/2000/svg">
<path fill-rule="evenodd" clip-rule="evenodd" d="M184.033 9.4393C184.021 9.18831 183.927 8.94973 183.768 8.76472L176.502 0.345957C176.256 0.0627446 175.888 -0.0588043 175.536 0.0271002C175.184 0.113005 174.901 0.393311 174.795 0.762421C174.688 1.13153 174.774 1.53336 175.02 1.81654L181.649 9.5L175.02 17.1834C174.774 17.4667 174.688 17.8684 174.795 18.2376C174.901 18.6067 175.184 18.887 175.536 18.9729C175.888 19.0587 176.256 18.9373 176.502 18.654L183.768 10.2353C183.954 10.0195 184.049 9.7321 184.033 9.4393Z" fill="#FF9FA9"/>
<path fill-rule="evenodd" clip-rule="evenodd" d="M191.033 9.4393C191.021 9.18831 190.927 8.94973 190.768 8.76472L183.502 0.345957C183.256 0.0627446 182.888 -0.0588043 182.536 0.0271002C182.184 0.113005 181.901 0.393311 181.795 0.762421C181.688 1.13153 181.774 1.53336 182.02 1.81654L188.649 9.5L182.02 17.1834C181.774 17.4667 181.688 17.8684 181.795 18.2376C181.901 18.6067 182.184 18.887 182.536 18.9729C182.888 19.0587 183.256 18.9373 183.502 18.654L190.768 10.2353C190.954 10.0195 191.049 9.7321 191.033 9.4393Z" fill="#FF9FA9"/>
<path d="M1 10L175 10" stroke="#FF9FA9" stroke-width="1.25" stroke-linecap="round"/>
<path fill-rule="evenodd" clip-rule="evenodd" d="M397.033 9.4393C397.021 9.18831 396.927 8.94973 396.768 8.76472L389.502 0.345957C389.256 0.0627446 388.888 -0.0588043 388.536 0.0271002C388.184 0.113005 387.901 0.393311 387.795 0.762421C387.688 1.13153 387.774 1.53336 388.02 1.81654L394.649 9.5L388.02 17.1834C387.774 17.4667 387.688 17.8684 387.795 18.2376C387.901 18.6067 388.184 18.887 388.536 18.9729C388.888 19.0587 389.256 18.9373 389.502 18.654L396.768 10.2353C396.954 10.0195 397.049 9.7321 397.033 9.4393Z" fill="#FF9FA9"/>
<path fill-rule="evenodd" clip-rule="evenodd" d="M404.033 9.4393C404.021 9.18831 403.927 8.94973 403.768 8.76472L396.502 0.345957C396.256 0.0627446 395.888 -0.0588043 395.536 0.0271002C395.184 0.113005 394.901 0.393311 394.795 0.762421C394.688 1.13153 394.774 1.53336 395.02 1.81654L401.649 9.5L395.02 17.1834C394.774 17.4667 394.688 17.8684 394.795 18.2376C394.901 18.6067 395.184 18.887 395.536 18.9729C395.888 19.0587 396.256 18.9373 396.502 18.654L403.768 10.2353C403.954 10.0195 404.049 9.7321 404.033 9.4393Z" fill="#FF9FA9"/>
<path d="M214 10L388 10" stroke="#FF9FA9" stroke-width="1.25" stroke-linecap="round"/>
<path fill-rule="evenodd" clip-rule="evenodd" d="M610.033 9.4393C610.021 9.18831 609.927 8.94973 609.768 8.76472L602.502 0.345957C602.256 0.0627446 601.888 -0.0588043 601.536 0.0271002C601.184 0.113005 600.901 0.393311 600.795 0.762421C600.688 1.13153 600.774 1.53336 601.02 1.81654L607.649 9.5L601.02 17.1834C600.774 17.4667 600.688 17.8684 600.795 18.2376C600.901 18.6067 601.184 18.887 601.536 18.9729C601.888 19.0587 602.256 18.9373 602.502 18.654L609.768 10.2353C609.954 10.0195 610.049 9.7321 610.033 9.4393Z" fill="#FF9FA9"/>
<path fill-rule="evenodd" clip-rule="evenodd" d="M617.033 9.4393C617.021 9.18831 616.927 8.94973 616.768 8.76472L609.502 0.345957C609.256 0.0627446 608.888 -0.0588043 608.536 0.0271002C608.184 0.113005 607.901 0.393311 607.795 0.762421C607.688 1.13153 607.774 1.53336 608.02 1.81654L614.649 9.5L608.02 17.1834C607.774 17.4667 607.688 17.8684 607.795 18.2376C607.901 18.6067 608.184 18.887 608.536 18.9729C608.888 19.0587 609.256 18.9373 609.502 18.654L616.768 10.2353C616.954 10.0195 617.049 9.7321 617.033 9.4393Z" fill="#FF9FA9"/>
<path d="M427 10L601 10" stroke="#FF9FA9" stroke-width="1.25" stroke-linecap="round"/>
<path fill-rule="evenodd" clip-rule="evenodd" d="M823.033 9.4393C823.021 9.18831 822.927 8.94973 822.768 8.76472L815.502 0.345957C815.256 0.0627446 814.888 -0.0588043 814.536 0.0271002C814.184 0.113005 813.901 0.393311 813.795 0.762421C813.688 1.13153 813.774 1.53336 814.02 1.81654L820.649 9.5L814.02 17.1834C813.774 17.4667 813.688 17.8684 813.795 18.2376C813.901 18.6067 814.184 18.887 814.536 18.9729C814.888 19.0587 815.256 18.9373 815.502 18.654L822.768 10.2353C822.954 10.0195 823.049 9.7321 823.033 9.4393Z" fill="#FF9FA9"/>
<path fill-rule="evenodd" clip-rule="evenodd" d="M830.033 9.4393C830.021 9.18831 829.927 8.94973 829.768 8.76472L822.502 0.345957C822.256 0.0627446 821.888 -0.0588043 821.536 0.0271002C821.184 0.113005 820.901 0.393311 820.795 0.762421C820.688 1.13153 820.774 1.53336 821.02 1.81654L827.649 9.5L821.02 17.1834C820.774 17.4667 820.688 17.8684 820.795 18.2376C820.901 18.6067 821.184 18.887 821.536 18.9729C821.888 19.0587 822.256 18.9373 822.502 18.654L829.768 10.2353C829.954 10.0195 830.049 9.7321 830.033 9.4393Z" fill="#FF9FA9"/>
<path d="M640 10L814 10" stroke="#FF9FA9" stroke-width="1.25" stroke-linecap="round"/>
<path fill-rule="evenodd" clip-rule="evenodd" d="M1036.03 9.4393C1036.02 9.18831 1035.93 8.94973 1035.77 8.76472L1028.5 0.345957C1028.26 0.0627446 1027.89 -0.0588043 1027.54 0.0271002C1027.18 0.113005 1026.9 0.393311 1026.79 0.762421C1026.69 1.13153 1026.77 1.53336 1027.02 1.81654L1033.65 9.5L1027.02 17.1834C1026.77 17.4667 1026.69 17.8684 1026.79 18.2376C1026.9 18.6067 1027.18 18.887 1027.54 18.9729C1027.89 19.0587 1028.26 18.9373 1028.5 18.654L1035.77 10.2353C1035.95 10.0195 1036.05 9.7321 1036.03 9.4393Z" fill="#FF9FA9"/>
<path fill-rule="evenodd" clip-rule="evenodd" d="M1043.03 9.4393C1043.02 9.18831 1042.93 8.94973 1042.77 8.76472L1035.5 0.345957C1035.26 0.0627446 1034.89 -0.0588043 1034.54 0.0271002C1034.18 0.113005 1033.9 0.393311 1033.79 0.762421C1033.69 1.13153 1033.77 1.53336 1034.02 1.81654L1040.65 9.5L1034.02 17.1834C1033.77 17.4667 1033.69 17.8684 1033.79 18.2376C1033.9 18.6067 1034.18 18.887 1034.54 18.9729C1034.89 19.0587 1035.26 18.9373 1035.5 18.654L1042.77 10.2353C1042.95 10.0195 1043.05 9.7321 1043.03 9.4393Z" fill="#FF9FA9"/>
<path d="M853 10L1027 10" stroke="#FF9FA9" stroke-width="1.25" stroke-linecap="round"/>
</svg>
