<svg width="164" height="83" viewBox="0 0 164 83" fill="none" xmlns="http://www.w3.org/2000/svg">
<path d="M34.45 66.137H34.185C30.9697 66.137 28.2667 65.024 26.076 62.798C23.8853 60.6073 22.79 57.9043 22.79 54.689V42.128C20.776 43.188 18.6383 43.718 16.377 43.718C15.317 43.718 14.4513 43.3823 13.78 42.711C13.144 42.0397 12.826 41.174 12.826 40.114C12.826 39.054 13.144 38.206 13.78 37.57C14.4513 36.8987 15.317 36.563 16.377 36.563C18.1437 36.563 19.6453 35.9447 20.882 34.708C22.154 33.436 22.79 31.9167 22.79 30.15C22.79 28.3833 22.154 26.8817 20.882 25.645C19.6453 24.4083 18.1437 23.79 16.377 23.79C14.6103 23.79 13.1087 24.4083 11.872 25.645C10.6353 26.8817 10.017 28.3833 10.017 30.15V50.926C10.017 51.986 9.68133 52.8517 9.01 53.523C8.33867 54.159 7.473 54.477 6.413 54.477C5.353 54.477 4.48733 54.159 3.816 53.523C3.18 52.8517 2.862 51.986 2.862 50.926V30.15C2.862 26.334 4.15167 23.1363 6.731 20.557C9.34567 17.9423 12.561 16.635 16.377 16.635C20.193 16.635 23.4083 17.9423 26.023 20.557C28.6377 23.1363 29.945 26.334 29.945 30.15V54.689C29.945 55.8903 30.3513 56.8973 31.164 57.71C31.9767 58.558 32.9837 58.982 34.185 58.982H34.45C35.51 58.982 36.358 59.3177 36.994 59.989C37.6653 60.6603 38.001 61.526 38.001 62.586C38.001 63.6107 37.6653 64.4587 36.994 65.13C36.3227 65.8013 35.4747 66.137 34.45 66.137ZM41.0448 38.895V50.926C41.0448 51.986 40.7091 52.8517 40.0378 53.523C39.3664 54.159 38.5008 54.477 37.4408 54.477C36.3808 54.477 35.5151 54.159 34.8438 53.523C34.2078 52.8517 33.8898 51.986 33.8898 50.926V38.895C33.8898 35.6797 34.9851 32.9767 37.1758 30.786C39.4018 28.5953 42.1224 27.5 45.3378 27.5C46.3624 27.5 47.2104 27.8357 47.8818 28.507C48.5531 29.1783 48.8888 30.0263 48.8888 31.051C48.8888 33.2417 47.6698 34.443 45.2318 34.655C44.0304 34.761 43.0234 35.2027 42.2108 35.98C41.4334 36.722 41.0448 37.6937 41.0448 38.895ZM75.6492 43.029C75.6492 46.2443 74.5539 48.965 72.3632 51.191C70.1726 53.3817 67.4696 54.477 64.2542 54.477C61.0036 54.477 58.2829 53.3817 56.0922 51.191C53.9016 49.0003 52.8062 46.2797 52.8062 43.029V24.797C52.8062 23.737 53.1242 22.8713 53.7602 22.2C54.4316 21.5287 55.2972 21.193 56.3572 21.193C57.4172 21.193 58.2829 21.5287 58.9542 22.2C59.6256 22.8713 59.9612 23.737 59.9612 24.797V27.606H72.0982C73.1582 27.606 74.0062 27.9417 74.6422 28.613C75.3136 29.249 75.6492 30.097 75.6492 31.157C75.6492 33.5597 74.4656 34.761 72.0982 34.761H59.9612V43.029C59.9612 44.2303 60.3676 45.255 61.1802 46.103C62.0282 46.9157 63.0529 47.322 64.2542 47.322C65.4556 47.322 66.4626 46.9157 67.2752 46.103C68.0879 45.255 68.4942 44.2303 68.4942 43.029V42.552C68.4942 41.5273 68.8299 40.6793 69.5012 40.008C70.2079 39.3367 71.0736 39.001 72.0982 39.001C73.1229 39.001 73.9709 39.3367 74.6422 40.008C75.3136 40.6793 75.6492 41.5273 75.6492 42.552V43.029ZM86.7966 50.926C86.7966 51.986 86.4609 52.8517 85.7896 53.523C85.1183 54.159 84.2526 54.477 83.1926 54.477C82.1326 54.477 81.2669 54.159 80.5956 53.523C79.9596 52.8517 79.6416 51.986 79.6416 50.926V31.051C79.6416 29.991 79.9596 29.143 80.5956 28.507C81.2669 27.8357 82.1326 27.5 83.1926 27.5C85.5953 27.5 86.7966 28.6837 86.7966 31.051V50.926ZM83.1926 16.158C81.9913 16.158 80.9489 16.5997 80.0656 17.483C79.2176 18.331 78.7936 19.3557 78.7936 20.557C78.7936 21.7583 79.2176 22.8007 80.0656 23.684C80.9489 24.532 81.9913 24.956 83.1926 24.956C84.3939 24.956 85.4186 24.532 86.2666 23.684C87.1499 22.8007 87.5916 21.7583 87.5916 20.557C87.5916 19.3557 87.1499 18.331 86.2666 17.483C85.4186 16.5997 84.3939 16.158 83.1926 16.158ZM105.687 35.662C105.087 36.2627 104.786 37.0047 104.786 37.888L104.733 44.036C104.698 46.9333 103.673 49.389 101.659 51.403C99.6807 53.417 97.2427 54.424 94.3454 54.424C93.2854 54.424 92.4197 54.106 91.7484 53.47C91.1124 52.7987 90.7944 51.933 90.7944 50.873C90.7944 49.813 91.1124 48.9473 91.7484 48.276C92.4197 47.6047 93.2854 47.269 94.3454 47.269C95.264 47.269 96.0237 46.9687 96.6244 46.368C97.2604 45.732 97.5784 44.9547 97.5784 44.036C97.5784 43.718 97.5784 43.3647 97.5784 42.976C97.6137 41.5627 97.6314 40.8383 97.6314 40.803V37.888C97.6314 34.9553 98.6207 32.4997 100.599 30.521C102.613 28.507 105.087 27.5 108.019 27.5C109.079 27.5 109.945 27.8357 110.616 28.507C111.288 29.143 111.623 29.991 111.623 31.051C111.623 32.0757 111.305 32.906 110.669 33.542C110.033 34.178 109.185 34.549 108.125 34.655C107.101 34.7257 106.288 35.0613 105.687 35.662ZM138.351 43.029C138.351 46.2443 137.255 48.965 135.065 51.191C132.874 53.3817 130.171 54.477 126.956 54.477C123.705 54.477 120.984 53.3817 118.794 51.191C116.603 49.0003 115.508 46.2797 115.508 43.029V24.797C115.508 23.737 115.826 22.8713 116.462 22.2C117.133 21.5287 117.999 21.193 119.059 21.193C120.119 21.193 120.984 21.5287 121.656 22.2C122.327 22.8713 122.663 23.737 122.663 24.797V27.606H134.8C135.86 27.606 136.708 27.9417 137.344 28.613C138.015 29.249 138.351 30.097 138.351 31.157C138.351 33.5597 137.167 34.761 134.8 34.761H122.663V43.029C122.663 44.2303 123.069 45.255 123.882 46.103C124.73 46.9157 125.754 47.322 126.956 47.322C128.157 47.322 129.164 46.9157 129.977 46.103C130.789 45.255 131.196 44.2303 131.196 43.029V42.552C131.196 41.5273 131.531 40.6793 132.203 40.008C132.909 39.3367 133.775 39.001 134.8 39.001C135.824 39.001 136.672 39.3367 137.344 40.008C138.015 40.6793 138.351 41.5273 138.351 42.552V43.029ZM157.236 35.662C156.635 36.2627 156.335 37.0047 156.335 37.888L156.282 44.036C156.247 46.9333 155.222 49.389 153.208 51.403C151.229 53.417 148.791 54.424 145.894 54.424C144.834 54.424 143.968 54.106 143.297 53.47C142.661 52.7987 142.343 51.933 142.343 50.873C142.343 49.813 142.661 48.9473 143.297 48.276C143.968 47.6047 144.834 47.269 145.894 47.269C146.813 47.269 147.572 46.9687 148.173 46.368C148.809 45.732 149.127 44.9547 149.127 44.036C149.127 43.718 149.127 43.3647 149.127 42.976C149.162 41.5627 149.18 40.8383 149.18 40.803V37.888C149.18 34.9553 150.169 32.4997 152.148 30.521C154.162 28.507 156.635 27.5 159.568 27.5C160.628 27.5 161.494 27.8357 162.165 28.507C162.836 29.143 163.172 29.991 163.172 31.051C163.172 32.0757 162.854 32.906 162.218 33.542C161.582 34.178 160.734 34.549 159.674 34.655C158.649 34.7257 157.837 35.0613 157.236 35.662Z" fill="#FFA3DA"/>
</svg>
