<svg width="148" height="148" viewBox="0 0 148 148" fill="none" xmlns="http://www.w3.org/2000/svg">
<circle cx="74" cy="74" r="73" stroke="#FF5DC8" stroke-width="2" stroke-dasharray="4 4"/>
<path d="M48.539 99.252C47.5964 99.252 46.803 99.0747 46.159 98.72C45.5244 98.356 45.039 97.8473 44.703 97.194C44.3764 96.5407 44.213 95.78 44.213 94.912V88.78H45.893V95.052C45.893 95.5747 45.9957 96.0367 46.201 96.438C46.4064 96.8393 46.705 97.152 47.097 97.376C47.489 97.5907 47.9697 97.698 48.539 97.698C49.1084 97.698 49.5844 97.5907 49.967 97.376C50.359 97.1613 50.6577 96.8533 50.863 96.452C51.0684 96.0507 51.171 95.584 51.171 95.052V88.78H52.851V94.912C52.851 95.78 52.6877 96.5407 52.361 97.194C52.0344 97.8473 51.549 98.356 50.905 98.72C50.2704 99.0747 49.4817 99.252 48.539 99.252ZM56.9412 95.654V94.184H59.0692C59.5172 94.184 59.8859 94.1 60.1752 93.932C60.4739 93.7547 60.7026 93.5167 60.8612 93.218C61.0199 92.91 61.0992 92.5647 61.0992 92.182C61.0992 91.79 61.0199 91.4447 60.8612 91.146C60.7026 90.838 60.4739 90.6 60.1752 90.432C59.8859 90.264 59.5172 90.18 59.0692 90.18H56.9412V88.71H58.8732C59.7226 88.71 60.4366 88.85 61.0152 89.13C61.6032 89.4007 62.0466 89.788 62.3452 90.292C62.6532 90.7867 62.8072 91.3793 62.8072 92.07V92.294C62.8072 92.9753 62.6532 93.568 62.3452 94.072C62.0466 94.576 61.6032 94.968 61.0152 95.248C60.4366 95.5187 59.7226 95.654 58.8732 95.654H56.9412ZM55.5412 99V88.71H57.2212V99H55.5412ZM64.773 99V88.78H66.453V99H64.773ZM66.173 99V97.502H70.723V99H66.173ZM77.1089 99.252C76.1849 99.252 75.3869 99.0933 74.7149 98.776C74.0522 98.4493 73.5015 98.02 73.0629 97.488C72.6242 96.956 72.2975 96.3867 72.0829 95.78C71.8775 95.164 71.7749 94.576 71.7749 94.016V93.708C71.7749 93.092 71.8822 92.476 72.0969 91.86C72.3209 91.244 72.6522 90.684 73.0909 90.18C73.5389 89.6667 74.0942 89.256 74.7569 88.948C75.4289 88.64 76.2129 88.486 77.1089 88.486C78.0049 88.486 78.7842 88.64 79.4469 88.948C80.1095 89.256 80.6649 89.6667 81.1129 90.18C81.5609 90.684 81.8922 91.244 82.1069 91.86C82.3309 92.476 82.4429 93.092 82.4429 93.708V94.016C82.4429 94.576 82.3355 95.164 82.1209 95.78C81.9062 96.3867 81.5795 96.956 81.1409 97.488C80.7115 98.02 80.1609 98.4493 79.4889 98.776C78.8169 99.0933 78.0235 99.252 77.1089 99.252ZM77.1089 97.698C77.6689 97.698 78.1729 97.5953 78.6209 97.39C79.0689 97.1847 79.4515 96.9047 79.7689 96.55C80.0862 96.1953 80.3242 95.7893 80.4829 95.332C80.6509 94.8747 80.7349 94.3893 80.7349 93.876C80.7349 93.3347 80.6509 92.8353 80.4829 92.378C80.3149 91.9113 80.0722 91.5053 79.7549 91.16C79.4469 90.8053 79.0689 90.53 78.6209 90.334C78.1729 90.138 77.6689 90.04 77.1089 90.04C76.5489 90.04 76.0449 90.138 75.5969 90.334C75.1489 90.53 74.7662 90.8053 74.4489 91.16C74.1315 91.5053 73.8889 91.9113 73.7209 92.378C73.5622 92.8353 73.4829 93.3347 73.4829 93.876C73.4829 94.3893 73.5622 94.8747 73.7209 95.332C73.8889 95.7893 74.1315 96.1953 74.4489 96.55C74.7662 96.9047 75.1489 97.1847 75.5969 97.39C76.0449 97.5953 76.5489 97.698 77.1089 97.698ZM83.2667 99L86.8507 88.78H89.6367L93.3327 99H91.5967L88.3627 89.9L89.0487 90.222H87.3547L88.0827 89.9L84.9467 99H83.2667ZM85.5907 96.116L86.1227 94.66H90.4067L90.9527 96.116H85.5907ZM96.5618 99.056V97.502H98.8998C99.4691 97.502 99.9778 97.4133 100.426 97.236C100.874 97.0493 101.256 96.7927 101.574 96.466C101.891 96.1393 102.129 95.7567 102.288 95.318C102.456 94.87 102.54 94.3893 102.54 93.876C102.54 93.3253 102.456 92.8307 102.288 92.392C102.129 91.9533 101.891 91.5753 101.574 91.258C101.256 90.9407 100.874 90.698 100.426 90.53C99.9778 90.3527 99.4691 90.264 98.8998 90.264H96.5618V88.71H98.7598C99.6838 88.71 100.486 88.85 101.168 89.13C101.858 89.41 102.432 89.788 102.89 90.264C103.347 90.74 103.688 91.2767 103.912 91.874C104.136 92.4713 104.248 93.0873 104.248 93.722V94.03C104.248 94.6273 104.136 95.2293 103.912 95.836C103.688 96.4333 103.347 96.9747 102.89 97.46C102.432 97.936 101.858 98.3233 101.168 98.622C100.486 98.9113 99.6838 99.056 98.7598 99.056H96.5618ZM95.1618 99.056V88.71H96.8418V99.056H95.1618Z" fill="#EF22A9"/>
<path d="M73.6817 64.8147C75.3584 64.8147 76.7636 64.2464 77.8973 63.1098C79.031 61.9732 79.5979 60.5665 79.5979 58.8898C79.5979 57.2131 79.0295 55.8117 77.8929 54.6856C76.7563 53.5595 75.3497 52.9964 73.673 52.9964C71.9962 52.9964 70.5948 53.5609 69.4687 54.6899C68.3426 55.8189 67.7796 57.2218 67.7796 58.8985C67.7796 60.5752 68.3441 61.9804 69.4731 63.1141C70.6021 64.2478 72.0049 64.8147 73.6817 64.8147ZM59 70.41V47.3412H66.644L69.5144 44H77.9002L80.7594 47.3412H88.3774V70.41H59ZM61.1656 68.2444H86.2118V49.5068H61.1656V68.2444Z" fill="#EF22A9"/>
</svg>
