<svg width="307" height="415" viewBox="0 0 307 415" fill="none" xmlns="http://www.w3.org/2000/svg">
<path d="M56.4308 414.431C29.1612 388.778 27.8432 388.782 0.56939 414.431C26.2217 387.161 26.2177 385.843 0.56939 358.569C27.839 384.222 29.1571 384.218 56.4308 358.569C30.7826 385.843 30.7745 387.149 56.4308 414.431Z" fill="#4F4F4F"/>
<rect width="11.2698" height="11.8088" transform="matrix(0.844553 -0.535472 0.465345 0.885129 207.47 269.568)" fill="#4F4F4F"/>
<ellipse cx="247.029" cy="286.812" rx="6.28019" ry="6.89674" fill="#5F5C5C"/>
<path d="M222.205 313L231.043 329.811H213.367L222.205 313Z" fill="#4F4F4F"/>
<path d="M234.262 235.617L251.024 241.778L237.784 254.639L234.262 235.617Z" fill="#4F4F4F"/>
<path d="M263 89C261.726 46.8416 260.685 45.7949 219 44.5C260.685 43.2116 261.72 42.1584 263 0C264.274 42.1584 265.315 43.2052 307 44.5C265.315 45.7949 264.28 46.8287 263 89Z" fill="#4F4F4F"/>
<path d="M243 142C241.958 107.894 241.106 107.048 207 106C241.106 104.958 241.953 104.106 243 70C244.042 104.106 244.894 104.953 279 106C244.894 107.048 244.048 107.884 243 142Z" fill="#4F4F4F"/>
</svg>
