<svg width="49" height="43" viewBox="0 0 49 43" fill="none" xmlns="http://www.w3.org/2000/svg">
<path opacity="0.5" fill-rule="evenodd" clip-rule="evenodd" d="M39.8416 2.49392C39.5833 2.01561 39.7545 1.41863 40.2269 1.14977L41.3583 0.505852C41.8459 0.228336 42.4663 0.406196 42.7328 0.899894L44.0997 3.43173C44.3472 3.8902 44.1832 4.46242 43.7304 4.72013C47.1292 9.84806 52.1077 22.8914 45.4038 34.6969L45.6519 34.8509C45.8263 34.9591 45.88 35.1881 45.7718 35.3625L45.2377 36.2233L48.5056 38.2509C48.68 38.3591 48.7336 38.5882 48.6254 38.7626L48.341 39.221C48.2328 39.3954 48.0037 39.449 47.8293 39.3408L44.5614 37.3132L41.2149 42.7065C41.1067 42.8809 40.8776 42.9346 40.7032 42.8264L38.4929 41.4549C38.3185 41.3467 38.2649 41.1176 38.3731 40.9432L42.9299 33.5992C43.0381 33.4248 43.2672 33.3712 43.4416 33.4794L43.8013 33.7026C50.0878 22.6763 45.482 10.741 42.272 5.55017C41.9444 5.73658 41.5277 5.61711 41.3486 5.28548L39.8416 2.49392ZM18.766 39.9693C29.1302 39.9693 37.532 31.5674 37.532 21.2033C37.532 10.8391 29.1302 2.43727 18.766 2.43727C8.40182 2.43727 0 10.8391 0 21.2033C0 31.5674 8.40182 39.9693 18.766 39.9693ZM18.7657 25.3464C21.0538 25.3464 22.9088 23.4914 22.9088 21.2032C22.9088 18.915 21.0538 17.0601 18.7657 17.0601C16.4775 17.0601 14.6225 18.915 14.6225 21.2032C14.6225 23.4914 16.4775 25.3464 18.7657 25.3464Z" fill="url(#paint0_linear_685_113281)"/>
<defs>
<linearGradient id="paint0_linear_685_113281" x1="29.3831" y1="42.8823" x2="28.9529" y2="0.371486" gradientUnits="userSpaceOnUse">
<stop stop-color="#BF3948"/>
<stop offset="1" stop-color="#962BC7"/>
</linearGradient>
</defs>
</svg>
