<svg width="13" height="12" viewBox="0 0 13 12" fill="none" xmlns="http://www.w3.org/2000/svg">
<path d="M2.50391 8.86963H3.86279V8.00488H2.51465C2.24609 8.00488 2.0402 7.93327 1.89697 7.79004C1.75374 7.64681 1.68213 7.43555 1.68213 7.15625V1.81738C1.68213 1.53809 1.75374 1.32682 1.89697 1.18359C2.0402 1.04036 2.24609 0.96875 2.51465 0.96875H7.88037C8.14535 0.96875 8.34945 1.04036 8.49268 1.18359C8.63949 1.32682 8.71289 1.53809 8.71289 1.81738V2.99365H9.57764V1.76904C9.57764 1.21761 9.4362 0.802246 9.15332 0.522949C8.87402 0.243652 8.45508 0.104004 7.89648 0.104004H2.50391C1.94173 0.104004 1.51921 0.243652 1.23633 0.522949C0.957031 0.798665 0.817383 1.21403 0.817383 1.76904V7.20459C0.817383 7.7596 0.957031 8.17676 1.23633 8.45605C1.51921 8.73177 1.94173 8.86963 2.50391 8.86963ZM5.10889 11.3564H10.5015C11.0601 11.3564 11.479 11.2168 11.7583 10.9375C12.0412 10.6582 12.1826 10.2428 12.1826 9.69141V4.25586C12.1826 3.70443 12.0412 3.28906 11.7583 3.00977C11.479 2.73047 11.0601 2.59082 10.5015 2.59082H5.10889C4.54671 2.59082 4.12419 2.73047 3.84131 3.00977C3.56201 3.28548 3.42236 3.70085 3.42236 4.25586V9.69141C3.42236 10.2464 3.56201 10.6618 3.84131 10.9375C4.12419 11.2168 4.54671 11.3564 5.10889 11.3564ZM5.11963 10.4917C4.85107 10.4917 4.64518 10.4201 4.50195 10.2769C4.35872 10.1336 4.28711 9.92236 4.28711 9.64307V4.3042C4.28711 4.0249 4.35872 3.81364 4.50195 3.67041C4.64518 3.52718 4.85107 3.45557 5.11963 3.45557H10.4854C10.7503 3.45557 10.9544 3.52718 11.0977 3.67041C11.2445 3.81364 11.3179 4.0249 11.3179 4.3042V9.64307C11.3179 9.92236 11.2445 10.1336 11.0977 10.2769C10.9544 10.4201 10.7503 10.4917 10.4854 10.4917H5.11963Z" fill="#F5F5F5"/>
</svg>
