<svg width="1250" height="41" viewBox="0 0 1250 41" fill="none" xmlns="http://www.w3.org/2000/svg">
<line x1="-4.37114e-08" y1="22.8638" x2="1250" y2="22.8637" stroke="#973540"/>
<path fill-rule="evenodd" clip-rule="evenodd" d="M605 0.36377C605 11.4095 613.954 20.3638 625 20.3638C613.954 20.3638 605 29.3182 605 40.3638H607.4C607.4 30.6436 615.28 22.7638 625 22.7638C634.72 22.7638 642.6 30.6436 642.6 40.3638H645C645 29.3182 636.046 20.3638 625 20.3638C636.046 20.3638 645 11.4095 645 0.36377H642.6C642.6 10.084 634.72 17.9638 625 17.9638C615.28 17.9638 607.4 10.084 607.4 0.36377H605ZM609.8 0.36377C609.8 8.75849 616.605 15.5638 625 15.5638C633.395 15.5638 640.2 8.75849 640.2 0.36377H637.8C637.8 7.43301 632.069 13.1638 625 13.1638C617.931 13.1638 612.2 7.43301 612.2 0.36377H609.8ZM614.6 0.36377C614.6 6.10753 619.256 10.7638 625 10.7638C630.744 10.7638 635.4 6.10753 635.4 0.36377H633C633 4.78205 629.418 8.36377 625 8.36377C620.582 8.36377 617 4.78205 617 0.36377H614.6ZM625 25.1638C633.395 25.1638 640.2 31.969 640.2 40.3638H637.8C637.8 33.2946 632.069 27.5638 625 27.5638C617.931 27.5638 612.2 33.2946 612.2 40.3638H609.8C609.8 31.969 616.605 25.1638 625 25.1638ZM625 29.9638C630.744 29.9638 635.4 34.62 635.4 40.3638H633C633 35.9456 629.418 32.3638 625 32.3638C620.582 32.3638 617 35.9456 617 40.3638H614.6C614.6 34.62 619.256 29.9638 625 29.9638Z" fill="url(#paint0_linear_685_112869)"/>
<defs>
<linearGradient id="paint0_linear_685_112869" x1="629.124" y1="40.3638" x2="628.66" y2="0.361978" gradientUnits="userSpaceOnUse">
<stop stop-color="#BF3948"/>
<stop offset="1" stop-color="#962BC7"/>
</linearGradient>
</defs>
</svg>
