<svg width="20" height="14" viewBox="0 0 20 14" fill="none" xmlns="http://www.w3.org/2000/svg">
<path d="M14.6824 13.9886C14.6824 13.9886 14.0809 13.2716 13.5815 12.6455C15.7606 12.0309 16.5891 10.6651 16.5891 10.6651C15.9081 11.109 15.2612 11.4277 14.6824 11.6439C13.8539 11.9968 13.0595 12.2244 12.2764 12.361C10.6875 12.6569 9.2234 12.5772 7.97498 12.3496C7.03299 12.1675 6.21584 11.9057 5.53489 11.6325C5.14901 11.4846 4.74044 11.3025 4.32052 11.0634C4.27512 11.0293 4.21837 11.0179 4.17298 10.9838C4.13893 10.9724 4.12758 10.9496 4.10488 10.9382C3.8098 10.7675 3.63956 10.6537 3.63956 10.6537C3.63956 10.6537 4.43401 11.9854 6.54497 12.6228C6.04561 13.2602 5.43274 14 5.43274 14C1.76693 13.8748 0.370972 11.4504 0.370972 11.4504C0.370972 6.08949 2.76567 1.74156 2.76567 1.74156C5.14901 -0.045421 7.43022 0.000107026 7.43022 0.000107026L7.60046 0.204984C4.60425 1.07002 3.23099 2.37895 3.23099 2.37895C3.23099 2.37895 3.59416 2.17407 4.20702 1.90091C5.97751 1.11555 7.39617 0.899287 7.97498 0.853759C8.07712 0.842377 8.15657 0.819613 8.25871 0.819613C9.2688 0.683029 10.4151 0.648883 11.6067 0.785467C13.1843 0.967579 14.8753 1.43424 16.6004 2.37895C16.6004 2.37895 15.2839 1.12693 12.4693 0.261894L12.6963 0.000107026C12.6963 0.000107026 14.9661 -0.0454211 17.3608 1.75294C17.3608 1.75294 19.7555 6.10087 19.7555 11.4618C19.7669 11.4504 18.3482 13.8748 14.6824 13.9886ZM6.9649 6.21469C6.02291 6.21469 5.27386 7.04558 5.27386 8.05858C5.27386 9.07158 6.03426 9.90247 6.9649 9.90247C7.90689 9.90247 8.65594 9.07158 8.65594 8.05858C8.66729 7.04558 7.90689 6.21469 6.9649 6.21469ZM13.0254 6.21469C12.0834 6.21469 11.3344 7.04558 11.3344 8.05858C11.3344 9.07158 12.0948 9.90247 13.0254 9.90247C13.9674 9.90247 14.7164 9.07158 14.7164 8.05858C14.7164 7.04558 13.9674 6.21469 13.0254 6.21469Z" fill="#828282"/>
</svg>
