<svg width="20" height="14" viewBox="0 0 20 14" fill="none" xmlns="http://www.w3.org/2000/svg">
<path d="M14.6825 13.9886C14.6825 13.9886 14.081 13.2716 13.5816 12.6455C15.7607 12.0309 16.5892 10.6651 16.5892 10.6651C15.9082 11.109 15.2613 11.4277 14.6825 11.6439C13.854 11.9968 13.0596 12.2244 12.2765 12.361C10.6876 12.6569 9.22352 12.5772 7.9751 12.3496C7.03311 12.1675 6.21597 11.9057 5.53501 11.6325C5.14914 11.4846 4.74056 11.3025 4.32064 11.0634C4.27524 11.0293 4.2185 11.0179 4.1731 10.9838C4.13905 10.9724 4.1277 10.9496 4.105 10.9382C3.80992 10.7675 3.63968 10.6537 3.63968 10.6537C3.63968 10.6537 4.43413 11.9854 6.5451 12.6228C6.04573 13.2602 5.43287 14 5.43287 14C1.76705 13.8748 0.371094 11.4504 0.371094 11.4504C0.371094 6.08949 2.76579 1.74156 2.76579 1.74156C5.14914 -0.045421 7.43034 0.000107026 7.43034 0.000107026L7.60058 0.204984C4.60437 1.07002 3.23111 2.37895 3.23111 2.37895C3.23111 2.37895 3.59429 2.17407 4.20715 1.90091C5.97763 1.11555 7.39629 0.899287 7.9751 0.853759C8.07725 0.842377 8.15669 0.819613 8.25883 0.819613C9.26892 0.683029 10.4152 0.648883 11.6069 0.785467C13.1844 0.967579 14.8755 1.43424 16.6005 2.37895C16.6005 2.37895 15.284 1.12693 12.4694 0.261894L12.6964 0.000107026C12.6964 0.000107026 14.9663 -0.0454211 17.3609 1.75294C17.3609 1.75294 19.7556 6.10087 19.7556 11.4618C19.767 11.4504 18.3483 13.8748 14.6825 13.9886ZM6.96502 6.21469C6.02303 6.21469 5.27398 7.04558 5.27398 8.05858C5.27398 9.07158 6.03438 9.90247 6.96502 9.90247C7.90701 9.90247 8.65606 9.07158 8.65606 8.05858C8.66741 7.04558 7.90701 6.21469 6.96502 6.21469ZM13.0255 6.21469C12.0835 6.21469 11.3345 7.04558 11.3345 8.05858C11.3345 9.07158 12.0949 9.90247 13.0255 9.90247C13.9675 9.90247 14.7166 9.07158 14.7166 8.05858C14.7166 7.04558 13.9675 6.21469 13.0255 6.21469Z" fill="#F251BC"/>
</svg>
