<svg width="185" height="194" viewBox="0 0 185 194" fill="none" xmlns="http://www.w3.org/2000/svg">
<g clip-path="url(#clip0_2267_157331)">
<mask id="mask0_2267_157331" style="mask-type:luminance" maskUnits="userSpaceOnUse" x="144" y="0" width="41" height="42">
<path d="M184.25 0H144V42H184.25V0Z" fill="white"/>
</mask>
<g mask="url(#mask0_2267_157331)">
<path d="M164.125 42C163.542 22.105 163.066 21.6111 144 21C163.066 20.392 163.539 19.895 164.125 0C164.708 19.895 165.184 20.389 184.25 21C165.184 21.6111 164.711 22.0989 164.125 42Z" fill="#BF3948"/>
</g>
</g>
<g clip-path="url(#clip1_2267_157331)">
<mask id="mask1_2267_157331" style="mask-type:luminance" maskUnits="userSpaceOnUse" x="0" y="115" width="33" height="34">
<path d="M33 115H0V149H33V115Z" fill="white"/>
</mask>
<g mask="url(#mask1_2267_157331)">
<path d="M16.5 149C16.0223 132.895 15.6318 132.495 0 132C15.6318 131.508 16.0199 131.105 16.5 115C16.9777 131.105 17.3682 131.505 33 132C17.3682 132.495 16.9802 132.89 16.5 149Z" fill="#FF5DC8"/>
</g>
</g>
<path d="M147.956 178.75C158.173 178.75 166.456 170.468 166.456 160.25L166.456 60.2621C166.456 50.0448 158.173 41.7621 147.956 41.7621L73.0561 41.7621C62.8389 41.7621 54.5561 50.0448 54.5561 60.2621L54.5561 160.25C54.5561 170.468 62.8389 178.75 73.0561 178.75L147.956 178.75Z" fill="#6D2222" stroke="#BF3948"/>
<path d="M138.857 170.119C149.075 170.119 157.357 161.836 157.357 151.619L157.357 52.771C157.357 42.5538 149.075 34.271 138.857 34.271L63.958 34.271C53.7407 34.271 45.458 42.5538 45.458 52.771L45.458 151.619C45.458 161.836 53.7407 170.119 63.958 170.119L138.857 170.119Z" fill="#9A3641" stroke="#E63E50"/>
<path d="M129.758 161.488C139.976 161.488 148.258 153.205 148.258 142.988L148.258 43C148.258 32.7827 139.976 24.5 129.758 24.5L55.9994 24.5C45.7821 24.5 37.4994 32.7827 37.4994 43L37.4994 142.988C37.4994 153.205 45.7821 161.488 55.9994 161.488L129.758 161.488Z" fill="url(#paint0_linear_2267_157331)" stroke="#F251BC"/>
<path fill-rule="evenodd" clip-rule="evenodd" d="M40.3331 81.7275L20.7992 62.7077L22.1029 61.4383L41.6455 80.4665L31.0693 55.6035L32.7728 54.9165L43.3469 79.7748L43.3469 52.8705L45.1907 52.8705L45.1907 79.7748L55.7649 54.9165L57.4683 55.6035L46.8957 80.4579L66.4295 61.4383L67.7333 62.7077L48.1996 81.7273L73.7257 71.4331L74.4312 73.0917L48.9012 83.3876L76.5326 83.3876L76.5326 85.1829L48.9012 85.1829L74.4312 95.4787L73.7257 97.1374L48.1907 86.8395L67.7333 105.868L66.4295 107.137L46.8957 88.1174L57.4683 112.972L55.7649 113.659L45.1907 88.8007L45.1907 115.705L43.3469 115.705L43.3469 88.8007L32.7728 113.659L31.0693 112.972L41.6455 88.109L22.1029 107.137L20.7992 105.868L40.3417 86.8395L14.8067 97.1374L14.1012 95.4787L39.6313 85.1829L11.9999 85.1829L11.9999 83.3876L39.6313 83.3876L14.1012 73.0917L14.8067 71.4331L40.3331 81.7275Z" fill="#FF9FA9"/>
<path d="M106.179 161.974C105.626 161.974 105.177 161.527 105.196 160.975C105.316 157.524 106.053 154.119 107.377 150.924C108.828 147.42 110.955 144.237 113.637 141.555C116.318 138.874 119.501 136.747 123.005 135.295C126.509 133.844 130.264 133.097 134.056 133.097C137.848 133.097 141.603 133.844 145.107 135.295C148.61 136.747 151.794 138.874 154.475 141.555C157.157 144.237 159.284 147.42 160.735 150.924C162.092 154.201 161.316 176.818 161.21 182.831C161.2 183.383 160.75 183.827 160.198 183.827L156.117 183.827C155.564 183.827 155.12 183.392 155.134 182.84C155.272 177.327 156.178 155.815 155.116 153.251C153.971 150.485 152.292 147.972 150.175 145.856C148.058 143.739 145.545 142.06 142.779 140.914C140.014 139.769 137.049 139.179 134.056 139.179C131.062 139.179 128.098 139.769 125.332 140.914C122.567 142.06 120.054 143.739 117.937 145.856C115.82 147.972 114.141 150.485 112.995 153.251C111.978 155.708 111.399 158.323 111.282 160.975C111.258 161.527 110.812 161.974 110.26 161.974L106.179 161.974Z" fill="#C154F3"/>
<path d="M95.2523 161.975C94.7 161.975 94.251 161.528 94.2648 160.975C94.3876 156.089 95.4095 151.264 97.2821 146.743C99.2825 141.914 102.214 137.526 105.91 133.83C109.607 130.134 113.995 127.202 118.824 125.202C123.653 123.201 128.829 122.172 134.056 122.172C139.283 122.172 144.459 123.201 149.288 125.202C154.117 127.202 158.505 130.134 162.201 133.83C165.897 137.526 168.829 141.914 170.83 146.743C172.72 151.306 172.349 169.42 172.303 175.811C172.299 176.363 171.851 176.804 171.299 176.804L167.163 176.804C166.611 176.804 166.164 176.357 166.17 175.804C166.24 170.032 166.747 152.92 165.161 149.091C163.469 145.006 160.989 141.295 157.863 138.168C154.736 135.042 151.025 132.562 146.94 130.87C142.855 129.178 138.477 128.307 134.056 128.307C129.635 128.307 125.256 129.178 121.172 130.87C117.087 132.562 113.375 135.042 110.249 138.168C107.123 141.295 104.643 145.006 102.951 149.091C101.386 152.868 100.524 156.895 100.403 160.975C100.386 161.527 99.9401 161.975 99.3878 161.975L95.2523 161.975Z" fill="#C154F3"/>
<path d="M84.3258 161.975C83.7735 161.975 83.3247 161.527 83.3356 160.975C83.4602 154.653 84.7656 148.408 87.1874 142.561C89.7368 136.406 93.4735 130.814 98.1843 126.103C102.895 121.392 108.487 117.656 114.642 115.106C120.797 112.557 127.394 111.245 134.056 111.245C140.718 111.245 147.315 112.557 153.469 115.106C159.624 117.656 165.217 121.392 169.928 126.103C174.638 130.814 178.375 136.406 180.924 142.561C183.368 148.462 182.994 183.458 182.959 192.212C182.957 192.764 182.509 193.193 181.957 193.193L177.766 193.193C177.213 193.193 176.766 192.766 176.769 192.214C176.821 184.06 177.341 150.09 175.204 144.931C172.966 139.527 169.685 134.617 165.55 130.481C161.414 126.345 156.504 123.065 151.1 120.826C145.696 118.588 139.905 117.436 134.056 117.436C128.207 117.436 122.415 118.588 117.012 120.826C111.608 123.065 106.698 126.345 102.562 130.481C98.4264 134.617 95.1457 139.527 92.9074 144.931C90.7967 150.026 89.652 155.467 89.5283 160.975C89.5159 161.527 89.0694 161.975 88.5171 161.975L84.3258 161.975Z" fill="#C154F3"/>
<defs>
<linearGradient id="paint0_linear_2267_157331" x1="36.9994" y1="78.7685" x2="148.769" y2="79.8185" gradientUnits="userSpaceOnUse">
<stop stop-color="#BF3948"/>
<stop offset="1" stop-color="#962BC7"/>
</linearGradient>
<clipPath id="clip0_2267_157331">
<rect width="40.25" height="42" fill="white" transform="translate(144)"/>
</clipPath>
<clipPath id="clip1_2267_157331">
<rect width="33" height="34" fill="white" transform="translate(0 115)"/>
</clipPath>
</defs>
</svg>
