<svg width="683" height="185" viewBox="0 0 683 185" fill="none" xmlns="http://www.w3.org/2000/svg">
<path d="M631.5 108C631.5 135.89 608.89 158.5 581 158.5L78 158.5C50.1096 158.5 27.5 135.89 27.5 108L27.5 63C27.5 35.1096 50.1096 12.5 78 12.5L581 12.4999C608.89 12.4999 631.5 35.1096 631.5 62.9999L631.5 108Z" fill="#272222" stroke="#BF3948"/>
<path d="M623.5 99C623.5 126.89 600.89 149.5 573 149.5L53 149.5C25.1096 149.5 2.5 126.89 2.5 99.0001L2.49999 51C2.49999 23.1096 25.1096 0.499997 53 0.499994L573 0.499944C600.89 0.499941 623.5 23.1096 623.5 50.9999L623.5 99Z" fill="#272222" stroke="#C154F3"/>
<path fill-rule="evenodd" clip-rule="evenodd" d="M60.6817 54.2887L74.0004 41.5754L73.1115 40.7269L59.7869 53.4458L66.998 36.8268L65.8365 36.3676L58.6268 52.9834V35H57.3697V52.9834L50.16 36.3676L48.9985 36.8268L56.2072 53.44L42.8885 40.7269L41.9996 41.5754L55.3181 54.2886L37.9138 47.4076L37.4328 48.5163L54.8398 55.3983H36V56.5983H54.8398L37.4328 63.4803L37.9138 64.589L55.3242 57.7057L41.9996 70.4246L42.8885 71.2731L56.2072 58.5598L48.9985 75.1732L50.16 75.6324L57.3697 59.0166V77H58.6268V59.0166L65.8365 75.6324L66.998 75.1732L59.7869 58.5542L73.1115 71.2731L74.0004 70.4246L60.6758 57.7057L78.0863 64.589L78.5672 63.4803L61.1602 56.5983H80V55.3983H61.1602L78.5672 48.5163L78.0863 47.4076L60.6817 54.2887Z" fill="#962BC7"/>
<path d="M654.246 124.919C664.463 124.919 672.746 116.636 672.746 106.419L672.746 63.1648C672.746 52.9475 664.463 44.6648 654.246 44.6648L625.765 44.6648C615.548 44.6648 607.265 52.9475 607.265 63.1648L607.265 106.419C607.265 116.636 615.548 124.919 625.765 124.919L654.246 124.919Z" fill="#6D2222" stroke="#BF3948"/>
<path d="M648.889 119.836C659.106 119.836 667.389 111.554 667.389 101.336L667.389 58.7538C667.389 48.5365 659.106 40.2538 648.889 40.2538L620.408 40.2538C610.191 40.2538 601.908 48.5365 601.908 58.7538L601.908 101.336C601.908 111.554 610.191 119.836 620.408 119.836L648.889 119.836Z" fill="#9A3641" stroke="#E63E50"/>
<path d="M643.531 114.754C653.749 114.754 662.031 106.472 662.031 96.2544L662.031 53.0002C662.031 42.783 653.749 34.5002 643.531 34.5002L615.722 34.5002C605.505 34.5002 597.222 42.783 597.222 53.0002L597.222 96.2544C597.222 106.472 605.505 114.754 615.722 114.754L643.531 114.754Z" fill="#BC2B8B" stroke="#F251BC"/>
<path fill-rule="evenodd" clip-rule="evenodd" d="M598.684 67.9929L587.181 56.7931L587.949 56.0456L599.457 67.2504L593.229 52.6098L594.232 52.2053L600.459 66.843L600.459 51.0005L601.544 51.0005L601.544 66.843L607.771 52.2053L608.774 52.6098L602.548 67.2453L614.051 56.0456L614.819 56.7931L603.316 67.9928L618.347 61.931L618.763 62.9077L603.729 68.9704L620 68.9704L620 70.0276L603.729 70.0276L618.763 76.0903L618.347 77.067L603.311 71.0031L614.819 82.2079L614.051 82.9554L602.548 71.7556L608.774 86.3912L607.771 86.7957L601.544 72.1579L601.544 88.0005L600.459 88.0005L600.459 72.1579L594.232 86.7957L593.229 86.3912L599.457 71.7506L587.949 82.9554L587.181 82.2079L598.689 71.0031L583.653 77.067L583.237 76.0903L598.271 70.0276L582 70.0276L582 68.9704L598.271 68.9704L583.237 62.9077L583.653 61.931L598.684 67.9929Z" fill="#FF9FA9"/>
<path d="M637.869 115.246C637.316 115.246 636.865 114.798 636.898 114.247C637.009 112.355 637.436 110.494 638.163 108.739C639.017 106.676 640.27 104.801 641.849 103.222C643.428 101.643 645.303 100.391 647.366 99.5363C649.429 98.6817 651.64 98.2419 653.873 98.2419C656.106 98.2419 658.317 98.6817 660.38 99.5363C662.443 100.391 664.318 101.643 665.897 103.222C667.476 104.801 668.728 106.676 669.583 108.739C670.354 110.601 669.955 123.062 669.87 127.118C669.859 127.67 669.408 128.114 668.856 128.114L667.274 128.114C666.722 128.114 666.28 127.674 666.296 127.122C666.405 123.338 666.876 111.561 666.274 110.109C665.6 108.481 664.611 107.001 663.364 105.755C662.118 104.508 660.638 103.519 659.01 102.845C657.381 102.17 655.636 101.823 653.873 101.823C652.11 101.823 650.365 102.17 648.736 102.845C647.107 103.519 645.628 104.508 644.381 105.755C643.135 107.001 642.146 108.481 641.471 110.109C640.925 111.429 640.593 112.826 640.487 114.247C640.446 114.798 640.002 115.246 639.45 115.246L637.869 115.246Z" fill="#C154F3"/>
<path d="M631.435 115.247C630.882 115.247 630.432 114.799 630.456 114.247C630.573 111.51 631.169 108.813 632.219 106.277C633.397 103.433 635.123 100.85 637.299 98.6732C639.476 96.4967 642.06 94.7703 644.903 93.5924C647.747 92.4145 650.795 91.8083 653.873 91.8083C656.951 91.8083 659.999 92.4145 662.842 93.5924C665.686 94.7703 668.27 96.4967 670.446 98.6732C672.623 100.85 674.349 103.433 675.527 106.277C676.602 108.872 676.435 118.907 676.398 122.982C676.393 123.534 675.944 123.979 675.392 123.979L673.779 123.979C673.227 123.979 672.781 123.533 672.789 122.981C672.845 119.247 673.088 109.83 672.189 107.66C671.193 105.254 669.733 103.069 667.892 101.228C666.051 99.387 663.865 97.9266 661.46 96.9303C659.054 95.934 656.476 95.4212 653.873 95.4212C651.269 95.4212 648.691 95.934 646.286 96.9303C643.881 97.9266 641.695 99.387 639.854 101.228C638.013 103.069 636.553 105.254 635.557 107.66C634.688 109.757 634.187 111.985 634.073 114.247C634.045 114.799 633.6 115.247 633.047 115.247L631.435 115.247Z" fill="#C154F3"/>
<path d="M625 115.246C624.448 115.246 623.999 114.799 624.017 114.247C624.137 110.665 624.901 107.131 626.274 103.815C627.776 100.19 629.976 96.8973 632.75 94.1234C635.524 91.3495 638.817 89.1491 642.441 87.6479C646.065 86.1467 649.95 85.374 653.873 85.374C657.796 85.374 661.68 86.1467 665.304 87.6479C668.929 89.1491 672.222 91.3495 674.996 94.1234C677.77 96.8973 679.97 100.19 681.471 103.815C682.874 107.202 682.7 126.871 682.671 132.633C682.669 133.186 682.22 133.629 681.668 133.629L680.022 133.629C679.47 133.629 679.023 133.19 679.027 132.638C679.07 127.2 679.328 108.167 678.103 105.21C676.785 102.028 674.853 99.1367 672.418 96.7014C669.982 94.266 667.091 92.3342 663.909 91.0161C660.727 89.6981 657.317 89.0198 653.873 89.0198C650.429 89.0198 647.018 89.6981 643.836 91.0161C640.654 92.3342 637.763 94.266 635.328 96.7014C632.892 99.1367 630.961 102.028 629.643 105.21C628.452 108.084 627.784 111.144 627.665 114.247C627.644 114.799 627.198 115.246 626.646 115.246L625 115.246Z" fill="#C154F3"/>
<path d="M106.624 88V77.78H107.688V88H106.624ZM111.165 88V80.594H112.005V83.702H111.837C111.837 83.0113 111.939 82.4187 112.145 81.924C112.35 81.4293 112.658 81.0467 113.069 80.776C113.479 80.5053 113.997 80.37 114.623 80.37H114.665C115.598 80.37 116.293 80.664 116.751 81.252C117.208 81.8307 117.437 82.6473 117.437 83.702V88H116.401V83.478C116.401 82.834 116.223 82.316 115.869 81.924C115.514 81.532 115.019 81.336 114.385 81.336C113.731 81.336 113.204 81.5413 112.803 81.952C112.411 82.3533 112.215 82.8853 112.215 83.548V88H111.165ZM127.637 88.238C127.002 88.238 126.442 88.1307 125.957 87.916C125.481 87.692 125.075 87.398 124.739 87.034C124.412 86.6607 124.16 86.2453 123.983 85.788C123.815 85.3307 123.731 84.864 123.731 84.388V84.192C123.731 83.716 123.82 83.2493 123.997 82.792C124.174 82.3253 124.431 81.91 124.767 81.546C125.103 81.182 125.509 80.8927 125.985 80.678C126.47 80.454 127.021 80.342 127.637 80.342C128.262 80.342 128.813 80.454 129.289 80.678C129.774 80.8927 130.185 81.182 130.521 81.546C130.857 81.91 131.109 82.3253 131.277 82.792C131.454 83.2493 131.543 83.716 131.543 84.192V84.388C131.543 84.864 131.459 85.3307 131.291 85.788C131.123 86.2453 130.871 86.6607 130.535 87.034C130.208 87.398 129.802 87.692 129.317 87.916C128.832 88.1307 128.272 88.238 127.637 88.238ZM127.637 87.3C128.253 87.3 128.771 87.1647 129.191 86.894C129.62 86.614 129.947 86.25 130.171 85.802C130.395 85.3447 130.507 84.8407 130.507 84.29C130.507 83.73 130.39 83.226 130.157 82.778C129.933 82.3207 129.606 81.9613 129.177 81.7C128.748 81.4293 128.234 81.294 127.637 81.294C127.049 81.294 126.54 81.4293 126.111 81.7C125.682 81.9613 125.35 82.3207 125.117 82.778C124.893 83.226 124.781 83.73 124.781 84.29C124.781 84.8407 124.893 85.3447 125.117 85.802C125.341 86.25 125.663 86.614 126.083 86.894C126.512 87.1647 127.03 87.3 127.637 87.3ZM134.184 88V80.594H135.024V83.688H134.94C134.94 82.6053 135.178 81.8073 135.654 81.294C136.13 80.7713 136.877 80.51 137.894 80.51H138.132V81.462H137.698C136.896 81.462 136.284 81.672 135.864 82.092C135.444 82.5027 135.234 83.1093 135.234 83.912V88H134.184ZM143.273 88.238C142.732 88.238 142.237 88.14 141.789 87.944C141.35 87.7387 140.968 87.4587 140.641 87.104C140.324 86.74 140.076 86.3293 139.899 85.872C139.731 85.4053 139.647 84.9107 139.647 84.388V84.192C139.647 83.688 139.731 83.2073 139.899 82.75C140.067 82.2833 140.305 81.8727 140.613 81.518C140.93 81.154 141.308 80.8693 141.747 80.664C142.195 80.4493 142.694 80.342 143.245 80.342C143.87 80.342 144.421 80.4773 144.897 80.748C145.373 81.0187 145.756 81.4107 146.045 81.924C146.334 82.428 146.488 83.0487 146.507 83.786L146.045 82.918V77.78H147.095V88H146.255V84.71H146.591C146.572 85.4847 146.409 86.138 146.101 86.67C145.802 87.1927 145.406 87.5847 144.911 87.846C144.426 88.1073 143.88 88.238 143.273 88.238ZM143.413 87.314C143.917 87.314 144.37 87.202 144.771 86.978C145.182 86.754 145.504 86.4367 145.737 86.026C145.97 85.606 146.087 85.1253 146.087 84.584V83.912C146.087 83.3893 145.97 82.932 145.737 82.54C145.504 82.1387 145.182 81.826 144.771 81.602C144.37 81.378 143.912 81.266 143.399 81.266C142.848 81.266 142.368 81.4013 141.957 81.672C141.556 81.9333 141.243 82.2927 141.019 82.75C140.804 83.2073 140.697 83.7207 140.697 84.29C140.697 84.878 140.809 85.4007 141.033 85.858C141.257 86.3153 141.574 86.6747 141.985 86.936C142.396 87.188 142.872 87.314 143.413 87.314ZM153.399 88.238C152.765 88.238 152.214 88.1307 151.747 87.916C151.281 87.692 150.898 87.398 150.599 87.034C150.301 86.6607 150.077 86.2453 149.927 85.788C149.787 85.3307 149.717 84.8593 149.717 84.374V84.178C149.717 83.702 149.787 83.2353 149.927 82.778C150.077 82.3207 150.301 81.91 150.599 81.546C150.898 81.182 151.271 80.8927 151.719 80.678C152.177 80.454 152.709 80.342 153.315 80.342C154.09 80.342 154.734 80.5147 155.247 80.86C155.77 81.2053 156.162 81.6487 156.423 82.19C156.685 82.722 156.815 83.296 156.815 83.912V84.458H150.193V83.646H156.087L155.821 84.052C155.821 83.5013 155.723 83.0207 155.527 82.61C155.341 82.19 155.061 81.8633 154.687 81.63C154.323 81.3873 153.866 81.266 153.315 81.266C152.737 81.266 152.256 81.4013 151.873 81.672C151.491 81.9427 151.201 82.302 151.005 82.75C150.819 83.198 150.725 83.7067 150.725 84.276C150.725 84.836 150.819 85.3493 151.005 85.816C151.201 86.2733 151.495 86.6373 151.887 86.908C152.289 87.1787 152.793 87.314 153.399 87.314C154.043 87.314 154.566 87.1693 154.967 86.88C155.369 86.5813 155.616 86.2313 155.709 85.83H156.689C156.596 86.3247 156.4 86.754 156.101 87.118C155.803 87.4727 155.425 87.748 154.967 87.944C154.51 88.14 153.987 88.238 153.399 88.238ZM159.337 88V80.594H160.177V83.688H160.093C160.093 82.6053 160.331 81.8073 160.807 81.294C161.283 80.7713 162.029 80.51 163.047 80.51H163.285V81.462H162.851C162.048 81.462 161.437 81.672 161.017 82.092C160.597 82.5027 160.387 83.1093 160.387 83.912V88H159.337ZM171.939 88.084C171.425 88.084 170.982 88.0093 170.609 87.86C170.235 87.7107 169.946 87.4587 169.741 87.104C169.535 86.74 169.433 86.2547 169.433 85.648V78.256H170.441V85.802C170.441 86.2313 170.557 86.5627 170.791 86.796C171.024 87.02 171.355 87.132 171.785 87.132H173.115V88.084H171.939ZM168.103 81.392V80.594H173.115V81.392H168.103ZM178.893 88.238C178.258 88.238 177.698 88.1307 177.213 87.916C176.737 87.692 176.331 87.398 175.995 87.034C175.668 86.6607 175.416 86.2453 175.239 85.788C175.071 85.3307 174.987 84.864 174.987 84.388V84.192C174.987 83.716 175.075 83.2493 175.253 82.792C175.43 82.3253 175.687 81.91 176.023 81.546C176.359 81.182 176.765 80.8927 177.241 80.678C177.726 80.454 178.277 80.342 178.893 80.342C179.518 80.342 180.069 80.454 180.545 80.678C181.03 80.8927 181.441 81.182 181.777 81.546C182.113 81.91 182.365 82.3253 182.533 82.792C182.71 83.2493 182.799 83.716 182.799 84.192V84.388C182.799 84.864 182.715 85.3307 182.547 85.788C182.379 86.2453 182.127 86.6607 181.791 87.034C181.464 87.398 181.058 87.692 180.573 87.916C180.087 88.1307 179.527 88.238 178.893 88.238ZM178.893 87.3C179.509 87.3 180.027 87.1647 180.447 86.894C180.876 86.614 181.203 86.25 181.427 85.802C181.651 85.3447 181.763 84.8407 181.763 84.29C181.763 83.73 181.646 83.226 181.413 82.778C181.189 82.3207 180.862 81.9613 180.433 81.7C180.003 81.4293 179.49 81.294 178.893 81.294C178.305 81.294 177.796 81.4293 177.367 81.7C176.937 81.9613 176.606 82.3207 176.373 82.778C176.149 83.226 176.037 83.73 176.037 84.29C176.037 84.8407 176.149 85.3447 176.373 85.802C176.597 86.25 176.919 86.614 177.339 86.894C177.768 87.1647 178.286 87.3 178.893 87.3ZM191.28 88L192.862 80.832H194.332L196.166 88H195.256L193.422 80.874H193.758L192.162 88H191.28ZM190.678 88V87.146H191.952V88H190.678ZM190.426 88L188.284 80.594H189.292L191.406 88H190.426ZM195.494 88V87.146H196.74V88H195.494ZM196.04 88L197.888 80.594H198.854L196.964 88H196.04ZM201.68 88V80.594H202.716V88H201.68ZM200.49 81.434V80.594H202.716V81.434H200.49ZM201.904 79.222C201.652 79.222 201.46 79.1567 201.33 79.026C201.208 78.886 201.148 78.7133 201.148 78.508C201.148 78.3027 201.208 78.1347 201.33 78.004C201.46 77.864 201.652 77.794 201.904 77.794C202.156 77.794 202.342 77.864 202.464 78.004C202.585 78.1347 202.646 78.3027 202.646 78.508C202.646 78.7133 202.585 78.886 202.464 79.026C202.342 79.1567 202.156 79.222 201.904 79.222ZM205.971 88V80.594H206.811V83.702H206.643C206.643 83.0113 206.746 82.4187 206.951 81.924C207.157 81.4293 207.465 81.0467 207.875 80.776C208.286 80.5053 208.804 80.37 209.429 80.37H209.471C210.405 80.37 211.1 80.664 211.557 81.252C212.015 81.8307 212.243 82.6473 212.243 83.702V88H211.207V83.478C211.207 82.834 211.03 82.316 210.675 81.924C210.321 81.532 209.826 81.336 209.191 81.336C208.538 81.336 208.011 81.5413 207.609 81.952C207.217 82.3533 207.021 82.8853 207.021 83.548V88H205.971ZM223.634 88V85.774H223.466V83.142C223.466 82.5913 223.321 82.1713 223.032 81.882C222.742 81.5833 222.294 81.434 221.688 81.434C221.408 81.434 221.123 81.4387 220.834 81.448C220.554 81.4573 220.283 81.4713 220.022 81.49C219.77 81.4993 219.546 81.5133 219.35 81.532V80.608C219.555 80.5893 219.765 80.5707 219.98 80.552C220.194 80.5333 220.414 80.524 220.638 80.524C220.871 80.5147 221.095 80.51 221.31 80.51C222.066 80.51 222.672 80.6033 223.13 80.79C223.596 80.9767 223.937 81.2707 224.152 81.672C224.366 82.064 224.474 82.5867 224.474 83.24V88H223.634ZM221.128 88.196C220.605 88.196 220.143 88.1027 219.742 87.916C219.34 87.7293 219.028 87.4587 218.804 87.104C218.589 86.7493 218.482 86.32 218.482 85.816C218.482 85.3213 218.594 84.9013 218.818 84.556C219.051 84.2107 219.382 83.9493 219.812 83.772C220.25 83.5853 220.778 83.492 221.394 83.492H223.564V84.29H221.324C220.736 84.29 220.283 84.4347 219.966 84.724C219.658 85.004 219.504 85.3727 219.504 85.83C219.504 86.2967 219.667 86.67 219.994 86.95C220.32 87.2207 220.764 87.356 221.324 87.356C221.669 87.356 222 87.2953 222.318 87.174C222.635 87.0433 222.901 86.8287 223.116 86.53C223.33 86.222 223.447 85.802 223.466 85.27L223.774 85.704C223.736 86.2547 223.606 86.7167 223.382 87.09C223.158 87.454 222.854 87.7293 222.472 87.916C222.089 88.1027 221.641 88.196 221.128 88.196ZM229.934 88.21C228.982 88.21 228.25 88.0047 227.736 87.594C227.223 87.174 226.962 86.614 226.952 85.914H227.932C227.951 86.2687 228.11 86.5907 228.408 86.88C228.716 87.1693 229.225 87.314 229.934 87.314C230.597 87.314 231.092 87.1787 231.418 86.908C231.754 86.628 231.922 86.292 231.922 85.9C231.922 85.536 231.782 85.256 231.502 85.06C231.232 84.8547 230.835 84.724 230.312 84.668L229.472 84.584C228.8 84.5093 228.254 84.304 227.834 83.968C227.424 83.6227 227.218 83.1513 227.218 82.554C227.218 82.1153 227.33 81.7327 227.554 81.406C227.778 81.0793 228.091 80.8273 228.492 80.65C228.903 80.4633 229.384 80.37 229.934 80.37C230.728 80.37 231.372 80.5567 231.866 80.93C232.37 81.3033 232.627 81.8353 232.636 82.526H231.656C231.647 82.1713 231.498 81.8727 231.208 81.63C230.919 81.3873 230.494 81.266 229.934 81.266C229.356 81.266 228.922 81.392 228.632 81.644C228.352 81.896 228.212 82.204 228.212 82.568C228.212 82.876 228.32 83.1327 228.534 83.338C228.749 83.534 229.085 83.6553 229.542 83.702L230.382 83.786C231.129 83.87 231.736 84.0847 232.202 84.43C232.678 84.7753 232.916 85.27 232.916 85.914C232.916 86.3527 232.79 86.7493 232.538 87.104C232.296 87.4493 231.95 87.72 231.502 87.916C231.054 88.112 230.532 88.21 229.934 88.21ZM243.782 88V85.774H243.614V83.142C243.614 82.5913 243.469 82.1713 243.18 81.882C242.891 81.5833 242.443 81.434 241.836 81.434C241.556 81.434 241.271 81.4387 240.982 81.448C240.702 81.4573 240.431 81.4713 240.17 81.49C239.918 81.4993 239.694 81.5133 239.498 81.532V80.608C239.703 80.5893 239.913 80.5707 240.128 80.552C240.343 80.5333 240.562 80.524 240.786 80.524C241.019 80.5147 241.243 80.51 241.458 80.51C242.214 80.51 242.821 80.6033 243.278 80.79C243.745 80.9767 244.085 81.2707 244.3 81.672C244.515 82.064 244.622 82.5867 244.622 83.24V88H243.782ZM241.276 88.196C240.753 88.196 240.291 88.1027 239.89 87.916C239.489 87.7293 239.176 87.4587 238.952 87.104C238.737 86.7493 238.63 86.32 238.63 85.816C238.63 85.3213 238.742 84.9013 238.966 84.556C239.199 84.2107 239.531 83.9493 239.96 83.772C240.399 83.5853 240.926 83.492 241.542 83.492H243.712V84.29H241.472C240.884 84.29 240.431 84.4347 240.114 84.724C239.806 85.004 239.652 85.3727 239.652 85.83C239.652 86.2967 239.815 86.67 240.142 86.95C240.469 87.2207 240.912 87.356 241.472 87.356C241.817 87.356 242.149 87.2953 242.466 87.174C242.783 87.0433 243.049 86.8287 243.264 86.53C243.479 86.222 243.595 85.802 243.614 85.27L243.922 85.704C243.885 86.2547 243.754 86.7167 243.53 87.09C243.306 87.454 243.003 87.7293 242.62 87.916C242.237 88.1027 241.789 88.196 241.276 88.196ZM251.722 88V80.02C251.722 79.2453 251.923 78.6713 252.324 78.298C252.726 77.9247 253.328 77.738 254.13 77.738H255.068V78.634H253.934C253.542 78.634 253.244 78.7367 253.038 78.942C252.833 79.1473 252.73 79.4367 252.73 79.81V88H251.722ZM250.644 81.462V80.65H255.222V81.462H250.644ZM259.824 88.21C258.938 88.21 258.261 87.9253 257.794 87.356C257.328 86.7773 257.094 85.9747 257.094 84.948V80.58H258.13V85.158C258.13 85.802 258.298 86.3153 258.634 86.698C258.98 87.0713 259.456 87.258 260.062 87.258C260.697 87.258 261.201 87.0573 261.574 86.656C261.957 86.2547 262.148 85.718 262.148 85.046V80.58H263.198V88H262.358V84.906H262.526C262.526 85.5967 262.428 86.1893 262.232 86.684C262.036 87.1693 261.742 87.5473 261.35 87.818C260.958 88.0793 260.464 88.21 259.866 88.21H259.824ZM266.514 88V77.78H267.564V88H266.514ZM265.436 78.634V77.78H267.564V78.634H265.436ZM270.856 88V77.78H271.906V88H270.856ZM269.778 78.634V77.78H271.906V78.634H269.778ZM281.233 88.21C280.281 88.21 279.548 88.0047 279.035 87.594C278.522 87.174 278.26 86.614 278.251 85.914H279.231C279.25 86.2687 279.408 86.5907 279.707 86.88C280.015 87.1693 280.524 87.314 281.233 87.314C281.896 87.314 282.39 87.1787 282.717 86.908C283.053 86.628 283.221 86.292 283.221 85.9C283.221 85.536 283.081 85.256 282.801 85.06C282.53 84.8547 282.134 84.724 281.611 84.668L280.771 84.584C280.099 84.5093 279.553 84.304 279.133 83.968C278.722 83.6227 278.517 83.1513 278.517 82.554C278.517 82.1153 278.629 81.7327 278.853 81.406C279.077 81.0793 279.39 80.8273 279.791 80.65C280.202 80.4633 280.682 80.37 281.233 80.37C282.026 80.37 282.67 80.5567 283.165 80.93C283.669 81.3033 283.926 81.8353 283.935 82.526H282.955C282.946 82.1713 282.796 81.8727 282.507 81.63C282.218 81.3873 281.793 81.266 281.233 81.266C280.654 81.266 280.22 81.392 279.931 81.644C279.651 81.896 279.511 82.204 279.511 82.568C279.511 82.876 279.618 83.1327 279.833 83.338C280.048 83.534 280.384 83.6553 280.841 83.702L281.681 83.786C282.428 83.87 283.034 84.0847 283.501 84.43C283.977 84.7753 284.215 85.27 284.215 85.914C284.215 86.3527 284.089 86.7493 283.837 87.104C283.594 87.4493 283.249 87.72 282.801 87.916C282.353 88.112 281.83 88.21 281.233 88.21ZM289.899 88.238C289.265 88.238 288.714 88.1307 288.247 87.916C287.781 87.692 287.398 87.398 287.099 87.034C286.801 86.6607 286.577 86.2453 286.427 85.788C286.287 85.3307 286.217 84.8593 286.217 84.374V84.178C286.217 83.702 286.287 83.2353 286.427 82.778C286.577 82.3207 286.801 81.91 287.099 81.546C287.398 81.182 287.771 80.8927 288.219 80.678C288.677 80.454 289.209 80.342 289.815 80.342C290.59 80.342 291.234 80.5147 291.747 80.86C292.27 81.2053 292.662 81.6487 292.923 82.19C293.185 82.722 293.315 83.296 293.315 83.912V84.458H286.693V83.646H292.587L292.321 84.052C292.321 83.5013 292.223 83.0207 292.027 82.61C291.841 82.19 291.561 81.8633 291.187 81.63C290.823 81.3873 290.366 81.266 289.815 81.266C289.237 81.266 288.756 81.4013 288.373 81.672C287.991 81.9427 287.701 82.302 287.505 82.75C287.319 83.198 287.225 83.7067 287.225 84.276C287.225 84.836 287.319 85.3493 287.505 85.816C287.701 86.2733 287.995 86.6373 288.387 86.908C288.789 87.1787 289.293 87.314 289.899 87.314C290.543 87.314 291.066 87.1693 291.467 86.88C291.869 86.5813 292.116 86.2313 292.209 85.83H293.189C293.096 86.3247 292.9 86.754 292.601 87.118C292.303 87.4727 291.925 87.748 291.467 87.944C291.01 88.14 290.487 88.238 289.899 88.238ZM298.525 88.084C298.011 88.084 297.568 88.0093 297.195 87.86C296.821 87.7107 296.532 87.4587 296.327 87.104C296.121 86.74 296.019 86.2547 296.019 85.648V78.256H297.027V85.802C297.027 86.2313 297.143 86.5627 297.377 86.796C297.61 87.02 297.941 87.132 298.371 87.132H299.701V88.084H298.525ZM294.689 81.392V80.594H299.701V81.392H294.689ZM305.997 88V77.78H307.047V83.562L306.739 83.8C306.739 83.1093 306.837 82.5073 307.033 81.994C307.238 81.4807 307.541 81.084 307.943 80.804C308.353 80.5147 308.867 80.37 309.483 80.37H309.539C310.435 80.37 311.111 80.664 311.569 81.252C312.035 81.84 312.269 82.6567 312.269 83.702V88H311.233V83.478C311.233 82.8153 311.051 82.2927 310.687 81.91C310.323 81.5273 309.833 81.336 309.217 81.336C308.554 81.336 308.027 81.5507 307.635 81.98C307.243 82.4 307.047 82.9553 307.047 83.646V88H305.997ZM318.701 88.238C318.067 88.238 317.507 88.1307 317.021 87.916C316.545 87.692 316.139 87.398 315.803 87.034C315.477 86.6607 315.225 86.2453 315.047 85.788C314.879 85.3307 314.795 84.864 314.795 84.388V84.192C314.795 83.716 314.884 83.2493 315.061 82.792C315.239 82.3253 315.495 81.91 315.831 81.546C316.167 81.182 316.573 80.8927 317.049 80.678C317.535 80.454 318.085 80.342 318.701 80.342C319.327 80.342 319.877 80.454 320.353 80.678C320.839 80.8927 321.249 81.182 321.585 81.546C321.921 81.91 322.173 82.3253 322.341 82.792C322.519 83.2493 322.607 83.716 322.607 84.192V84.388C322.607 84.864 322.523 85.3307 322.355 85.788C322.187 86.2453 321.935 86.6607 321.599 87.034C321.273 87.398 320.867 87.692 320.381 87.916C319.896 88.1307 319.336 88.238 318.701 88.238ZM318.701 87.3C319.317 87.3 319.835 87.1647 320.255 86.894C320.685 86.614 321.011 86.25 321.235 85.802C321.459 85.3447 321.571 84.8407 321.571 84.29C321.571 83.73 321.455 83.226 321.221 82.778C320.997 82.3207 320.671 81.9613 320.241 81.7C319.812 81.4293 319.299 81.294 318.701 81.294C318.113 81.294 317.605 81.4293 317.175 81.7C316.746 81.9613 316.415 82.3207 316.181 82.778C315.957 83.226 315.845 83.73 315.845 84.29C315.845 84.8407 315.957 85.3447 316.181 85.802C316.405 86.25 316.727 86.614 317.147 86.894C317.577 87.1647 318.095 87.3 318.701 87.3ZM325.319 88V77.78H326.369V88H325.319ZM324.241 78.634V77.78H326.369V78.634H324.241ZM332.628 88.238C332.087 88.238 331.592 88.14 331.144 87.944C330.706 87.7387 330.323 87.4587 329.996 87.104C329.679 86.74 329.432 86.3293 329.254 85.872C329.086 85.4053 329.002 84.9107 329.002 84.388V84.192C329.002 83.688 329.086 83.2073 329.254 82.75C329.422 82.2833 329.66 81.8727 329.968 81.518C330.286 81.154 330.664 80.8693 331.102 80.664C331.55 80.4493 332.05 80.342 332.6 80.342C333.226 80.342 333.776 80.4773 334.252 80.748C334.728 81.0187 335.111 81.4107 335.4 81.924C335.69 82.428 335.844 83.0487 335.862 83.786L335.4 82.918V77.78H336.45V88H335.61V84.71H335.946C335.928 85.4847 335.764 86.138 335.456 86.67C335.158 87.1927 334.761 87.5847 334.266 87.846C333.781 88.1073 333.235 88.238 332.628 88.238ZM332.768 87.314C333.272 87.314 333.725 87.202 334.126 86.978C334.537 86.754 334.859 86.4367 335.092 86.026C335.326 85.606 335.442 85.1253 335.442 84.584V83.912C335.442 83.3893 335.326 82.932 335.092 82.54C334.859 82.1387 334.537 81.826 334.126 81.602C333.725 81.378 333.268 81.266 332.754 81.266C332.204 81.266 331.723 81.4013 331.312 81.672C330.911 81.9333 330.598 82.2927 330.374 82.75C330.16 83.2073 330.052 83.7207 330.052 84.29C330.052 84.878 330.164 85.4007 330.388 85.858C330.612 86.3153 330.93 86.6747 331.34 86.936C331.751 87.188 332.227 87.314 332.768 87.314ZM342.755 88.238C342.12 88.238 341.569 88.1307 341.103 87.916C340.636 87.692 340.253 87.398 339.955 87.034C339.656 86.6607 339.432 86.2453 339.283 85.788C339.143 85.3307 339.073 84.8593 339.073 84.374V84.178C339.073 83.702 339.143 83.2353 339.283 82.778C339.432 82.3207 339.656 81.91 339.955 81.546C340.253 81.182 340.627 80.8927 341.075 80.678C341.532 80.454 342.064 80.342 342.671 80.342C343.445 80.342 344.089 80.5147 344.603 80.86C345.125 81.2053 345.517 81.6487 345.779 82.19C346.04 82.722 346.171 83.296 346.171 83.912V84.458H339.549V83.646H345.443L345.177 84.052C345.177 83.5013 345.079 83.0207 344.883 82.61C344.696 82.19 344.416 81.8633 344.043 81.63C343.679 81.3873 343.221 81.266 342.671 81.266C342.092 81.266 341.611 81.4013 341.229 81.672C340.846 81.9427 340.557 82.302 340.361 82.75C340.174 83.198 340.081 83.7067 340.081 84.276C340.081 84.836 340.174 85.3493 340.361 85.816C340.557 86.2733 340.851 86.6373 341.243 86.908C341.644 87.1787 342.148 87.314 342.755 87.314C343.399 87.314 343.921 87.1693 344.323 86.88C344.724 86.5813 344.971 86.2313 345.065 85.83H346.045C345.951 86.3247 345.755 86.754 345.457 87.118C345.158 87.4727 344.78 87.748 344.323 87.944C343.865 88.14 343.343 88.238 342.755 88.238ZM348.692 88V80.594H349.532V83.688H349.448C349.448 82.6053 349.686 81.8073 350.162 81.294C350.638 80.7713 351.385 80.51 352.402 80.51H352.64V81.462H352.206C351.403 81.462 350.792 81.672 350.372 82.092C349.952 82.5027 349.742 83.1093 349.742 83.912V88H348.692ZM353.963 90.142L353.109 89.834L354.327 86.46L355.209 86.782L353.963 90.142ZM366.894 88L363.912 84.528H362.708L366.222 80.594H367.342L364.192 84.108L364.262 83.534L368.126 88H366.894ZM361.854 88V77.78H362.904V88H361.854ZM372.981 88.238C372.347 88.238 371.796 88.1307 371.329 87.916C370.863 87.692 370.48 87.398 370.181 87.034C369.883 86.6607 369.659 86.2453 369.509 85.788C369.369 85.3307 369.299 84.8593 369.299 84.374V84.178C369.299 83.702 369.369 83.2353 369.509 82.778C369.659 82.3207 369.883 81.91 370.181 81.546C370.48 81.182 370.853 80.8927 371.301 80.678C371.759 80.454 372.291 80.342 372.897 80.342C373.672 80.342 374.316 80.5147 374.829 80.86C375.352 81.2053 375.744 81.6487 376.005 82.19C376.267 82.722 376.397 83.296 376.397 83.912V84.458H369.775V83.646H375.669L375.403 84.052C375.403 83.5013 375.305 83.0207 375.109 82.61C374.923 82.19 374.643 81.8633 374.269 81.63C373.905 81.3873 373.448 81.266 372.897 81.266C372.319 81.266 371.838 81.4013 371.455 81.672C371.073 81.9427 370.783 82.302 370.587 82.75C370.401 83.198 370.307 83.7067 370.307 84.276C370.307 84.836 370.401 85.3493 370.587 85.816C370.783 86.2733 371.077 86.6373 371.469 86.908C371.871 87.1787 372.375 87.314 372.981 87.314C373.625 87.314 374.148 87.1693 374.549 86.88C374.951 86.5813 375.198 86.2313 375.291 85.83H376.271C376.178 86.3247 375.982 86.754 375.683 87.118C375.385 87.4727 375.007 87.748 374.549 87.944C374.092 88.14 373.569 88.238 372.981 88.238ZM382.013 88.238C381.378 88.238 380.827 88.1307 380.361 87.916C379.894 87.692 379.511 87.398 379.213 87.034C378.914 86.6607 378.69 86.2453 378.541 85.788C378.401 85.3307 378.331 84.8593 378.331 84.374V84.178C378.331 83.702 378.401 83.2353 378.541 82.778C378.69 82.3207 378.914 81.91 379.213 81.546C379.511 81.182 379.885 80.8927 380.333 80.678C380.79 80.454 381.322 80.342 381.929 80.342C382.703 80.342 383.347 80.5147 383.861 80.86C384.383 81.2053 384.775 81.6487 385.037 82.19C385.298 82.722 385.429 83.296 385.429 83.912V84.458H378.807V83.646H384.701L384.435 84.052C384.435 83.5013 384.337 83.0207 384.141 82.61C383.954 82.19 383.674 81.8633 383.301 81.63C382.937 81.3873 382.479 81.266 381.929 81.266C381.35 81.266 380.869 81.4013 380.487 81.672C380.104 81.9427 379.815 82.302 379.619 82.75C379.432 83.198 379.339 83.7067 379.339 84.276C379.339 84.836 379.432 85.3493 379.619 85.816C379.815 86.2733 380.109 86.6373 380.501 86.908C380.902 87.1787 381.406 87.314 382.013 87.314C382.657 87.314 383.179 87.1693 383.581 86.88C383.982 86.5813 384.229 86.2313 384.323 85.83H385.303C385.209 86.3247 385.013 86.754 384.715 87.118C384.416 87.4727 384.038 87.748 383.581 87.944C383.123 88.14 382.601 88.238 382.013 88.238ZM387.95 90.8V80.594H388.79V83.772L388.538 83.8C388.575 83.0533 388.734 82.4233 389.014 81.91C389.303 81.3967 389.69 81.0093 390.176 80.748C390.67 80.4773 391.221 80.342 391.828 80.342C392.369 80.342 392.859 80.4493 393.298 80.664C393.746 80.8693 394.124 81.154 394.432 81.518C394.749 81.8727 394.987 82.2833 395.146 82.75C395.314 83.2073 395.398 83.688 395.398 84.192V84.388C395.398 84.892 395.314 85.3773 395.146 85.844C394.978 86.3013 394.735 86.712 394.418 87.076C394.11 87.4307 393.732 87.7153 393.284 87.93C392.845 88.1353 392.35 88.238 391.8 88.238C391.212 88.238 390.67 88.1073 390.176 87.846C389.69 87.5753 389.294 87.1787 388.986 86.656C388.687 86.1333 388.524 85.4893 388.496 84.724L389 85.774V90.8H387.95ZM391.66 87.314C392.22 87.314 392.7 87.1833 393.102 86.922C393.503 86.6513 393.811 86.2873 394.026 85.83C394.24 85.3633 394.348 84.85 394.348 84.29C394.348 83.7113 394.236 83.198 394.012 82.75C393.797 82.2927 393.489 81.9333 393.088 81.672C392.686 81.4013 392.21 81.266 391.66 81.266C391.156 81.266 390.698 81.378 390.288 81.602C389.877 81.826 389.55 82.1433 389.308 82.554C389.074 82.9553 388.958 83.4313 388.958 83.982V84.668C388.958 85.1907 389.074 85.6527 389.308 86.054C389.55 86.446 389.877 86.754 390.288 86.978C390.698 87.202 391.156 87.314 391.66 87.314ZM406.296 88V85.774H406.128V83.142C406.128 82.5913 405.983 82.1713 405.694 81.882C405.404 81.5833 404.956 81.434 404.35 81.434C404.07 81.434 403.785 81.4387 403.496 81.448C403.216 81.4573 402.945 81.4713 402.684 81.49C402.432 81.4993 402.208 81.5133 402.012 81.532V80.608C402.217 80.5893 402.427 80.5707 402.642 80.552C402.856 80.5333 403.076 80.524 403.3 80.524C403.533 80.5147 403.757 80.51 403.972 80.51C404.728 80.51 405.334 80.6033 405.792 80.79C406.258 80.9767 406.599 81.2707 406.814 81.672C407.028 82.064 407.136 82.5867 407.136 83.24V88H406.296ZM403.79 88.196C403.267 88.196 402.805 88.1027 402.404 87.916C402.002 87.7293 401.69 87.4587 401.466 87.104C401.251 86.7493 401.144 86.32 401.144 85.816C401.144 85.3213 401.256 84.9013 401.48 84.556C401.713 84.2107 402.044 83.9493 402.474 83.772C402.912 83.5853 403.44 83.492 404.056 83.492H406.226V84.29H403.986C403.398 84.29 402.945 84.4347 402.628 84.724C402.32 85.004 402.166 85.3727 402.166 85.83C402.166 86.2967 402.329 86.67 402.656 86.95C402.982 87.2207 403.426 87.356 403.986 87.356C404.331 87.356 404.662 87.2953 404.98 87.174C405.297 87.0433 405.563 86.8287 405.778 86.53C405.992 86.222 406.109 85.802 406.128 85.27L406.436 85.704C406.398 86.2547 406.268 86.7167 406.044 87.09C405.82 87.454 405.516 87.7293 405.134 87.916C404.751 88.1027 404.303 88.196 403.79 88.196ZM412.946 88.084C412.433 88.084 411.99 88.0093 411.616 87.86C411.243 87.7107 410.954 87.4587 410.748 87.104C410.543 86.74 410.44 86.2547 410.44 85.648V78.256H411.448V85.802C411.448 86.2313 411.565 86.5627 411.798 86.796C412.032 87.02 412.363 87.132 412.792 87.132H414.122V88.084H412.946ZM409.11 81.392V80.594H414.122V81.392H409.11ZM420.489 88V77.78H421.539V88H420.489ZM419.411 78.634V77.78H421.539V78.634H419.411ZM427.854 88.238C427.22 88.238 426.669 88.1307 426.202 87.916C425.736 87.692 425.353 87.398 425.054 87.034C424.756 86.6607 424.532 86.2453 424.382 85.788C424.242 85.3307 424.172 84.8593 424.172 84.374V84.178C424.172 83.702 424.242 83.2353 424.382 82.778C424.532 82.3207 424.756 81.91 425.054 81.546C425.353 81.182 425.726 80.8927 426.174 80.678C426.632 80.454 427.164 80.342 427.77 80.342C428.545 80.342 429.189 80.5147 429.702 80.86C430.225 81.2053 430.617 81.6487 430.878 82.19C431.14 82.722 431.27 83.296 431.27 83.912V84.458H424.648V83.646H430.542L430.276 84.052C430.276 83.5013 430.178 83.0207 429.982 82.61C429.796 82.19 429.516 81.8633 429.142 81.63C428.778 81.3873 428.321 81.266 427.77 81.266C427.192 81.266 426.711 81.4013 426.328 81.672C425.946 81.9427 425.656 82.302 425.46 82.75C425.274 83.198 425.18 83.7067 425.18 84.276C425.18 84.836 425.274 85.3493 425.46 85.816C425.656 86.2733 425.95 86.6373 426.342 86.908C426.744 87.1787 427.248 87.314 427.854 87.314C428.498 87.314 429.021 87.1693 429.422 86.88C429.824 86.5813 430.071 86.2313 430.164 85.83H431.144C431.051 86.3247 430.855 86.754 430.556 87.118C430.258 87.4727 429.88 87.748 429.422 87.944C428.965 88.14 428.442 88.238 427.854 88.238ZM438.3 88V85.774H438.132V83.142C438.132 82.5913 437.987 82.1713 437.698 81.882C437.408 81.5833 436.96 81.434 436.354 81.434C436.074 81.434 435.789 81.4387 435.5 81.448C435.22 81.4573 434.949 81.4713 434.688 81.49C434.436 81.4993 434.212 81.5133 434.016 81.532V80.608C434.221 80.5893 434.431 80.5707 434.646 80.552C434.86 80.5333 435.08 80.524 435.304 80.524C435.537 80.5147 435.761 80.51 435.976 80.51C436.732 80.51 437.338 80.6033 437.796 80.79C438.262 80.9767 438.603 81.2707 438.818 81.672C439.032 82.064 439.14 82.5867 439.14 83.24V88H438.3ZM435.794 88.196C435.271 88.196 434.809 88.1027 434.408 87.916C434.006 87.7293 433.694 87.4587 433.47 87.104C433.255 86.7493 433.148 86.32 433.148 85.816C433.148 85.3213 433.26 84.9013 433.484 84.556C433.717 84.2107 434.048 83.9493 434.478 83.772C434.916 83.5853 435.444 83.492 436.06 83.492H438.23V84.29H435.99C435.402 84.29 434.949 84.4347 434.632 84.724C434.324 85.004 434.17 85.3727 434.17 85.83C434.17 86.2967 434.333 86.67 434.66 86.95C434.986 87.2207 435.43 87.356 435.99 87.356C436.335 87.356 436.666 87.2953 436.984 87.174C437.301 87.0433 437.567 86.8287 437.782 86.53C437.996 86.222 438.113 85.802 438.132 85.27L438.44 85.704C438.402 86.2547 438.272 86.7167 438.048 87.09C437.824 87.454 437.52 87.7293 437.138 87.916C436.755 88.1027 436.307 88.196 435.794 88.196ZM444.6 88.21C443.648 88.21 442.916 88.0047 442.402 87.594C441.889 87.174 441.628 86.614 441.618 85.914H442.598C442.617 86.2687 442.776 86.5907 443.074 86.88C443.382 87.1693 443.891 87.314 444.6 87.314C445.263 87.314 445.758 87.1787 446.084 86.908C446.42 86.628 446.588 86.292 446.588 85.9C446.588 85.536 446.448 85.256 446.168 85.06C445.898 84.8547 445.501 84.724 444.978 84.668L444.138 84.584C443.466 84.5093 442.92 84.304 442.5 83.968C442.09 83.6227 441.884 83.1513 441.884 82.554C441.884 82.1153 441.996 81.7327 442.22 81.406C442.444 81.0793 442.757 80.8273 443.158 80.65C443.569 80.4633 444.05 80.37 444.6 80.37C445.394 80.37 446.038 80.5567 446.532 80.93C447.036 81.3033 447.293 81.8353 447.302 82.526H446.322C446.313 82.1713 446.164 81.8727 445.874 81.63C445.585 81.3873 445.16 81.266 444.6 81.266C444.022 81.266 443.588 81.392 443.298 81.644C443.018 81.896 442.878 82.204 442.878 82.568C442.878 82.876 442.986 83.1327 443.2 83.338C443.415 83.534 443.751 83.6553 444.208 83.702L445.048 83.786C445.795 83.87 446.402 84.0847 446.868 84.43C447.344 84.7753 447.582 85.27 447.582 85.914C447.582 86.3527 447.456 86.7493 447.204 87.104C446.962 87.4493 446.616 87.72 446.168 87.916C445.72 88.112 445.198 88.21 444.6 88.21ZM452.86 88.084C452.347 88.084 451.904 88.0093 451.53 87.86C451.157 87.7107 450.868 87.4587 450.662 87.104C450.457 86.74 450.354 86.2547 450.354 85.648V78.256H451.362V85.802C451.362 86.2313 451.479 86.5627 451.712 86.796C451.946 87.02 452.277 87.132 452.706 87.132H454.036V88.084H452.86ZM449.024 81.392V80.594H454.036V81.392H449.024ZM463.651 88.238C463.016 88.238 462.456 88.1307 461.971 87.916C461.495 87.692 461.089 87.398 460.753 87.034C460.426 86.6607 460.174 86.2453 459.997 85.788C459.829 85.3307 459.745 84.864 459.745 84.388V84.192C459.745 83.716 459.833 83.2493 460.011 82.792C460.188 82.3253 460.445 81.91 460.781 81.546C461.117 81.182 461.523 80.8927 461.999 80.678C462.484 80.454 463.035 80.342 463.651 80.342C464.276 80.342 464.827 80.454 465.303 80.678C465.788 80.8927 466.199 81.182 466.535 81.546C466.871 81.91 467.123 82.3253 467.291 82.792C467.468 83.2493 467.557 83.716 467.557 84.192V84.388C467.557 84.864 467.473 85.3307 467.305 85.788C467.137 86.2453 466.885 86.6607 466.549 87.034C466.222 87.398 465.816 87.692 465.331 87.916C464.845 88.1307 464.285 88.238 463.651 88.238ZM463.651 87.3C464.267 87.3 464.785 87.1647 465.205 86.894C465.634 86.614 465.961 86.25 466.185 85.802C466.409 85.3447 466.521 84.8407 466.521 84.29C466.521 83.73 466.404 83.226 466.171 82.778C465.947 82.3207 465.62 81.9613 465.191 81.7C464.761 81.4293 464.248 81.294 463.651 81.294C463.063 81.294 462.554 81.4293 462.125 81.7C461.695 81.9613 461.364 82.3207 461.131 82.778C460.907 83.226 460.795 83.73 460.795 84.29C460.795 84.8407 460.907 85.3447 461.131 85.802C461.355 86.25 461.677 86.614 462.097 86.894C462.526 87.1647 463.044 87.3 463.651 87.3ZM470.198 88V80.594H471.038V83.702H470.87C470.87 83.0113 470.973 82.4187 471.178 81.924C471.383 81.4293 471.691 81.0467 472.102 80.776C472.513 80.5053 473.031 80.37 473.656 80.37H473.698C474.631 80.37 475.327 80.664 475.784 81.252C476.241 81.8307 476.47 82.6473 476.47 83.702V88H475.434V83.478C475.434 82.834 475.257 82.316 474.902 81.924C474.547 81.532 474.053 81.336 473.418 81.336C472.765 81.336 472.237 81.5413 471.836 81.952C471.444 82.3533 471.248 82.8853 471.248 83.548V88H470.198ZM482.679 88.238C482.044 88.238 481.493 88.1307 481.027 87.916C480.56 87.692 480.177 87.398 479.879 87.034C479.58 86.6607 479.356 86.2453 479.207 85.788C479.067 85.3307 478.997 84.8593 478.997 84.374V84.178C478.997 83.702 479.067 83.2353 479.207 82.778C479.356 82.3207 479.58 81.91 479.879 81.546C480.177 81.182 480.551 80.8927 480.999 80.678C481.456 80.454 481.988 80.342 482.595 80.342C483.369 80.342 484.013 80.5147 484.527 80.86C485.049 81.2053 485.441 81.6487 485.703 82.19C485.964 82.722 486.095 83.296 486.095 83.912V84.458H479.473V83.646H485.367L485.101 84.052C485.101 83.5013 485.003 83.0207 484.807 82.61C484.62 82.19 484.34 81.8633 483.967 81.63C483.603 81.3873 483.145 81.266 482.595 81.266C482.016 81.266 481.535 81.4013 481.153 81.672C480.77 81.9427 480.481 82.302 480.285 82.75C480.098 83.198 480.005 83.7067 480.005 84.276C480.005 84.836 480.098 85.3493 480.285 85.816C480.481 86.2733 480.775 86.6373 481.167 86.908C481.568 87.1787 482.072 87.314 482.679 87.314C483.323 87.314 483.845 87.1693 484.247 86.88C484.648 86.5813 484.895 86.2313 484.989 85.83H485.969C485.875 86.3247 485.679 86.754 485.381 87.118C485.082 87.4727 484.704 87.748 484.247 87.944C483.789 88.14 483.267 88.238 482.679 88.238ZM492.621 88V77.78H494.399L499.999 87.034H500.447L500.167 87.258V77.78H501.189V88H499.397L493.797 78.746H493.349L493.629 78.522V88H492.621ZM504.879 88V77.78H505.943V88H504.879ZM505.663 83.282V82.316L510.185 82.302V83.268L505.663 83.282ZM505.663 78.732V77.78H510.451V78.732H505.663ZM515.338 88V78.48H516.402V88H515.338ZM512.146 78.746V77.78H519.594V78.746H512.146ZM110.866 107V104.774H110.698V102.142C110.698 101.591 110.553 101.171 110.264 100.882C109.975 100.583 109.527 100.434 108.92 100.434C108.64 100.434 108.355 100.439 108.066 100.448C107.786 100.457 107.515 100.471 107.254 100.49C107.002 100.499 106.778 100.513 106.582 100.532V99.608C106.787 99.5893 106.997 99.5707 107.212 99.552C107.427 99.5333 107.646 99.524 107.87 99.524C108.103 99.5147 108.327 99.51 108.542 99.51C109.298 99.51 109.905 99.6033 110.362 99.79C110.829 99.9767 111.169 100.271 111.384 100.672C111.599 101.064 111.706 101.587 111.706 102.24V107H110.866ZM108.36 107.196C107.837 107.196 107.375 107.103 106.974 106.916C106.573 106.729 106.26 106.459 106.036 106.104C105.821 105.749 105.714 105.32 105.714 104.816C105.714 104.321 105.826 103.901 106.05 103.556C106.283 103.211 106.615 102.949 107.044 102.772C107.483 102.585 108.01 102.492 108.626 102.492H110.796V103.29H108.556C107.968 103.29 107.515 103.435 107.198 103.724C106.89 104.004 106.736 104.373 106.736 104.83C106.736 105.297 106.899 105.67 107.226 105.95C107.553 106.221 107.996 106.356 108.556 106.356C108.901 106.356 109.233 106.295 109.55 106.174C109.867 106.043 110.133 105.829 110.348 105.53C110.563 105.222 110.679 104.802 110.698 104.27L111.006 104.704C110.969 105.255 110.838 105.717 110.614 106.09C110.39 106.454 110.087 106.729 109.704 106.916C109.321 107.103 108.873 107.196 108.36 107.196ZM117.517 107.084C117.003 107.084 116.56 107.009 116.187 106.86C115.813 106.711 115.524 106.459 115.319 106.104C115.113 105.74 115.011 105.255 115.011 104.648V97.256H116.019V104.802C116.019 105.231 116.135 105.563 116.369 105.796C116.602 106.02 116.933 106.132 117.363 106.132H118.693V107.084H117.517ZM113.681 100.392V99.594H118.693V100.392H113.681ZM128.083 107.238C127.448 107.238 126.898 107.131 126.431 106.916C125.964 106.692 125.582 106.398 125.283 106.034C124.984 105.661 124.76 105.245 124.611 104.788C124.471 104.331 124.401 103.859 124.401 103.374V103.178C124.401 102.702 124.471 102.235 124.611 101.778C124.76 101.321 124.984 100.91 125.283 100.546C125.582 100.182 125.955 99.8927 126.403 99.678C126.86 99.454 127.392 99.342 127.999 99.342C128.774 99.342 129.418 99.5147 129.931 99.86C130.454 100.205 130.846 100.649 131.107 101.19C131.368 101.722 131.499 102.296 131.499 102.912V103.458H124.877V102.646H130.771L130.505 103.052C130.505 102.501 130.407 102.021 130.211 101.61C130.024 101.19 129.744 100.863 129.371 100.63C129.007 100.387 128.55 100.266 127.999 100.266C127.42 100.266 126.94 100.401 126.557 100.672C126.174 100.943 125.885 101.302 125.689 101.75C125.502 102.198 125.409 102.707 125.409 103.276C125.409 103.836 125.502 104.349 125.689 104.816C125.885 105.273 126.179 105.637 126.571 105.908C126.972 106.179 127.476 106.314 128.083 106.314C128.727 106.314 129.25 106.169 129.651 105.88C130.052 105.581 130.3 105.231 130.393 104.83H131.373C131.28 105.325 131.084 105.754 130.785 106.118C130.486 106.473 130.108 106.748 129.651 106.944C129.194 107.14 128.671 107.238 128.083 107.238ZM138.528 107V104.774H138.36V102.142C138.36 101.591 138.215 101.171 137.926 100.882C137.637 100.583 137.189 100.434 136.582 100.434C136.302 100.434 136.017 100.439 135.728 100.448C135.448 100.457 135.177 100.471 134.916 100.49C134.664 100.499 134.44 100.513 134.244 100.532V99.608C134.449 99.5893 134.659 99.5707 134.874 99.552C135.089 99.5333 135.308 99.524 135.532 99.524C135.765 99.5147 135.989 99.51 136.204 99.51C136.96 99.51 137.567 99.6033 138.024 99.79C138.491 99.9767 138.831 100.271 139.046 100.672C139.261 101.064 139.368 101.587 139.368 102.24V107H138.528ZM136.022 107.196C135.499 107.196 135.037 107.103 134.636 106.916C134.235 106.729 133.922 106.459 133.698 106.104C133.483 105.749 133.376 105.32 133.376 104.816C133.376 104.321 133.488 103.901 133.712 103.556C133.945 103.211 134.277 102.949 134.706 102.772C135.145 102.585 135.672 102.492 136.288 102.492H138.458V103.29H136.218C135.63 103.29 135.177 103.435 134.86 103.724C134.552 104.004 134.398 104.373 134.398 104.83C134.398 105.297 134.561 105.67 134.888 105.95C135.215 106.221 135.658 106.356 136.218 106.356C136.563 106.356 136.895 106.295 137.212 106.174C137.529 106.043 137.795 105.829 138.01 105.53C138.225 105.222 138.341 104.802 138.36 104.27L138.668 104.704C138.631 105.255 138.5 105.717 138.276 106.09C138.052 106.454 137.749 106.729 137.366 106.916C136.983 107.103 136.535 107.196 136.022 107.196ZM145.613 107.238C144.987 107.238 144.441 107.131 143.975 106.916C143.517 106.692 143.135 106.393 142.827 106.02C142.519 105.637 142.285 105.217 142.127 104.76C141.977 104.303 141.903 103.841 141.903 103.374V103.178C141.903 102.702 141.977 102.24 142.127 101.792C142.285 101.335 142.519 100.924 142.827 100.56C143.135 100.187 143.517 99.8927 143.975 99.678C144.441 99.454 144.978 99.342 145.585 99.342C146.201 99.342 146.747 99.454 147.223 99.678C147.708 99.902 148.1 100.219 148.399 100.63C148.697 101.041 148.875 101.526 148.931 102.086H147.923C147.839 101.573 147.596 101.148 147.195 100.812C146.803 100.467 146.266 100.294 145.585 100.294C144.997 100.294 144.507 100.429 144.115 100.7C143.732 100.961 143.443 101.321 143.247 101.778C143.051 102.226 142.953 102.725 142.953 103.276C142.953 103.817 143.051 104.321 143.247 104.788C143.443 105.245 143.737 105.614 144.129 105.894C144.521 106.165 145.015 106.3 145.613 106.3C146.07 106.3 146.467 106.221 146.803 106.062C147.148 105.894 147.423 105.67 147.629 105.39C147.843 105.11 147.969 104.802 148.007 104.466H149.015C148.977 105.026 148.8 105.516 148.483 105.936C148.175 106.347 147.773 106.669 147.279 106.902C146.784 107.126 146.229 107.238 145.613 107.238ZM151.44 107V96.78H152.49V102.562L152.182 102.8C152.182 102.109 152.28 101.507 152.476 100.994C152.681 100.481 152.985 100.084 153.386 99.804C153.797 99.5147 154.31 99.37 154.926 99.37H154.982C155.878 99.37 156.555 99.664 157.012 100.252C157.479 100.84 157.712 101.657 157.712 102.702V107H156.676V102.478C156.676 101.815 156.494 101.293 156.13 100.91C155.766 100.527 155.276 100.336 154.66 100.336C153.997 100.336 153.47 100.551 153.078 100.98C152.686 101.4 152.49 101.955 152.49 102.646V107H151.44ZM164.664 107V96.78H165.714V107H164.664ZM163.586 97.634V96.78H165.714V97.634H163.586ZM172.03 107.238C171.395 107.238 170.845 107.131 170.378 106.916C169.911 106.692 169.529 106.398 169.23 106.034C168.931 105.661 168.707 105.245 168.558 104.788C168.418 104.331 168.348 103.859 168.348 103.374V103.178C168.348 102.702 168.418 102.235 168.558 101.778C168.707 101.321 168.931 100.91 169.23 100.546C169.529 100.182 169.902 99.8927 170.35 99.678C170.807 99.454 171.339 99.342 171.946 99.342C172.721 99.342 173.365 99.5147 173.878 99.86C174.401 100.205 174.793 100.649 175.054 101.19C175.315 101.722 175.446 102.296 175.446 102.912V103.458H168.824V102.646H174.718L174.452 103.052C174.452 102.501 174.354 102.021 174.158 101.61C173.971 101.19 173.691 100.863 173.318 100.63C172.954 100.387 172.497 100.266 171.946 100.266C171.367 100.266 170.887 100.401 170.504 100.672C170.121 100.943 169.832 101.302 169.636 101.75C169.449 102.198 169.356 102.707 169.356 103.276C169.356 103.836 169.449 104.349 169.636 104.816C169.832 105.273 170.126 105.637 170.518 105.908C170.919 106.179 171.423 106.314 172.03 106.314C172.674 106.314 173.197 106.169 173.598 105.88C173.999 105.581 174.247 105.231 174.34 104.83H175.32C175.227 105.325 175.031 105.754 174.732 106.118C174.433 106.473 174.055 106.748 173.598 106.944C173.141 107.14 172.618 107.238 172.03 107.238ZM179.565 107L176.961 99.594H178.039L180.615 107H179.565ZM179.845 107V106.146H181.175V107H179.845ZM180.419 107L182.673 99.594H183.709L181.413 107H180.419ZM189.04 107.238C188.405 107.238 187.855 107.131 187.388 106.916C186.921 106.692 186.539 106.398 186.24 106.034C185.941 105.661 185.717 105.245 185.568 104.788C185.428 104.331 185.358 103.859 185.358 103.374V103.178C185.358 102.702 185.428 102.235 185.568 101.778C185.717 101.321 185.941 100.91 186.24 100.546C186.539 100.182 186.912 99.8927 187.36 99.678C187.817 99.454 188.349 99.342 188.956 99.342C189.731 99.342 190.375 99.5147 190.888 99.86C191.411 100.205 191.803 100.649 192.064 101.19C192.325 101.722 192.456 102.296 192.456 102.912V103.458H185.834V102.646H191.728L191.462 103.052C191.462 102.501 191.364 102.021 191.168 101.61C190.981 101.19 190.701 100.863 190.328 100.63C189.964 100.387 189.507 100.266 188.956 100.266C188.377 100.266 187.897 100.401 187.514 100.672C187.131 100.943 186.842 101.302 186.646 101.75C186.459 102.198 186.366 102.707 186.366 103.276C186.366 103.836 186.459 104.349 186.646 104.816C186.842 105.273 187.136 105.637 187.528 105.908C187.929 106.179 188.433 106.314 189.04 106.314C189.684 106.314 190.207 106.169 190.608 105.88C191.009 105.581 191.257 105.231 191.35 104.83H192.33C192.237 105.325 192.041 105.754 191.742 106.118C191.443 106.473 191.065 106.748 190.608 106.944C190.151 107.14 189.628 107.238 189.04 107.238ZM195.047 107V96.78H196.097V107H195.047ZM193.969 97.634V96.78H196.097V97.634H193.969ZM199.109 107V105.614H200.425V107H199.109ZM209.422 102.996L206.132 96.78H207.252L210.15 102.338L209.702 102.156H211.256L210.794 102.338L213.538 96.78H214.588L211.494 102.996H209.422ZM209.926 107V102.758H210.976V107H209.926ZM219.34 107.238C218.705 107.238 218.145 107.131 217.66 106.916C217.184 106.692 216.778 106.398 216.442 106.034C216.115 105.661 215.863 105.245 215.686 104.788C215.518 104.331 215.434 103.864 215.434 103.388V103.192C215.434 102.716 215.523 102.249 215.7 101.792C215.877 101.325 216.134 100.91 216.47 100.546C216.806 100.182 217.212 99.8927 217.688 99.678C218.173 99.454 218.724 99.342 219.34 99.342C219.965 99.342 220.516 99.454 220.992 99.678C221.477 99.8927 221.888 100.182 222.224 100.546C222.56 100.91 222.812 101.325 222.98 101.792C223.157 102.249 223.246 102.716 223.246 103.192V103.388C223.246 103.864 223.162 104.331 222.994 104.788C222.826 105.245 222.574 105.661 222.238 106.034C221.911 106.398 221.505 106.692 221.02 106.916C220.535 107.131 219.975 107.238 219.34 107.238ZM219.34 106.3C219.956 106.3 220.474 106.165 220.894 105.894C221.323 105.614 221.65 105.25 221.874 104.802C222.098 104.345 222.21 103.841 222.21 103.29C222.21 102.73 222.093 102.226 221.86 101.778C221.636 101.321 221.309 100.961 220.88 100.7C220.451 100.429 219.937 100.294 219.34 100.294C218.752 100.294 218.243 100.429 217.814 100.7C217.385 100.961 217.053 101.321 216.82 101.778C216.596 102.226 216.484 102.73 216.484 103.29C216.484 103.841 216.596 104.345 216.82 104.802C217.044 105.25 217.366 105.614 217.786 105.894C218.215 106.165 218.733 106.3 219.34 106.3ZM228.449 107.21C227.563 107.21 226.886 106.925 226.419 106.356C225.953 105.777 225.719 104.975 225.719 103.948V99.58H226.755V104.158C226.755 104.802 226.923 105.315 227.259 105.698C227.605 106.071 228.081 106.258 228.687 106.258C229.322 106.258 229.826 106.057 230.199 105.656C230.582 105.255 230.773 104.718 230.773 104.046V99.58H231.823V107H230.983V103.906H231.151C231.151 104.597 231.053 105.189 230.857 105.684C230.661 106.169 230.367 106.547 229.975 106.818C229.583 107.079 229.089 107.21 228.491 107.21H228.449ZM234.425 100.812V100.196H234.537C234.826 100.196 235.055 100.149 235.223 100.056C235.4 99.9533 235.531 99.7853 235.615 99.552C235.699 99.3187 235.741 99.006 235.741 98.614V97.69L235.993 98.166C235.937 98.2033 235.862 98.2313 235.769 98.25C235.676 98.2687 235.578 98.278 235.475 98.278C235.242 98.278 235.05 98.208 234.901 98.068C234.752 97.928 234.677 97.732 234.677 97.48C234.677 97.2467 234.747 97.0553 234.887 96.906C235.027 96.7567 235.218 96.682 235.461 96.682C235.629 96.682 235.783 96.724 235.923 96.808C236.072 96.892 236.189 97.032 236.273 97.228C236.366 97.424 236.413 97.704 236.413 98.068V98.334C236.413 98.9967 236.334 99.51 236.175 99.874C236.026 100.229 235.811 100.476 235.531 100.616C235.251 100.747 234.92 100.812 234.537 100.812H234.425ZM239.139 107V96.78H240.189V107H239.139ZM238.061 97.634V96.78H240.189V97.634H238.061ZM243.481 107V96.78H244.531V107H243.481ZM242.403 97.634V96.78H244.531V97.634H242.403ZM251.52 107V99.594H252.36V102.702H252.192C252.192 102.011 252.295 101.419 252.5 100.924C252.705 100.429 253.013 100.047 253.424 99.776C253.835 99.5053 254.353 99.37 254.978 99.37H255.02C255.953 99.37 256.649 99.664 257.106 100.252C257.563 100.831 257.792 101.647 257.792 102.702V107H256.756V102.478C256.756 101.834 256.579 101.316 256.224 100.924C255.869 100.532 255.375 100.336 254.74 100.336C254.087 100.336 253.559 100.541 253.158 100.952C252.766 101.353 252.57 101.885 252.57 102.548V107H251.52ZM264.001 107.238C263.366 107.238 262.815 107.131 262.349 106.916C261.882 106.692 261.499 106.398 261.201 106.034C260.902 105.661 260.678 105.245 260.529 104.788C260.389 104.331 260.319 103.859 260.319 103.374V103.178C260.319 102.702 260.389 102.235 260.529 101.778C260.678 101.321 260.902 100.91 261.201 100.546C261.499 100.182 261.873 99.8927 262.321 99.678C262.778 99.454 263.31 99.342 263.917 99.342C264.691 99.342 265.335 99.5147 265.849 99.86C266.371 100.205 266.763 100.649 267.025 101.19C267.286 101.722 267.417 102.296 267.417 102.912V103.458H260.795V102.646H266.689L266.423 103.052C266.423 102.501 266.325 102.021 266.129 101.61C265.942 101.19 265.662 100.863 265.289 100.63C264.925 100.387 264.467 100.266 263.917 100.266C263.338 100.266 262.857 100.401 262.475 100.672C262.092 100.943 261.803 101.302 261.607 101.75C261.42 102.198 261.327 102.707 261.327 103.276C261.327 103.836 261.42 104.349 261.607 104.816C261.803 105.273 262.097 105.637 262.489 105.908C262.89 106.179 263.394 106.314 264.001 106.314C264.645 106.314 265.167 106.169 265.569 105.88C265.97 105.581 266.217 105.231 266.311 104.83H267.291C267.197 105.325 267.001 105.754 266.703 106.118C266.404 106.473 266.026 106.748 265.569 106.944C265.111 107.14 264.589 107.238 264.001 107.238ZM273.032 107.238C272.397 107.238 271.847 107.131 271.38 106.916C270.913 106.692 270.531 106.398 270.232 106.034C269.933 105.661 269.709 105.245 269.56 104.788C269.42 104.331 269.35 103.859 269.35 103.374V103.178C269.35 102.702 269.42 102.235 269.56 101.778C269.709 101.321 269.933 100.91 270.232 100.546C270.531 100.182 270.904 99.8927 271.352 99.678C271.809 99.454 272.341 99.342 272.948 99.342C273.723 99.342 274.367 99.5147 274.88 99.86C275.403 100.205 275.795 100.649 276.056 101.19C276.317 101.722 276.448 102.296 276.448 102.912V103.458H269.826V102.646H275.72L275.454 103.052C275.454 102.501 275.356 102.021 275.16 101.61C274.973 101.19 274.693 100.863 274.32 100.63C273.956 100.387 273.499 100.266 272.948 100.266C272.369 100.266 271.889 100.401 271.506 100.672C271.123 100.943 270.834 101.302 270.638 101.75C270.451 102.198 270.358 102.707 270.358 103.276C270.358 103.836 270.451 104.349 270.638 104.816C270.834 105.273 271.128 105.637 271.52 105.908C271.921 106.179 272.425 106.314 273.032 106.314C273.676 106.314 274.199 106.169 274.6 105.88C275.001 105.581 275.249 105.231 275.342 104.83H276.322C276.229 105.325 276.033 105.754 275.734 106.118C275.435 106.473 275.057 106.748 274.6 106.944C274.143 107.14 273.62 107.238 273.032 107.238ZM282.007 107.238C281.466 107.238 280.971 107.14 280.523 106.944C280.085 106.739 279.702 106.459 279.375 106.104C279.058 105.74 278.811 105.329 278.633 104.872C278.465 104.405 278.381 103.911 278.381 103.388V103.192C278.381 102.688 278.465 102.207 278.633 101.75C278.801 101.283 279.039 100.873 279.347 100.518C279.665 100.154 280.043 99.8693 280.481 99.664C280.929 99.4493 281.429 99.342 281.979 99.342C282.605 99.342 283.155 99.4773 283.631 99.748C284.107 100.019 284.49 100.411 284.779 100.924C285.069 101.428 285.223 102.049 285.241 102.786L284.779 101.918V96.78H285.829V107H284.989V103.71H285.325C285.307 104.485 285.143 105.138 284.835 105.67C284.537 106.193 284.14 106.585 283.645 106.846C283.16 107.107 282.614 107.238 282.007 107.238ZM282.147 106.314C282.651 106.314 283.104 106.202 283.505 105.978C283.916 105.754 284.238 105.437 284.471 105.026C284.705 104.606 284.821 104.125 284.821 103.584V102.912C284.821 102.389 284.705 101.932 284.471 101.54C284.238 101.139 283.916 100.826 283.505 100.602C283.104 100.378 282.647 100.266 282.133 100.266C281.583 100.266 281.102 100.401 280.691 100.672C280.29 100.933 279.977 101.293 279.753 101.75C279.539 102.207 279.431 102.721 279.431 103.29C279.431 103.878 279.543 104.401 279.767 104.858C279.991 105.315 280.309 105.675 280.719 105.936C281.13 106.188 281.606 106.314 282.147 106.314ZM297.315 107V104.774H297.147V102.142C297.147 101.591 297.003 101.171 296.713 100.882C296.424 100.583 295.976 100.434 295.369 100.434C295.089 100.434 294.805 100.439 294.515 100.448C294.235 100.457 293.965 100.471 293.703 100.49C293.451 100.499 293.227 100.513 293.031 100.532V99.608C293.237 99.5893 293.447 99.5707 293.661 99.552C293.876 99.5333 294.095 99.524 294.319 99.524C294.553 99.5147 294.777 99.51 294.991 99.51C295.747 99.51 296.354 99.6033 296.811 99.79C297.278 99.9767 297.619 100.271 297.833 100.672C298.048 101.064 298.155 101.587 298.155 102.24V107H297.315ZM294.809 107.196C294.287 107.196 293.825 107.103 293.423 106.916C293.022 106.729 292.709 106.459 292.485 106.104C292.271 105.749 292.163 105.32 292.163 104.816C292.163 104.321 292.275 103.901 292.499 103.556C292.733 103.211 293.064 102.949 293.493 102.772C293.932 102.585 294.459 102.492 295.075 102.492H297.245V103.29H295.005C294.417 103.29 293.965 103.435 293.647 103.724C293.339 104.004 293.185 104.373 293.185 104.83C293.185 105.297 293.349 105.67 293.675 105.95C294.002 106.221 294.445 106.356 295.005 106.356C295.351 106.356 295.682 106.295 295.999 106.174C296.317 106.043 296.583 105.829 296.797 105.53C297.012 105.222 297.129 104.802 297.147 104.27L297.455 104.704C297.418 105.255 297.287 105.717 297.063 106.09C296.839 106.454 296.536 106.729 296.153 106.916C295.771 107.103 295.323 107.196 294.809 107.196ZM307.734 107.084C307.22 107.084 306.777 107.009 306.404 106.86C306.03 106.711 305.741 106.459 305.535 106.104C305.33 105.74 305.228 105.255 305.228 104.648V97.256H306.236V104.802C306.236 105.231 306.352 105.563 306.586 105.796C306.819 106.02 307.15 106.132 307.58 106.132H308.91V107.084H307.734ZM303.898 100.392V99.594H308.91V100.392H303.898ZM314.688 107.238C314.053 107.238 313.493 107.131 313.008 106.916C312.532 106.692 312.126 106.398 311.79 106.034C311.463 105.661 311.211 105.245 311.034 104.788C310.866 104.331 310.782 103.864 310.782 103.388V103.192C310.782 102.716 310.87 102.249 311.048 101.792C311.225 101.325 311.482 100.91 311.818 100.546C312.154 100.182 312.56 99.8927 313.036 99.678C313.521 99.454 314.072 99.342 314.688 99.342C315.313 99.342 315.864 99.454 316.34 99.678C316.825 99.8927 317.236 100.182 317.572 100.546C317.908 100.91 318.16 101.325 318.328 101.792C318.505 102.249 318.594 102.716 318.594 103.192V103.388C318.594 103.864 318.51 104.331 318.342 104.788C318.174 105.245 317.922 105.661 317.586 106.034C317.259 106.398 316.853 106.692 316.368 106.916C315.882 107.131 315.322 107.238 314.688 107.238ZM314.688 106.3C315.304 106.3 315.822 106.165 316.242 105.894C316.671 105.614 316.998 105.25 317.222 104.802C317.446 104.345 317.558 103.841 317.558 103.29C317.558 102.73 317.441 102.226 317.208 101.778C316.984 101.321 316.657 100.961 316.228 100.7C315.798 100.429 315.285 100.294 314.688 100.294C314.1 100.294 313.591 100.429 313.162 100.7C312.732 100.961 312.401 101.321 312.168 101.778C311.944 102.226 311.832 102.73 311.832 103.29C311.832 103.841 311.944 104.345 312.168 104.802C312.392 105.25 312.714 105.614 313.134 105.894C313.563 106.165 314.081 106.3 314.688 106.3ZM323.923 107.084C323.41 107.084 322.966 107.009 322.593 106.86C322.22 106.711 321.93 106.459 321.725 106.104C321.52 105.74 321.417 105.255 321.417 104.648V97.256H322.425V104.802C322.425 105.231 322.542 105.563 322.775 105.796C323.008 106.02 323.34 106.132 323.769 106.132H325.099V107.084H323.923ZM320.087 100.392V99.594H325.099V100.392H320.087ZM332.108 107V104.774H331.94V102.142C331.94 101.591 331.796 101.171 331.506 100.882C331.217 100.583 330.769 100.434 330.162 100.434C329.882 100.434 329.598 100.439 329.308 100.448C329.028 100.457 328.758 100.471 328.496 100.49C328.244 100.499 328.02 100.513 327.824 100.532V99.608C328.03 99.5893 328.24 99.5707 328.454 99.552C328.669 99.5333 328.888 99.524 329.112 99.524C329.346 99.5147 329.57 99.51 329.784 99.51C330.54 99.51 331.147 99.6033 331.604 99.79C332.071 99.9767 332.412 100.271 332.626 100.672C332.841 101.064 332.948 101.587 332.948 102.24V107H332.108ZM329.602 107.196C329.08 107.196 328.618 107.103 328.216 106.916C327.815 106.729 327.502 106.459 327.278 106.104C327.064 105.749 326.956 105.32 326.956 104.816C326.956 104.321 327.068 103.901 327.292 103.556C327.526 103.211 327.857 102.949 328.286 102.772C328.725 102.585 329.252 102.492 329.868 102.492H332.038V103.29H329.798C329.21 103.29 328.758 103.435 328.44 103.724C328.132 104.004 327.978 104.373 327.978 104.83C327.978 105.297 328.142 105.67 328.468 105.95C328.795 106.221 329.238 106.356 329.798 106.356C330.144 106.356 330.475 106.295 330.792 106.174C331.11 106.043 331.376 105.829 331.59 105.53C331.805 105.222 331.922 104.802 331.94 104.27L332.248 104.704C332.211 105.255 332.08 105.717 331.856 106.09C331.632 106.454 331.329 106.729 330.946 106.916C330.564 107.103 330.116 107.196 329.602 107.196ZM336.141 107V96.78H337.191V107H336.141ZM335.063 97.634V96.78H337.191V97.634H335.063ZM347.498 107.238C346.864 107.238 346.304 107.131 345.818 106.916C345.342 106.692 344.936 106.398 344.6 106.034C344.274 105.661 344.022 105.245 343.844 104.788C343.676 104.331 343.592 103.864 343.592 103.388V103.192C343.592 102.716 343.681 102.249 343.858 101.792C344.036 101.325 344.292 100.91 344.628 100.546C344.964 100.182 345.37 99.8927 345.846 99.678C346.332 99.454 346.882 99.342 347.498 99.342C348.124 99.342 348.674 99.454 349.15 99.678C349.636 99.8927 350.046 100.182 350.382 100.546C350.718 100.91 350.97 101.325 351.138 101.792C351.316 102.249 351.404 102.716 351.404 103.192V103.388C351.404 103.864 351.32 104.331 351.152 104.788C350.984 105.245 350.732 105.661 350.396 106.034C350.07 106.398 349.664 106.692 349.178 106.916C348.693 107.131 348.133 107.238 347.498 107.238ZM347.498 106.3C348.114 106.3 348.632 106.165 349.052 105.894C349.482 105.614 349.808 105.25 350.032 104.802C350.256 104.345 350.368 103.841 350.368 103.29C350.368 102.73 350.252 102.226 350.018 101.778C349.794 101.321 349.468 100.961 349.038 100.7C348.609 100.429 348.096 100.294 347.498 100.294C346.91 100.294 346.402 100.429 345.972 100.7C345.543 100.961 345.212 101.321 344.978 101.778C344.754 102.226 344.642 102.73 344.642 103.29C344.642 103.841 344.754 104.345 344.978 104.802C345.202 105.25 345.524 105.614 345.944 105.894C346.374 106.165 346.892 106.3 347.498 106.3ZM354.256 107V99.02C354.256 98.2453 354.456 97.6713 354.858 97.298C355.259 96.9247 355.861 96.738 356.664 96.738H357.602V97.634H356.468C356.076 97.634 355.777 97.7367 355.572 97.942C355.366 98.1473 355.264 98.4367 355.264 98.81V107H354.256ZM353.178 100.462V99.65H357.756V100.462H353.178ZM367.035 107.266C366.354 107.266 365.775 107.149 365.299 106.916C364.823 106.673 364.436 106.337 364.137 105.908C363.848 105.479 363.633 104.97 363.493 104.382C363.353 103.785 363.283 103.136 363.283 102.436V101.848C363.283 100.187 363.67 98.9173 364.445 98.04C365.22 97.1533 366.377 96.71 367.917 96.71C368.234 96.71 368.519 96.7193 368.771 96.738C369.023 96.7567 369.294 96.7847 369.583 96.822V97.732C369.294 97.6853 369.014 97.6527 368.743 97.634C368.472 97.6153 368.178 97.606 367.861 97.606C366.984 97.606 366.279 97.7787 365.747 98.124C365.215 98.46 364.828 98.95 364.585 99.594C364.352 100.238 364.235 101.017 364.235 101.932V102.926L363.955 103.752C363.964 103.043 364.1 102.441 364.361 101.946C364.632 101.451 365.01 101.073 365.495 100.812C365.98 100.551 366.55 100.42 367.203 100.42C367.931 100.42 368.547 100.569 369.051 100.868C369.555 101.167 369.933 101.573 370.185 102.086C370.446 102.599 370.577 103.173 370.577 103.808C370.577 104.452 370.442 105.035 370.171 105.558C369.91 106.081 369.518 106.496 368.995 106.804C368.472 107.112 367.819 107.266 367.035 107.266ZM367.035 106.342C367.595 106.342 368.062 106.23 368.435 106.006C368.818 105.782 369.102 105.479 369.289 105.096C369.476 104.713 369.569 104.284 369.569 103.808C369.569 103.332 369.476 102.907 369.289 102.534C369.112 102.151 368.836 101.853 368.463 101.638C368.099 101.414 367.646 101.302 367.105 101.302C366.573 101.302 366.106 101.405 365.705 101.61C365.313 101.815 365.005 102.109 364.781 102.492C364.566 102.865 364.459 103.309 364.459 103.822C364.459 104.261 364.552 104.671 364.739 105.054C364.926 105.437 365.21 105.749 365.593 105.992C365.976 106.225 366.456 106.342 367.035 106.342ZM376.023 107.238C375.277 107.238 374.642 107.093 374.119 106.804C373.606 106.515 373.214 106.123 372.943 105.628C372.673 105.133 372.537 104.592 372.537 104.004H373.559C373.559 104.713 373.779 105.278 374.217 105.698C374.656 106.109 375.258 106.314 376.023 106.314C376.518 106.314 376.947 106.221 377.311 106.034C377.685 105.847 377.969 105.581 378.165 105.236C378.371 104.891 378.473 104.489 378.473 104.032C378.473 103.332 378.254 102.767 377.815 102.338C377.377 101.909 376.784 101.694 376.037 101.694C375.739 101.694 375.482 101.731 375.267 101.806C375.053 101.871 374.861 101.955 374.693 102.058L374.119 101.078L378.193 97.914L378.081 97.69H372.943V96.78H379.061V98.292L375.449 101.106L374.763 101.12C374.931 101.045 375.123 100.985 375.337 100.938C375.552 100.882 375.799 100.854 376.079 100.854C376.798 100.854 377.409 100.994 377.913 101.274C378.427 101.554 378.819 101.927 379.089 102.394C379.36 102.861 379.495 103.374 379.495 103.934V104.13C379.495 104.671 379.36 105.18 379.089 105.656C378.819 106.132 378.427 106.515 377.913 106.804C377.4 107.093 376.77 107.238 376.023 107.238ZM388.71 107.084C388.197 107.084 387.753 107.009 387.38 106.86C387.007 106.711 386.717 106.459 386.512 106.104C386.307 105.74 386.204 105.255 386.204 104.648V97.256H387.212V104.802C387.212 105.231 387.329 105.563 387.562 105.796C387.795 106.02 388.127 106.132 388.556 106.132H389.886V107.084H388.71ZM384.874 100.392V99.594H389.886V100.392H384.874ZM395.664 107.238C395.03 107.238 394.47 107.131 393.984 106.916C393.508 106.692 393.102 106.398 392.766 106.034C392.44 105.661 392.188 105.245 392.01 104.788C391.842 104.331 391.758 103.864 391.758 103.388V103.192C391.758 102.716 391.847 102.249 392.024 101.792C392.202 101.325 392.458 100.91 392.794 100.546C393.13 100.182 393.536 99.8927 394.012 99.678C394.498 99.454 395.048 99.342 395.664 99.342C396.29 99.342 396.84 99.454 397.316 99.678C397.802 99.8927 398.212 100.182 398.548 100.546C398.884 100.91 399.136 101.325 399.304 101.792C399.482 102.249 399.57 102.716 399.57 103.192V103.388C399.57 103.864 399.486 104.331 399.318 104.788C399.15 105.245 398.898 105.661 398.562 106.034C398.236 106.398 397.83 106.692 397.344 106.916C396.859 107.131 396.299 107.238 395.664 107.238ZM395.664 106.3C396.28 106.3 396.798 106.165 397.218 105.894C397.648 105.614 397.974 105.25 398.198 104.802C398.422 104.345 398.534 103.841 398.534 103.29C398.534 102.73 398.418 102.226 398.184 101.778C397.96 101.321 397.634 100.961 397.204 100.7C396.775 100.429 396.262 100.294 395.664 100.294C395.076 100.294 394.568 100.429 394.138 100.7C393.709 100.961 393.378 101.321 393.144 101.778C392.92 102.226 392.808 102.73 392.808 103.29C392.808 103.841 392.92 104.345 393.144 104.802C393.368 105.25 393.69 105.614 394.11 105.894C394.54 106.165 395.058 106.3 395.664 106.3ZM408.317 107.21C407.365 107.21 406.632 107.005 406.119 106.594C405.606 106.174 405.344 105.614 405.335 104.914H406.315C406.334 105.269 406.492 105.591 406.791 105.88C407.099 106.169 407.608 106.314 408.317 106.314C408.98 106.314 409.474 106.179 409.801 105.908C410.137 105.628 410.305 105.292 410.305 104.9C410.305 104.536 410.165 104.256 409.885 104.06C409.614 103.855 409.218 103.724 408.695 103.668L407.855 103.584C407.183 103.509 406.637 103.304 406.217 102.968C405.806 102.623 405.601 102.151 405.601 101.554C405.601 101.115 405.713 100.733 405.937 100.406C406.161 100.079 406.474 99.8273 406.875 99.65C407.286 99.4633 407.766 99.37 408.317 99.37C409.11 99.37 409.754 99.5567 410.249 99.93C410.753 100.303 411.01 100.835 411.019 101.526H410.039C410.03 101.171 409.88 100.873 409.591 100.63C409.302 100.387 408.877 100.266 408.317 100.266C407.738 100.266 407.304 100.392 407.015 100.644C406.735 100.896 406.595 101.204 406.595 101.568C406.595 101.876 406.702 102.133 406.917 102.338C407.132 102.534 407.468 102.655 407.925 102.702L408.765 102.786C409.512 102.87 410.118 103.085 410.585 103.43C411.061 103.775 411.299 104.27 411.299 104.914C411.299 105.353 411.173 105.749 410.921 106.104C410.678 106.449 410.333 106.72 409.885 106.916C409.437 107.112 408.914 107.21 408.317 107.21ZM416.577 107.084C416.064 107.084 415.621 107.009 415.247 106.86C414.874 106.711 414.585 106.459 414.379 106.104C414.174 105.74 414.071 105.255 414.071 104.648V97.256H415.079V104.802C415.079 105.231 415.196 105.563 415.429 105.796C415.663 106.02 415.994 106.132 416.423 106.132H417.753V107.084H416.577ZM412.741 100.392V99.594H417.753V100.392H412.741ZM424.762 107V104.774H424.594V102.142C424.594 101.591 424.45 101.171 424.16 100.882C423.871 100.583 423.423 100.434 422.816 100.434C422.536 100.434 422.252 100.439 421.962 100.448C421.682 100.457 421.412 100.471 421.15 100.49C420.898 100.499 420.674 100.513 420.478 100.532V99.608C420.684 99.5893 420.894 99.5707 421.108 99.552C421.323 99.5333 421.542 99.524 421.766 99.524C422 99.5147 422.224 99.51 422.438 99.51C423.194 99.51 423.801 99.6033 424.258 99.79C424.725 99.9767 425.066 100.271 425.28 100.672C425.495 101.064 425.602 101.587 425.602 102.24V107H424.762ZM422.256 107.196C421.734 107.196 421.272 107.103 420.87 106.916C420.469 106.729 420.156 106.459 419.932 106.104C419.718 105.749 419.61 105.32 419.61 104.816C419.61 104.321 419.722 103.901 419.946 103.556C420.18 103.211 420.511 102.949 420.94 102.772C421.379 102.585 421.906 102.492 422.522 102.492H424.692V103.29H422.452C421.864 103.29 421.412 103.435 421.094 103.724C420.786 104.004 420.632 104.373 420.632 104.83C420.632 105.297 420.796 105.67 421.122 105.95C421.449 106.221 421.892 106.356 422.452 106.356C422.798 106.356 423.129 106.295 423.446 106.174C423.764 106.043 424.03 105.829 424.244 105.53C424.459 105.222 424.576 104.802 424.594 104.27L424.902 104.704C424.865 105.255 424.734 105.717 424.51 106.09C424.286 106.454 423.983 106.729 423.6 106.916C423.218 107.103 422.77 107.196 422.256 107.196ZM428.725 107V99.594H429.565V102.688H429.481C429.481 101.605 429.719 100.807 430.195 100.294C430.671 99.7713 431.418 99.51 432.435 99.51H432.673V100.462H432.239C431.437 100.462 430.825 100.672 430.405 101.092C429.985 101.503 429.775 102.109 429.775 102.912V107H428.725ZM437.696 107.084C437.183 107.084 436.74 107.009 436.366 106.86C435.993 106.711 435.704 106.459 435.498 106.104C435.293 105.74 435.19 105.255 435.19 104.648V97.256H436.198V104.802C436.198 105.231 436.315 105.563 436.548 105.796C436.782 106.02 437.113 106.132 437.542 106.132H438.872V107.084H437.696ZM433.86 100.392V99.594H438.872V100.392H433.86ZM447.241 107L448.823 99.832H450.293L452.127 107H451.217L449.383 99.874H449.719L448.123 107H447.241ZM446.639 107V106.146H447.913V107H446.639ZM446.387 107L444.245 99.594H445.253L447.367 107H446.387ZM451.455 107V106.146H452.701V107H451.455ZM452.001 107L453.849 99.594H454.815L452.925 107H452.001ZM457.641 107V99.594H458.677V107H457.641ZM456.451 100.434V99.594H458.677V100.434H456.451ZM457.865 98.222C457.613 98.222 457.421 98.1567 457.291 98.026C457.169 97.886 457.109 97.7133 457.109 97.508C457.109 97.3027 457.169 97.1347 457.291 97.004C457.421 96.864 457.613 96.794 457.865 96.794C458.117 96.794 458.303 96.864 458.425 97.004C458.546 97.1347 458.607 97.3027 458.607 97.508C458.607 97.7133 458.546 97.886 458.425 98.026C458.303 98.1567 458.117 98.222 457.865 98.222ZM464.62 107.084C464.107 107.084 463.664 107.009 463.29 106.86C462.917 106.711 462.628 106.459 462.422 106.104C462.217 105.74 462.114 105.255 462.114 104.648V97.256H463.122V104.802C463.122 105.231 463.239 105.563 463.472 105.796C463.706 106.02 464.037 106.132 464.466 106.132H465.796V107.084H464.62ZM460.784 100.392V99.594H465.796V100.392H460.784ZM468.325 107V96.78H469.375V102.562L469.067 102.8C469.067 102.109 469.165 101.507 469.361 100.994C469.566 100.481 469.869 100.084 470.271 99.804C470.681 99.5147 471.195 99.37 471.811 99.37H471.867C472.763 99.37 473.439 99.664 473.897 100.252C474.363 100.84 474.597 101.657 474.597 102.702V107H473.561V102.478C473.561 101.815 473.379 101.293 473.015 100.91C472.651 100.527 472.161 100.336 471.545 100.336C470.882 100.336 470.355 100.551 469.963 100.98C469.571 101.4 469.375 101.955 469.375 102.646V107H468.325ZM477.502 107V105.614H478.818V107H477.502Z" fill="#F5F5F5"/>
<path d="M104.014 52V38.13H105.876V52H104.014ZM105.496 52V50.328H112.222V52H105.496ZM105.496 45.787V44.115H111.633V45.787H105.496ZM105.496 39.802V38.13H112.032V39.802H105.496ZM117.079 47.174V45.54H120.176C120.834 45.54 121.379 45.4133 121.81 45.16C122.24 44.894 122.563 44.5393 122.779 44.096C123.007 43.6527 123.121 43.1587 123.121 42.614C123.121 42.0567 123.007 41.5563 122.779 41.113C122.563 40.6697 122.24 40.3213 121.81 40.068C121.379 39.8147 120.834 39.688 120.176 39.688H117.079V38.054H119.834C120.974 38.054 121.924 38.2377 122.684 38.605C123.456 38.9597 124.039 39.4663 124.432 40.125C124.824 40.7837 125.021 41.5627 125.021 42.462V42.766C125.021 43.6527 124.824 44.4317 124.432 45.103C124.039 45.7617 123.456 46.2747 122.684 46.642C121.924 46.9967 120.974 47.174 119.834 47.174H117.079ZM115.597 52V38.054H117.459V52H115.597ZM127.978 52V38.13H129.84V52H127.978ZM140.128 52.342C138.861 52.342 137.778 52.1203 136.879 51.677C135.992 51.2337 135.276 50.6573 134.732 49.948C134.187 49.2387 133.788 48.4723 133.535 47.649C133.281 46.813 133.155 46.0087 133.155 45.236V44.818C133.155 43.982 133.281 43.146 133.535 42.31C133.801 41.474 134.206 40.714 134.751 40.03C135.295 39.346 136.005 38.795 136.879 38.377C137.753 37.959 138.798 37.75 140.014 37.75C141.255 37.75 142.319 37.9653 143.206 38.396C144.092 38.8267 144.795 39.4283 145.315 40.201C145.834 40.9737 146.151 41.8857 146.265 42.937H144.365C144.263 42.1517 144.01 41.5057 143.605 40.999C143.199 40.4797 142.686 40.0933 142.066 39.84C141.458 39.5867 140.774 39.46 140.014 39.46C139.19 39.46 138.468 39.6057 137.848 39.897C137.227 40.1757 136.708 40.5747 136.29 41.094C135.884 41.6007 135.574 42.1897 135.359 42.861C135.156 43.5323 135.055 44.2607 135.055 45.046C135.055 45.7933 135.156 46.5027 135.359 47.174C135.574 47.8453 135.891 48.4407 136.309 48.96C136.739 49.4793 137.271 49.891 137.905 50.195C138.538 50.4863 139.279 50.632 140.128 50.632C141.318 50.632 142.319 50.3343 143.13 49.739C143.94 49.1437 144.434 48.2823 144.612 47.155H146.512C146.385 48.105 146.062 48.9727 145.543 49.758C145.036 50.5433 144.327 51.1703 143.415 51.639C142.515 52.1077 141.42 52.342 140.128 52.342ZM155.393 47.174V45.54H158.49C159.149 45.54 159.694 45.4133 160.124 45.16C160.555 44.894 160.878 44.5393 161.093 44.096C161.321 43.6527 161.435 43.1587 161.435 42.614C161.435 42.0567 161.321 41.5563 161.093 41.113C160.878 40.6697 160.555 40.3213 160.124 40.068C159.694 39.8147 159.149 39.688 158.49 39.688H155.393V38.054H158.148C159.288 38.054 160.238 38.2377 160.998 38.605C161.771 38.9597 162.354 39.4663 162.746 40.125C163.139 40.7837 163.335 41.5627 163.335 42.462V42.766C163.335 43.6527 163.139 44.4317 162.746 45.103C162.354 45.7617 161.771 46.2747 160.998 46.642C160.238 46.9967 159.288 47.174 158.148 47.174H155.393ZM153.911 52V38.054H155.773V52H153.911ZM166.255 52V38.054H168.117V52H166.255ZM174.824 52L170.226 45.825H172.411L177.085 52H174.824ZM167.414 46.984V45.331H171.138C171.72 45.331 172.221 45.2107 172.639 44.97C173.057 44.7293 173.38 44.4 173.608 43.982C173.836 43.5513 173.95 43.0637 173.95 42.519C173.95 41.9743 173.836 41.493 173.608 41.075C173.38 40.6443 173.057 40.3087 172.639 40.068C172.221 39.8147 171.72 39.688 171.138 39.688H167.414V38.054H170.796C171.809 38.054 172.696 38.206 173.456 38.51C174.216 38.814 174.805 39.2827 175.223 39.916C175.641 40.5493 175.85 41.3663 175.85 42.367V42.671C175.85 43.6717 175.634 44.4887 175.204 45.122C174.786 45.7553 174.197 46.224 173.437 46.528C172.689 46.832 171.809 46.984 170.796 46.984H167.414ZM179.786 52V38.13H181.648V52H179.786ZM185.077 52V49.72L193.627 39.707L193.608 40.163L193.114 39.479L193.437 39.688H185.248V38.13H195.204V40.41L186.635 50.423L186.616 49.891L187.224 50.746L186.749 50.442H195.451V52H185.077ZM198.535 52V38.13H200.397V52H198.535ZM200.017 52V50.328H206.743V52H200.017ZM200.017 45.787V44.115H206.154V45.787H200.017ZM200.017 39.802V38.13H206.553V39.802H200.017ZM214.472 52.342C213.319 52.342 212.337 52.152 211.527 51.772C210.716 51.392 210.095 50.8663 209.665 50.195C209.234 49.5237 209.019 48.7637 209.019 47.915H210.881C210.881 48.333 210.988 48.751 211.204 49.169C211.432 49.587 211.805 49.9353 212.325 50.214C212.857 50.4927 213.572 50.632 214.472 50.632C215.308 50.632 215.992 50.5117 216.524 50.271C217.056 50.0177 217.448 49.6947 217.702 49.302C217.955 48.8967 218.082 48.4597 218.082 47.991C218.082 47.421 217.835 46.9523 217.341 46.585C216.847 46.205 216.125 45.9707 215.175 45.882L213.636 45.749C212.407 45.6477 211.425 45.2677 210.691 44.609C209.956 43.9503 209.589 43.0827 209.589 42.006C209.589 41.1573 209.791 40.4163 210.197 39.783C210.615 39.1497 211.191 38.6557 211.926 38.301C212.66 37.9337 213.515 37.75 214.491 37.75C215.453 37.75 216.302 37.9273 217.037 38.282C217.771 38.6367 218.341 39.137 218.747 39.783C219.165 40.4163 219.374 41.1763 219.374 42.063H217.512C217.512 41.6197 217.404 41.2017 217.189 40.809C216.986 40.4163 216.663 40.0933 216.22 39.84C215.776 39.5867 215.2 39.46 214.491 39.46C213.807 39.46 213.237 39.5803 212.781 39.821C212.337 40.0617 212.002 40.3783 211.774 40.771C211.558 41.151 211.451 41.5627 211.451 42.006C211.451 42.5127 211.647 42.9623 212.04 43.355C212.432 43.7477 213.015 43.9757 213.788 44.039L215.327 44.172C216.277 44.248 217.094 44.4507 217.778 44.78C218.474 45.0967 219.006 45.5273 219.374 46.072C219.754 46.604 219.944 47.2437 219.944 47.991C219.944 48.8397 219.716 49.5933 219.26 50.252C218.804 50.9107 218.164 51.4237 217.341 51.791C216.517 52.1583 215.561 52.342 214.472 52.342ZM227.772 52V38.13H229.634V52H227.772ZM229.254 45.825V44.153L235.201 44.134V45.806L229.254 45.825ZM229.254 39.802V38.13H235.524V39.802H229.254ZM244.732 52.342C243.491 52.342 242.42 52.1203 241.521 51.677C240.622 51.2337 239.881 50.651 239.298 49.929C238.715 49.207 238.278 48.4343 237.987 47.611C237.708 46.7877 237.569 45.996 237.569 45.236V44.818C237.569 43.9947 237.715 43.165 238.006 42.329C238.297 41.493 238.741 40.733 239.336 40.049C239.931 39.3523 240.672 38.795 241.559 38.377C242.458 37.959 243.516 37.75 244.732 37.75C245.948 37.75 246.999 37.959 247.886 38.377C248.785 38.795 249.533 39.3523 250.128 40.049C250.723 40.733 251.167 41.493 251.458 42.329C251.749 43.165 251.895 43.9947 251.895 44.818V45.236C251.895 45.996 251.749 46.7877 251.458 47.611C251.179 48.4343 250.749 49.207 250.166 49.929C249.583 50.651 248.842 51.2337 247.943 51.677C247.044 52.1203 245.973 52.342 244.732 52.342ZM244.732 50.632C245.543 50.632 246.271 50.48 246.917 50.176C247.576 49.872 248.133 49.4603 248.589 48.941C249.045 48.409 249.393 47.8137 249.634 47.155C249.875 46.4837 249.995 45.7807 249.995 45.046C249.995 44.2733 249.875 43.5513 249.634 42.88C249.393 42.2087 249.045 41.6197 248.589 41.113C248.133 40.5937 247.576 40.1883 246.917 39.897C246.271 39.6057 245.543 39.46 244.732 39.46C243.921 39.46 243.187 39.6057 242.528 39.897C241.882 40.1883 241.331 40.5937 240.875 41.113C240.419 41.6197 240.071 42.2087 239.83 42.88C239.589 43.5513 239.469 44.2733 239.469 45.046C239.469 45.7807 239.589 46.4837 239.83 47.155C240.071 47.8137 240.419 48.409 240.875 48.941C241.331 49.4603 241.882 49.872 242.528 50.176C243.187 50.48 243.921 50.632 244.732 50.632ZM255.149 52V38.054H257.011V52H255.149ZM263.718 52L259.12 45.825H261.305L265.979 52H263.718ZM256.308 46.984V45.331H260.032C260.614 45.331 261.115 45.2107 261.533 44.97C261.951 44.7293 262.274 44.4 262.502 43.982C262.73 43.5513 262.844 43.0637 262.844 42.519C262.844 41.9743 262.73 41.493 262.502 41.075C262.274 40.6443 261.951 40.3087 261.533 40.068C261.115 39.8147 260.614 39.688 260.032 39.688H256.308V38.054H259.69C260.703 38.054 261.59 38.206 262.35 38.51C263.11 38.814 263.699 39.2827 264.117 39.916C264.535 40.5493 264.744 41.3663 264.744 42.367V42.671C264.744 43.6717 264.528 44.4887 264.098 45.122C263.68 45.7553 263.091 46.224 262.331 46.528C261.583 46.832 260.703 46.984 259.69 46.984H256.308ZM273.156 52V38.13H275.018V52H273.156ZM274.638 45.825V44.153L280.585 44.134V45.806L274.638 45.825ZM274.638 39.802V38.13H280.908V39.802H274.638ZM289.468 52.342C288.214 52.342 287.157 52.1013 286.295 51.62C285.447 51.126 284.801 50.442 284.357 49.568C283.927 48.6813 283.711 47.6553 283.711 46.49V38.13H285.573V46.718C285.573 47.4907 285.719 48.1747 286.01 48.77C286.314 49.3527 286.758 49.8087 287.34 50.138C287.923 50.4673 288.632 50.632 289.468 50.632C290.304 50.632 291.007 50.4737 291.577 50.157C292.16 49.8277 292.597 49.3717 292.888 48.789C293.192 48.1937 293.344 47.5033 293.344 46.718V38.13H295.206V46.49C295.206 47.6553 294.991 48.6813 294.56 49.568C294.13 50.442 293.49 51.126 292.641 51.62C291.793 52.1013 290.735 52.342 289.468 52.342ZM299.16 52V38.13H301.022V52H299.16ZM300.642 52V50.328H306.988V52H300.642ZM309.685 52V38.13H311.547V52H309.685ZM311.167 52V50.328H317.513V52H311.167ZM329.226 52.342C328.073 52.342 327.091 52.152 326.281 51.772C325.47 51.392 324.849 50.8663 324.419 50.195C323.988 49.5237 323.773 48.7637 323.773 47.915H325.635C325.635 48.333 325.742 48.751 325.958 49.169C326.186 49.587 326.559 49.9353 327.079 50.214C327.611 50.4927 328.326 50.632 329.226 50.632C330.062 50.632 330.746 50.5117 331.278 50.271C331.81 50.0177 332.202 49.6947 332.456 49.302C332.709 48.8967 332.836 48.4597 332.836 47.991C332.836 47.421 332.589 46.9523 332.095 46.585C331.601 46.205 330.879 45.9707 329.929 45.882L328.39 45.749C327.161 45.6477 326.179 45.2677 325.445 44.609C324.71 43.9503 324.343 43.0827 324.343 42.006C324.343 41.1573 324.545 40.4163 324.951 39.783C325.369 39.1497 325.945 38.6557 326.68 38.301C327.414 37.9337 328.269 37.75 329.245 37.75C330.207 37.75 331.056 37.9273 331.791 38.282C332.525 38.6367 333.095 39.137 333.501 39.783C333.919 40.4163 334.128 41.1763 334.128 42.063H332.266C332.266 41.6197 332.158 41.2017 331.943 40.809C331.74 40.4163 331.417 40.0933 330.974 39.84C330.53 39.5867 329.954 39.46 329.245 39.46C328.561 39.46 327.991 39.5803 327.535 39.821C327.091 40.0617 326.756 40.3783 326.528 40.771C326.312 41.151 326.205 41.5627 326.205 42.006C326.205 42.5127 326.401 42.9623 326.794 43.355C327.186 43.7477 327.769 43.9757 328.542 44.039L330.081 44.172C331.031 44.248 331.848 44.4507 332.532 44.78C333.228 45.0967 333.76 45.5273 334.128 46.072C334.508 46.604 334.698 47.2437 334.698 47.991C334.698 48.8397 334.47 49.5933 334.014 50.252C333.558 50.9107 332.918 51.4237 332.095 51.791C331.271 52.1583 330.315 52.342 329.226 52.342ZM338.012 52V38.13H339.874V52H338.012ZM339.494 52V50.328H346.22V52H339.494ZM339.494 45.787V44.115H345.631V45.787H339.494ZM339.494 39.802V38.13H346.03V39.802H339.494ZM352.293 52V39.422H354.155V52H352.293ZM348.075 39.802V38.13H358.373V39.802H348.075ZM374.965 52V38.13H376.827V52H374.965ZM365.579 52V38.13H367.441V52H365.579ZM367.061 45.939V44.267H375.345V45.939H367.061ZM387.253 52.342C386.012 52.342 384.941 52.1203 384.042 51.677C383.143 51.2337 382.402 50.651 381.819 49.929C381.236 49.207 380.799 48.4343 380.508 47.611C380.229 46.7877 380.09 45.996 380.09 45.236V44.818C380.09 43.9947 380.236 43.165 380.527 42.329C380.818 41.493 381.262 40.733 381.857 40.049C382.452 39.3523 383.193 38.795 384.08 38.377C384.979 37.959 386.037 37.75 387.253 37.75C388.469 37.75 389.52 37.959 390.407 38.377C391.306 38.795 392.054 39.3523 392.649 40.049C393.244 40.733 393.688 41.493 393.979 42.329C394.27 43.165 394.416 43.9947 394.416 44.818V45.236C394.416 45.996 394.27 46.7877 393.979 47.611C393.7 48.4343 393.27 49.207 392.687 49.929C392.104 50.651 391.363 51.2337 390.464 51.677C389.565 52.1203 388.494 52.342 387.253 52.342ZM387.253 50.632C388.064 50.632 388.792 50.48 389.438 50.176C390.097 49.872 390.654 49.4603 391.11 48.941C391.566 48.409 391.914 47.8137 392.155 47.155C392.396 46.4837 392.516 45.7807 392.516 45.046C392.516 44.2733 392.396 43.5513 392.155 42.88C391.914 42.2087 391.566 41.6197 391.11 41.113C390.654 40.5937 390.097 40.1883 389.438 39.897C388.792 39.6057 388.064 39.46 387.253 39.46C386.442 39.46 385.708 39.6057 385.049 39.897C384.403 40.1883 383.852 40.5937 383.396 41.113C382.94 41.6197 382.592 42.2087 382.351 42.88C382.11 43.5513 381.99 44.2733 381.99 45.046C381.99 45.7807 382.11 46.4837 382.351 47.155C382.592 47.8137 382.94 48.409 383.396 48.941C383.852 49.4603 384.403 49.872 385.049 50.176C385.708 50.48 386.442 50.632 387.253 50.632ZM397.669 52V38.13H399.531V52H397.669ZM399.151 52V50.328H405.497V52H399.151ZM409.676 52.076V50.366H413.134C413.97 50.366 414.711 50.233 415.357 49.967C416.016 49.6883 416.573 49.3083 417.029 48.827C417.498 48.3457 417.853 47.782 418.093 47.136C418.334 46.49 418.454 45.7933 418.454 45.046C418.454 44.2607 418.334 43.5513 418.093 42.918C417.853 42.272 417.498 41.7147 417.029 41.246C416.573 40.7647 416.016 40.3973 415.357 40.144C414.711 39.8907 413.97 39.764 413.134 39.764H409.676V38.054H412.944C414.198 38.054 415.288 38.2503 416.212 38.643C417.137 39.023 417.903 39.5423 418.511 40.201C419.132 40.847 419.594 41.5753 419.898 42.386C420.202 43.184 420.354 44.001 420.354 44.837V45.255C420.354 46.0657 420.202 46.8763 419.898 47.687C419.594 48.4977 419.132 49.2323 418.511 49.891C417.903 50.5497 417.137 51.0817 416.212 51.487C415.288 51.8797 414.198 52.076 412.944 52.076H409.676ZM408.194 52.076V38.054H410.056V52.076H408.194ZM423.414 52V38.13H425.276V52H423.414ZM424.896 52V50.328H431.622V52H424.896ZM424.896 45.787V44.115H431.033V45.787H424.896ZM424.896 39.802V38.13H431.432V39.802H424.896ZM434.996 52V38.054H436.858V52H434.996ZM443.565 52L438.967 45.825H441.152L445.826 52H443.565ZM436.155 46.984V45.331H439.879C440.462 45.331 440.962 45.2107 441.38 44.97C441.798 44.7293 442.121 44.4 442.349 43.982C442.577 43.5513 442.691 43.0637 442.691 42.519C442.691 41.9743 442.577 41.493 442.349 41.075C442.121 40.6443 441.798 40.3087 441.38 40.068C440.962 39.8147 440.462 39.688 439.879 39.688H436.155V38.054H439.537C440.551 38.054 441.437 38.206 442.197 38.51C442.957 38.814 443.546 39.2827 443.964 39.916C444.382 40.5493 444.591 41.3663 444.591 42.367V42.671C444.591 43.6717 444.376 44.4887 443.945 45.122C443.527 45.7553 442.938 46.224 442.178 46.528C441.431 46.832 440.551 46.984 439.537 46.984H436.155ZM452.845 52.342C451.692 52.342 450.71 52.152 449.9 51.772C449.089 51.392 448.468 50.8663 448.038 50.195C447.607 49.5237 447.392 48.7637 447.392 47.915H449.254C449.254 48.333 449.361 48.751 449.577 49.169C449.805 49.587 450.178 49.9353 450.698 50.214C451.23 50.4927 451.945 50.632 452.845 50.632C453.681 50.632 454.365 50.5117 454.897 50.271C455.429 50.0177 455.821 49.6947 456.075 49.302C456.328 48.8967 456.455 48.4597 456.455 47.991C456.455 47.421 456.208 46.9523 455.714 46.585C455.22 46.205 454.498 45.9707 453.548 45.882L452.009 45.749C450.78 45.6477 449.798 45.2677 449.064 44.609C448.329 43.9503 447.962 43.0827 447.962 42.006C447.962 41.1573 448.164 40.4163 448.57 39.783C448.988 39.1497 449.564 38.6557 450.299 38.301C451.033 37.9337 451.888 37.75 452.864 37.75C453.826 37.75 454.675 37.9273 455.41 38.282C456.144 38.6367 456.714 39.137 457.12 39.783C457.538 40.4163 457.747 41.1763 457.747 42.063H455.885C455.885 41.6197 455.777 41.2017 455.562 40.809C455.359 40.4163 455.036 40.0933 454.593 39.84C454.149 39.5867 453.573 39.46 452.864 39.46C452.18 39.46 451.61 39.5803 451.154 39.821C450.71 40.0617 450.375 40.3783 450.147 40.771C449.931 41.151 449.824 41.5627 449.824 42.006C449.824 42.5127 450.02 42.9623 450.413 43.355C450.805 43.7477 451.388 43.9757 452.161 44.039L453.7 44.172C454.65 44.248 455.467 44.4507 456.151 44.78C456.847 45.0967 457.379 45.5273 457.747 46.072C458.127 46.604 458.317 47.2437 458.317 47.991C458.317 48.8397 458.089 49.5933 457.633 50.252C457.177 50.9107 456.537 51.4237 455.714 51.791C454.89 52.1583 453.934 52.342 452.845 52.342Z" fill="#FF9FA9"/>
</svg>
