<svg width="683" height="185" viewBox="0 0 683 185" fill="none" xmlns="http://www.w3.org/2000/svg">
<path d="M631.5 108C631.5 135.89 608.89 158.5 581 158.5L78 158.5C50.1096 158.5 27.5 135.89 27.5 108L27.5 63C27.5 35.1096 50.1096 12.5 78 12.5L581 12.4999C608.89 12.4999 631.5 35.1096 631.5 62.9999L631.5 108Z" fill="#272222" stroke="#BF3948"/>
<path d="M623.5 99C623.5 126.89 600.89 149.5 573 149.5L53 149.5C25.1096 149.5 2.5 126.89 2.5 99.0001L2.49999 51C2.49999 23.1096 25.1096 0.499997 53 0.499994L573 0.499944C600.89 0.499941 623.5 23.1096 623.5 50.9999L623.5 99Z" fill="#272222" stroke="#C154F3"/>
<path fill-rule="evenodd" clip-rule="evenodd" d="M60.6822 54.2888L74.0009 41.5755L73.112 40.727L59.7874 53.4459L66.9985 36.8269L65.837 36.3678L58.6273 52.9836V35.0001H57.3702V52.9836L50.1604 36.3678L48.999 36.8269L56.2077 53.4402L42.889 40.727L42.0001 41.5755L55.3186 54.2887L37.9143 47.4078L37.4332 48.5164L54.8403 55.3984H36.0005V56.5984H54.8403L37.4332 63.4804L37.9143 64.5891L55.3247 57.7058L42.0001 70.4247L42.889 71.2732L56.2077 58.56L48.999 75.1734L50.1604 75.6325L57.3702 59.0167V77.0001H58.6273V59.0167L65.837 75.6325L66.9985 75.1734L59.7874 58.5543L73.112 71.2732L74.0009 70.4247L60.6763 57.7058L78.0867 64.5891L78.5677 63.4804L61.1607 56.5984H80.0005V55.3984H61.1607L78.5677 48.5164L78.0867 47.4078L60.6822 54.2888Z" fill="#962BC7"/>
<path d="M654.245 124.919C664.462 124.919 672.745 116.636 672.745 106.419L672.745 63.1648C672.745 52.9475 664.462 44.6648 654.245 44.6648L625.764 44.6648C615.547 44.6648 607.264 52.9475 607.264 63.1648L607.264 106.419C607.264 116.636 615.547 124.919 625.764 124.919L654.245 124.919Z" fill="#6D2222" stroke="#BF3948"/>
<path d="M648.888 119.836C659.105 119.836 667.388 111.554 667.388 101.336L667.388 58.7537C667.388 48.5364 659.105 40.2537 648.888 40.2537L620.407 40.2537C610.19 40.2537 601.907 48.5364 601.907 58.7537L601.907 101.336C601.907 111.554 610.19 119.836 620.407 119.836L648.888 119.836Z" fill="#9A3641" stroke="#E63E50"/>
<path d="M643.53 114.754C653.747 114.754 662.03 106.471 662.03 96.2542L662.03 53C662.03 42.7827 653.747 34.5 643.53 34.5L615.721 34.5C605.503 34.5 597.221 42.7827 597.221 53L597.221 96.2541C597.221 106.471 605.503 114.754 615.721 114.754L643.53 114.754Z" fill="#BC2B8B" stroke="#F251BC"/>
<path fill-rule="evenodd" clip-rule="evenodd" d="M598.683 67.9928L587.181 56.793L587.949 56.0455L599.456 67.2502L593.229 52.6097L594.232 52.2052L600.458 66.8429L600.458 51.0004L601.544 51.0004L601.544 66.8429L607.77 52.2052L608.774 52.6097L602.548 67.2452L614.05 56.0455L614.818 56.793L603.316 67.9927L618.347 61.9309L618.762 62.9076L603.729 68.9703L620 68.9703L620 70.0275L603.729 70.0275L618.762 76.0902L618.347 77.0669L603.31 71.003L614.818 82.2078L614.05 82.9553L602.548 71.7555L608.774 86.3911L607.77 86.7955L601.544 72.1578L601.544 88.0004L600.458 88.0004L600.458 72.1578L594.232 86.7955L593.229 86.3911L599.456 71.7505L587.949 82.9553L587.181 82.2078L598.689 71.003L583.652 77.0669L583.237 76.0902L598.27 70.0275L582 70.0275L582 68.9703L598.27 68.9703L583.237 62.9076L583.652 61.9309L598.683 67.9928Z" fill="#FF9FA9"/>
<path d="M637.868 115.246C637.316 115.246 636.865 114.798 636.897 114.247C637.009 112.355 637.436 110.493 638.162 108.739C639.017 106.676 640.27 104.801 641.849 103.222C643.428 101.643 645.302 100.391 647.365 99.5361C649.428 98.6816 651.639 98.2418 653.872 98.2418C656.105 98.2418 658.317 98.6816 660.38 99.5361C662.443 100.391 664.317 101.643 665.896 103.222C667.475 104.801 668.728 106.676 669.582 108.739C670.353 110.601 669.955 123.062 669.87 127.117C669.858 127.67 669.407 128.114 668.855 128.114L667.274 128.114C666.722 128.114 666.279 127.674 666.295 127.122C666.404 123.338 666.875 111.561 666.274 110.109C665.599 108.481 664.61 107.001 663.364 105.754C662.118 104.508 660.638 103.519 659.009 102.845C657.381 102.17 655.635 101.823 653.872 101.823C652.11 101.823 650.364 102.17 648.736 102.845C647.107 103.519 645.627 104.508 644.381 105.754C643.134 107.001 642.146 108.481 641.471 110.109C640.924 111.429 640.592 112.826 640.486 114.247C640.445 114.798 640.001 115.246 639.449 115.246L637.868 115.246Z" fill="#C154F3"/>
<path d="M631.434 115.247C630.882 115.247 630.432 114.799 630.455 114.247C630.572 111.51 631.168 108.813 632.218 106.277C633.396 103.433 635.123 100.85 637.299 98.6732C639.475 96.4967 642.059 94.7703 644.903 93.5924C647.747 92.4145 650.794 91.8083 653.872 91.8083C656.95 91.8083 659.998 92.4145 662.842 93.5924C665.686 94.7703 668.269 96.4967 670.446 98.6732C672.622 100.85 674.349 103.433 675.527 106.277C676.601 108.872 676.435 118.907 676.397 122.982C676.392 123.534 675.944 123.979 675.391 123.979L673.779 123.979C673.226 123.979 672.78 123.533 672.789 122.981C672.845 119.247 673.088 109.83 672.189 107.66C671.192 105.254 669.732 103.069 667.891 101.228C666.05 99.387 663.865 97.9266 661.459 96.9303C659.054 95.934 656.476 95.4212 653.872 95.4212C651.269 95.4212 648.691 95.934 646.286 96.9303C643.88 97.9266 641.695 99.387 639.854 101.228C638.013 103.069 636.552 105.254 635.556 107.66C634.687 109.757 634.186 111.985 634.072 114.247C634.044 114.799 633.599 115.247 633.047 115.247L631.434 115.247Z" fill="#C154F3"/>
<path d="M625 115.246C624.448 115.246 623.998 114.798 624.017 114.246C624.137 110.665 624.9 107.131 626.274 103.815C627.775 100.19 629.975 96.8972 632.749 94.1233C635.523 91.3494 638.816 89.149 642.441 87.6478C646.065 86.1466 649.949 85.3739 653.872 85.3739C657.795 85.3739 661.68 86.1466 665.304 87.6478C668.928 89.149 672.221 91.3494 674.995 94.1233C677.769 96.8972 679.97 100.19 681.471 103.815C682.874 107.202 682.7 126.87 682.671 132.633C682.668 133.185 682.22 133.629 681.668 133.629L680.022 133.629C679.469 133.629 679.023 133.19 679.027 132.638C679.07 127.2 679.327 108.167 678.103 105.21C676.785 102.028 674.853 99.1366 672.417 96.7012C669.982 94.2659 667.091 92.334 663.909 91.016C660.727 89.698 657.316 89.0196 653.872 89.0196C650.428 89.0196 647.018 89.698 643.836 91.016C640.654 92.334 637.763 94.2659 635.327 96.7012C632.892 99.1366 630.96 102.028 629.642 105.21C628.452 108.083 627.783 111.144 627.665 114.246C627.644 114.798 627.198 115.246 626.646 115.246L625 115.246Z" fill="#C154F3"/>
<path d="M108.584 88V78.48H109.648V88H108.584ZM105.392 78.746V77.78H112.84V78.746H105.392ZM117.545 88.238C116.91 88.238 116.35 88.1307 115.865 87.916C115.389 87.692 114.983 87.398 114.647 87.034C114.32 86.6607 114.068 86.2453 113.891 85.788C113.723 85.3307 113.639 84.864 113.639 84.388V84.192C113.639 83.716 113.728 83.2493 113.905 82.792C114.082 82.3253 114.339 81.91 114.675 81.546C115.011 81.182 115.417 80.8927 115.893 80.678C116.378 80.454 116.929 80.342 117.545 80.342C118.17 80.342 118.721 80.454 119.197 80.678C119.682 80.8927 120.093 81.182 120.429 81.546C120.765 81.91 121.017 82.3253 121.185 82.792C121.362 83.2493 121.451 83.716 121.451 84.192V84.388C121.451 84.864 121.367 85.3307 121.199 85.788C121.031 86.2453 120.779 86.6607 120.443 87.034C120.116 87.398 119.71 87.692 119.225 87.916C118.74 88.1307 118.18 88.238 117.545 88.238ZM117.545 87.3C118.161 87.3 118.679 87.1647 119.099 86.894C119.528 86.614 119.855 86.25 120.079 85.802C120.303 85.3447 120.415 84.8407 120.415 84.29C120.415 83.73 120.298 83.226 120.065 82.778C119.841 82.3207 119.514 81.9613 119.085 81.7C118.656 81.4293 118.142 81.294 117.545 81.294C116.957 81.294 116.448 81.4293 116.019 81.7C115.59 81.9613 115.258 82.3207 115.025 82.778C114.801 83.226 114.689 83.73 114.689 84.29C114.689 84.8407 114.801 85.3447 115.025 85.802C115.249 86.25 115.571 86.614 115.991 86.894C116.42 87.1647 116.938 87.3 117.545 87.3ZM130.954 88.238C130.319 88.238 129.769 88.1307 129.302 87.916C128.835 87.692 128.453 87.398 128.154 87.034C127.855 86.6607 127.631 86.2453 127.482 85.788C127.342 85.3307 127.272 84.8593 127.272 84.374V84.178C127.272 83.702 127.342 83.2353 127.482 82.778C127.631 82.3207 127.855 81.91 128.154 81.546C128.453 81.182 128.826 80.8927 129.274 80.678C129.731 80.454 130.263 80.342 130.87 80.342C131.645 80.342 132.289 80.5147 132.802 80.86C133.325 81.2053 133.717 81.6487 133.978 82.19C134.239 82.722 134.37 83.296 134.37 83.912V84.458H127.748V83.646H133.642L133.376 84.052C133.376 83.5013 133.278 83.0207 133.082 82.61C132.895 82.19 132.615 81.8633 132.242 81.63C131.878 81.3873 131.421 81.266 130.87 81.266C130.291 81.266 129.811 81.4013 129.428 81.672C129.045 81.9427 128.756 82.302 128.56 82.75C128.373 83.198 128.28 83.7067 128.28 84.276C128.28 84.836 128.373 85.3493 128.56 85.816C128.756 86.2733 129.05 86.6373 129.442 86.908C129.843 87.1787 130.347 87.314 130.954 87.314C131.598 87.314 132.121 87.1693 132.522 86.88C132.923 86.5813 133.171 86.2313 133.264 85.83H134.244C134.151 86.3247 133.955 86.754 133.656 87.118C133.357 87.4727 132.979 87.748 132.522 87.944C132.065 88.14 131.542 88.238 130.954 88.238ZM141.399 88V85.774H141.231V83.142C141.231 82.5913 141.087 82.1713 140.797 81.882C140.508 81.5833 140.06 81.434 139.453 81.434C139.173 81.434 138.889 81.4387 138.599 81.448C138.319 81.4573 138.049 81.4713 137.787 81.49C137.535 81.4993 137.311 81.5133 137.115 81.532V80.608C137.321 80.5893 137.531 80.5707 137.745 80.552C137.96 80.5333 138.179 80.524 138.403 80.524C138.637 80.5147 138.861 80.51 139.075 80.51C139.831 80.51 140.438 80.6033 140.895 80.79C141.362 80.9767 141.703 81.2707 141.917 81.672C142.132 82.064 142.239 82.5867 142.239 83.24V88H141.399ZM138.893 88.196C138.371 88.196 137.909 88.1027 137.507 87.916C137.106 87.7293 136.793 87.4587 136.569 87.104C136.355 86.7493 136.247 86.32 136.247 85.816C136.247 85.3213 136.359 84.9013 136.583 84.556C136.817 84.2107 137.148 83.9493 137.577 83.772C138.016 83.5853 138.543 83.492 139.159 83.492H141.329V84.29H139.089C138.501 84.29 138.049 84.4347 137.731 84.724C137.423 85.004 137.269 85.3727 137.269 85.83C137.269 86.2967 137.433 86.67 137.759 86.95C138.086 87.2207 138.529 87.356 139.089 87.356C139.435 87.356 139.766 87.2953 140.083 87.174C140.401 87.0433 140.667 86.8287 140.881 86.53C141.096 86.222 141.213 85.802 141.231 85.27L141.539 85.704C141.502 86.2547 141.371 86.7167 141.147 87.09C140.923 87.454 140.62 87.7293 140.237 87.916C139.855 88.1027 139.407 88.196 138.893 88.196ZM145.362 88V80.594H146.202V83.688H146.118C146.118 82.6053 146.356 81.8073 146.832 81.294C147.308 80.7713 148.055 80.51 149.072 80.51H149.31V81.462H148.876C148.073 81.462 147.462 81.672 147.042 82.092C146.622 82.5027 146.412 83.1093 146.412 83.912V88H145.362ZM151.508 88V80.594H152.348V83.702H152.18C152.18 83.0113 152.283 82.4187 152.488 81.924C152.694 81.4293 153.002 81.0467 153.412 80.776C153.823 80.5053 154.341 80.37 154.966 80.37H155.008C155.942 80.37 156.637 80.664 157.094 81.252C157.552 81.8307 157.78 82.6473 157.78 83.702V88H156.744V83.478C156.744 82.834 156.567 82.316 156.212 81.924C155.858 81.532 155.363 81.336 154.728 81.336C154.075 81.336 153.548 81.5413 153.146 81.952C152.754 82.3533 152.558 82.8853 152.558 83.548V88H151.508ZM167.351 88.084C166.837 88.084 166.394 88.0093 166.021 87.86C165.647 87.7107 165.358 87.4587 165.153 87.104C164.947 86.74 164.845 86.2547 164.845 85.648V78.256H165.853V85.802C165.853 86.2313 165.969 86.5627 166.203 86.796C166.436 87.02 166.767 87.132 167.197 87.132H168.527V88.084H167.351ZM163.515 81.392V80.594H168.527V81.392H163.515ZM171.055 88V77.78H172.105V83.562L171.797 83.8C171.797 83.1093 171.895 82.5073 172.091 81.994C172.297 81.4807 172.6 81.084 173.001 80.804C173.412 80.5147 173.925 80.37 174.541 80.37H174.597C175.493 80.37 176.17 80.664 176.627 81.252C177.094 81.84 177.327 82.6567 177.327 83.702V88H176.291V83.478C176.291 82.8153 176.109 82.2927 175.745 81.91C175.381 81.5273 174.891 81.336 174.275 81.336C173.613 81.336 173.085 81.5507 172.693 81.98C172.301 82.4 172.105 82.9553 172.105 83.646V88H171.055ZM180.834 88V80.594H181.87V88H180.834ZM179.644 81.434V80.594H181.87V81.434H179.644ZM181.058 79.222C180.806 79.222 180.615 79.1567 180.484 79.026C180.363 78.886 180.302 78.7133 180.302 78.508C180.302 78.3027 180.363 78.1347 180.484 78.004C180.615 77.864 180.806 77.794 181.058 77.794C181.31 77.794 181.497 77.864 181.618 78.004C181.739 78.1347 181.8 78.3027 181.8 78.508C181.8 78.7133 181.739 78.886 181.618 79.026C181.497 79.1567 181.31 79.222 181.058 79.222ZM187.464 88.21C186.512 88.21 185.779 88.0047 185.266 87.594C184.752 87.174 184.491 86.614 184.482 85.914H185.462C185.48 86.2687 185.639 86.5907 185.938 86.88C186.246 87.1693 186.754 87.314 187.464 87.314C188.126 87.314 188.621 87.1787 188.948 86.908C189.284 86.628 189.452 86.292 189.452 85.9C189.452 85.536 189.312 85.256 189.032 85.06C188.761 84.8547 188.364 84.724 187.842 84.668L187.002 84.584C186.33 84.5093 185.784 84.304 185.364 83.968C184.953 83.6227 184.748 83.1513 184.748 82.554C184.748 82.1153 184.86 81.7327 185.084 81.406C185.308 81.0793 185.62 80.8273 186.022 80.65C186.432 80.4633 186.913 80.37 187.464 80.37C188.257 80.37 188.901 80.5567 189.396 80.93C189.9 81.3033 190.156 81.8353 190.166 82.526H189.186C189.176 82.1713 189.027 81.8727 188.738 81.63C188.448 81.3873 188.024 81.266 187.464 81.266C186.885 81.266 186.451 81.392 186.162 81.644C185.882 81.896 185.742 82.204 185.742 82.568C185.742 82.876 185.849 83.1327 186.064 83.338C186.278 83.534 186.614 83.6553 187.072 83.702L187.912 83.786C188.658 83.87 189.265 84.0847 189.732 84.43C190.208 84.7753 190.446 85.27 190.446 85.914C190.446 86.3527 190.32 86.7493 190.068 87.104C189.825 87.4493 189.48 87.72 189.032 87.916C188.584 88.112 188.061 88.21 187.464 88.21ZM196.803 90.8V80.594H197.643V83.772L197.391 83.8C197.429 83.0533 197.587 82.4233 197.867 81.91C198.157 81.3967 198.544 81.0093 199.029 80.748C199.524 80.4773 200.075 80.342 200.681 80.342C201.223 80.342 201.713 80.4493 202.151 80.664C202.599 80.8693 202.977 81.154 203.285 81.518C203.603 81.8727 203.841 82.2833 203.999 82.75C204.167 83.2073 204.251 83.688 204.251 84.192V84.388C204.251 84.892 204.167 85.3773 203.999 85.844C203.831 86.3013 203.589 86.712 203.271 87.076C202.963 87.4307 202.585 87.7153 202.137 87.93C201.699 88.1353 201.204 88.238 200.653 88.238C200.065 88.238 199.524 88.1073 199.029 87.846C198.544 87.5753 198.147 87.1787 197.839 86.656C197.541 86.1333 197.377 85.4893 197.349 84.724L197.853 85.774V90.8H196.803ZM200.513 87.314C201.073 87.314 201.554 87.1833 201.955 86.922C202.357 86.6513 202.665 86.2873 202.879 85.83C203.094 85.3633 203.201 84.85 203.201 84.29C203.201 83.7113 203.089 83.198 202.865 82.75C202.651 82.2927 202.343 81.9333 201.941 81.672C201.54 81.4013 201.064 81.266 200.513 81.266C200.009 81.266 199.552 81.378 199.141 81.602C198.731 81.826 198.404 82.1433 198.161 82.554C197.928 82.9553 197.811 83.4313 197.811 83.982V84.668C197.811 85.1907 197.928 85.6527 198.161 86.054C198.404 86.446 198.731 86.754 199.141 86.978C199.552 87.202 200.009 87.314 200.513 87.314ZM206.874 88V80.594H207.714V83.688H207.63C207.63 82.6053 207.868 81.8073 208.344 81.294C208.82 80.7713 209.566 80.51 210.584 80.51H210.822V81.462H210.388C209.585 81.462 208.974 81.672 208.554 82.092C208.134 82.5027 207.924 83.1093 207.924 83.912V88H206.874ZM213.412 88V80.594H214.448V88H213.412ZM212.222 81.434V80.594H214.448V81.434H212.222ZM213.636 79.222C213.384 79.222 213.193 79.1567 213.062 79.026C212.941 78.886 212.88 78.7133 212.88 78.508C212.88 78.3027 212.941 78.1347 213.062 78.004C213.193 77.864 213.384 77.794 213.636 77.794C213.888 77.794 214.075 77.864 214.196 78.004C214.317 78.1347 214.378 78.3027 214.378 78.508C214.378 78.7133 214.317 78.886 214.196 79.026C214.075 79.1567 213.888 79.222 213.636 79.222ZM217.186 88V86.782L221.484 81.42L221.442 81.658L221.246 81.35L221.4 81.434H217.144V80.594H222.366V81.812L218.054 87.16L218.096 86.95L218.306 87.258L218.152 87.16H222.576V88H217.186ZM228.038 88.238C227.403 88.238 226.853 88.1307 226.386 87.916C225.919 87.692 225.537 87.398 225.238 87.034C224.939 86.6607 224.715 86.2453 224.566 85.788C224.426 85.3307 224.356 84.8593 224.356 84.374V84.178C224.356 83.702 224.426 83.2353 224.566 82.778C224.715 82.3207 224.939 81.91 225.238 81.546C225.537 81.182 225.91 80.8927 226.358 80.678C226.815 80.454 227.347 80.342 227.954 80.342C228.729 80.342 229.373 80.5147 229.886 80.86C230.409 81.2053 230.801 81.6487 231.062 82.19C231.323 82.722 231.454 83.296 231.454 83.912V84.458H224.832V83.646H230.726L230.46 84.052C230.46 83.5013 230.362 83.0207 230.166 82.61C229.979 82.19 229.699 81.8633 229.326 81.63C228.962 81.3873 228.505 81.266 227.954 81.266C227.375 81.266 226.895 81.4013 226.512 81.672C226.129 81.9427 225.84 82.302 225.644 82.75C225.457 83.198 225.364 83.7067 225.364 84.276C225.364 84.836 225.457 85.3493 225.644 85.816C225.84 86.2733 226.134 86.6373 226.526 86.908C226.927 87.1787 227.431 87.314 228.038 87.314C228.682 87.314 229.205 87.1693 229.606 86.88C230.007 86.5813 230.255 86.2313 230.348 85.83H231.328C231.235 86.3247 231.039 86.754 230.74 87.118C230.441 87.4727 230.063 87.748 229.606 87.944C229.149 88.14 228.626 88.238 228.038 88.238ZM233.865 90.142L233.011 89.834L234.229 86.46L235.111 86.782L233.865 90.142ZM246.796 88L243.814 84.528H242.61L246.124 80.594H247.244L244.094 84.108L244.164 83.534L248.028 88H246.796ZM241.756 88V77.78H242.806V88H241.756ZM252.884 88.238C252.249 88.238 251.698 88.1307 251.232 87.916C250.765 87.692 250.382 87.398 250.084 87.034C249.785 86.6607 249.561 86.2453 249.412 85.788C249.272 85.3307 249.202 84.8593 249.202 84.374V84.178C249.202 83.702 249.272 83.2353 249.412 82.778C249.561 82.3207 249.785 81.91 250.084 81.546C250.382 81.182 250.756 80.8927 251.204 80.678C251.661 80.454 252.193 80.342 252.8 80.342C253.574 80.342 254.218 80.5147 254.732 80.86C255.254 81.2053 255.646 81.6487 255.908 82.19C256.169 82.722 256.3 83.296 256.3 83.912V84.458H249.678V83.646H255.572L255.306 84.052C255.306 83.5013 255.208 83.0207 255.012 82.61C254.825 82.19 254.545 81.8633 254.172 81.63C253.808 81.3873 253.35 81.266 252.8 81.266C252.221 81.266 251.74 81.4013 251.358 81.672C250.975 81.9427 250.686 82.302 250.49 82.75C250.303 83.198 250.21 83.7067 250.21 84.276C250.21 84.836 250.303 85.3493 250.49 85.816C250.686 86.2733 250.98 86.6373 251.372 86.908C251.773 87.1787 252.277 87.314 252.884 87.314C253.528 87.314 254.05 87.1693 254.452 86.88C254.853 86.5813 255.1 86.2313 255.194 85.83H256.174C256.08 86.3247 255.884 86.754 255.586 87.118C255.287 87.4727 254.909 87.748 254.452 87.944C253.994 88.14 253.472 88.238 252.884 88.238ZM261.915 88.238C261.28 88.238 260.73 88.1307 260.263 87.916C259.796 87.692 259.414 87.398 259.115 87.034C258.816 86.6607 258.592 86.2453 258.443 85.788C258.303 85.3307 258.233 84.8593 258.233 84.374V84.178C258.233 83.702 258.303 83.2353 258.443 82.778C258.592 82.3207 258.816 81.91 259.115 81.546C259.414 81.182 259.787 80.8927 260.235 80.678C260.692 80.454 261.224 80.342 261.831 80.342C262.606 80.342 263.25 80.5147 263.763 80.86C264.286 81.2053 264.678 81.6487 264.939 82.19C265.2 82.722 265.331 83.296 265.331 83.912V84.458H258.709V83.646H264.603L264.337 84.052C264.337 83.5013 264.239 83.0207 264.043 82.61C263.856 82.19 263.576 81.8633 263.203 81.63C262.839 81.3873 262.382 81.266 261.831 81.266C261.252 81.266 260.772 81.4013 260.389 81.672C260.006 81.9427 259.717 82.302 259.521 82.75C259.334 83.198 259.241 83.7067 259.241 84.276C259.241 84.836 259.334 85.3493 259.521 85.816C259.717 86.2733 260.011 86.6373 260.403 86.908C260.804 87.1787 261.308 87.314 261.915 87.314C262.559 87.314 263.082 87.1693 263.483 86.88C263.884 86.5813 264.132 86.2313 264.225 85.83H265.205C265.112 86.3247 264.916 86.754 264.617 87.118C264.318 87.4727 263.94 87.748 263.483 87.944C263.026 88.14 262.503 88.238 261.915 88.238ZM267.852 90.8V80.594H268.692V83.772L268.44 83.8C268.477 83.0533 268.636 82.4233 268.916 81.91C269.205 81.3967 269.593 81.0093 270.078 80.748C270.573 80.4773 271.123 80.342 271.73 80.342C272.271 80.342 272.761 80.4493 273.2 80.664C273.648 80.8693 274.026 81.154 274.334 81.518C274.651 81.8727 274.889 82.2833 275.048 82.75C275.216 83.2073 275.3 83.688 275.3 84.192V84.388C275.3 84.892 275.216 85.3773 275.048 85.844C274.88 86.3013 274.637 86.712 274.32 87.076C274.012 87.4307 273.634 87.7153 273.186 87.93C272.747 88.1353 272.253 88.238 271.702 88.238C271.114 88.238 270.573 88.1073 270.078 87.846C269.593 87.5753 269.196 87.1787 268.888 86.656C268.589 86.1333 268.426 85.4893 268.398 84.724L268.902 85.774V90.8H267.852ZM271.562 87.314C272.122 87.314 272.603 87.1833 273.004 86.922C273.405 86.6513 273.713 86.2873 273.928 85.83C274.143 85.3633 274.25 84.85 274.25 84.29C274.25 83.7113 274.138 83.198 273.914 82.75C273.699 82.2927 273.391 81.9333 272.99 81.672C272.589 81.4013 272.113 81.266 271.562 81.266C271.058 81.266 270.601 81.378 270.19 81.602C269.779 81.826 269.453 82.1433 269.21 82.554C268.977 82.9553 268.86 83.4313 268.86 83.982V84.668C268.86 85.1907 268.977 85.6527 269.21 86.054C269.453 86.446 269.779 86.754 270.19 86.978C270.601 87.202 271.058 87.314 271.562 87.314ZM286.198 88V85.774H286.03V83.142C286.03 82.5913 285.885 82.1713 285.596 81.882C285.307 81.5833 284.859 81.434 284.252 81.434C283.972 81.434 283.687 81.4387 283.398 81.448C283.118 81.4573 282.847 81.4713 282.586 81.49C282.334 81.4993 282.11 81.5133 281.914 81.532V80.608C282.119 80.5893 282.329 80.5707 282.544 80.552C282.759 80.5333 282.978 80.524 283.202 80.524C283.435 80.5147 283.659 80.51 283.874 80.51C284.63 80.51 285.237 80.6033 285.694 80.79C286.161 80.9767 286.501 81.2707 286.716 81.672C286.931 82.064 287.038 82.5867 287.038 83.24V88H286.198ZM283.692 88.196C283.169 88.196 282.707 88.1027 282.306 87.916C281.905 87.7293 281.592 87.4587 281.368 87.104C281.153 86.7493 281.046 86.32 281.046 85.816C281.046 85.3213 281.158 84.9013 281.382 84.556C281.615 84.2107 281.947 83.9493 282.376 83.772C282.815 83.5853 283.342 83.492 283.958 83.492H286.128V84.29H283.888C283.3 84.29 282.847 84.4347 282.53 84.724C282.222 85.004 282.068 85.3727 282.068 85.83C282.068 86.2967 282.231 86.67 282.558 86.95C282.885 87.2207 283.328 87.356 283.888 87.356C284.233 87.356 284.565 87.2953 284.882 87.174C285.199 87.0433 285.465 86.8287 285.68 86.53C285.895 86.222 286.011 85.802 286.03 85.27L286.338 85.704C286.301 86.2547 286.17 86.7167 285.946 87.09C285.722 87.454 285.419 87.7293 285.036 87.916C284.653 88.1027 284.205 88.196 283.692 88.196ZM292.849 88.084C292.335 88.084 291.892 88.0093 291.519 87.86C291.145 87.7107 290.856 87.4587 290.651 87.104C290.445 86.74 290.343 86.2547 290.343 85.648V78.256H291.351V85.802C291.351 86.2313 291.467 86.5627 291.701 86.796C291.934 87.02 292.265 87.132 292.695 87.132H294.025V88.084H292.849ZM289.013 81.392V80.594H294.025V81.392H289.013ZM300.391 88V77.78H301.441V88H300.391ZM299.313 78.634V77.78H301.441V78.634H299.313ZM307.757 88.238C307.122 88.238 306.571 88.1307 306.105 87.916C305.638 87.692 305.255 87.398 304.957 87.034C304.658 86.6607 304.434 86.2453 304.285 85.788C304.145 85.3307 304.075 84.8593 304.075 84.374V84.178C304.075 83.702 304.145 83.2353 304.285 82.778C304.434 82.3207 304.658 81.91 304.957 81.546C305.255 81.182 305.629 80.8927 306.077 80.678C306.534 80.454 307.066 80.342 307.673 80.342C308.447 80.342 309.091 80.5147 309.605 80.86C310.127 81.2053 310.519 81.6487 310.781 82.19C311.042 82.722 311.173 83.296 311.173 83.912V84.458H304.551V83.646H310.445L310.179 84.052C310.179 83.5013 310.081 83.0207 309.885 82.61C309.698 82.19 309.418 81.8633 309.045 81.63C308.681 81.3873 308.223 81.266 307.673 81.266C307.094 81.266 306.613 81.4013 306.231 81.672C305.848 81.9427 305.559 82.302 305.363 82.75C305.176 83.198 305.083 83.7067 305.083 84.276C305.083 84.836 305.176 85.3493 305.363 85.816C305.559 86.2733 305.853 86.6373 306.245 86.908C306.646 87.1787 307.15 87.314 307.757 87.314C308.401 87.314 308.923 87.1693 309.325 86.88C309.726 86.5813 309.973 86.2313 310.067 85.83H311.047C310.953 86.3247 310.757 86.754 310.459 87.118C310.16 87.4727 309.782 87.748 309.325 87.944C308.867 88.14 308.345 88.238 307.757 88.238ZM318.202 88V85.774H318.034V83.142C318.034 82.5913 317.889 82.1713 317.6 81.882C317.311 81.5833 316.863 81.434 316.256 81.434C315.976 81.434 315.691 81.4387 315.402 81.448C315.122 81.4573 314.851 81.4713 314.59 81.49C314.338 81.4993 314.114 81.5133 313.918 81.532V80.608C314.123 80.5893 314.333 80.5707 314.548 80.552C314.763 80.5333 314.982 80.524 315.206 80.524C315.439 80.5147 315.663 80.51 315.878 80.51C316.634 80.51 317.241 80.6033 317.698 80.79C318.165 80.9767 318.505 81.2707 318.72 81.672C318.935 82.064 319.042 82.5867 319.042 83.24V88H318.202ZM315.696 88.196C315.173 88.196 314.711 88.1027 314.31 87.916C313.909 87.7293 313.596 87.4587 313.372 87.104C313.157 86.7493 313.05 86.32 313.05 85.816C313.05 85.3213 313.162 84.9013 313.386 84.556C313.619 84.2107 313.951 83.9493 314.38 83.772C314.819 83.5853 315.346 83.492 315.962 83.492H318.132V84.29H315.892C315.304 84.29 314.851 84.4347 314.534 84.724C314.226 85.004 314.072 85.3727 314.072 85.83C314.072 86.2967 314.235 86.67 314.562 86.95C314.889 87.2207 315.332 87.356 315.892 87.356C316.237 87.356 316.569 87.2953 316.886 87.174C317.203 87.0433 317.469 86.8287 317.684 86.53C317.899 86.222 318.015 85.802 318.034 85.27L318.342 85.704C318.305 86.2547 318.174 86.7167 317.95 87.09C317.726 87.454 317.423 87.7293 317.04 87.916C316.657 88.1027 316.209 88.196 315.696 88.196ZM324.503 88.21C323.551 88.21 322.818 88.0047 322.305 87.594C321.791 87.174 321.53 86.614 321.521 85.914H322.501C322.519 86.2687 322.678 86.5907 322.977 86.88C323.285 87.1693 323.793 87.314 324.503 87.314C325.165 87.314 325.66 87.1787 325.987 86.908C326.323 86.628 326.491 86.292 326.491 85.9C326.491 85.536 326.351 85.256 326.071 85.06C325.8 84.8547 325.403 84.724 324.881 84.668L324.041 84.584C323.369 84.5093 322.823 84.304 322.403 83.968C321.992 83.6227 321.787 83.1513 321.787 82.554C321.787 82.1153 321.899 81.7327 322.123 81.406C322.347 81.0793 322.659 80.8273 323.061 80.65C323.471 80.4633 323.952 80.37 324.503 80.37C325.296 80.37 325.94 80.5567 326.435 80.93C326.939 81.3033 327.195 81.8353 327.205 82.526H326.225C326.215 82.1713 326.066 81.8727 325.777 81.63C325.487 81.3873 325.063 81.266 324.503 81.266C323.924 81.266 323.49 81.392 323.201 81.644C322.921 81.896 322.781 82.204 322.781 82.568C322.781 82.876 322.888 83.1327 323.103 83.338C323.317 83.534 323.653 83.6553 324.111 83.702L324.951 83.786C325.697 83.87 326.304 84.0847 326.771 84.43C327.247 84.7753 327.485 85.27 327.485 85.914C327.485 86.3527 327.359 86.7493 327.107 87.104C326.864 87.4493 326.519 87.72 326.071 87.916C325.623 88.112 325.1 88.21 324.503 88.21ZM332.763 88.084C332.249 88.084 331.806 88.0093 331.433 87.86C331.059 87.7107 330.77 87.4587 330.565 87.104C330.359 86.74 330.257 86.2547 330.257 85.648V78.256H331.265V85.802C331.265 86.2313 331.381 86.5627 331.615 86.796C331.848 87.02 332.179 87.132 332.609 87.132H333.939V88.084H332.763ZM328.927 81.392V80.594H333.939V81.392H328.927ZM343.553 88.238C342.918 88.238 342.358 88.1307 341.873 87.916C341.397 87.692 340.991 87.398 340.655 87.034C340.328 86.6607 340.076 86.2453 339.899 85.788C339.731 85.3307 339.647 84.864 339.647 84.388V84.192C339.647 83.716 339.736 83.2493 339.913 82.792C340.09 82.3253 340.347 81.91 340.683 81.546C341.019 81.182 341.425 80.8927 341.901 80.678C342.386 80.454 342.937 80.342 343.553 80.342C344.178 80.342 344.729 80.454 345.205 80.678C345.69 80.8927 346.101 81.182 346.437 81.546C346.773 81.91 347.025 82.3253 347.193 82.792C347.37 83.2493 347.459 83.716 347.459 84.192V84.388C347.459 84.864 347.375 85.3307 347.207 85.788C347.039 86.2453 346.787 86.6607 346.451 87.034C346.124 87.398 345.718 87.692 345.233 87.916C344.748 88.1307 344.188 88.238 343.553 88.238ZM343.553 87.3C344.169 87.3 344.687 87.1647 345.107 86.894C345.536 86.614 345.863 86.25 346.087 85.802C346.311 85.3447 346.423 84.8407 346.423 84.29C346.423 83.73 346.306 83.226 346.073 82.778C345.849 82.3207 345.522 81.9613 345.093 81.7C344.664 81.4293 344.15 81.294 343.553 81.294C342.965 81.294 342.456 81.4293 342.027 81.7C341.598 81.9613 341.266 82.3207 341.033 82.778C340.809 83.226 340.697 83.73 340.697 84.29C340.697 84.8407 340.809 85.3447 341.033 85.802C341.257 86.25 341.579 86.614 341.999 86.894C342.428 87.1647 342.946 87.3 343.553 87.3ZM350.1 88V80.594H350.94V83.702H350.772C350.772 83.0113 350.875 82.4187 351.08 81.924C351.286 81.4293 351.594 81.0467 352.004 80.776C352.415 80.5053 352.933 80.37 353.558 80.37H353.6C354.534 80.37 355.229 80.664 355.686 81.252C356.144 81.8307 356.372 82.6473 356.372 83.702V88H355.336V83.478C355.336 82.834 355.159 82.316 354.804 81.924C354.45 81.532 353.955 81.336 353.32 81.336C352.667 81.336 352.14 81.5413 351.738 81.952C351.346 82.3533 351.15 82.8853 351.15 83.548V88H350.1ZM362.581 88.238C361.946 88.238 361.396 88.1307 360.929 87.916C360.462 87.692 360.08 87.398 359.781 87.034C359.482 86.6607 359.258 86.2453 359.109 85.788C358.969 85.3307 358.899 84.8593 358.899 84.374V84.178C358.899 83.702 358.969 83.2353 359.109 82.778C359.258 82.3207 359.482 81.91 359.781 81.546C360.08 81.182 360.453 80.8927 360.901 80.678C361.358 80.454 361.89 80.342 362.497 80.342C363.272 80.342 363.916 80.5147 364.429 80.86C364.952 81.2053 365.344 81.6487 365.605 82.19C365.866 82.722 365.997 83.296 365.997 83.912V84.458H359.375V83.646H365.269L365.003 84.052C365.003 83.5013 364.905 83.0207 364.709 82.61C364.522 82.19 364.242 81.8633 363.869 81.63C363.505 81.3873 363.048 81.266 362.497 81.266C361.918 81.266 361.438 81.4013 361.055 81.672C360.672 81.9427 360.383 82.302 360.187 82.75C360 83.198 359.907 83.7067 359.907 84.276C359.907 84.836 360 85.3493 360.187 85.816C360.383 86.2733 360.677 86.6373 361.069 86.908C361.47 87.1787 361.974 87.314 362.581 87.314C363.225 87.314 363.748 87.1693 364.149 86.88C364.55 86.5813 364.798 86.2313 364.891 85.83H365.871C365.778 86.3247 365.582 86.754 365.283 87.118C364.984 87.4727 364.606 87.748 364.149 87.944C363.692 88.14 363.169 88.238 362.581 88.238ZM375.408 88.238C374.782 88.238 374.236 88.1307 373.77 87.916C373.312 87.692 372.93 87.3933 372.622 87.02C372.314 86.6373 372.08 86.2173 371.922 85.76C371.772 85.3027 371.698 84.8407 371.698 84.374V84.178C371.698 83.702 371.772 83.24 371.922 82.792C372.08 82.3347 372.314 81.924 372.622 81.56C372.93 81.1867 373.312 80.8927 373.77 80.678C374.236 80.454 374.773 80.342 375.38 80.342C375.996 80.342 376.542 80.454 377.018 80.678C377.503 80.902 377.895 81.2193 378.194 81.63C378.492 82.0407 378.67 82.526 378.726 83.086H377.718C377.634 82.5727 377.391 82.148 376.99 81.812C376.598 81.4667 376.061 81.294 375.38 81.294C374.792 81.294 374.302 81.4293 373.91 81.7C373.527 81.9613 373.238 82.3207 373.042 82.778C372.846 83.226 372.748 83.7253 372.748 84.276C372.748 84.8173 372.846 85.3213 373.042 85.788C373.238 86.2453 373.532 86.614 373.924 86.894C374.316 87.1647 374.81 87.3 375.408 87.3C375.865 87.3 376.262 87.2207 376.598 87.062C376.943 86.894 377.218 86.67 377.424 86.39C377.638 86.11 377.764 85.802 377.802 85.466H378.81C378.772 86.026 378.595 86.516 378.278 86.936C377.97 87.3467 377.568 87.6687 377.074 87.902C376.579 88.126 376.024 88.238 375.408 88.238ZM385.743 88V85.774H385.575V83.142C385.575 82.5913 385.43 82.1713 385.141 81.882C384.852 81.5833 384.404 81.434 383.797 81.434C383.517 81.434 383.232 81.4387 382.943 81.448C382.663 81.4573 382.392 81.4713 382.131 81.49C381.879 81.4993 381.655 81.5133 381.459 81.532V80.608C381.664 80.5893 381.874 80.5707 382.089 80.552C382.304 80.5333 382.523 80.524 382.747 80.524C382.98 80.5147 383.204 80.51 383.419 80.51C384.175 80.51 384.782 80.6033 385.239 80.79C385.706 80.9767 386.046 81.2707 386.261 81.672C386.476 82.064 386.583 82.5867 386.583 83.24V88H385.743ZM383.237 88.196C382.714 88.196 382.252 88.1027 381.851 87.916C381.45 87.7293 381.137 87.4587 380.913 87.104C380.698 86.7493 380.591 86.32 380.591 85.816C380.591 85.3213 380.703 84.9013 380.927 84.556C381.16 84.2107 381.492 83.9493 381.921 83.772C382.36 83.5853 382.887 83.492 383.503 83.492H385.673V84.29H383.433C382.845 84.29 382.392 84.4347 382.075 84.724C381.767 85.004 381.613 85.3727 381.613 85.83C381.613 86.2967 381.776 86.67 382.103 86.95C382.43 87.2207 382.873 87.356 383.433 87.356C383.778 87.356 384.11 87.2953 384.427 87.174C384.744 87.0433 385.01 86.8287 385.225 86.53C385.44 86.222 385.556 85.802 385.575 85.27L385.883 85.704C385.846 86.2547 385.715 86.7167 385.491 87.09C385.267 87.454 384.964 87.7293 384.581 87.916C384.198 88.1027 383.75 88.196 383.237 88.196ZM389.706 88V80.594H390.546V83.688H390.462C390.462 82.6053 390.7 81.8073 391.176 81.294C391.652 80.7713 392.398 80.51 393.416 80.51H393.654V81.462H393.22C392.417 81.462 391.806 81.672 391.386 82.092C390.966 82.5027 390.756 83.1093 390.756 83.912V88H389.706ZM398.794 88.238C398.253 88.238 397.758 88.14 397.31 87.944C396.872 87.7387 396.489 87.4587 396.162 87.104C395.845 86.74 395.598 86.3293 395.42 85.872C395.252 85.4053 395.168 84.9107 395.168 84.388V84.192C395.168 83.688 395.252 83.2073 395.42 82.75C395.588 82.2833 395.826 81.8727 396.134 81.518C396.452 81.154 396.83 80.8693 397.268 80.664C397.716 80.4493 398.216 80.342 398.766 80.342C399.392 80.342 399.942 80.4773 400.418 80.748C400.894 81.0187 401.277 81.4107 401.566 81.924C401.856 82.428 402.01 83.0487 402.028 83.786L401.566 82.918V77.78H402.616V88H401.776V84.71H402.112C402.094 85.4847 401.93 86.138 401.622 86.67C401.324 87.1927 400.927 87.5847 400.432 87.846C399.947 88.1073 399.401 88.238 398.794 88.238ZM398.934 87.314C399.438 87.314 399.891 87.202 400.292 86.978C400.703 86.754 401.025 86.4367 401.258 86.026C401.492 85.606 401.608 85.1253 401.608 84.584V83.912C401.608 83.3893 401.492 82.932 401.258 82.54C401.025 82.1387 400.703 81.826 400.292 81.602C399.891 81.378 399.434 81.266 398.92 81.266C398.37 81.266 397.889 81.4013 397.478 81.672C397.077 81.9333 396.764 82.2927 396.54 82.75C396.326 83.2073 396.218 83.7207 396.218 84.29C396.218 84.878 396.33 85.4007 396.554 85.858C396.778 86.3153 397.096 86.6747 397.506 86.936C397.917 87.188 398.393 87.314 398.934 87.314ZM414.102 88V85.774H413.934V83.142C413.934 82.5913 413.79 82.1713 413.5 81.882C413.211 81.5833 412.763 81.434 412.156 81.434C411.876 81.434 411.592 81.4387 411.302 81.448C411.022 81.4573 410.752 81.4713 410.49 81.49C410.238 81.4993 410.014 81.5133 409.818 81.532V80.608C410.024 80.5893 410.234 80.5707 410.448 80.552C410.663 80.5333 410.882 80.524 411.106 80.524C411.34 80.5147 411.564 80.51 411.778 80.51C412.534 80.51 413.141 80.6033 413.598 80.79C414.065 80.9767 414.406 81.2707 414.62 81.672C414.835 82.064 414.942 82.5867 414.942 83.24V88H414.102ZM411.596 88.196C411.074 88.196 410.612 88.1027 410.21 87.916C409.809 87.7293 409.496 87.4587 409.272 87.104C409.058 86.7493 408.95 86.32 408.95 85.816C408.95 85.3213 409.062 84.9013 409.286 84.556C409.52 84.2107 409.851 83.9493 410.28 83.772C410.719 83.5853 411.246 83.492 411.862 83.492H414.032V84.29H411.792C411.204 84.29 410.752 84.4347 410.434 84.724C410.126 85.004 409.972 85.3727 409.972 85.83C409.972 86.2967 410.136 86.67 410.462 86.95C410.789 87.2207 411.232 87.356 411.792 87.356C412.138 87.356 412.469 87.2953 412.786 87.174C413.104 87.0433 413.37 86.8287 413.584 86.53C413.799 86.222 413.916 85.802 413.934 85.27L414.242 85.704C414.205 86.2547 414.074 86.7167 413.85 87.09C413.626 87.454 413.323 87.7293 412.94 87.916C412.558 88.1027 412.11 88.196 411.596 88.196ZM420.753 88.084C420.24 88.084 419.796 88.0093 419.423 87.86C419.05 87.7107 418.76 87.4587 418.555 87.104C418.35 86.74 418.247 86.2547 418.247 85.648V78.256H419.255V85.802C419.255 86.2313 419.372 86.5627 419.605 86.796C419.838 87.02 420.17 87.132 420.599 87.132H421.929V88.084H420.753ZM416.917 81.392V80.594H421.929V81.392H416.917ZM431.319 88.238C430.685 88.238 430.134 88.1307 429.667 87.916C429.201 87.692 428.818 87.398 428.519 87.034C428.221 86.6607 427.997 86.2453 427.847 85.788C427.707 85.3307 427.637 84.8593 427.637 84.374V84.178C427.637 83.702 427.707 83.2353 427.847 82.778C427.997 82.3207 428.221 81.91 428.519 81.546C428.818 81.182 429.191 80.8927 429.639 80.678C430.097 80.454 430.629 80.342 431.235 80.342C432.01 80.342 432.654 80.5147 433.167 80.86C433.69 81.2053 434.082 81.6487 434.343 82.19C434.605 82.722 434.735 83.296 434.735 83.912V84.458H428.113V83.646H434.007L433.741 84.052C433.741 83.5013 433.643 83.0207 433.447 82.61C433.261 82.19 432.981 81.8633 432.607 81.63C432.243 81.3873 431.786 81.266 431.235 81.266C430.657 81.266 430.176 81.4013 429.793 81.672C429.411 81.9427 429.121 82.302 428.925 82.75C428.739 83.198 428.645 83.7067 428.645 84.276C428.645 84.836 428.739 85.3493 428.925 85.816C429.121 86.2733 429.415 86.6373 429.807 86.908C430.209 87.1787 430.713 87.314 431.319 87.314C431.963 87.314 432.486 87.1693 432.887 86.88C433.289 86.5813 433.536 86.2313 433.629 85.83H434.609C434.516 86.3247 434.32 86.754 434.021 87.118C433.723 87.4727 433.345 87.748 432.887 87.944C432.43 88.14 431.907 88.238 431.319 88.238ZM441.764 88V85.774H441.596V83.142C441.596 82.5913 441.452 82.1713 441.162 81.882C440.873 81.5833 440.425 81.434 439.818 81.434C439.538 81.434 439.254 81.4387 438.964 81.448C438.684 81.4573 438.414 81.4713 438.152 81.49C437.9 81.4993 437.676 81.5133 437.48 81.532V80.608C437.686 80.5893 437.896 80.5707 438.11 80.552C438.325 80.5333 438.544 80.524 438.768 80.524C439.002 80.5147 439.226 80.51 439.44 80.51C440.196 80.51 440.803 80.6033 441.26 80.79C441.727 80.9767 442.068 81.2707 442.282 81.672C442.497 82.064 442.604 82.5867 442.604 83.24V88H441.764ZM439.258 88.196C438.736 88.196 438.274 88.1027 437.872 87.916C437.471 87.7293 437.158 87.4587 436.934 87.104C436.72 86.7493 436.612 86.32 436.612 85.816C436.612 85.3213 436.724 84.9013 436.948 84.556C437.182 84.2107 437.513 83.9493 437.942 83.772C438.381 83.5853 438.908 83.492 439.524 83.492H441.694V84.29H439.454C438.866 84.29 438.414 84.4347 438.096 84.724C437.788 85.004 437.634 85.3727 437.634 85.83C437.634 86.2967 437.798 86.67 438.124 86.95C438.451 87.2207 438.894 87.356 439.454 87.356C439.8 87.356 440.131 87.2953 440.448 87.174C440.766 87.0433 441.032 86.8287 441.246 86.53C441.461 86.222 441.578 85.802 441.596 85.27L441.904 85.704C441.867 86.2547 441.736 86.7167 441.512 87.09C441.288 87.454 440.985 87.7293 440.602 87.916C440.22 88.1027 439.772 88.196 439.258 88.196ZM448.849 88.238C448.224 88.238 447.678 88.1307 447.211 87.916C446.754 87.692 446.371 87.3933 446.063 87.02C445.755 86.6373 445.522 86.2173 445.363 85.76C445.214 85.3027 445.139 84.8407 445.139 84.374V84.178C445.139 83.702 445.214 83.24 445.363 82.792C445.522 82.3347 445.755 81.924 446.063 81.56C446.371 81.1867 446.754 80.8927 447.211 80.678C447.678 80.454 448.214 80.342 448.821 80.342C449.437 80.342 449.983 80.454 450.459 80.678C450.944 80.902 451.336 81.2193 451.635 81.63C451.934 82.0407 452.111 82.526 452.167 83.086H451.159C451.075 82.5727 450.832 82.148 450.431 81.812C450.039 81.4667 449.502 81.294 448.821 81.294C448.233 81.294 447.743 81.4293 447.351 81.7C446.968 81.9613 446.679 82.3207 446.483 82.778C446.287 83.226 446.189 83.7253 446.189 84.276C446.189 84.8173 446.287 85.3213 446.483 85.788C446.679 86.2453 446.973 86.614 447.365 86.894C447.757 87.1647 448.252 87.3 448.849 87.3C449.306 87.3 449.703 87.2207 450.039 87.062C450.384 86.894 450.66 86.67 450.865 86.39C451.08 86.11 451.206 85.802 451.243 85.466H452.251C452.214 86.026 452.036 86.516 451.719 86.936C451.411 87.3467 451.01 87.6687 450.515 87.902C450.02 88.126 449.465 88.238 448.849 88.238ZM454.676 88V77.78H455.726V83.562L455.418 83.8C455.418 83.1093 455.516 82.5073 455.712 81.994C455.918 81.4807 456.221 81.084 456.622 80.804C457.033 80.5147 457.546 80.37 458.162 80.37H458.218C459.114 80.37 459.791 80.664 460.248 81.252C460.715 81.84 460.948 82.6567 460.948 83.702V88H459.912V83.478C459.912 82.8153 459.73 82.2927 459.366 81.91C459.002 81.5273 458.512 81.336 457.896 81.336C457.234 81.336 456.706 81.5507 456.314 81.98C455.922 82.4 455.726 82.9553 455.726 83.646V88H454.676ZM467.901 88V77.78H468.951V88H467.901ZM466.823 78.634V77.78H468.951V78.634H466.823ZM475.266 88.238C474.632 88.238 474.081 88.1307 473.614 87.916C473.148 87.692 472.765 87.398 472.466 87.034C472.168 86.6607 471.944 86.2453 471.794 85.788C471.654 85.3307 471.584 84.8593 471.584 84.374V84.178C471.584 83.702 471.654 83.2353 471.794 82.778C471.944 82.3207 472.168 81.91 472.466 81.546C472.765 81.182 473.138 80.8927 473.586 80.678C474.044 80.454 474.576 80.342 475.182 80.342C475.957 80.342 476.601 80.5147 477.114 80.86C477.637 81.2053 478.029 81.6487 478.29 82.19C478.552 82.722 478.682 83.296 478.682 83.912V84.458H472.06V83.646H477.954L477.688 84.052C477.688 83.5013 477.59 83.0207 477.394 82.61C477.208 82.19 476.928 81.8633 476.554 81.63C476.19 81.3873 475.733 81.266 475.182 81.266C474.604 81.266 474.123 81.4013 473.74 81.672C473.358 81.9427 473.068 82.302 472.872 82.75C472.686 83.198 472.592 83.7067 472.592 84.276C472.592 84.836 472.686 85.3493 472.872 85.816C473.068 86.2733 473.362 86.6373 473.754 86.908C474.156 87.1787 474.66 87.314 475.266 87.314C475.91 87.314 476.433 87.1693 476.834 86.88C477.236 86.5813 477.483 86.2313 477.576 85.83H478.556C478.463 86.3247 478.267 86.754 477.968 87.118C477.67 87.4727 477.292 87.748 476.834 87.944C476.377 88.14 475.854 88.238 475.266 88.238ZM482.801 88L480.197 80.594H481.275L483.851 88H482.801ZM483.081 88V87.146H484.411V88H483.081ZM483.655 88L485.909 80.594H486.945L484.649 88H483.655ZM492.276 88.238C491.642 88.238 491.091 88.1307 490.624 87.916C490.158 87.692 489.775 87.398 489.476 87.034C489.178 86.6607 488.954 86.2453 488.804 85.788C488.664 85.3307 488.594 84.8593 488.594 84.374V84.178C488.594 83.702 488.664 83.2353 488.804 82.778C488.954 82.3207 489.178 81.91 489.476 81.546C489.775 81.182 490.148 80.8927 490.596 80.678C491.054 80.454 491.586 80.342 492.192 80.342C492.967 80.342 493.611 80.5147 494.124 80.86C494.647 81.2053 495.039 81.6487 495.3 82.19C495.562 82.722 495.692 83.296 495.692 83.912V84.458H489.07V83.646H494.964L494.698 84.052C494.698 83.5013 494.6 83.0207 494.404 82.61C494.218 82.19 493.938 81.8633 493.564 81.63C493.2 81.3873 492.743 81.266 492.192 81.266C491.614 81.266 491.133 81.4013 490.75 81.672C490.368 81.9427 490.078 82.302 489.882 82.75C489.696 83.198 489.602 83.7067 489.602 84.276C489.602 84.836 489.696 85.3493 489.882 85.816C490.078 86.2733 490.372 86.6373 490.764 86.908C491.166 87.1787 491.67 87.314 492.276 87.314C492.92 87.314 493.443 87.1693 493.844 86.88C494.246 86.5813 494.493 86.2313 494.586 85.83H495.566C495.473 86.3247 495.277 86.754 494.978 87.118C494.68 87.4727 494.302 87.748 493.844 87.944C493.387 88.14 492.864 88.238 492.276 88.238ZM498.283 88V77.78H499.333V88H498.283ZM497.205 78.634V77.78H499.333V78.634H497.205ZM502.345 88V86.614H503.661V88H502.345ZM108.584 102.996L105.294 96.78H106.414L109.312 102.338L108.864 102.156H110.418L109.956 102.338L112.7 96.78H113.75L110.656 102.996H108.584ZM109.088 107V102.758H110.138V107H109.088ZM118.502 107.238C117.868 107.238 117.308 107.131 116.822 106.916C116.346 106.692 115.94 106.398 115.604 106.034C115.278 105.661 115.026 105.245 114.848 104.788C114.68 104.331 114.596 103.864 114.596 103.388V103.192C114.596 102.716 114.685 102.249 114.862 101.792C115.04 101.325 115.296 100.91 115.632 100.546C115.968 100.182 116.374 99.8927 116.85 99.678C117.336 99.454 117.886 99.342 118.502 99.342C119.128 99.342 119.678 99.454 120.154 99.678C120.64 99.8927 121.05 100.182 121.386 100.546C121.722 100.91 121.974 101.325 122.142 101.792C122.32 102.249 122.408 102.716 122.408 103.192V103.388C122.408 103.864 122.324 104.331 122.156 104.788C121.988 105.245 121.736 105.661 121.4 106.034C121.074 106.398 120.668 106.692 120.182 106.916C119.697 107.131 119.137 107.238 118.502 107.238ZM118.502 106.3C119.118 106.3 119.636 106.165 120.056 105.894C120.486 105.614 120.812 105.25 121.036 104.802C121.26 104.345 121.372 103.841 121.372 103.29C121.372 102.73 121.256 102.226 121.022 101.778C120.798 101.321 120.472 100.961 120.042 100.7C119.613 100.429 119.1 100.294 118.502 100.294C117.914 100.294 117.406 100.429 116.976 100.7C116.547 100.961 116.216 101.321 115.982 101.778C115.758 102.226 115.646 102.73 115.646 103.29C115.646 103.841 115.758 104.345 115.982 104.802C116.206 105.25 116.528 105.614 116.948 105.894C117.378 106.165 117.896 106.3 118.502 106.3ZM127.611 107.21C126.725 107.21 126.048 106.925 125.581 106.356C125.115 105.777 124.881 104.975 124.881 103.948V99.58H125.917V104.158C125.917 104.802 126.085 105.315 126.421 105.698C126.767 106.071 127.243 106.258 127.849 106.258C128.484 106.258 128.988 106.057 129.361 105.656C129.744 105.255 129.935 104.718 129.935 104.046V99.58H130.985V107H130.145V103.906H130.313C130.313 104.597 130.215 105.189 130.019 105.684C129.823 106.169 129.529 106.547 129.137 106.818C128.745 107.079 128.251 107.21 127.653 107.21H127.611ZM133.587 100.812V100.196H133.699C133.988 100.196 134.217 100.149 134.385 100.056C134.562 99.9533 134.693 99.7853 134.777 99.552C134.861 99.3187 134.903 99.006 134.903 98.614V97.69L135.155 98.166C135.099 98.2033 135.024 98.2313 134.931 98.25C134.838 98.2687 134.74 98.278 134.637 98.278C134.404 98.278 134.212 98.208 134.063 98.068C133.914 97.928 133.839 97.732 133.839 97.48C133.839 97.2467 133.909 97.0553 134.049 96.906C134.189 96.7567 134.38 96.682 134.623 96.682C134.791 96.682 134.945 96.724 135.085 96.808C135.234 96.892 135.351 97.032 135.435 97.228C135.528 97.424 135.575 97.704 135.575 98.068V98.334C135.575 98.9967 135.496 99.51 135.337 99.874C135.188 100.229 134.973 100.476 134.693 100.616C134.413 100.747 134.082 100.812 133.699 100.812H133.587ZM138.301 107V96.78H139.351V107H138.301ZM137.223 97.634V96.78H139.351V97.634H137.223ZM142.643 107V96.78H143.693V107H142.643ZM141.565 97.634V96.78H143.693V97.634H141.565ZM150.682 107V99.594H151.522V102.702H151.354C151.354 102.011 151.457 101.419 151.662 100.924C151.868 100.429 152.176 100.047 152.586 99.776C152.997 99.5053 153.515 99.37 154.14 99.37H154.182C155.116 99.37 155.811 99.664 156.268 100.252C156.726 100.831 156.954 101.647 156.954 102.702V107H155.918V102.478C155.918 101.834 155.741 101.316 155.386 100.924C155.032 100.532 154.537 100.336 153.902 100.336C153.249 100.336 152.722 100.541 152.32 100.952C151.928 101.353 151.732 101.885 151.732 102.548V107H150.682ZM163.163 107.238C162.528 107.238 161.978 107.131 161.511 106.916C161.044 106.692 160.662 106.398 160.363 106.034C160.064 105.661 159.84 105.245 159.691 104.788C159.551 104.331 159.481 103.859 159.481 103.374V103.178C159.481 102.702 159.551 102.235 159.691 101.778C159.84 101.321 160.064 100.91 160.363 100.546C160.662 100.182 161.035 99.8927 161.483 99.678C161.94 99.454 162.472 99.342 163.079 99.342C163.854 99.342 164.498 99.5147 165.011 99.86C165.534 100.205 165.926 100.649 166.187 101.19C166.448 101.722 166.579 102.296 166.579 102.912V103.458H159.957V102.646H165.851L165.585 103.052C165.585 102.501 165.487 102.021 165.291 101.61C165.104 101.19 164.824 100.863 164.451 100.63C164.087 100.387 163.63 100.266 163.079 100.266C162.5 100.266 162.02 100.401 161.637 100.672C161.254 100.943 160.965 101.302 160.769 101.75C160.582 102.198 160.489 102.707 160.489 103.276C160.489 103.836 160.582 104.349 160.769 104.816C160.965 105.273 161.259 105.637 161.651 105.908C162.052 106.179 162.556 106.314 163.163 106.314C163.807 106.314 164.33 106.169 164.731 105.88C165.132 105.581 165.38 105.231 165.473 104.83H166.453C166.36 105.325 166.164 105.754 165.865 106.118C165.566 106.473 165.188 106.748 164.731 106.944C164.274 107.14 163.751 107.238 163.163 107.238ZM172.194 107.238C171.56 107.238 171.009 107.131 170.542 106.916C170.076 106.692 169.693 106.398 169.394 106.034C169.096 105.661 168.872 105.245 168.722 104.788C168.582 104.331 168.512 103.859 168.512 103.374V103.178C168.512 102.702 168.582 102.235 168.722 101.778C168.872 101.321 169.096 100.91 169.394 100.546C169.693 100.182 170.066 99.8927 170.514 99.678C170.972 99.454 171.504 99.342 172.11 99.342C172.885 99.342 173.529 99.5147 174.042 99.86C174.565 100.205 174.957 100.649 175.218 101.19C175.48 101.722 175.61 102.296 175.61 102.912V103.458H168.988V102.646H174.882L174.616 103.052C174.616 102.501 174.518 102.021 174.322 101.61C174.136 101.19 173.856 100.863 173.482 100.63C173.118 100.387 172.661 100.266 172.11 100.266C171.532 100.266 171.051 100.401 170.668 100.672C170.286 100.943 169.996 101.302 169.8 101.75C169.614 102.198 169.52 102.707 169.52 103.276C169.52 103.836 169.614 104.349 169.8 104.816C169.996 105.273 170.29 105.637 170.682 105.908C171.084 106.179 171.588 106.314 172.194 106.314C172.838 106.314 173.361 106.169 173.762 105.88C174.164 105.581 174.411 105.231 174.504 104.83H175.484C175.391 105.325 175.195 105.754 174.896 106.118C174.598 106.473 174.22 106.748 173.762 106.944C173.305 107.14 172.782 107.238 172.194 107.238ZM181.169 107.238C180.628 107.238 180.133 107.14 179.685 106.944C179.247 106.739 178.864 106.459 178.537 106.104C178.22 105.74 177.973 105.329 177.795 104.872C177.627 104.405 177.543 103.911 177.543 103.388V103.192C177.543 102.688 177.627 102.207 177.795 101.75C177.963 101.283 178.201 100.873 178.509 100.518C178.827 100.154 179.205 99.8693 179.643 99.664C180.091 99.4493 180.591 99.342 181.141 99.342C181.767 99.342 182.317 99.4773 182.793 99.748C183.269 100.019 183.652 100.411 183.941 100.924C184.231 101.428 184.385 102.049 184.403 102.786L183.941 101.918V96.78H184.991V107H184.151V103.71H184.487C184.469 104.485 184.305 105.138 183.997 105.67C183.699 106.193 183.302 106.585 182.807 106.846C182.322 107.107 181.776 107.238 181.169 107.238ZM181.309 106.314C181.813 106.314 182.266 106.202 182.667 105.978C183.078 105.754 183.4 105.437 183.633 105.026C183.867 104.606 183.983 104.125 183.983 103.584V102.912C183.983 102.389 183.867 101.932 183.633 101.54C183.4 101.139 183.078 100.826 182.667 100.602C182.266 100.378 181.809 100.266 181.295 100.266C180.745 100.266 180.264 100.401 179.853 100.672C179.452 100.933 179.139 101.293 178.915 101.75C178.701 102.207 178.593 102.721 178.593 103.29C178.593 103.878 178.705 104.401 178.929 104.858C179.153 105.315 179.471 105.675 179.881 105.936C180.292 106.188 180.768 106.314 181.309 106.314ZM195.441 107.266C194.76 107.266 194.181 107.149 193.705 106.916C193.229 106.673 192.842 106.337 192.543 105.908C192.254 105.479 192.039 104.97 191.899 104.382C191.759 103.785 191.689 103.136 191.689 102.436V101.848C191.689 100.187 192.077 98.9173 192.851 98.04C193.626 97.1533 194.783 96.71 196.323 96.71C196.641 96.71 196.925 96.7193 197.177 96.738C197.429 96.7567 197.7 96.7847 197.989 96.822V97.732C197.7 97.6853 197.42 97.6527 197.149 97.634C196.879 97.6153 196.585 97.606 196.267 97.606C195.39 97.606 194.685 97.7787 194.153 98.124C193.621 98.46 193.234 98.95 192.991 99.594C192.758 100.238 192.641 101.017 192.641 101.932V102.926L192.361 103.752C192.371 103.043 192.506 102.441 192.767 101.946C193.038 101.451 193.416 101.073 193.901 100.812C194.387 100.551 194.956 100.42 195.609 100.42C196.337 100.42 196.953 100.569 197.457 100.868C197.961 101.167 198.339 101.573 198.591 102.086C198.853 102.599 198.983 103.173 198.983 103.808C198.983 104.452 198.848 105.035 198.577 105.558C198.316 106.081 197.924 106.496 197.401 106.804C196.879 107.112 196.225 107.266 195.441 107.266ZM195.441 106.342C196.001 106.342 196.468 106.23 196.841 106.006C197.224 105.782 197.509 105.479 197.695 105.096C197.882 104.713 197.975 104.284 197.975 103.808C197.975 103.332 197.882 102.907 197.695 102.534C197.518 102.151 197.243 101.853 196.869 101.638C196.505 101.414 196.053 101.302 195.511 101.302C194.979 101.302 194.513 101.405 194.111 101.61C193.719 101.815 193.411 102.109 193.187 102.492C192.973 102.865 192.865 103.309 192.865 103.822C192.865 104.261 192.959 104.671 193.145 105.054C193.332 105.437 193.617 105.749 193.999 105.992C194.382 106.225 194.863 106.342 195.441 106.342ZM204.429 107.238C203.683 107.238 203.048 107.093 202.525 106.804C202.012 106.515 201.62 106.123 201.349 105.628C201.079 105.133 200.943 104.592 200.943 104.004H201.965C201.965 104.713 202.185 105.278 202.623 105.698C203.062 106.109 203.664 106.314 204.429 106.314C204.924 106.314 205.353 106.221 205.717 106.034C206.091 105.847 206.375 105.581 206.571 105.236C206.777 104.891 206.879 104.489 206.879 104.032C206.879 103.332 206.66 102.767 206.221 102.338C205.783 101.909 205.19 101.694 204.443 101.694C204.145 101.694 203.888 101.731 203.673 101.806C203.459 101.871 203.267 101.955 203.099 102.058L202.525 101.078L206.599 97.914L206.487 97.69H201.349V96.78H207.467V98.292L203.855 101.106L203.169 101.12C203.337 101.045 203.529 100.985 203.743 100.938C203.958 100.882 204.205 100.854 204.485 100.854C205.204 100.854 205.815 100.994 206.319 101.274C206.833 101.554 207.225 101.927 207.495 102.394C207.766 102.861 207.901 103.374 207.901 103.934V104.13C207.901 104.671 207.766 105.18 207.495 105.656C207.225 106.132 206.833 106.515 206.319 106.804C205.806 107.093 205.176 107.238 204.429 107.238ZM214.666 107V96.78H215.73V107H214.666ZM215.45 107V106.034H220.252V107H215.45ZM225.528 107.238C224.894 107.238 224.343 107.131 223.876 106.916C223.41 106.692 223.027 106.398 222.728 106.034C222.43 105.661 222.206 105.245 222.056 104.788C221.916 104.331 221.846 103.859 221.846 103.374V103.178C221.846 102.702 221.916 102.235 222.056 101.778C222.206 101.321 222.43 100.91 222.728 100.546C223.027 100.182 223.4 99.8927 223.848 99.678C224.306 99.454 224.838 99.342 225.444 99.342C226.219 99.342 226.863 99.5147 227.376 99.86C227.899 100.205 228.291 100.649 228.552 101.19C228.814 101.722 228.944 102.296 228.944 102.912V103.458H222.322V102.646H228.216L227.95 103.052C227.95 102.501 227.852 102.021 227.656 101.61C227.47 101.19 227.19 100.863 226.816 100.63C226.452 100.387 225.995 100.266 225.444 100.266C224.866 100.266 224.385 100.401 224.002 100.672C223.62 100.943 223.33 101.302 223.134 101.75C222.948 102.198 222.854 102.707 222.854 103.276C222.854 103.836 222.948 104.349 223.134 104.816C223.33 105.273 223.624 105.637 224.016 105.908C224.418 106.179 224.922 106.314 225.528 106.314C226.172 106.314 226.695 106.169 227.096 105.88C227.498 105.581 227.745 105.231 227.838 104.83H228.818C228.725 105.325 228.529 105.754 228.23 106.118C227.932 106.473 227.554 106.748 227.096 106.944C226.639 107.14 226.116 107.238 225.528 107.238ZM233.063 107L230.459 99.594H231.537L234.113 107H233.063ZM233.343 107V106.146H234.673V107H233.343ZM233.917 107L236.171 99.594H237.207L234.911 107H233.917ZM242.538 107.238C241.903 107.238 241.353 107.131 240.886 106.916C240.419 106.692 240.037 106.398 239.738 106.034C239.439 105.661 239.215 105.245 239.066 104.788C238.926 104.331 238.856 103.859 238.856 103.374V103.178C238.856 102.702 238.926 102.235 239.066 101.778C239.215 101.321 239.439 100.91 239.738 100.546C240.037 100.182 240.41 99.8927 240.858 99.678C241.315 99.454 241.847 99.342 242.454 99.342C243.229 99.342 243.873 99.5147 244.386 99.86C244.909 100.205 245.301 100.649 245.562 101.19C245.823 101.722 245.954 102.296 245.954 102.912V103.458H239.332V102.646H245.226L244.96 103.052C244.96 102.501 244.862 102.021 244.666 101.61C244.479 101.19 244.199 100.863 243.826 100.63C243.462 100.387 243.005 100.266 242.454 100.266C241.875 100.266 241.395 100.401 241.012 100.672C240.629 100.943 240.34 101.302 240.144 101.75C239.957 102.198 239.864 102.707 239.864 103.276C239.864 103.836 239.957 104.349 240.144 104.816C240.34 105.273 240.634 105.637 241.026 105.908C241.427 106.179 241.931 106.314 242.538 106.314C243.182 106.314 243.705 106.169 244.106 105.88C244.507 105.581 244.755 105.231 244.848 104.83H245.828C245.735 105.325 245.539 105.754 245.24 106.118C244.941 106.473 244.563 106.748 244.106 106.944C243.649 107.14 243.126 107.238 242.538 107.238ZM248.545 107V96.78H249.595V107H248.545ZM247.467 97.634V96.78H249.595V97.634H247.467ZM258.195 107V97.326L258.657 97.69H255.871V96.78H259.245V107H258.195ZM269.798 107.238C269.173 107.238 268.627 107.131 268.16 106.916C267.703 106.692 267.32 106.393 267.012 106.02C266.704 105.637 266.471 105.217 266.312 104.76C266.163 104.303 266.088 103.841 266.088 103.374V103.178C266.088 102.702 266.163 102.24 266.312 101.792C266.471 101.335 266.704 100.924 267.012 100.56C267.32 100.187 267.703 99.8927 268.16 99.678C268.627 99.454 269.164 99.342 269.77 99.342C270.386 99.342 270.932 99.454 271.408 99.678C271.894 99.902 272.286 100.219 272.584 100.63C272.883 101.041 273.06 101.526 273.116 102.086H272.108C272.024 101.573 271.782 101.148 271.38 100.812C270.988 100.467 270.452 100.294 269.77 100.294C269.182 100.294 268.692 100.429 268.3 100.7C267.918 100.961 267.628 101.321 267.432 101.778C267.236 102.226 267.138 102.725 267.138 103.276C267.138 103.817 267.236 104.321 267.432 104.788C267.628 105.245 267.922 105.614 268.314 105.894C268.706 106.165 269.201 106.3 269.798 106.3C270.256 106.3 270.652 106.221 270.988 106.062C271.334 105.894 271.609 105.67 271.814 105.39C272.029 105.11 272.155 104.802 272.192 104.466H273.2C273.163 105.026 272.986 105.516 272.668 105.936C272.36 106.347 271.959 106.669 271.464 106.902C270.97 107.126 270.414 107.238 269.798 107.238ZM280.134 107V104.774H279.966V102.142C279.966 101.591 279.821 101.171 279.532 100.882C279.242 100.583 278.794 100.434 278.188 100.434C277.908 100.434 277.623 100.439 277.334 100.448C277.054 100.457 276.783 100.471 276.522 100.49C276.27 100.499 276.046 100.513 275.85 100.532V99.608C276.055 99.5893 276.265 99.5707 276.48 99.552C276.694 99.5333 276.914 99.524 277.138 99.524C277.371 99.5147 277.595 99.51 277.81 99.51C278.566 99.51 279.172 99.6033 279.63 99.79C280.096 99.9767 280.437 100.271 280.652 100.672C280.866 101.064 280.974 101.587 280.974 102.24V107H280.134ZM277.628 107.196C277.105 107.196 276.643 107.103 276.242 106.916C275.84 106.729 275.528 106.459 275.304 106.104C275.089 105.749 274.982 105.32 274.982 104.816C274.982 104.321 275.094 103.901 275.318 103.556C275.551 103.211 275.882 102.949 276.312 102.772C276.75 102.585 277.278 102.492 277.894 102.492H280.064V103.29H277.824C277.236 103.29 276.783 103.435 276.466 103.724C276.158 104.004 276.004 104.373 276.004 104.83C276.004 105.297 276.167 105.67 276.494 105.95C276.82 106.221 277.264 106.356 277.824 106.356C278.169 106.356 278.5 106.295 278.818 106.174C279.135 106.043 279.401 105.829 279.616 105.53C279.83 105.222 279.947 104.802 279.966 104.27L280.274 104.704C280.236 105.255 280.106 105.717 279.882 106.09C279.658 106.454 279.354 106.729 278.972 106.916C278.589 107.103 278.141 107.196 277.628 107.196ZM284.096 107V99.594H284.936V102.688H284.852C284.852 101.605 285.09 100.807 285.566 100.294C286.042 99.7713 286.789 99.51 287.806 99.51H288.044V100.462H287.61C286.808 100.462 286.196 100.672 285.776 101.092C285.356 101.503 285.146 102.109 285.146 102.912V107H284.096ZM293.185 107.238C292.644 107.238 292.149 107.14 291.701 106.944C291.262 106.739 290.88 106.459 290.553 106.104C290.236 105.74 289.988 105.329 289.811 104.872C289.643 104.405 289.559 103.911 289.559 103.388V103.192C289.559 102.688 289.643 102.207 289.811 101.75C289.979 101.283 290.217 100.873 290.525 100.518C290.842 100.154 291.22 99.8693 291.659 99.664C292.107 99.4493 292.606 99.342 293.157 99.342C293.782 99.342 294.333 99.4773 294.809 99.748C295.285 100.019 295.668 100.411 295.957 100.924C296.246 101.428 296.4 102.049 296.419 102.786L295.957 101.918V96.78H297.007V107H296.167V103.71H296.503C296.484 104.485 296.321 105.138 296.013 105.67C295.714 106.193 295.318 106.585 294.823 106.846C294.338 107.107 293.792 107.238 293.185 107.238ZM293.325 106.314C293.829 106.314 294.282 106.202 294.683 105.978C295.094 105.754 295.416 105.437 295.649 105.026C295.882 104.606 295.999 104.125 295.999 103.584V102.912C295.999 102.389 295.882 101.932 295.649 101.54C295.416 101.139 295.094 100.826 294.683 100.602C294.282 100.378 293.824 100.266 293.311 100.266C292.76 100.266 292.28 100.401 291.869 100.672C291.468 100.933 291.155 101.293 290.931 101.75C290.716 102.207 290.609 102.721 290.609 103.29C290.609 103.878 290.721 104.401 290.945 104.858C291.169 105.315 291.486 105.675 291.897 105.936C292.308 106.188 292.784 106.314 293.325 106.314ZM302.555 107.21C301.603 107.21 300.871 107.005 300.357 106.594C299.844 106.174 299.583 105.614 299.573 104.914H300.553C300.572 105.269 300.731 105.591 301.029 105.88C301.337 106.169 301.846 106.314 302.555 106.314C303.218 106.314 303.713 106.179 304.039 105.908C304.375 105.628 304.543 105.292 304.543 104.9C304.543 104.536 304.403 104.256 304.123 104.06C303.853 103.855 303.456 103.724 302.933 103.668L302.093 103.584C301.421 103.509 300.875 103.304 300.455 102.968C300.045 102.623 299.839 102.151 299.839 101.554C299.839 101.115 299.951 100.733 300.175 100.406C300.399 100.079 300.712 99.8273 301.113 99.65C301.524 99.4633 302.005 99.37 302.555 99.37C303.349 99.37 303.993 99.5567 304.487 99.93C304.991 100.303 305.248 100.835 305.257 101.526H304.277C304.268 101.171 304.119 100.873 303.829 100.63C303.54 100.387 303.115 100.266 302.555 100.266C301.977 100.266 301.543 100.392 301.253 100.644C300.973 100.896 300.833 101.204 300.833 101.568C300.833 101.876 300.941 102.133 301.155 102.338C301.37 102.534 301.706 102.655 302.163 102.702L303.003 102.786C303.75 102.87 304.357 103.085 304.823 103.43C305.299 103.775 305.537 104.27 305.537 104.914C305.537 105.353 305.411 105.749 305.159 106.104C304.917 106.449 304.571 106.72 304.123 106.916C303.675 107.112 303.153 107.21 302.555 107.21ZM314.583 107.084C314.07 107.084 313.626 107.009 313.253 106.86C312.88 106.711 312.59 106.459 312.385 106.104C312.18 105.74 312.077 105.255 312.077 104.648V97.256H313.085V104.802C313.085 105.231 313.202 105.563 313.435 105.796C313.668 106.02 314 106.132 314.429 106.132H315.759V107.084H314.583ZM310.747 100.392V99.594H315.759V100.392H310.747ZM321.537 107.238C320.903 107.238 320.343 107.131 319.857 106.916C319.381 106.692 318.975 106.398 318.639 106.034C318.313 105.661 318.061 105.245 317.883 104.788C317.715 104.331 317.631 103.864 317.631 103.388V103.192C317.631 102.716 317.72 102.249 317.897 101.792C318.075 101.325 318.331 100.91 318.667 100.546C319.003 100.182 319.409 99.8927 319.885 99.678C320.371 99.454 320.921 99.342 321.537 99.342C322.163 99.342 322.713 99.454 323.189 99.678C323.675 99.8927 324.085 100.182 324.421 100.546C324.757 100.91 325.009 101.325 325.177 101.792C325.355 102.249 325.443 102.716 325.443 103.192V103.388C325.443 103.864 325.359 104.331 325.191 104.788C325.023 105.245 324.771 105.661 324.435 106.034C324.109 106.398 323.703 106.692 323.217 106.916C322.732 107.131 322.172 107.238 321.537 107.238ZM321.537 106.3C322.153 106.3 322.671 106.165 323.091 105.894C323.521 105.614 323.847 105.25 324.071 104.802C324.295 104.345 324.407 103.841 324.407 103.29C324.407 102.73 324.291 102.226 324.057 101.778C323.833 101.321 323.507 100.961 323.077 100.7C322.648 100.429 322.135 100.294 321.537 100.294C320.949 100.294 320.441 100.429 320.011 100.7C319.582 100.961 319.251 101.321 319.017 101.778C318.793 102.226 318.681 102.73 318.681 103.29C318.681 103.841 318.793 104.345 319.017 104.802C319.241 105.25 319.563 105.614 319.983 105.894C320.413 106.165 320.931 106.3 321.537 106.3ZM334.19 107.21C333.238 107.21 332.505 107.005 331.992 106.594C331.479 106.174 331.217 105.614 331.208 104.914H332.188C332.207 105.269 332.365 105.591 332.664 105.88C332.972 106.169 333.481 106.314 334.19 106.314C334.853 106.314 335.347 106.179 335.674 105.908C336.01 105.628 336.178 105.292 336.178 104.9C336.178 104.536 336.038 104.256 335.758 104.06C335.487 103.855 335.091 103.724 334.568 103.668L333.728 103.584C333.056 103.509 332.51 103.304 332.09 102.968C331.679 102.623 331.474 102.151 331.474 101.554C331.474 101.115 331.586 100.733 331.81 100.406C332.034 100.079 332.347 99.8273 332.748 99.65C333.159 99.4633 333.639 99.37 334.19 99.37C334.983 99.37 335.627 99.5567 336.122 99.93C336.626 100.303 336.883 100.835 336.892 101.526H335.912C335.903 101.171 335.753 100.873 335.464 100.63C335.175 100.387 334.75 100.266 334.19 100.266C333.611 100.266 333.177 100.392 332.888 100.644C332.608 100.896 332.468 101.204 332.468 101.568C332.468 101.876 332.575 102.133 332.79 102.338C333.005 102.534 333.341 102.655 333.798 102.702L334.638 102.786C335.385 102.87 335.991 103.085 336.458 103.43C336.934 103.775 337.172 104.27 337.172 104.914C337.172 105.353 337.046 105.749 336.794 106.104C336.551 106.449 336.206 106.72 335.758 106.916C335.31 107.112 334.787 107.21 334.19 107.21ZM342.45 107.084C341.937 107.084 341.494 107.009 341.12 106.86C340.747 106.711 340.458 106.459 340.252 106.104C340.047 105.74 339.944 105.255 339.944 104.648V97.256H340.952V104.802C340.952 105.231 341.069 105.563 341.302 105.796C341.536 106.02 341.867 106.132 342.296 106.132H343.626V107.084H342.45ZM338.614 100.392V99.594H343.626V100.392H338.614ZM350.636 107V104.774H350.468V102.142C350.468 101.591 350.323 101.171 350.034 100.882C349.744 100.583 349.296 100.434 348.69 100.434C348.41 100.434 348.125 100.439 347.836 100.448C347.556 100.457 347.285 100.471 347.024 100.49C346.772 100.499 346.548 100.513 346.352 100.532V99.608C346.557 99.5893 346.767 99.5707 346.982 99.552C347.196 99.5333 347.416 99.524 347.64 99.524C347.873 99.5147 348.097 99.51 348.312 99.51C349.068 99.51 349.674 99.6033 350.132 99.79C350.598 99.9767 350.939 100.271 351.154 100.672C351.368 101.064 351.476 101.587 351.476 102.24V107H350.636ZM348.13 107.196C347.607 107.196 347.145 107.103 346.744 106.916C346.342 106.729 346.03 106.459 345.806 106.104C345.591 105.749 345.484 105.32 345.484 104.816C345.484 104.321 345.596 103.901 345.82 103.556C346.053 103.211 346.384 102.949 346.814 102.772C347.252 102.585 347.78 102.492 348.396 102.492H350.566V103.29H348.326C347.738 103.29 347.285 103.435 346.968 103.724C346.66 104.004 346.506 104.373 346.506 104.83C346.506 105.297 346.669 105.67 346.996 105.95C347.322 106.221 347.766 106.356 348.326 106.356C348.671 106.356 349.002 106.295 349.32 106.174C349.637 106.043 349.903 105.829 350.118 105.53C350.332 105.222 350.449 104.802 350.468 104.27L350.776 104.704C350.738 105.255 350.608 105.717 350.384 106.09C350.16 106.454 349.856 106.729 349.474 106.916C349.091 107.103 348.643 107.196 348.13 107.196ZM354.598 107V99.594H355.438V102.688H355.354C355.354 101.605 355.592 100.807 356.068 100.294C356.544 99.7713 357.291 99.51 358.308 99.51H358.546V100.462H358.112C357.31 100.462 356.698 100.672 356.278 101.092C355.858 101.503 355.648 102.109 355.648 102.912V107H354.598ZM363.569 107.084C363.056 107.084 362.613 107.009 362.239 106.86C361.866 106.711 361.577 106.459 361.371 106.104C361.166 105.74 361.063 105.255 361.063 104.648V97.256H362.071V104.802C362.071 105.231 362.188 105.563 362.421 105.796C362.655 106.02 362.986 106.132 363.415 106.132H364.745V107.084H363.569ZM359.733 100.392V99.594H364.745V100.392H359.733ZM373.114 107L374.696 99.832H376.166L378 107H377.09L375.256 99.874H375.592L373.996 107H373.114ZM372.512 107V106.146H373.786V107H372.512ZM372.26 107L370.118 99.594H371.126L373.24 107H372.26ZM377.328 107V106.146H378.574V107H377.328ZM377.874 107L379.722 99.594H380.688L378.798 107H377.874ZM383.514 107V99.594H384.55V107H383.514ZM382.324 100.434V99.594H384.55V100.434H382.324ZM383.738 98.222C383.486 98.222 383.294 98.1567 383.164 98.026C383.042 97.886 382.982 97.7133 382.982 97.508C382.982 97.3027 383.042 97.1347 383.164 97.004C383.294 96.864 383.486 96.794 383.738 96.794C383.99 96.794 384.176 96.864 384.298 97.004C384.419 97.1347 384.48 97.3027 384.48 97.508C384.48 97.7133 384.419 97.886 384.298 98.026C384.176 98.1567 383.99 98.222 383.738 98.222ZM390.493 107.084C389.98 107.084 389.537 107.009 389.163 106.86C388.79 106.711 388.501 106.459 388.295 106.104C388.09 105.74 387.987 105.255 387.987 104.648V97.256H388.995V104.802C388.995 105.231 389.112 105.563 389.345 105.796C389.579 106.02 389.91 106.132 390.339 106.132H391.669V107.084H390.493ZM386.657 100.392V99.594H391.669V100.392H386.657ZM394.198 107V96.78H395.248V102.562L394.94 102.8C394.94 102.109 395.038 101.507 395.234 100.994C395.439 100.481 395.743 100.084 396.144 99.804C396.555 99.5147 397.068 99.37 397.684 99.37H397.74C398.636 99.37 399.313 99.664 399.77 100.252C400.237 100.84 400.47 101.657 400.47 102.702V107H399.434V102.478C399.434 101.815 399.252 101.293 398.888 100.91C398.524 100.527 398.034 100.336 397.418 100.336C396.755 100.336 396.228 100.551 395.836 100.98C395.444 101.4 395.248 101.955 395.248 102.646V107H394.198ZM403.375 107V105.614H404.691V107H403.375Z" fill="#F5F5F5"/>
<path d="M104.014 52.0001V38.1301H105.876V52.0001H104.014ZM105.496 52.0001V50.3281H112.222V52.0001H105.496ZM105.496 45.7871V44.1151H111.633V45.7871H105.496ZM105.496 39.8021V38.1301H112.032V39.8021H105.496ZM117.079 47.1741V45.5401H120.176C120.834 45.5401 121.379 45.4135 121.81 45.1601C122.24 44.8941 122.563 44.5395 122.779 44.0961C123.007 43.6528 123.121 43.1588 123.121 42.6141C123.121 42.0568 123.007 41.5565 122.779 41.1131C122.563 40.6698 122.24 40.3215 121.81 40.0681C121.379 39.8148 120.834 39.6881 120.176 39.6881H117.079V38.0541H119.834C120.974 38.0541 121.924 38.2378 122.684 38.6051C123.456 38.9598 124.039 39.4665 124.432 40.1251C124.824 40.7838 125.021 41.5628 125.021 42.4621V42.7661C125.021 43.6528 124.824 44.4318 124.432 45.1031C124.039 45.7618 123.456 46.2748 122.684 46.6421C121.924 46.9968 120.974 47.1741 119.834 47.1741H117.079ZM115.597 52.0001V38.0541H117.459V52.0001H115.597ZM127.978 52.0001V38.1301H129.84V52.0001H127.978ZM140.128 52.3421C138.861 52.3421 137.778 52.1205 136.879 51.6771C135.992 51.2338 135.276 50.6575 134.732 49.9481C134.187 49.2388 133.788 48.4725 133.535 47.6491C133.281 46.8131 133.155 46.0088 133.155 45.2361V44.8181C133.155 43.9821 133.281 43.1461 133.535 42.3101C133.801 41.4741 134.206 40.7141 134.751 40.0301C135.295 39.3461 136.005 38.7951 136.879 38.3771C137.753 37.9591 138.798 37.7501 140.014 37.7501C141.255 37.7501 142.319 37.9655 143.206 38.3961C144.092 38.8268 144.795 39.4285 145.315 40.2011C145.834 40.9738 146.151 41.8858 146.265 42.9371H144.365C144.263 42.1518 144.01 41.5058 143.605 40.9991C143.199 40.4798 142.686 40.0935 142.066 39.8401C141.458 39.5868 140.774 39.4601 140.014 39.4601C139.19 39.4601 138.468 39.6058 137.848 39.8971C137.227 40.1758 136.708 40.5748 136.29 41.0941C135.884 41.6008 135.574 42.1898 135.359 42.8611C135.156 43.5325 135.055 44.2608 135.055 45.0461C135.055 45.7935 135.156 46.5028 135.359 47.1741C135.574 47.8455 135.891 48.4408 136.309 48.9601C136.739 49.4795 137.271 49.8911 137.905 50.1951C138.538 50.4865 139.279 50.6321 140.128 50.6321C141.318 50.6321 142.319 50.3345 143.13 49.7391C143.94 49.1438 144.434 48.2825 144.612 47.1551H146.512C146.385 48.1051 146.062 48.9728 145.543 49.7581C145.036 50.5435 144.327 51.1705 143.415 51.6391C142.515 52.1078 141.42 52.3421 140.128 52.3421ZM155.393 47.1741V45.5401H158.49C159.149 45.5401 159.694 45.4135 160.124 45.1601C160.555 44.8941 160.878 44.5395 161.093 44.0961C161.321 43.6528 161.435 43.1588 161.435 42.6141C161.435 42.0568 161.321 41.5565 161.093 41.1131C160.878 40.6698 160.555 40.3215 160.124 40.0681C159.694 39.8148 159.149 39.6881 158.49 39.6881H155.393V38.0541H158.148C159.288 38.0541 160.238 38.2378 160.998 38.6051C161.771 38.9598 162.354 39.4665 162.746 40.1251C163.139 40.7838 163.335 41.5628 163.335 42.4621V42.7661C163.335 43.6528 163.139 44.4318 162.746 45.1031C162.354 45.7618 161.771 46.2748 160.998 46.6421C160.238 46.9968 159.288 47.1741 158.148 47.1741H155.393ZM153.911 52.0001V38.0541H155.773V52.0001H153.911ZM166.255 52.0001V38.0541H168.117V52.0001H166.255ZM174.824 52.0001L170.226 45.8251H172.411L177.085 52.0001H174.824ZM167.414 46.9841V45.3311H171.138C171.72 45.3311 172.221 45.2108 172.639 44.9701C173.057 44.7295 173.38 44.4001 173.608 43.9821C173.836 43.5515 173.95 43.0638 173.95 42.5191C173.95 41.9745 173.836 41.4931 173.608 41.0751C173.38 40.6445 173.057 40.3088 172.639 40.0681C172.221 39.8148 171.72 39.6881 171.138 39.6881H167.414V38.0541H170.796C171.809 38.0541 172.696 38.2061 173.456 38.5101C174.216 38.8141 174.805 39.2828 175.223 39.9161C175.641 40.5495 175.85 41.3665 175.85 42.3671V42.6711C175.85 43.6718 175.634 44.4888 175.204 45.1221C174.786 45.7555 174.197 46.2241 173.437 46.5281C172.689 46.8321 171.809 46.9841 170.796 46.9841H167.414ZM179.786 52.0001V38.1301H181.648V52.0001H179.786ZM185.077 52.0001V49.7201L193.627 39.7071L193.608 40.1631L193.114 39.4791L193.437 39.6881H185.248V38.1301H195.204V40.4101L186.635 50.4231L186.616 49.8911L187.224 50.7461L186.749 50.4421H195.451V52.0001H185.077ZM198.535 52.0001V38.1301H200.397V52.0001H198.535ZM200.017 52.0001V50.3281H206.743V52.0001H200.017ZM200.017 45.7871V44.1151H206.154V45.7871H200.017ZM200.017 39.8021V38.1301H206.553V39.8021H200.017ZM214.472 52.3421C213.319 52.3421 212.337 52.1521 211.527 51.7721C210.716 51.3921 210.095 50.8665 209.665 50.1951C209.234 49.5238 209.019 48.7638 209.019 47.9151H210.881C210.881 48.3331 210.988 48.7511 211.204 49.1691C211.432 49.5871 211.805 49.9355 212.325 50.2141C212.857 50.4928 213.572 50.6321 214.472 50.6321C215.308 50.6321 215.992 50.5118 216.524 50.2711C217.056 50.0178 217.448 49.6948 217.702 49.3021C217.955 48.8968 218.082 48.4598 218.082 47.9911C218.082 47.4211 217.835 46.9525 217.341 46.5851C216.847 46.2051 216.125 45.9708 215.175 45.8821L213.636 45.7491C212.407 45.6478 211.425 45.2678 210.691 44.6091C209.956 43.9505 209.589 43.0828 209.589 42.0061C209.589 41.1575 209.791 40.4165 210.197 39.7831C210.615 39.1498 211.191 38.6558 211.926 38.3011C212.66 37.9338 213.515 37.7501 214.491 37.7501C215.453 37.7501 216.302 37.9275 217.037 38.2821C217.771 38.6368 218.341 39.1371 218.747 39.7831C219.165 40.4165 219.374 41.1765 219.374 42.0631H217.512C217.512 41.6198 217.404 41.2018 217.189 40.8091C216.986 40.4165 216.663 40.0935 216.22 39.8401C215.776 39.5868 215.2 39.4601 214.491 39.4601C213.807 39.4601 213.237 39.5805 212.781 39.8211C212.337 40.0618 212.002 40.3785 211.774 40.7711C211.558 41.1511 211.451 41.5628 211.451 42.0061C211.451 42.5128 211.647 42.9625 212.04 43.3551C212.432 43.7478 213.015 43.9758 213.788 44.0391L215.327 44.1721C216.277 44.2481 217.094 44.4508 217.778 44.7801C218.474 45.0968 219.006 45.5275 219.374 46.0721C219.754 46.6041 219.944 47.2438 219.944 47.9911C219.944 48.8398 219.716 49.5935 219.26 50.2521C218.804 50.9108 218.164 51.4238 217.341 51.7911C216.517 52.1585 215.561 52.3421 214.472 52.3421ZM227.772 52.0001V38.1301H229.634V52.0001H227.772ZM229.254 45.8251V44.1531L235.201 44.1341V45.8061L229.254 45.8251ZM229.254 39.8021V38.1301H235.524V39.8021H229.254ZM244.732 52.3421C243.491 52.3421 242.42 52.1205 241.521 51.6771C240.622 51.2338 239.881 50.6511 239.298 49.9291C238.715 49.2071 238.278 48.4345 237.987 47.6111C237.708 46.7878 237.569 45.9961 237.569 45.2361V44.8181C237.569 43.9948 237.715 43.1651 238.006 42.3291C238.297 41.4931 238.741 40.7331 239.336 40.0491C239.931 39.3525 240.672 38.7951 241.559 38.3771C242.458 37.9591 243.516 37.7501 244.732 37.7501C245.948 37.7501 246.999 37.9591 247.886 38.3771C248.785 38.7951 249.533 39.3525 250.128 40.0491C250.723 40.7331 251.167 41.4931 251.458 42.3291C251.749 43.1651 251.895 43.9948 251.895 44.8181V45.2361C251.895 45.9961 251.749 46.7878 251.458 47.6111C251.179 48.4345 250.749 49.2071 250.166 49.9291C249.583 50.6511 248.842 51.2338 247.943 51.6771C247.044 52.1205 245.973 52.3421 244.732 52.3421ZM244.732 50.6321C245.543 50.6321 246.271 50.4801 246.917 50.1761C247.576 49.8721 248.133 49.4605 248.589 48.9411C249.045 48.4091 249.393 47.8138 249.634 47.1551C249.875 46.4838 249.995 45.7808 249.995 45.0461C249.995 44.2735 249.875 43.5515 249.634 42.8801C249.393 42.2088 249.045 41.6198 248.589 41.1131C248.133 40.5938 247.576 40.1885 246.917 39.8971C246.271 39.6058 245.543 39.4601 244.732 39.4601C243.921 39.4601 243.187 39.6058 242.528 39.8971C241.882 40.1885 241.331 40.5938 240.875 41.1131C240.419 41.6198 240.071 42.2088 239.83 42.8801C239.589 43.5515 239.469 44.2735 239.469 45.0461C239.469 45.7808 239.589 46.4838 239.83 47.1551C240.071 47.8138 240.419 48.4091 240.875 48.9411C241.331 49.4605 241.882 49.8721 242.528 50.1761C243.187 50.4801 243.921 50.6321 244.732 50.6321ZM255.149 52.0001V38.0541H257.011V52.0001H255.149ZM263.718 52.0001L259.12 45.8251H261.305L265.979 52.0001H263.718ZM256.308 46.9841V45.3311H260.032C260.614 45.3311 261.115 45.2108 261.533 44.9701C261.951 44.7295 262.274 44.4001 262.502 43.9821C262.73 43.5515 262.844 43.0638 262.844 42.5191C262.844 41.9745 262.73 41.4931 262.502 41.0751C262.274 40.6445 261.951 40.3088 261.533 40.0681C261.115 39.8148 260.614 39.6881 260.032 39.6881H256.308V38.0541H259.69C260.703 38.0541 261.59 38.2061 262.35 38.5101C263.11 38.8141 263.699 39.2828 264.117 39.9161C264.535 40.5495 264.744 41.3665 264.744 42.3671V42.6711C264.744 43.6718 264.528 44.4888 264.098 45.1221C263.68 45.7555 263.091 46.2241 262.331 46.5281C261.583 46.8321 260.703 46.9841 259.69 46.9841H256.308ZM273.156 52.0001V38.1301H275.018V52.0001H273.156ZM274.638 45.8251V44.1531L280.585 44.1341V45.8061L274.638 45.8251ZM274.638 39.8021V38.1301H280.908V39.8021H274.638ZM289.468 52.3421C288.214 52.3421 287.157 52.1015 286.295 51.6201C285.447 51.1261 284.801 50.4421 284.357 49.5681C283.927 48.6815 283.711 47.6555 283.711 46.4901V38.1301H285.573V46.7181C285.573 47.4908 285.719 48.1748 286.01 48.7701C286.314 49.3528 286.758 49.8088 287.34 50.1381C287.923 50.4675 288.632 50.6321 289.468 50.6321C290.304 50.6321 291.007 50.4738 291.577 50.1571C292.16 49.8278 292.597 49.3718 292.888 48.7891C293.192 48.1938 293.344 47.5035 293.344 46.7181V38.1301H295.206V46.4901C295.206 47.6555 294.991 48.6815 294.56 49.5681C294.13 50.4421 293.49 51.1261 292.641 51.6201C291.793 52.1015 290.735 52.3421 289.468 52.3421ZM299.16 52.0001V38.1301H301.022V52.0001H299.16ZM300.642 52.0001V50.3281H306.988V52.0001H300.642ZM309.685 52.0001V38.1301H311.547V52.0001H309.685ZM311.167 52.0001V50.3281H317.513V52.0001H311.167ZM329.226 52.3421C328.073 52.3421 327.091 52.1521 326.281 51.7721C325.47 51.3921 324.849 50.8665 324.419 50.1951C323.988 49.5238 323.773 48.7638 323.773 47.9151H325.635C325.635 48.3331 325.742 48.7511 325.958 49.1691C326.186 49.5871 326.559 49.9355 327.079 50.2141C327.611 50.4928 328.326 50.6321 329.226 50.6321C330.062 50.6321 330.746 50.5118 331.278 50.2711C331.81 50.0178 332.202 49.6948 332.456 49.3021C332.709 48.8968 332.836 48.4598 332.836 47.9911C332.836 47.4211 332.589 46.9525 332.095 46.5851C331.601 46.2051 330.879 45.9708 329.929 45.8821L328.39 45.7491C327.161 45.6478 326.179 45.2678 325.445 44.6091C324.71 43.9505 324.343 43.0828 324.343 42.0061C324.343 41.1575 324.545 40.4165 324.951 39.7831C325.369 39.1498 325.945 38.6558 326.68 38.3011C327.414 37.9338 328.269 37.7501 329.245 37.7501C330.207 37.7501 331.056 37.9275 331.791 38.2821C332.525 38.6368 333.095 39.1371 333.501 39.7831C333.919 40.4165 334.128 41.1765 334.128 42.0631H332.266C332.266 41.6198 332.158 41.2018 331.943 40.8091C331.74 40.4165 331.417 40.0935 330.974 39.8401C330.53 39.5868 329.954 39.4601 329.245 39.4601C328.561 39.4601 327.991 39.5805 327.535 39.8211C327.091 40.0618 326.756 40.3785 326.528 40.7711C326.312 41.1511 326.205 41.5628 326.205 42.0061C326.205 42.5128 326.401 42.9625 326.794 43.3551C327.186 43.7478 327.769 43.9758 328.542 44.0391L330.081 44.1721C331.031 44.2481 331.848 44.4508 332.532 44.7801C333.228 45.0968 333.76 45.5275 334.128 46.0721C334.508 46.6041 334.698 47.2438 334.698 47.9911C334.698 48.8398 334.47 49.5935 334.014 50.2521C333.558 50.9108 332.918 51.4238 332.095 51.7911C331.271 52.1585 330.315 52.3421 329.226 52.3421ZM338.012 52.0001V38.1301H339.874V52.0001H338.012ZM339.494 52.0001V50.3281H346.22V52.0001H339.494ZM339.494 45.7871V44.1151H345.631V45.7871H339.494ZM339.494 39.8021V38.1301H346.03V39.8021H339.494ZM352.293 52.0001V39.4221H354.155V52.0001H352.293ZM348.075 39.8021V38.1301H358.373V39.8021H348.075ZM374.965 52.0001V38.1301H376.827V52.0001H374.965ZM365.579 52.0001V38.1301H367.441V52.0001H365.579ZM367.061 45.9391V44.2671H375.345V45.9391H367.061ZM387.253 52.3421C386.012 52.3421 384.941 52.1205 384.042 51.6771C383.143 51.2338 382.402 50.6511 381.819 49.9291C381.236 49.2071 380.799 48.4345 380.508 47.6111C380.229 46.7878 380.09 45.9961 380.09 45.2361V44.8181C380.09 43.9948 380.236 43.1651 380.527 42.3291C380.818 41.4931 381.262 40.7331 381.857 40.0491C382.452 39.3525 383.193 38.7951 384.08 38.3771C384.979 37.9591 386.037 37.7501 387.253 37.7501C388.469 37.7501 389.52 37.9591 390.407 38.3771C391.306 38.7951 392.054 39.3525 392.649 40.0491C393.244 40.7331 393.688 41.4931 393.979 42.3291C394.27 43.1651 394.416 43.9948 394.416 44.8181V45.2361C394.416 45.9961 394.27 46.7878 393.979 47.6111C393.7 48.4345 393.27 49.2071 392.687 49.9291C392.104 50.6511 391.363 51.2338 390.464 51.6771C389.565 52.1205 388.494 52.3421 387.253 52.3421ZM387.253 50.6321C388.064 50.6321 388.792 50.4801 389.438 50.1761C390.097 49.8721 390.654 49.4605 391.11 48.9411C391.566 48.4091 391.914 47.8138 392.155 47.1551C392.396 46.4838 392.516 45.7808 392.516 45.0461C392.516 44.2735 392.396 43.5515 392.155 42.8801C391.914 42.2088 391.566 41.6198 391.11 41.1131C390.654 40.5938 390.097 40.1885 389.438 39.8971C388.792 39.6058 388.064 39.4601 387.253 39.4601C386.442 39.4601 385.708 39.6058 385.049 39.8971C384.403 40.1885 383.852 40.5938 383.396 41.1131C382.94 41.6198 382.592 42.2088 382.351 42.8801C382.11 43.5515 381.99 44.2735 381.99 45.0461C381.99 45.7808 382.11 46.4838 382.351 47.1551C382.592 47.8138 382.94 48.4091 383.396 48.9411C383.852 49.4605 384.403 49.8721 385.049 50.1761C385.708 50.4801 386.442 50.6321 387.253 50.6321ZM397.669 52.0001V38.1301H399.531V52.0001H397.669ZM399.151 52.0001V50.3281H405.497V52.0001H399.151ZM409.676 52.0761V50.3661H413.134C413.97 50.3661 414.711 50.2331 415.357 49.9671C416.016 49.6885 416.573 49.3085 417.029 48.8271C417.498 48.3458 417.853 47.7821 418.093 47.1361C418.334 46.4901 418.454 45.7935 418.454 45.0461C418.454 44.2608 418.334 43.5515 418.093 42.9181C417.853 42.2721 417.498 41.7148 417.029 41.2461C416.573 40.7648 416.016 40.3975 415.357 40.1441C414.711 39.8908 413.97 39.7641 413.134 39.7641H409.676V38.0541H412.944C414.198 38.0541 415.288 38.2505 416.212 38.6431C417.137 39.0231 417.903 39.5425 418.511 40.2011C419.132 40.8471 419.594 41.5755 419.898 42.3861C420.202 43.1841 420.354 44.0011 420.354 44.8371V45.2551C420.354 46.0658 420.202 46.8765 419.898 47.6871C419.594 48.4978 419.132 49.2325 418.511 49.8911C417.903 50.5498 417.137 51.0818 416.212 51.4871C415.288 51.8798 414.198 52.0761 412.944 52.0761H409.676ZM408.194 52.0761V38.0541H410.056V52.0761H408.194ZM423.414 52.0001V38.1301H425.276V52.0001H423.414ZM424.896 52.0001V50.3281H431.622V52.0001H424.896ZM424.896 45.7871V44.1151H431.033V45.7871H424.896ZM424.896 39.8021V38.1301H431.432V39.8021H424.896ZM434.996 52.0001V38.0541H436.858V52.0001H434.996ZM443.565 52.0001L438.967 45.8251H441.152L445.826 52.0001H443.565ZM436.155 46.9841V45.3311H439.879C440.462 45.3311 440.962 45.2108 441.38 44.9701C441.798 44.7295 442.121 44.4001 442.349 43.9821C442.577 43.5515 442.691 43.0638 442.691 42.5191C442.691 41.9745 442.577 41.4931 442.349 41.0751C442.121 40.6445 441.798 40.3088 441.38 40.0681C440.962 39.8148 440.462 39.6881 439.879 39.6881H436.155V38.0541H439.537C440.551 38.0541 441.437 38.2061 442.197 38.5101C442.957 38.8141 443.546 39.2828 443.964 39.9161C444.382 40.5495 444.591 41.3665 444.591 42.3671V42.6711C444.591 43.6718 444.376 44.4888 443.945 45.1221C443.527 45.7555 442.938 46.2241 442.178 46.5281C441.431 46.8321 440.551 46.9841 439.537 46.9841H436.155ZM452.845 52.3421C451.692 52.3421 450.71 52.1521 449.9 51.7721C449.089 51.3921 448.468 50.8665 448.038 50.1951C447.607 49.5238 447.392 48.7638 447.392 47.9151H449.254C449.254 48.3331 449.361 48.7511 449.577 49.1691C449.805 49.5871 450.178 49.9355 450.698 50.2141C451.23 50.4928 451.945 50.6321 452.845 50.6321C453.681 50.6321 454.365 50.5118 454.897 50.2711C455.429 50.0178 455.821 49.6948 456.075 49.3021C456.328 48.8968 456.455 48.4598 456.455 47.9911C456.455 47.4211 456.208 46.9525 455.714 46.5851C455.22 46.2051 454.498 45.9708 453.548 45.8821L452.009 45.7491C450.78 45.6478 449.798 45.2678 449.064 44.6091C448.329 43.9505 447.962 43.0828 447.962 42.0061C447.962 41.1575 448.164 40.4165 448.57 39.7831C448.988 39.1498 449.564 38.6558 450.299 38.3011C451.033 37.9338 451.888 37.7501 452.864 37.7501C453.826 37.7501 454.675 37.9275 455.41 38.2821C456.144 38.6368 456.714 39.1371 457.12 39.7831C457.538 40.4165 457.747 41.1765 457.747 42.0631H455.885C455.885 41.6198 455.777 41.2018 455.562 40.8091C455.359 40.4165 455.036 40.0935 454.593 39.8401C454.149 39.5868 453.573 39.4601 452.864 39.4601C452.18 39.4601 451.61 39.5805 451.154 39.8211C450.71 40.0618 450.375 40.3785 450.147 40.7711C449.931 41.1511 449.824 41.5628 449.824 42.0061C449.824 42.5128 450.02 42.9625 450.413 43.3551C450.805 43.7478 451.388 43.9758 452.161 44.0391L453.7 44.1721C454.65 44.2481 455.467 44.4508 456.151 44.7801C456.847 45.0968 457.379 45.5275 457.747 46.0721C458.127 46.6041 458.317 47.2438 458.317 47.9911C458.317 48.8398 458.089 49.5935 457.633 50.2521C457.177 50.9108 456.537 51.4238 455.714 51.7911C454.89 52.1585 453.934 52.3421 452.845 52.3421Z" fill="#FF9FA9"/>
</svg>
