<svg width="1260" height="479" viewBox="0 0 1260 479" fill="none" xmlns="http://www.w3.org/2000/svg">
<rect x="41.4999" y="79.2278" width="1218" height="307.272" rx="59.5" stroke="#631C4B"/>
<rect x="34.4999" y="72.1569" width="1213.44" height="304.574" rx="59.5" stroke="#8B2468"/>
<rect x="1213.5" y="350.5" width="1213" height="307" rx="59.5" transform="rotate(180 1213.5 350.5)" stroke="#832B2B"/>
<rect x="1223.95" y="357.843" width="1212.86" height="304.574" rx="59.5" transform="rotate(180 1223.95 357.843)" stroke="#AF4047"/>
<rect x="1235.5" y="367.287" width="1212.86" height="304.574" rx="57.5" transform="rotate(180 1235.5 367.287)" fill="#262020" stroke="url(#paint0_linear_3028_167494)"/>
<g opacity="0.39">
<path d="M1078.81 42.5C1078.81 39.1759 1078.16 35.8844 1076.89 32.8133C1075.61 29.7423 1073.75 26.9518 1071.4 24.6014C1069.05 22.2509 1066.26 20.3864 1063.19 19.1143C1060.12 17.8422 1056.82 17.1875 1053.5 17.1875C1050.18 17.1875 1046.88 17.8422 1043.81 19.1143C1040.74 20.3864 1037.95 22.2509 1035.6 24.6014C1033.25 26.9518 1031.39 29.7423 1030.11 32.8133C1028.84 35.8844 1028.19 39.1759 1028.19 42.5H1032.76C1032.76 39.7762 1033.3 37.0792 1034.34 34.5627C1035.38 32.0463 1036.91 29.7598 1038.83 27.8339C1040.76 25.9079 1043.05 24.3801 1045.56 23.3378C1048.08 22.2954 1050.78 21.7589 1053.5 21.7589C1056.22 21.7589 1058.92 22.2954 1061.44 23.3378C1063.95 24.3801 1066.24 25.9079 1068.17 27.8339C1070.09 29.7598 1071.62 32.0463 1072.66 34.5627C1073.7 37.0792 1074.24 39.7762 1074.24 42.5H1078.81Z" fill="#832B2B"/>
<path d="M1086.69 42.5C1086.69 38.1418 1085.83 33.8262 1084.16 29.7997C1082.49 25.7732 1080.05 22.1146 1076.97 19.0329C1073.89 15.9511 1070.23 13.5066 1066.2 11.8387C1062.17 10.1709 1057.86 9.31249 1053.5 9.31249C1049.14 9.31249 1044.83 10.1709 1040.8 11.8387C1036.77 13.5066 1033.11 15.9511 1030.03 19.0329C1026.95 22.1146 1024.51 25.7732 1022.84 29.7997C1021.17 33.8262 1020.31 38.1418 1020.31 42.5H1024.43C1024.43 38.6826 1025.18 34.9026 1026.64 31.3758C1028.1 27.849 1030.25 24.6445 1032.95 21.9452C1035.64 19.2459 1038.85 17.1047 1042.38 15.6438C1045.9 14.183 1049.68 13.4311 1053.5 13.4311C1057.32 13.4311 1061.1 14.183 1064.62 15.6438C1068.15 17.1047 1071.36 19.2459 1074.05 21.9452C1076.75 24.6445 1078.9 27.849 1080.36 31.3758C1081.82 34.9026 1082.57 38.6826 1082.57 42.5H1086.69Z" fill="#AF4047"/>
<path d="M1094 42.5C1094 37.1815 1092.95 31.915 1090.92 27.0013C1088.88 22.0876 1085.9 17.6229 1082.14 13.8622C1078.38 10.1014 1073.91 7.11819 1069 5.08288C1064.08 3.04756 1058.82 2 1053.5 2C1048.18 2 1042.92 3.04756 1038 5.08288C1033.09 7.11819 1028.62 10.1014 1024.86 13.8622C1021.1 17.6229 1018.12 22.0876 1016.08 27.0013C1014.05 31.915 1013 37.1815 1013 42.5H1016.73C1016.73 37.6708 1017.68 32.8888 1019.53 28.4272C1021.37 23.9656 1024.08 19.9116 1027.5 16.4969C1030.91 13.0821 1034.97 10.3733 1039.43 8.52525C1043.89 6.67719 1048.67 5.72601 1053.5 5.72601C1058.33 5.726 1063.11 6.67719 1067.57 8.52525C1072.03 10.3733 1076.09 13.0821 1079.5 16.4969C1082.92 19.9116 1085.63 23.9656 1087.47 28.4272C1089.32 32.8888 1090.27 37.6708 1090.27 42.5H1094Z" fill="#C55662"/>
</g>
<g opacity="0.48">
<path d="M1129.44 53.5C1129.44 57.5628 1128.64 61.5858 1127.08 65.3393C1125.53 69.0928 1123.25 72.5033 1120.38 75.3761C1117.5 78.2489 1114.09 80.5278 1110.34 82.0825C1106.59 83.6373 1102.56 84.4375 1098.5 84.4375C1094.44 84.4375 1090.41 83.6373 1086.66 82.0825C1082.91 80.5278 1079.5 78.2489 1076.62 75.3761C1073.75 72.5033 1071.47 69.0928 1069.92 65.3393C1068.36 61.5858 1067.56 57.5628 1067.56 53.5H1073.15C1073.15 56.829 1073.81 60.1255 1075.08 63.2011C1076.35 66.2767 1078.22 69.0713 1080.57 71.4253C1082.93 73.7793 1085.72 75.6466 1088.8 76.9205C1091.87 78.1945 1095.17 78.8502 1098.5 78.8502C1101.83 78.8502 1105.13 78.1945 1108.2 76.9205C1111.28 75.6466 1114.07 73.7793 1116.43 71.4253C1118.78 69.0713 1120.65 66.2767 1121.92 63.2011C1123.19 60.1255 1123.85 56.829 1123.85 53.5H1129.44Z" fill="#812572"/>
<path d="M1139.06 53.5C1139.06 58.8267 1138.01 64.1013 1135.97 69.0226C1133.94 73.9439 1130.95 78.4155 1127.18 82.182C1123.42 85.9486 1118.94 88.9364 1114.02 90.9749C1109.1 93.0133 1103.83 94.0625 1098.5 94.0625C1093.17 94.0625 1087.9 93.0133 1082.98 90.9749C1078.06 88.9364 1073.58 85.9486 1069.82 82.182C1066.05 78.4154 1063.06 73.9439 1061.03 69.0226C1058.99 64.1013 1057.94 58.8267 1057.94 53.5H1062.97C1062.97 58.1657 1063.89 62.7857 1065.68 67.0962C1067.46 71.4068 1070.08 75.3234 1073.38 78.6226C1076.68 81.9217 1080.59 84.5387 1084.9 86.3242C1089.21 88.1097 1093.83 89.0287 1098.5 89.0287C1103.17 89.0287 1107.79 88.1097 1112.1 86.3242C1116.41 84.5388 1120.32 81.9217 1123.62 78.6226C1126.92 75.3234 1129.54 71.4068 1131.32 67.0962C1133.11 62.7857 1134.03 58.1657 1134.03 53.5H1139.06Z" fill="#A22787"/>
<path d="M1148 53.5C1148 60.0004 1146.72 66.4372 1144.23 72.4428C1141.74 78.4484 1138.1 83.9053 1133.5 88.5018C1128.91 93.0983 1123.45 96.7444 1117.44 99.232C1111.44 101.72 1105 103 1098.5 103C1092 103 1085.56 101.72 1079.56 99.232C1073.55 96.7444 1068.09 93.0983 1063.5 88.5018C1058.9 83.9053 1055.26 78.4484 1052.77 72.4428C1050.28 66.4372 1049 60.0004 1049 53.5H1053.55C1053.55 59.4024 1054.72 65.247 1056.98 70.7001C1059.23 76.1532 1062.54 81.108 1066.72 85.2816C1070.89 89.4552 1075.85 92.7659 1081.3 95.0247C1086.75 97.2834 1092.6 98.446 1098.5 98.446C1104.4 98.446 1110.25 97.2834 1115.7 95.0247C1121.15 92.7659 1126.11 89.4552 1130.28 85.2816C1134.46 81.108 1137.77 76.1532 1140.02 70.7001C1142.28 65.247 1143.45 59.4024 1143.45 53.5H1148Z" fill="#B83182"/>
</g>
<rect x="1138.5" y="423.5" width="577" height="132" rx="44.5" transform="rotate(180 1138.5 423.5)" fill="#272121" stroke="#88292F"/>
<rect x="1131.5" y="416.5" width="581" height="132" rx="40.5" transform="rotate(180 1131.5 416.5)" fill="#272121" stroke="#B83182"/>
<path d="M390.541 366.396C390.541 359.073 389.099 351.822 386.296 345.056C383.494 338.29 379.386 332.143 374.208 326.965C369.03 321.786 362.882 317.679 356.117 314.876C349.351 312.074 342.1 310.631 334.776 310.631C327.453 310.631 320.202 312.074 313.436 314.876C306.67 317.679 300.523 321.786 295.345 326.965C290.167 332.143 286.059 338.29 283.256 345.056C280.454 351.822 279.012 359.073 279.012 366.396H289.083C289.083 360.396 290.265 354.454 292.561 348.91C294.857 343.366 298.223 338.329 302.466 334.086C306.709 329.843 311.746 326.477 317.29 324.181C322.834 321.884 328.776 320.703 334.776 320.703C340.777 320.703 346.719 321.884 352.263 324.181C357.806 326.477 362.844 329.843 367.087 334.086C371.33 338.329 374.695 343.366 376.992 348.91C379.288 354.454 380.47 360.396 380.47 366.396H390.541Z" fill="#812572"/>
<path d="M407.89 366.396C407.89 356.795 405.999 347.287 402.325 338.417C398.65 329.546 393.265 321.486 386.476 314.697C379.686 307.908 371.626 302.522 362.756 298.848C353.885 295.174 344.378 293.282 334.776 293.282C325.175 293.282 315.668 295.174 306.797 298.848C297.926 302.522 289.866 307.908 283.077 314.697C276.288 321.486 270.902 329.546 267.228 338.417C263.554 347.287 261.663 356.795 261.663 366.396H270.736C270.736 357.986 272.393 349.659 275.611 341.889C278.829 334.119 283.546 327.06 289.493 321.113C295.44 315.166 302.5 310.449 310.269 307.231C318.039 304.012 326.367 302.356 334.776 302.356C343.186 302.356 351.514 304.012 359.284 307.231C367.053 310.449 374.113 315.166 380.06 321.113C386.006 327.06 390.724 334.119 393.942 341.889C397.16 349.659 398.817 357.986 398.817 366.396H407.89Z" fill="#A22787"/>
<path d="M424 366.396C424 354.679 421.692 343.077 417.208 332.252C412.724 321.427 406.152 311.591 397.867 303.306C389.582 295.02 379.746 288.448 368.921 283.964C358.096 279.48 346.493 277.173 334.776 277.173C323.059 277.173 311.457 279.48 300.632 283.964C289.807 288.448 279.971 295.02 271.686 303.306C263.401 311.591 256.828 321.427 252.344 332.252C247.861 343.077 245.553 354.679 245.553 366.396H253.761C253.761 355.757 255.857 345.222 259.928 335.393C264 325.564 269.967 316.633 277.49 309.11C285.013 301.587 293.944 295.619 303.773 291.548C313.602 287.477 324.137 285.381 334.776 285.381C345.415 285.381 355.95 287.477 365.779 291.548C375.609 295.619 384.54 301.587 392.063 309.11C399.586 316.633 405.553 325.564 409.624 335.393C413.696 345.222 415.791 355.757 415.791 366.396H424Z" fill="#B83182"/>
<path d="M252.988 386.619C252.988 393.942 251.546 401.193 248.743 407.959C245.941 414.725 241.833 420.872 236.655 426.05C231.477 431.229 225.329 435.336 218.564 438.139C211.798 440.941 204.547 442.384 197.224 442.384C189.9 442.384 182.649 440.941 175.883 438.139C169.118 435.336 162.97 431.229 157.792 426.05C152.614 420.872 148.506 414.725 145.704 407.959C142.901 401.193 141.459 393.942 141.459 386.619H151.53C151.53 392.619 152.712 398.561 155.008 404.105C157.304 409.649 160.67 414.686 164.913 418.929C169.156 423.172 174.194 426.538 179.737 428.834C185.281 431.131 191.223 432.312 197.224 432.312C203.224 432.312 209.166 431.131 214.71 428.834C220.254 426.538 225.291 423.172 229.534 418.929C233.777 414.686 237.143 409.649 239.439 404.105C241.735 398.561 242.917 392.619 242.917 386.619H252.988Z" fill="#CE5262"/>
<path d="M270.337 386.619C270.337 396.22 268.446 405.728 264.772 414.598C261.098 423.469 255.712 431.529 248.923 438.318C242.134 445.107 234.074 450.493 225.203 454.167C216.332 457.842 206.825 459.733 197.224 459.733C187.622 459.733 178.115 457.842 169.244 454.167C160.374 450.493 152.314 445.107 145.524 438.318C138.735 431.529 133.35 423.469 129.675 414.598C126.001 405.728 124.11 396.22 124.11 386.619H133.183C133.183 395.029 134.84 403.356 138.058 411.126C141.276 418.896 145.994 425.956 151.94 431.902C157.887 437.849 164.947 442.566 172.716 445.784C180.486 449.003 188.814 450.659 197.224 450.659C205.633 450.659 213.961 449.003 221.731 445.784C229.5 442.566 236.56 437.849 242.507 431.902C248.454 425.956 253.171 418.896 256.389 411.126C259.607 403.356 261.264 395.029 261.264 386.619H270.337Z" fill="#AF4047"/>
<path d="M286.447 386.619C286.447 398.336 284.139 409.938 279.655 420.763C275.172 431.588 268.599 441.424 260.314 449.709C252.029 457.995 242.193 464.567 231.368 469.051C220.543 473.535 208.941 475.842 197.224 475.842C185.507 475.842 173.904 473.535 163.079 469.051C152.254 464.567 142.418 457.995 134.133 449.709C125.848 441.424 119.276 431.588 114.792 420.763C110.308 409.938 108 398.336 108 386.619H116.209C116.209 397.258 118.304 407.793 122.375 417.622C126.447 427.451 132.414 436.382 139.937 443.905C147.46 451.428 156.391 457.396 166.22 461.467C176.05 465.538 186.585 467.634 197.224 467.634C207.863 467.634 218.397 465.538 228.227 461.467C238.056 457.396 246.987 451.428 254.51 443.905C262.033 436.382 268 427.451 272.072 417.622C276.143 407.793 278.239 397.258 278.239 386.619H286.447Z" fill="#832B2B"/>
<path d="M152 107C152 104.239 149.761 102 147 102C144.239 102 142 104.239 142 107L152 107ZM152 366L152 107L142 107L142 366L152 366Z" fill="#CE5262"/>
<path d="M134 5C134 2.23859 131.761 -1.20706e-07 129 0C126.239 1.20706e-07 124 2.23859 124 5L134 5ZM134 366L134 5L124 5L124 366L134 366Z" fill="#AF4047"/>
<path d="M117 145C117 142.239 114.761 140 112 140C109.239 140 107 142.239 107 145L117 145ZM117 366L117 145L107 145L107 366L117 366Z" fill="#832B2B"/>
<g clip-path="url(#clip0_3028_167494)">
<mask id="mask0_3028_167494" style="mask-type:luminance" maskUnits="userSpaceOnUse" x="1033" y="385" width="61" height="63">
<path d="M1094 385H1033V448H1094V385Z" fill="white"/>
</mask>
<g mask="url(#mask0_3028_167494)">
<path d="M1063.5 448C1062.62 418.158 1061.9 417.417 1033 416.5C1061.9 415.588 1062.61 414.842 1063.5 385C1064.38 414.842 1065.1 415.583 1094 416.5C1065.1 417.417 1064.39 418.148 1063.5 448Z" fill="#F251BC"/>
</g>
</g>
<g clip-path="url(#clip1_3028_167494)">
<mask id="mask1_3028_167494" style="mask-type:luminance" maskUnits="userSpaceOnUse" x="1069" y="431" width="46" height="48">
<path d="M1115 431H1069V479H1115V431Z" fill="white"/>
</mask>
<g mask="url(#mask1_3028_167494)">
<path d="M1092 479C1091.33 456.263 1090.79 455.698 1069 455C1090.79 454.305 1091.33 453.737 1092 431C1092.67 453.737 1093.21 454.302 1115 455C1093.21 455.698 1092.67 456.256 1092 479Z" fill="#BF3948"/>
</g>
</g>
<path d="M611.464 333V321.084H613.228V333H611.464ZM607.468 321.444V319.86H617.224V321.444H607.468ZM620.344 333V319.86H622.072V327.708H621.64C621.64 326.76 621.76 325.944 622 325.26C622.252 324.564 622.636 324.03 623.152 323.658C623.668 323.286 624.328 323.1 625.132 323.1H625.204C626.356 323.1 627.226 323.484 627.814 324.252C628.402 325.008 628.696 326.094 628.696 327.51V333H626.968V327.15C626.968 326.37 626.746 325.764 626.302 325.332C625.87 324.9 625.306 324.684 624.61 324.684C623.842 324.684 623.224 324.942 622.756 325.458C622.3 325.962 622.072 326.628 622.072 327.456V333H620.344ZM638.671 333V330.12H638.383V326.79C638.383 326.13 638.209 325.632 637.861 325.296C637.525 324.96 637.027 324.792 636.367 324.792C635.995 324.792 635.611 324.798 635.215 324.81C634.819 324.822 634.441 324.834 634.081 324.846C633.721 324.858 633.409 324.876 633.145 324.9V323.388C633.409 323.364 633.685 323.346 633.973 323.334C634.273 323.31 634.579 323.298 634.891 323.298C635.203 323.286 635.503 323.28 635.791 323.28C636.775 323.28 637.579 323.4 638.203 323.64C638.827 323.868 639.289 324.246 639.589 324.774C639.889 325.302 640.039 326.016 640.039 326.916V333H638.671ZM635.521 333.252C634.801 333.252 634.177 333.132 633.649 332.892C633.133 332.64 632.731 332.28 632.443 331.812C632.167 331.344 632.029 330.78 632.029 330.12C632.029 329.436 632.179 328.866 632.479 328.41C632.791 327.954 633.241 327.612 633.829 327.384C634.417 327.144 635.125 327.024 635.953 327.024H638.563V328.32H635.881C635.185 328.32 634.651 328.488 634.279 328.824C633.907 329.16 633.721 329.592 633.721 330.12C633.721 330.648 633.907 331.074 634.279 331.398C634.651 331.722 635.185 331.884 635.881 331.884C636.289 331.884 636.679 331.812 637.051 331.668C637.423 331.512 637.729 331.26 637.969 330.912C638.221 330.552 638.359 330.06 638.383 329.436L638.851 330.12C638.791 330.804 638.623 331.38 638.347 331.848C638.083 332.304 637.711 332.652 637.231 332.892C636.763 333.132 636.193 333.252 635.521 333.252ZM647.955 333.108C647.235 333.108 646.611 333.006 646.083 332.802C645.567 332.598 645.165 332.25 644.877 331.758C644.601 331.254 644.463 330.576 644.463 329.724V320.472H646.119V329.94C646.119 330.456 646.257 330.858 646.533 331.146C646.821 331.422 647.223 331.56 647.739 331.56H649.431V333.108H647.955ZM642.807 324.684V323.388H649.431V324.684H642.807ZM652.083 325.332V324.396H652.245C652.629 324.396 652.935 324.33 653.163 324.198C653.391 324.066 653.553 323.862 653.649 323.586C653.757 323.298 653.811 322.938 653.811 322.506V321.156L654.243 321.966C654.159 322.014 654.045 322.05 653.901 322.074C653.769 322.098 653.637 322.11 653.505 322.11C653.169 322.11 652.887 322.008 652.659 321.804C652.443 321.588 652.335 321.294 652.335 320.922C652.335 320.574 652.437 320.286 652.641 320.058C652.857 319.83 653.145 319.716 653.505 319.716C653.733 319.716 653.949 319.77 654.153 319.878C654.357 319.986 654.525 320.178 654.657 320.454C654.789 320.73 654.855 321.126 654.855 321.642V322.02C654.855 322.896 654.747 323.574 654.531 324.054C654.315 324.534 654.009 324.87 653.613 325.062C653.217 325.242 652.749 325.332 652.209 325.332H652.083ZM660.734 333.288C659.474 333.288 658.496 333.018 657.8 332.478C657.116 331.938 656.762 331.2 656.738 330.264H658.358C658.382 330.636 658.568 330.99 658.916 331.326C659.276 331.65 659.882 331.812 660.734 331.812C661.502 331.812 662.09 331.662 662.498 331.362C662.906 331.05 663.11 330.672 663.11 330.228C663.11 329.832 662.96 329.526 662.66 329.31C662.36 329.082 661.874 328.932 661.202 328.86L660.158 328.752C659.246 328.656 658.502 328.386 657.926 327.942C657.35 327.486 657.062 326.85 657.062 326.034C657.062 325.422 657.218 324.9 657.53 324.468C657.842 324.024 658.274 323.688 658.826 323.46C659.378 323.22 660.014 323.1 660.734 323.1C661.814 323.1 662.69 323.34 663.362 323.82C664.034 324.3 664.382 325.014 664.406 325.962H662.786C662.774 325.578 662.594 325.254 662.246 324.99C661.91 324.714 661.406 324.576 660.734 324.576C660.062 324.576 659.552 324.714 659.204 324.99C658.856 325.266 658.682 325.614 658.682 326.034C658.682 326.394 658.802 326.682 659.042 326.898C659.294 327.114 659.702 327.252 660.266 327.312L661.31 327.42C662.342 327.528 663.17 327.816 663.794 328.284C664.418 328.74 664.73 329.388 664.73 330.228C664.73 330.828 664.556 331.362 664.208 331.83C663.872 332.286 663.404 332.646 662.804 332.91C662.204 333.162 661.514 333.288 660.734 333.288ZM679.144 333V330.12H678.856V326.79C678.856 326.13 678.682 325.632 678.334 325.296C677.998 324.96 677.5 324.792 676.84 324.792C676.468 324.792 676.084 324.798 675.688 324.81C675.292 324.822 674.914 324.834 674.554 324.846C674.194 324.858 673.882 324.876 673.618 324.9V323.388C673.882 323.364 674.158 323.346 674.446 323.334C674.746 323.31 675.052 323.298 675.364 323.298C675.676 323.286 675.976 323.28 676.264 323.28C677.248 323.28 678.052 323.4 678.676 323.64C679.3 323.868 679.762 324.246 680.062 324.774C680.362 325.302 680.512 326.016 680.512 326.916V333H679.144ZM675.994 333.252C675.274 333.252 674.65 333.132 674.122 332.892C673.606 332.64 673.204 332.28 672.916 331.812C672.64 331.344 672.502 330.78 672.502 330.12C672.502 329.436 672.652 328.866 672.952 328.41C673.264 327.954 673.714 327.612 674.302 327.384C674.89 327.144 675.598 327.024 676.426 327.024H679.036V328.32H676.354C675.658 328.32 675.124 328.488 674.752 328.824C674.38 329.16 674.194 329.592 674.194 330.12C674.194 330.648 674.38 331.074 674.752 331.398C675.124 331.722 675.658 331.884 676.354 331.884C676.762 331.884 677.152 331.812 677.524 331.668C677.896 331.512 678.202 331.26 678.442 330.912C678.694 330.552 678.832 330.06 678.856 329.436L679.324 330.12C679.264 330.804 679.096 331.38 678.82 331.848C678.556 332.304 678.184 332.652 677.704 332.892C677.236 333.132 676.666 333.252 675.994 333.252ZM692.587 333L694.531 323.712H696.871L699.139 333H697.663L695.395 323.748H695.971L694.009 333H692.587ZM691.705 333V331.632H693.703V333H691.705ZM691.309 333L688.591 323.388H690.247L692.893 333H691.309ZM698.023 333V331.632H700.021V333H698.023ZM698.833 333L701.137 323.388H702.703L700.345 333H698.833ZM706.037 333V323.388H707.405V327.348H707.333C707.333 325.944 707.639 324.918 708.251 324.27C708.875 323.61 709.805 323.28 711.041 323.28H711.365V324.828H710.753C709.793 324.828 709.055 325.086 708.539 325.602C708.023 326.106 707.765 326.838 707.765 327.798V333H706.037ZM720.199 333V330.12H719.911V326.79C719.911 326.13 719.737 325.632 719.389 325.296C719.053 324.96 718.555 324.792 717.895 324.792C717.523 324.792 717.139 324.798 716.743 324.81C716.347 324.822 715.969 324.834 715.609 324.846C715.249 324.858 714.937 324.876 714.673 324.9V323.388C714.937 323.364 715.213 323.346 715.501 323.334C715.801 323.31 716.107 323.298 716.419 323.298C716.731 323.286 717.031 323.28 717.319 323.28C718.303 323.28 719.107 323.4 719.731 323.64C720.355 323.868 720.817 324.246 721.117 324.774C721.417 325.302 721.567 326.016 721.567 326.916V333H720.199ZM717.049 333.252C716.329 333.252 715.705 333.132 715.177 332.892C714.661 332.64 714.259 332.28 713.971 331.812C713.695 331.344 713.557 330.78 713.557 330.12C713.557 329.436 713.707 328.866 714.007 328.41C714.319 327.954 714.769 327.612 715.357 327.384C715.945 327.144 716.653 327.024 717.481 327.024H720.091V328.32H717.409C716.713 328.32 716.179 328.488 715.807 328.824C715.435 329.16 715.249 329.592 715.249 330.12C715.249 330.648 715.435 331.074 715.807 331.398C716.179 331.722 716.713 331.884 717.409 331.884C717.817 331.884 718.207 331.812 718.579 331.668C718.951 331.512 719.257 331.26 719.497 330.912C719.749 330.552 719.887 330.06 719.911 329.436L720.379 330.12C720.319 330.804 720.151 331.38 719.875 331.848C719.611 332.304 719.239 332.652 718.759 332.892C718.291 333.132 717.721 333.252 717.049 333.252ZM725.738 336.6V323.388H727.106V327.546L726.782 327.51C726.842 326.478 727.058 325.638 727.43 324.99C727.814 324.33 728.312 323.844 728.924 323.532C729.536 323.22 730.202 323.064 730.922 323.064C731.618 323.064 732.248 323.196 732.812 323.46C733.388 323.724 733.88 324.084 734.288 324.54C734.696 324.996 735.008 325.524 735.224 326.124C735.44 326.724 735.548 327.36 735.548 328.032V328.356C735.548 329.028 735.434 329.664 735.206 330.264C734.978 330.864 734.654 331.392 734.234 331.848C733.826 332.304 733.334 332.664 732.758 332.928C732.194 333.192 731.57 333.324 730.886 333.324C730.202 333.324 729.548 333.174 728.924 332.874C728.3 332.574 727.784 332.088 727.376 331.416C726.968 330.744 726.734 329.862 726.674 328.77L727.466 330.21V336.6H725.738ZM730.616 331.812C731.264 331.812 731.828 331.662 732.308 331.362C732.788 331.05 733.16 330.624 733.424 330.084C733.688 329.532 733.82 328.902 733.82 328.194C733.82 327.474 733.688 326.844 733.424 326.304C733.16 325.764 732.788 325.344 732.308 325.044C731.828 324.732 731.264 324.576 730.616 324.576C730.04 324.576 729.506 324.708 729.014 324.972C728.522 325.224 728.126 325.596 727.826 326.088C727.538 326.568 727.394 327.15 727.394 327.834V328.662C727.394 329.322 727.544 329.886 727.844 330.354C728.144 330.822 728.54 331.182 729.032 331.434C729.524 331.686 730.052 331.812 730.616 331.812ZM739.274 329.076V319.86H741.038V329.076H739.274ZM739.112 333V330.804H741.2V333H739.112ZM753.378 333V321.084H755.142V333H753.378ZM749.382 321.444V319.86H759.138V321.444H749.382ZM762.258 333V319.86H763.986V327.708H763.554C763.554 326.76 763.674 325.944 763.914 325.26C764.166 324.564 764.55 324.03 765.066 323.658C765.582 323.286 766.242 323.1 767.046 323.1H767.118C768.27 323.1 769.14 323.484 769.728 324.252C770.316 325.008 770.61 326.094 770.61 327.51V333H768.882V327.15C768.882 326.37 768.66 325.764 768.216 325.332C767.784 324.9 767.22 324.684 766.524 324.684C765.756 324.684 765.138 324.942 764.67 325.458C764.214 325.962 763.986 326.628 763.986 327.456V333H762.258ZM780.585 333V330.12H780.297V326.79C780.297 326.13 780.123 325.632 779.775 325.296C779.439 324.96 778.941 324.792 778.281 324.792C777.909 324.792 777.525 324.798 777.129 324.81C776.733 324.822 776.355 324.834 775.995 324.846C775.635 324.858 775.323 324.876 775.059 324.9V323.388C775.323 323.364 775.599 323.346 775.887 323.334C776.187 323.31 776.493 323.298 776.805 323.298C777.117 323.286 777.417 323.28 777.705 323.28C778.689 323.28 779.493 323.4 780.117 323.64C780.741 323.868 781.203 324.246 781.503 324.774C781.803 325.302 781.953 326.016 781.953 326.916V333H780.585ZM777.435 333.252C776.715 333.252 776.091 333.132 775.563 332.892C775.047 332.64 774.645 332.28 774.357 331.812C774.081 331.344 773.943 330.78 773.943 330.12C773.943 329.436 774.093 328.866 774.393 328.41C774.705 327.954 775.155 327.612 775.743 327.384C776.331 327.144 777.039 327.024 777.867 327.024H780.477V328.32H777.795C777.099 328.32 776.565 328.488 776.193 328.824C775.821 329.16 775.635 329.592 775.635 330.12C775.635 330.648 775.821 331.074 776.193 331.398C776.565 331.722 777.099 331.884 777.795 331.884C778.203 331.884 778.593 331.812 778.965 331.668C779.337 331.512 779.643 331.26 779.883 330.912C780.135 330.552 780.273 330.06 780.297 329.436L780.765 330.12C780.705 330.804 780.537 331.38 780.261 331.848C779.997 332.304 779.625 332.652 779.145 332.892C778.677 333.132 778.107 333.252 777.435 333.252ZM786.125 333V323.388H787.493V327.51H787.277C787.277 326.562 787.403 325.764 787.655 325.116C787.919 324.456 788.315 323.958 788.843 323.622C789.371 323.274 790.037 323.1 790.841 323.1H790.913C792.125 323.1 793.019 323.478 793.595 324.234C794.183 324.99 794.477 326.082 794.477 327.51V333H792.749V327.15C792.749 326.406 792.539 325.812 792.119 325.368C791.699 324.912 791.123 324.684 790.391 324.684C789.635 324.684 789.023 324.918 788.555 325.386C788.087 325.854 787.853 326.478 787.853 327.258V333H786.125ZM805.262 333L801.644 328.518H800.06L804.47 323.388H806.288L802.292 328.014L802.418 327.096L807.26 333H805.262ZM798.638 333V319.86H800.366V333H798.638ZM812.966 333.288C811.706 333.288 810.728 333.018 810.032 332.478C809.348 331.938 808.994 331.2 808.97 330.264H810.59C810.614 330.636 810.8 330.99 811.148 331.326C811.508 331.65 812.114 331.812 812.966 331.812C813.734 331.812 814.322 331.662 814.73 331.362C815.138 331.05 815.342 330.672 815.342 330.228C815.342 329.832 815.192 329.526 814.892 329.31C814.592 329.082 814.106 328.932 813.434 328.86L812.39 328.752C811.478 328.656 810.734 328.386 810.158 327.942C809.582 327.486 809.294 326.85 809.294 326.034C809.294 325.422 809.45 324.9 809.762 324.468C810.074 324.024 810.506 323.688 811.058 323.46C811.61 323.22 812.246 323.1 812.966 323.1C814.046 323.1 814.922 323.34 815.594 323.82C816.266 324.3 816.614 325.014 816.638 325.962H815.018C815.006 325.578 814.826 325.254 814.478 324.99C814.142 324.714 813.638 324.576 812.966 324.576C812.294 324.576 811.784 324.714 811.436 324.99C811.088 325.266 810.914 325.614 810.914 326.034C810.914 326.394 811.034 326.682 811.274 326.898C811.526 327.114 811.934 327.252 812.498 327.312L813.542 327.42C814.574 327.528 815.402 327.816 816.026 328.284C816.65 328.74 816.962 329.388 816.962 330.228C816.962 330.828 816.788 331.362 816.44 331.83C816.104 332.286 815.636 332.646 815.036 332.91C814.436 333.162 813.746 333.288 812.966 333.288ZM829.306 333.108C828.586 333.108 827.962 333.006 827.434 332.802C826.918 332.598 826.516 332.25 826.228 331.758C825.952 331.254 825.814 330.576 825.814 329.724V320.472H827.47V329.94C827.47 330.456 827.608 330.858 827.884 331.146C828.172 331.422 828.574 331.56 829.09 331.56H830.782V333.108H829.306ZM824.158 324.684V323.388H830.782V324.684H824.158ZM838.584 333.324C837.744 333.324 837.006 333.18 836.37 332.892C835.734 332.604 835.194 332.226 834.75 331.758C834.318 331.278 833.988 330.744 833.76 330.156C833.544 329.568 833.436 328.968 833.436 328.356V328.032C833.436 327.42 833.55 326.82 833.778 326.232C834.006 325.632 834.342 325.098 834.786 324.63C835.23 324.15 835.77 323.772 836.406 323.496C837.042 323.208 837.768 323.064 838.584 323.064C839.4 323.064 840.126 323.208 840.762 323.496C841.398 323.772 841.938 324.15 842.382 324.63C842.826 325.098 843.162 325.632 843.39 326.232C843.618 326.82 843.732 327.42 843.732 328.032V328.356C843.732 328.968 843.618 329.568 843.39 330.156C843.174 330.744 842.844 331.278 842.4 331.758C841.968 332.226 841.434 332.604 840.798 332.892C840.162 333.18 839.424 333.324 838.584 333.324ZM838.584 331.776C839.304 331.776 839.916 331.62 840.42 331.308C840.936 330.984 841.326 330.552 841.59 330.012C841.866 329.472 842.004 328.866 842.004 328.194C842.004 327.51 841.866 326.898 841.59 326.358C841.314 325.818 840.918 325.392 840.402 325.08C839.898 324.768 839.292 324.612 838.584 324.612C837.888 324.612 837.282 324.768 836.766 325.08C836.25 325.392 835.854 325.818 835.578 326.358C835.302 326.898 835.164 327.51 835.164 328.194C835.164 328.866 835.296 329.472 835.56 330.012C835.836 330.552 836.226 330.984 836.73 331.308C837.246 331.62 837.864 331.776 838.584 331.776ZM858.23 333V330.12H857.942V326.79C857.942 326.13 857.768 325.632 857.42 325.296C857.084 324.96 856.586 324.792 855.926 324.792C855.554 324.792 855.17 324.798 854.774 324.81C854.378 324.822 854 324.834 853.64 324.846C853.28 324.858 852.968 324.876 852.704 324.9V323.388C852.968 323.364 853.244 323.346 853.532 323.334C853.832 323.31 854.138 323.298 854.45 323.298C854.762 323.286 855.062 323.28 855.35 323.28C856.334 323.28 857.138 323.4 857.762 323.64C858.386 323.868 858.848 324.246 859.148 324.774C859.448 325.302 859.598 326.016 859.598 326.916V333H858.23ZM855.08 333.252C854.36 333.252 853.736 333.132 853.208 332.892C852.692 332.64 852.29 332.28 852.002 331.812C851.726 331.344 851.588 330.78 851.588 330.12C851.588 329.436 851.738 328.866 852.038 328.41C852.35 327.954 852.8 327.612 853.388 327.384C853.976 327.144 854.684 327.024 855.512 327.024H858.122V328.32H855.44C854.744 328.32 854.21 328.488 853.838 328.824C853.466 329.16 853.28 329.592 853.28 330.12C853.28 330.648 853.466 331.074 853.838 331.398C854.21 331.722 854.744 331.884 855.44 331.884C855.848 331.884 856.238 331.812 856.61 331.668C856.982 331.512 857.288 331.26 857.528 330.912C857.78 330.552 857.918 330.06 857.942 329.436L858.41 330.12C858.35 330.804 858.182 331.38 857.906 331.848C857.642 332.304 857.27 332.652 856.79 332.892C856.322 333.132 855.752 333.252 855.08 333.252ZM863.877 333V319.86H865.605V333H863.877ZM862.545 321.228V319.86H865.605V321.228H862.545ZM870.028 333V319.86H871.756V333H870.028ZM868.696 321.228V319.86H871.756V321.228H868.696ZM885.594 333.324C884.754 333.324 884.016 333.18 883.38 332.892C882.744 332.604 882.204 332.226 881.76 331.758C881.328 331.278 880.998 330.744 880.77 330.156C880.554 329.568 880.446 328.968 880.446 328.356V328.032C880.446 327.42 880.56 326.82 880.788 326.232C881.016 325.632 881.352 325.098 881.796 324.63C882.24 324.15 882.78 323.772 883.416 323.496C884.052 323.208 884.778 323.064 885.594 323.064C886.41 323.064 887.136 323.208 887.772 323.496C888.408 323.772 888.948 324.15 889.392 324.63C889.836 325.098 890.172 325.632 890.4 326.232C890.628 326.82 890.742 327.42 890.742 328.032V328.356C890.742 328.968 890.628 329.568 890.4 330.156C890.184 330.744 889.854 331.278 889.41 331.758C888.978 332.226 888.444 332.604 887.808 332.892C887.172 333.18 886.434 333.324 885.594 333.324ZM885.594 331.776C886.314 331.776 886.926 331.62 887.43 331.308C887.946 330.984 888.336 330.552 888.6 330.012C888.876 329.472 889.014 328.866 889.014 328.194C889.014 327.51 888.876 326.898 888.6 326.358C888.324 325.818 887.928 325.392 887.412 325.08C886.908 324.768 886.302 324.612 885.594 324.612C884.898 324.612 884.292 324.768 883.776 325.08C883.26 325.392 882.864 325.818 882.588 326.358C882.312 326.898 882.174 327.51 882.174 328.194C882.174 328.866 882.306 329.472 882.57 330.012C882.846 330.552 883.236 330.984 883.74 331.308C884.256 331.62 884.874 331.776 885.594 331.776ZM894.582 333V322.902C894.582 321.834 894.864 321.048 895.428 320.544C895.992 320.04 896.82 319.788 897.912 319.788H899.1V321.228H897.624C897.18 321.228 896.838 321.354 896.598 321.606C896.358 321.846 896.238 322.182 896.238 322.614V333H894.582ZM893.25 324.792V323.496H899.28V324.792H893.25ZM906.598 336.744V335.196H907.984C908.392 335.196 908.734 335.142 909.01 335.034C909.298 334.938 909.532 334.77 909.712 334.53C909.904 334.29 910.06 333.972 910.18 333.576L913.204 323.388H914.896L911.692 334.026C911.5 334.662 911.23 335.178 910.882 335.574C910.534 335.982 910.108 336.276 909.604 336.456C909.112 336.648 908.536 336.744 907.876 336.744H906.598ZM909.532 332.784V331.344H911.62V332.784H909.532ZM909.352 332.784L905.914 323.388H907.678L910.972 332.784H909.352ZM922.342 333.324C921.502 333.324 920.764 333.18 920.128 332.892C919.492 332.604 918.952 332.226 918.508 331.758C918.076 331.278 917.746 330.744 917.518 330.156C917.302 329.568 917.194 328.968 917.194 328.356V328.032C917.194 327.42 917.308 326.82 917.536 326.232C917.764 325.632 918.1 325.098 918.544 324.63C918.988 324.15 919.528 323.772 920.164 323.496C920.8 323.208 921.526 323.064 922.342 323.064C923.158 323.064 923.884 323.208 924.52 323.496C925.156 323.772 925.696 324.15 926.14 324.63C926.584 325.098 926.92 325.632 927.148 326.232C927.376 326.82 927.49 327.42 927.49 328.032V328.356C927.49 328.968 927.376 329.568 927.148 330.156C926.932 330.744 926.602 331.278 926.158 331.758C925.726 332.226 925.192 332.604 924.556 332.892C923.92 333.18 923.182 333.324 922.342 333.324ZM922.342 331.776C923.062 331.776 923.674 331.62 924.178 331.308C924.694 330.984 925.084 330.552 925.348 330.012C925.624 329.472 925.762 328.866 925.762 328.194C925.762 327.51 925.624 326.898 925.348 326.358C925.072 325.818 924.676 325.392 924.16 325.08C923.656 324.768 923.05 324.612 922.342 324.612C921.646 324.612 921.04 324.768 920.524 325.08C920.008 325.392 919.612 325.818 919.336 326.358C919.06 326.898 918.922 327.51 918.922 328.194C918.922 328.866 919.054 329.472 919.318 330.012C919.594 330.552 919.984 330.984 920.488 331.308C921.004 331.62 921.622 331.776 922.342 331.776ZM934.408 333.288C933.268 333.288 932.392 332.916 931.78 332.172C931.168 331.428 930.862 330.354 930.862 328.95V323.37H932.59V329.292C932.59 330.048 932.794 330.642 933.202 331.074C933.61 331.494 934.162 331.704 934.858 331.704C935.578 331.704 936.166 331.476 936.622 331.02C937.078 330.552 937.306 329.916 937.306 329.112V323.37H939.034V333H937.666V328.878H937.882C937.882 329.826 937.756 330.63 937.504 331.29C937.252 331.938 936.874 332.436 936.37 332.784C935.878 333.12 935.248 333.288 934.48 333.288H934.408ZM948.728 333V322.902C948.728 321.834 949.01 321.048 949.574 320.544C950.138 320.04 950.966 319.788 952.058 319.788H953.246V321.228H951.77C951.326 321.228 950.984 321.354 950.744 321.606C950.504 321.846 950.384 322.182 950.384 322.614V333H948.728ZM947.396 324.792V323.496H953.426V324.792H947.396ZM960.654 333.324C959.814 333.324 959.076 333.18 958.44 332.892C957.804 332.604 957.264 332.226 956.82 331.758C956.388 331.278 956.058 330.744 955.83 330.156C955.614 329.568 955.506 328.968 955.506 328.356V328.032C955.506 327.42 955.62 326.82 955.848 326.232C956.076 325.632 956.412 325.098 956.856 324.63C957.3 324.15 957.84 323.772 958.476 323.496C959.112 323.208 959.838 323.064 960.654 323.064C961.47 323.064 962.196 323.208 962.832 323.496C963.468 323.772 964.008 324.15 964.452 324.63C964.896 325.098 965.232 325.632 965.46 326.232C965.688 326.82 965.802 327.42 965.802 328.032V328.356C965.802 328.968 965.688 329.568 965.46 330.156C965.244 330.744 964.914 331.278 964.47 331.758C964.038 332.226 963.504 332.604 962.868 332.892C962.232 333.18 961.494 333.324 960.654 333.324ZM960.654 331.776C961.374 331.776 961.986 331.62 962.49 331.308C963.006 330.984 963.396 330.552 963.66 330.012C963.936 329.472 964.074 328.866 964.074 328.194C964.074 327.51 963.936 326.898 963.66 326.358C963.384 325.818 962.988 325.392 962.472 325.08C961.968 324.768 961.362 324.612 960.654 324.612C959.958 324.612 959.352 324.768 958.836 325.08C958.32 325.392 957.924 325.818 957.648 326.358C957.372 326.898 957.234 327.51 957.234 328.194C957.234 328.866 957.366 329.472 957.63 330.012C957.906 330.552 958.296 330.984 958.8 331.308C959.316 331.62 959.934 331.776 960.654 331.776ZM969.39 333V323.388H970.758V327.348H970.686C970.686 325.944 970.992 324.918 971.604 324.27C972.228 323.61 973.158 323.28 974.394 323.28H974.718V324.828H974.106C973.146 324.828 972.408 325.086 971.892 325.602C971.376 326.106 971.118 326.838 971.118 327.798V333H969.39ZM982.869 333V323.388H984.237V327.51H984.021C984.021 326.574 984.141 325.782 984.381 325.134C984.633 324.474 985.005 323.97 985.497 323.622C985.989 323.274 986.613 323.1 987.369 323.1H987.441C988.197 323.1 988.821 323.274 989.313 323.622C989.817 323.97 990.189 324.474 990.429 325.134C990.669 325.782 990.789 326.574 990.789 327.51H990.285C990.285 326.574 990.411 325.782 990.663 325.134C990.915 324.474 991.287 323.97 991.779 323.622C992.283 323.274 992.913 323.1 993.669 323.1H993.741C994.497 323.1 995.127 323.274 995.631 323.622C996.135 323.97 996.507 324.474 996.747 325.134C996.999 325.782 997.125 326.574 997.125 327.51V333H995.397V327.132C995.397 326.352 995.205 325.752 994.821 325.332C994.437 324.9 993.903 324.684 993.219 324.684C992.511 324.684 991.941 324.912 991.509 325.368C991.077 325.812 990.861 326.436 990.861 327.24V333H989.133V327.132C989.133 326.352 988.941 325.752 988.557 325.332C988.173 324.9 987.639 324.684 986.955 324.684C986.247 324.684 985.677 324.912 985.245 325.368C984.813 325.812 984.597 326.436 984.597 327.24V333H982.869ZM1007.1 333V330.12H1006.81V326.79C1006.81 326.13 1006.64 325.632 1006.29 325.296C1005.96 324.96 1005.46 324.792 1004.8 324.792C1004.43 324.792 1004.04 324.798 1003.65 324.81C1003.25 324.822 1002.87 324.834 1002.51 324.846C1002.15 324.858 1001.84 324.876 1001.58 324.9V323.388C1001.84 323.364 1002.12 323.346 1002.4 323.334C1002.7 323.31 1003.01 323.298 1003.32 323.298C1003.63 323.286 1003.93 323.28 1004.22 323.28C1005.21 323.28 1006.01 323.4 1006.63 323.64C1007.26 323.868 1007.72 324.246 1008.02 324.774C1008.32 325.302 1008.47 326.016 1008.47 326.916V333H1007.1ZM1003.95 333.252C1003.23 333.252 1002.61 333.132 1002.08 332.892C1001.56 332.64 1001.16 332.28 1000.87 331.812C1000.6 331.344 1000.46 330.78 1000.46 330.12C1000.46 329.436 1000.61 328.866 1000.91 328.41C1001.22 327.954 1001.67 327.612 1002.26 327.384C1002.85 327.144 1003.56 327.024 1004.38 327.024H1006.99V328.32H1004.31C1003.62 328.32 1003.08 328.488 1002.71 328.824C1002.34 329.16 1002.15 329.592 1002.15 330.12C1002.15 330.648 1002.34 331.074 1002.71 331.398C1003.08 331.722 1003.62 331.884 1004.31 331.884C1004.72 331.884 1005.11 331.812 1005.48 331.668C1005.85 331.512 1006.16 331.26 1006.4 330.912C1006.65 330.552 1006.79 330.06 1006.81 329.436L1007.28 330.12C1007.22 330.804 1007.05 331.38 1006.78 331.848C1006.51 332.304 1006.14 332.652 1005.66 332.892C1005.19 333.132 1004.62 333.252 1003.95 333.252ZM1019.27 333L1015.65 328.518H1014.06L1018.47 323.388H1020.29L1016.3 328.014L1016.42 327.096L1021.26 333H1019.27ZM1012.64 333V319.86H1014.37V333H1012.64ZM1024.43 333V323.388H1026.16V333H1024.43ZM1022.95 324.756V323.388H1026.16V324.756H1022.95ZM1024.91 321.84C1024.53 321.84 1024.24 321.738 1024.05 321.534C1023.87 321.33 1023.78 321.072 1023.78 320.76C1023.78 320.448 1023.87 320.19 1024.05 319.986C1024.24 319.782 1024.53 319.68 1024.91 319.68C1025.3 319.68 1025.58 319.782 1025.76 319.986C1025.95 320.19 1026.05 320.448 1026.05 320.76C1026.05 321.072 1025.95 321.33 1025.76 321.534C1025.58 321.738 1025.3 321.84 1024.91 321.84ZM1030.5 333V323.388H1031.87V327.51H1031.65C1031.65 326.562 1031.78 325.764 1032.03 325.116C1032.29 324.456 1032.69 323.958 1033.22 323.622C1033.74 323.274 1034.41 323.1 1035.21 323.1H1035.29C1036.5 323.1 1037.39 323.478 1037.97 324.234C1038.56 324.99 1038.85 326.082 1038.85 327.51V333H1037.12V327.15C1037.12 326.406 1036.91 325.812 1036.49 325.368C1036.07 324.912 1035.5 324.684 1034.76 324.684C1034.01 324.684 1033.4 324.918 1032.93 325.386C1032.46 325.854 1032.23 326.478 1032.23 327.258V333H1030.5ZM1046.65 336.744C1046.2 336.744 1045.75 336.726 1045.3 336.69C1044.85 336.654 1044.43 336.606 1044.02 336.546V335.088C1044.45 335.148 1044.9 335.196 1045.37 335.232C1045.85 335.28 1046.3 335.304 1046.72 335.304C1047.6 335.304 1048.29 335.184 1048.81 334.944C1049.34 334.716 1049.71 334.35 1049.94 333.846C1050.18 333.354 1050.3 332.718 1050.3 331.938V330.102L1050.88 328.734C1050.84 329.706 1050.64 330.516 1050.27 331.164C1049.89 331.8 1049.41 332.28 1048.81 332.604C1048.22 332.916 1047.57 333.072 1046.85 333.072C1046.17 333.072 1045.56 332.946 1044.99 332.694C1044.44 332.43 1043.96 332.07 1043.55 331.614C1043.16 331.158 1042.84 330.636 1042.62 330.048C1042.4 329.448 1042.29 328.818 1042.29 328.158V327.834C1042.29 327.162 1042.41 326.538 1042.63 325.962C1042.86 325.374 1043.18 324.864 1043.59 324.432C1044 324 1044.48 323.664 1045.05 323.424C1045.62 323.184 1046.25 323.064 1046.94 323.064C1047.74 323.064 1048.45 323.238 1049.06 323.586C1049.67 323.922 1050.15 324.42 1050.5 325.08C1050.86 325.728 1051.06 326.526 1051.09 327.474L1050.59 327.492V323.388H1051.96V331.866C1051.96 333.018 1051.78 333.948 1051.42 334.656C1051.07 335.376 1050.51 335.904 1049.73 336.24C1048.96 336.576 1047.93 336.744 1046.65 336.744ZM1047.17 331.488C1047.75 331.488 1048.27 331.362 1048.74 331.11C1049.22 330.858 1049.59 330.498 1049.87 330.03C1050.16 329.55 1050.3 328.98 1050.3 328.32V327.492C1050.3 326.844 1050.15 326.298 1049.85 325.854C1049.56 325.41 1049.19 325.074 1048.72 324.846C1048.25 324.618 1047.74 324.504 1047.19 324.504C1046.56 324.504 1046.01 324.648 1045.53 324.936C1045.05 325.224 1044.68 325.632 1044.42 326.16C1044.15 326.676 1044.02 327.288 1044.02 327.996C1044.02 328.704 1044.15 329.322 1044.42 329.85C1044.69 330.378 1045.06 330.786 1045.53 331.074C1046.01 331.35 1046.56 331.488 1047.17 331.488ZM612.4 358.108C611.68 358.108 611.056 358.006 610.528 357.802C610.012 357.598 609.61 357.25 609.322 356.758C609.046 356.254 608.908 355.576 608.908 354.724V345.472H610.564V354.94C610.564 355.456 610.702 355.858 610.978 356.146C611.266 356.422 611.668 356.56 612.184 356.56H613.876V358.108H612.4ZM607.252 349.684V348.388H613.876V349.684H607.252ZM617.32 358V344.86H619.048V352.708H618.616C618.616 351.76 618.736 350.944 618.976 350.26C619.228 349.564 619.612 349.03 620.128 348.658C620.644 348.286 621.304 348.1 622.108 348.1H622.18C623.332 348.1 624.202 348.484 624.79 349.252C625.378 350.008 625.672 351.094 625.672 352.51V358H623.944V352.15C623.944 351.37 623.722 350.764 623.278 350.332C622.846 349.9 622.282 349.684 621.586 349.684C620.818 349.684 620.2 349.942 619.732 350.458C619.276 350.962 619.048 351.628 619.048 352.456V358H617.32ZM630.302 358V348.388H632.03V358H630.302ZM628.826 349.756V348.388H632.03V349.756H628.826ZM630.788 346.84C630.404 346.84 630.116 346.738 629.924 346.534C629.744 346.33 629.654 346.072 629.654 345.76C629.654 345.448 629.744 345.19 629.924 344.986C630.116 344.782 630.404 344.68 630.788 344.68C631.172 344.68 631.454 344.782 631.634 344.986C631.826 345.19 631.922 345.448 631.922 345.76C631.922 346.072 631.826 346.33 631.634 346.534C631.454 346.738 631.172 346.84 630.788 346.84ZM639.521 358.288C638.261 358.288 637.283 358.018 636.587 357.478C635.903 356.938 635.549 356.2 635.525 355.264H637.145C637.169 355.636 637.355 355.99 637.703 356.326C638.063 356.65 638.669 356.812 639.521 356.812C640.289 356.812 640.877 356.662 641.285 356.362C641.693 356.05 641.897 355.672 641.897 355.228C641.897 354.832 641.747 354.526 641.447 354.31C641.147 354.082 640.661 353.932 639.989 353.86L638.945 353.752C638.033 353.656 637.289 353.386 636.713 352.942C636.137 352.486 635.849 351.85 635.849 351.034C635.849 350.422 636.005 349.9 636.317 349.468C636.629 349.024 637.061 348.688 637.613 348.46C638.165 348.22 638.801 348.1 639.521 348.1C640.601 348.1 641.477 348.34 642.149 348.82C642.821 349.3 643.169 350.014 643.193 350.962H641.573C641.561 350.578 641.381 350.254 641.033 349.99C640.697 349.714 640.193 349.576 639.521 349.576C638.849 349.576 638.339 349.714 637.991 349.99C637.643 350.266 637.469 350.614 637.469 351.034C637.469 351.394 637.589 351.682 637.829 351.898C638.081 352.114 638.489 352.252 639.053 352.312L640.097 352.42C641.129 352.528 641.957 352.816 642.581 353.284C643.205 353.74 643.517 354.388 643.517 355.228C643.517 355.828 643.343 356.362 642.995 356.83C642.659 357.286 642.191 357.646 641.591 357.91C640.991 358.162 640.301 358.288 639.521 358.288ZM657.931 358V355.12H657.643V351.79C657.643 351.13 657.469 350.632 657.121 350.296C656.785 349.96 656.287 349.792 655.627 349.792C655.255 349.792 654.871 349.798 654.475 349.81C654.079 349.822 653.701 349.834 653.341 349.846C652.981 349.858 652.669 349.876 652.405 349.9V348.388C652.669 348.364 652.945 348.346 653.233 348.334C653.533 348.31 653.839 348.298 654.151 348.298C654.463 348.286 654.763 348.28 655.051 348.28C656.035 348.28 656.839 348.4 657.463 348.64C658.087 348.868 658.549 349.246 658.849 349.774C659.149 350.302 659.299 351.016 659.299 351.916V358H657.931ZM654.781 358.252C654.061 358.252 653.437 358.132 652.909 357.892C652.393 357.64 651.991 357.28 651.703 356.812C651.427 356.344 651.289 355.78 651.289 355.12C651.289 354.436 651.439 353.866 651.739 353.41C652.051 352.954 652.501 352.612 653.089 352.384C653.677 352.144 654.385 352.024 655.213 352.024H657.823V353.32H655.141C654.445 353.32 653.911 353.488 653.539 353.824C653.167 354.16 652.981 354.592 652.981 355.12C652.981 355.648 653.167 356.074 653.539 356.398C653.911 356.722 654.445 356.884 655.141 356.884C655.549 356.884 655.939 356.812 656.311 356.668C656.683 356.512 656.989 356.26 657.229 355.912C657.481 355.552 657.619 355.06 657.643 354.436L658.111 355.12C658.051 355.804 657.883 356.38 657.607 356.848C657.343 357.304 656.971 357.652 656.491 357.892C656.023 358.132 655.453 358.252 654.781 358.252ZM671.716 358.288C670.456 358.288 669.478 358.018 668.782 357.478C668.098 356.938 667.744 356.2 667.72 355.264H669.34C669.364 355.636 669.55 355.99 669.898 356.326C670.258 356.65 670.864 356.812 671.716 356.812C672.484 356.812 673.072 356.662 673.48 356.362C673.888 356.05 674.092 355.672 674.092 355.228C674.092 354.832 673.942 354.526 673.642 354.31C673.342 354.082 672.856 353.932 672.184 353.86L671.14 353.752C670.228 353.656 669.484 353.386 668.908 352.942C668.332 352.486 668.044 351.85 668.044 351.034C668.044 350.422 668.2 349.9 668.512 349.468C668.824 349.024 669.256 348.688 669.808 348.46C670.36 348.22 670.996 348.1 671.716 348.1C672.796 348.1 673.672 348.34 674.344 348.82C675.016 349.3 675.364 350.014 675.388 350.962H673.768C673.756 350.578 673.576 350.254 673.228 349.99C672.892 349.714 672.388 349.576 671.716 349.576C671.044 349.576 670.534 349.714 670.186 349.99C669.838 350.266 669.664 350.614 669.664 351.034C669.664 351.394 669.784 351.682 670.024 351.898C670.276 352.114 670.684 352.252 671.248 352.312L672.292 352.42C673.324 352.528 674.152 352.816 674.776 353.284C675.4 353.74 675.712 354.388 675.712 355.228C675.712 355.828 675.538 356.362 675.19 356.83C674.854 357.286 674.386 357.646 673.786 357.91C673.186 358.162 672.496 358.288 671.716 358.288ZM682.547 358.288C681.407 358.288 680.531 357.916 679.919 357.172C679.307 356.428 679.001 355.354 679.001 353.95V348.37H680.729V354.292C680.729 355.048 680.933 355.642 681.341 356.074C681.749 356.494 682.301 356.704 682.997 356.704C683.717 356.704 684.305 356.476 684.761 356.02C685.217 355.552 685.445 354.916 685.445 354.112V348.37H687.173V358H685.805V353.878H686.021C686.021 354.826 685.895 355.63 685.643 356.29C685.391 356.938 685.013 357.436 684.509 357.784C684.017 358.12 683.387 358.288 682.619 358.288H682.547ZM695.641 358.324C694.813 358.324 694.093 358.18 693.481 357.892C692.881 357.604 692.383 357.22 691.987 356.74C691.591 356.248 691.291 355.708 691.087 355.12C690.895 354.532 690.799 353.944 690.799 353.356V353.032C690.799 352.42 690.895 351.82 691.087 351.232C691.291 350.644 691.591 350.116 691.987 349.648C692.395 349.168 692.899 348.784 693.499 348.496C694.099 348.208 694.801 348.064 695.605 348.064C696.409 348.064 697.129 348.214 697.765 348.514C698.413 348.814 698.929 349.24 699.313 349.792C699.709 350.332 699.931 350.974 699.979 351.718H698.323C698.239 351.118 697.963 350.62 697.495 350.224C697.027 349.816 696.397 349.612 695.605 349.612C694.921 349.612 694.351 349.768 693.895 350.08C693.439 350.392 693.097 350.818 692.869 351.358C692.641 351.898 692.527 352.51 692.527 353.194C692.527 353.854 692.641 354.46 692.869 355.012C693.097 355.552 693.439 355.984 693.895 356.308C694.363 356.62 694.945 356.776 695.641 356.776C696.181 356.776 696.649 356.68 697.045 356.488C697.441 356.296 697.759 356.038 697.999 355.714C698.239 355.39 698.383 355.024 698.431 354.616H700.087C700.051 355.372 699.829 356.026 699.421 356.578C699.025 357.13 698.497 357.562 697.837 357.874C697.189 358.174 696.457 358.324 695.641 358.324ZM707.557 358.324C706.729 358.324 706.009 358.18 705.397 357.892C704.797 357.604 704.299 357.22 703.903 356.74C703.507 356.248 703.207 355.708 703.003 355.12C702.811 354.532 702.715 353.944 702.715 353.356V353.032C702.715 352.42 702.811 351.82 703.003 351.232C703.207 350.644 703.507 350.116 703.903 349.648C704.311 349.168 704.815 348.784 705.415 348.496C706.015 348.208 706.717 348.064 707.521 348.064C708.325 348.064 709.045 348.214 709.681 348.514C710.329 348.814 710.845 349.24 711.229 349.792C711.625 350.332 711.847 350.974 711.895 351.718H710.239C710.155 351.118 709.879 350.62 709.411 350.224C708.943 349.816 708.313 349.612 707.521 349.612C706.837 349.612 706.267 349.768 705.811 350.08C705.355 350.392 705.013 350.818 704.785 351.358C704.557 351.898 704.443 352.51 704.443 353.194C704.443 353.854 704.557 354.46 704.785 355.012C705.013 355.552 705.355 355.984 705.811 356.308C706.279 356.62 706.861 356.776 707.557 356.776C708.097 356.776 708.565 356.68 708.961 356.488C709.357 356.296 709.675 356.038 709.915 355.714C710.155 355.39 710.299 355.024 710.347 354.616H712.003C711.967 355.372 711.745 356.026 711.337 356.578C710.941 357.13 710.413 357.562 709.753 357.874C709.105 358.174 708.373 358.324 707.557 358.324ZM719.437 358.324C718.597 358.324 717.871 358.18 717.259 357.892C716.647 357.604 716.149 357.226 715.765 356.758C715.381 356.278 715.093 355.744 714.901 355.156C714.721 354.568 714.631 353.968 714.631 353.356V353.032C714.631 352.408 714.721 351.802 714.901 351.214C715.093 350.626 715.381 350.098 715.765 349.63C716.149 349.15 716.635 348.772 717.223 348.496C717.823 348.208 718.525 348.064 719.329 348.064C720.373 348.064 721.231 348.292 721.903 348.748C722.587 349.192 723.091 349.768 723.415 350.476C723.751 351.184 723.919 351.94 723.919 352.744V353.518H715.387V352.222H722.659L722.263 352.924C722.263 352.24 722.155 351.652 721.939 351.16C721.723 350.656 721.399 350.266 720.967 349.99C720.535 349.714 719.989 349.576 719.329 349.576C718.645 349.576 718.075 349.732 717.619 350.044C717.175 350.356 716.839 350.782 716.611 351.322C716.395 351.862 716.287 352.486 716.287 353.194C716.287 353.878 716.395 354.496 716.611 355.048C716.839 355.588 717.187 356.02 717.655 356.344C718.123 356.656 718.717 356.812 719.437 356.812C720.193 356.812 720.805 356.644 721.273 356.308C721.753 355.972 722.041 355.582 722.137 355.138H723.757C723.625 355.798 723.361 356.368 722.965 356.848C722.569 357.328 722.071 357.694 721.471 357.946C720.871 358.198 720.193 358.324 719.437 358.324ZM730.523 358.288C729.263 358.288 728.285 358.018 727.589 357.478C726.905 356.938 726.551 356.2 726.527 355.264H728.147C728.171 355.636 728.357 355.99 728.705 356.326C729.065 356.65 729.671 356.812 730.523 356.812C731.291 356.812 731.879 356.662 732.287 356.362C732.695 356.05 732.899 355.672 732.899 355.228C732.899 354.832 732.749 354.526 732.449 354.31C732.149 354.082 731.663 353.932 730.991 353.86L729.947 353.752C729.035 353.656 728.291 353.386 727.715 352.942C727.139 352.486 726.851 351.85 726.851 351.034C726.851 350.422 727.007 349.9 727.319 349.468C727.631 349.024 728.063 348.688 728.615 348.46C729.167 348.22 729.803 348.1 730.523 348.1C731.603 348.1 732.479 348.34 733.151 348.82C733.823 349.3 734.171 350.014 734.195 350.962H732.575C732.563 350.578 732.383 350.254 732.035 349.99C731.699 349.714 731.195 349.576 730.523 349.576C729.851 349.576 729.341 349.714 728.993 349.99C728.645 350.266 728.471 350.614 728.471 351.034C728.471 351.394 728.591 351.682 728.831 351.898C729.083 352.114 729.491 352.252 730.055 352.312L731.099 352.42C732.131 352.528 732.959 352.816 733.583 353.284C734.207 353.74 734.519 354.388 734.519 355.228C734.519 355.828 734.345 356.362 733.997 356.83C733.661 357.286 733.193 357.646 732.593 357.91C731.993 358.162 731.303 358.288 730.523 358.288ZM741.173 358.288C739.913 358.288 738.935 358.018 738.239 357.478C737.555 356.938 737.201 356.2 737.177 355.264H738.797C738.821 355.636 739.007 355.99 739.355 356.326C739.715 356.65 740.321 356.812 741.173 356.812C741.941 356.812 742.529 356.662 742.937 356.362C743.345 356.05 743.549 355.672 743.549 355.228C743.549 354.832 743.399 354.526 743.099 354.31C742.799 354.082 742.313 353.932 741.641 353.86L740.597 353.752C739.685 353.656 738.941 353.386 738.365 352.942C737.789 352.486 737.501 351.85 737.501 351.034C737.501 350.422 737.657 349.9 737.969 349.468C738.281 349.024 738.713 348.688 739.265 348.46C739.817 348.22 740.453 348.1 741.173 348.1C742.253 348.1 743.129 348.34 743.801 348.82C744.473 349.3 744.821 350.014 744.845 350.962H743.225C743.213 350.578 743.033 350.254 742.685 349.99C742.349 349.714 741.845 349.576 741.173 349.576C740.501 349.576 739.991 349.714 739.643 349.99C739.295 350.266 739.121 350.614 739.121 351.034C739.121 351.394 739.241 351.682 739.481 351.898C739.733 352.114 740.141 352.252 740.705 352.312L741.749 352.42C742.781 352.528 743.609 352.816 744.233 353.284C744.857 353.74 745.169 354.388 745.169 355.228C745.169 355.828 744.995 356.362 744.647 356.83C744.311 357.286 743.843 357.646 743.243 357.91C742.643 358.162 741.953 358.288 741.173 358.288ZM748.156 358V355.804H750.244V358H748.156ZM761.734 358L758.188 344.86H760.006L763.084 356.848L762.238 356.416H764.38L763.444 356.848L765.946 345.4H767.602L764.74 358H761.734ZM769.636 358L766.486 345.4H768.196L771.022 356.848L770.122 356.416H772.282L771.364 356.848L774.118 344.86H775.882L772.66 358H769.636ZM782.724 358.324C781.884 358.324 781.158 358.18 780.546 357.892C779.934 357.604 779.436 357.226 779.052 356.758C778.668 356.278 778.38 355.744 778.188 355.156C778.008 354.568 777.918 353.968 777.918 353.356V353.032C777.918 352.408 778.008 351.802 778.188 351.214C778.38 350.626 778.668 350.098 779.052 349.63C779.436 349.15 779.922 348.772 780.51 348.496C781.11 348.208 781.812 348.064 782.616 348.064C783.66 348.064 784.518 348.292 785.19 348.748C785.874 349.192 786.378 349.768 786.702 350.476C787.038 351.184 787.206 351.94 787.206 352.744V353.518H778.674V352.222H785.946L785.55 352.924C785.55 352.24 785.442 351.652 785.226 351.16C785.01 350.656 784.686 350.266 784.254 349.99C783.822 349.714 783.276 349.576 782.616 349.576C781.932 349.576 781.362 349.732 780.906 350.044C780.462 350.356 780.126 350.782 779.898 351.322C779.682 351.862 779.574 352.486 779.574 353.194C779.574 353.878 779.682 354.496 779.898 355.048C780.126 355.588 780.474 356.02 780.942 356.344C781.41 356.656 782.004 356.812 782.724 356.812C783.48 356.812 784.092 356.644 784.56 356.308C785.04 355.972 785.328 355.582 785.424 355.138H787.044C786.912 355.798 786.648 356.368 786.252 356.848C785.856 357.328 785.358 357.694 784.758 357.946C784.158 358.198 783.48 358.324 782.724 358.324ZM795.756 358V344.86H797.484V352.708H797.052C797.052 351.76 797.172 350.944 797.412 350.26C797.664 349.564 798.048 349.03 798.564 348.658C799.08 348.286 799.74 348.1 800.544 348.1H800.616C801.768 348.1 802.638 348.484 803.226 349.252C803.814 350.008 804.108 351.094 804.108 352.51V358H802.38V352.15C802.38 351.37 802.158 350.764 801.714 350.332C801.282 349.9 800.718 349.684 800.022 349.684C799.254 349.684 798.636 349.942 798.168 350.458C797.712 350.962 797.484 351.628 797.484 352.456V358H795.756ZM812.697 358.324C811.857 358.324 811.119 358.18 810.483 357.892C809.847 357.604 809.307 357.226 808.863 356.758C808.431 356.278 808.101 355.744 807.873 355.156C807.657 354.568 807.549 353.968 807.549 353.356V353.032C807.549 352.42 807.663 351.82 807.891 351.232C808.119 350.632 808.455 350.098 808.899 349.63C809.343 349.15 809.883 348.772 810.519 348.496C811.155 348.208 811.881 348.064 812.697 348.064C813.513 348.064 814.239 348.208 814.875 348.496C815.511 348.772 816.051 349.15 816.495 349.63C816.939 350.098 817.275 350.632 817.503 351.232C817.731 351.82 817.845 352.42 817.845 353.032V353.356C817.845 353.968 817.731 354.568 817.503 355.156C817.287 355.744 816.957 356.278 816.513 356.758C816.081 357.226 815.547 357.604 814.911 357.892C814.275 358.18 813.537 358.324 812.697 358.324ZM812.697 356.776C813.417 356.776 814.029 356.62 814.533 356.308C815.049 355.984 815.439 355.552 815.703 355.012C815.979 354.472 816.117 353.866 816.117 353.194C816.117 352.51 815.979 351.898 815.703 351.358C815.427 350.818 815.031 350.392 814.515 350.08C814.011 349.768 813.405 349.612 812.697 349.612C812.001 349.612 811.395 349.768 810.879 350.08C810.363 350.392 809.967 350.818 809.691 351.358C809.415 351.898 809.277 352.51 809.277 353.194C809.277 353.866 809.409 354.472 809.673 355.012C809.949 355.552 810.339 355.984 810.843 356.308C811.359 356.62 811.977 356.776 812.697 356.776ZM821.433 361.6V348.388H822.801V352.546L822.477 352.51C822.537 351.478 822.753 350.638 823.125 349.99C823.509 349.33 824.007 348.844 824.619 348.532C825.231 348.22 825.897 348.064 826.617 348.064C827.313 348.064 827.943 348.196 828.507 348.46C829.083 348.724 829.575 349.084 829.983 349.54C830.391 349.996 830.703 350.524 830.919 351.124C831.135 351.724 831.243 352.36 831.243 353.032V353.356C831.243 354.028 831.129 354.664 830.901 355.264C830.673 355.864 830.349 356.392 829.929 356.848C829.521 357.304 829.029 357.664 828.453 357.928C827.889 358.192 827.265 358.324 826.581 358.324C825.897 358.324 825.243 358.174 824.619 357.874C823.995 357.574 823.479 357.088 823.071 356.416C822.663 355.744 822.429 354.862 822.369 353.77L823.161 355.21V361.6H821.433ZM826.311 356.812C826.959 356.812 827.523 356.662 828.003 356.362C828.483 356.05 828.855 355.624 829.119 355.084C829.383 354.532 829.515 353.902 829.515 353.194C829.515 352.474 829.383 351.844 829.119 351.304C828.855 350.764 828.483 350.344 828.003 350.044C827.523 349.732 826.959 349.576 826.311 349.576C825.735 349.576 825.201 349.708 824.709 349.972C824.217 350.224 823.821 350.596 823.521 351.088C823.233 351.568 823.089 352.15 823.089 352.834V353.662C823.089 354.322 823.239 354.886 823.539 355.354C823.839 355.822 824.235 356.182 824.727 356.434C825.219 356.686 825.747 356.812 826.311 356.812ZM838.93 358.324C838.09 358.324 837.364 358.18 836.752 357.892C836.14 357.604 835.642 357.226 835.258 356.758C834.874 356.278 834.586 355.744 834.394 355.156C834.214 354.568 834.124 353.968 834.124 353.356V353.032C834.124 352.408 834.214 351.802 834.394 351.214C834.586 350.626 834.874 350.098 835.258 349.63C835.642 349.15 836.128 348.772 836.716 348.496C837.316 348.208 838.018 348.064 838.822 348.064C839.866 348.064 840.724 348.292 841.396 348.748C842.08 349.192 842.584 349.768 842.908 350.476C843.244 351.184 843.412 351.94 843.412 352.744V353.518H834.88V352.222H842.152L841.756 352.924C841.756 352.24 841.648 351.652 841.432 351.16C841.216 350.656 840.892 350.266 840.46 349.99C840.028 349.714 839.482 349.576 838.822 349.576C838.138 349.576 837.568 349.732 837.112 350.044C836.668 350.356 836.332 350.782 836.104 351.322C835.888 351.862 835.78 352.486 835.78 353.194C835.78 353.878 835.888 354.496 836.104 355.048C836.332 355.588 836.68 356.02 837.148 356.344C837.616 356.656 838.21 356.812 838.93 356.812C839.686 356.812 840.298 356.644 840.766 356.308C841.246 355.972 841.534 355.582 841.63 355.138H843.25C843.118 355.798 842.854 356.368 842.458 356.848C842.062 357.328 841.564 357.694 840.964 357.946C840.364 358.198 839.686 358.324 838.93 358.324ZM851.313 361.744V360.196H852.699C853.107 360.196 853.449 360.142 853.725 360.034C854.013 359.938 854.247 359.77 854.427 359.53C854.619 359.29 854.775 358.972 854.895 358.576L857.919 348.388H859.611L856.407 359.026C856.215 359.662 855.945 360.178 855.597 360.574C855.249 360.982 854.823 361.276 854.319 361.456C853.827 361.648 853.251 361.744 852.591 361.744H851.313ZM854.247 357.784V356.344H856.335V357.784H854.247ZM854.067 357.784L850.629 348.388H852.393L855.687 357.784H854.067ZM867.057 358.324C866.217 358.324 865.479 358.18 864.843 357.892C864.207 357.604 863.667 357.226 863.223 356.758C862.791 356.278 862.461 355.744 862.233 355.156C862.017 354.568 861.909 353.968 861.909 353.356V353.032C861.909 352.42 862.023 351.82 862.251 351.232C862.479 350.632 862.815 350.098 863.259 349.63C863.703 349.15 864.243 348.772 864.879 348.496C865.515 348.208 866.241 348.064 867.057 348.064C867.873 348.064 868.599 348.208 869.235 348.496C869.871 348.772 870.411 349.15 870.855 349.63C871.299 350.098 871.635 350.632 871.863 351.232C872.091 351.82 872.205 352.42 872.205 353.032V353.356C872.205 353.968 872.091 354.568 871.863 355.156C871.647 355.744 871.317 356.278 870.873 356.758C870.441 357.226 869.907 357.604 869.271 357.892C868.635 358.18 867.897 358.324 867.057 358.324ZM867.057 356.776C867.777 356.776 868.389 356.62 868.893 356.308C869.409 355.984 869.799 355.552 870.063 355.012C870.339 354.472 870.477 353.866 870.477 353.194C870.477 352.51 870.339 351.898 870.063 351.358C869.787 350.818 869.391 350.392 868.875 350.08C868.371 349.768 867.765 349.612 867.057 349.612C866.361 349.612 865.755 349.768 865.239 350.08C864.723 350.392 864.327 350.818 864.051 351.358C863.775 351.898 863.637 352.51 863.637 353.194C863.637 353.866 863.769 354.472 864.033 355.012C864.309 355.552 864.699 355.984 865.203 356.308C865.719 356.62 866.337 356.776 867.057 356.776ZM879.123 358.288C877.983 358.288 877.107 357.916 876.495 357.172C875.883 356.428 875.577 355.354 875.577 353.95V348.37H877.305V354.292C877.305 355.048 877.509 355.642 877.917 356.074C878.325 356.494 878.877 356.704 879.573 356.704C880.293 356.704 880.881 356.476 881.337 356.02C881.793 355.552 882.021 354.916 882.021 354.112V348.37H883.749V358H882.381V353.878H882.597C882.597 354.826 882.471 355.63 882.219 356.29C881.967 356.938 881.589 357.436 881.085 357.784C880.593 358.12 879.963 358.288 879.195 358.288H879.123ZM897.277 358.324C896.437 358.324 895.711 358.18 895.099 357.892C894.487 357.604 893.989 357.226 893.605 356.758C893.221 356.278 892.933 355.744 892.741 355.156C892.561 354.568 892.471 353.968 892.471 353.356V353.032C892.471 352.408 892.561 351.802 892.741 351.214C892.933 350.626 893.221 350.098 893.605 349.63C893.989 349.15 894.475 348.772 895.063 348.496C895.663 348.208 896.365 348.064 897.169 348.064C898.213 348.064 899.071 348.292 899.743 348.748C900.427 349.192 900.931 349.768 901.255 350.476C901.591 351.184 901.759 351.94 901.759 352.744V353.518H893.227V352.222H900.499L900.103 352.924C900.103 352.24 899.995 351.652 899.779 351.16C899.563 350.656 899.239 350.266 898.807 349.99C898.375 349.714 897.829 349.576 897.169 349.576C896.485 349.576 895.915 349.732 895.459 350.044C895.015 350.356 894.679 350.782 894.451 351.322C894.235 351.862 894.127 352.486 894.127 353.194C894.127 353.878 894.235 354.496 894.451 355.048C894.679 355.588 895.027 356.02 895.495 356.344C895.963 356.656 896.557 356.812 897.277 356.812C898.033 356.812 898.645 356.644 899.113 356.308C899.593 355.972 899.881 355.582 899.977 355.138H901.597C901.465 355.798 901.201 356.368 900.805 356.848C900.409 357.328 899.911 357.694 899.311 357.946C898.711 358.198 898.033 358.324 897.277 358.324ZM905.213 358V348.388H906.581V352.51H906.365C906.365 351.562 906.491 350.764 906.743 350.116C907.007 349.456 907.403 348.958 907.931 348.622C908.459 348.274 909.125 348.1 909.929 348.1H910.001C911.213 348.1 912.107 348.478 912.683 349.234C913.271 349.99 913.565 351.082 913.565 352.51V358H911.837V352.15C911.837 351.406 911.627 350.812 911.207 350.368C910.787 349.912 910.211 349.684 909.479 349.684C908.723 349.684 908.111 349.918 907.643 350.386C907.175 350.854 906.941 351.478 906.941 352.258V358H905.213ZM916.034 361.672V360.124H917.042C917.498 360.124 917.846 359.998 918.086 359.746C918.338 359.494 918.464 359.146 918.464 358.702V348.388H920.12V358.45C920.12 359.254 920.006 359.89 919.778 360.358C919.562 360.826 919.208 361.162 918.716 361.366C918.236 361.57 917.594 361.672 916.79 361.672H916.034ZM916.952 349.756V348.388H920.12V349.756H916.952ZM918.878 346.696C918.494 346.696 918.206 346.594 918.014 346.39C917.834 346.186 917.744 345.928 917.744 345.616C917.744 345.304 917.834 345.046 918.014 344.842C918.206 344.638 918.494 344.536 918.878 344.536C919.262 344.536 919.544 344.638 919.724 344.842C919.916 345.046 920.012 345.304 920.012 345.616C920.012 345.928 919.916 346.186 919.724 346.39C919.544 346.594 919.262 346.696 918.878 346.696ZM928.867 358.324C928.027 358.324 927.289 358.18 926.653 357.892C926.017 357.604 925.477 357.226 925.033 356.758C924.601 356.278 924.271 355.744 924.043 355.156C923.827 354.568 923.719 353.968 923.719 353.356V353.032C923.719 352.42 923.833 351.82 924.061 351.232C924.289 350.632 924.625 350.098 925.069 349.63C925.513 349.15 926.053 348.772 926.689 348.496C927.325 348.208 928.051 348.064 928.867 348.064C929.683 348.064 930.409 348.208 931.045 348.496C931.681 348.772 932.221 349.15 932.665 349.63C933.109 350.098 933.445 350.632 933.673 351.232C933.901 351.82 934.015 352.42 934.015 353.032V353.356C934.015 353.968 933.901 354.568 933.673 355.156C933.457 355.744 933.127 356.278 932.683 356.758C932.251 357.226 931.717 357.604 931.081 357.892C930.445 358.18 929.707 358.324 928.867 358.324ZM928.867 356.776C929.587 356.776 930.199 356.62 930.703 356.308C931.219 355.984 931.609 355.552 931.873 355.012C932.149 354.472 932.287 353.866 932.287 353.194C932.287 352.51 932.149 351.898 931.873 351.358C931.597 350.818 931.201 350.392 930.685 350.08C930.181 349.768 929.575 349.612 928.867 349.612C928.171 349.612 927.565 349.768 927.049 350.08C926.533 350.392 926.137 350.818 925.861 351.358C925.585 351.898 925.447 352.51 925.447 353.194C925.447 353.866 925.579 354.472 925.843 355.012C926.119 355.552 926.509 355.984 927.013 356.308C927.529 356.62 928.147 356.776 928.867 356.776ZM936.779 361.744V360.196H938.165C938.573 360.196 938.915 360.142 939.191 360.034C939.479 359.938 939.713 359.77 939.893 359.53C940.085 359.29 940.241 358.972 940.361 358.576L943.385 348.388H945.077L941.873 359.026C941.681 359.662 941.411 360.178 941.063 360.574C940.715 360.982 940.289 361.276 939.785 361.456C939.293 361.648 938.717 361.744 938.057 361.744H936.779ZM939.713 357.784V356.344H941.801V357.784H939.713ZM939.533 357.784L936.095 348.388H937.859L941.153 357.784H939.533ZM952.181 358.324C951.341 358.324 950.615 358.18 950.003 357.892C949.391 357.604 948.893 357.226 948.509 356.758C948.125 356.278 947.837 355.744 947.645 355.156C947.465 354.568 947.375 353.968 947.375 353.356V353.032C947.375 352.408 947.465 351.802 947.645 351.214C947.837 350.626 948.125 350.098 948.509 349.63C948.893 349.15 949.379 348.772 949.967 348.496C950.567 348.208 951.269 348.064 952.073 348.064C953.117 348.064 953.975 348.292 954.647 348.748C955.331 349.192 955.835 349.768 956.159 350.476C956.495 351.184 956.663 351.94 956.663 352.744V353.518H948.131V352.222H955.403L955.007 352.924C955.007 352.24 954.899 351.652 954.683 351.16C954.467 350.656 954.143 350.266 953.711 349.99C953.279 349.714 952.733 349.576 952.073 349.576C951.389 349.576 950.819 349.732 950.363 350.044C949.919 350.356 949.583 350.782 949.355 351.322C949.139 351.862 949.031 352.486 949.031 353.194C949.031 353.878 949.139 354.496 949.355 355.048C949.583 355.588 949.931 356.02 950.399 356.344C950.867 356.656 951.461 356.812 952.181 356.812C952.937 356.812 953.549 356.644 954.017 356.308C954.497 355.972 954.785 355.582 954.881 355.138H956.501C956.369 355.798 956.105 356.368 955.709 356.848C955.313 357.328 954.815 357.694 954.215 357.946C953.615 358.198 952.937 358.324 952.181 358.324ZM964.131 358.324C963.447 358.324 962.817 358.198 962.241 357.946C961.665 357.694 961.161 357.34 960.729 356.884C960.309 356.428 959.979 355.9 959.739 355.3C959.511 354.7 959.397 354.052 959.397 353.356V353.032C959.397 352.348 959.511 351.706 959.739 351.106C959.967 350.506 960.285 349.978 960.693 349.522C961.113 349.066 961.605 348.712 962.169 348.46C962.745 348.196 963.381 348.064 964.077 348.064C964.809 348.064 965.475 348.22 966.075 348.532C966.675 348.832 967.167 349.306 967.551 349.954C967.935 350.602 968.151 351.442 968.199 352.474L967.479 351.322V344.86H969.207V358H967.839V353.734H968.343C968.295 354.826 968.067 355.714 967.659 356.398C967.251 357.07 966.735 357.562 966.111 357.874C965.499 358.174 964.839 358.324 964.131 358.324ZM964.365 356.812C964.953 356.812 965.487 356.68 965.967 356.416C966.447 356.152 966.831 355.774 967.119 355.282C967.407 354.778 967.551 354.19 967.551 353.518V352.69C967.551 352.03 967.401 351.472 967.101 351.016C966.813 350.548 966.423 350.194 965.931 349.954C965.451 349.702 964.923 349.576 964.347 349.576C963.711 349.576 963.147 349.726 962.655 350.026C962.175 350.326 961.797 350.746 961.521 351.286C961.257 351.826 961.125 352.462 961.125 353.194C961.125 353.926 961.263 354.568 961.539 355.12C961.815 355.66 962.199 356.08 962.691 356.38C963.183 356.668 963.741 356.812 964.365 356.812ZM978.623 361.6V348.388H979.991V352.546L979.667 352.51C979.727 351.478 979.943 350.638 980.315 349.99C980.699 349.33 981.197 348.844 981.809 348.532C982.421 348.22 983.087 348.064 983.807 348.064C984.503 348.064 985.133 348.196 985.697 348.46C986.273 348.724 986.765 349.084 987.173 349.54C987.581 349.996 987.893 350.524 988.109 351.124C988.325 351.724 988.433 352.36 988.433 353.032V353.356C988.433 354.028 988.319 354.664 988.091 355.264C987.863 355.864 987.539 356.392 987.119 356.848C986.711 357.304 986.219 357.664 985.643 357.928C985.079 358.192 984.455 358.324 983.771 358.324C983.087 358.324 982.433 358.174 981.809 357.874C981.185 357.574 980.669 357.088 980.261 356.416C979.853 355.744 979.619 354.862 979.559 353.77L980.351 355.21V361.6H978.623ZM983.501 356.812C984.149 356.812 984.713 356.662 985.193 356.362C985.673 356.05 986.045 355.624 986.309 355.084C986.573 354.532 986.705 353.902 986.705 353.194C986.705 352.474 986.573 351.844 986.309 351.304C986.045 350.764 985.673 350.344 985.193 350.044C984.713 349.732 984.149 349.576 983.501 349.576C982.925 349.576 982.391 349.708 981.899 349.972C981.407 350.224 981.011 350.596 980.711 351.088C980.423 351.568 980.279 352.15 980.279 352.834V353.662C980.279 354.322 980.429 354.886 980.729 355.354C981.029 355.822 981.425 356.182 981.917 356.434C982.409 356.686 982.937 356.812 983.501 356.812ZM992.141 358V344.86H993.869V358H992.141ZM990.809 346.228V344.86H993.869V346.228H990.809ZM1004 358V355.12H1003.71V351.79C1003.71 351.13 1003.54 350.632 1003.19 350.296C1002.85 349.96 1002.35 349.792 1001.69 349.792C1001.32 349.792 1000.94 349.798 1000.54 349.81C1000.15 349.822 999.767 349.834 999.407 349.846C999.047 349.858 998.735 349.876 998.471 349.9V348.388C998.735 348.364 999.011 348.346 999.299 348.334C999.599 348.31 999.905 348.298 1000.22 348.298C1000.53 348.286 1000.83 348.28 1001.12 348.28C1002.1 348.28 1002.91 348.4 1003.53 348.64C1004.15 348.868 1004.62 349.246 1004.92 349.774C1005.22 350.302 1005.37 351.016 1005.37 351.916V358H1004ZM1000.85 358.252C1000.13 358.252 999.503 358.132 998.975 357.892C998.459 357.64 998.057 357.28 997.769 356.812C997.493 356.344 997.355 355.78 997.355 355.12C997.355 354.436 997.505 353.866 997.805 353.41C998.117 352.954 998.567 352.612 999.155 352.384C999.743 352.144 1000.45 352.024 1001.28 352.024H1003.89V353.32H1001.21C1000.51 353.32 999.977 353.488 999.605 353.824C999.233 354.16 999.047 354.592 999.047 355.12C999.047 355.648 999.233 356.074 999.605 356.398C999.977 356.722 1000.51 356.884 1001.21 356.884C1001.62 356.884 1002.01 356.812 1002.38 356.668C1002.75 356.512 1003.06 356.26 1003.3 355.912C1003.55 355.552 1003.69 355.06 1003.71 354.436L1004.18 355.12C1004.12 355.804 1003.95 356.38 1003.67 356.848C1003.41 357.304 1003.04 357.652 1002.56 357.892C1002.09 358.132 1001.52 358.252 1000.85 358.252ZM1008.85 361.744V360.196H1010.24C1010.65 360.196 1010.99 360.142 1011.27 360.034C1011.55 359.938 1011.79 359.77 1011.97 359.53C1012.16 359.29 1012.32 358.972 1012.44 358.576L1015.46 348.388H1017.15L1013.95 359.026C1013.76 359.662 1013.49 360.178 1013.14 360.574C1012.79 360.982 1012.36 361.276 1011.86 361.456C1011.37 361.648 1010.79 361.744 1010.13 361.744H1008.85ZM1011.79 357.784V356.344H1013.88V357.784H1011.79ZM1011.61 357.784L1008.17 348.388H1009.93L1013.23 357.784H1011.61ZM1020.81 358V348.388H1022.54V358H1020.81ZM1019.34 349.756V348.388H1022.54V349.756H1019.34ZM1021.3 346.84C1020.92 346.84 1020.63 346.738 1020.44 346.534C1020.26 346.33 1020.17 346.072 1020.17 345.76C1020.17 345.448 1020.26 345.19 1020.44 344.986C1020.63 344.782 1020.92 344.68 1021.3 344.68C1021.68 344.68 1021.97 344.782 1022.15 344.986C1022.34 345.19 1022.43 345.448 1022.43 345.76C1022.43 346.072 1022.34 346.33 1022.15 346.534C1021.97 346.738 1021.68 346.84 1021.3 346.84ZM1026.88 358V348.388H1028.25V352.51H1028.03C1028.03 351.562 1028.16 350.764 1028.41 350.116C1028.68 349.456 1029.07 348.958 1029.6 348.622C1030.13 348.274 1030.79 348.1 1031.6 348.1H1031.67C1032.88 348.1 1033.78 348.478 1034.35 349.234C1034.94 349.99 1035.23 351.082 1035.23 352.51V358H1033.51V352.15C1033.51 351.406 1033.3 350.812 1032.88 350.368C1032.46 349.912 1031.88 349.684 1031.15 349.684C1030.39 349.684 1029.78 349.918 1029.31 350.386C1028.84 350.854 1028.61 351.478 1028.61 352.258V358H1026.88ZM1043.03 361.744C1042.59 361.744 1042.14 361.726 1041.68 361.69C1041.24 361.654 1040.81 361.606 1040.4 361.546V360.088C1040.84 360.148 1041.29 360.196 1041.75 360.232C1042.23 360.28 1042.68 360.304 1043.1 360.304C1043.98 360.304 1044.68 360.184 1045.19 359.944C1045.72 359.716 1046.1 359.35 1046.33 358.846C1046.57 358.354 1046.69 357.718 1046.69 356.938V355.102L1047.26 353.734C1047.23 354.706 1047.02 355.516 1046.65 356.164C1046.28 356.8 1045.79 357.28 1045.19 357.604C1044.6 357.916 1043.95 358.072 1043.23 358.072C1042.56 358.072 1041.94 357.946 1041.38 357.694C1040.82 357.43 1040.34 357.07 1039.94 356.614C1039.54 356.158 1039.23 355.636 1039 355.048C1038.78 354.448 1038.68 353.818 1038.68 353.158V352.834C1038.68 352.162 1038.79 351.538 1039.02 350.962C1039.25 350.374 1039.56 349.864 1039.97 349.432C1040.38 349 1040.87 348.664 1041.43 348.424C1042.01 348.184 1042.64 348.064 1043.32 348.064C1044.12 348.064 1044.83 348.238 1045.44 348.586C1046.06 348.922 1046.54 349.42 1046.88 350.08C1047.24 350.728 1047.44 351.526 1047.48 352.474L1046.97 352.492V348.388H1048.34V356.866C1048.34 358.018 1048.16 358.948 1047.8 359.656C1047.45 360.376 1046.89 360.904 1046.11 361.24C1045.34 361.576 1044.32 361.744 1043.03 361.744ZM1043.55 356.488C1044.13 356.488 1044.65 356.362 1045.12 356.11C1045.6 355.858 1045.98 355.498 1046.25 355.03C1046.54 354.55 1046.69 353.98 1046.69 353.32V352.492C1046.69 351.844 1046.54 351.298 1046.24 350.854C1045.95 350.41 1045.57 350.074 1045.1 349.846C1044.63 349.618 1044.12 349.504 1043.57 349.504C1042.95 349.504 1042.4 349.648 1041.92 349.936C1041.44 350.224 1041.06 350.632 1040.8 351.16C1040.54 351.676 1040.4 352.288 1040.4 352.996C1040.4 353.704 1040.54 354.322 1040.8 354.85C1041.08 355.378 1041.45 355.786 1041.92 356.074C1042.4 356.35 1042.94 356.488 1043.55 356.488ZM612.4 383.108C611.68 383.108 611.056 383.006 610.528 382.802C610.012 382.598 609.61 382.25 609.322 381.758C609.046 381.254 608.908 380.576 608.908 379.724V370.472H610.564V379.94C610.564 380.456 610.702 380.858 610.978 381.146C611.266 381.422 611.668 381.56 612.184 381.56H613.876V383.108H612.4ZM607.252 374.684V373.388H613.876V374.684H607.252ZM617.32 383V369.86H619.048V377.708H618.616C618.616 376.76 618.736 375.944 618.976 375.26C619.228 374.564 619.612 374.03 620.128 373.658C620.644 373.286 621.304 373.1 622.108 373.1H622.18C623.332 373.1 624.202 373.484 624.79 374.252C625.378 375.008 625.672 376.094 625.672 377.51V383H623.944V377.15C623.944 376.37 623.722 375.764 623.278 375.332C622.846 374.9 622.282 374.684 621.586 374.684C620.818 374.684 620.2 374.942 619.732 375.458C619.276 375.962 619.048 376.628 619.048 377.456V383H617.32ZM633.92 383.324C633.08 383.324 632.354 383.18 631.742 382.892C631.13 382.604 630.632 382.226 630.248 381.758C629.864 381.278 629.576 380.744 629.384 380.156C629.204 379.568 629.114 378.968 629.114 378.356V378.032C629.114 377.408 629.204 376.802 629.384 376.214C629.576 375.626 629.864 375.098 630.248 374.63C630.632 374.15 631.118 373.772 631.706 373.496C632.306 373.208 633.008 373.064 633.812 373.064C634.856 373.064 635.714 373.292 636.386 373.748C637.07 374.192 637.574 374.768 637.898 375.476C638.234 376.184 638.402 376.94 638.402 377.744V378.518H629.87V377.222H637.142L636.746 377.924C636.746 377.24 636.638 376.652 636.422 376.16C636.206 375.656 635.882 375.266 635.45 374.99C635.018 374.714 634.472 374.576 633.812 374.576C633.128 374.576 632.558 374.732 632.102 375.044C631.658 375.356 631.322 375.782 631.094 376.322C630.878 376.862 630.77 377.486 630.77 378.194C630.77 378.878 630.878 379.496 631.094 380.048C631.322 380.588 631.67 381.02 632.138 381.344C632.606 381.656 633.2 381.812 633.92 381.812C634.676 381.812 635.288 381.644 635.756 381.308C636.236 380.972 636.524 380.582 636.62 380.138H638.24C638.108 380.798 637.844 381.368 637.448 381.848C637.052 382.328 636.554 382.694 635.954 382.946C635.354 383.198 634.676 383.324 633.92 383.324ZM649.759 383L651.703 373.712H654.043L656.311 383H654.835L652.567 373.748H653.143L651.181 383H649.759ZM648.877 383V381.632H650.875V383H648.877ZM648.481 383L645.763 373.388H647.419L650.065 383H648.481ZM655.195 383V381.632H657.193V383H655.195ZM656.005 383L658.309 373.388H659.875L657.517 383H656.005ZM668.952 383V380.12H668.664V376.79C668.664 376.13 668.49 375.632 668.142 375.296C667.806 374.96 667.308 374.792 666.648 374.792C666.276 374.792 665.892 374.798 665.496 374.81C665.1 374.822 664.722 374.834 664.362 374.846C664.002 374.858 663.69 374.876 663.426 374.9V373.388C663.69 373.364 663.966 373.346 664.254 373.334C664.554 373.31 664.86 373.298 665.172 373.298C665.484 373.286 665.784 373.28 666.072 373.28C667.056 373.28 667.86 373.4 668.484 373.64C669.108 373.868 669.57 374.246 669.87 374.774C670.17 375.302 670.32 376.016 670.32 376.916V383H668.952ZM665.802 383.252C665.082 383.252 664.458 383.132 663.93 382.892C663.414 382.64 663.012 382.28 662.724 381.812C662.448 381.344 662.31 380.78 662.31 380.12C662.31 379.436 662.46 378.866 662.76 378.41C663.072 377.954 663.522 377.612 664.11 377.384C664.698 377.144 665.406 377.024 666.234 377.024H668.844V378.32H666.162C665.466 378.32 664.932 378.488 664.56 378.824C664.188 379.16 664.002 379.592 664.002 380.12C664.002 380.648 664.188 381.074 664.56 381.398C664.932 381.722 665.466 381.884 666.162 381.884C666.57 381.884 666.96 381.812 667.332 381.668C667.704 381.512 668.01 381.26 668.25 380.912C668.502 380.552 668.64 380.06 668.664 379.436L669.132 380.12C669.072 380.804 668.904 381.38 668.628 381.848C668.364 382.304 667.992 382.652 667.512 382.892C667.044 383.132 666.474 383.252 665.802 383.252ZM676.509 383L673.233 373.388H675.033L678.237 383H676.509ZM676.941 383V381.632H679.029V383H676.941ZM677.769 383L680.559 373.388H682.251L679.407 383H677.769ZM691.631 383.324C690.611 383.324 689.687 383.156 688.859 382.82C688.031 382.484 687.317 382.01 686.717 381.398C686.129 380.786 685.673 380.066 685.349 379.238C685.025 378.398 684.863 377.486 684.863 376.502V376.106C684.863 375.266 685.007 374.456 685.295 373.676C685.595 372.884 686.021 372.176 686.573 371.552C687.137 370.916 687.821 370.418 688.625 370.058C689.429 369.686 690.335 369.5 691.343 369.5C692.435 369.5 693.407 369.71 694.259 370.13C695.111 370.538 695.795 371.114 696.311 371.858C696.827 372.59 697.127 373.442 697.211 374.414H695.411C695.327 373.682 695.087 373.076 694.691 372.596C694.295 372.104 693.803 371.738 693.215 371.498C692.639 371.246 692.015 371.12 691.343 371.12C690.659 371.12 690.029 371.246 689.453 371.498C688.877 371.738 688.379 372.086 687.959 372.542C687.551 372.998 687.233 373.544 687.005 374.18C686.777 374.816 686.663 375.53 686.663 376.322C686.663 377.222 686.783 378.014 687.023 378.698C687.275 379.37 687.623 379.934 688.067 380.39C688.511 380.834 689.033 381.17 689.633 381.398C690.245 381.626 690.911 381.74 691.631 381.74C692.651 381.74 693.545 381.536 694.313 381.128C695.093 380.708 695.681 380.168 696.077 379.508L695.429 381.65V377.744H697.085V380.876C696.497 381.644 695.741 382.244 694.817 382.676C693.893 383.108 692.831 383.324 691.631 383.324ZM691.163 378.104V376.628H698.201V378.104H691.163ZM707.284 383V380.12H706.996V376.79C706.996 376.13 706.822 375.632 706.474 375.296C706.138 374.96 705.64 374.792 704.98 374.792C704.608 374.792 704.224 374.798 703.828 374.81C703.432 374.822 703.054 374.834 702.694 374.846C702.334 374.858 702.022 374.876 701.758 374.9V373.388C702.022 373.364 702.298 373.346 702.586 373.334C702.886 373.31 703.192 373.298 703.504 373.298C703.816 373.286 704.116 373.28 704.404 373.28C705.388 373.28 706.192 373.4 706.816 373.64C707.44 373.868 707.902 374.246 708.202 374.774C708.502 375.302 708.652 376.016 708.652 376.916V383H707.284ZM704.134 383.252C703.414 383.252 702.79 383.132 702.262 382.892C701.746 382.64 701.344 382.28 701.056 381.812C700.78 381.344 700.642 380.78 700.642 380.12C700.642 379.436 700.792 378.866 701.092 378.41C701.404 377.954 701.854 377.612 702.442 377.384C703.03 377.144 703.738 377.024 704.566 377.024H707.176V378.32H704.494C703.798 378.32 703.264 378.488 702.892 378.824C702.52 379.16 702.334 379.592 702.334 380.12C702.334 380.648 702.52 381.074 702.892 381.398C703.264 381.722 703.798 381.884 704.494 381.884C704.902 381.884 705.292 381.812 705.664 381.668C706.036 381.512 706.342 381.26 706.582 380.912C706.834 380.552 706.972 380.06 706.996 379.436L707.464 380.12C707.404 380.804 707.236 381.38 706.96 381.848C706.696 382.304 706.324 382.652 705.844 382.892C705.376 383.132 704.806 383.252 704.134 383.252ZM712.824 383V373.388H714.192V377.51H713.976C713.976 376.574 714.096 375.782 714.336 375.134C714.588 374.474 714.96 373.97 715.452 373.622C715.944 373.274 716.568 373.1 717.324 373.1H717.396C718.152 373.1 718.776 373.274 719.268 373.622C719.772 373.97 720.144 374.474 720.384 375.134C720.624 375.782 720.744 376.574 720.744 377.51H720.24C720.24 376.574 720.366 375.782 720.618 375.134C720.87 374.474 721.242 373.97 721.734 373.622C722.238 373.274 722.868 373.1 723.624 373.1H723.696C724.452 373.1 725.082 373.274 725.586 373.622C726.09 373.97 726.462 374.474 726.702 375.134C726.954 375.782 727.08 376.574 727.08 377.51V383H725.352V377.132C725.352 376.352 725.16 375.752 724.776 375.332C724.392 374.9 723.858 374.684 723.174 374.684C722.466 374.684 721.896 374.912 721.464 375.368C721.032 375.812 720.816 376.436 720.816 377.24V383H719.088V377.132C719.088 376.352 718.896 375.752 718.512 375.332C718.128 374.9 717.594 374.684 716.91 374.684C716.202 374.684 715.632 374.912 715.2 375.368C714.768 375.812 714.552 376.436 714.552 377.24V383H712.824ZM735.33 383.324C734.49 383.324 733.764 383.18 733.152 382.892C732.54 382.604 732.042 382.226 731.658 381.758C731.274 381.278 730.986 380.744 730.794 380.156C730.614 379.568 730.524 378.968 730.524 378.356V378.032C730.524 377.408 730.614 376.802 730.794 376.214C730.986 375.626 731.274 375.098 731.658 374.63C732.042 374.15 732.528 373.772 733.116 373.496C733.716 373.208 734.418 373.064 735.222 373.064C736.266 373.064 737.124 373.292 737.796 373.748C738.48 374.192 738.984 374.768 739.308 375.476C739.644 376.184 739.812 376.94 739.812 377.744V378.518H731.28V377.222H738.552L738.156 377.924C738.156 377.24 738.048 376.652 737.832 376.16C737.616 375.656 737.292 375.266 736.86 374.99C736.428 374.714 735.882 374.576 735.222 374.576C734.538 374.576 733.968 374.732 733.512 375.044C733.068 375.356 732.732 375.782 732.504 376.322C732.288 376.862 732.18 377.486 732.18 378.194C732.18 378.878 732.288 379.496 732.504 380.048C732.732 380.588 733.08 381.02 733.548 381.344C734.016 381.656 734.61 381.812 735.33 381.812C736.086 381.812 736.698 381.644 737.166 381.308C737.646 380.972 737.934 380.582 738.03 380.138H739.65C739.518 380.798 739.254 381.368 738.858 381.848C738.462 382.328 737.964 382.694 737.364 382.946C736.764 383.198 736.086 383.324 735.33 383.324ZM742.783 383V380.804H744.871V383H742.783Z" fill="#F5F5F5"/>
<path d="M260.75 202V196.625V191.25V185.875V180.5H255.375H250V175.125H255.375H260.75H266.125H271.5H276.875V180.5H271.5H266.125V185.875V191.25V196.625V202H260.75ZM309.125 202V196.625V191.25H303.75H298.375H293V196.625V202H287.625V196.625V191.25V185.875V180.5V175.125H293V180.5V185.875H298.375H303.75H309.125V180.5V175.125H314.5V180.5V185.875V191.25V196.625V202H309.125ZM346.75 196.625H352.125V202H346.75H341.375H336H330.625H325.25V196.625V191.25V185.875V180.5V175.125H330.625H336H341.375H346.75H352.125V180.5H346.75H341.375H336H330.625V185.875H336H341.375H346.75V191.25H341.375H336H330.625V196.625H336H341.375H346.75ZM411.25 202V196.625H405.875V191.25H411.25V185.875V180.5V175.125H416.625V180.5V185.875V191.25V196.625V202H411.25ZM389.75 202V196.625V191.25V185.875V180.5V175.125H395.125V180.5V185.875V191.25H400.5V196.625H395.125V202H389.75ZM405.875 191.25H400.5V185.875H405.875V191.25ZM448.875 202V196.625V191.25H443.5H438.125H432.75V196.625V202H427.375V196.625V191.25V185.875V180.5H432.75V185.875H438.125H443.5H448.875V180.5H454.25V185.875V191.25V196.625V202H448.875ZM448.875 180.5H443.5H438.125H432.75V175.125H438.125H443.5H448.875V180.5ZM475.75 202V196.625H481.125V202H475.75ZM481.125 196.625V191.25H486.5V196.625H481.125ZM475.75 196.625H470.375V191.25H475.75V196.625ZM486.5 191.25V185.875V180.5V175.125H491.875V180.5V185.875V191.25H486.5ZM470.375 191.25H465V185.875V180.5V175.125H470.375V180.5V185.875V191.25ZM524.125 202H518.75H513.375H508V196.625H513.375H518.75H524.125V191.25H518.75V185.875H524.125H529.5V191.25V196.625V202H524.125ZM508 196.625H502.625V191.25V185.875V180.5H508V185.875V191.25V196.625ZM524.125 175.125H529.5V180.5H524.125H518.75H513.375H508V175.125H513.375H518.75H524.125ZM561.75 202V196.625V191.25H556.375H551H545.625V196.625V202H540.25V196.625V191.25V185.875V180.5H545.625V185.875H551H556.375H561.75V180.5H567.125V185.875V191.25V196.625V202H561.75ZM561.75 180.5H556.375H551H545.625V175.125H551H556.375H561.75V180.5ZM599.375 202V196.625V191.25V185.875H594V191.25H588.625V185.875H594V180.5H599.375V175.125H604.75V180.5V185.875V191.25V196.625V202H599.375ZM577.875 202V196.625V191.25V185.875V180.5V175.125H583.25V180.5H588.625V185.875H583.25V191.25V196.625V202H577.875ZM637 196.625H642.375V202H637H631.625H626.25H620.875H615.5V196.625V191.25V185.875V180.5V175.125H620.875H626.25H631.625H637H642.375V180.5H637H631.625H626.25H620.875V185.875H626.25H631.625H637V191.25H631.625H626.25H620.875V196.625H626.25H631.625H637ZM701.5 202V196.625V191.25H696.125H690.75H685.375V196.625V202H680V196.625V191.25V185.875V180.5V175.125H685.375V180.5V185.875H690.75H696.125H701.5V180.5V175.125H706.875V180.5V185.875V191.25V196.625V202H701.5ZM739.125 202V196.625V191.25H733.75H728.375H723V196.625V202H717.625V196.625V191.25V185.875V180.5H723V185.875H728.375H733.75H739.125V180.5H744.5V185.875V191.25V196.625V202H739.125ZM739.125 180.5H733.75H728.375H723V175.125H728.375H733.75H739.125V180.5ZM771.375 196.625H776.75V202H771.375H766H760.625H755.25V196.625H760.625H766H771.375ZM776.75 196.625V191.25H782.125V196.625H776.75ZM776.75 191.25H771.375H766H760.625V185.875H766H771.375H776.75V191.25ZM760.625 185.875H755.25V180.5H760.625V185.875ZM776.75 175.125H782.125V180.5H776.75H771.375H766H760.625V175.125H766H771.375H776.75ZM841.25 196.625H846.625V202H841.25H835.875H830.5H825.125H819.75V196.625V191.25V185.875V180.5V175.125H825.125H830.5H835.875H841.25H846.625V180.5H841.25H835.875H830.5H825.125V185.875H830.5H835.875H841.25V191.25H835.875H830.5H825.125V196.625H830.5H835.875H841.25ZM878.875 202V196.625H873.5V191.25H878.875V185.875V180.5V175.125H884.25V180.5V185.875V191.25V196.625V202H878.875ZM857.375 202V196.625V191.25V185.875V180.5V175.125H862.75V180.5H868.125V185.875H873.5V191.25H868.125V185.875H862.75V191.25V196.625V202H857.375ZM911.125 196.625H916.5V191.25V185.875V180.5H911.125H905.75H900.375V185.875V191.25V196.625H905.75H911.125ZM911.125 202H905.75H900.375H895V196.625V191.25V185.875V180.5V175.125H900.375H905.75H911.125H916.5V180.5H921.875V185.875V191.25V196.625H916.5V202H911.125ZM954.125 196.625H959.5V202H954.125H948.75H943.375H938H932.625V196.625V191.25V185.875V180.5V175.125H938H943.375H948.75H954.125H959.5V180.5H954.125H948.75H943.375H938V185.875H943.375H948.75H954.125V191.25H948.75H943.375H938V196.625H943.375H948.75H954.125ZM986.375 196.625H991.75V191.25V185.875V180.5H986.375H981H975.625V185.875V191.25V196.625H981H986.375ZM986.375 202H981H975.625H970.25V196.625V191.25V185.875V180.5V175.125H975.625H981H986.375H991.75V180.5H997.125V185.875V191.25V196.625H991.75V202H986.375Z" fill="url(#paint1_linear_3028_167494)"/>
<defs>
<linearGradient id="paint0_linear_3028_167494" x1="1842.93" y1="367.787" x2="1842.93" y2="673.361" gradientUnits="userSpaceOnUse">
<stop stop-color="#B83182"/>
<stop offset="1" stop-color="#C55562"/>
</linearGradient>
<linearGradient id="paint1_linear_3028_167494" x1="238.368" y1="188" x2="915.917" y2="191.758" gradientUnits="userSpaceOnUse">
<stop stop-color="#FE7A8B"/>
<stop offset="1" stop-color="#B721EB"/>
</linearGradient>
<clipPath id="clip0_3028_167494">
<rect width="61" height="63" fill="white" transform="translate(1033 385)"/>
</clipPath>
<clipPath id="clip1_3028_167494">
<rect width="46" height="48" fill="white" transform="translate(1069 431)"/>
</clipPath>
</defs>
</svg>
