<svg width="25" height="24" viewBox="0 0 25 24" fill="none" xmlns="http://www.w3.org/2000/svg">
<path fill-rule="evenodd" clip-rule="evenodd" d="M12.3849 0.363525C5.826 0.363525 0.523804 5.63434 0.523804 12.155C0.523804 17.3674 3.9211 21.7796 8.63406 23.3411C9.2233 23.4585 9.43914 23.0874 9.43914 22.7753C9.43914 22.5019 9.41972 21.5649 9.41972 20.5886C6.12026 21.2915 5.43317 19.183 5.43317 19.183C4.90293 17.8164 4.11728 17.4652 4.11728 17.4652C3.03736 16.7428 4.19594 16.7428 4.19594 16.7428C5.39384 16.8209 6.02241 17.9532 6.02241 17.9532C7.08266 19.7491 8.79114 19.2417 9.47847 18.9292C9.57655 18.1678 9.89096 17.6408 10.2248 17.348C7.59324 17.0746 4.82451 16.0595 4.82451 11.5302C4.82451 10.2417 5.29551 9.18758 6.04184 8.36773C5.92409 8.07496 5.51159 6.86435 6.15983 5.24406C6.15983 5.24406 7.16132 4.93164 9.41947 6.45443C10.3863 6.19632 11.3833 6.06501 12.3849 6.06391C13.3863 6.06391 14.4073 6.20071 15.35 6.45443C17.6084 4.93164 18.6099 5.24406 18.6099 5.24406C19.2581 6.86435 18.8454 8.07496 18.7276 8.36773C19.4936 9.18758 19.9452 10.2417 19.9452 11.5302C19.9452 16.0595 17.1765 17.055 14.5253 17.348C14.9574 17.7189 15.3303 18.4216 15.3303 19.5344C15.3303 21.1157 15.3109 22.3847 15.3109 22.775C15.3109 23.0874 15.527 23.4585 16.116 23.3414C20.8289 21.7793 24.2262 17.3674 24.2262 12.155C24.2457 5.63434 18.924 0.363525 12.3849 0.363525Z" fill="#F251BC"/>
</svg>
