<svg width="1260" height="479" viewBox="0 0 1260 479" fill="none" xmlns="http://www.w3.org/2000/svg">
<rect x="41.4999" y="79.2278" width="1218" height="307.272" rx="59.5" stroke="#631C4B"/>
<rect x="34.4999" y="72.1569" width="1213.44" height="304.574" rx="59.5" stroke="#8B2468"/>
<rect x="1213.5" y="350.5" width="1213" height="307" rx="59.5" transform="rotate(180 1213.5 350.5)" stroke="#832B2B"/>
<rect x="1223.95" y="357.843" width="1212.86" height="304.574" rx="59.5" transform="rotate(180 1223.95 357.843)" stroke="#AF4047"/>
<rect x="1235.5" y="367.287" width="1212.86" height="304.574" rx="57.5" transform="rotate(180 1235.5 367.287)" fill="#262020" stroke="url(#paint0_linear_2619_161328)"/>
<g opacity="0.39">
<path d="M1078.81 42.5C1078.81 39.1759 1078.16 35.8844 1076.89 32.8133C1075.61 29.7423 1073.75 26.9518 1071.4 24.6014C1069.05 22.2509 1066.26 20.3864 1063.19 19.1143C1060.12 17.8422 1056.82 17.1875 1053.5 17.1875C1050.18 17.1875 1046.88 17.8422 1043.81 19.1143C1040.74 20.3864 1037.95 22.2509 1035.6 24.6014C1033.25 26.9518 1031.39 29.7423 1030.11 32.8133C1028.84 35.8844 1028.19 39.1759 1028.19 42.5H1032.76C1032.76 39.7762 1033.3 37.0792 1034.34 34.5627C1035.38 32.0463 1036.91 29.7598 1038.83 27.8339C1040.76 25.9079 1043.05 24.3801 1045.56 23.3378C1048.08 22.2954 1050.78 21.7589 1053.5 21.7589C1056.22 21.7589 1058.92 22.2954 1061.44 23.3378C1063.95 24.3801 1066.24 25.9079 1068.17 27.8339C1070.09 29.7598 1071.62 32.0463 1072.66 34.5627C1073.7 37.0792 1074.24 39.7762 1074.24 42.5H1078.81Z" fill="#832B2B"/>
<path d="M1086.69 42.5C1086.69 38.1418 1085.83 33.8262 1084.16 29.7997C1082.49 25.7732 1080.05 22.1146 1076.97 19.0329C1073.89 15.9511 1070.23 13.5066 1066.2 11.8387C1062.17 10.1709 1057.86 9.31249 1053.5 9.31249C1049.14 9.31249 1044.83 10.1709 1040.8 11.8387C1036.77 13.5066 1033.11 15.9511 1030.03 19.0329C1026.95 22.1146 1024.51 25.7732 1022.84 29.7997C1021.17 33.8262 1020.31 38.1418 1020.31 42.5H1024.43C1024.43 38.6826 1025.18 34.9026 1026.64 31.3758C1028.1 27.849 1030.25 24.6445 1032.95 21.9452C1035.64 19.2459 1038.85 17.1047 1042.38 15.6438C1045.9 14.183 1049.68 13.4311 1053.5 13.4311C1057.32 13.4311 1061.1 14.183 1064.62 15.6438C1068.15 17.1047 1071.36 19.2459 1074.05 21.9452C1076.75 24.6445 1078.9 27.849 1080.36 31.3758C1081.82 34.9026 1082.57 38.6826 1082.57 42.5H1086.69Z" fill="#AF4047"/>
<path d="M1094 42.5C1094 37.1815 1092.95 31.915 1090.92 27.0013C1088.88 22.0876 1085.9 17.6229 1082.14 13.8622C1078.38 10.1014 1073.91 7.11819 1069 5.08288C1064.08 3.04756 1058.82 2 1053.5 2C1048.18 2 1042.92 3.04756 1038 5.08288C1033.09 7.11819 1028.62 10.1014 1024.86 13.8622C1021.1 17.6229 1018.12 22.0876 1016.08 27.0013C1014.05 31.915 1013 37.1815 1013 42.5H1016.73C1016.73 37.6708 1017.68 32.8888 1019.53 28.4272C1021.37 23.9656 1024.08 19.9116 1027.5 16.4969C1030.91 13.0821 1034.97 10.3733 1039.43 8.52525C1043.89 6.67719 1048.67 5.72601 1053.5 5.72601C1058.33 5.726 1063.11 6.67719 1067.57 8.52525C1072.03 10.3733 1076.09 13.0821 1079.5 16.4969C1082.92 19.9116 1085.63 23.9656 1087.47 28.4272C1089.32 32.8888 1090.27 37.6708 1090.27 42.5H1094Z" fill="#C55662"/>
</g>
<g opacity="0.48">
<path d="M1129.44 53.5C1129.44 57.5628 1128.64 61.5858 1127.08 65.3393C1125.53 69.0928 1123.25 72.5033 1120.38 75.3761C1117.5 78.2489 1114.09 80.5278 1110.34 82.0825C1106.59 83.6373 1102.56 84.4375 1098.5 84.4375C1094.44 84.4375 1090.41 83.6373 1086.66 82.0825C1082.91 80.5278 1079.5 78.2489 1076.62 75.3761C1073.75 72.5033 1071.47 69.0928 1069.92 65.3393C1068.36 61.5858 1067.56 57.5628 1067.56 53.5H1073.15C1073.15 56.829 1073.81 60.1255 1075.08 63.2011C1076.35 66.2767 1078.22 69.0713 1080.57 71.4253C1082.93 73.7793 1085.72 75.6466 1088.8 76.9205C1091.87 78.1945 1095.17 78.8502 1098.5 78.8502C1101.83 78.8502 1105.13 78.1945 1108.2 76.9205C1111.28 75.6466 1114.07 73.7793 1116.43 71.4253C1118.78 69.0713 1120.65 66.2767 1121.92 63.2011C1123.19 60.1255 1123.85 56.829 1123.85 53.5H1129.44Z" fill="#812572"/>
<path d="M1139.06 53.5C1139.06 58.8267 1138.01 64.1013 1135.97 69.0226C1133.94 73.9439 1130.95 78.4155 1127.18 82.182C1123.42 85.9486 1118.94 88.9364 1114.02 90.9749C1109.1 93.0133 1103.83 94.0625 1098.5 94.0625C1093.17 94.0625 1087.9 93.0133 1082.98 90.9749C1078.06 88.9364 1073.58 85.9486 1069.82 82.182C1066.05 78.4154 1063.06 73.9439 1061.03 69.0226C1058.99 64.1013 1057.94 58.8267 1057.94 53.5H1062.97C1062.97 58.1657 1063.89 62.7857 1065.68 67.0962C1067.46 71.4068 1070.08 75.3234 1073.38 78.6226C1076.68 81.9217 1080.59 84.5387 1084.9 86.3242C1089.21 88.1097 1093.83 89.0287 1098.5 89.0287C1103.17 89.0287 1107.79 88.1097 1112.1 86.3242C1116.41 84.5388 1120.32 81.9217 1123.62 78.6226C1126.92 75.3234 1129.54 71.4068 1131.32 67.0962C1133.11 62.7857 1134.03 58.1657 1134.03 53.5H1139.06Z" fill="#A22787"/>
<path d="M1148 53.5C1148 60.0004 1146.72 66.4372 1144.23 72.4428C1141.74 78.4484 1138.1 83.9053 1133.5 88.5018C1128.91 93.0983 1123.45 96.7444 1117.44 99.232C1111.44 101.72 1105 103 1098.5 103C1092 103 1085.56 101.72 1079.56 99.232C1073.55 96.7444 1068.09 93.0983 1063.5 88.5018C1058.9 83.9053 1055.26 78.4484 1052.77 72.4428C1050.28 66.4372 1049 60.0004 1049 53.5H1053.55C1053.55 59.4024 1054.72 65.247 1056.98 70.7001C1059.23 76.1532 1062.54 81.108 1066.72 85.2816C1070.89 89.4552 1075.85 92.7659 1081.3 95.0247C1086.75 97.2834 1092.6 98.446 1098.5 98.446C1104.4 98.446 1110.25 97.2834 1115.7 95.0247C1121.15 92.7659 1126.11 89.4552 1130.28 85.2816C1134.46 81.108 1137.77 76.1532 1140.02 70.7001C1142.28 65.247 1143.45 59.4024 1143.45 53.5H1148Z" fill="#B83182"/>
</g>
<rect x="1138.5" y="423.5" width="577" height="132" rx="44.5" transform="rotate(180 1138.5 423.5)" fill="#272121" stroke="#88292F"/>
<rect x="1131.5" y="416.5" width="581" height="132" rx="40.5" transform="rotate(180 1131.5 416.5)" fill="#272121" stroke="#B83182"/>
<path d="M390.541 366.396C390.541 359.073 389.099 351.822 386.296 345.056C383.494 338.29 379.386 332.143 374.208 326.965C369.03 321.786 362.882 317.679 356.117 314.876C349.351 312.074 342.1 310.631 334.776 310.631C327.453 310.631 320.202 312.074 313.436 314.876C306.671 317.679 300.523 321.786 295.345 326.965C290.167 332.143 286.059 338.29 283.257 345.056C280.454 351.822 279.012 359.073 279.012 366.396H289.083C289.083 360.396 290.265 354.454 292.561 348.91C294.857 343.366 298.223 338.329 302.466 334.086C306.709 329.843 311.746 326.477 317.29 324.181C322.834 321.884 328.776 320.703 334.776 320.703C340.777 320.703 346.719 321.884 352.263 324.181C357.806 326.477 362.844 329.843 367.087 334.086C371.33 338.329 374.696 343.366 376.992 348.91C379.288 354.454 380.47 360.396 380.47 366.396H390.541Z" fill="#812572"/>
<path d="M407.89 366.396C407.89 356.795 405.999 347.287 402.325 338.417C398.65 329.546 393.265 321.486 386.476 314.697C379.686 307.908 371.626 302.522 362.756 298.848C353.885 295.174 344.378 293.282 334.776 293.282C325.175 293.282 315.668 295.174 306.797 298.848C297.926 302.522 289.866 307.908 283.077 314.697C276.288 321.486 270.902 329.546 267.228 338.417C263.554 347.287 261.663 356.795 261.663 366.396H270.736C270.736 357.986 272.392 349.659 275.611 341.889C278.829 334.119 283.546 327.06 289.493 321.113C295.44 315.166 302.499 310.449 310.269 307.231C318.039 304.012 326.366 302.356 334.776 302.356C343.186 302.356 351.514 304.012 359.284 307.231C367.053 310.449 374.113 315.166 380.06 321.113C386.006 327.06 390.724 334.119 393.942 341.889C397.16 349.659 398.817 357.986 398.817 366.396H407.89Z" fill="#A22787"/>
<path d="M424 366.396C424 354.679 421.692 343.077 417.208 332.252C412.724 321.427 406.152 311.591 397.867 303.306C389.582 295.02 379.746 288.448 368.921 283.964C358.096 279.48 346.493 277.173 334.776 277.173C323.059 277.173 311.457 279.48 300.632 283.964C289.807 288.448 279.971 295.02 271.686 303.306C263.401 311.591 256.828 321.427 252.344 332.252C247.861 343.077 245.553 354.679 245.553 366.396H253.761C253.761 355.757 255.857 345.222 259.928 335.393C264 325.564 269.967 316.633 277.49 309.11C285.013 301.587 293.944 295.619 303.773 291.548C313.602 287.477 324.137 285.381 334.776 285.381C345.415 285.381 355.95 287.477 365.779 291.548C375.609 295.619 384.54 301.587 392.063 309.11C399.586 316.633 405.553 325.564 409.624 335.393C413.696 345.222 415.791 355.757 415.791 366.396H424Z" fill="#B83182"/>
<path d="M252.988 386.619C252.988 393.942 251.546 401.193 248.744 407.959C245.941 414.725 241.833 420.872 236.655 426.05C231.477 431.229 225.33 435.336 218.564 438.139C211.798 440.941 204.547 442.384 197.224 442.384C189.9 442.384 182.649 440.941 175.883 438.139C169.118 435.336 162.97 431.229 157.792 426.05C152.614 420.872 148.506 414.725 145.704 407.959C142.901 401.193 141.459 393.942 141.459 386.619H151.53C151.53 392.619 152.712 398.561 155.008 404.105C157.305 409.649 160.67 414.686 164.913 418.929C169.156 423.172 174.194 426.538 179.737 428.834C185.281 431.131 191.223 432.312 197.224 432.312C203.224 432.312 209.166 431.131 214.71 428.834C220.254 426.538 225.291 423.172 229.534 418.929C233.777 414.686 237.143 409.649 239.439 404.105C241.735 398.561 242.917 392.619 242.917 386.619H252.988Z" fill="#CE5262"/>
<path d="M270.337 386.619C270.337 396.22 268.446 405.728 264.772 414.598C261.098 423.469 255.712 431.529 248.923 438.318C242.134 445.107 234.074 450.493 225.203 454.167C216.332 457.842 206.825 459.733 197.224 459.733C187.622 459.733 178.115 457.842 169.244 454.167C160.374 450.493 152.314 445.107 145.524 438.318C138.735 431.529 133.35 423.469 129.675 414.598C126.001 405.728 124.11 396.22 124.11 386.619H133.183C133.183 395.029 134.84 403.356 138.058 411.126C141.276 418.896 145.993 425.956 151.94 431.902C157.887 437.849 164.947 442.566 172.716 445.784C180.486 449.003 188.814 450.659 197.224 450.659C205.633 450.659 213.961 449.003 221.731 445.784C229.5 442.566 236.56 437.849 242.507 431.902C248.454 425.956 253.171 418.896 256.389 411.126C259.607 403.356 261.264 395.029 261.264 386.619H270.337Z" fill="#AF4047"/>
<path d="M286.447 386.619C286.447 398.336 284.139 409.938 279.655 420.763C275.172 431.588 268.599 441.424 260.314 449.709C252.029 457.995 242.193 464.567 231.368 469.051C220.543 473.535 208.941 475.842 197.224 475.842C185.507 475.842 173.904 473.535 163.079 469.051C152.254 464.567 142.418 457.995 134.133 449.709C125.848 441.424 119.276 431.588 114.792 420.763C110.308 409.938 108 398.336 108 386.619H116.209C116.209 397.258 118.304 407.793 122.375 417.622C126.447 427.451 132.414 436.382 139.937 443.905C147.46 451.428 156.391 457.396 166.22 461.467C176.05 465.538 186.585 467.634 197.224 467.634C207.863 467.634 218.397 465.538 228.227 461.467C238.056 457.396 246.987 451.428 254.51 443.905C262.033 436.382 268 427.451 272.072 417.622C276.143 407.793 278.239 397.258 278.239 386.619H286.447Z" fill="#832B2B"/>
<path d="M152 107C152 104.239 149.761 102 147 102C144.239 102 142 104.239 142 107L152 107ZM152 366L152 107L142 107L142 366L152 366Z" fill="#CE5262"/>
<path d="M134 5C134 2.23859 131.761 -1.20706e-07 129 0C126.239 1.20706e-07 124 2.23859 124 5L134 5ZM134 366L134 5L124 5L124 366L134 366Z" fill="#AF4047"/>
<path d="M117 145C117 142.239 114.761 140 112 140C109.239 140 107 142.239 107 145L117 145ZM117 366L117 145L107 145L107 366L117 366Z" fill="#832B2B"/>
<g clip-path="url(#clip0_2619_161328)">
<mask id="mask0_2619_161328" style="mask-type:luminance" maskUnits="userSpaceOnUse" x="1033" y="385" width="61" height="63">
<path d="M1094 385H1033V448H1094V385Z" fill="white"/>
</mask>
<g mask="url(#mask0_2619_161328)">
<path d="M1063.5 448C1062.62 418.158 1061.9 417.417 1033 416.5C1061.9 415.588 1062.61 414.842 1063.5 385C1064.38 414.842 1065.1 415.583 1094 416.5C1065.1 417.417 1064.39 418.148 1063.5 448Z" fill="#F251BC"/>
</g>
</g>
<g clip-path="url(#clip1_2619_161328)">
<mask id="mask1_2619_161328" style="mask-type:luminance" maskUnits="userSpaceOnUse" x="1069" y="431" width="46" height="48">
<path d="M1115 431H1069V479H1115V431Z" fill="white"/>
</mask>
<g mask="url(#mask1_2619_161328)">
<path d="M1092 479C1091.33 456.263 1090.79 455.698 1069 455C1090.79 454.305 1091.33 453.737 1092 431C1092.67 453.737 1093.21 454.302 1115 455C1093.21 455.698 1092.67 456.256 1092 479Z" fill="#BF3948"/>
</g>
</g>
<path d="M610.312 328.428V326.88H613.246C613.87 326.88 614.386 326.76 614.794 326.52C615.202 326.268 615.508 325.932 615.712 325.512C615.928 325.092 616.036 324.624 616.036 324.108C616.036 323.58 615.928 323.106 615.712 322.686C615.508 322.266 615.202 321.936 614.794 321.696C614.386 321.456 613.87 321.336 613.246 321.336H610.312V319.788H612.922C614.002 319.788 614.902 319.962 615.622 320.31C616.354 320.646 616.906 321.126 617.278 321.75C617.65 322.374 617.836 323.112 617.836 323.964V324.252C617.836 325.092 617.65 325.83 617.278 326.466C616.906 327.09 616.354 327.576 615.622 327.924C614.902 328.26 614.002 328.428 612.922 328.428H610.312ZM608.908 333V319.788H610.672V333H608.908ZM621.278 333V319.86H623.006V333H621.278ZM619.946 321.228V319.86H623.006V321.228H619.946ZM633.134 333V330.12H632.846V326.79C632.846 326.13 632.672 325.632 632.324 325.296C631.988 324.96 631.49 324.792 630.83 324.792C630.458 324.792 630.074 324.798 629.678 324.81C629.282 324.822 628.904 324.834 628.544 324.846C628.184 324.858 627.872 324.876 627.608 324.9V323.388C627.872 323.364 628.148 323.346 628.436 323.334C628.736 323.31 629.042 323.298 629.354 323.298C629.666 323.286 629.966 323.28 630.254 323.28C631.238 323.28 632.042 323.4 632.666 323.64C633.29 323.868 633.752 324.246 634.052 324.774C634.352 325.302 634.502 326.016 634.502 326.916V333H633.134ZM629.984 333.252C629.264 333.252 628.64 333.132 628.112 332.892C627.596 332.64 627.194 332.28 626.906 331.812C626.63 331.344 626.492 330.78 626.492 330.12C626.492 329.436 626.642 328.866 626.942 328.41C627.254 327.954 627.704 327.612 628.292 327.384C628.88 327.144 629.588 327.024 630.416 327.024H633.026V328.32H630.344C629.648 328.32 629.114 328.488 628.742 328.824C628.37 329.16 628.184 329.592 628.184 330.12C628.184 330.648 628.37 331.074 628.742 331.398C629.114 331.722 629.648 331.884 630.344 331.884C630.752 331.884 631.142 331.812 631.514 331.668C631.886 331.512 632.192 331.26 632.432 330.912C632.684 330.552 632.822 330.06 632.846 329.436L633.314 330.12C633.254 330.804 633.086 331.38 632.81 331.848C632.546 332.304 632.174 332.652 631.694 332.892C631.226 333.132 630.656 333.252 629.984 333.252ZM637.99 336.744V335.196H639.376C639.784 335.196 640.126 335.142 640.402 335.034C640.69 334.938 640.924 334.77 641.104 334.53C641.296 334.29 641.452 333.972 641.572 333.576L644.596 323.388H646.288L643.084 334.026C642.892 334.662 642.622 335.178 642.274 335.574C641.926 335.982 641.5 336.276 640.996 336.456C640.504 336.648 639.928 336.744 639.268 336.744H637.99ZM640.924 332.784V331.344H643.012V332.784H640.924ZM640.744 332.784L637.306 323.388H639.07L642.364 332.784H640.744ZM658.322 333.108C657.602 333.108 656.978 333.006 656.45 332.802C655.934 332.598 655.532 332.25 655.244 331.758C654.968 331.254 654.83 330.576 654.83 329.724V320.472H656.486V329.94C656.486 330.456 656.624 330.858 656.9 331.146C657.188 331.422 657.59 331.56 658.106 331.56H659.798V333.108H658.322ZM653.174 324.684V323.388H659.798V324.684H653.174ZM667.6 333.324C666.76 333.324 666.022 333.18 665.386 332.892C664.75 332.604 664.21 332.226 663.766 331.758C663.334 331.278 663.004 330.744 662.776 330.156C662.56 329.568 662.452 328.968 662.452 328.356V328.032C662.452 327.42 662.566 326.82 662.794 326.232C663.022 325.632 663.358 325.098 663.802 324.63C664.246 324.15 664.786 323.772 665.422 323.496C666.058 323.208 666.784 323.064 667.6 323.064C668.416 323.064 669.142 323.208 669.778 323.496C670.414 323.772 670.954 324.15 671.398 324.63C671.842 325.098 672.178 325.632 672.406 326.232C672.634 326.82 672.748 327.42 672.748 328.032V328.356C672.748 328.968 672.634 329.568 672.406 330.156C672.19 330.744 671.86 331.278 671.416 331.758C670.984 332.226 670.45 332.604 669.814 332.892C669.178 333.18 668.44 333.324 667.6 333.324ZM667.6 331.776C668.32 331.776 668.932 331.62 669.436 331.308C669.952 330.984 670.342 330.552 670.606 330.012C670.882 329.472 671.02 328.866 671.02 328.194C671.02 327.51 670.882 326.898 670.606 326.358C670.33 325.818 669.934 325.392 669.418 325.08C668.914 324.768 668.308 324.612 667.6 324.612C666.904 324.612 666.298 324.768 665.782 325.08C665.266 325.392 664.87 325.818 664.594 326.358C664.318 326.898 664.18 327.51 664.18 328.194C664.18 328.866 664.312 329.472 664.576 330.012C664.852 330.552 665.242 330.984 665.746 331.308C666.262 331.62 666.88 331.776 667.6 331.776ZM685.553 333.324C684.725 333.324 684.005 333.18 683.393 332.892C682.793 332.604 682.295 332.22 681.899 331.74C681.503 331.248 681.203 330.708 680.999 330.12C680.807 329.532 680.711 328.944 680.711 328.356V328.032C680.711 327.42 680.807 326.82 680.999 326.232C681.203 325.644 681.503 325.116 681.899 324.648C682.307 324.168 682.811 323.784 683.411 323.496C684.011 323.208 684.713 323.064 685.517 323.064C686.321 323.064 687.041 323.214 687.677 323.514C688.325 323.814 688.841 324.24 689.225 324.792C689.621 325.332 689.843 325.974 689.891 326.718H688.235C688.151 326.118 687.875 325.62 687.407 325.224C686.939 324.816 686.309 324.612 685.517 324.612C684.833 324.612 684.263 324.768 683.807 325.08C683.351 325.392 683.009 325.818 682.781 326.358C682.553 326.898 682.439 327.51 682.439 328.194C682.439 328.854 682.553 329.46 682.781 330.012C683.009 330.552 683.351 330.984 683.807 331.308C684.275 331.62 684.857 331.776 685.553 331.776C686.093 331.776 686.561 331.68 686.957 331.488C687.353 331.296 687.671 331.038 687.911 330.714C688.151 330.39 688.295 330.024 688.343 329.616H689.999C689.963 330.372 689.741 331.026 689.333 331.578C688.937 332.13 688.409 332.562 687.749 332.874C687.101 333.174 686.369 333.324 685.553 333.324ZM697.775 333.324C696.935 333.324 696.197 333.18 695.561 332.892C694.925 332.604 694.385 332.226 693.941 331.758C693.509 331.278 693.179 330.744 692.951 330.156C692.735 329.568 692.627 328.968 692.627 328.356V328.032C692.627 327.42 692.741 326.82 692.969 326.232C693.197 325.632 693.533 325.098 693.977 324.63C694.421 324.15 694.961 323.772 695.597 323.496C696.233 323.208 696.959 323.064 697.775 323.064C698.591 323.064 699.317 323.208 699.953 323.496C700.589 323.772 701.129 324.15 701.573 324.63C702.017 325.098 702.353 325.632 702.581 326.232C702.809 326.82 702.923 327.42 702.923 328.032V328.356C702.923 328.968 702.809 329.568 702.581 330.156C702.365 330.744 702.035 331.278 701.591 331.758C701.159 332.226 700.625 332.604 699.989 332.892C699.353 333.18 698.615 333.324 697.775 333.324ZM697.775 331.776C698.495 331.776 699.107 331.62 699.611 331.308C700.127 330.984 700.517 330.552 700.781 330.012C701.057 329.472 701.195 328.866 701.195 328.194C701.195 327.51 701.057 326.898 700.781 326.358C700.505 325.818 700.109 325.392 699.593 325.08C699.089 324.768 698.483 324.612 697.775 324.612C697.079 324.612 696.473 324.768 695.957 325.08C695.441 325.392 695.045 325.818 694.769 326.358C694.493 326.898 694.355 327.51 694.355 328.194C694.355 328.866 694.487 329.472 694.751 330.012C695.027 330.552 695.417 330.984 695.921 331.308C696.437 331.62 697.055 331.776 697.775 331.776ZM706.511 333V323.388H707.879V327.51H707.663C707.663 326.562 707.789 325.764 708.041 325.116C708.305 324.456 708.701 323.958 709.229 323.622C709.757 323.274 710.423 323.1 711.227 323.1H711.299C712.511 323.1 713.405 323.478 713.981 324.234C714.569 324.99 714.863 326.082 714.863 327.51V333H713.135V327.15C713.135 326.406 712.925 325.812 712.505 325.368C712.085 324.912 711.509 324.684 710.777 324.684C710.021 324.684 709.409 324.918 708.941 325.386C708.473 325.854 708.239 326.478 708.239 327.258V333H706.511ZM719.025 333V323.388H720.393V327.51H720.177C720.177 326.562 720.303 325.764 720.555 325.116C720.819 324.456 721.215 323.958 721.743 323.622C722.271 323.274 722.937 323.1 723.741 323.1H723.813C725.025 323.1 725.919 323.478 726.495 324.234C727.083 324.99 727.377 326.082 727.377 327.51V333H725.649V327.15C725.649 326.406 725.439 325.812 725.019 325.368C724.599 324.912 724.023 324.684 723.291 324.684C722.535 324.684 721.923 324.918 721.455 325.386C720.987 325.854 720.753 326.478 720.753 327.258V333H719.025ZM735.625 333.324C734.785 333.324 734.059 333.18 733.447 332.892C732.835 332.604 732.337 332.226 731.953 331.758C731.569 331.278 731.281 330.744 731.089 330.156C730.909 329.568 730.819 328.968 730.819 328.356V328.032C730.819 327.408 730.909 326.802 731.089 326.214C731.281 325.626 731.569 325.098 731.953 324.63C732.337 324.15 732.823 323.772 733.411 323.496C734.011 323.208 734.713 323.064 735.517 323.064C736.561 323.064 737.419 323.292 738.091 323.748C738.775 324.192 739.279 324.768 739.603 325.476C739.939 326.184 740.107 326.94 740.107 327.744V328.518H731.575V327.222H738.847L738.451 327.924C738.451 327.24 738.343 326.652 738.127 326.16C737.911 325.656 737.587 325.266 737.155 324.99C736.723 324.714 736.177 324.576 735.517 324.576C734.833 324.576 734.263 324.732 733.807 325.044C733.363 325.356 733.027 325.782 732.799 326.322C732.583 326.862 732.475 327.486 732.475 328.194C732.475 328.878 732.583 329.496 732.799 330.048C733.027 330.588 733.375 331.02 733.843 331.344C734.311 331.656 734.905 331.812 735.625 331.812C736.381 331.812 736.993 331.644 737.461 331.308C737.941 330.972 738.229 330.582 738.325 330.138H739.945C739.813 330.798 739.549 331.368 739.153 331.848C738.757 332.328 738.259 332.694 737.659 332.946C737.059 333.198 736.381 333.324 735.625 333.324ZM747.682 333.324C746.854 333.324 746.134 333.18 745.522 332.892C744.922 332.604 744.424 332.22 744.028 331.74C743.632 331.248 743.332 330.708 743.128 330.12C742.936 329.532 742.84 328.944 742.84 328.356V328.032C742.84 327.42 742.936 326.82 743.128 326.232C743.332 325.644 743.632 325.116 744.028 324.648C744.436 324.168 744.94 323.784 745.54 323.496C746.14 323.208 746.842 323.064 747.646 323.064C748.45 323.064 749.17 323.214 749.806 323.514C750.454 323.814 750.97 324.24 751.354 324.792C751.75 325.332 751.972 325.974 752.02 326.718H750.364C750.28 326.118 750.004 325.62 749.536 325.224C749.068 324.816 748.438 324.612 747.646 324.612C746.962 324.612 746.392 324.768 745.936 325.08C745.48 325.392 745.138 325.818 744.91 326.358C744.682 326.898 744.568 327.51 744.568 328.194C744.568 328.854 744.682 329.46 744.91 330.012C745.138 330.552 745.48 330.984 745.936 331.308C746.404 331.62 746.986 331.776 747.682 331.776C748.222 331.776 748.69 331.68 749.086 331.488C749.482 331.296 749.8 331.038 750.04 330.714C750.28 330.39 750.424 330.024 750.472 329.616H752.128C752.092 330.372 751.87 331.026 751.462 331.578C751.066 332.13 750.538 332.562 749.878 332.874C749.23 333.174 748.498 333.324 747.682 333.324ZM759.22 333.108C758.5 333.108 757.876 333.006 757.348 332.802C756.832 332.598 756.43 332.25 756.142 331.758C755.866 331.254 755.728 330.576 755.728 329.724V320.472H757.384V329.94C757.384 330.456 757.522 330.858 757.798 331.146C758.086 331.422 758.488 331.56 759.004 331.56H760.696V333.108H759.22ZM754.072 324.684V323.388H760.696V324.684H754.072ZM772.044 333L773.988 323.712H776.328L778.596 333H777.12L774.852 323.748H775.428L773.466 333H772.044ZM771.162 333V331.632H773.16V333H771.162ZM770.766 333L768.048 323.388H769.704L772.35 333H770.766ZM777.48 333V331.632H779.478V333H777.48ZM778.29 333L780.594 323.388H782.16L779.802 333H778.29ZM785.962 333V323.388H787.69V333H785.962ZM784.486 324.756V323.388H787.69V324.756H784.486ZM786.448 321.84C786.064 321.84 785.776 321.738 785.584 321.534C785.404 321.33 785.314 321.072 785.314 320.76C785.314 320.448 785.404 320.19 785.584 319.986C785.776 319.782 786.064 319.68 786.448 319.68C786.832 319.68 787.114 319.782 787.294 319.986C787.486 320.19 787.582 320.448 787.582 320.76C787.582 321.072 787.486 321.33 787.294 321.534C787.114 321.738 786.832 321.84 786.448 321.84ZM795.775 333.108C795.055 333.108 794.431 333.006 793.903 332.802C793.387 332.598 792.985 332.25 792.697 331.758C792.421 331.254 792.283 330.576 792.283 329.724V320.472H793.939V329.94C793.939 330.456 794.077 330.858 794.353 331.146C794.641 331.422 795.043 331.56 795.559 331.56H797.251V333.108H795.775ZM790.627 324.684V323.388H797.251V324.684H790.627ZM800.695 333V319.86H802.423V327.708H801.991C801.991 326.76 802.111 325.944 802.351 325.26C802.603 324.564 802.987 324.03 803.503 323.658C804.019 323.286 804.679 323.1 805.483 323.1H805.555C806.707 323.1 807.577 323.484 808.165 324.252C808.753 325.008 809.047 326.094 809.047 327.51V333H807.319V327.15C807.319 326.37 807.097 325.764 806.653 325.332C806.221 324.9 805.657 324.684 804.961 324.684C804.193 324.684 803.575 324.942 803.107 325.458C802.651 325.962 802.423 326.628 802.423 327.456V333H800.695ZM817.656 336.744V335.196H819.042C819.45 335.196 819.792 335.142 820.068 335.034C820.356 334.938 820.59 334.77 820.77 334.53C820.962 334.29 821.118 333.972 821.238 333.576L824.262 323.388H825.954L822.75 334.026C822.558 334.662 822.288 335.178 821.94 335.574C821.592 335.982 821.166 336.276 820.662 336.456C820.17 336.648 819.594 336.744 818.934 336.744H817.656ZM820.59 332.784V331.344H822.678V332.784H820.59ZM820.41 332.784L816.972 323.388H818.736L822.03 332.784H820.41ZM833.4 333.324C832.56 333.324 831.822 333.18 831.186 332.892C830.55 332.604 830.01 332.226 829.566 331.758C829.134 331.278 828.804 330.744 828.576 330.156C828.36 329.568 828.252 328.968 828.252 328.356V328.032C828.252 327.42 828.366 326.82 828.594 326.232C828.822 325.632 829.158 325.098 829.602 324.63C830.046 324.15 830.586 323.772 831.222 323.496C831.858 323.208 832.584 323.064 833.4 323.064C834.216 323.064 834.942 323.208 835.578 323.496C836.214 323.772 836.754 324.15 837.198 324.63C837.642 325.098 837.978 325.632 838.206 326.232C838.434 326.82 838.548 327.42 838.548 328.032V328.356C838.548 328.968 838.434 329.568 838.206 330.156C837.99 330.744 837.66 331.278 837.216 331.758C836.784 332.226 836.25 332.604 835.614 332.892C834.978 333.18 834.24 333.324 833.4 333.324ZM833.4 331.776C834.12 331.776 834.732 331.62 835.236 331.308C835.752 330.984 836.142 330.552 836.406 330.012C836.682 329.472 836.82 328.866 836.82 328.194C836.82 327.51 836.682 326.898 836.406 326.358C836.13 325.818 835.734 325.392 835.218 325.08C834.714 324.768 834.108 324.612 833.4 324.612C832.704 324.612 832.098 324.768 831.582 325.08C831.066 325.392 830.67 325.818 830.394 326.358C830.118 326.898 829.98 327.51 829.98 328.194C829.98 328.866 830.112 329.472 830.376 330.012C830.652 330.552 831.042 330.984 831.546 331.308C832.062 331.62 832.68 331.776 833.4 331.776ZM845.466 333.288C844.326 333.288 843.45 332.916 842.838 332.172C842.226 331.428 841.92 330.354 841.92 328.95V323.37H843.648V329.292C843.648 330.048 843.852 330.642 844.26 331.074C844.668 331.494 845.22 331.704 845.916 331.704C846.636 331.704 847.224 331.476 847.68 331.02C848.136 330.552 848.364 329.916 848.364 329.112V323.37H850.092V333H848.724V328.878H848.94C848.94 329.826 848.814 330.63 848.562 331.29C848.31 331.938 847.932 332.436 847.428 332.784C846.936 333.12 846.306 333.288 845.538 333.288H845.466ZM854.439 333V323.388H855.807V327.348H855.735C855.735 325.944 856.041 324.918 856.653 324.27C857.277 323.61 858.207 323.28 859.443 323.28H859.767V324.828H859.155C858.195 324.828 857.457 325.086 856.941 325.602C856.425 326.106 856.167 326.838 856.167 327.798V333H854.439ZM868.17 333V322.902C868.17 321.834 868.452 321.048 869.016 320.544C869.58 320.04 870.408 319.788 871.5 319.788H872.688V321.228H871.212C870.768 321.228 870.426 321.354 870.186 321.606C869.946 321.846 869.826 322.182 869.826 322.614V333H868.17ZM866.838 324.792V323.496H872.868V324.792H866.838ZM881.517 333V330.12H881.229V326.79C881.229 326.13 881.055 325.632 880.707 325.296C880.371 324.96 879.873 324.792 879.213 324.792C878.841 324.792 878.457 324.798 878.061 324.81C877.665 324.822 877.287 324.834 876.927 324.846C876.567 324.858 876.255 324.876 875.991 324.9V323.388C876.255 323.364 876.531 323.346 876.819 323.334C877.119 323.31 877.425 323.298 877.737 323.298C878.049 323.286 878.349 323.28 878.637 323.28C879.621 323.28 880.425 323.4 881.049 323.64C881.673 323.868 882.135 324.246 882.435 324.774C882.735 325.302 882.885 326.016 882.885 326.916V333H881.517ZM878.367 333.252C877.647 333.252 877.023 333.132 876.495 332.892C875.979 332.64 875.577 332.28 875.289 331.812C875.013 331.344 874.875 330.78 874.875 330.12C874.875 329.436 875.025 328.866 875.325 328.41C875.637 327.954 876.087 327.612 876.675 327.384C877.263 327.144 877.971 327.024 878.799 327.024H881.409V328.32H878.727C878.031 328.32 877.497 328.488 877.125 328.824C876.753 329.16 876.567 329.592 876.567 330.12C876.567 330.648 876.753 331.074 877.125 331.398C877.497 331.722 878.031 331.884 878.727 331.884C879.135 331.884 879.525 331.812 879.897 331.668C880.269 331.512 880.575 331.26 880.815 330.912C881.067 330.552 881.205 330.06 881.229 329.436L881.697 330.12C881.637 330.804 881.469 331.38 881.193 331.848C880.929 332.304 880.557 332.652 880.077 332.892C879.609 333.132 879.039 333.252 878.367 333.252ZM889.073 333L885.797 323.388H887.597L890.801 333H889.073ZM889.505 333V331.632H891.593V333H889.505ZM890.333 333L893.123 323.388H894.815L891.971 333H890.333ZM902.328 333.324C901.488 333.324 900.75 333.18 900.114 332.892C899.478 332.604 898.938 332.226 898.494 331.758C898.062 331.278 897.732 330.744 897.504 330.156C897.288 329.568 897.18 328.968 897.18 328.356V328.032C897.18 327.42 897.294 326.82 897.522 326.232C897.75 325.632 898.086 325.098 898.53 324.63C898.974 324.15 899.514 323.772 900.15 323.496C900.786 323.208 901.512 323.064 902.328 323.064C903.144 323.064 903.87 323.208 904.506 323.496C905.142 323.772 905.682 324.15 906.126 324.63C906.57 325.098 906.906 325.632 907.134 326.232C907.362 326.82 907.476 327.42 907.476 328.032V328.356C907.476 328.968 907.362 329.568 907.134 330.156C906.918 330.744 906.588 331.278 906.144 331.758C905.712 332.226 905.178 332.604 904.542 332.892C903.906 333.18 903.168 333.324 902.328 333.324ZM902.328 331.776C903.048 331.776 903.66 331.62 904.164 331.308C904.68 330.984 905.07 330.552 905.334 330.012C905.61 329.472 905.748 328.866 905.748 328.194C905.748 327.51 905.61 326.898 905.334 326.358C905.058 325.818 904.662 325.392 904.146 325.08C903.642 324.768 903.036 324.612 902.328 324.612C901.632 324.612 901.026 324.768 900.51 325.08C899.994 325.392 899.598 325.818 899.322 326.358C899.046 326.898 898.908 327.51 898.908 328.194C898.908 328.866 899.04 329.472 899.304 330.012C899.58 330.552 899.97 330.984 900.474 331.308C900.99 331.62 901.608 331.776 902.328 331.776ZM911.064 333V323.388H912.432V327.348H912.36C912.36 325.944 912.666 324.918 913.278 324.27C913.902 323.61 914.832 323.28 916.068 323.28H916.392V324.828H915.78C914.82 324.828 914.082 325.086 913.566 325.602C913.05 326.106 912.792 326.838 912.792 327.798V333H911.064ZM919.915 333V323.388H921.643V333H919.915ZM918.439 324.756V323.388H921.643V324.756H918.439ZM920.401 321.84C920.017 321.84 919.729 321.738 919.537 321.534C919.357 321.33 919.267 321.072 919.267 320.76C919.267 320.448 919.357 320.19 919.537 319.986C919.729 319.782 920.017 319.68 920.401 319.68C920.785 319.68 921.067 319.782 921.247 319.986C921.439 320.19 921.535 320.448 921.535 320.76C921.535 321.072 921.439 321.33 921.247 321.534C921.067 321.738 920.785 321.84 920.401 321.84ZM929.728 333.108C929.008 333.108 928.384 333.006 927.856 332.802C927.34 332.598 926.938 332.25 926.65 331.758C926.374 331.254 926.236 330.576 926.236 329.724V320.472H927.892V329.94C927.892 330.456 928.03 330.858 928.306 331.146C928.594 331.422 928.996 331.56 929.512 331.56H931.204V333.108H929.728ZM924.58 324.684V323.388H931.204V324.684H924.58ZM938.664 333.324C937.824 333.324 937.098 333.18 936.486 332.892C935.874 332.604 935.376 332.226 934.992 331.758C934.608 331.278 934.32 330.744 934.128 330.156C933.948 329.568 933.858 328.968 933.858 328.356V328.032C933.858 327.408 933.948 326.802 934.128 326.214C934.32 325.626 934.608 325.098 934.992 324.63C935.376 324.15 935.862 323.772 936.45 323.496C937.05 323.208 937.752 323.064 938.556 323.064C939.6 323.064 940.458 323.292 941.13 323.748C941.814 324.192 942.318 324.768 942.642 325.476C942.978 326.184 943.146 326.94 943.146 327.744V328.518H934.614V327.222H941.886L941.49 327.924C941.49 327.24 941.382 326.652 941.166 326.16C940.95 325.656 940.626 325.266 940.194 324.99C939.762 324.714 939.216 324.576 938.556 324.576C937.872 324.576 937.302 324.732 936.846 325.044C936.402 325.356 936.066 325.782 935.838 326.322C935.622 326.862 935.514 327.486 935.514 328.194C935.514 328.878 935.622 329.496 935.838 330.048C936.066 330.588 936.414 331.02 936.882 331.344C937.35 331.656 937.944 331.812 938.664 331.812C939.42 331.812 940.032 331.644 940.5 331.308C940.98 330.972 941.268 330.582 941.364 330.138H942.984C942.852 330.798 942.588 331.368 942.192 331.848C941.796 332.328 941.298 332.694 940.698 332.946C940.098 333.198 939.42 333.324 938.664 333.324ZM957.509 333V330.12H957.221V326.79C957.221 326.13 957.047 325.632 956.699 325.296C956.363 324.96 955.865 324.792 955.205 324.792C954.833 324.792 954.449 324.798 954.053 324.81C953.657 324.822 953.279 324.834 952.919 324.846C952.559 324.858 952.247 324.876 951.983 324.9V323.388C952.247 323.364 952.523 323.346 952.811 323.334C953.111 323.31 953.417 323.298 953.729 323.298C954.041 323.286 954.341 323.28 954.629 323.28C955.613 323.28 956.417 323.4 957.041 323.64C957.665 323.868 958.127 324.246 958.427 324.774C958.727 325.302 958.877 326.016 958.877 326.916V333H957.509ZM954.359 333.252C953.639 333.252 953.015 333.132 952.487 332.892C951.971 332.64 951.569 332.28 951.281 331.812C951.005 331.344 950.867 330.78 950.867 330.12C950.867 329.436 951.017 328.866 951.317 328.41C951.629 327.954 952.079 327.612 952.667 327.384C953.255 327.144 953.963 327.024 954.791 327.024H957.401V328.32H954.719C954.023 328.32 953.489 328.488 953.117 328.824C952.745 329.16 952.559 329.592 952.559 330.12C952.559 330.648 952.745 331.074 953.117 331.398C953.489 331.722 954.023 331.884 954.719 331.884C955.127 331.884 955.517 331.812 955.889 331.668C956.261 331.512 956.567 331.26 956.807 330.912C957.059 330.552 957.197 330.06 957.221 329.436L957.689 330.12C957.629 330.804 957.461 331.38 957.185 331.848C956.921 332.304 956.549 332.652 956.069 332.892C955.601 333.132 955.031 333.252 954.359 333.252ZM963.049 333V323.388H964.417V327.348H964.345C964.345 325.944 964.651 324.918 965.263 324.27C965.887 323.61 966.817 323.28 968.053 323.28H968.377V324.828H967.765C966.805 324.828 966.067 325.086 965.551 325.602C965.035 326.106 964.777 326.838 964.777 327.798V333H963.049ZM975.351 333.108C974.631 333.108 974.007 333.006 973.479 332.802C972.963 332.598 972.561 332.25 972.273 331.758C971.997 331.254 971.859 330.576 971.859 329.724V320.472H973.515V329.94C973.515 330.456 973.653 330.858 973.929 331.146C974.217 331.422 974.619 331.56 975.135 331.56H976.827V333.108H975.351ZM970.203 324.684V323.388H976.827V324.684H970.203ZM980.739 333V323.388H982.467V333H980.739ZM979.263 324.756V323.388H982.467V324.756H979.263ZM981.225 321.84C980.841 321.84 980.553 321.738 980.361 321.534C980.181 321.33 980.091 321.072 980.091 320.76C980.091 320.448 980.181 320.19 980.361 319.986C980.553 319.782 980.841 319.68 981.225 319.68C981.609 319.68 981.891 319.782 982.071 319.986C982.263 320.19 982.359 320.448 982.359 320.76C982.359 321.072 982.263 321.33 982.071 321.534C981.891 321.738 981.609 321.84 981.225 321.84ZM989.958 333.288C988.698 333.288 987.72 333.018 987.024 332.478C986.34 331.938 985.986 331.2 985.962 330.264H987.582C987.606 330.636 987.792 330.99 988.14 331.326C988.5 331.65 989.106 331.812 989.958 331.812C990.726 331.812 991.314 331.662 991.722 331.362C992.13 331.05 992.334 330.672 992.334 330.228C992.334 329.832 992.184 329.526 991.884 329.31C991.584 329.082 991.098 328.932 990.426 328.86L989.382 328.752C988.47 328.656 987.726 328.386 987.15 327.942C986.574 327.486 986.286 326.85 986.286 326.034C986.286 325.422 986.442 324.9 986.754 324.468C987.066 324.024 987.498 323.688 988.05 323.46C988.602 323.22 989.238 323.1 989.958 323.1C991.038 323.1 991.914 323.34 992.586 323.82C993.258 324.3 993.606 325.014 993.63 325.962H992.01C991.998 325.578 991.818 325.254 991.47 324.99C991.134 324.714 990.63 324.576 989.958 324.576C989.286 324.576 988.776 324.714 988.428 324.99C988.08 325.266 987.906 325.614 987.906 326.034C987.906 326.394 988.026 326.682 988.266 326.898C988.518 327.114 988.926 327.252 989.49 327.312L990.534 327.42C991.566 327.528 992.394 327.816 993.018 328.284C993.642 328.74 993.954 329.388 993.954 330.228C993.954 330.828 993.78 331.362 993.432 331.83C993.096 332.286 992.628 332.646 992.028 332.91C991.428 333.162 990.738 333.288 989.958 333.288ZM1001.2 333.108C1000.48 333.108 999.859 333.006 999.331 332.802C998.815 332.598 998.413 332.25 998.125 331.758C997.849 331.254 997.711 330.576 997.711 329.724V320.472H999.367V329.94C999.367 330.456 999.505 330.858 999.781 331.146C1000.07 331.422 1000.47 331.56 1000.99 331.56H1002.68V333.108H1001.2ZM996.055 324.684V323.388H1002.68V324.684H996.055ZM1009.2 333.288C1007.94 333.288 1006.96 333.018 1006.27 332.478C1005.58 331.938 1005.23 331.2 1005.21 330.264H1006.83C1006.85 330.636 1007.04 330.99 1007.38 331.326C1007.74 331.65 1008.35 331.812 1009.2 331.812C1009.97 331.812 1010.56 331.662 1010.97 331.362C1011.37 331.05 1011.58 330.672 1011.58 330.228C1011.58 329.832 1011.43 329.526 1011.13 329.31C1010.83 329.082 1010.34 328.932 1009.67 328.86L1008.63 328.752C1007.71 328.656 1006.97 328.386 1006.39 327.942C1005.82 327.486 1005.53 326.85 1005.53 326.034C1005.53 325.422 1005.69 324.9 1006 324.468C1006.31 324.024 1006.74 323.688 1007.29 323.46C1007.85 323.22 1008.48 323.1 1009.2 323.1C1010.28 323.1 1011.16 323.34 1011.83 323.82C1012.5 324.3 1012.85 325.014 1012.87 325.962H1011.25C1011.24 325.578 1011.06 325.254 1010.71 324.99C1010.38 324.714 1009.87 324.576 1009.2 324.576C1008.53 324.576 1008.02 324.714 1007.67 324.99C1007.32 325.266 1007.15 325.614 1007.15 326.034C1007.15 326.394 1007.27 326.682 1007.51 326.898C1007.76 327.114 1008.17 327.252 1008.73 327.312L1009.78 327.42C1010.81 327.528 1011.64 327.816 1012.26 328.284C1012.89 328.74 1013.2 329.388 1013.2 330.228C1013.2 330.828 1013.02 331.362 1012.68 331.83C1012.34 332.286 1011.87 332.646 1011.27 332.91C1010.67 333.162 1009.98 333.288 1009.2 333.288ZM1016.19 333V330.804H1018.27V333H1016.19ZM1026.18 333L1030.92 319.86H1033.9L1038.78 333H1036.96L1032.55 321.012L1033.42 321.444H1031.29L1032.21 321.012L1027.95 333H1026.18ZM1029.01 329.076L1029.6 327.492H1035.27L1035.87 329.076H1029.01ZM608.908 358V347.902C608.908 346.834 609.19 346.048 609.754 345.544C610.318 345.04 611.146 344.788 612.238 344.788H613.426V346.228H611.95C611.506 346.228 611.164 346.354 610.924 346.606C610.684 346.846 610.564 347.182 610.564 347.614V358H608.908ZM607.576 349.792V348.496H613.606V349.792H607.576ZM619.806 358.288C618.666 358.288 617.79 357.916 617.178 357.172C616.566 356.428 616.26 355.354 616.26 353.95V348.37H617.988V354.292C617.988 355.048 618.192 355.642 618.6 356.074C619.008 356.494 619.56 356.704 620.256 356.704C620.976 356.704 621.564 356.476 622.02 356.02C622.476 355.552 622.704 354.916 622.704 354.112V348.37H624.432V358H623.064V353.878H623.28C623.28 354.826 623.154 355.63 622.902 356.29C622.65 356.938 622.272 357.436 621.768 357.784C621.276 358.12 620.646 358.288 619.878 358.288H619.806ZM628.779 358V348.388H630.147V352.51H629.931C629.931 351.562 630.057 350.764 630.309 350.116C630.573 349.456 630.969 348.958 631.497 348.622C632.025 348.274 632.691 348.1 633.495 348.1H633.567C634.779 348.1 635.673 348.478 636.249 349.234C636.837 349.99 637.131 351.082 637.131 352.51V358H635.403V352.15C635.403 351.406 635.193 350.812 634.773 350.368C634.353 349.912 633.777 349.684 633.045 349.684C632.289 349.684 631.677 349.918 631.209 350.386C630.741 350.854 630.507 351.478 630.507 352.258V358H628.779ZM650.402 358.324C649.718 358.324 649.088 358.198 648.512 357.946C647.936 357.694 647.432 357.34 647 356.884C646.58 356.428 646.25 355.9 646.01 355.3C645.782 354.7 645.668 354.052 645.668 353.356V353.032C645.668 352.348 645.782 351.706 646.01 351.106C646.238 350.506 646.556 349.978 646.964 349.522C647.384 349.066 647.876 348.712 648.44 348.46C649.016 348.196 649.652 348.064 650.348 348.064C651.08 348.064 651.746 348.22 652.346 348.532C652.946 348.832 653.438 349.306 653.822 349.954C654.206 350.602 654.422 351.442 654.47 352.474L653.75 351.322V344.86H655.478V358H654.11V353.734H654.614C654.566 354.826 654.338 355.714 653.93 356.398C653.522 357.07 653.006 357.562 652.382 357.874C651.77 358.174 651.11 358.324 650.402 358.324ZM650.636 356.812C651.224 356.812 651.758 356.68 652.238 356.416C652.718 356.152 653.102 355.774 653.39 355.282C653.678 354.778 653.822 354.19 653.822 353.518V352.69C653.822 352.03 653.672 351.472 653.372 351.016C653.084 350.548 652.694 350.194 652.202 349.954C651.722 349.702 651.194 349.576 650.618 349.576C649.982 349.576 649.418 349.726 648.926 350.026C648.446 350.326 648.068 350.746 647.792 351.286C647.528 351.826 647.396 352.462 647.396 353.194C647.396 353.926 647.534 354.568 647.81 355.12C648.086 355.66 648.47 356.08 648.962 356.38C649.454 356.668 650.012 356.812 650.636 356.812ZM660.267 358V348.388H661.995V358H660.267ZM658.791 349.756V348.388H661.995V349.756H658.791ZM660.753 346.84C660.369 346.84 660.081 346.738 659.889 346.534C659.709 346.33 659.619 346.072 659.619 345.76C659.619 345.448 659.709 345.19 659.889 344.986C660.081 344.782 660.369 344.68 660.753 344.68C661.137 344.68 661.419 344.782 661.599 344.986C661.791 345.19 661.887 345.448 661.887 345.76C661.887 346.072 661.791 346.33 661.599 346.534C661.419 346.738 661.137 346.84 660.753 346.84ZM669.972 361.744C669.528 361.744 669.078 361.726 668.622 361.69C668.178 361.654 667.752 361.606 667.344 361.546V360.088C667.776 360.148 668.226 360.196 668.694 360.232C669.174 360.28 669.624 360.304 670.044 360.304C670.92 360.304 671.616 360.184 672.132 359.944C672.66 359.716 673.038 359.35 673.266 358.846C673.506 358.354 673.626 357.718 673.626 356.938V355.102L674.202 353.734C674.166 354.706 673.962 355.516 673.59 356.164C673.218 356.8 672.732 357.28 672.132 357.604C671.544 357.916 670.89 358.072 670.17 358.072C669.498 358.072 668.88 357.946 668.316 357.694C667.764 357.43 667.284 357.07 666.876 356.614C666.48 356.158 666.168 355.636 665.94 355.048C665.724 354.448 665.616 353.818 665.616 353.158V352.834C665.616 352.162 665.73 351.538 665.958 350.962C666.186 350.374 666.504 349.864 666.912 349.432C667.32 349 667.806 348.664 668.37 348.424C668.946 348.184 669.576 348.064 670.26 348.064C671.064 348.064 671.772 348.238 672.384 348.586C672.996 348.922 673.476 349.42 673.824 350.08C674.184 350.728 674.382 351.526 674.418 352.474L673.914 352.492V348.388H675.282V356.866C675.282 358.018 675.102 358.948 674.742 359.656C674.394 360.376 673.83 360.904 673.05 361.24C672.282 361.576 671.256 361.744 669.972 361.744ZM670.494 356.488C671.07 356.488 671.592 356.362 672.06 356.11C672.54 355.858 672.918 355.498 673.194 355.03C673.482 354.55 673.626 353.98 673.626 353.32V352.492C673.626 351.844 673.476 351.298 673.176 350.854C672.888 350.41 672.51 350.074 672.042 349.846C671.574 349.618 671.064 349.504 670.512 349.504C669.888 349.504 669.336 349.648 668.856 349.936C668.376 350.224 668.004 350.632 667.74 351.16C667.476 351.676 667.344 352.288 667.344 352.996C667.344 353.704 667.476 354.322 667.74 354.85C668.016 355.378 668.388 355.786 668.856 356.074C669.336 356.35 669.882 356.488 670.494 356.488ZM679.95 358V348.388H681.678V358H679.95ZM678.474 349.756V348.388H681.678V349.756H678.474ZM680.436 346.84C680.052 346.84 679.764 346.738 679.572 346.534C679.392 346.33 679.302 346.072 679.302 345.76C679.302 345.448 679.392 345.19 679.572 344.986C679.764 344.782 680.052 344.68 680.436 344.68C680.82 344.68 681.102 344.782 681.282 344.986C681.474 345.19 681.57 345.448 681.57 345.76C681.57 346.072 681.474 346.33 681.282 346.534C681.102 346.738 680.82 346.84 680.436 346.84ZM689.763 358.108C689.043 358.108 688.419 358.006 687.891 357.802C687.375 357.598 686.973 357.25 686.685 356.758C686.409 356.254 686.271 355.576 686.271 354.724V345.472H687.927V354.94C687.927 355.456 688.065 355.858 688.341 356.146C688.629 356.422 689.031 356.56 689.547 356.56H691.239V358.108H689.763ZM684.615 349.684V348.388H691.239V349.684H684.615ZM700.462 358V355.12H700.174V351.79C700.174 351.13 700 350.632 699.652 350.296C699.316 349.96 698.818 349.792 698.158 349.792C697.786 349.792 697.402 349.798 697.006 349.81C696.61 349.822 696.232 349.834 695.872 349.846C695.512 349.858 695.2 349.876 694.936 349.9V348.388C695.2 348.364 695.476 348.346 695.764 348.334C696.064 348.31 696.37 348.298 696.682 348.298C696.994 348.286 697.294 348.28 697.582 348.28C698.566 348.28 699.37 348.4 699.994 348.64C700.618 348.868 701.08 349.246 701.38 349.774C701.68 350.302 701.83 351.016 701.83 351.916V358H700.462ZM697.312 358.252C696.592 358.252 695.968 358.132 695.44 357.892C694.924 357.64 694.522 357.28 694.234 356.812C693.958 356.344 693.82 355.78 693.82 355.12C693.82 354.436 693.97 353.866 694.27 353.41C694.582 352.954 695.032 352.612 695.62 352.384C696.208 352.144 696.916 352.024 697.744 352.024H700.354V353.32H697.672C696.976 353.32 696.442 353.488 696.07 353.824C695.698 354.16 695.512 354.592 695.512 355.12C695.512 355.648 695.698 356.074 696.07 356.398C696.442 356.722 696.976 356.884 697.672 356.884C698.08 356.884 698.47 356.812 698.842 356.668C699.214 356.512 699.52 356.26 699.76 355.912C700.012 355.552 700.15 355.06 700.174 354.436L700.642 355.12C700.582 355.804 700.414 356.38 700.138 356.848C699.874 357.304 699.502 357.652 699.022 357.892C698.554 358.132 697.984 358.252 697.312 358.252ZM706.11 358V344.86H707.838V358H706.11ZM704.778 346.228V344.86H707.838V346.228H704.778ZM720.992 358.108C720.272 358.108 719.648 358.006 719.12 357.802C718.604 357.598 718.202 357.25 717.914 356.758C717.638 356.254 717.5 355.576 717.5 354.724V345.472H719.156V354.94C719.156 355.456 719.294 355.858 719.57 356.146C719.858 356.422 720.26 356.56 720.776 356.56H722.468V358.108H720.992ZM715.844 349.684V348.388H722.468V349.684H715.844ZM725.912 358V348.388H727.28V352.348H727.208C727.208 350.944 727.514 349.918 728.126 349.27C728.75 348.61 729.68 348.28 730.916 348.28H731.24V349.828H730.628C729.668 349.828 728.93 350.086 728.414 350.602C727.898 351.106 727.64 351.838 727.64 352.798V358H725.912ZM740.074 358V355.12H739.786V351.79C739.786 351.13 739.612 350.632 739.264 350.296C738.928 349.96 738.43 349.792 737.77 349.792C737.398 349.792 737.014 349.798 736.618 349.81C736.222 349.822 735.844 349.834 735.484 349.846C735.124 349.858 734.812 349.876 734.548 349.9V348.388C734.812 348.364 735.088 348.346 735.376 348.334C735.676 348.31 735.982 348.298 736.294 348.298C736.606 348.286 736.906 348.28 737.194 348.28C738.178 348.28 738.982 348.4 739.606 348.64C740.23 348.868 740.692 349.246 740.992 349.774C741.292 350.302 741.442 351.016 741.442 351.916V358H740.074ZM736.924 358.252C736.204 358.252 735.58 358.132 735.052 357.892C734.536 357.64 734.134 357.28 733.846 356.812C733.57 356.344 733.432 355.78 733.432 355.12C733.432 354.436 733.582 353.866 733.882 353.41C734.194 352.954 734.644 352.612 735.232 352.384C735.82 352.144 736.528 352.024 737.356 352.024H739.966V353.32H737.284C736.588 353.32 736.054 353.488 735.682 353.824C735.31 354.16 735.124 354.592 735.124 355.12C735.124 355.648 735.31 356.074 735.682 356.398C736.054 356.722 736.588 356.884 737.284 356.884C737.692 356.884 738.082 356.812 738.454 356.668C738.826 356.512 739.132 356.26 739.372 355.912C739.624 355.552 739.762 355.06 739.786 354.436L740.254 355.12C740.194 355.804 740.026 356.38 739.75 356.848C739.486 357.304 739.114 357.652 738.634 357.892C738.166 358.132 737.596 358.252 736.924 358.252ZM749.627 358.324C748.943 358.324 748.313 358.198 747.737 357.946C747.161 357.694 746.657 357.34 746.225 356.884C745.805 356.428 745.475 355.9 745.235 355.3C745.007 354.7 744.893 354.052 744.893 353.356V353.032C744.893 352.348 745.007 351.706 745.235 351.106C745.463 350.506 745.781 349.978 746.189 349.522C746.609 349.066 747.101 348.712 747.665 348.46C748.241 348.196 748.877 348.064 749.573 348.064C750.305 348.064 750.971 348.22 751.571 348.532C752.171 348.832 752.663 349.306 753.047 349.954C753.431 350.602 753.647 351.442 753.695 352.474L752.975 351.322V344.86H754.703V358H753.335V353.734H753.839C753.791 354.826 753.563 355.714 753.155 356.398C752.747 357.07 752.231 357.562 751.607 357.874C750.995 358.174 750.335 358.324 749.627 358.324ZM749.861 356.812C750.449 356.812 750.983 356.68 751.463 356.416C751.943 356.152 752.327 355.774 752.615 355.282C752.903 354.778 753.047 354.19 753.047 353.518V352.69C753.047 352.03 752.897 351.472 752.597 351.016C752.309 350.548 751.919 350.194 751.427 349.954C750.947 349.702 750.419 349.576 749.843 349.576C749.207 349.576 748.643 349.726 748.151 350.026C747.671 350.326 747.293 350.746 747.017 351.286C746.753 351.826 746.621 352.462 746.621 353.194C746.621 353.926 746.759 354.568 747.035 355.12C747.311 355.66 747.695 356.08 748.187 356.38C748.679 356.668 749.237 356.812 749.861 356.812ZM759.491 358V348.388H761.219V358H759.491ZM758.015 349.756V348.388H761.219V349.756H758.015ZM759.977 346.84C759.593 346.84 759.305 346.738 759.113 346.534C758.933 346.33 758.843 346.072 758.843 345.76C758.843 345.448 758.933 345.19 759.113 344.986C759.305 344.782 759.593 344.68 759.977 344.68C760.361 344.68 760.643 344.782 760.823 344.986C761.015 345.19 761.111 345.448 761.111 345.76C761.111 346.072 761.015 346.33 760.823 346.534C760.643 346.738 760.361 346.84 759.977 346.84ZM765.56 358V348.388H766.928V352.51H766.712C766.712 351.562 766.838 350.764 767.09 350.116C767.354 349.456 767.75 348.958 768.278 348.622C768.806 348.274 769.472 348.1 770.276 348.1H770.348C771.56 348.1 772.454 348.478 773.03 349.234C773.618 349.99 773.912 351.082 773.912 352.51V358H772.184V352.15C772.184 351.406 771.974 350.812 771.554 350.368C771.134 349.912 770.558 349.684 769.826 349.684C769.07 349.684 768.458 349.918 767.99 350.386C767.522 350.854 767.288 351.478 767.288 352.258V358H765.56ZM781.71 361.744C781.266 361.744 780.816 361.726 780.36 361.69C779.916 361.654 779.49 361.606 779.082 361.546V360.088C779.514 360.148 779.964 360.196 780.432 360.232C780.912 360.28 781.362 360.304 781.782 360.304C782.658 360.304 783.354 360.184 783.87 359.944C784.398 359.716 784.776 359.35 785.004 358.846C785.244 358.354 785.364 357.718 785.364 356.938V355.102L785.94 353.734C785.904 354.706 785.7 355.516 785.328 356.164C784.956 356.8 784.47 357.28 783.87 357.604C783.282 357.916 782.628 358.072 781.908 358.072C781.236 358.072 780.618 357.946 780.054 357.694C779.502 357.43 779.022 357.07 778.614 356.614C778.218 356.158 777.906 355.636 777.678 355.048C777.462 354.448 777.354 353.818 777.354 353.158V352.834C777.354 352.162 777.468 351.538 777.696 350.962C777.924 350.374 778.242 349.864 778.65 349.432C779.058 349 779.544 348.664 780.108 348.424C780.684 348.184 781.314 348.064 781.998 348.064C782.802 348.064 783.51 348.238 784.122 348.586C784.734 348.922 785.214 349.42 785.562 350.08C785.922 350.728 786.12 351.526 786.156 352.474L785.652 352.492V348.388H787.02V356.866C787.02 358.018 786.84 358.948 786.48 359.656C786.132 360.376 785.568 360.904 784.788 361.24C784.02 361.576 782.994 361.744 781.71 361.744ZM782.232 356.488C782.808 356.488 783.33 356.362 783.798 356.11C784.278 355.858 784.656 355.498 784.932 355.03C785.22 354.55 785.364 353.98 785.364 353.32V352.492C785.364 351.844 785.214 351.298 784.914 350.854C784.626 350.41 784.248 350.074 783.78 349.846C783.312 349.618 782.802 349.504 782.25 349.504C781.626 349.504 781.074 349.648 780.594 349.936C780.114 350.224 779.742 350.632 779.478 351.16C779.214 351.676 779.082 352.288 779.082 352.996C779.082 353.704 779.214 354.322 779.478 354.85C779.754 355.378 780.126 355.786 780.594 356.074C781.074 356.35 781.62 356.488 782.232 356.488ZM800.438 358.324C799.61 358.324 798.89 358.18 798.278 357.892C797.678 357.604 797.18 357.22 796.784 356.74C796.388 356.248 796.088 355.708 795.884 355.12C795.692 354.532 795.596 353.944 795.596 353.356V353.032C795.596 352.42 795.692 351.82 795.884 351.232C796.088 350.644 796.388 350.116 796.784 349.648C797.192 349.168 797.696 348.784 798.296 348.496C798.896 348.208 799.598 348.064 800.402 348.064C801.206 348.064 801.926 348.214 802.562 348.514C803.21 348.814 803.726 349.24 804.11 349.792C804.506 350.332 804.728 350.974 804.776 351.718H803.12C803.036 351.118 802.76 350.62 802.292 350.224C801.824 349.816 801.194 349.612 800.402 349.612C799.718 349.612 799.148 349.768 798.692 350.08C798.236 350.392 797.894 350.818 797.666 351.358C797.438 351.898 797.324 352.51 797.324 353.194C797.324 353.854 797.438 354.46 797.666 355.012C797.894 355.552 798.236 355.984 798.692 356.308C799.16 356.62 799.742 356.776 800.438 356.776C800.978 356.776 801.446 356.68 801.842 356.488C802.238 356.296 802.556 356.038 802.796 355.714C803.036 355.39 803.18 355.024 803.228 354.616H804.884C804.848 355.372 804.626 356.026 804.218 356.578C803.822 357.13 803.294 357.562 802.634 357.874C801.986 358.174 801.254 358.324 800.438 358.324ZM814.046 358V355.12H813.758V351.79C813.758 351.13 813.584 350.632 813.236 350.296C812.9 349.96 812.402 349.792 811.742 349.792C811.37 349.792 810.986 349.798 810.59 349.81C810.194 349.822 809.816 349.834 809.456 349.846C809.096 349.858 808.784 349.876 808.52 349.9V348.388C808.784 348.364 809.06 348.346 809.348 348.334C809.648 348.31 809.954 348.298 810.266 348.298C810.578 348.286 810.878 348.28 811.166 348.28C812.15 348.28 812.954 348.4 813.578 348.64C814.202 348.868 814.664 349.246 814.964 349.774C815.264 350.302 815.414 351.016 815.414 351.916V358H814.046ZM810.896 358.252C810.176 358.252 809.552 358.132 809.024 357.892C808.508 357.64 808.106 357.28 807.818 356.812C807.542 356.344 807.404 355.78 807.404 355.12C807.404 354.436 807.554 353.866 807.854 353.41C808.166 352.954 808.616 352.612 809.204 352.384C809.792 352.144 810.5 352.024 811.328 352.024H813.938V353.32H811.256C810.56 353.32 810.026 353.488 809.654 353.824C809.282 354.16 809.096 354.592 809.096 355.12C809.096 355.648 809.282 356.074 809.654 356.398C810.026 356.722 810.56 356.884 811.256 356.884C811.664 356.884 812.054 356.812 812.426 356.668C812.798 356.512 813.104 356.26 813.344 355.912C813.596 355.552 813.734 355.06 813.758 354.436L814.226 355.12C814.166 355.804 813.998 356.38 813.722 356.848C813.458 357.304 813.086 357.652 812.606 357.892C812.138 358.132 811.568 358.252 810.896 358.252ZM819.586 358V348.388H820.954V352.348H820.882C820.882 350.944 821.188 349.918 821.8 349.27C822.424 348.61 823.354 348.28 824.59 348.28H824.914V349.828H824.302C823.342 349.828 822.604 350.086 822.088 350.602C821.572 351.106 821.314 351.838 821.314 352.798V358H819.586ZM831.877 358.324C831.193 358.324 830.563 358.198 829.987 357.946C829.411 357.694 828.907 357.34 828.475 356.884C828.055 356.428 827.725 355.9 827.485 355.3C827.257 354.7 827.143 354.052 827.143 353.356V353.032C827.143 352.348 827.257 351.706 827.485 351.106C827.713 350.506 828.031 349.978 828.439 349.522C828.859 349.066 829.351 348.712 829.915 348.46C830.491 348.196 831.127 348.064 831.823 348.064C832.555 348.064 833.221 348.22 833.821 348.532C834.421 348.832 834.913 349.306 835.297 349.954C835.681 350.602 835.897 351.442 835.945 352.474L835.225 351.322V344.86H836.953V358H835.585V353.734H836.089C836.041 354.826 835.813 355.714 835.405 356.398C834.997 357.07 834.481 357.562 833.857 357.874C833.245 358.174 832.585 358.324 831.877 358.324ZM832.111 356.812C832.699 356.812 833.233 356.68 833.713 356.416C834.193 356.152 834.577 355.774 834.865 355.282C835.153 354.778 835.297 354.19 835.297 353.518V352.69C835.297 352.03 835.147 351.472 834.847 351.016C834.559 350.548 834.169 350.194 833.677 349.954C833.197 349.702 832.669 349.576 832.093 349.576C831.457 349.576 830.893 349.726 830.401 350.026C829.921 350.326 829.543 350.746 829.267 351.286C829.003 351.826 828.871 352.462 828.871 353.194C828.871 353.926 829.009 354.568 829.285 355.12C829.561 355.66 829.945 356.08 830.437 356.38C830.929 356.668 831.487 356.812 832.111 356.812ZM850.455 358.324C849.615 358.324 848.889 358.18 848.277 357.892C847.665 357.604 847.167 357.226 846.783 356.758C846.399 356.278 846.111 355.744 845.919 355.156C845.739 354.568 845.649 353.968 845.649 353.356V353.032C845.649 352.408 845.739 351.802 845.919 351.214C846.111 350.626 846.399 350.098 846.783 349.63C847.167 349.15 847.653 348.772 848.241 348.496C848.841 348.208 849.543 348.064 850.347 348.064C851.391 348.064 852.249 348.292 852.921 348.748C853.605 349.192 854.109 349.768 854.433 350.476C854.769 351.184 854.937 351.94 854.937 352.744V353.518H846.405V352.222H853.677L853.281 352.924C853.281 352.24 853.173 351.652 852.957 351.16C852.741 350.656 852.417 350.266 851.985 349.99C851.553 349.714 851.007 349.576 850.347 349.576C849.663 349.576 849.093 349.732 848.637 350.044C848.193 350.356 847.857 350.782 847.629 351.322C847.413 351.862 847.305 352.486 847.305 353.194C847.305 353.878 847.413 354.496 847.629 355.048C847.857 355.588 848.205 356.02 848.673 356.344C849.141 356.656 849.735 356.812 850.455 356.812C851.211 356.812 851.823 356.644 852.291 356.308C852.771 355.972 853.059 355.582 853.155 355.138H854.775C854.643 355.798 854.379 356.368 853.983 356.848C853.587 357.328 853.089 357.694 852.489 357.946C851.889 358.198 851.211 358.324 850.455 358.324ZM857.203 358L860.641 352.942L860.587 353.302L857.365 348.388H859.273L861.595 352.006H861.847L864.043 348.388H865.825L862.783 353.176L862.837 352.852L866.437 358H864.529L861.829 354.094H861.577L858.985 358H857.203ZM869.427 361.6V348.388H870.795V352.546L870.471 352.51C870.531 351.478 870.747 350.638 871.119 349.99C871.503 349.33 872.001 348.844 872.613 348.532C873.225 348.22 873.891 348.064 874.611 348.064C875.307 348.064 875.937 348.196 876.501 348.46C877.077 348.724 877.569 349.084 877.977 349.54C878.385 349.996 878.697 350.524 878.913 351.124C879.129 351.724 879.237 352.36 879.237 353.032V353.356C879.237 354.028 879.123 354.664 878.895 355.264C878.667 355.864 878.343 356.392 877.923 356.848C877.515 357.304 877.023 357.664 876.447 357.928C875.883 358.192 875.259 358.324 874.575 358.324C873.891 358.324 873.237 358.174 872.613 357.874C871.989 357.574 871.473 357.088 871.065 356.416C870.657 355.744 870.423 354.862 870.363 353.77L871.155 355.21V361.6H869.427ZM874.305 356.812C874.953 356.812 875.517 356.662 875.997 356.362C876.477 356.05 876.849 355.624 877.113 355.084C877.377 354.532 877.509 353.902 877.509 353.194C877.509 352.474 877.377 351.844 877.113 351.304C876.849 350.764 876.477 350.344 875.997 350.044C875.517 349.732 874.953 349.576 874.305 349.576C873.729 349.576 873.195 349.708 872.703 349.972C872.211 350.224 871.815 350.596 871.515 351.088C871.227 351.568 871.083 352.15 871.083 352.834V353.662C871.083 354.322 871.233 354.886 871.533 355.354C871.833 355.822 872.229 356.182 872.721 356.434C873.213 356.686 873.741 356.812 874.305 356.812ZM886.924 358.324C886.084 358.324 885.358 358.18 884.746 357.892C884.134 357.604 883.636 357.226 883.252 356.758C882.868 356.278 882.58 355.744 882.388 355.156C882.208 354.568 882.118 353.968 882.118 353.356V353.032C882.118 352.408 882.208 351.802 882.388 351.214C882.58 350.626 882.868 350.098 883.252 349.63C883.636 349.15 884.122 348.772 884.71 348.496C885.31 348.208 886.012 348.064 886.816 348.064C887.86 348.064 888.718 348.292 889.39 348.748C890.074 349.192 890.578 349.768 890.902 350.476C891.238 351.184 891.406 351.94 891.406 352.744V353.518H882.874V352.222H890.146L889.75 352.924C889.75 352.24 889.642 351.652 889.426 351.16C889.21 350.656 888.886 350.266 888.454 349.99C888.022 349.714 887.476 349.576 886.816 349.576C886.132 349.576 885.562 349.732 885.106 350.044C884.662 350.356 884.326 350.782 884.098 351.322C883.882 351.862 883.774 352.486 883.774 353.194C883.774 353.878 883.882 354.496 884.098 355.048C884.326 355.588 884.674 356.02 885.142 356.344C885.61 356.656 886.204 356.812 886.924 356.812C887.68 356.812 888.292 356.644 888.76 356.308C889.24 355.972 889.528 355.582 889.624 355.138H891.244C891.112 355.798 890.848 356.368 890.452 356.848C890.056 357.328 889.558 357.694 888.958 357.946C888.358 358.198 887.68 358.324 886.924 358.324ZM894.859 358V348.388H896.227V352.348H896.155C896.155 350.944 896.461 349.918 897.073 349.27C897.697 348.61 898.627 348.28 899.863 348.28H900.187V349.828H899.575C898.615 349.828 897.877 350.086 897.361 350.602C896.845 351.106 896.587 351.838 896.587 352.798V358H894.859ZM903.71 358V348.388H905.438V358H903.71ZM902.234 349.756V348.388H905.438V349.756H902.234ZM904.196 346.84C903.812 346.84 903.524 346.738 903.332 346.534C903.152 346.33 903.062 346.072 903.062 345.76C903.062 345.448 903.152 345.19 903.332 344.986C903.524 344.782 903.812 344.68 904.196 344.68C904.58 344.68 904.862 344.782 905.042 344.986C905.234 345.19 905.33 345.448 905.33 345.76C905.33 346.072 905.234 346.33 905.042 346.534C904.862 346.738 904.58 346.84 904.196 346.84ZM913.865 358.324C913.025 358.324 912.299 358.18 911.687 357.892C911.075 357.604 910.577 357.226 910.193 356.758C909.809 356.278 909.521 355.744 909.329 355.156C909.149 354.568 909.059 353.968 909.059 353.356V353.032C909.059 352.408 909.149 351.802 909.329 351.214C909.521 350.626 909.809 350.098 910.193 349.63C910.577 349.15 911.063 348.772 911.651 348.496C912.251 348.208 912.953 348.064 913.757 348.064C914.801 348.064 915.659 348.292 916.331 348.748C917.015 349.192 917.519 349.768 917.843 350.476C918.179 351.184 918.347 351.94 918.347 352.744V353.518H909.815V352.222H917.087L916.691 352.924C916.691 352.24 916.583 351.652 916.367 351.16C916.151 350.656 915.827 350.266 915.395 349.99C914.963 349.714 914.417 349.576 913.757 349.576C913.073 349.576 912.503 349.732 912.047 350.044C911.603 350.356 911.267 350.782 911.039 351.322C910.823 351.862 910.715 352.486 910.715 353.194C910.715 353.878 910.823 354.496 911.039 355.048C911.267 355.588 911.615 356.02 912.083 356.344C912.551 356.656 913.145 356.812 913.865 356.812C914.621 356.812 915.233 356.644 915.701 356.308C916.181 355.972 916.469 355.582 916.565 355.138H918.185C918.053 355.798 917.789 356.368 917.393 356.848C916.997 357.328 916.499 357.694 915.899 357.946C915.299 358.198 914.621 358.324 913.865 358.324ZM921.801 358V348.388H923.169V352.51H922.953C922.953 351.562 923.079 350.764 923.331 350.116C923.595 349.456 923.991 348.958 924.519 348.622C925.047 348.274 925.713 348.1 926.517 348.1H926.589C927.801 348.1 928.695 348.478 929.271 349.234C929.859 349.99 930.153 351.082 930.153 352.51V358H928.425V352.15C928.425 351.406 928.215 350.812 927.795 350.368C927.375 349.912 926.799 349.684 926.067 349.684C925.311 349.684 924.699 349.918 924.231 350.386C923.763 350.854 923.529 351.478 923.529 352.258V358H921.801ZM938.436 358.324C937.608 358.324 936.888 358.18 936.276 357.892C935.676 357.604 935.178 357.22 934.782 356.74C934.386 356.248 934.086 355.708 933.882 355.12C933.69 354.532 933.594 353.944 933.594 353.356V353.032C933.594 352.42 933.69 351.82 933.882 351.232C934.086 350.644 934.386 350.116 934.782 349.648C935.19 349.168 935.694 348.784 936.294 348.496C936.894 348.208 937.596 348.064 938.4 348.064C939.204 348.064 939.924 348.214 940.56 348.514C941.208 348.814 941.724 349.24 942.108 349.792C942.504 350.332 942.726 350.974 942.774 351.718H941.118C941.034 351.118 940.758 350.62 940.29 350.224C939.822 349.816 939.192 349.612 938.4 349.612C937.716 349.612 937.146 349.768 936.69 350.08C936.234 350.392 935.892 350.818 935.664 351.358C935.436 351.898 935.322 352.51 935.322 353.194C935.322 353.854 935.436 354.46 935.664 355.012C935.892 355.552 936.234 355.984 936.69 356.308C937.158 356.62 937.74 356.776 938.436 356.776C938.976 356.776 939.444 356.68 939.84 356.488C940.236 356.296 940.554 356.038 940.794 355.714C941.034 355.39 941.178 355.024 941.226 354.616H942.882C942.846 355.372 942.624 356.026 942.216 356.578C941.82 357.13 941.292 357.562 940.632 357.874C939.984 358.174 939.252 358.324 938.436 358.324ZM950.316 358.324C949.476 358.324 948.75 358.18 948.138 357.892C947.526 357.604 947.028 357.226 946.644 356.758C946.26 356.278 945.972 355.744 945.78 355.156C945.6 354.568 945.51 353.968 945.51 353.356V353.032C945.51 352.408 945.6 351.802 945.78 351.214C945.972 350.626 946.26 350.098 946.644 349.63C947.028 349.15 947.514 348.772 948.102 348.496C948.702 348.208 949.404 348.064 950.208 348.064C951.252 348.064 952.11 348.292 952.782 348.748C953.466 349.192 953.97 349.768 954.294 350.476C954.63 351.184 954.798 351.94 954.798 352.744V353.518H946.266V352.222H953.538L953.142 352.924C953.142 352.24 953.034 351.652 952.818 351.16C952.602 350.656 952.278 350.266 951.846 349.99C951.414 349.714 950.868 349.576 950.208 349.576C949.524 349.576 948.954 349.732 948.498 350.044C948.054 350.356 947.718 350.782 947.49 351.322C947.274 351.862 947.166 352.486 947.166 353.194C947.166 353.878 947.274 354.496 947.49 355.048C947.718 355.588 948.066 356.02 948.534 356.344C949.002 356.656 949.596 356.812 950.316 356.812C951.072 356.812 951.684 356.644 952.152 356.308C952.632 355.972 952.92 355.582 953.016 355.138H954.636C954.504 355.798 954.24 356.368 953.844 356.848C953.448 357.328 952.95 357.694 952.35 357.946C951.75 358.198 951.072 358.324 950.316 358.324ZM963.347 358V348.388H964.715V352.51H964.499C964.499 351.574 964.619 350.782 964.859 350.134C965.111 349.474 965.483 348.97 965.975 348.622C966.467 348.274 967.091 348.1 967.847 348.1H967.919C968.675 348.1 969.299 348.274 969.791 348.622C970.295 348.97 970.667 349.474 970.907 350.134C971.147 350.782 971.267 351.574 971.267 352.51H970.763C970.763 351.574 970.889 350.782 971.141 350.134C971.393 349.474 971.765 348.97 972.257 348.622C972.761 348.274 973.391 348.1 974.147 348.1H974.219C974.975 348.1 975.605 348.274 976.109 348.622C976.613 348.97 976.985 349.474 977.225 350.134C977.477 350.782 977.603 351.574 977.603 352.51V358H975.875V352.132C975.875 351.352 975.683 350.752 975.299 350.332C974.915 349.9 974.381 349.684 973.697 349.684C972.989 349.684 972.419 349.912 971.987 350.368C971.555 350.812 971.339 351.436 971.339 352.24V358H969.611V352.132C969.611 351.352 969.419 350.752 969.035 350.332C968.651 349.9 968.117 349.684 967.433 349.684C966.725 349.684 966.155 349.912 965.723 350.368C965.291 350.812 965.075 351.436 965.075 352.24V358H963.347ZM987.581 358V355.12H987.293V351.79C987.293 351.13 987.119 350.632 986.771 350.296C986.435 349.96 985.937 349.792 985.277 349.792C984.905 349.792 984.521 349.798 984.125 349.81C983.729 349.822 983.351 349.834 982.991 349.846C982.631 349.858 982.319 349.876 982.055 349.9V348.388C982.319 348.364 982.595 348.346 982.883 348.334C983.183 348.31 983.489 348.298 983.801 348.298C984.113 348.286 984.413 348.28 984.701 348.28C985.685 348.28 986.489 348.4 987.113 348.64C987.737 348.868 988.199 349.246 988.499 349.774C988.799 350.302 988.949 351.016 988.949 351.916V358H987.581ZM984.431 358.252C983.711 358.252 983.087 358.132 982.559 357.892C982.043 357.64 981.641 357.28 981.353 356.812C981.077 356.344 980.939 355.78 980.939 355.12C980.939 354.436 981.089 353.866 981.389 353.41C981.701 352.954 982.151 352.612 982.739 352.384C983.327 352.144 984.035 352.024 984.863 352.024H987.473V353.32H984.791C984.095 353.32 983.561 353.488 983.189 353.824C982.817 354.16 982.631 354.592 982.631 355.12C982.631 355.648 982.817 356.074 983.189 356.398C983.561 356.722 984.095 356.884 984.791 356.884C985.199 356.884 985.589 356.812 985.961 356.668C986.333 356.512 986.639 356.26 986.879 355.912C987.131 355.552 987.269 355.06 987.293 354.436L987.761 355.12C987.701 355.804 987.533 356.38 987.257 356.848C986.993 357.304 986.621 357.652 986.141 357.892C985.673 358.132 985.103 358.252 984.431 358.252ZM997.135 358.324C996.451 358.324 995.821 358.198 995.245 357.946C994.669 357.694 994.165 357.34 993.733 356.884C993.313 356.428 992.983 355.9 992.743 355.3C992.515 354.7 992.401 354.052 992.401 353.356V353.032C992.401 352.348 992.515 351.706 992.743 351.106C992.971 350.506 993.289 349.978 993.697 349.522C994.117 349.066 994.609 348.712 995.173 348.46C995.749 348.196 996.385 348.064 997.081 348.064C997.813 348.064 998.479 348.22 999.079 348.532C999.679 348.832 1000.17 349.306 1000.55 349.954C1000.94 350.602 1001.15 351.442 1001.2 352.474L1000.48 351.322V344.86H1002.21V358H1000.84V353.734H1001.35C1001.3 354.826 1001.07 355.714 1000.66 356.398C1000.25 357.07 999.739 357.562 999.115 357.874C998.503 358.174 997.843 358.324 997.135 358.324ZM997.369 356.812C997.957 356.812 998.491 356.68 998.971 356.416C999.451 356.152 999.835 355.774 1000.12 355.282C1000.41 354.778 1000.55 354.19 1000.55 353.518V352.69C1000.55 352.03 1000.4 351.472 1000.1 351.016C999.817 350.548 999.427 350.194 998.935 349.954C998.455 349.702 997.927 349.576 997.351 349.576C996.715 349.576 996.151 349.726 995.659 350.026C995.179 350.326 994.801 350.746 994.525 351.286C994.261 351.826 994.129 352.462 994.129 353.194C994.129 353.926 994.267 354.568 994.543 355.12C994.819 355.66 995.203 356.08 995.695 356.38C996.187 356.668 996.745 356.812 997.369 356.812ZM1010.62 358.324C1009.78 358.324 1009.05 358.18 1008.44 357.892C1007.83 357.604 1007.33 357.226 1006.95 356.758C1006.56 356.278 1006.27 355.744 1006.08 355.156C1005.9 354.568 1005.81 353.968 1005.81 353.356V353.032C1005.81 352.408 1005.9 351.802 1006.08 351.214C1006.27 350.626 1006.56 350.098 1006.95 349.63C1007.33 349.15 1007.82 348.772 1008.4 348.496C1009 348.208 1009.71 348.064 1010.51 348.064C1011.55 348.064 1012.41 348.292 1013.08 348.748C1013.77 349.192 1014.27 349.768 1014.6 350.476C1014.93 351.184 1015.1 351.94 1015.1 352.744V353.518H1006.57V352.222H1013.84L1013.44 352.924C1013.44 352.24 1013.34 351.652 1013.12 351.16C1012.9 350.656 1012.58 350.266 1012.15 349.99C1011.72 349.714 1011.17 349.576 1010.51 349.576C1009.83 349.576 1009.26 349.732 1008.8 350.044C1008.36 350.356 1008.02 350.782 1007.79 351.322C1007.58 351.862 1007.47 352.486 1007.47 353.194C1007.47 353.878 1007.58 354.496 1007.79 355.048C1008.02 355.588 1008.37 356.02 1008.84 356.344C1009.3 356.656 1009.9 356.812 1010.62 356.812C1011.37 356.812 1011.99 356.644 1012.45 356.308C1012.93 355.972 1013.22 355.582 1013.32 355.138H1014.94C1014.81 355.798 1014.54 356.368 1014.15 356.848C1013.75 357.328 1013.25 357.694 1012.65 357.946C1012.05 358.198 1011.37 358.324 1010.62 358.324ZM1026.98 358.288C1025.84 358.288 1024.96 357.916 1024.35 357.172C1023.74 356.428 1023.43 355.354 1023.43 353.95V348.37H1025.16V354.292C1025.16 355.048 1025.36 355.642 1025.77 356.074C1026.18 356.494 1026.73 356.704 1027.43 356.704C1028.15 356.704 1028.74 356.476 1029.19 356.02C1029.65 355.552 1029.88 354.916 1029.88 354.112V348.37H1031.6V358H1030.24V353.878H1030.45C1030.45 354.826 1030.33 355.63 1030.07 356.29C1029.82 356.938 1029.44 357.436 1028.94 357.784C1028.45 358.12 1027.82 358.288 1027.05 358.288H1026.98ZM1035.95 361.6V348.388H1037.32V352.546L1036.99 352.51C1037.05 351.478 1037.27 350.638 1037.64 349.99C1038.03 349.33 1038.52 348.844 1039.14 348.532C1039.75 348.22 1040.41 348.064 1041.13 348.064C1041.83 348.064 1042.46 348.196 1043.02 348.46C1043.6 348.724 1044.09 349.084 1044.5 349.54C1044.91 349.996 1045.22 350.524 1045.44 351.124C1045.65 351.724 1045.76 352.36 1045.76 353.032V353.356C1045.76 354.028 1045.65 354.664 1045.42 355.264C1045.19 355.864 1044.87 356.392 1044.45 356.848C1044.04 357.304 1043.55 357.664 1042.97 357.928C1042.41 358.192 1041.78 358.324 1041.1 358.324C1040.41 358.324 1039.76 358.174 1039.14 357.874C1038.51 357.574 1038 357.088 1037.59 356.416C1037.18 355.744 1036.95 354.862 1036.89 353.77L1037.68 355.21V361.6H1035.95ZM1040.83 356.812C1041.48 356.812 1042.04 356.662 1042.52 356.362C1043 356.05 1043.37 355.624 1043.64 355.084C1043.9 354.532 1044.03 353.902 1044.03 353.194C1044.03 352.474 1043.9 351.844 1043.64 351.304C1043.37 350.764 1043 350.344 1042.52 350.044C1042.04 349.732 1041.48 349.576 1040.83 349.576C1040.25 349.576 1039.72 349.708 1039.23 349.972C1038.73 350.224 1038.34 350.596 1038.04 351.088C1037.75 351.568 1037.61 352.15 1037.61 352.834V353.662C1037.61 354.322 1037.76 354.886 1038.06 355.354C1038.36 355.822 1038.75 356.182 1039.24 356.434C1039.74 356.686 1040.26 356.812 1040.83 356.812ZM613.084 383.324C612.244 383.324 611.506 383.18 610.87 382.892C610.234 382.604 609.694 382.226 609.25 381.758C608.818 381.278 608.488 380.744 608.26 380.156C608.044 379.568 607.936 378.968 607.936 378.356V378.032C607.936 377.42 608.05 376.82 608.278 376.232C608.506 375.632 608.842 375.098 609.286 374.63C609.73 374.15 610.27 373.772 610.906 373.496C611.542 373.208 612.268 373.064 613.084 373.064C613.9 373.064 614.626 373.208 615.262 373.496C615.898 373.772 616.438 374.15 616.882 374.63C617.326 375.098 617.662 375.632 617.89 376.232C618.118 376.82 618.232 377.42 618.232 378.032V378.356C618.232 378.968 618.118 379.568 617.89 380.156C617.674 380.744 617.344 381.278 616.9 381.758C616.468 382.226 615.934 382.604 615.298 382.892C614.662 383.18 613.924 383.324 613.084 383.324ZM613.084 381.776C613.804 381.776 614.416 381.62 614.92 381.308C615.436 380.984 615.826 380.552 616.09 380.012C616.366 379.472 616.504 378.866 616.504 378.194C616.504 377.51 616.366 376.898 616.09 376.358C615.814 375.818 615.418 375.392 614.902 375.08C614.398 374.768 613.792 374.612 613.084 374.612C612.388 374.612 611.782 374.768 611.266 375.08C610.75 375.392 610.354 375.818 610.078 376.358C609.802 376.898 609.664 377.51 609.664 378.194C609.664 378.866 609.796 379.472 610.06 380.012C610.336 380.552 610.726 380.984 611.23 381.308C611.746 381.62 612.364 381.776 613.084 381.776ZM622.072 383V372.902C622.072 371.834 622.354 371.048 622.918 370.544C623.482 370.04 624.31 369.788 625.402 369.788H626.59V371.228H625.114C624.67 371.228 624.328 371.354 624.088 371.606C623.848 371.846 623.728 372.182 623.728 372.614V383H622.072ZM620.74 374.792V373.496H626.77V374.792H620.74ZM639.362 383.36C638.402 383.36 637.598 383.192 636.95 382.856C636.314 382.52 635.804 382.064 635.42 381.488C635.048 380.9 634.778 380.228 634.61 379.472C634.454 378.716 634.376 377.924 634.376 377.096V376.232C634.376 374.156 634.892 372.56 635.924 371.444C636.956 370.316 638.45 369.752 640.406 369.752C640.874 369.752 641.27 369.764 641.594 369.788C641.918 369.812 642.272 369.848 642.656 369.896V371.372C642.26 371.324 641.894 371.288 641.558 371.264C641.222 371.24 640.814 371.228 640.334 371.228C639.242 371.228 638.378 371.432 637.742 371.84C637.106 372.248 636.65 372.836 636.374 373.604C636.098 374.36 635.96 375.278 635.96 376.358V377.168L635.528 378.77C635.54 377.822 635.72 377.036 636.068 376.412C636.428 375.788 636.914 375.32 637.526 375.008C638.15 374.696 638.864 374.54 639.668 374.54C640.604 374.54 641.396 374.732 642.044 375.116C642.692 375.488 643.178 376.004 643.502 376.664C643.838 377.324 644.006 378.074 644.006 378.914C644.006 379.766 643.832 380.528 643.484 381.2C643.136 381.872 642.614 382.4 641.918 382.784C641.234 383.168 640.382 383.36 639.362 383.36ZM639.362 381.848C640.022 381.848 640.574 381.722 641.018 381.47C641.462 381.218 641.792 380.876 642.008 380.444C642.236 380 642.35 379.49 642.35 378.914C642.35 378.338 642.242 377.828 642.026 377.384C641.81 376.94 641.486 376.598 641.054 376.358C640.634 376.106 640.112 375.98 639.488 375.98C638.876 375.98 638.324 376.094 637.832 376.322C637.352 376.55 636.974 376.886 636.698 377.33C636.422 377.762 636.284 378.296 636.284 378.932C636.284 379.46 636.392 379.946 636.608 380.39C636.824 380.834 637.16 381.188 637.616 381.452C638.072 381.716 638.654 381.848 639.362 381.848ZM652.805 383V369.86H654.533V383H652.805ZM651.473 371.228V369.86H654.533V371.228H651.473ZM662.933 383.324C662.093 383.324 661.367 383.18 660.755 382.892C660.143 382.604 659.645 382.226 659.261 381.758C658.877 381.278 658.589 380.744 658.397 380.156C658.217 379.568 658.127 378.968 658.127 378.356V378.032C658.127 377.408 658.217 376.802 658.397 376.214C658.589 375.626 658.877 375.098 659.261 374.63C659.645 374.15 660.131 373.772 660.719 373.496C661.319 373.208 662.021 373.064 662.825 373.064C663.869 373.064 664.727 373.292 665.399 373.748C666.083 374.192 666.587 374.768 666.911 375.476C667.247 376.184 667.415 376.94 667.415 377.744V378.518H658.883V377.222H666.155L665.759 377.924C665.759 377.24 665.651 376.652 665.435 376.16C665.219 375.656 664.895 375.266 664.463 374.99C664.031 374.714 663.485 374.576 662.825 374.576C662.141 374.576 661.571 374.732 661.115 375.044C660.671 375.356 660.335 375.782 660.107 376.322C659.891 376.862 659.783 377.486 659.783 378.194C659.783 378.878 659.891 379.496 660.107 380.048C660.335 380.588 660.683 381.02 661.151 381.344C661.619 381.656 662.213 381.812 662.933 381.812C663.689 381.812 664.301 381.644 664.769 381.308C665.249 380.972 665.537 380.582 665.633 380.138H667.253C667.121 380.798 666.857 381.368 666.461 381.848C666.065 382.328 665.567 382.694 664.967 382.946C664.367 383.198 663.689 383.324 662.933 383.324ZM672.851 383L669.575 373.388H671.375L674.579 383H672.851ZM673.283 383V381.632H675.371V383H673.283ZM674.111 383L676.901 373.388H678.593L675.749 383H674.111ZM685.763 383.324C684.923 383.324 684.197 383.18 683.585 382.892C682.973 382.604 682.475 382.226 682.091 381.758C681.707 381.278 681.419 380.744 681.227 380.156C681.047 379.568 680.957 378.968 680.957 378.356V378.032C680.957 377.408 681.047 376.802 681.227 376.214C681.419 375.626 681.707 375.098 682.091 374.63C682.475 374.15 682.961 373.772 683.549 373.496C684.149 373.208 684.851 373.064 685.655 373.064C686.699 373.064 687.557 373.292 688.229 373.748C688.913 374.192 689.417 374.768 689.741 375.476C690.077 376.184 690.245 376.94 690.245 377.744V378.518H681.713V377.222H688.985L688.589 377.924C688.589 377.24 688.481 376.652 688.265 376.16C688.049 375.656 687.725 375.266 687.293 374.99C686.861 374.714 686.315 374.576 685.655 374.576C684.971 374.576 684.401 374.732 683.945 375.044C683.501 375.356 683.165 375.782 682.937 376.322C682.721 376.862 682.613 377.486 682.613 378.194C682.613 378.878 682.721 379.496 682.937 380.048C683.165 380.588 683.513 381.02 683.981 381.344C684.449 381.656 685.043 381.812 685.763 381.812C686.519 381.812 687.131 381.644 687.599 381.308C688.079 380.972 688.367 380.582 688.463 380.138H690.083C689.951 380.798 689.687 381.368 689.291 381.848C688.895 382.328 688.397 382.694 687.797 382.946C687.197 383.198 686.519 383.324 685.763 383.324ZM693.807 383V369.86H695.535V383H693.807ZM692.475 371.228V369.86H695.535V371.228H692.475ZM702.999 383.288C701.739 383.288 700.761 383.018 700.065 382.478C699.381 381.938 699.027 381.2 699.003 380.264H700.623C700.647 380.636 700.833 380.99 701.181 381.326C701.541 381.65 702.147 381.812 702.999 381.812C703.767 381.812 704.355 381.662 704.763 381.362C705.171 381.05 705.375 380.672 705.375 380.228C705.375 379.832 705.225 379.526 704.925 379.31C704.625 379.082 704.139 378.932 703.467 378.86L702.423 378.752C701.511 378.656 700.767 378.386 700.191 377.942C699.615 377.486 699.327 376.85 699.327 376.034C699.327 375.422 699.483 374.9 699.795 374.468C700.107 374.024 700.539 373.688 701.091 373.46C701.643 373.22 702.279 373.1 702.999 373.1C704.079 373.1 704.955 373.34 705.627 373.82C706.299 374.3 706.647 375.014 706.671 375.962H705.051C705.039 375.578 704.859 375.254 704.511 374.99C704.175 374.714 703.671 374.576 702.999 374.576C702.327 374.576 701.817 374.714 701.469 374.99C701.121 375.266 700.947 375.614 700.947 376.034C700.947 376.394 701.067 376.682 701.307 376.898C701.559 377.114 701.967 377.252 702.531 377.312L703.575 377.42C704.607 377.528 705.435 377.816 706.059 378.284C706.683 378.74 706.995 379.388 706.995 380.228C706.995 380.828 706.821 381.362 706.473 381.83C706.137 382.286 705.669 382.646 705.069 382.91C704.469 383.162 703.779 383.288 702.999 383.288Z" fill="#F5F5F5"/>
<path d="M271.5 202V196.625H266.125V191.25H271.5V185.875V180.5V175.125H276.875V180.5V185.875V191.25V196.625V202H271.5ZM250 202V196.625V191.25V185.875V180.5V175.125H255.375V180.5V185.875V191.25H260.75V196.625H255.375V202H250ZM266.125 191.25H260.75V185.875H266.125V191.25ZM309.125 196.625H314.5V202H309.125H303.75H298.375H293H287.625V196.625V191.25V185.875V180.5V175.125H293H298.375H303.75H309.125H314.5V180.5H309.125H303.75H298.375H293V185.875H298.375H303.75H309.125V191.25H303.75H298.375H293V196.625H298.375H303.75H309.125ZM346.75 196.625H352.125V202H346.75H341.375H336H330.625H325.25V196.625V191.25V185.875V180.5V175.125H330.625V180.5V185.875V191.25V196.625H336H341.375H346.75ZM384.375 196.625H389.75V202H384.375H379H373.625H368.25V196.625H373.625H379H384.375ZM368.25 196.625H362.875V191.25V185.875V180.5H368.25V185.875V191.25V196.625ZM384.375 175.125H389.75V180.5H384.375H379H373.625H368.25V175.125H373.625H379H384.375ZM416.625 196.625H422V202H416.625H411.25H405.875V196.625H411.25H416.625ZM422 196.625V191.25V185.875V180.5H427.375V185.875V191.25V196.625H422ZM405.875 196.625H400.5V191.25V185.875V180.5H405.875V185.875V191.25V196.625ZM422 180.5H416.625H411.25H405.875V175.125H411.25H416.625H422V180.5ZM459.625 202V196.625V191.25V185.875H454.25V191.25H448.875V185.875H454.25V180.5H459.625V175.125H465V180.5V185.875V191.25V196.625V202H459.625ZM438.125 202V196.625V191.25V185.875V180.5V175.125H443.5V180.5H448.875V185.875H443.5V191.25V196.625V202H438.125ZM497.25 196.625H502.625V202H497.25H491.875H486.5H481.125H475.75V196.625V191.25V185.875V180.5V175.125H481.125H486.5H491.875H497.25H502.625V180.5H497.25H491.875H486.5H481.125V185.875H486.5H491.875H497.25V191.25H491.875H486.5H481.125V196.625H486.5H491.875H497.25ZM551 202V196.625V191.25V185.875V180.5H545.625H540.25V175.125H545.625H551H556.375H561.75H567.125V180.5H561.75H556.375V185.875V191.25V196.625V202H551ZM594 196.625H599.375V202H594H588.625H583.25V196.625H588.625H594ZM599.375 196.625V191.25V185.875V180.5H604.75V185.875V191.25V196.625H599.375ZM583.25 196.625H577.875V191.25V185.875V180.5H583.25V185.875V191.25V196.625ZM599.375 180.5H594H588.625H583.25V175.125H588.625H594H599.375V180.5ZM653.125 202V196.625V191.25V185.875V180.5H647.75H642.375V175.125H647.75H653.125H658.5H663.875H669.25V180.5H663.875H658.5V185.875V191.25V196.625V202H653.125ZM701.5 202V196.625V191.25H696.125H690.75H685.375V196.625V202H680V196.625V191.25V185.875V180.5V175.125H685.375V180.5V185.875H690.75H696.125H701.5V180.5V175.125H706.875V180.5V185.875V191.25V196.625V202H701.5ZM739.125 196.625H744.5V202H739.125H733.75H728.375H723H717.625V196.625V191.25V185.875V180.5V175.125H723H728.375H733.75H739.125H744.5V180.5H739.125H733.75H728.375H723V185.875H728.375H733.75H739.125V191.25H733.75H728.375H723V196.625H728.375H733.75H739.125ZM803.625 202V196.625H798.25V191.25H803.625V185.875V180.5V175.125H809V180.5V185.875V191.25V196.625V202H803.625ZM782.125 202V196.625V191.25V185.875V180.5V175.125H787.5V180.5V185.875V191.25H792.875V196.625H787.5V202H782.125ZM798.25 191.25H792.875V185.875H798.25V191.25ZM841.25 202V196.625V191.25H835.875H830.5H825.125V196.625V202H819.75V196.625V191.25V185.875V180.5H825.125V185.875H830.5H835.875H841.25V180.5H846.625V185.875V191.25V196.625V202H841.25ZM841.25 180.5H835.875H830.5H825.125V175.125H830.5H835.875H841.25V180.5ZM868.125 202V196.625H873.5V202H868.125ZM873.5 196.625V191.25H878.875V196.625H873.5ZM868.125 196.625H862.75V191.25H868.125V196.625ZM878.875 191.25V185.875V180.5V175.125H884.25V180.5V185.875V191.25H878.875ZM862.75 191.25H857.375V185.875V180.5V175.125H862.75V180.5V185.875V191.25ZM916.5 202H911.125H905.75H900.375V196.625H905.75H911.125H916.5V191.25H911.125V185.875H916.5H921.875V191.25V196.625V202H916.5ZM900.375 196.625H895V191.25V185.875V180.5H900.375V185.875V191.25V196.625ZM916.5 175.125H921.875V180.5H916.5H911.125H905.75H900.375V175.125H905.75H911.125H916.5ZM954.125 202V196.625V191.25H948.75H943.375H938V196.625V202H932.625V196.625V191.25V185.875V180.5H938V185.875H943.375H948.75H954.125V180.5H959.5V185.875V191.25V196.625V202H954.125ZM954.125 180.5H948.75H943.375H938V175.125H943.375H948.75H954.125V180.5ZM991.75 202V196.625V191.25V185.875H986.375V191.25H981V185.875H986.375V180.5H991.75V175.125H997.125V180.5V185.875V191.25V196.625V202H991.75ZM970.25 202V196.625V191.25V185.875V180.5V175.125H975.625V180.5H981V185.875H975.625V191.25V196.625V202H970.25ZM1029.38 196.625H1034.75V202H1029.38H1024H1018.62H1013.25H1007.88V196.625V191.25V185.875V180.5V175.125H1013.25H1018.62H1024H1029.38H1034.75V180.5H1029.38H1024H1018.62H1013.25V185.875H1018.62H1024H1029.38V191.25H1024H1018.62H1013.25V196.625H1018.62H1024H1029.38Z" fill="url(#paint1_linear_2619_161328)"/>
<defs>
<linearGradient id="paint0_linear_2619_161328" x1="1842.93" y1="367.787" x2="1842.93" y2="673.361" gradientUnits="userSpaceOnUse">
<stop stop-color="#B83182"/>
<stop offset="1" stop-color="#C55562"/>
</linearGradient>
<linearGradient id="paint1_linear_2619_161328" x1="237.785" y1="188" x2="949.298" y2="192.145" gradientUnits="userSpaceOnUse">
<stop stop-color="#FE7A8B"/>
<stop offset="1" stop-color="#B721EB"/>
</linearGradient>
<clipPath id="clip0_2619_161328">
<rect width="61" height="63" fill="white" transform="translate(1033 385)"/>
</clipPath>
<clipPath id="clip1_2619_161328">
<rect width="46" height="48" fill="white" transform="translate(1069 431)"/>
</clipPath>
</defs>
</svg>
