<svg width="1260" height="479" viewBox="0 0 1260 479" fill="none" xmlns="http://www.w3.org/2000/svg">
<rect x="41.4999" y="79.2278" width="1218" height="307.272" rx="59.5" stroke="#631C4B"/>
<rect x="34.4999" y="72.1569" width="1213.44" height="304.574" rx="59.5" stroke="#8B2468"/>
<rect x="1213.5" y="350.5" width="1213" height="307" rx="59.5" transform="rotate(180 1213.5 350.5)" stroke="#832B2B"/>
<rect x="1223.95" y="357.843" width="1212.86" height="304.574" rx="59.5" transform="rotate(180 1223.95 357.843)" stroke="#AF4047"/>
<rect x="1235.5" y="367.287" width="1212.86" height="304.574" rx="57.5" transform="rotate(180 1235.5 367.287)" fill="#262020" stroke="url(#paint0_linear_2619_161328)"/>
<g opacity="0.39">
<path d="M1078.81 42.5C1078.81 39.1759 1078.16 35.8844 1076.89 32.8133C1075.61 29.7423 1073.75 26.9518 1071.4 24.6014C1069.05 22.2509 1066.26 20.3864 1063.19 19.1143C1060.12 17.8422 1056.82 17.1875 1053.5 17.1875C1050.18 17.1875 1046.88 17.8422 1043.81 19.1143C1040.74 20.3864 1037.95 22.2509 1035.6 24.6014C1033.25 26.9518 1031.39 29.7423 1030.11 32.8133C1028.84 35.8844 1028.19 39.1759 1028.19 42.5H1032.76C1032.76 39.7762 1033.3 37.0792 1034.34 34.5627C1035.38 32.0463 1036.91 29.7598 1038.83 27.8339C1040.76 25.9079 1043.05 24.3801 1045.56 23.3378C1048.08 22.2954 1050.78 21.7589 1053.5 21.7589C1056.22 21.7589 1058.92 22.2954 1061.44 23.3378C1063.95 24.3801 1066.24 25.9079 1068.17 27.8339C1070.09 29.7598 1071.62 32.0463 1072.66 34.5627C1073.7 37.0792 1074.24 39.7762 1074.24 42.5H1078.81Z" fill="#832B2B"/>
<path d="M1086.69 42.5C1086.69 38.1418 1085.83 33.8262 1084.16 29.7997C1082.49 25.7732 1080.05 22.1146 1076.97 19.0329C1073.89 15.9511 1070.23 13.5066 1066.2 11.8387C1062.17 10.1709 1057.86 9.31249 1053.5 9.31249C1049.14 9.31249 1044.83 10.1709 1040.8 11.8387C1036.77 13.5066 1033.11 15.9511 1030.03 19.0329C1026.95 22.1146 1024.51 25.7732 1022.84 29.7997C1021.17 33.8262 1020.31 38.1418 1020.31 42.5H1024.43C1024.43 38.6826 1025.18 34.9026 1026.64 31.3758C1028.1 27.849 1030.25 24.6445 1032.95 21.9452C1035.64 19.2459 1038.85 17.1047 1042.38 15.6438C1045.9 14.183 1049.68 13.4311 1053.5 13.4311C1057.32 13.4311 1061.1 14.183 1064.62 15.6438C1068.15 17.1047 1071.36 19.2459 1074.05 21.9452C1076.75 24.6445 1078.9 27.849 1080.36 31.3758C1081.82 34.9026 1082.57 38.6826 1082.57 42.5H1086.69Z" fill="#AF4047"/>
<path d="M1094 42.5C1094 37.1815 1092.95 31.915 1090.92 27.0013C1088.88 22.0876 1085.9 17.6229 1082.14 13.8622C1078.38 10.1014 1073.91 7.11819 1069 5.08288C1064.08 3.04756 1058.82 2 1053.5 2C1048.18 2 1042.92 3.04756 1038 5.08288C1033.09 7.11819 1028.62 10.1014 1024.86 13.8622C1021.1 17.6229 1018.12 22.0876 1016.08 27.0013C1014.05 31.915 1013 37.1815 1013 42.5H1016.73C1016.73 37.6708 1017.68 32.8888 1019.53 28.4272C1021.37 23.9656 1024.08 19.9116 1027.5 16.4969C1030.91 13.0821 1034.97 10.3733 1039.43 8.52525C1043.89 6.67719 1048.67 5.72601 1053.5 5.72601C1058.33 5.726 1063.11 6.67719 1067.57 8.52525C1072.03 10.3733 1076.09 13.0821 1079.5 16.4969C1082.92 19.9116 1085.63 23.9656 1087.47 28.4272C1089.32 32.8888 1090.27 37.6708 1090.27 42.5H1094Z" fill="#C55662"/>
</g>
<g opacity="0.48">
<path d="M1129.44 53.5C1129.44 57.5628 1128.64 61.5858 1127.08 65.3393C1125.53 69.0928 1123.25 72.5033 1120.38 75.3761C1117.5 78.2489 1114.09 80.5278 1110.34 82.0825C1106.59 83.6373 1102.56 84.4375 1098.5 84.4375C1094.44 84.4375 1090.41 83.6373 1086.66 82.0825C1082.91 80.5278 1079.5 78.2489 1076.62 75.3761C1073.75 72.5033 1071.47 69.0928 1069.92 65.3393C1068.36 61.5858 1067.56 57.5628 1067.56 53.5H1073.15C1073.15 56.829 1073.81 60.1255 1075.08 63.2011C1076.35 66.2767 1078.22 69.0713 1080.57 71.4253C1082.93 73.7793 1085.72 75.6466 1088.8 76.9205C1091.87 78.1945 1095.17 78.8502 1098.5 78.8502C1101.83 78.8502 1105.13 78.1945 1108.2 76.9205C1111.28 75.6466 1114.07 73.7793 1116.43 71.4253C1118.78 69.0713 1120.65 66.2767 1121.92 63.2011C1123.19 60.1255 1123.85 56.829 1123.85 53.5H1129.44Z" fill="#812572"/>
<path d="M1139.06 53.5C1139.06 58.8267 1138.01 64.1013 1135.97 69.0226C1133.94 73.9439 1130.95 78.4155 1127.18 82.182C1123.42 85.9486 1118.94 88.9364 1114.02 90.9749C1109.1 93.0133 1103.83 94.0625 1098.5 94.0625C1093.17 94.0625 1087.9 93.0133 1082.98 90.9749C1078.06 88.9364 1073.58 85.9486 1069.82 82.182C1066.05 78.4154 1063.06 73.9439 1061.03 69.0226C1058.99 64.1013 1057.94 58.8267 1057.94 53.5H1062.97C1062.97 58.1657 1063.89 62.7857 1065.68 67.0962C1067.46 71.4068 1070.08 75.3234 1073.38 78.6226C1076.68 81.9217 1080.59 84.5387 1084.9 86.3242C1089.21 88.1097 1093.83 89.0287 1098.5 89.0287C1103.17 89.0287 1107.79 88.1097 1112.1 86.3242C1116.41 84.5388 1120.32 81.9217 1123.62 78.6226C1126.92 75.3234 1129.54 71.4068 1131.32 67.0962C1133.11 62.7857 1134.03 58.1657 1134.03 53.5H1139.06Z" fill="#A22787"/>
<path d="M1148 53.5C1148 60.0004 1146.72 66.4372 1144.23 72.4428C1141.74 78.4484 1138.1 83.9053 1133.5 88.5018C1128.91 93.0983 1123.45 96.7444 1117.44 99.232C1111.44 101.72 1105 103 1098.5 103C1092 103 1085.56 101.72 1079.56 99.232C1073.55 96.7444 1068.09 93.0983 1063.5 88.5018C1058.9 83.9053 1055.26 78.4484 1052.77 72.4428C1050.28 66.4372 1049 60.0004 1049 53.5H1053.55C1053.55 59.4024 1054.72 65.247 1056.98 70.7001C1059.23 76.1532 1062.54 81.108 1066.72 85.2816C1070.89 89.4552 1075.85 92.7659 1081.3 95.0247C1086.75 97.2834 1092.6 98.446 1098.5 98.446C1104.4 98.446 1110.25 97.2834 1115.7 95.0247C1121.15 92.7659 1126.11 89.4552 1130.28 85.2816C1134.46 81.108 1137.77 76.1532 1140.02 70.7001C1142.28 65.247 1143.45 59.4024 1143.45 53.5H1148Z" fill="#B83182"/>
</g>
<rect x="1138.5" y="423.5" width="577" height="132" rx="44.5" transform="rotate(180 1138.5 423.5)" fill="#272121" stroke="#88292F"/>
<rect x="1131.5" y="416.5" width="581" height="132" rx="40.5" transform="rotate(180 1131.5 416.5)" fill="#272121" stroke="#B83182"/>
<path d="M390.541 366.396C390.541 359.073 389.099 351.822 386.296 345.056C383.494 338.29 379.386 332.143 374.208 326.965C369.03 321.786 362.882 317.679 356.117 314.876C349.351 312.074 342.1 310.631 334.776 310.631C327.453 310.631 320.202 312.074 313.436 314.876C306.671 317.679 300.523 321.786 295.345 326.965C290.167 332.143 286.059 338.29 283.257 345.056C280.454 351.822 279.012 359.073 279.012 366.396H289.083C289.083 360.396 290.265 354.454 292.561 348.91C294.857 343.366 298.223 338.329 302.466 334.086C306.709 329.843 311.746 326.477 317.29 324.181C322.834 321.884 328.776 320.703 334.776 320.703C340.777 320.703 346.719 321.884 352.263 324.181C357.806 326.477 362.844 329.843 367.087 334.086C371.33 338.329 374.696 343.366 376.992 348.91C379.288 354.454 380.47 360.396 380.47 366.396H390.541Z" fill="#812572"/>
<path d="M407.89 366.396C407.89 356.795 405.999 347.287 402.325 338.417C398.65 329.546 393.265 321.486 386.476 314.697C379.686 307.908 371.626 302.522 362.756 298.848C353.885 295.174 344.378 293.282 334.776 293.282C325.175 293.282 315.668 295.174 306.797 298.848C297.926 302.522 289.866 307.908 283.077 314.697C276.288 321.486 270.902 329.546 267.228 338.417C263.554 347.287 261.663 356.795 261.663 366.396H270.736C270.736 357.986 272.392 349.659 275.611 341.889C278.829 334.119 283.546 327.06 289.493 321.113C295.44 315.166 302.499 310.449 310.269 307.231C318.039 304.012 326.366 302.356 334.776 302.356C343.186 302.356 351.514 304.012 359.284 307.231C367.053 310.449 374.113 315.166 380.06 321.113C386.006 327.06 390.724 334.119 393.942 341.889C397.16 349.659 398.817 357.986 398.817 366.396H407.89Z" fill="#A22787"/>
<path d="M424 366.396C424 354.679 421.692 343.077 417.208 332.252C412.724 321.427 406.152 311.591 397.867 303.306C389.582 295.02 379.746 288.448 368.921 283.964C358.096 279.48 346.493 277.173 334.776 277.173C323.059 277.173 311.457 279.48 300.632 283.964C289.807 288.448 279.971 295.02 271.686 303.306C263.401 311.591 256.828 321.427 252.344 332.252C247.861 343.077 245.553 354.679 245.553 366.396H253.761C253.761 355.757 255.857 345.222 259.928 335.393C264 325.564 269.967 316.633 277.49 309.11C285.013 301.587 293.944 295.619 303.773 291.548C313.602 287.477 324.137 285.381 334.776 285.381C345.415 285.381 355.95 287.477 365.779 291.548C375.609 295.619 384.54 301.587 392.063 309.11C399.586 316.633 405.553 325.564 409.624 335.393C413.696 345.222 415.791 355.757 415.791 366.396H424Z" fill="#B83182"/>
<path d="M252.988 386.619C252.988 393.942 251.546 401.193 248.744 407.959C245.941 414.725 241.833 420.872 236.655 426.05C231.477 431.229 225.33 435.336 218.564 438.139C211.798 440.941 204.547 442.384 197.224 442.384C189.9 442.384 182.649 440.941 175.883 438.139C169.118 435.336 162.97 431.229 157.792 426.05C152.614 420.872 148.506 414.725 145.704 407.959C142.901 401.193 141.459 393.942 141.459 386.619H151.53C151.53 392.619 152.712 398.561 155.008 404.105C157.305 409.649 160.67 414.686 164.913 418.929C169.156 423.172 174.194 426.538 179.737 428.834C185.281 431.131 191.223 432.312 197.224 432.312C203.224 432.312 209.166 431.131 214.71 428.834C220.254 426.538 225.291 423.172 229.534 418.929C233.777 414.686 237.143 409.649 239.439 404.105C241.735 398.561 242.917 392.619 242.917 386.619H252.988Z" fill="#CE5262"/>
<path d="M270.337 386.619C270.337 396.22 268.446 405.728 264.772 414.598C261.098 423.469 255.712 431.529 248.923 438.318C242.134 445.107 234.074 450.493 225.203 454.167C216.332 457.842 206.825 459.733 197.224 459.733C187.622 459.733 178.115 457.842 169.244 454.167C160.374 450.493 152.314 445.107 145.524 438.318C138.735 431.529 133.35 423.469 129.675 414.598C126.001 405.728 124.11 396.22 124.11 386.619H133.183C133.183 395.029 134.84 403.356 138.058 411.126C141.276 418.896 145.993 425.956 151.94 431.902C157.887 437.849 164.947 442.566 172.716 445.784C180.486 449.003 188.814 450.659 197.224 450.659C205.633 450.659 213.961 449.003 221.731 445.784C229.5 442.566 236.56 437.849 242.507 431.902C248.454 425.956 253.171 418.896 256.389 411.126C259.607 403.356 261.264 395.029 261.264 386.619H270.337Z" fill="#AF4047"/>
<path d="M286.447 386.619C286.447 398.336 284.139 409.938 279.655 420.763C275.172 431.588 268.599 441.424 260.314 449.709C252.029 457.995 242.193 464.567 231.368 469.051C220.543 473.535 208.941 475.842 197.224 475.842C185.507 475.842 173.904 473.535 163.079 469.051C152.254 464.567 142.418 457.995 134.133 449.709C125.848 441.424 119.276 431.588 114.792 420.763C110.308 409.938 108 398.336 108 386.619H116.209C116.209 397.258 118.304 407.793 122.375 417.622C126.447 427.451 132.414 436.382 139.937 443.905C147.46 451.428 156.391 457.396 166.22 461.467C176.05 465.538 186.585 467.634 197.224 467.634C207.863 467.634 218.397 465.538 228.227 461.467C238.056 457.396 246.987 451.428 254.51 443.905C262.033 436.382 268 427.451 272.072 417.622C276.143 407.793 278.239 397.258 278.239 386.619H286.447Z" fill="#832B2B"/>
<path d="M152 107C152 104.239 149.761 102 147 102C144.239 102 142 104.239 142 107L152 107ZM152 366L152 107L142 107L142 366L152 366Z" fill="#CE5262"/>
<path d="M134 5C134 2.23859 131.761 -1.20706e-07 129 0C126.239 1.20706e-07 124 2.23859 124 5L134 5ZM134 366L134 5L124 5L124 366L134 366Z" fill="#AF4047"/>
<path d="M117 145C117 142.239 114.761 140 112 140C109.239 140 107 142.239 107 145L117 145ZM117 366L117 145L107 145L107 366L117 366Z" fill="#832B2B"/>
<g clip-path="url(#clip0_2619_161328)">
<mask id="mask0_2619_161328" style="mask-type:luminance" maskUnits="userSpaceOnUse" x="1033" y="385" width="61" height="63">
<path d="M1094 385H1033V448H1094V385Z" fill="white"/>
</mask>
<g mask="url(#mask0_2619_161328)">
<path d="M1063.5 448C1062.62 418.158 1061.9 417.417 1033 416.5C1061.9 415.588 1062.61 414.842 1063.5 385C1064.38 414.842 1065.1 415.583 1094 416.5C1065.1 417.417 1064.39 418.148 1063.5 448Z" fill="#F251BC"/>
</g>
</g>
<g clip-path="url(#clip1_2619_161328)">
<mask id="mask1_2619_161328" style="mask-type:luminance" maskUnits="userSpaceOnUse" x="1069" y="431" width="46" height="48">
<path d="M1115 431H1069V479H1115V431Z" fill="white"/>
</mask>
<g mask="url(#mask1_2619_161328)">
<path d="M1092 479C1091.33 456.263 1090.79 455.698 1069 455C1090.79 454.305 1091.33 453.737 1092 431C1092.67 453.737 1093.21 454.302 1115 455C1093.21 455.698 1092.67 456.256 1092 479Z" fill="#BF3948"/>
</g>
</g>
<path d="M611.086 333L607.54 319.86H609.358L612.436 331.848L611.59 331.416H613.732L612.796 331.848L615.298 320.4H616.954L614.092 333H611.086ZM618.988 333L615.838 320.4H617.548L620.374 331.848L619.474 331.416H621.634L620.716 331.848L623.47 319.86H625.234L622.012 333H618.988ZM628.687 333V323.388H630.415V333H628.687ZM627.211 324.756V323.388H630.415V324.756H627.211ZM629.173 321.84C628.789 321.84 628.501 321.738 628.309 321.534C628.129 321.33 628.039 321.072 628.039 320.76C628.039 320.448 628.129 320.19 628.309 319.986C628.501 319.782 628.789 319.68 629.173 319.68C629.557 319.68 629.839 319.782 630.019 319.986C630.211 320.19 630.307 320.448 630.307 320.76C630.307 321.072 630.211 321.33 630.019 321.534C629.839 321.738 629.557 321.84 629.173 321.84ZM634.756 333V323.388H636.124V327.51H635.908C635.908 326.562 636.034 325.764 636.286 325.116C636.55 324.456 636.946 323.958 637.474 323.622C638.002 323.274 638.668 323.1 639.472 323.1H639.544C640.756 323.1 641.65 323.478 642.226 324.234C642.814 324.99 643.108 326.082 643.108 327.51V333H641.38V327.15C641.38 326.406 641.17 325.812 640.75 325.368C640.33 324.912 639.754 324.684 639.022 324.684C638.266 324.684 637.654 324.918 637.186 325.386C636.718 325.854 636.484 326.478 636.484 327.258V333H634.756ZM651.717 336.744V335.196H653.103C653.511 335.196 653.853 335.142 654.129 335.034C654.417 334.938 654.651 334.77 654.831 334.53C655.023 334.29 655.179 333.972 655.299 333.576L658.323 323.388H660.015L656.811 334.026C656.619 334.662 656.349 335.178 656.001 335.574C655.653 335.982 655.227 336.276 654.723 336.456C654.231 336.648 653.655 336.744 652.995 336.744H651.717ZM654.651 332.784V331.344H656.739V332.784H654.651ZM654.471 332.784L651.033 323.388H652.797L656.091 332.784H654.471ZM667.461 333.324C666.621 333.324 665.883 333.18 665.247 332.892C664.611 332.604 664.071 332.226 663.627 331.758C663.195 331.278 662.865 330.744 662.637 330.156C662.421 329.568 662.313 328.968 662.313 328.356V328.032C662.313 327.42 662.427 326.82 662.655 326.232C662.883 325.632 663.219 325.098 663.663 324.63C664.107 324.15 664.647 323.772 665.283 323.496C665.919 323.208 666.645 323.064 667.461 323.064C668.277 323.064 669.003 323.208 669.639 323.496C670.275 323.772 670.815 324.15 671.259 324.63C671.703 325.098 672.039 325.632 672.267 326.232C672.495 326.82 672.609 327.42 672.609 328.032V328.356C672.609 328.968 672.495 329.568 672.267 330.156C672.051 330.744 671.721 331.278 671.277 331.758C670.845 332.226 670.311 332.604 669.675 332.892C669.039 333.18 668.301 333.324 667.461 333.324ZM667.461 331.776C668.181 331.776 668.793 331.62 669.297 331.308C669.813 330.984 670.203 330.552 670.467 330.012C670.743 329.472 670.881 328.866 670.881 328.194C670.881 327.51 670.743 326.898 670.467 326.358C670.191 325.818 669.795 325.392 669.279 325.08C668.775 324.768 668.169 324.612 667.461 324.612C666.765 324.612 666.159 324.768 665.643 325.08C665.127 325.392 664.731 325.818 664.455 326.358C664.179 326.898 664.041 327.51 664.041 328.194C664.041 328.866 664.173 329.472 664.437 330.012C664.713 330.552 665.103 330.984 665.607 331.308C666.123 331.62 666.741 331.776 667.461 331.776ZM679.527 333.288C678.387 333.288 677.511 332.916 676.899 332.172C676.287 331.428 675.981 330.354 675.981 328.95V323.37H677.709V329.292C677.709 330.048 677.913 330.642 678.321 331.074C678.729 331.494 679.281 331.704 679.977 331.704C680.697 331.704 681.285 331.476 681.741 331.02C682.197 330.552 682.425 329.916 682.425 329.112V323.37H684.153V333H682.785V328.878H683.001C683.001 329.826 682.875 330.63 682.623 331.29C682.371 331.938 681.993 332.436 681.489 332.784C680.997 333.12 680.367 333.288 679.599 333.288H679.527ZM688.5 333V323.388H689.868V327.348H689.796C689.796 325.944 690.102 324.918 690.714 324.27C691.338 323.61 692.268 323.28 693.504 323.28H693.828V324.828H693.216C692.256 324.828 691.518 325.086 691.002 325.602C690.486 326.106 690.228 326.838 690.228 327.798V333H688.5ZM702.23 333V322.902C702.23 321.834 702.512 321.048 703.076 320.544C703.64 320.04 704.468 319.788 705.56 319.788H706.748V321.228H705.272C704.828 321.228 704.486 321.354 704.246 321.606C704.006 321.846 703.886 322.182 703.886 322.614V333H702.23ZM700.898 324.792V323.496H706.928V324.792H700.898ZM715.577 333V330.12H715.289V326.79C715.289 326.13 715.115 325.632 714.767 325.296C714.431 324.96 713.933 324.792 713.273 324.792C712.901 324.792 712.517 324.798 712.121 324.81C711.725 324.822 711.347 324.834 710.987 324.846C710.627 324.858 710.315 324.876 710.051 324.9V323.388C710.315 323.364 710.591 323.346 710.879 323.334C711.179 323.31 711.485 323.298 711.797 323.298C712.109 323.286 712.409 323.28 712.697 323.28C713.681 323.28 714.485 323.4 715.109 323.64C715.733 323.868 716.195 324.246 716.495 324.774C716.795 325.302 716.945 326.016 716.945 326.916V333H715.577ZM712.427 333.252C711.707 333.252 711.083 333.132 710.555 332.892C710.039 332.64 709.637 332.28 709.349 331.812C709.073 331.344 708.935 330.78 708.935 330.12C708.935 329.436 709.085 328.866 709.385 328.41C709.697 327.954 710.147 327.612 710.735 327.384C711.323 327.144 712.031 327.024 712.859 327.024H715.469V328.32H712.787C712.091 328.32 711.557 328.488 711.185 328.824C710.813 329.16 710.627 329.592 710.627 330.12C710.627 330.648 710.813 331.074 711.185 331.398C711.557 331.722 712.091 331.884 712.787 331.884C713.195 331.884 713.585 331.812 713.957 331.668C714.329 331.512 714.635 331.26 714.875 330.912C715.127 330.552 715.265 330.06 715.289 329.436L715.757 330.12C715.697 330.804 715.529 331.38 715.253 331.848C714.989 332.304 714.617 332.652 714.137 332.892C713.669 333.132 713.099 333.252 712.427 333.252ZM723.134 333L719.858 323.388H721.658L724.862 333H723.134ZM723.566 333V331.632H725.654V333H723.566ZM724.394 333L727.184 323.388H728.876L726.032 333H724.394ZM736.389 333.324C735.549 333.324 734.811 333.18 734.175 332.892C733.539 332.604 732.999 332.226 732.555 331.758C732.123 331.278 731.793 330.744 731.565 330.156C731.349 329.568 731.241 328.968 731.241 328.356V328.032C731.241 327.42 731.355 326.82 731.583 326.232C731.811 325.632 732.147 325.098 732.591 324.63C733.035 324.15 733.575 323.772 734.211 323.496C734.847 323.208 735.573 323.064 736.389 323.064C737.205 323.064 737.931 323.208 738.567 323.496C739.203 323.772 739.743 324.15 740.187 324.63C740.631 325.098 740.967 325.632 741.195 326.232C741.423 326.82 741.537 327.42 741.537 328.032V328.356C741.537 328.968 741.423 329.568 741.195 330.156C740.979 330.744 740.649 331.278 740.205 331.758C739.773 332.226 739.239 332.604 738.603 332.892C737.967 333.18 737.229 333.324 736.389 333.324ZM736.389 331.776C737.109 331.776 737.721 331.62 738.225 331.308C738.741 330.984 739.131 330.552 739.395 330.012C739.671 329.472 739.809 328.866 739.809 328.194C739.809 327.51 739.671 326.898 739.395 326.358C739.119 325.818 738.723 325.392 738.207 325.08C737.703 324.768 737.097 324.612 736.389 324.612C735.693 324.612 735.087 324.768 734.571 325.08C734.055 325.392 733.659 325.818 733.383 326.358C733.107 326.898 732.969 327.51 732.969 328.194C732.969 328.866 733.101 329.472 733.365 330.012C733.641 330.552 734.031 330.984 734.535 331.308C735.051 331.62 735.669 331.776 736.389 331.776ZM745.125 333V323.388H746.493V327.348H746.421C746.421 325.944 746.727 324.918 747.339 324.27C747.963 323.61 748.893 323.28 750.129 323.28H750.453V324.828H749.841C748.881 324.828 748.143 325.086 747.627 325.602C747.111 326.106 746.853 326.838 746.853 327.798V333H745.125ZM753.976 333V323.388H755.704V333H753.976ZM752.5 324.756V323.388H755.704V324.756H752.5ZM754.462 321.84C754.078 321.84 753.79 321.738 753.598 321.534C753.418 321.33 753.328 321.072 753.328 320.76C753.328 320.448 753.418 320.19 753.598 319.986C753.79 319.782 754.078 319.68 754.462 319.68C754.846 319.68 755.128 319.782 755.308 319.986C755.5 320.19 755.596 320.448 755.596 320.76C755.596 321.072 755.5 321.33 755.308 321.534C755.128 321.738 754.846 321.84 754.462 321.84ZM763.789 333.108C763.069 333.108 762.445 333.006 761.917 332.802C761.401 332.598 760.999 332.25 760.711 331.758C760.435 331.254 760.297 330.576 760.297 329.724V320.472H761.953V329.94C761.953 330.456 762.091 330.858 762.367 331.146C762.655 331.422 763.057 331.56 763.573 331.56H765.265V333.108H763.789ZM758.641 324.684V323.388H765.265V324.684H758.641ZM772.724 333.324C771.884 333.324 771.158 333.18 770.546 332.892C769.934 332.604 769.436 332.226 769.052 331.758C768.668 331.278 768.38 330.744 768.188 330.156C768.008 329.568 767.918 328.968 767.918 328.356V328.032C767.918 327.408 768.008 326.802 768.188 326.214C768.38 325.626 768.668 325.098 769.052 324.63C769.436 324.15 769.922 323.772 770.51 323.496C771.11 323.208 771.812 323.064 772.616 323.064C773.66 323.064 774.518 323.292 775.19 323.748C775.874 324.192 776.378 324.768 776.702 325.476C777.038 326.184 777.206 326.94 777.206 327.744V328.518H768.674V327.222H775.946L775.55 327.924C775.55 327.24 775.442 326.652 775.226 326.16C775.01 325.656 774.686 325.266 774.254 324.99C773.822 324.714 773.276 324.576 772.616 324.576C771.932 324.576 771.362 324.732 770.906 325.044C770.462 325.356 770.126 325.782 769.898 326.322C769.682 326.862 769.574 327.486 769.574 328.194C769.574 328.878 769.682 329.496 769.898 330.048C770.126 330.588 770.474 331.02 770.942 331.344C771.41 331.656 772.004 331.812 772.724 331.812C773.48 331.812 774.092 331.644 774.56 331.308C775.04 330.972 775.328 330.582 775.424 330.138H777.044C776.912 330.798 776.648 331.368 776.252 331.848C775.856 332.328 775.358 332.694 774.758 332.946C774.158 333.198 773.48 333.324 772.724 333.324ZM791.57 333V330.12H791.282V326.79C791.282 326.13 791.108 325.632 790.76 325.296C790.424 324.96 789.926 324.792 789.266 324.792C788.894 324.792 788.51 324.798 788.114 324.81C787.718 324.822 787.34 324.834 786.98 324.846C786.62 324.858 786.308 324.876 786.044 324.9V323.388C786.308 323.364 786.584 323.346 786.872 323.334C787.172 323.31 787.478 323.298 787.79 323.298C788.102 323.286 788.402 323.28 788.69 323.28C789.674 323.28 790.478 323.4 791.102 323.64C791.726 323.868 792.188 324.246 792.488 324.774C792.788 325.302 792.938 326.016 792.938 326.916V333H791.57ZM788.42 333.252C787.7 333.252 787.076 333.132 786.548 332.892C786.032 332.64 785.63 332.28 785.342 331.812C785.066 331.344 784.928 330.78 784.928 330.12C784.928 329.436 785.078 328.866 785.378 328.41C785.69 327.954 786.14 327.612 786.728 327.384C787.316 327.144 788.024 327.024 788.852 327.024H791.462V328.32H788.78C788.084 328.32 787.55 328.488 787.178 328.824C786.806 329.16 786.62 329.592 786.62 330.12C786.62 330.648 786.806 331.074 787.178 331.398C787.55 331.722 788.084 331.884 788.78 331.884C789.188 331.884 789.578 331.812 789.95 331.668C790.322 331.512 790.628 331.26 790.868 330.912C791.12 330.552 791.258 330.06 791.282 329.436L791.75 330.12C791.69 330.804 791.522 331.38 791.246 331.848C790.982 332.304 790.61 332.652 790.13 332.892C789.662 333.132 789.092 333.252 788.42 333.252ZM797.109 333V323.388H798.477V327.348H798.405C798.405 325.944 798.711 324.918 799.323 324.27C799.947 323.61 800.877 323.28 802.113 323.28H802.437V324.828H801.825C800.865 324.828 800.127 325.086 799.611 325.602C799.095 326.106 798.837 326.838 798.837 327.798V333H797.109ZM809.412 333.108C808.692 333.108 808.068 333.006 807.54 332.802C807.024 332.598 806.622 332.25 806.334 331.758C806.058 331.254 805.92 330.576 805.92 329.724V320.472H807.576V329.94C807.576 330.456 807.714 330.858 807.99 331.146C808.278 331.422 808.68 331.56 809.196 331.56H810.888V333.108H809.412ZM804.264 324.684V323.388H810.888V324.684H804.264ZM814.8 333V323.388H816.528V333H814.8ZM813.324 324.756V323.388H816.528V324.756H813.324ZM815.286 321.84C814.902 321.84 814.614 321.738 814.422 321.534C814.242 321.33 814.152 321.072 814.152 320.76C814.152 320.448 814.242 320.19 814.422 319.986C814.614 319.782 814.902 319.68 815.286 319.68C815.67 319.68 815.952 319.782 816.132 319.986C816.324 320.19 816.42 320.448 816.42 320.76C816.42 321.072 816.324 321.33 816.132 321.534C815.952 321.738 815.67 321.84 815.286 321.84ZM824.019 333.288C822.759 333.288 821.781 333.018 821.085 332.478C820.401 331.938 820.047 331.2 820.023 330.264H821.643C821.667 330.636 821.853 330.99 822.201 331.326C822.561 331.65 823.167 331.812 824.019 331.812C824.787 331.812 825.375 331.662 825.783 331.362C826.191 331.05 826.395 330.672 826.395 330.228C826.395 329.832 826.245 329.526 825.945 329.31C825.645 329.082 825.159 328.932 824.487 328.86L823.443 328.752C822.531 328.656 821.787 328.386 821.211 327.942C820.635 327.486 820.347 326.85 820.347 326.034C820.347 325.422 820.503 324.9 820.815 324.468C821.127 324.024 821.559 323.688 822.111 323.46C822.663 323.22 823.299 323.1 824.019 323.1C825.099 323.1 825.975 323.34 826.647 323.82C827.319 324.3 827.667 325.014 827.691 325.962H826.071C826.059 325.578 825.879 325.254 825.531 324.99C825.195 324.714 824.691 324.576 824.019 324.576C823.347 324.576 822.837 324.714 822.489 324.99C822.141 325.266 821.967 325.614 821.967 326.034C821.967 326.394 822.087 326.682 822.327 326.898C822.579 327.114 822.987 327.252 823.551 327.312L824.595 327.42C825.627 327.528 826.455 327.816 827.079 328.284C827.703 328.74 828.015 329.388 828.015 330.228C828.015 330.828 827.841 331.362 827.493 331.83C827.157 332.286 826.689 332.646 826.089 332.91C825.489 333.162 824.799 333.288 824.019 333.288ZM835.263 333.108C834.543 333.108 833.919 333.006 833.391 332.802C832.875 332.598 832.473 332.25 832.185 331.758C831.909 331.254 831.771 330.576 831.771 329.724V320.472H833.427V329.94C833.427 330.456 833.565 330.858 833.841 331.146C834.129 331.422 834.531 331.56 835.047 331.56H836.739V333.108H835.263ZM830.115 324.684V323.388H836.739V324.684H830.115ZM843.263 333.288C842.003 333.288 841.025 333.018 840.329 332.478C839.645 331.938 839.291 331.2 839.267 330.264H840.887C840.911 330.636 841.097 330.99 841.445 331.326C841.805 331.65 842.411 331.812 843.263 331.812C844.031 331.812 844.619 331.662 845.027 331.362C845.435 331.05 845.639 330.672 845.639 330.228C845.639 329.832 845.489 329.526 845.189 329.31C844.889 329.082 844.403 328.932 843.731 328.86L842.687 328.752C841.775 328.656 841.031 328.386 840.455 327.942C839.879 327.486 839.591 326.85 839.591 326.034C839.591 325.422 839.747 324.9 840.059 324.468C840.371 324.024 840.803 323.688 841.355 323.46C841.907 323.22 842.543 323.1 843.263 323.1C844.343 323.1 845.219 323.34 845.891 323.82C846.563 324.3 846.911 325.014 846.935 325.962H845.315C845.303 325.578 845.123 325.254 844.775 324.99C844.439 324.714 843.935 324.576 843.263 324.576C842.591 324.576 842.081 324.714 841.733 324.99C841.385 325.266 841.211 325.614 841.211 326.034C841.211 326.394 841.331 326.682 841.571 326.898C841.823 327.114 842.231 327.252 842.795 327.312L843.839 327.42C844.871 327.528 845.699 327.816 846.323 328.284C846.947 328.74 847.259 329.388 847.259 330.228C847.259 330.828 847.085 331.362 846.737 331.83C846.401 332.286 845.933 332.646 845.333 332.91C844.733 333.162 844.043 333.288 843.263 333.288ZM849.76 325.332V324.396H849.922C850.306 324.396 850.612 324.33 850.84 324.198C851.068 324.066 851.23 323.862 851.326 323.586C851.434 323.298 851.488 322.938 851.488 322.506V321.156L851.92 321.966C851.836 322.014 851.722 322.05 851.578 322.074C851.446 322.098 851.314 322.11 851.182 322.11C850.846 322.11 850.564 322.008 850.336 321.804C850.12 321.588 850.012 321.294 850.012 320.922C850.012 320.574 850.114 320.286 850.318 320.058C850.534 319.83 850.822 319.716 851.182 319.716C851.41 319.716 851.626 319.77 851.83 319.878C852.034 319.986 852.202 320.178 852.334 320.454C852.466 320.73 852.532 321.126 852.532 321.642V322.02C852.532 322.896 852.424 323.574 852.208 324.054C851.992 324.534 851.686 324.87 851.29 325.062C850.894 325.242 850.426 325.332 849.886 325.332H849.76ZM865.165 333.324C864.337 333.324 863.617 333.18 863.005 332.892C862.405 332.604 861.907 332.22 861.511 331.74C861.115 331.248 860.815 330.708 860.611 330.12C860.419 329.532 860.323 328.944 860.323 328.356V328.032C860.323 327.42 860.419 326.82 860.611 326.232C860.815 325.644 861.115 325.116 861.511 324.648C861.919 324.168 862.423 323.784 863.023 323.496C863.623 323.208 864.325 323.064 865.129 323.064C865.933 323.064 866.653 323.214 867.289 323.514C867.937 323.814 868.453 324.24 868.837 324.792C869.233 325.332 869.455 325.974 869.503 326.718H867.847C867.763 326.118 867.487 325.62 867.019 325.224C866.551 324.816 865.921 324.612 865.129 324.612C864.445 324.612 863.875 324.768 863.419 325.08C862.963 325.392 862.621 325.818 862.393 326.358C862.165 326.898 862.051 327.51 862.051 328.194C862.051 328.854 862.165 329.46 862.393 330.012C862.621 330.552 862.963 330.984 863.419 331.308C863.887 331.62 864.469 331.776 865.165 331.776C865.705 331.776 866.173 331.68 866.569 331.488C866.965 331.296 867.283 331.038 867.523 330.714C867.763 330.39 867.907 330.024 867.955 329.616H869.611C869.575 330.372 869.353 331.026 868.945 331.578C868.549 332.13 868.021 332.562 867.361 332.874C866.713 333.174 865.981 333.324 865.165 333.324ZM877.387 333.324C876.547 333.324 875.809 333.18 875.173 332.892C874.537 332.604 873.997 332.226 873.553 331.758C873.121 331.278 872.791 330.744 872.563 330.156C872.347 329.568 872.239 328.968 872.239 328.356V328.032C872.239 327.42 872.353 326.82 872.581 326.232C872.809 325.632 873.145 325.098 873.589 324.63C874.033 324.15 874.573 323.772 875.209 323.496C875.845 323.208 876.571 323.064 877.387 323.064C878.203 323.064 878.929 323.208 879.565 323.496C880.201 323.772 880.741 324.15 881.185 324.63C881.629 325.098 881.965 325.632 882.193 326.232C882.421 326.82 882.535 327.42 882.535 328.032V328.356C882.535 328.968 882.421 329.568 882.193 330.156C881.977 330.744 881.647 331.278 881.203 331.758C880.771 332.226 880.237 332.604 879.601 332.892C878.965 333.18 878.227 333.324 877.387 333.324ZM877.387 331.776C878.107 331.776 878.719 331.62 879.223 331.308C879.739 330.984 880.129 330.552 880.393 330.012C880.669 329.472 880.807 328.866 880.807 328.194C880.807 327.51 880.669 326.898 880.393 326.358C880.117 325.818 879.721 325.392 879.205 325.08C878.701 324.768 878.095 324.612 877.387 324.612C876.691 324.612 876.085 324.768 875.569 325.08C875.053 325.392 874.657 325.818 874.381 326.358C874.105 326.898 873.967 327.51 873.967 328.194C873.967 328.866 874.099 329.472 874.363 330.012C874.639 330.552 875.029 330.984 875.533 331.308C876.049 331.62 876.667 331.776 877.387 331.776ZM886.231 333V319.86H887.959V333H886.231ZM884.899 321.228V319.86H887.959V321.228H884.899ZM892.381 333V319.86H894.109V333H892.381ZM891.049 321.228V319.86H894.109V321.228H891.049ZM902.51 333.324C901.67 333.324 900.944 333.18 900.332 332.892C899.72 332.604 899.222 332.226 898.838 331.758C898.454 331.278 898.166 330.744 897.974 330.156C897.794 329.568 897.704 328.968 897.704 328.356V328.032C897.704 327.408 897.794 326.802 897.974 326.214C898.166 325.626 898.454 325.098 898.838 324.63C899.222 324.15 899.708 323.772 900.296 323.496C900.896 323.208 901.598 323.064 902.402 323.064C903.446 323.064 904.304 323.292 904.976 323.748C905.66 324.192 906.164 324.768 906.488 325.476C906.824 326.184 906.992 326.94 906.992 327.744V328.518H898.46V327.222H905.732L905.336 327.924C905.336 327.24 905.228 326.652 905.012 326.16C904.796 325.656 904.472 325.266 904.04 324.99C903.608 324.714 903.062 324.576 902.402 324.576C901.718 324.576 901.148 324.732 900.692 325.044C900.248 325.356 899.912 325.782 899.684 326.322C899.468 326.862 899.36 327.486 899.36 328.194C899.36 328.878 899.468 329.496 899.684 330.048C899.912 330.588 900.26 331.02 900.728 331.344C901.196 331.656 901.79 331.812 902.51 331.812C903.266 331.812 903.878 331.644 904.346 331.308C904.826 330.972 905.114 330.582 905.21 330.138H906.83C906.698 330.798 906.434 331.368 906.038 331.848C905.642 332.328 905.144 332.694 904.544 332.946C903.944 333.198 903.266 333.324 902.51 333.324ZM914.567 333.324C913.739 333.324 913.019 333.18 912.407 332.892C911.807 332.604 911.309 332.22 910.913 331.74C910.517 331.248 910.217 330.708 910.013 330.12C909.821 329.532 909.725 328.944 909.725 328.356V328.032C909.725 327.42 909.821 326.82 910.013 326.232C910.217 325.644 910.517 325.116 910.913 324.648C911.321 324.168 911.825 323.784 912.425 323.496C913.025 323.208 913.727 323.064 914.531 323.064C915.335 323.064 916.055 323.214 916.691 323.514C917.339 323.814 917.855 324.24 918.239 324.792C918.635 325.332 918.857 325.974 918.905 326.718H917.249C917.165 326.118 916.889 325.62 916.421 325.224C915.953 324.816 915.323 324.612 914.531 324.612C913.847 324.612 913.277 324.768 912.821 325.08C912.365 325.392 912.023 325.818 911.795 326.358C911.567 326.898 911.453 327.51 911.453 328.194C911.453 328.854 911.567 329.46 911.795 330.012C912.023 330.552 912.365 330.984 912.821 331.308C913.289 331.62 913.871 331.776 914.567 331.776C915.107 331.776 915.575 331.68 915.971 331.488C916.367 331.296 916.685 331.038 916.925 330.714C917.165 330.39 917.309 330.024 917.357 329.616H919.013C918.977 330.372 918.755 331.026 918.347 331.578C917.951 332.13 917.423 332.562 916.763 332.874C916.115 333.174 915.383 333.324 914.567 333.324ZM926.105 333.108C925.385 333.108 924.761 333.006 924.233 332.802C923.717 332.598 923.315 332.25 923.027 331.758C922.751 331.254 922.613 330.576 922.613 329.724V320.472H924.269V329.94C924.269 330.456 924.407 330.858 924.683 331.146C924.971 331.422 925.373 331.56 925.889 331.56H927.581V333.108H926.105ZM920.957 324.684V323.388H927.581V324.684H920.957ZM931.493 333V323.388H933.221V333H931.493ZM930.017 324.756V323.388H933.221V324.756H930.017ZM931.979 321.84C931.595 321.84 931.307 321.738 931.115 321.534C930.935 321.33 930.845 321.072 930.845 320.76C930.845 320.448 930.935 320.19 931.115 319.986C931.307 319.782 931.595 319.68 931.979 319.68C932.363 319.68 932.645 319.782 932.825 319.986C933.017 320.19 933.113 320.448 933.113 320.76C933.113 321.072 933.017 321.33 932.825 321.534C932.645 321.738 932.363 321.84 931.979 321.84ZM942.638 333.324C941.846 333.324 941.138 333.15 940.514 332.802C939.902 332.454 939.416 331.95 939.056 331.29C938.696 330.618 938.498 329.814 938.462 328.878H938.93V333H937.562V319.86H939.29V326.25L938.678 327.564C938.726 326.52 938.936 325.668 939.308 325.008C939.68 324.348 940.166 323.862 940.766 323.55C941.378 323.226 942.05 323.064 942.782 323.064C943.466 323.064 944.09 323.196 944.654 323.46C945.218 323.712 945.704 324.066 946.112 324.522C946.52 324.966 946.832 325.488 947.048 326.088C947.264 326.676 947.372 327.312 947.372 327.996V328.32C947.372 329.004 947.258 329.646 947.03 330.246C946.814 330.846 946.496 331.38 946.076 331.848C945.656 332.304 945.152 332.664 944.564 332.928C943.988 333.192 943.346 333.324 942.638 333.324ZM942.44 331.812C943.088 331.812 943.652 331.656 944.132 331.344C944.612 331.032 944.984 330.606 945.248 330.066C945.512 329.514 945.644 328.878 945.644 328.158C945.644 327.438 945.506 326.808 945.23 326.268C944.966 325.728 944.594 325.314 944.114 325.026C943.634 324.726 943.076 324.576 942.44 324.576C941.864 324.576 941.33 324.708 940.838 324.972C940.346 325.224 939.95 325.596 939.65 326.088C939.362 326.568 939.218 327.15 939.218 327.834V328.662C939.218 329.322 939.368 329.886 939.668 330.354C939.968 330.822 940.364 331.182 940.856 331.434C941.348 331.686 941.876 331.812 942.44 331.812ZM951.08 333V319.86H952.808V333H951.08ZM949.748 321.228V319.86H952.808V321.228H949.748ZM961.209 333.324C960.369 333.324 959.643 333.18 959.031 332.892C958.419 332.604 957.921 332.226 957.537 331.758C957.153 331.278 956.865 330.744 956.673 330.156C956.493 329.568 956.403 328.968 956.403 328.356V328.032C956.403 327.408 956.493 326.802 956.673 326.214C956.865 325.626 957.153 325.098 957.537 324.63C957.921 324.15 958.407 323.772 958.995 323.496C959.595 323.208 960.297 323.064 961.101 323.064C962.145 323.064 963.003 323.292 963.675 323.748C964.359 324.192 964.863 324.768 965.187 325.476C965.523 326.184 965.691 326.94 965.691 327.744V328.518H957.159V327.222H964.431L964.035 327.924C964.035 327.24 963.927 326.652 963.711 326.16C963.495 325.656 963.171 325.266 962.739 324.99C962.307 324.714 961.761 324.576 961.101 324.576C960.417 324.576 959.847 324.732 959.391 325.044C958.947 325.356 958.611 325.782 958.383 326.322C958.167 326.862 958.059 327.486 958.059 328.194C958.059 328.878 958.167 329.496 958.383 330.048C958.611 330.588 958.959 331.02 959.427 331.344C959.895 331.656 960.489 331.812 961.209 331.812C961.965 331.812 962.577 331.644 963.045 331.308C963.525 330.972 963.813 330.582 963.909 330.138H965.529C965.397 330.798 965.133 331.368 964.737 331.848C964.341 332.328 963.843 332.694 963.243 332.946C962.643 333.198 961.965 333.324 961.209 333.324ZM972.294 333.288C971.034 333.288 970.056 333.018 969.36 332.478C968.676 331.938 968.322 331.2 968.298 330.264H969.918C969.942 330.636 970.128 330.99 970.476 331.326C970.836 331.65 971.442 331.812 972.294 331.812C973.062 331.812 973.65 331.662 974.058 331.362C974.466 331.05 974.67 330.672 974.67 330.228C974.67 329.832 974.52 329.526 974.22 329.31C973.92 329.082 973.434 328.932 972.762 328.86L971.718 328.752C970.806 328.656 970.062 328.386 969.486 327.942C968.91 327.486 968.622 326.85 968.622 326.034C968.622 325.422 968.778 324.9 969.09 324.468C969.402 324.024 969.834 323.688 970.386 323.46C970.938 323.22 971.574 323.1 972.294 323.1C973.374 323.1 974.25 323.34 974.922 323.82C975.594 324.3 975.942 325.014 975.966 325.962H974.346C974.334 325.578 974.154 325.254 973.806 324.99C973.47 324.714 972.966 324.576 972.294 324.576C971.622 324.576 971.112 324.714 970.764 324.99C970.416 325.266 970.242 325.614 970.242 326.034C970.242 326.394 970.362 326.682 970.602 326.898C970.854 327.114 971.262 327.252 971.826 327.312L972.87 327.42C973.902 327.528 974.73 327.816 975.354 328.284C975.978 328.74 976.29 329.388 976.29 330.228C976.29 330.828 976.116 331.362 975.768 331.83C975.432 332.286 974.964 332.646 974.364 332.91C973.764 333.162 973.074 333.288 972.294 333.288ZM979.277 333V330.804H981.365V333H979.277ZM989.274 333L994.008 319.86H996.996L1001.87 333H1000.06L995.646 321.012L996.51 321.444H994.386L995.304 321.012L991.038 333H989.274ZM992.1 329.076L992.694 327.492H998.364L998.958 329.076H992.1ZM1010.38 333V322.902C1010.38 321.834 1010.66 321.048 1011.22 320.544C1011.79 320.04 1012.62 319.788 1013.71 319.788H1014.9V321.228H1013.42C1012.98 321.228 1012.63 321.354 1012.39 321.606C1012.15 321.846 1012.03 322.182 1012.03 322.614V333H1010.38ZM1009.05 324.792V323.496H1015.08V324.792H1009.05ZM1021.28 333.288C1020.14 333.288 1019.26 332.916 1018.65 332.172C1018.04 331.428 1017.73 330.354 1017.73 328.95V323.37H1019.46V329.292C1019.46 330.048 1019.66 330.642 1020.07 331.074C1020.48 331.494 1021.03 331.704 1021.73 331.704C1022.45 331.704 1023.04 331.476 1023.49 331.02C1023.95 330.552 1024.18 329.916 1024.18 329.112V323.37H1025.9V333H1024.54V328.878H1024.75C1024.75 329.826 1024.63 330.63 1024.37 331.29C1024.12 331.938 1023.74 332.436 1023.24 332.784C1022.75 333.12 1022.12 333.288 1021.35 333.288H1021.28ZM1030.25 333V323.388H1031.62V327.51H1031.4C1031.4 326.562 1031.53 325.764 1031.78 325.116C1032.04 324.456 1032.44 323.958 1032.97 323.622C1033.5 323.274 1034.16 323.1 1034.97 323.1H1035.04C1036.25 323.1 1037.14 323.478 1037.72 324.234C1038.31 324.99 1038.6 326.082 1038.6 327.51V333H1036.87V327.15C1036.87 326.406 1036.66 325.812 1036.24 325.368C1035.82 324.912 1035.25 324.684 1034.52 324.684C1033.76 324.684 1033.15 324.918 1032.68 325.386C1032.21 325.854 1031.98 326.478 1031.98 327.258V333H1030.25ZM613.732 358.324C612.94 358.324 612.232 358.15 611.608 357.802C610.996 357.454 610.51 356.95 610.15 356.29C609.79 355.618 609.592 354.814 609.556 353.878H610.024V358H608.656V344.86H610.384V351.25L609.772 352.564C609.82 351.52 610.03 350.668 610.402 350.008C610.774 349.348 611.26 348.862 611.86 348.55C612.472 348.226 613.144 348.064 613.876 348.064C614.56 348.064 615.184 348.196 615.748 348.46C616.312 348.712 616.798 349.066 617.206 349.522C617.614 349.966 617.926 350.488 618.142 351.088C618.358 351.676 618.466 352.312 618.466 352.996V353.32C618.466 354.004 618.352 354.646 618.124 355.246C617.908 355.846 617.59 356.38 617.17 356.848C616.75 357.304 616.246 357.664 615.658 357.928C615.082 358.192 614.44 358.324 613.732 358.324ZM613.534 356.812C614.182 356.812 614.746 356.656 615.226 356.344C615.706 356.032 616.078 355.606 616.342 355.066C616.606 354.514 616.738 353.878 616.738 353.158C616.738 352.438 616.6 351.808 616.324 351.268C616.06 350.728 615.688 350.314 615.208 350.026C614.728 349.726 614.17 349.576 613.534 349.576C612.958 349.576 612.424 349.708 611.932 349.972C611.44 350.224 611.044 350.596 610.744 351.088C610.456 351.568 610.312 352.15 610.312 352.834V353.662C610.312 354.322 610.462 354.886 610.762 355.354C611.062 355.822 611.458 356.182 611.95 356.434C612.442 356.686 612.97 356.812 613.534 356.812ZM625.396 358.288C624.256 358.288 623.38 357.916 622.768 357.172C622.156 356.428 621.85 355.354 621.85 353.95V348.37H623.578V354.292C623.578 355.048 623.782 355.642 624.19 356.074C624.598 356.494 625.15 356.704 625.846 356.704C626.566 356.704 627.154 356.476 627.61 356.02C628.066 355.552 628.294 354.916 628.294 354.112V348.37H630.022V358H628.654V353.878H628.87C628.87 354.826 628.744 355.63 628.492 356.29C628.24 356.938 627.862 357.436 627.358 357.784C626.866 358.12 626.236 358.288 625.468 358.288H625.396ZM634.369 358V348.388H635.737V352.348H635.665C635.665 350.944 635.971 349.918 636.583 349.27C637.207 348.61 638.137 348.28 639.373 348.28H639.697V349.828H639.085C638.125 349.828 637.387 350.086 636.871 350.602C636.355 351.106 636.097 351.838 636.097 352.798V358H634.369ZM642.752 358V348.388H644.12V352.51H643.904C643.904 351.562 644.03 350.764 644.282 350.116C644.546 349.456 644.942 348.958 645.47 348.622C645.998 348.274 646.664 348.1 647.468 348.1H647.54C648.752 348.1 649.646 348.478 650.222 349.234C650.81 349.99 651.104 351.082 651.104 352.51V358H649.376V352.15C649.376 351.406 649.166 350.812 648.746 350.368C648.326 349.912 647.75 349.684 647.018 349.684C646.262 349.684 645.65 349.918 645.182 350.386C644.714 350.854 644.48 351.478 644.48 352.258V358H642.752ZM654.797 353.734V352.258H661.493V353.734H654.797ZM669.08 358.108C668.36 358.108 667.736 358.006 667.208 357.802C666.692 357.598 666.29 357.25 666.002 356.758C665.726 356.254 665.588 355.576 665.588 354.724V345.472H667.244V354.94C667.244 355.456 667.382 355.858 667.658 356.146C667.946 356.422 668.348 356.56 668.864 356.56H670.556V358.108H669.08ZM663.932 349.684V348.388H670.556V349.684H663.932ZM678.357 358.324C677.517 358.324 676.779 358.18 676.143 357.892C675.507 357.604 674.967 357.226 674.523 356.758C674.091 356.278 673.761 355.744 673.533 355.156C673.317 354.568 673.209 353.968 673.209 353.356V353.032C673.209 352.42 673.323 351.82 673.551 351.232C673.779 350.632 674.115 350.098 674.559 349.63C675.003 349.15 675.543 348.772 676.179 348.496C676.815 348.208 677.541 348.064 678.357 348.064C679.173 348.064 679.899 348.208 680.535 348.496C681.171 348.772 681.711 349.15 682.155 349.63C682.599 350.098 682.935 350.632 683.163 351.232C683.391 351.82 683.505 352.42 683.505 353.032V353.356C683.505 353.968 683.391 354.568 683.163 355.156C682.947 355.744 682.617 356.278 682.173 356.758C681.741 357.226 681.207 357.604 680.571 357.892C679.935 358.18 679.197 358.324 678.357 358.324ZM678.357 356.776C679.077 356.776 679.689 356.62 680.193 356.308C680.709 355.984 681.099 355.552 681.363 355.012C681.639 354.472 681.777 353.866 681.777 353.194C681.777 352.51 681.639 351.898 681.363 351.358C681.087 350.818 680.691 350.392 680.175 350.08C679.671 349.768 679.065 349.612 678.357 349.612C677.661 349.612 677.055 349.768 676.539 350.08C676.023 350.392 675.627 350.818 675.351 351.358C675.075 351.898 674.937 352.51 674.937 353.194C674.937 353.866 675.069 354.472 675.333 355.012C675.609 355.552 675.999 355.984 676.503 356.308C677.019 356.62 677.637 356.776 678.357 356.776ZM686.625 353.734V352.258H693.322V353.734H686.625ZM699.761 358L701.705 348.712H704.045L706.313 358H704.837L702.569 348.748H703.145L701.183 358H699.761ZM698.879 358V356.632H700.877V358H698.879ZM698.483 358L695.765 348.388H697.421L700.067 358H698.483ZM705.197 358V356.632H707.195V358H705.197ZM706.007 358L708.311 348.388H709.877L707.519 358H706.007ZM713.679 358V348.388H715.407V358H713.679ZM712.203 349.756V348.388H715.407V349.756H712.203ZM714.165 346.84C713.781 346.84 713.493 346.738 713.301 346.534C713.121 346.33 713.031 346.072 713.031 345.76C713.031 345.448 713.121 345.19 713.301 344.986C713.493 344.782 713.781 344.68 714.165 344.68C714.549 344.68 714.831 344.782 715.011 344.986C715.203 345.19 715.299 345.448 715.299 345.76C715.299 346.072 715.203 346.33 715.011 346.534C714.831 346.738 714.549 346.84 714.165 346.84ZM719.748 358V348.388H721.116V352.51H720.9C720.9 351.562 721.026 350.764 721.278 350.116C721.542 349.456 721.938 348.958 722.466 348.622C722.994 348.274 723.66 348.1 724.464 348.1H724.536C725.748 348.1 726.642 348.478 727.218 349.234C727.806 349.99 728.1 351.082 728.1 352.51V358H726.372V352.15C726.372 351.406 726.162 350.812 725.742 350.368C725.322 349.912 724.746 349.684 724.014 349.684C723.258 349.684 722.646 349.918 722.178 350.386C721.71 350.854 721.476 351.478 721.476 352.258V358H719.748ZM741.785 358.324C740.945 358.324 740.207 358.18 739.571 357.892C738.935 357.604 738.395 357.226 737.951 356.758C737.519 356.278 737.189 355.744 736.961 355.156C736.745 354.568 736.637 353.968 736.637 353.356V353.032C736.637 352.42 736.751 351.82 736.979 351.232C737.207 350.632 737.543 350.098 737.987 349.63C738.431 349.15 738.971 348.772 739.607 348.496C740.243 348.208 740.969 348.064 741.785 348.064C742.601 348.064 743.327 348.208 743.963 348.496C744.599 348.772 745.139 349.15 745.583 349.63C746.027 350.098 746.363 350.632 746.591 351.232C746.819 351.82 746.933 352.42 746.933 353.032V353.356C746.933 353.968 746.819 354.568 746.591 355.156C746.375 355.744 746.045 356.278 745.601 356.758C745.169 357.226 744.635 357.604 743.999 357.892C743.363 358.18 742.625 358.324 741.785 358.324ZM741.785 356.776C742.505 356.776 743.117 356.62 743.621 356.308C744.137 355.984 744.527 355.552 744.791 355.012C745.067 354.472 745.205 353.866 745.205 353.194C745.205 352.51 745.067 351.898 744.791 351.358C744.515 350.818 744.119 350.392 743.603 350.08C743.099 349.768 742.493 349.612 741.785 349.612C741.089 349.612 740.483 349.768 739.967 350.08C739.451 350.392 739.055 350.818 738.779 351.358C738.503 351.898 738.365 352.51 738.365 353.194C738.365 353.866 738.497 354.472 738.761 355.012C739.037 355.552 739.427 355.984 739.931 356.308C740.447 356.62 741.065 356.776 741.785 356.776ZM750.521 358V348.388H751.889V352.51H751.673C751.673 351.562 751.799 350.764 752.051 350.116C752.315 349.456 752.711 348.958 753.239 348.622C753.767 348.274 754.433 348.1 755.237 348.1H755.309C756.521 348.1 757.415 348.478 757.991 349.234C758.579 349.99 758.873 351.082 758.873 352.51V358H757.145V352.15C757.145 351.406 756.935 350.812 756.515 350.368C756.095 349.912 755.519 349.684 754.787 349.684C754.031 349.684 753.419 349.918 752.951 350.386C752.483 350.854 752.249 351.478 752.249 352.258V358H750.521ZM762.567 353.734V352.258H769.263V353.734H762.567ZM777.227 358.324C776.399 358.324 775.679 358.18 775.067 357.892C774.467 357.604 773.969 357.22 773.573 356.74C773.177 356.248 772.877 355.708 772.673 355.12C772.481 354.532 772.385 353.944 772.385 353.356V353.032C772.385 352.42 772.481 351.82 772.673 351.232C772.877 350.644 773.177 350.116 773.573 349.648C773.981 349.168 774.485 348.784 775.085 348.496C775.685 348.208 776.387 348.064 777.191 348.064C777.995 348.064 778.715 348.214 779.351 348.514C779.999 348.814 780.515 349.24 780.899 349.792C781.295 350.332 781.517 350.974 781.565 351.718H779.909C779.825 351.118 779.549 350.62 779.081 350.224C778.613 349.816 777.983 349.612 777.191 349.612C776.507 349.612 775.937 349.768 775.481 350.08C775.025 350.392 774.683 350.818 774.455 351.358C774.227 351.898 774.113 352.51 774.113 353.194C774.113 353.854 774.227 354.46 774.455 355.012C774.683 355.552 775.025 355.984 775.481 356.308C775.949 356.62 776.531 356.776 777.227 356.776C777.767 356.776 778.235 356.68 778.631 356.488C779.027 356.296 779.345 356.038 779.585 355.714C779.825 355.39 779.969 355.024 780.017 354.616H781.673C781.637 355.372 781.415 356.026 781.007 356.578C780.611 357.13 780.083 357.562 779.423 357.874C778.775 358.174 778.043 358.324 777.227 358.324ZM785.021 358V344.86H786.749V352.708H786.317C786.317 351.76 786.437 350.944 786.677 350.26C786.929 349.564 787.313 349.03 787.829 348.658C788.345 348.286 789.005 348.1 789.809 348.1H789.881C791.033 348.1 791.903 348.484 792.491 349.252C793.079 350.008 793.373 351.094 793.373 352.51V358H791.645V352.15C791.645 351.37 791.423 350.764 790.979 350.332C790.547 349.9 789.983 349.684 789.287 349.684C788.519 349.684 787.901 349.942 787.433 350.458C786.977 350.962 786.749 351.628 786.749 352.456V358H785.021ZM803.349 358V355.12H803.061V351.79C803.061 351.13 802.887 350.632 802.539 350.296C802.203 349.96 801.705 349.792 801.045 349.792C800.673 349.792 800.289 349.798 799.893 349.81C799.497 349.822 799.119 349.834 798.759 349.846C798.399 349.858 798.087 349.876 797.823 349.9V348.388C798.087 348.364 798.363 348.346 798.651 348.334C798.951 348.31 799.257 348.298 799.569 348.298C799.881 348.286 800.181 348.28 800.469 348.28C801.453 348.28 802.257 348.4 802.881 348.64C803.505 348.868 803.967 349.246 804.267 349.774C804.567 350.302 804.717 351.016 804.717 351.916V358H803.349ZM800.199 358.252C799.479 358.252 798.855 358.132 798.327 357.892C797.811 357.64 797.409 357.28 797.121 356.812C796.845 356.344 796.707 355.78 796.707 355.12C796.707 354.436 796.857 353.866 797.157 353.41C797.469 352.954 797.919 352.612 798.507 352.384C799.095 352.144 799.803 352.024 800.631 352.024H803.241V353.32H800.559C799.863 353.32 799.329 353.488 798.957 353.824C798.585 354.16 798.399 354.592 798.399 355.12C798.399 355.648 798.585 356.074 798.957 356.398C799.329 356.722 799.863 356.884 800.559 356.884C800.967 356.884 801.357 356.812 801.729 356.668C802.101 356.512 802.407 356.26 802.647 355.912C802.899 355.552 803.037 355.06 803.061 354.436L803.529 355.12C803.469 355.804 803.301 356.38 803.025 356.848C802.761 357.304 802.389 357.652 801.909 357.892C801.441 358.132 800.871 358.252 800.199 358.252ZM809.356 358V348.388H811.084V358H809.356ZM807.88 349.756V348.388H811.084V349.756H807.88ZM809.842 346.84C809.458 346.84 809.17 346.738 808.978 346.534C808.798 346.33 808.708 346.072 808.708 345.76C808.708 345.448 808.798 345.19 808.978 344.986C809.17 344.782 809.458 344.68 809.842 344.68C810.226 344.68 810.508 344.782 810.688 344.986C810.88 345.19 810.976 345.448 810.976 345.76C810.976 346.072 810.88 346.33 810.688 346.534C810.508 346.738 810.226 346.84 809.842 346.84ZM815.426 358V348.388H816.794V352.51H816.578C816.578 351.562 816.704 350.764 816.956 350.116C817.22 349.456 817.616 348.958 818.144 348.622C818.672 348.274 819.338 348.1 820.142 348.1H820.214C821.426 348.1 822.32 348.478 822.896 349.234C823.484 349.99 823.778 351.082 823.778 352.51V358H822.05V352.15C822.05 351.406 821.84 350.812 821.42 350.368C821 349.912 820.424 349.684 819.692 349.684C818.936 349.684 818.324 349.918 817.856 350.386C817.388 350.854 817.154 351.478 817.154 352.258V358H815.426ZM837.121 358.324C836.281 358.324 835.555 358.18 834.943 357.892C834.331 357.604 833.833 357.226 833.449 356.758C833.065 356.278 832.777 355.744 832.585 355.156C832.405 354.568 832.315 353.968 832.315 353.356V353.032C832.315 352.408 832.405 351.802 832.585 351.214C832.777 350.626 833.065 350.098 833.449 349.63C833.833 349.15 834.319 348.772 834.907 348.496C835.507 348.208 836.209 348.064 837.013 348.064C838.057 348.064 838.915 348.292 839.587 348.748C840.271 349.192 840.775 349.768 841.099 350.476C841.435 351.184 841.603 351.94 841.603 352.744V353.518H833.071V352.222H840.343L839.947 352.924C839.947 352.24 839.839 351.652 839.623 351.16C839.407 350.656 839.083 350.266 838.651 349.99C838.219 349.714 837.673 349.576 837.013 349.576C836.329 349.576 835.759 349.732 835.303 350.044C834.859 350.356 834.523 350.782 834.295 351.322C834.079 351.862 833.971 352.486 833.971 353.194C833.971 353.878 834.079 354.496 834.295 355.048C834.523 355.588 834.871 356.02 835.339 356.344C835.807 356.656 836.401 356.812 837.121 356.812C837.877 356.812 838.489 356.644 838.957 356.308C839.437 355.972 839.725 355.582 839.821 355.138H841.441C841.309 355.798 841.045 356.368 840.649 356.848C840.253 357.328 839.755 357.694 839.155 357.946C838.555 358.198 837.877 358.324 837.121 358.324ZM843.869 358L847.307 352.942L847.253 353.302L844.031 348.388H845.939L848.261 352.006H848.513L850.709 348.388H852.491L849.449 353.176L849.503 352.852L853.103 358H851.195L848.495 354.094H848.243L845.651 358H843.869ZM856.094 361.6V348.388H857.462V352.546L857.138 352.51C857.198 351.478 857.414 350.638 857.786 349.99C858.17 349.33 858.668 348.844 859.28 348.532C859.892 348.22 860.558 348.064 861.278 348.064C861.974 348.064 862.604 348.196 863.168 348.46C863.744 348.724 864.236 349.084 864.644 349.54C865.052 349.996 865.364 350.524 865.58 351.124C865.796 351.724 865.904 352.36 865.904 353.032V353.356C865.904 354.028 865.79 354.664 865.562 355.264C865.334 355.864 865.01 356.392 864.59 356.848C864.182 357.304 863.69 357.664 863.114 357.928C862.55 358.192 861.926 358.324 861.242 358.324C860.558 358.324 859.904 358.174 859.28 357.874C858.656 357.574 858.14 357.088 857.732 356.416C857.324 355.744 857.09 354.862 857.03 353.77L857.822 355.21V361.6H856.094ZM860.972 356.812C861.62 356.812 862.184 356.662 862.664 356.362C863.144 356.05 863.516 355.624 863.78 355.084C864.044 354.532 864.176 353.902 864.176 353.194C864.176 352.474 864.044 351.844 863.78 351.304C863.516 350.764 863.144 350.344 862.664 350.044C862.184 349.732 861.62 349.576 860.972 349.576C860.396 349.576 859.862 349.708 859.37 349.972C858.878 350.224 858.482 350.596 858.182 351.088C857.894 351.568 857.75 352.15 857.75 352.834V353.662C857.75 354.322 857.9 354.886 858.2 355.354C858.5 355.822 858.896 356.182 859.388 356.434C859.88 356.686 860.408 356.812 860.972 356.812ZM873.59 358.324C872.75 358.324 872.024 358.18 871.412 357.892C870.8 357.604 870.302 357.226 869.918 356.758C869.534 356.278 869.246 355.744 869.054 355.156C868.874 354.568 868.784 353.968 868.784 353.356V353.032C868.784 352.408 868.874 351.802 869.054 351.214C869.246 350.626 869.534 350.098 869.918 349.63C870.302 349.15 870.788 348.772 871.376 348.496C871.976 348.208 872.678 348.064 873.482 348.064C874.526 348.064 875.384 348.292 876.056 348.748C876.74 349.192 877.244 349.768 877.568 350.476C877.904 351.184 878.072 351.94 878.072 352.744V353.518H869.54V352.222H876.812L876.416 352.924C876.416 352.24 876.308 351.652 876.092 351.16C875.876 350.656 875.552 350.266 875.12 349.99C874.688 349.714 874.142 349.576 873.482 349.576C872.798 349.576 872.228 349.732 871.772 350.044C871.328 350.356 870.992 350.782 870.764 351.322C870.548 351.862 870.44 352.486 870.44 353.194C870.44 353.878 870.548 354.496 870.764 355.048C870.992 355.588 871.34 356.02 871.808 356.344C872.276 356.656 872.87 356.812 873.59 356.812C874.346 356.812 874.958 356.644 875.426 356.308C875.906 355.972 876.194 355.582 876.29 355.138H877.91C877.778 355.798 877.514 356.368 877.118 356.848C876.722 357.328 876.224 357.694 875.624 357.946C875.024 358.198 874.346 358.324 873.59 358.324ZM881.525 358V348.388H882.893V352.348H882.821C882.821 350.944 883.127 349.918 883.739 349.27C884.363 348.61 885.293 348.28 886.529 348.28H886.853V349.828H886.241C885.281 349.828 884.543 350.086 884.027 350.602C883.511 351.106 883.253 351.838 883.253 352.798V358H881.525ZM890.376 358V348.388H892.104V358H890.376ZM888.9 349.756V348.388H892.104V349.756H888.9ZM890.862 346.84C890.478 346.84 890.19 346.738 889.998 346.534C889.818 346.33 889.728 346.072 889.728 345.76C889.728 345.448 889.818 345.19 889.998 344.986C890.19 344.782 890.478 344.68 890.862 344.68C891.246 344.68 891.528 344.782 891.708 344.986C891.9 345.19 891.996 345.448 891.996 345.76C891.996 346.072 891.9 346.33 891.708 346.534C891.528 346.738 891.246 346.84 890.862 346.84ZM900.531 358.324C899.691 358.324 898.965 358.18 898.353 357.892C897.741 357.604 897.243 357.226 896.859 356.758C896.475 356.278 896.187 355.744 895.995 355.156C895.815 354.568 895.725 353.968 895.725 353.356V353.032C895.725 352.408 895.815 351.802 895.995 351.214C896.187 350.626 896.475 350.098 896.859 349.63C897.243 349.15 897.729 348.772 898.317 348.496C898.917 348.208 899.619 348.064 900.423 348.064C901.467 348.064 902.325 348.292 902.997 348.748C903.681 349.192 904.185 349.768 904.509 350.476C904.845 351.184 905.013 351.94 905.013 352.744V353.518H896.481V352.222H903.753L903.357 352.924C903.357 352.24 903.249 351.652 903.033 351.16C902.817 350.656 902.493 350.266 902.061 349.99C901.629 349.714 901.083 349.576 900.423 349.576C899.739 349.576 899.169 349.732 898.713 350.044C898.269 350.356 897.933 350.782 897.705 351.322C897.489 351.862 897.381 352.486 897.381 353.194C897.381 353.878 897.489 354.496 897.705 355.048C897.933 355.588 898.281 356.02 898.749 356.344C899.217 356.656 899.811 356.812 900.531 356.812C901.287 356.812 901.899 356.644 902.367 356.308C902.847 355.972 903.135 355.582 903.231 355.138H904.851C904.719 355.798 904.455 356.368 904.059 356.848C903.663 357.328 903.165 357.694 902.565 357.946C901.965 358.198 901.287 358.324 900.531 358.324ZM908.467 358V348.388H909.835V352.51H909.619C909.619 351.562 909.745 350.764 909.997 350.116C910.261 349.456 910.657 348.958 911.185 348.622C911.713 348.274 912.379 348.1 913.183 348.1H913.255C914.467 348.1 915.361 348.478 915.937 349.234C916.525 349.99 916.819 351.082 916.819 352.51V358H915.091V352.15C915.091 351.406 914.881 350.812 914.461 350.368C914.041 349.912 913.465 349.684 912.733 349.684C911.977 349.684 911.365 349.918 910.897 350.386C910.429 350.854 910.195 351.478 910.195 352.258V358H908.467ZM925.102 358.324C924.274 358.324 923.554 358.18 922.942 357.892C922.342 357.604 921.844 357.22 921.448 356.74C921.052 356.248 920.752 355.708 920.548 355.12C920.356 354.532 920.26 353.944 920.26 353.356V353.032C920.26 352.42 920.356 351.82 920.548 351.232C920.752 350.644 921.052 350.116 921.448 349.648C921.856 349.168 922.36 348.784 922.96 348.496C923.56 348.208 924.262 348.064 925.066 348.064C925.87 348.064 926.59 348.214 927.226 348.514C927.874 348.814 928.39 349.24 928.774 349.792C929.17 350.332 929.392 350.974 929.44 351.718H927.784C927.7 351.118 927.424 350.62 926.956 350.224C926.488 349.816 925.858 349.612 925.066 349.612C924.382 349.612 923.812 349.768 923.356 350.08C922.9 350.392 922.558 350.818 922.33 351.358C922.102 351.898 921.988 352.51 921.988 353.194C921.988 353.854 922.102 354.46 922.33 355.012C922.558 355.552 922.9 355.984 923.356 356.308C923.824 356.62 924.406 356.776 925.102 356.776C925.642 356.776 926.11 356.68 926.506 356.488C926.902 356.296 927.22 356.038 927.46 355.714C927.7 355.39 927.844 355.024 927.892 354.616H929.548C929.512 355.372 929.29 356.026 928.882 356.578C928.486 357.13 927.958 357.562 927.298 357.874C926.65 358.174 925.918 358.324 925.102 358.324ZM936.982 358.324C936.142 358.324 935.416 358.18 934.804 357.892C934.192 357.604 933.694 357.226 933.31 356.758C932.926 356.278 932.638 355.744 932.446 355.156C932.266 354.568 932.176 353.968 932.176 353.356V353.032C932.176 352.408 932.266 351.802 932.446 351.214C932.638 350.626 932.926 350.098 933.31 349.63C933.694 349.15 934.18 348.772 934.768 348.496C935.368 348.208 936.07 348.064 936.874 348.064C937.918 348.064 938.776 348.292 939.448 348.748C940.132 349.192 940.636 349.768 940.96 350.476C941.296 351.184 941.464 351.94 941.464 352.744V353.518H932.932V352.222H940.204L939.808 352.924C939.808 352.24 939.7 351.652 939.484 351.16C939.268 350.656 938.944 350.266 938.512 349.99C938.08 349.714 937.534 349.576 936.874 349.576C936.19 349.576 935.62 349.732 935.164 350.044C934.72 350.356 934.384 350.782 934.156 351.322C933.94 351.862 933.832 352.486 933.832 353.194C933.832 353.878 933.94 354.496 934.156 355.048C934.384 355.588 934.732 356.02 935.2 356.344C935.668 356.656 936.262 356.812 936.982 356.812C937.738 356.812 938.35 356.644 938.818 356.308C939.298 355.972 939.586 355.582 939.682 355.138H941.302C941.17 355.798 940.906 356.368 940.51 356.848C940.114 357.328 939.616 357.694 939.016 357.946C938.416 358.198 937.738 358.324 936.982 358.324ZM950.013 358V348.388H951.381V352.51H951.165C951.165 351.574 951.285 350.782 951.525 350.134C951.777 349.474 952.149 348.97 952.641 348.622C953.133 348.274 953.757 348.1 954.513 348.1H954.585C955.341 348.1 955.965 348.274 956.457 348.622C956.961 348.97 957.333 349.474 957.573 350.134C957.813 350.782 957.933 351.574 957.933 352.51H957.429C957.429 351.574 957.555 350.782 957.807 350.134C958.059 349.474 958.431 348.97 958.923 348.622C959.427 348.274 960.057 348.1 960.813 348.1H960.885C961.641 348.1 962.271 348.274 962.775 348.622C963.279 348.97 963.651 349.474 963.891 350.134C964.143 350.782 964.269 351.574 964.269 352.51V358H962.541V352.132C962.541 351.352 962.349 350.752 961.965 350.332C961.581 349.9 961.047 349.684 960.363 349.684C959.655 349.684 959.085 349.912 958.653 350.368C958.221 350.812 958.005 351.436 958.005 352.24V358H956.277V352.132C956.277 351.352 956.085 350.752 955.701 350.332C955.317 349.9 954.783 349.684 954.099 349.684C953.391 349.684 952.821 349.912 952.389 350.368C951.957 350.812 951.741 351.436 951.741 352.24V358H950.013ZM974.247 358V355.12H973.959V351.79C973.959 351.13 973.785 350.632 973.437 350.296C973.101 349.96 972.603 349.792 971.943 349.792C971.571 349.792 971.187 349.798 970.791 349.81C970.395 349.822 970.017 349.834 969.657 349.846C969.297 349.858 968.985 349.876 968.721 349.9V348.388C968.985 348.364 969.261 348.346 969.549 348.334C969.849 348.31 970.155 348.298 970.467 348.298C970.779 348.286 971.079 348.28 971.367 348.28C972.351 348.28 973.155 348.4 973.779 348.64C974.403 348.868 974.865 349.246 975.165 349.774C975.465 350.302 975.615 351.016 975.615 351.916V358H974.247ZM971.097 358.252C970.377 358.252 969.753 358.132 969.225 357.892C968.709 357.64 968.307 357.28 968.019 356.812C967.743 356.344 967.605 355.78 967.605 355.12C967.605 354.436 967.755 353.866 968.055 353.41C968.367 352.954 968.817 352.612 969.405 352.384C969.993 352.144 970.701 352.024 971.529 352.024H974.139V353.32H971.457C970.761 353.32 970.227 353.488 969.855 353.824C969.483 354.16 969.297 354.592 969.297 355.12C969.297 355.648 969.483 356.074 969.855 356.398C970.227 356.722 970.761 356.884 971.457 356.884C971.865 356.884 972.255 356.812 972.627 356.668C972.999 356.512 973.305 356.26 973.545 355.912C973.797 355.552 973.935 355.06 973.959 354.436L974.427 355.12C974.367 355.804 974.199 356.38 973.923 356.848C973.659 357.304 973.287 357.652 972.807 357.892C972.339 358.132 971.769 358.252 971.097 358.252ZM983.801 358.324C983.117 358.324 982.487 358.198 981.911 357.946C981.335 357.694 980.831 357.34 980.399 356.884C979.979 356.428 979.649 355.9 979.409 355.3C979.181 354.7 979.067 354.052 979.067 353.356V353.032C979.067 352.348 979.181 351.706 979.409 351.106C979.637 350.506 979.955 349.978 980.363 349.522C980.783 349.066 981.275 348.712 981.839 348.46C982.415 348.196 983.051 348.064 983.747 348.064C984.479 348.064 985.145 348.22 985.745 348.532C986.345 348.832 986.837 349.306 987.221 349.954C987.605 350.602 987.821 351.442 987.869 352.474L987.149 351.322V344.86H988.877V358H987.509V353.734H988.013C987.965 354.826 987.737 355.714 987.329 356.398C986.921 357.07 986.405 357.562 985.781 357.874C985.169 358.174 984.509 358.324 983.801 358.324ZM984.035 356.812C984.623 356.812 985.157 356.68 985.637 356.416C986.117 356.152 986.501 355.774 986.789 355.282C987.077 354.778 987.221 354.19 987.221 353.518V352.69C987.221 352.03 987.071 351.472 986.771 351.016C986.483 350.548 986.093 350.194 985.601 349.954C985.121 349.702 984.593 349.576 984.017 349.576C983.381 349.576 982.817 349.726 982.325 350.026C981.845 350.326 981.467 350.746 981.191 351.286C980.927 351.826 980.795 352.462 980.795 353.194C980.795 353.926 980.933 354.568 981.209 355.12C981.485 355.66 981.869 356.08 982.361 356.38C982.853 356.668 983.411 356.812 984.035 356.812ZM997.283 358.324C996.443 358.324 995.717 358.18 995.105 357.892C994.493 357.604 993.995 357.226 993.611 356.758C993.227 356.278 992.939 355.744 992.747 355.156C992.567 354.568 992.477 353.968 992.477 353.356V353.032C992.477 352.408 992.567 351.802 992.747 351.214C992.939 350.626 993.227 350.098 993.611 349.63C993.995 349.15 994.481 348.772 995.069 348.496C995.669 348.208 996.371 348.064 997.175 348.064C998.219 348.064 999.077 348.292 999.749 348.748C1000.43 349.192 1000.94 349.768 1001.26 350.476C1001.6 351.184 1001.77 351.94 1001.77 352.744V353.518H993.233V352.222H1000.51L1000.11 352.924C1000.11 352.24 1000 351.652 999.785 351.16C999.569 350.656 999.245 350.266 998.813 349.99C998.381 349.714 997.835 349.576 997.175 349.576C996.491 349.576 995.921 349.732 995.465 350.044C995.021 350.356 994.685 350.782 994.457 351.322C994.241 351.862 994.133 352.486 994.133 353.194C994.133 353.878 994.241 354.496 994.457 355.048C994.685 355.588 995.033 356.02 995.501 356.344C995.969 356.656 996.563 356.812 997.283 356.812C998.039 356.812 998.651 356.644 999.119 356.308C999.599 355.972 999.887 355.582 999.983 355.138H1001.6C1001.47 355.798 1001.21 356.368 1000.81 356.848C1000.42 357.328 999.917 357.694 999.317 357.946C998.717 358.198 998.039 358.324 997.283 358.324ZM1013.64 358.288C1012.5 358.288 1011.63 357.916 1011.02 357.172C1010.4 356.428 1010.1 355.354 1010.1 353.95V348.37H1011.83V354.292C1011.83 355.048 1012.03 355.642 1012.44 356.074C1012.85 356.494 1013.4 356.704 1014.09 356.704C1014.81 356.704 1015.4 356.476 1015.86 356.02C1016.31 355.552 1016.54 354.916 1016.54 354.112V348.37H1018.27V358H1016.9V353.878H1017.12C1017.12 354.826 1016.99 355.63 1016.74 356.29C1016.49 356.938 1016.11 357.436 1015.61 357.784C1015.11 358.12 1014.48 358.288 1013.72 358.288H1013.64ZM1022.62 361.6V348.388H1023.98V352.546L1023.66 352.51C1023.72 351.478 1023.94 350.638 1024.31 349.99C1024.69 349.33 1025.19 348.844 1025.8 348.532C1026.41 348.22 1027.08 348.064 1027.8 348.064C1028.5 348.064 1029.13 348.196 1029.69 348.46C1030.27 348.724 1030.76 349.084 1031.17 349.54C1031.57 349.996 1031.89 350.524 1032.1 351.124C1032.32 351.724 1032.43 352.36 1032.43 353.032V353.356C1032.43 354.028 1032.31 354.664 1032.08 355.264C1031.86 355.864 1031.53 356.392 1031.11 356.848C1030.7 357.304 1030.21 357.664 1029.64 357.928C1029.07 358.192 1028.45 358.324 1027.76 358.324C1027.08 358.324 1026.43 358.174 1025.8 357.874C1025.18 357.574 1024.66 357.088 1024.25 356.416C1023.85 355.744 1023.61 354.862 1023.55 353.77L1024.34 355.21V361.6H1022.62ZM1027.49 356.812C1028.14 356.812 1028.71 356.662 1029.19 356.362C1029.67 356.05 1030.04 355.624 1030.3 355.084C1030.57 354.532 1030.7 353.902 1030.7 353.194C1030.7 352.474 1030.57 351.844 1030.3 351.304C1030.04 350.764 1029.67 350.344 1029.19 350.044C1028.71 349.732 1028.14 349.576 1027.49 349.576C1026.92 349.576 1026.38 349.708 1025.89 349.972C1025.4 350.224 1025 350.596 1024.7 351.088C1024.42 351.568 1024.27 352.15 1024.27 352.834V353.662C1024.27 354.322 1024.42 354.886 1024.72 355.354C1025.02 355.822 1025.42 356.182 1025.91 356.434C1026.4 356.686 1026.93 356.812 1027.49 356.812ZM613.084 383.324C612.244 383.324 611.506 383.18 610.87 382.892C610.234 382.604 609.694 382.226 609.25 381.758C608.818 381.278 608.488 380.744 608.26 380.156C608.044 379.568 607.936 378.968 607.936 378.356V378.032C607.936 377.42 608.05 376.82 608.278 376.232C608.506 375.632 608.842 375.098 609.286 374.63C609.73 374.15 610.27 373.772 610.906 373.496C611.542 373.208 612.268 373.064 613.084 373.064C613.9 373.064 614.626 373.208 615.262 373.496C615.898 373.772 616.438 374.15 616.882 374.63C617.326 375.098 617.662 375.632 617.89 376.232C618.118 376.82 618.232 377.42 618.232 378.032V378.356C618.232 378.968 618.118 379.568 617.89 380.156C617.674 380.744 617.344 381.278 616.9 381.758C616.468 382.226 615.934 382.604 615.298 382.892C614.662 383.18 613.924 383.324 613.084 383.324ZM613.084 381.776C613.804 381.776 614.416 381.62 614.92 381.308C615.436 380.984 615.826 380.552 616.09 380.012C616.366 379.472 616.504 378.866 616.504 378.194C616.504 377.51 616.366 376.898 616.09 376.358C615.814 375.818 615.418 375.392 614.902 375.08C614.398 374.768 613.792 374.612 613.084 374.612C612.388 374.612 611.782 374.768 611.266 375.08C610.75 375.392 610.354 375.818 610.078 376.358C609.802 376.898 609.664 377.51 609.664 378.194C609.664 378.866 609.796 379.472 610.06 380.012C610.336 380.552 610.726 380.984 611.23 381.308C611.746 381.62 612.364 381.776 613.084 381.776ZM622.072 383V372.902C622.072 371.834 622.354 371.048 622.918 370.544C623.482 370.04 624.31 369.788 625.402 369.788H626.59V371.228H625.114C624.67 371.228 624.328 371.354 624.088 371.606C623.848 371.846 623.728 372.182 623.728 372.614V383H622.072ZM620.74 374.792V373.496H626.77V374.792H620.74ZM639.362 383.36C638.402 383.36 637.598 383.192 636.95 382.856C636.314 382.52 635.804 382.064 635.42 381.488C635.048 380.9 634.778 380.228 634.61 379.472C634.454 378.716 634.376 377.924 634.376 377.096V376.232C634.376 374.156 634.892 372.56 635.924 371.444C636.956 370.316 638.45 369.752 640.406 369.752C640.874 369.752 641.27 369.764 641.594 369.788C641.918 369.812 642.272 369.848 642.656 369.896V371.372C642.26 371.324 641.894 371.288 641.558 371.264C641.222 371.24 640.814 371.228 640.334 371.228C639.242 371.228 638.378 371.432 637.742 371.84C637.106 372.248 636.65 372.836 636.374 373.604C636.098 374.36 635.96 375.278 635.96 376.358V377.168L635.528 378.77C635.54 377.822 635.72 377.036 636.068 376.412C636.428 375.788 636.914 375.32 637.526 375.008C638.15 374.696 638.864 374.54 639.668 374.54C640.604 374.54 641.396 374.732 642.044 375.116C642.692 375.488 643.178 376.004 643.502 376.664C643.838 377.324 644.006 378.074 644.006 378.914C644.006 379.766 643.832 380.528 643.484 381.2C643.136 381.872 642.614 382.4 641.918 382.784C641.234 383.168 640.382 383.36 639.362 383.36ZM639.362 381.848C640.022 381.848 640.574 381.722 641.018 381.47C641.462 381.218 641.792 380.876 642.008 380.444C642.236 380 642.35 379.49 642.35 378.914C642.35 378.338 642.242 377.828 642.026 377.384C641.81 376.94 641.486 376.598 641.054 376.358C640.634 376.106 640.112 375.98 639.488 375.98C638.876 375.98 638.324 376.094 637.832 376.322C637.352 376.55 636.974 376.886 636.698 377.33C636.422 377.762 636.284 378.296 636.284 378.932C636.284 379.46 636.392 379.946 636.608 380.39C636.824 380.834 637.16 381.188 637.616 381.452C638.072 381.716 638.654 381.848 639.362 381.848ZM652.805 383V369.86H654.533V383H652.805ZM651.473 371.228V369.86H654.533V371.228H651.473ZM662.933 383.324C662.093 383.324 661.367 383.18 660.755 382.892C660.143 382.604 659.645 382.226 659.261 381.758C658.877 381.278 658.589 380.744 658.397 380.156C658.217 379.568 658.127 378.968 658.127 378.356V378.032C658.127 377.408 658.217 376.802 658.397 376.214C658.589 375.626 658.877 375.098 659.261 374.63C659.645 374.15 660.131 373.772 660.719 373.496C661.319 373.208 662.021 373.064 662.825 373.064C663.869 373.064 664.727 373.292 665.399 373.748C666.083 374.192 666.587 374.768 666.911 375.476C667.247 376.184 667.415 376.94 667.415 377.744V378.518H658.883V377.222H666.155L665.759 377.924C665.759 377.24 665.651 376.652 665.435 376.16C665.219 375.656 664.895 375.266 664.463 374.99C664.031 374.714 663.485 374.576 662.825 374.576C662.141 374.576 661.571 374.732 661.115 375.044C660.671 375.356 660.335 375.782 660.107 376.322C659.891 376.862 659.783 377.486 659.783 378.194C659.783 378.878 659.891 379.496 660.107 380.048C660.335 380.588 660.683 381.02 661.151 381.344C661.619 381.656 662.213 381.812 662.933 381.812C663.689 381.812 664.301 381.644 664.769 381.308C665.249 380.972 665.537 380.582 665.633 380.138H667.253C667.121 380.798 666.857 381.368 666.461 381.848C666.065 382.328 665.567 382.694 664.967 382.946C664.367 383.198 663.689 383.324 662.933 383.324ZM672.851 383L669.575 373.388H671.375L674.579 383H672.851ZM673.283 383V381.632H675.371V383H673.283ZM674.111 383L676.901 373.388H678.593L675.749 383H674.111ZM685.763 383.324C684.923 383.324 684.197 383.18 683.585 382.892C682.973 382.604 682.475 382.226 682.091 381.758C681.707 381.278 681.419 380.744 681.227 380.156C681.047 379.568 680.957 378.968 680.957 378.356V378.032C680.957 377.408 681.047 376.802 681.227 376.214C681.419 375.626 681.707 375.098 682.091 374.63C682.475 374.15 682.961 373.772 683.549 373.496C684.149 373.208 684.851 373.064 685.655 373.064C686.699 373.064 687.557 373.292 688.229 373.748C688.913 374.192 689.417 374.768 689.741 375.476C690.077 376.184 690.245 376.94 690.245 377.744V378.518H681.713V377.222H688.985L688.589 377.924C688.589 377.24 688.481 376.652 688.265 376.16C688.049 375.656 687.725 375.266 687.293 374.99C686.861 374.714 686.315 374.576 685.655 374.576C684.971 374.576 684.401 374.732 683.945 375.044C683.501 375.356 683.165 375.782 682.937 376.322C682.721 376.862 682.613 377.486 682.613 378.194C682.613 378.878 682.721 379.496 682.937 380.048C683.165 380.588 683.513 381.02 683.981 381.344C684.449 381.656 685.043 381.812 685.763 381.812C686.519 381.812 687.131 381.644 687.599 381.308C688.079 380.972 688.367 380.582 688.463 380.138H690.083C689.951 380.798 689.687 381.368 689.291 381.848C688.895 382.328 688.397 382.694 687.797 382.946C687.197 383.198 686.519 383.324 685.763 383.324ZM693.807 383V369.86H695.535V383H693.807ZM692.475 371.228V369.86H695.535V371.228H692.475ZM702.999 383.288C701.739 383.288 700.761 383.018 700.065 382.478C699.381 381.938 699.027 381.2 699.003 380.264H700.623C700.647 380.636 700.833 380.99 701.181 381.326C701.541 381.65 702.147 381.812 702.999 381.812C703.767 381.812 704.355 381.662 704.763 381.362C705.171 381.05 705.375 380.672 705.375 380.228C705.375 379.832 705.225 379.526 704.925 379.31C704.625 379.082 704.139 378.932 703.467 378.86L702.423 378.752C701.511 378.656 700.767 378.386 700.191 377.942C699.615 377.486 699.327 376.85 699.327 376.034C699.327 375.422 699.483 374.9 699.795 374.468C700.107 374.024 700.539 373.688 701.091 373.46C701.643 373.22 702.279 373.1 702.999 373.1C704.079 373.1 704.955 373.34 705.627 373.82C706.299 374.3 706.647 375.014 706.671 375.962H705.051C705.039 375.578 704.859 375.254 704.511 374.99C704.175 374.714 703.671 374.576 702.999 374.576C702.327 374.576 701.817 374.714 701.469 374.99C701.121 375.266 700.947 375.614 700.947 376.034C700.947 376.394 701.067 376.682 701.307 376.898C701.559 377.114 701.967 377.252 702.531 377.312L703.575 377.42C704.607 377.528 705.435 377.816 706.059 378.284C706.683 378.74 706.995 379.388 706.995 380.228C706.995 380.828 706.821 381.362 706.473 381.83C706.137 382.286 705.669 382.646 705.069 382.91C704.469 383.162 703.779 383.288 702.999 383.288ZM709.982 383V380.804H712.07V383H709.982Z" fill="#F5F5F5"/>
<path d="M271.5 202V196.625H266.125V191.25H271.5V185.875V180.5V175.125H276.875V180.5V185.875V191.25V196.625V202H271.5ZM250 202V196.625V191.25V185.875V180.5V175.125H255.375V180.5V185.875V191.25H260.75V196.625H255.375V202H250ZM266.125 191.25H260.75V185.875H266.125V191.25ZM309.125 196.625H314.5V202H309.125H303.75H298.375H293H287.625V196.625V191.25V185.875V180.5V175.125H293H298.375H303.75H309.125H314.5V180.5H309.125H303.75H298.375H293V185.875H298.375H303.75H309.125V191.25H303.75H298.375H293V196.625H298.375H303.75H309.125ZM346.75 196.625H352.125V202H346.75H341.375H336H330.625H325.25V196.625V191.25V185.875V180.5V175.125H330.625V180.5V185.875V191.25V196.625H336H341.375H346.75ZM384.375 196.625H389.75V202H384.375H379H373.625H368.25V196.625H373.625H379H384.375ZM368.25 196.625H362.875V191.25V185.875V180.5H368.25V185.875V191.25V196.625ZM384.375 175.125H389.75V180.5H384.375H379H373.625H368.25V175.125H373.625H379H384.375ZM416.625 196.625H422V202H416.625H411.25H405.875V196.625H411.25H416.625ZM422 196.625V191.25V185.875V180.5H427.375V185.875V191.25V196.625H422ZM405.875 196.625H400.5V191.25V185.875V180.5H405.875V185.875V191.25V196.625ZM422 180.5H416.625H411.25H405.875V175.125H411.25H416.625H422V180.5ZM459.625 202V196.625V191.25V185.875H454.25V191.25H448.875V185.875H454.25V180.5H459.625V175.125H465V180.5V185.875V191.25V196.625V202H459.625ZM438.125 202V196.625V191.25V185.875V180.5V175.125H443.5V180.5H448.875V185.875H443.5V191.25V196.625V202H438.125ZM497.25 196.625H502.625V202H497.25H491.875H486.5H481.125H475.75V196.625V191.25V185.875V180.5V175.125H481.125H486.5H491.875H497.25H502.625V180.5H497.25H491.875H486.5H481.125V185.875H486.5H491.875H497.25V191.25H491.875H486.5H481.125V196.625H486.5H491.875H497.25ZM551 202V196.625V191.25V185.875V180.5H545.625H540.25V175.125H545.625H551H556.375H561.75H567.125V180.5H561.75H556.375V185.875V191.25V196.625V202H551ZM594 196.625H599.375V202H594H588.625H583.25V196.625H588.625H594ZM599.375 196.625V191.25V185.875V180.5H604.75V185.875V191.25V196.625H599.375ZM583.25 196.625H577.875V191.25V185.875V180.5H583.25V185.875V191.25V196.625ZM599.375 180.5H594H588.625H583.25V175.125H588.625H594H599.375V180.5ZM653.125 202V196.625V191.25V185.875V180.5H647.75H642.375V175.125H647.75H653.125H658.5H663.875H669.25V180.5H663.875H658.5V185.875V191.25V196.625V202H653.125ZM701.5 202V196.625V191.25H696.125H690.75H685.375V196.625V202H680V196.625V191.25V185.875V180.5V175.125H685.375V180.5V185.875H690.75H696.125H701.5V180.5V175.125H706.875V180.5V185.875V191.25V196.625V202H701.5ZM739.125 196.625H744.5V202H739.125H733.75H728.375H723H717.625V196.625V191.25V185.875V180.5V175.125H723H728.375H733.75H739.125H744.5V180.5H739.125H733.75H728.375H723V185.875H728.375H733.75H739.125V191.25H733.75H728.375H723V196.625H728.375H733.75H739.125ZM803.625 202V196.625H798.25V191.25H803.625V185.875V180.5V175.125H809V180.5V185.875V191.25V196.625V202H803.625ZM782.125 202V196.625V191.25V185.875V180.5V175.125H787.5V180.5V185.875V191.25H792.875V196.625H787.5V202H782.125ZM798.25 191.25H792.875V185.875H798.25V191.25ZM841.25 202V196.625V191.25H835.875H830.5H825.125V196.625V202H819.75V196.625V191.25V185.875V180.5H825.125V185.875H830.5H835.875H841.25V180.5H846.625V185.875V191.25V196.625V202H841.25ZM841.25 180.5H835.875H830.5H825.125V175.125H830.5H835.875H841.25V180.5ZM868.125 202V196.625H873.5V202H868.125ZM873.5 196.625V191.25H878.875V196.625H873.5ZM868.125 196.625H862.75V191.25H868.125V196.625ZM878.875 191.25V185.875V180.5V175.125H884.25V180.5V185.875V191.25H878.875ZM862.75 191.25H857.375V185.875V180.5V175.125H862.75V180.5V185.875V191.25ZM916.5 202H911.125H905.75H900.375V196.625H905.75H911.125H916.5V191.25H911.125V185.875H916.5H921.875V191.25V196.625V202H916.5ZM900.375 196.625H895V191.25V185.875V180.5H900.375V185.875V191.25V196.625ZM916.5 175.125H921.875V180.5H916.5H911.125H905.75H900.375V175.125H905.75H911.125H916.5ZM954.125 202V196.625V191.25H948.75H943.375H938V196.625V202H932.625V196.625V191.25V185.875V180.5H938V185.875H943.375H948.75H954.125V180.5H959.5V185.875V191.25V196.625V202H954.125ZM954.125 180.5H948.75H943.375H938V175.125H943.375H948.75H954.125V180.5ZM991.75 202V196.625V191.25V185.875H986.375V191.25H981V185.875H986.375V180.5H991.75V175.125H997.125V180.5V185.875V191.25V196.625V202H991.75ZM970.25 202V196.625V191.25V185.875V180.5V175.125H975.625V180.5H981V185.875H975.625V191.25V196.625V202H970.25ZM1029.38 196.625H1034.75V202H1029.38H1024H1018.62H1013.25H1007.88V196.625V191.25V185.875V180.5V175.125H1013.25H1018.62H1024H1029.38H1034.75V180.5H1029.38H1024H1018.62H1013.25V185.875H1018.62H1024H1029.38V191.25H1024H1018.62H1013.25V196.625H1018.62H1024H1029.38Z" fill="url(#paint1_linear_2619_161328)"/>
<defs>
<linearGradient id="paint0_linear_2619_161328" x1="1842.93" y1="367.787" x2="1842.93" y2="673.361" gradientUnits="userSpaceOnUse">
<stop stop-color="#B83182"/>
<stop offset="1" stop-color="#C55562"/>
</linearGradient>
<linearGradient id="paint1_linear_2619_161328" x1="237.785" y1="188" x2="949.298" y2="192.145" gradientUnits="userSpaceOnUse">
<stop stop-color="#FE7A8B"/>
<stop offset="1" stop-color="#B721EB"/>
</linearGradient>
<clipPath id="clip0_2619_161328">
<rect width="61" height="63" fill="white" transform="translate(1033 385)"/>
</clipPath>
<clipPath id="clip1_2619_161328">
<rect width="46" height="48" fill="white" transform="translate(1069 431)"/>
</clipPath>
</defs>
</svg>
