<svg width="1260" height="479" viewBox="0 0 1260 479" fill="none" xmlns="http://www.w3.org/2000/svg">
<rect x="41.4999" y="79.2278" width="1218" height="307.272" rx="59.5" stroke="#631C4B"/>
<rect x="34.4999" y="72.1569" width="1213.44" height="304.574" rx="59.5" stroke="#8B2468"/>
<rect x="1213.5" y="350.5" width="1213" height="307" rx="59.5" transform="rotate(180 1213.5 350.5)" stroke="#832B2B"/>
<rect x="1223.95" y="357.843" width="1212.86" height="304.574" rx="59.5" transform="rotate(180 1223.95 357.843)" stroke="#AF4047"/>
<rect x="1235.5" y="367.287" width="1212.86" height="304.574" rx="57.5" transform="rotate(180 1235.5 367.287)" fill="#262020" stroke="url(#paint0_linear_685_112866)"/>
<g opacity="0.39">
<path d="M1078.81 42.5C1078.81 39.1759 1078.16 35.8844 1076.89 32.8133C1075.61 29.7423 1073.75 26.9518 1071.4 24.6014C1069.05 22.2509 1066.26 20.3864 1063.19 19.1143C1060.12 17.8422 1056.82 17.1875 1053.5 17.1875C1050.18 17.1875 1046.88 17.8422 1043.81 19.1143C1040.74 20.3864 1037.95 22.2509 1035.6 24.6014C1033.25 26.9518 1031.39 29.7423 1030.11 32.8133C1028.84 35.8844 1028.19 39.1759 1028.19 42.5H1032.76C1032.76 39.7762 1033.3 37.0792 1034.34 34.5627C1035.38 32.0463 1036.91 29.7598 1038.83 27.8339C1040.76 25.9079 1043.05 24.3801 1045.56 23.3378C1048.08 22.2954 1050.78 21.7589 1053.5 21.7589C1056.22 21.7589 1058.92 22.2954 1061.44 23.3378C1063.95 24.3801 1066.24 25.9079 1068.17 27.8339C1070.09 29.7598 1071.62 32.0463 1072.66 34.5627C1073.7 37.0792 1074.24 39.7762 1074.24 42.5H1078.81Z" fill="#832B2B"/>
<path d="M1086.69 42.5C1086.69 38.1418 1085.83 33.8262 1084.16 29.7997C1082.49 25.7732 1080.05 22.1146 1076.97 19.0329C1073.89 15.9511 1070.23 13.5066 1066.2 11.8387C1062.17 10.1709 1057.86 9.31249 1053.5 9.31249C1049.14 9.31249 1044.83 10.1709 1040.8 11.8387C1036.77 13.5066 1033.11 15.9511 1030.03 19.0329C1026.95 22.1146 1024.51 25.7732 1022.84 29.7997C1021.17 33.8262 1020.31 38.1418 1020.31 42.5H1024.43C1024.43 38.6826 1025.18 34.9026 1026.64 31.3758C1028.1 27.849 1030.25 24.6445 1032.95 21.9452C1035.64 19.2459 1038.85 17.1047 1042.38 15.6438C1045.9 14.183 1049.68 13.4311 1053.5 13.4311C1057.32 13.4311 1061.1 14.183 1064.62 15.6438C1068.15 17.1047 1071.36 19.2459 1074.05 21.9452C1076.75 24.6445 1078.9 27.849 1080.36 31.3758C1081.82 34.9026 1082.57 38.6826 1082.57 42.5H1086.69Z" fill="#AF4047"/>
<path d="M1094 42.5C1094 37.1815 1092.95 31.915 1090.92 27.0013C1088.88 22.0876 1085.9 17.6229 1082.14 13.8622C1078.38 10.1014 1073.91 7.11819 1069 5.08288C1064.08 3.04756 1058.82 2 1053.5 2C1048.18 2 1042.92 3.04756 1038 5.08288C1033.09 7.11819 1028.62 10.1014 1024.86 13.8622C1021.1 17.6229 1018.12 22.0876 1016.08 27.0013C1014.05 31.915 1013 37.1815 1013 42.5H1016.73C1016.73 37.6708 1017.68 32.8888 1019.53 28.4272C1021.37 23.9656 1024.08 19.9116 1027.5 16.4969C1030.91 13.0821 1034.97 10.3733 1039.43 8.52525C1043.89 6.67719 1048.67 5.72601 1053.5 5.72601C1058.33 5.726 1063.11 6.67719 1067.57 8.52525C1072.03 10.3733 1076.09 13.0821 1079.5 16.4969C1082.92 19.9116 1085.63 23.9656 1087.47 28.4272C1089.32 32.8888 1090.27 37.6708 1090.27 42.5H1094Z" fill="#C55662"/>
</g>
<g opacity="0.48">
<path d="M1129.44 53.5C1129.44 57.5628 1128.64 61.5858 1127.08 65.3393C1125.53 69.0928 1123.25 72.5033 1120.38 75.3761C1117.5 78.2489 1114.09 80.5278 1110.34 82.0825C1106.59 83.6373 1102.56 84.4375 1098.5 84.4375C1094.44 84.4375 1090.41 83.6373 1086.66 82.0825C1082.91 80.5278 1079.5 78.2489 1076.62 75.3761C1073.75 72.5033 1071.47 69.0928 1069.92 65.3393C1068.36 61.5858 1067.56 57.5628 1067.56 53.5H1073.15C1073.15 56.829 1073.81 60.1255 1075.08 63.2011C1076.35 66.2767 1078.22 69.0713 1080.57 71.4253C1082.93 73.7793 1085.72 75.6466 1088.8 76.9205C1091.87 78.1945 1095.17 78.8502 1098.5 78.8502C1101.83 78.8502 1105.13 78.1945 1108.2 76.9205C1111.28 75.6466 1114.07 73.7793 1116.43 71.4253C1118.78 69.0713 1120.65 66.2767 1121.92 63.2011C1123.19 60.1255 1123.85 56.829 1123.85 53.5H1129.44Z" fill="#812572"/>
<path d="M1139.06 53.5C1139.06 58.8267 1138.01 64.1013 1135.97 69.0226C1133.94 73.9439 1130.95 78.4155 1127.18 82.182C1123.42 85.9486 1118.94 88.9364 1114.02 90.9749C1109.1 93.0133 1103.83 94.0625 1098.5 94.0625C1093.17 94.0625 1087.9 93.0133 1082.98 90.9749C1078.06 88.9364 1073.58 85.9486 1069.82 82.182C1066.05 78.4154 1063.06 73.9439 1061.03 69.0226C1058.99 64.1013 1057.94 58.8267 1057.94 53.5H1062.97C1062.97 58.1657 1063.89 62.7857 1065.68 67.0962C1067.46 71.4068 1070.08 75.3234 1073.38 78.6226C1076.68 81.9217 1080.59 84.5387 1084.9 86.3242C1089.21 88.1097 1093.83 89.0287 1098.5 89.0287C1103.17 89.0287 1107.79 88.1097 1112.1 86.3242C1116.41 84.5388 1120.32 81.9217 1123.62 78.6226C1126.92 75.3234 1129.54 71.4068 1131.32 67.0962C1133.11 62.7857 1134.03 58.1657 1134.03 53.5H1139.06Z" fill="#A22787"/>
<path d="M1148 53.5C1148 60.0004 1146.72 66.4372 1144.23 72.4428C1141.74 78.4484 1138.1 83.9053 1133.5 88.5018C1128.91 93.0983 1123.45 96.7444 1117.44 99.232C1111.44 101.72 1105 103 1098.5 103C1092 103 1085.56 101.72 1079.56 99.232C1073.55 96.7444 1068.09 93.0983 1063.5 88.5018C1058.9 83.9053 1055.26 78.4484 1052.77 72.4428C1050.28 66.4372 1049 60.0004 1049 53.5H1053.55C1053.55 59.4024 1054.72 65.247 1056.98 70.7001C1059.23 76.1532 1062.54 81.108 1066.72 85.2816C1070.89 89.4552 1075.85 92.7659 1081.3 95.0247C1086.75 97.2834 1092.6 98.446 1098.5 98.446C1104.4 98.446 1110.25 97.2834 1115.7 95.0247C1121.15 92.7659 1126.11 89.4552 1130.28 85.2816C1134.46 81.108 1137.77 76.1532 1140.02 70.7001C1142.28 65.247 1143.45 59.4024 1143.45 53.5H1148Z" fill="#B83182"/>
</g>
<rect x="1138.5" y="423.5" width="577" height="132" rx="44.5" transform="rotate(180 1138.5 423.5)" fill="#272121" stroke="#88292F"/>
<rect x="1131.5" y="416.5" width="581" height="132" rx="40.5" transform="rotate(180 1131.5 416.5)" fill="#272121" stroke="#B83182"/>
<path d="M390.541 366.396C390.541 359.073 389.099 351.822 386.296 345.056C383.494 338.29 379.386 332.143 374.208 326.965C369.03 321.786 362.882 317.679 356.117 314.876C349.351 312.074 342.1 310.631 334.776 310.631C327.453 310.631 320.202 312.074 313.436 314.876C306.671 317.679 300.523 321.786 295.345 326.965C290.167 332.143 286.059 338.29 283.257 345.056C280.454 351.822 279.012 359.073 279.012 366.396H289.083C289.083 360.396 290.265 354.454 292.561 348.91C294.857 343.366 298.223 338.329 302.466 334.086C306.709 329.843 311.746 326.477 317.29 324.181C322.834 321.884 328.776 320.703 334.776 320.703C340.777 320.703 346.719 321.884 352.263 324.181C357.806 326.477 362.844 329.843 367.087 334.086C371.33 338.329 374.696 343.366 376.992 348.91C379.288 354.454 380.47 360.396 380.47 366.396H390.541Z" fill="#812572"/>
<path d="M407.89 366.396C407.89 356.795 405.999 347.287 402.325 338.417C398.65 329.546 393.265 321.486 386.476 314.697C379.686 307.908 371.626 302.522 362.756 298.848C353.885 295.174 344.378 293.282 334.776 293.282C325.175 293.282 315.668 295.174 306.797 298.848C297.926 302.522 289.866 307.908 283.077 314.697C276.288 321.486 270.902 329.546 267.228 338.417C263.554 347.287 261.663 356.795 261.663 366.396H270.736C270.736 357.986 272.392 349.659 275.611 341.889C278.829 334.119 283.546 327.06 289.493 321.113C295.44 315.166 302.499 310.449 310.269 307.231C318.039 304.012 326.366 302.356 334.776 302.356C343.186 302.356 351.514 304.012 359.284 307.231C367.053 310.449 374.113 315.166 380.06 321.113C386.006 327.06 390.724 334.119 393.942 341.889C397.16 349.659 398.817 357.986 398.817 366.396H407.89Z" fill="#A22787"/>
<path d="M424 366.396C424 354.679 421.692 343.077 417.208 332.252C412.724 321.427 406.152 311.591 397.867 303.306C389.582 295.02 379.746 288.448 368.921 283.964C358.096 279.48 346.493 277.173 334.776 277.173C323.059 277.173 311.457 279.48 300.632 283.964C289.807 288.448 279.971 295.02 271.686 303.306C263.401 311.591 256.828 321.427 252.344 332.252C247.861 343.077 245.553 354.679 245.553 366.396H253.761C253.761 355.757 255.857 345.222 259.928 335.393C264 325.564 269.967 316.633 277.49 309.11C285.013 301.587 293.944 295.619 303.773 291.548C313.602 287.477 324.137 285.381 334.776 285.381C345.415 285.381 355.95 287.477 365.779 291.548C375.609 295.619 384.54 301.587 392.063 309.11C399.586 316.633 405.553 325.564 409.624 335.393C413.696 345.222 415.791 355.757 415.791 366.396H424Z" fill="#B83182"/>
<path d="M252.988 386.619C252.988 393.942 251.546 401.193 248.744 407.959C245.941 414.725 241.833 420.872 236.655 426.05C231.477 431.229 225.33 435.336 218.564 438.139C211.798 440.941 204.547 442.384 197.224 442.384C189.9 442.384 182.649 440.941 175.883 438.139C169.118 435.336 162.97 431.229 157.792 426.05C152.614 420.872 148.506 414.725 145.704 407.959C142.901 401.193 141.459 393.942 141.459 386.619H151.53C151.53 392.619 152.712 398.561 155.008 404.105C157.305 409.649 160.67 414.686 164.913 418.929C169.156 423.172 174.194 426.538 179.737 428.834C185.281 431.131 191.223 432.312 197.224 432.312C203.224 432.312 209.166 431.131 214.71 428.834C220.254 426.538 225.291 423.172 229.534 418.929C233.777 414.686 237.143 409.649 239.439 404.105C241.735 398.561 242.917 392.619 242.917 386.619H252.988Z" fill="#CE5262"/>
<path d="M270.337 386.619C270.337 396.22 268.446 405.728 264.772 414.598C261.098 423.469 255.712 431.529 248.923 438.318C242.134 445.107 234.074 450.493 225.203 454.167C216.332 457.842 206.825 459.733 197.224 459.733C187.622 459.733 178.115 457.842 169.244 454.167C160.374 450.493 152.314 445.107 145.524 438.318C138.735 431.529 133.35 423.469 129.675 414.598C126.001 405.728 124.11 396.22 124.11 386.619H133.183C133.183 395.029 134.84 403.356 138.058 411.126C141.276 418.896 145.993 425.956 151.94 431.902C157.887 437.849 164.947 442.566 172.716 445.784C180.486 449.003 188.814 450.659 197.224 450.659C205.633 450.659 213.961 449.003 221.731 445.784C229.5 442.566 236.56 437.849 242.507 431.902C248.454 425.956 253.171 418.896 256.389 411.126C259.607 403.356 261.264 395.029 261.264 386.619H270.337Z" fill="#AF4047"/>
<path d="M286.447 386.619C286.447 398.336 284.139 409.938 279.655 420.763C275.172 431.588 268.599 441.424 260.314 449.709C252.029 457.995 242.193 464.567 231.368 469.051C220.543 473.535 208.941 475.842 197.224 475.842C185.507 475.842 173.904 473.535 163.079 469.051C152.254 464.567 142.418 457.995 134.133 449.709C125.848 441.424 119.276 431.588 114.792 420.763C110.308 409.938 108 398.336 108 386.619H116.209C116.209 397.258 118.304 407.793 122.375 417.622C126.447 427.451 132.414 436.382 139.937 443.905C147.46 451.428 156.391 457.396 166.22 461.467C176.05 465.538 186.585 467.634 197.224 467.634C207.863 467.634 218.397 465.538 228.227 461.467C238.056 457.396 246.987 451.428 254.51 443.905C262.033 436.382 268 427.451 272.072 417.622C276.143 407.793 278.239 397.258 278.239 386.619H286.447Z" fill="#832B2B"/>
<path d="M152 107C152 104.239 149.761 102 147 102C144.239 102 142 104.239 142 107L152 107ZM152 366L152 107L142 107L142 366L152 366Z" fill="#CE5262"/>
<path d="M134 5C134 2.23859 131.761 -1.20706e-07 129 0C126.239 1.20706e-07 124 2.23859 124 5L134 5ZM134 366L134 5L124 5L124 366L134 366Z" fill="#AF4047"/>
<path d="M117 145C117 142.239 114.761 140 112 140C109.239 140 107 142.239 107 145L117 145ZM117 366L117 145L107 145L107 366L117 366Z" fill="#832B2B"/>
<g clip-path="url(#clip0_685_112866)">
<mask id="mask0_685_112866" style="mask-type:luminance" maskUnits="userSpaceOnUse" x="1033" y="385" width="61" height="63">
<path d="M1094 385H1033V448H1094V385Z" fill="white"/>
</mask>
<g mask="url(#mask0_685_112866)">
<path d="M1063.5 448C1062.62 418.158 1061.9 417.417 1033 416.5C1061.9 415.588 1062.61 414.842 1063.5 385C1064.38 414.842 1065.1 415.583 1094 416.5C1065.1 417.417 1064.39 418.148 1063.5 448Z" fill="#F251BC"/>
</g>
</g>
<g clip-path="url(#clip1_685_112866)">
<mask id="mask1_685_112866" style="mask-type:luminance" maskUnits="userSpaceOnUse" x="1069" y="431" width="46" height="48">
<path d="M1115 431H1069V479H1115V431Z" fill="white"/>
</mask>
<g mask="url(#mask1_685_112866)">
<path d="M1092 479C1091.33 456.263 1090.79 455.698 1069 455C1090.79 454.305 1091.33 453.737 1092 431C1092.67 453.737 1093.21 454.302 1115 455C1093.21 455.698 1092.67 456.256 1092 479Z" fill="#BF3948"/>
</g>
</g>
<defs>
<linearGradient id="paint0_linear_685_112866" x1="1842.93" y1="367.787" x2="1842.93" y2="673.361" gradientUnits="userSpaceOnUse">
<stop stop-color="#B83182"/>
<stop offset="1" stop-color="#C55562"/>
</linearGradient>
<clipPath id="clip0_685_112866">
<rect width="61" height="63" fill="white" transform="translate(1033 385)"/>
</clipPath>
<clipPath id="clip1_685_112866">
<rect width="46" height="48" fill="white" transform="translate(1069 431)"/>
</clipPath>
</defs>
</svg>
