<svg width="305" height="34" viewBox="0 0 305 34" fill="none" xmlns="http://www.w3.org/2000/svg">
<path d="M0.805664 33V0.773438H9.95801V12.2139H15.8232V0.773438H24.9434V33H15.8232V21.624H9.95801V33H0.805664ZM42.668 9.89355C40.7559 9.89355 39.1177 10.5757 37.7534 11.9399C36.3892 13.3042 35.707 14.9424 35.707 16.8545C35.707 18.7881 36.3892 20.437 37.7534 21.8013C39.1177 23.1655 40.7559 23.8477 42.668 23.8477C44.5801 23.8477 46.2183 23.1655 47.5825 21.8013C48.9468 20.437 49.6289 18.7881 49.6289 16.8545C49.6289 14.9424 48.9468 13.3042 47.5825 11.9399C46.2183 10.5757 44.5801 9.89355 42.668 9.89355ZM42.668 33C38.2207 33 34.4233 31.4263 31.2759 28.2788C28.1284 25.1313 26.5547 21.334 26.5547 16.8867C26.5547 12.4609 28.1284 8.66895 31.2759 5.51074C34.4233 2.35254 38.2207 0.773438 42.668 0.773438C47.1152 0.773438 50.918 2.35254 54.0762 5.51074C57.2344 8.66895 58.8135 12.4609 58.8135 16.8867C58.8135 21.334 57.2344 25.1313 54.0762 28.2788C50.918 31.4263 47.1152 33 42.668 33ZM103.254 9.89355H100.966C100.45 9.89355 100.01 10.0762 99.6445 10.4414C99.5156 10.5703 99.4189 10.71 99.3545 10.8604L94.9395 28.6172C94.7891 29.1543 94.5635 29.6807 94.2627 30.1963C93.4463 31.5498 92.2754 32.4199 90.75 32.8066C89.2031 33.1934 87.7422 32.9785 86.3672 32.1621C84.9922 31.3457 84.1221 30.1641 83.7568 28.6172L81.6943 20.3027L79.6641 28.6172C79.2988 30.1641 78.4341 31.3457 77.0698 32.1621C75.7056 32.9785 74.2393 33.1934 72.6709 32.8066C71.1455 32.4199 69.9746 31.5498 69.1582 30.1963C68.8574 29.6807 68.6318 29.1543 68.4814 28.6172L64.0664 10.8604C64.002 10.71 63.9053 10.5703 63.7764 10.4414C63.4111 10.0762 62.9707 9.89355 62.4551 9.89355H60.167V0.773438H63.1641C65.9355 0.773438 68.2988 1.75098 70.2539 3.70605C71.6934 5.14551 72.5957 6.83203 72.9609 8.76562L74.1211 13.2129L76.1514 5.15625C76.5166 3.60938 77.3867 2.42773 78.7617 1.61133C80.1367 0.794922 81.5977 0.580078 83.1445 0.966797C84.6699 1.35352 85.8408 2.22363 86.6572 3.57715C86.958 4.09277 87.1836 4.61914 87.334 5.15625L89.3643 13.2129L90.4922 8.76562C90.8574 6.83203 91.7598 5.14551 93.1992 3.70605C95.1543 1.75098 97.5176 0.773438 100.289 0.773438H103.254V9.89355ZM140.766 9.89355H133.418V33H124.298V9.89355H116.918V0.773438H140.766V9.89355ZM158.49 9.89355C156.578 9.89355 154.94 10.5757 153.576 11.9399C152.211 13.3042 151.529 14.9424 151.529 16.8545C151.529 18.7881 152.211 20.437 153.576 21.8013C154.94 23.1655 156.578 23.8477 158.49 23.8477C160.402 23.8477 162.041 23.1655 163.405 21.8013C164.769 20.437 165.451 18.7881 165.451 16.8545C165.451 14.9424 164.769 13.3042 163.405 11.9399C162.041 10.5757 160.402 9.89355 158.49 9.89355ZM158.49 33C154.043 33 150.246 31.4263 147.098 28.2788C143.951 25.1313 142.377 21.334 142.377 16.8867C142.377 12.4609 143.951 8.66895 147.098 5.51074C150.246 2.35254 154.043 0.773438 158.49 0.773438C162.938 0.773438 166.74 2.35254 169.898 5.51074C173.057 8.66895 174.636 12.4609 174.636 16.8867C174.636 21.334 173.057 25.1313 169.898 28.2788C166.74 31.4263 162.938 33 158.49 33ZM188.3 33V24.2344C188.3 21.5918 189.24 19.3306 191.12 17.4507C193 15.5708 195.261 14.6309 197.903 14.6309H201.867C202.512 14.6309 203.065 14.3999 203.527 13.938C203.989 13.4761 204.22 12.9229 204.22 12.2783C204.22 11.6338 203.989 11.0752 203.527 10.6025C203.065 10.1299 202.512 9.89355 201.867 9.89355H188.3V0.773438H201.835C205.036 0.773438 207.759 1.90137 210.004 4.15723C212.25 6.41309 213.372 9.13086 213.372 12.3105C213.372 15.5117 212.25 18.2402 210.004 20.4961C207.759 22.752 205.036 23.8799 201.835 23.8799H198.741C198.397 23.8799 198.091 24.0142 197.823 24.2827C197.554 24.5513 197.42 24.8574 197.42 25.2012V33H188.3ZM224.136 0.773438V22.5264C224.136 22.8701 224.27 23.1763 224.539 23.4448C224.807 23.7134 225.113 23.8477 225.457 23.8477H237.284V33H224.619C221.977 33 219.715 32.0601 217.835 30.1802C215.956 28.3003 215.016 26.0391 215.016 23.3965V0.773438H224.136ZM238.896 23.8477H243.987C244.331 23.8477 244.632 23.7188 244.89 23.4609C245.019 23.332 245.126 23.1924 245.212 23.042L250.787 6.1875C251.109 4.98438 251.743 3.91016 252.688 2.96484C254.149 1.50391 255.911 0.773438 257.974 0.773438C260.058 0.773438 261.83 1.50391 263.291 2.96484C264.258 3.93164 264.902 5.03809 265.225 6.28418L270.768 23.042C270.854 23.1924 270.961 23.332 271.09 23.4609C271.348 23.7188 271.648 23.8477 271.992 23.8477H277.084V33H271.348C268.705 33 266.449 32.0547 264.58 30.1641C263.592 29.1973 262.829 28.0156 262.292 26.6191L257.974 13.5674L253.688 26.6191C253.15 28.0156 252.388 29.1973 251.399 30.1641C249.53 32.0547 247.274 33 244.632 33H238.896V23.8477ZM304.831 0.773438V23.3965C304.831 26.0391 303.891 28.3003 302.011 30.1802C300.131 32.0601 297.87 33 295.228 33H278.695V23.8477H294.293C294.637 23.8477 294.943 23.7134 295.211 23.4448C295.48 23.1763 295.614 22.8701 295.614 22.5264V20.4961H288.299C285.656 20.4961 283.395 19.5562 281.515 17.6763C279.635 15.7964 278.695 13.5352 278.695 10.8926V0.773438H287.912V9.95801C287.912 10.3018 288.046 10.6079 288.315 10.8765C288.583 11.145 288.89 11.2793 289.233 11.2793H295.614V0.773438H304.831Z" fill="#FFA3DA"/>
</svg>
