<svg width="17" height="16" viewBox="0 0 17 16" fill="none" xmlns="http://www.w3.org/2000/svg">
<path d="M16.4341 3.66513C16.4341 3.81741 16.3901 3.94869 16.3022 4.05896C16.2142 4.16398 16.0953 4.23225 15.9452 4.26376L12.3759 5.0593C12.2052 5.09606 12.0991 5.14332 12.0577 5.20108C12.0164 5.25884 11.9957 5.37962 11.9957 5.56341V12.7784C11.9957 13.3403 11.9026 13.826 11.7163 14.2356C11.5353 14.6452 11.2947 14.9787 10.9947 15.236C10.6998 15.4933 10.3817 15.6849 10.0403 15.811C9.69887 15.937 9.37039 16 9.05484 16C8.37718 16 7.82367 15.8005 7.39431 15.4014C6.96496 15.0023 6.75028 14.4851 6.75028 13.8497C6.75028 13.23 6.94427 12.7154 7.33224 12.3058C7.72538 11.8963 8.32028 11.6048 9.11691 11.4315L10.3584 11.1716C10.674 11.1033 10.8162 10.8907 10.7852 10.5336L10.7697 1.81411C10.7697 1.33101 11.049 1.02907 11.6077 0.908293L15.6038 0.0182289C15.8314 -0.0290312 16.0254 0.0156033 16.1858 0.152132C16.3513 0.288661 16.4341 0.475076 16.4341 0.711376V3.66513ZM1.00052 4.02746C0.845333 4.02746 0.710836 3.97232 0.597031 3.86205C0.488398 3.74652 0.434082 3.60999 0.434082 3.45246C0.434082 3.30018 0.488398 3.1689 0.597031 3.05862C0.710836 2.94835 0.845333 2.89321 1.00052 2.89321H7.8754C8.03059 2.89321 8.1625 2.94835 8.27113 3.05862C8.38494 3.1689 8.44184 3.30018 8.44184 3.45246C8.44184 3.60999 8.38494 3.74652 8.27113 3.86205C8.1625 3.97232 8.03059 4.02746 7.8754 4.02746H1.00052ZM1.00052 6.83155C0.84016 6.83155 0.705663 6.77641 0.597031 6.66614C0.488398 6.55062 0.434082 6.41409 0.434082 6.25655C0.434082 6.09902 0.488398 5.96774 0.597031 5.86272C0.710836 5.75245 0.845333 5.69731 1.00052 5.69731H7.8754C8.03059 5.69731 8.1625 5.75245 8.27113 5.86272C8.38494 5.96774 8.44184 6.09902 8.44184 6.25655C8.44184 6.41409 8.38753 6.55062 8.27889 6.66614C8.17026 6.77641 8.03576 6.83155 7.8754 6.83155H1.00052ZM1.00052 9.63565C0.84016 9.63565 0.705663 9.58051 0.597031 9.47024C0.488398 9.35996 0.434082 9.22606 0.434082 9.06853C0.434082 8.91099 0.488398 8.77709 0.597031 8.66682C0.710836 8.55654 0.845333 8.50141 1.00052 8.50141H7.8754C8.03059 8.50141 8.1625 8.55654 8.27113 8.66682C8.38494 8.77709 8.44184 8.91099 8.44184 9.06853C8.44184 9.22606 8.38753 9.35996 8.27889 9.47024C8.17026 9.58051 8.03576 9.63565 7.8754 9.63565H1.00052Z" fill="#F251BC"/>
</svg>
