<svg width="15" height="14" viewBox="0 0 15 14" fill="none" xmlns="http://www.w3.org/2000/svg">
<path d="M9.51222 7C9.51222 7.44303 9.38084 7.87611 9.13471 8.24448C8.88857 8.61284 8.53873 8.89995 8.12943 9.06949C7.72012 9.23903 7.26973 9.28339 6.83521 9.19696C6.4007 9.11053 6.00157 8.89719 5.6883 8.58392C5.37503 8.27065 5.16169 7.87152 5.07526 7.437C4.98883 7.00248 5.03319 6.5521 5.20273 6.14279C5.37227 5.73348 5.65937 5.38364 6.02774 5.13751C6.39611 4.89137 6.82919 4.76 7.27222 4.76C7.86609 4.76068 8.43545 4.9969 8.85539 5.41683C9.27532 5.83677 9.51154 6.40612 9.51222 7ZM14.2722 3.92V10.08C14.271 11.1193 13.8577 12.1157 13.1228 12.8506C12.3879 13.5854 11.3915 13.9988 10.3522 14H4.19222C3.15293 13.9988 2.15655 13.5854 1.42166 12.8506C0.686771 12.1157 0.273394 11.1193 0.272217 10.08V3.92C0.273394 2.88071 0.686771 1.88433 1.42166 1.14944C2.15655 0.414554 3.15293 0.00117703 4.19222 0H10.3522C11.3915 0.00117703 12.3879 0.414554 13.1228 1.14944C13.8577 1.88433 14.271 2.88071 14.2722 3.92ZM10.6322 7C10.6322 6.33545 10.4352 5.68583 10.066 5.13328C9.69675 4.58073 9.17199 4.15008 8.55803 3.89577C7.94407 3.64145 7.26849 3.57492 6.61671 3.70456C5.96494 3.83421 5.36624 4.15422 4.89634 4.62412C4.42643 5.09403 4.10642 5.69272 3.97678 6.3445C3.84713 6.99627 3.91367 7.67186 4.16798 8.28582C4.42229 8.89978 4.85295 9.42454 5.4055 9.79374C5.95805 10.1629 6.60767 10.36 7.27222 10.36C8.16303 10.359 9.01708 10.0047 9.64698 9.37477C10.2769 8.74486 10.6312 7.89082 10.6322 7ZM11.7522 3.36C11.7522 3.19386 11.703 3.03146 11.6107 2.89332C11.5184 2.75518 11.3872 2.64752 11.2337 2.58394C11.0802 2.52036 10.9113 2.50373 10.7483 2.53614C10.5854 2.56855 10.4357 2.64855 10.3182 2.76603C10.2008 2.88351 10.1208 3.03318 10.0884 3.19612C10.0559 3.35907 10.0726 3.52796 10.1362 3.68145C10.1997 3.83494 10.3074 3.96613 10.4455 4.05843C10.5837 4.15073 10.7461 4.2 10.9122 4.2C11.135 4.2 11.3487 4.1115 11.5062 3.95397C11.6637 3.79644 11.7522 3.58278 11.7522 3.36Z" fill="#FF5DC8"/>
</svg>
