<svg width="9" height="12" viewBox="0 0 9 12" fill="none" xmlns="http://www.w3.org/2000/svg">
<path d="M1.70898 11.5775H7.07031C7.5 11.5775 7.82617 11.4603 8.04883 11.226C8.27539 10.9916 8.38867 10.6439 8.38867 10.183V6.14587C8.38867 5.68494 8.27539 5.33923 8.04883 5.10876C7.82617 4.87439 7.5 4.7572 7.07031 4.7572H1.70898C1.2793 4.7572 0.951172 4.87439 0.724609 5.10876C0.501953 5.33923 0.390625 5.68494 0.390625 6.14587V10.183C0.390625 10.6439 0.501953 10.9916 0.724609 11.226C0.951172 11.4603 1.2793 11.5775 1.70898 11.5775ZM1.41602 5.20837H2.34766V3.22791C2.34766 2.73572 2.44141 2.32166 2.62891 1.98572C2.81641 1.64978 3.06445 1.39587 3.37305 1.224C3.68555 1.05212 4.02344 0.966187 4.38672 0.966187C4.75391 0.966187 5.0918 1.05212 5.40039 1.224C5.71289 1.39587 5.96289 1.64978 6.15039 1.98572C6.3418 2.32166 6.4375 2.73572 6.4375 3.22791V5.20837H7.36328V3.35681C7.36328 2.62244 7.2207 2.01306 6.93555 1.52869C6.6543 1.04431 6.28711 0.682983 5.83398 0.444702C5.38086 0.202515 4.89844 0.0814209 4.38672 0.0814209C3.87891 0.0814209 3.39844 0.202515 2.94531 0.444702C2.49219 0.682983 2.12305 1.04431 1.83789 1.52869C1.55664 2.01306 1.41602 2.62244 1.41602 3.35681V5.20837Z" fill="#F5F5F5"/>
</svg>
