<svg width="15" height="16" viewBox="0 0 15 16" fill="none" xmlns="http://www.w3.org/2000/svg">
<path d="M4.70898 13.3652H10.0703C10.5 13.3652 10.8262 13.248 11.0488 13.0137C11.2754 12.7793 11.3887 12.4316 11.3887 11.9707V7.93359C11.3887 7.47266 11.2754 7.12695 11.0488 6.89648C10.8262 6.66211 10.5 6.54492 10.0703 6.54492H4.70898C4.2793 6.54492 3.95117 6.66211 3.72461 6.89648C3.50195 7.12695 3.39062 7.47266 3.39062 7.93359V11.9707C3.39062 12.4316 3.50195 12.7793 3.72461 13.0137C3.95117 13.248 4.2793 13.3652 4.70898 13.3652ZM4.41602 6.99609H5.34766V5.01562C5.34766 4.52344 5.44141 4.10938 5.62891 3.77344C5.81641 3.4375 6.06445 3.18359 6.37305 3.01172C6.68555 2.83984 7.02344 2.75391 7.38672 2.75391C7.75391 2.75391 8.0918 2.83984 8.40039 3.01172C8.71289 3.18359 8.96289 3.4375 9.15039 3.77344C9.3418 4.10938 9.4375 4.52344 9.4375 5.01562V6.99609H10.3633V5.14453C10.3633 4.41016 10.2207 3.80078 9.93555 3.31641C9.6543 2.83203 9.28711 2.4707 8.83398 2.23242C8.38086 1.99023 7.89844 1.86914 7.38672 1.86914C6.87891 1.86914 6.39844 1.99023 5.94531 2.23242C5.49219 2.4707 5.12305 2.83203 4.83789 3.31641C4.55664 3.80078 4.41602 4.41016 4.41602 5.14453V6.99609Z" fill="#E61EA3"/>
</svg>
