<svg width="36" height="37" viewBox="0 0 36 37" fill="none" xmlns="http://www.w3.org/2000/svg">
<path opacity="0.7" d="M18.457 36.5351C18 36.5351 17.6133 36.3769 17.2969 36.0605C16.9922 35.7559 16.8398 35.3809 16.8398 34.9355V24.916L7.73438 33.3359C7.38281 33.6641 6.97266 33.8398 6.50391 33.8633C6.04688 33.8867 5.61914 33.6934 5.2207 33.2832L2.30273 35.5508C2.13867 35.668 1.96289 35.7207 1.77539 35.709C1.58789 35.6973 1.41797 35.6211 1.26562 35.4805L0.755859 34.9531C0.591797 34.8008 0.509766 34.625 0.509766 34.4258C0.509766 34.2383 0.5625 34.0742 0.667969 33.9336L2.93555 31.0156C2.51367 30.5937 2.31445 30.1543 2.33789 29.6973C2.36133 29.2402 2.53711 28.8301 2.86523 28.4668L19.2129 10.8711C19.0723 9.85155 19.2012 8.83788 19.5996 7.83007C19.998 6.82226 20.6602 5.85546 21.5859 4.92968L31.2715 14.6504C30.3457 15.5644 29.3672 16.2324 28.3359 16.6543C27.3164 17.0644 26.3086 17.1992 25.3125 17.0586L20.0742 21.9101L20.0566 34.9355C20.0566 35.3809 19.8984 35.7559 19.582 36.0605C19.2773 36.3769 18.9023 36.5351 18.457 36.5351ZM4.71094 29.9082L6.32812 31.5254L22.6406 16.0566C22.4062 15.916 22.1719 15.7519 21.9375 15.5644C21.7148 15.3652 21.498 15.1543 21.2871 14.9316C21.0645 14.709 20.8594 14.4805 20.6719 14.2461C20.4961 14 20.3379 13.748 20.1973 13.4902L4.71094 29.9082ZM23.3438 3.13671C24.375 2.10546 25.4707 1.40819 26.6309 1.04491C27.8027 0.681632 28.9629 0.658195 30.1113 0.974601C31.2598 1.27929 32.3262 1.91796 33.3105 2.89062C34.2949 3.88671 34.9395 4.95898 35.2441 6.10741C35.5605 7.25585 35.5312 8.41601 35.1562 9.58788C34.793 10.748 34.0957 11.8379 33.0645 12.8574L23.3438 3.13671Z" fill="url(#paint0_linear_685_113013)"/>
<defs>
<linearGradient id="paint0_linear_685_113013" x1="0.913052" y1="18.6995" x2="35.4613" y2="18.6995" gradientUnits="userSpaceOnUse">
<stop stop-color="#BF3948"/>
<stop offset="1" stop-color="#962BC7"/>
</linearGradient>
</defs>
</svg>
