<svg width="38" height="33" viewBox="0 0 38 33" fill="none" xmlns="http://www.w3.org/2000/svg">
<path opacity="0.56" d="M0.269531 28.2393C0.269531 26.9746 0.668294 25.9321 1.46582 25.1118C2.26335 24.2801 3.48812 23.6934 5.14014 23.3516L7.7207 22.8047C8.03971 22.7363 8.27327 22.5882 8.42139 22.3604C8.5695 22.1325 8.64355 21.8306 8.64355 21.4546V9.57715C8.64355 9.24675 8.76318 8.96761 9.00244 8.73975C9.2417 8.50049 9.52653 8.38086 9.85693 8.38086C10.1873 8.38086 10.4665 8.50049 10.6943 8.73975C10.9222 8.96761 11.0361 9.24675 11.0361 9.57715V25.9834C11.0361 27.1683 10.8368 28.1766 10.438 29.0083C10.0506 29.8514 9.54362 30.535 8.91699 31.0591C8.30176 31.5832 7.64095 31.9648 6.93457 32.2041C6.23958 32.4434 5.59017 32.563 4.98633 32.563C4.06348 32.563 3.24886 32.375 2.54248 31.999C1.8361 31.6344 1.27783 31.1274 0.867676 30.478C0.468913 29.8286 0.269531 29.0824 0.269531 28.2393ZM14.9668 20.002C14.9668 18.7259 15.3656 17.6777 16.1631 16.8574C16.9606 16.0257 18.1854 15.439 19.8374 15.0972L22.418 14.5674C22.737 14.499 22.9705 14.3509 23.1187 14.123C23.2668 13.8838 23.3408 13.5762 23.3408 13.2002V1.32275C23.3408 0.99235 23.4604 0.713216 23.6997 0.485352C23.939 0.257487 24.2238 0.143555 24.5542 0.143555C24.8846 0.143555 25.1637 0.257487 25.3916 0.485352C25.6195 0.713216 25.7334 0.99235 25.7334 1.32275V17.729C25.7334 18.9253 25.534 19.945 25.1353 20.7881C24.7479 21.6198 24.2409 22.2977 23.6143 22.8218C22.999 23.3345 22.3382 23.7161 21.6318 23.9668C20.9368 24.2061 20.2874 24.3257 19.6836 24.3257C18.7607 24.3257 17.9461 24.1434 17.2397 23.7788C16.5334 23.4028 15.9751 22.8901 15.5649 22.2407C15.1662 21.5799 14.9668 20.8337 14.9668 20.002ZM26.9468 28.2563C26.9468 26.9803 27.3398 25.9321 28.126 25.1118C28.9235 24.2801 30.1483 23.6934 31.8003 23.3516L34.3809 22.8218C34.6999 22.742 34.9334 22.5882 35.0815 22.3604C35.241 22.1325 35.3208 21.8306 35.3208 21.4546V9.57715C35.3208 9.24675 35.4404 8.96761 35.6797 8.73975C35.9189 8.51188 36.1981 8.39795 36.5171 8.39795C36.8475 8.39795 37.1266 8.51188 37.3545 8.73975C37.5938 8.96761 37.7134 9.24675 37.7134 9.57715V25.9834C37.7134 27.1797 37.514 28.1937 37.1152 29.0254C36.7279 29.8571 36.2209 30.535 35.5942 31.0591C34.9676 31.5832 34.3068 31.9648 33.6118 32.2041C32.9168 32.4548 32.2617 32.5801 31.6465 32.5801C30.735 32.5801 29.9261 32.3921 29.2197 32.0161C28.5133 31.6515 27.9551 31.1388 27.5449 30.478C27.1462 29.8286 26.9468 29.0881 26.9468 28.2563Z" fill="url(#paint0_linear_719_17500)"/>
<defs>
<linearGradient id="paint0_linear_719_17500" x1="22.8516" y1="32.5801" x2="22.5257" y2="0.141013" gradientUnits="userSpaceOnUse">
<stop stop-color="#BF3948"/>
<stop offset="1" stop-color="#962BC7"/>
</linearGradient>
</defs>
</svg>
