<svg width="659" height="185" viewBox="0 0 659 185" fill="none" xmlns="http://www.w3.org/2000/svg">
<path d="M629.5 134C629.5 161.89 606.89 184.5 579 184.5L76 184.5C48.1096 184.5 25.5 161.891 25.5 134L25.5 65.0001C25.5 37.1098 48.1096 14.5001 76 14.5001L579 14.5001C606.89 14.5001 629.5 37.1097 629.5 65L629.5 134Z" fill="#272222" stroke="#BF3948"/>
<path d="M621.5 124C621.5 151.89 598.89 174.5 571 174.5L51 174.5C23.1096 174.5 0.499998 151.891 0.499997 124L0.499992 51.0001C0.49999 23.1097 23.1096 0.500113 51 0.50011L571 0.500051C598.89 0.500048 621.5 23.1096 621.5 51L621.5 124Z" fill="#272222" stroke="#C154F3"/>
<path d="M653.922 100.831C653.922 111.048 645.639 119.331 635.422 119.331L580.418 119.331C570.201 119.331 561.918 111.048 561.918 100.831L561.918 62.7374C561.918 52.5201 570.201 44.2374 580.418 44.2374L635.422 44.2374C645.639 44.2374 653.922 52.5202 653.922 62.7374L653.922 100.831Z" fill="#6D2222" stroke="#BF3948"/>
<path d="M648.104 96.9878C648.104 107.205 639.822 115.488 629.604 115.488L575.37 115.488C565.152 115.488 556.87 107.205 556.87 96.9878L556.87 58.8943C556.87 48.677 565.152 40.3943 575.37 40.3943L629.604 40.3943C639.822 40.3943 648.104 48.677 648.104 58.8943L648.104 96.9878Z" fill="#9A3641" stroke="#E63E50"/>
<path d="M642.287 93.1445C642.287 103.362 634.004 111.645 623.787 111.645L568.784 111.645C558.566 111.645 550.284 103.362 550.284 93.1445L550.284 55.8196C550.284 45.6024 558.566 37.3196 568.784 37.3196L623.787 37.3196C634.004 37.3196 642.287 45.6024 642.287 55.8196L642.287 93.1445Z" fill="#BC2B8B" stroke="#F251BC"/>
<path fill-rule="evenodd" clip-rule="evenodd" d="M546.269 47.4795L529.537 31.3451L530.654 30.2682L547.393 46.4098L538.334 25.3187L539.793 24.7359L548.851 45.823L548.851 23.0002L550.43 23.0002L550.43 45.823L559.488 24.7359L560.947 25.3187L551.891 46.4025L568.622 30.2682L569.739 31.3451L553.007 47.4793L574.872 38.7467L575.476 40.1538L553.608 48.8877L577.276 48.8877L577.276 50.4106L553.608 50.4106L575.476 59.1445L574.872 60.5516L553 51.816L569.739 67.9575L568.622 69.0344L551.891 52.9L560.947 73.984L559.488 74.5667L550.43 53.4796L550.43 76.3023L548.851 76.3023L548.851 53.4796L539.793 74.5667L538.334 73.984L547.393 52.8928L530.654 69.0344L529.537 67.9575L546.277 51.816L524.404 60.5516L523.8 59.1445L545.668 50.4106L522 50.4106L522 48.8877L545.668 48.8877L523.8 40.1538L524.404 38.7467L546.269 47.4795Z" fill="#FF9FA9"/>
<path d="M607.55 110.988C606.997 110.988 606.547 110.54 606.575 109.988C606.689 107.774 607.181 105.593 608.031 103.54C609.009 101.178 610.443 99.0327 612.25 97.2253C614.058 95.418 616.203 93.9844 618.564 93.0063C620.926 92.0282 623.457 91.5248 626.013 91.5248C628.569 91.5248 631.099 92.0282 633.461 93.0063C635.822 93.9844 637.968 95.418 639.775 97.2253C641.582 99.0327 643.016 101.178 643.994 103.54C644.886 105.693 644.411 120.242 644.32 124.722C644.309 125.274 643.859 125.717 643.306 125.717L641.207 125.717C640.655 125.717 640.212 125.273 640.228 124.721C640.344 120.549 640.903 106.789 640.207 105.108C639.435 103.244 638.303 101.55 636.877 100.124C635.45 98.697 633.756 97.5653 631.892 96.7932C630.028 96.0211 628.03 95.6237 626.013 95.6237C623.995 95.6237 621.997 96.0211 620.133 96.7932C618.269 97.5653 616.575 98.697 615.149 100.124C613.722 101.55 612.59 103.244 611.818 105.108C611.174 106.664 610.79 108.313 610.681 109.988C610.645 110.54 610.201 110.988 609.649 110.988L607.55 110.988Z" fill="#C154F3"/>
<path d="M600.185 110.988C599.633 110.988 599.183 110.54 599.204 109.988C599.323 106.807 600.007 103.668 601.227 100.722C602.576 97.467 604.552 94.5096 607.043 92.0184C609.534 89.5273 612.491 87.5512 615.746 86.203C619.001 84.8548 622.49 84.1609 626.013 84.1609C629.536 84.1609 633.024 84.8548 636.279 86.203C639.534 87.5512 642.491 89.5273 644.983 92.0184C647.474 94.5096 649.45 97.467 650.798 100.722C652.041 103.723 651.833 115.423 651.793 119.989C651.789 120.541 651.34 120.983 650.788 120.983L648.653 120.983C648.1 120.983 647.654 120.539 647.662 119.987C647.722 115.818 648.018 104.817 646.977 102.304C645.837 99.5513 644.166 97.0497 642.058 94.9425C639.951 92.8354 637.45 91.1639 634.697 90.0235C631.943 88.8831 628.993 88.2962 626.013 88.2962C623.033 88.2962 620.082 88.8831 617.329 90.0235C614.576 91.1639 612.074 92.8354 609.967 94.9425C607.86 97.0497 606.188 99.5513 605.048 102.304C604.035 104.749 603.459 107.35 603.343 109.989C603.318 110.54 602.873 110.988 602.321 110.988L600.185 110.988Z" fill="#C154F3"/>
<path d="M592.821 110.988C592.268 110.988 591.819 110.54 591.835 109.988C591.957 105.839 592.833 101.743 594.423 97.9033C596.142 93.755 598.66 89.9857 601.835 86.8107C605.01 83.6357 608.78 81.1171 612.928 79.3988C617.076 77.6805 621.522 76.7961 626.013 76.7961C630.503 76.7961 634.949 77.6805 639.097 79.3988C643.246 81.1171 647.015 83.6357 650.19 86.8107C653.365 89.9857 655.883 93.755 657.602 97.9033C659.22 101.809 659.005 124.633 658.975 131.035C658.972 131.588 658.524 132.029 657.971 132.029L655.799 132.029C655.246 132.029 654.799 131.583 654.803 131.031C654.849 124.995 655.159 102.91 653.746 99.5002C652.238 95.8582 650.027 92.5489 647.239 89.7614C644.452 86.9739 641.142 84.7627 637.5 83.2541C633.858 81.7455 629.955 80.969 626.013 80.969C622.07 80.969 618.167 81.7455 614.525 83.2541C610.883 84.7627 607.574 86.9739 604.786 89.7614C601.998 92.5489 599.787 95.8581 598.279 99.5002C596.898 102.834 596.13 106.387 596.01 109.988C595.992 110.54 595.546 110.988 594.994 110.988L592.821 110.988Z" fill="#C154F3"/>
<path fill-rule="evenodd" clip-rule="evenodd" d="M61.6821 54.2888L75.0008 41.5755L74.1119 40.727L60.7873 53.4459L67.9984 36.8269L66.8369 36.3678L59.6272 52.9836V35.0001H58.37V52.9836L51.1603 36.3678L49.9988 36.8269L57.2076 53.4402L43.8889 40.727L43 41.5755L56.3185 54.2887L38.9142 47.4078L38.4331 48.5164L55.8402 55.3984H37.0004V56.5984H55.8402L38.4331 63.4804L38.9142 64.5891L56.3245 57.7058L43 70.4247L43.8889 71.2732L57.2076 58.56L49.9988 75.1734L51.1603 75.6325L58.37 59.0167V77.0001H59.6272V59.0167L66.8369 75.6325L67.9984 75.1734L60.7873 58.5543L74.1119 71.2732L75.0008 70.4247L61.6762 57.7058L79.0866 64.5891L79.5676 63.4804L62.1606 56.5984H81.0004V55.3984H62.1606L79.5676 48.5164L79.0866 47.4078L61.6821 54.2888Z" fill="#962BC7"/>
</svg>
