<svg width="10" height="10" viewBox="0 0 10 10" fill="none" xmlns="http://www.w3.org/2000/svg">
<path d="M9.30564 7.12701L9.29994 1.16462C9.29994 0.994722 9.25051 0.856429 9.15167 0.749746C9.05283 0.643063 8.91788 0.589722 8.74681 0.589722H3.01027C2.8506 0.589722 2.72135 0.645039 2.62251 0.755673C2.52367 0.862356 2.47425 0.986819 2.47425 1.12906C2.47425 1.27131 2.52557 1.39577 2.62821 1.50245C2.73466 1.60519 2.85441 1.65655 2.98746 1.65655H4.97187L7.7546 1.56172L6.69397 2.52779L1.04297 8.41314C0.936522 8.52377 0.883301 8.64823 0.883301 8.78653C0.883301 8.88136 0.908011 8.97223 0.957431 9.05916C1.00685 9.14214 1.07148 9.20931 1.15131 9.26067C1.23114 9.31204 1.31858 9.33772 1.41362 9.33772C1.55047 9.33772 1.67022 9.28438 1.77286 9.1777L7.43527 3.29828L8.37616 2.18997L8.27352 4.95779V7.15072C8.27352 7.28901 8.32294 7.41348 8.42178 7.52411C8.52442 7.63475 8.64607 7.69006 8.78673 7.69006C8.92358 7.69006 9.04333 7.63672 9.14597 7.53004C9.25242 7.42336 9.30564 7.28901 9.30564 7.12701Z" fill="#F251BC"/>
</svg>
