<svg width="38" height="37" viewBox="0 0 38 37" fill="none" xmlns="http://www.w3.org/2000/svg">
<path d="M21.7539 4.59108C20.9259 2.46984 17.9242 2.46983 17.0962 4.59107L14.7282 10.6575C14.515 11.2037 14.0031 11.5756 13.4178 11.6095L6.91654 11.987C4.64324 12.119 3.71567 14.9738 5.47722 16.4168L10.515 20.5435C10.9685 20.9151 11.164 21.5168 11.0155 22.084L9.3655 28.3837C8.78855 30.5865 11.2169 32.3508 13.1337 31.1214L18.6152 27.6055C19.1087 27.2889 19.7414 27.2889 20.2349 27.6055L25.7164 31.1214C27.6331 32.3508 30.0615 30.5865 29.4846 28.3837L27.8346 22.084C27.6861 21.5168 27.8816 20.9151 28.3351 20.5435L33.3729 16.4168C35.1344 14.9738 34.2068 12.119 31.9336 11.987L25.4323 11.6095C24.847 11.5756 24.3351 11.2037 24.1219 10.6575L21.7539 4.59108Z" stroke="#FFA3DA"/>
</svg>
