<svg width="38" height="37" viewBox="0 0 38 37" fill="none" xmlns="http://www.w3.org/2000/svg">
<path d="M21.2836 4.45524C20.4453 2.36016 17.4796 2.36016 16.6414 4.45524L14.1561 10.6667C13.9397 11.2075 13.4298 11.5742 12.8483 11.6071L6.11886 11.9883C3.82889 12.1181 2.90774 15.0053 4.69949 16.4373L9.83718 20.5432C10.3029 20.9154 10.504 21.5281 10.3494 22.1039L8.65235 28.4254C8.06353 30.6187 10.4679 32.3975 12.393 31.1928L18.1668 27.5798C18.6535 27.2752 19.2715 27.2752 19.7582 27.5798L25.532 31.1928C27.4571 32.3975 29.8615 30.6187 29.2726 28.4254L27.5756 22.1039C27.421 21.5281 27.6221 20.9154 28.0878 20.5432L33.2255 16.4373C35.0173 15.0053 34.0961 12.1181 31.8061 11.9883L25.0767 11.6071C24.4951 11.5742 23.9852 11.2075 23.7689 10.6667L21.2836 4.45524Z" fill="url(#paint0_linear_2267_162945)" stroke="#FFA3DA"/>
<defs>
<linearGradient id="paint0_linear_2267_162945" x1="22.8723" y1="37" x2="22.4536" y2="-0.00189728" gradientUnits="userSpaceOnUse">
<stop stop-color="#BF3948"/>
<stop offset="1" stop-color="#962BC7"/>
</linearGradient>
</defs>
</svg>
