<svg width="19" height="15" viewBox="0 0 19 15" fill="none" xmlns="http://www.w3.org/2000/svg">
<path d="M18.4167 1.00931L15.658 14.3021C15.5307 14.9272 14.8039 15.205 14.2946 14.831L10.1247 11.7483L8.00264 13.9334C7.63128 14.3181 6.98405 14.1632 6.82489 13.6503L5.29169 8.75097L1.18017 7.52748C0.639038 7.3672 0.607207 6.60852 1.13242 6.4055L17.2973 0.0583016C17.9127 -0.182123 18.5494 0.357496 18.4167 1.00931ZM15.0373 2.69228L6.17235 8.23272C6.0185 8.32889 5.94423 8.52123 5.99728 8.69754L7.18564 12.5604C7.21217 12.6405 7.32888 12.6298 7.33949 12.5443L7.62598 9.95843C7.63659 9.85692 7.68433 9.7661 7.75861 9.70198L15.2708 3.0075C15.4511 2.84722 15.2442 2.56406 15.0373 2.69228Z" fill="#F251BC"/>
</svg>
