<svg width="19" height="15" viewBox="0 0 19 15" fill="none" xmlns="http://www.w3.org/2000/svg">
<path d="M18.4164 1.00931L15.6577 14.3021C15.5304 14.9272 14.8036 15.205 14.2943 14.831L10.1244 11.7483L8.00234 13.9334C7.63098 14.3181 6.98374 14.1632 6.82459 13.6503L5.29139 8.75097L1.17986 7.52748C0.638733 7.3672 0.606902 6.60852 1.13212 6.4055L17.297 0.0583016C17.9124 -0.182123 18.5491 0.357496 18.4164 1.00931ZM15.037 2.69228L6.17205 8.23272C6.0182 8.32889 5.94392 8.52123 5.99698 8.69754L7.18534 12.5604C7.21186 12.6405 7.32858 12.6298 7.33919 12.5443L7.62567 9.95843C7.63628 9.85692 7.68403 9.7661 7.7583 9.70198L15.2705 3.0075C15.4508 2.84722 15.2439 2.56406 15.037 2.69228Z" fill="#828282"/>
</svg>
