<svg width="14" height="15" viewBox="0 0 14 15" fill="none" xmlns="http://www.w3.org/2000/svg">
<path d="M9.75038 0.570612L9.39139 0H7.21892V5.13923L7.21152 10.1591C7.21522 10.1964 7.21892 10.2374 7.21892 10.2747C7.21892 11.5316 6.20486 12.5572 4.95393 12.5572C3.70301 12.5572 2.68895 11.5353 2.68895 10.2747C2.68895 9.0179 3.70301 7.99229 4.95393 7.99229C5.213 7.99229 5.46467 8.04078 5.69783 8.12282V5.61661C5.45727 5.57558 5.2093 5.55321 4.95393 5.55321C2.37436 5.55694 0.272217 7.67529 0.272217 10.2785C0.272217 12.8817 2.37436 15 4.95763 15C7.54091 15 9.64305 12.8817 9.64305 10.2785V4.30756C10.5794 5.25112 11.7896 6.1723 13.1294 6.46693V3.90477C11.6749 3.25584 10.2278 1.33889 9.75038 0.570612Z" fill="#FF5DC8"/>
</svg>
