<svg width="18" height="15" viewBox="0 0 18 15" fill="none" xmlns="http://www.w3.org/2000/svg">
<path d="M17.371 1.66676C16.7318 1.94947 16.045 2.14054 15.324 2.22647C16.0599 1.78654 16.6249 1.08995 16.8911 0.259954C16.2025 0.66725 15.4398 0.963074 14.628 1.12252C13.9778 0.431694 13.0516 0 12.0266 0C10.0584 0 8.46265 1.59148 8.46265 3.55444C8.46265 3.83303 8.49423 4.10433 8.55497 4.36447C5.59303 4.21624 2.96702 2.80113 1.20928 0.650647C0.90251 1.17563 0.72676 1.78622 0.72676 2.43763C0.72676 3.6708 1.35599 4.75878 2.31225 5.39618C1.72801 5.37774 1.17852 5.21785 0.697977 4.95162C0.697723 4.96645 0.697723 4.98134 0.697723 4.9963C0.697723 6.71851 1.92619 8.15517 3.55654 8.48166C3.25746 8.56291 2.94262 8.60632 2.61756 8.60632C2.38793 8.60632 2.16465 8.58407 1.94709 8.54256C2.40057 9.95476 3.71672 10.9824 5.27622 11.0111C4.05653 11.9644 2.51983 12.5327 0.850153 12.5327C0.562512 12.5327 0.27881 12.5159 0 12.4831C1.57717 13.4916 3.45049 14.08 5.46309 14.08C12.0183 14.08 15.6029 8.66373 15.6029 3.96662C15.6029 3.8125 15.5995 3.6592 15.5926 3.50679C16.2889 3.00564 16.8931 2.37958 17.371 1.66676Z" fill="#F251BC"/>
</svg>
