<svg width="152" height="45" viewBox="0 0 152 45" fill="none" xmlns="http://www.w3.org/2000/svg">
<path opacity="0.42" fill-rule="evenodd" clip-rule="evenodd" d="M151.298 30.8433C151.686 30.8433 152 31.1576 152 31.5453L152 43.2979C152 43.6857 151.686 44 151.298 44C150.91 44 150.596 43.6857 150.596 43.2979L150.596 31.5453C150.596 31.1576 150.91 30.8433 151.298 30.8433ZM147.866 23.9591C148.253 23.9591 148.568 24.2734 148.568 24.6612L148.568 43.2981C148.568 43.6858 148.253 44.0002 147.866 44.0002C147.478 44.0002 147.163 43.6858 147.163 43.2981L147.163 24.6612C147.163 24.2734 147.478 23.9591 147.866 23.9591ZM145.135 20.0715C145.135 19.6837 144.821 19.3694 144.433 19.3694C144.046 19.3694 143.731 19.6837 143.731 20.0715L143.731 43.2979C143.731 43.6857 144.046 44 144.433 44C144.821 44 145.135 43.6857 145.135 43.2979L145.135 20.0715ZM141.157 15.5448C141.545 15.5448 141.859 15.8591 141.859 16.2469L141.859 43.298C141.859 43.6857 141.545 44 141.157 44C140.769 44 140.455 43.6857 140.455 43.298L140.455 16.2469C140.455 15.8591 140.769 15.5448 141.157 15.5448ZM138.427 13.6462C138.427 13.2584 138.112 12.9441 137.725 12.9441C137.337 12.9441 137.023 13.2584 137.023 13.6462L137.022 43.298C137.022 43.6857 137.337 44.0001 137.725 44.0001C138.112 44.0001 138.427 43.6857 138.427 43.298L138.427 13.6462ZM134.292 10.8022C134.68 10.8022 134.994 11.1166 134.994 11.5043L134.994 43.2979C134.994 43.6857 134.68 44 134.292 44C133.905 44 133.59 43.6857 133.59 43.2979L133.59 11.5043C133.59 11.1166 133.905 10.8022 134.292 10.8022ZM131.562 9.05644C131.562 8.6687 131.248 8.35437 130.86 8.35437C130.472 8.35437 130.158 8.6687 130.158 9.05644L130.158 43.2978C130.158 43.6856 130.472 43.9999 130.86 43.9999C131.248 43.9999 131.562 43.6856 131.562 43.2978L131.562 9.05644ZM127.428 6.82458C127.815 6.82458 128.13 7.13891 128.13 7.52665L128.13 43.2979C128.13 43.6856 127.815 44 127.428 44C127.04 44 126.726 43.6856 126.726 43.2979L126.726 7.52665C126.726 7.13891 127.04 6.82458 127.428 6.82458ZM124.853 6.1497C124.853 5.76196 124.539 5.44763 124.151 5.44763C123.764 5.44763 123.449 5.76196 123.449 6.1497L123.449 43.2978C123.449 43.6855 123.764 43.9999 124.151 43.9999C124.539 43.9999 124.853 43.6855 124.853 43.2978L124.853 6.1497ZM120.719 4.68286C121.107 4.68286 121.421 4.99719 121.421 5.38493L121.421 43.298C121.421 43.6857 121.107 44 120.719 44C120.331 44 120.017 43.6857 120.017 43.298L120.017 5.38493C120.017 4.99719 120.331 4.68286 120.719 4.68286ZM117.989 4.46696C117.989 4.07922 117.674 3.76489 117.287 3.76489C116.899 3.76489 116.585 4.07922 116.585 4.46696L116.585 43.2979C116.585 43.6856 116.899 44 117.287 44C117.674 44 117.989 43.6856 117.989 43.2979L117.989 4.46696ZM114.01 3.30591C114.398 3.30591 114.712 3.62023 114.712 4.00798L114.712 43.2979C114.712 43.6856 114.398 43.9999 114.01 43.9999C113.623 43.9999 113.308 43.6856 113.308 43.2979L113.308 4.00797C113.308 3.62023 113.623 3.30591 114.01 3.30591ZM111.28 3.70207C111.28 3.31433 110.966 3 110.578 3C110.19 3 109.876 3.31433 109.876 3.70207L109.876 43.2979C109.876 43.6857 110.19 44 110.578 44C110.966 44 111.28 43.6857 111.28 43.2979L111.28 3.70207ZM107.146 3.30591C107.533 3.30591 107.848 3.62023 107.848 4.00798L107.848 43.2979C107.848 43.6856 107.533 43.9999 107.146 43.9999C106.758 43.9999 106.444 43.6856 106.444 43.2979L106.444 4.00797C106.444 3.62023 106.758 3.30591 107.146 3.30591ZM104.415 4.46696C104.415 4.07922 104.101 3.76489 103.713 3.76489C103.326 3.76489 103.011 4.07922 103.011 4.46696L103.011 43.2979C103.011 43.6856 103.326 44 103.713 44C104.101 44 104.415 43.6856 104.415 43.2979L104.415 4.46696ZM100.281 4.68286C100.669 4.68286 100.983 4.99719 100.983 5.38493L100.983 43.298C100.983 43.6857 100.669 44 100.281 44C99.8933 44 99.579 43.6857 99.579 43.298L99.579 5.38493C99.579 4.99719 99.8933 4.68286 100.281 4.68286ZM97.5508 6.1497C97.5508 5.76196 97.2365 5.44763 96.8487 5.44763C96.461 5.44763 96.1466 5.76196 96.1466 6.1497L96.1466 43.2978C96.1466 43.6855 96.461 43.9999 96.8487 43.9999C97.2365 43.9999 97.5508 43.6855 97.5508 43.2978L97.5508 6.1497ZM93.5725 6.82459C93.9602 6.82459 94.2745 7.13891 94.2745 7.52665L94.2745 43.2979C94.2745 43.6856 93.9602 44 93.5725 44C93.1847 44 92.8704 43.6856 92.8704 43.2979L92.8704 7.52665C92.8704 7.13891 93.1847 6.82459 93.5725 6.82459ZM90.842 9.05644C90.842 8.6687 90.5277 8.35437 90.14 8.35437C89.7522 8.35437 89.4379 8.6687 89.4379 9.05644L89.4379 43.2978C89.4379 43.6856 89.7522 43.9999 90.14 43.9999C90.5277 43.9999 90.842 43.6856 90.842 43.2978L90.842 9.05644ZM86.7077 10.8022C87.0955 10.8022 87.4098 11.1166 87.4098 11.5043L87.4098 43.2979C87.4098 43.6857 87.0955 44 86.7077 44C86.32 44 86.0057 43.6857 86.0057 43.2979L86.0057 11.5043C86.0057 11.1166 86.32 10.8022 86.7077 10.8022ZM83.9773 13.6462C83.9773 13.2584 83.663 12.9441 83.2752 12.9441C82.8875 12.9441 82.5732 13.2584 82.5732 13.6462L82.5732 43.298C82.5732 43.6857 82.8875 44.0001 83.2752 44.0001C83.663 44.0001 83.9773 43.6857 83.9773 43.298L83.9773 13.6462ZM79.9989 15.5448C80.3866 15.5448 80.7009 15.8591 80.7009 16.2469L80.7009 43.298C80.7009 43.6857 80.3866 44 79.9989 44C79.6111 44 79.2968 43.6857 79.2968 43.298L79.2968 16.2469C79.2968 15.8591 79.6111 15.5448 79.9989 15.5448ZM77.2687 20.0715C77.2687 19.6837 76.9544 19.3694 76.5666 19.3694C76.1789 19.3694 75.8645 19.6837 75.8645 20.0715L75.8645 43.2979C75.8645 43.6857 76.1789 44 76.5666 44C76.9544 44 77.2687 43.6857 77.2687 43.2979L77.2687 20.0715ZM73.1344 23.9591C73.5221 23.9591 73.8364 24.2734 73.8364 24.6612L73.8364 43.2981C73.8364 43.6858 73.5221 44.0002 73.1344 44.0002C72.7466 44.0002 72.4323 43.6858 72.4323 43.2981L72.4323 24.6612C72.4323 24.2734 72.7466 23.9591 73.1344 23.9591ZM70.4041 31.5453C70.4041 31.1576 70.0897 30.8433 69.702 30.8433C69.3142 30.8433 68.9999 31.1576 68.9999 31.5453L68.9999 43.2979C68.9999 43.6857 69.3142 44 69.702 44C70.0897 44 70.4041 43.6857 70.4041 43.2979L70.4041 31.5453Z" fill="url(#paint0_linear_685_113279)"/>
<path opacity="0.42" fill-rule="evenodd" clip-rule="evenodd" d="M91.2218 30.5597C91.6516 30.5597 92 30.9081 92 31.3379L92 44.2218C92 44.6516 91.6516 45 91.2218 45C90.792 45 90.4436 44.6516 90.4436 44.2218L90.4436 31.3379C90.4436 30.9081 90.792 30.5597 91.2218 30.5597ZM87.4172 23.0039C87.847 23.0039 88.1954 23.3523 88.1954 23.7821L88.1954 44.222C88.1954 44.6518 87.847 45.0002 87.4172 45.0002C86.9875 45.0002 86.639 44.6518 86.639 44.222L86.639 23.7821C86.639 23.3523 86.9875 23.0039 87.4172 23.0039ZM84.391 18.7446C84.391 18.3148 84.0426 17.9664 83.6128 17.9664C83.183 17.9664 82.8346 18.3148 82.8346 18.7446L82.8346 44.2218C82.8346 44.6516 83.183 45 83.6128 45C84.0426 45 84.391 44.6516 84.391 44.2218L84.391 18.7446ZM79.9811 13.7687C80.4109 13.7687 80.7593 14.1171 80.7593 14.5469L80.7593 44.2218C80.7593 44.6516 80.4109 45 79.9811 45C79.5513 45 79.2029 44.6516 79.2029 44.2218L79.2029 14.5469C79.2029 14.1171 79.5513 13.7687 79.9811 13.7687ZM76.9548 11.6925C76.9548 11.2627 76.6064 10.9143 76.1766 10.9143C75.7469 10.9143 75.3984 11.2627 75.3984 11.6925L75.3984 44.2219C75.3984 44.6517 75.7469 45.0001 76.1766 45.0001C76.6064 45.0001 76.9548 44.6517 76.9548 44.2219L76.9548 11.6925ZM72.3722 8.56347C72.802 8.56347 73.1504 8.91188 73.1504 9.34167L73.1504 44.2219C73.1504 44.6516 72.802 45 72.3722 45C71.9424 45 71.594 44.6516 71.594 44.2219L71.594 9.34167C71.594 8.91188 71.9424 8.56347 72.3722 8.56347ZM69.3459 6.65502C69.3459 6.22524 68.9975 5.87683 68.5678 5.87683C68.138 5.87683 67.7896 6.22524 67.7896 6.65502L67.7896 44.2218C67.7896 44.6516 68.138 45 68.5677 45C68.9975 45 69.3459 44.6516 69.3459 44.2218L69.3459 6.65502ZM64.7632 4.19775C65.193 4.19775 65.5414 4.54616 65.5414 4.97595L65.5414 44.2218C65.5414 44.6516 65.193 45 64.7632 45C64.3334 45 63.985 44.6516 63.985 44.2218L63.985 4.97595C63.985 4.54616 64.3334 4.19775 64.7632 4.19775ZM61.9098 3.4646C61.9098 3.03481 61.5614 2.6864 61.1316 2.6864C60.7018 2.6864 60.3534 3.03481 60.3534 3.46459L60.3534 44.2216C60.3534 44.6514 60.7018 44.9998 61.1316 44.9998C61.5614 44.9998 61.9098 44.6514 61.9098 44.2216L61.9098 3.4646ZM57.327 1.84704C57.7568 1.84704 58.1052 2.19545 58.1052 2.62524L58.1052 44.2218C58.1052 44.6516 57.7568 45 57.327 45C56.8972 45 56.5488 44.6516 56.5488 44.2218L56.5488 2.62524C56.5488 2.19545 56.8972 1.84704 57.327 1.84704ZM54.3007 1.61779C54.3007 1.18801 53.9522 0.839598 53.5225 0.839598C53.0927 0.839598 52.7443 1.18801 52.7443 1.61779L52.7443 44.2218C52.7443 44.6516 53.0927 45 53.5225 45C53.9522 45 54.3007 44.6516 54.3007 44.2218L54.3007 1.61779ZM49.891 0.335813C50.3208 0.335813 50.6692 0.684224 50.6692 1.11401L50.6692 44.2218C50.6692 44.6516 50.3208 45 49.891 45C49.4612 45 49.1128 44.6516 49.1128 44.2218L49.1128 1.11401C49.1128 0.684221 49.4612 0.335813 49.891 0.335813ZM46.8647 0.778194C46.8647 0.348408 46.5163 -1.98815e-06 46.0866 -2.00694e-06C45.6568 -2.02573e-06 45.3084 0.348407 45.3084 0.778193L45.3084 44.2218C45.3084 44.6516 45.6568 45 46.0865 45C46.5163 45 46.8647 44.6516 46.8647 44.2218L46.8647 0.778194ZM42.2819 0.335813C42.7116 0.335813 43.0601 0.684224 43.0601 1.11401L43.0601 44.2218C43.0601 44.6516 42.7116 45 42.2819 45C41.8521 45 41.5037 44.6516 41.5037 44.2218L41.5037 1.11401C41.5037 0.684221 41.8521 0.335813 42.2819 0.335813ZM39.2556 1.61779C39.2556 1.18801 38.9072 0.839598 38.4774 0.839598C38.0476 0.839598 37.6992 1.18801 37.6992 1.61779L37.6992 44.2218C37.6992 44.6516 38.0476 45 38.4774 45C38.9072 45 39.2556 44.6516 39.2556 44.2218L39.2556 1.61779ZM34.673 1.84704C35.1028 1.84704 35.4512 2.19545 35.4512 2.62524L35.4512 44.2218C35.4512 44.6516 35.1028 45 34.673 45C34.2432 45 33.8948 44.6516 33.8948 44.2218L33.8948 2.62524C33.8948 2.19545 34.2432 1.84704 34.673 1.84704ZM31.6466 3.4646C31.6466 3.03481 31.2982 2.6864 30.8684 2.6864C30.4386 2.6864 30.0902 3.03481 30.0902 3.46459L30.0902 44.2216C30.0902 44.6514 30.4386 44.9998 30.8684 44.9998C31.2982 44.9998 31.6466 44.6514 31.6466 44.2216L31.6466 3.4646ZM27.2369 4.19775C27.6667 4.19775 28.0151 4.54616 28.0151 4.97595L28.0151 44.2218C28.0151 44.6516 27.6667 45 27.2369 45C26.8072 45 26.4587 44.6516 26.4587 44.2218L26.4587 4.97595C26.4587 4.54616 26.8072 4.19775 27.2369 4.19775ZM24.2104 6.65502C24.2104 6.22524 23.862 5.87683 23.4323 5.87683C23.0025 5.87683 22.6541 6.22524 22.6541 6.65502L22.6541 44.2218C22.6541 44.6516 23.0025 45 23.4322 45C23.862 45 24.2104 44.6516 24.2104 44.2218L24.2104 6.65502ZM19.6278 8.56347C20.0576 8.56347 20.406 8.91188 20.406 9.34167L20.406 44.2219C20.406 44.6516 20.0576 45.0001 19.6278 45.0001C19.198 45.0001 18.8496 44.6516 18.8496 44.2219L18.8496 9.34167C18.8496 8.91188 19.198 8.56347 19.6278 8.56347ZM16.6014 11.6925C16.6014 11.2627 16.253 10.9143 15.8232 10.9143C15.3935 10.9143 15.0451 11.2627 15.0451 11.6925L15.045 44.2219C15.045 44.6517 15.3935 45.0001 15.8232 45.0001C16.253 45.0001 16.6014 44.6517 16.6014 44.2219L16.6014 11.6925ZM12.1915 13.7687C12.6213 13.7687 12.9697 14.1171 12.9697 14.5469L12.9697 44.2218C12.9697 44.6516 12.6213 45 12.1915 45C11.7617 45 11.4133 44.6516 11.4133 44.2218L11.4133 14.5469C11.4133 14.1171 11.7617 13.7687 12.1915 13.7687ZM9.16528 18.7446C9.16528 18.3148 8.81687 17.9664 8.38708 17.9664C7.95731 17.9664 7.60889 18.3148 7.60889 18.7446L7.60889 44.2218C7.60889 44.6516 7.9573 45 8.38708 45C8.81687 45 9.16528 44.6516 9.16528 44.2218L9.16528 18.7446ZM4.58276 23.0039C5.01255 23.0039 5.36096 23.3523 5.36096 23.7821L5.36096 44.222C5.36096 44.6518 5.01255 45.0002 4.58276 45.0002C4.15298 45.0002 3.80457 44.6518 3.80457 44.222L3.80457 23.7821C3.80457 23.3523 4.15298 23.0039 4.58276 23.0039ZM1.55627 31.3379C1.55627 30.9081 1.20786 30.5597 0.778075 30.5597C0.348296 30.5597 -0.000115792 30.9081 -0.000115811 31.3379L-0.000116374 44.2218C-0.000116393 44.6516 0.348295 45 0.778074 45C1.20786 45 1.55627 44.6516 1.55627 44.2218L1.55627 31.3379Z" fill="url(#paint1_linear_685_113279)"/>
<defs>
<linearGradient id="paint0_linear_685_113279" x1="110.372" y1="3.47308" x2="110.372" y2="44.0002" gradientUnits="userSpaceOnUse">
<stop stop-color="#BF3948"/>
<stop offset="1" stop-color="#962BC7"/>
</linearGradient>
<linearGradient id="paint1_linear_685_113279" x1="45.8584" y1="0.51923" x2="45.8584" y2="45.0002" gradientUnits="userSpaceOnUse">
<stop stop-color="#BF3948"/>
<stop offset="1" stop-color="#962BC7"/>
</linearGradient>
</defs>
</svg>
