<svg width="203" height="164" viewBox="0 0 203 164" fill="none" xmlns="http://www.w3.org/2000/svg">
<path fill-rule="evenodd" clip-rule="evenodd" d="M100.541 104.124C102.533 104.124 104.162 105.741 104.008 107.727C103.629 112.638 102.476 117.466 100.586 122.03C98.2342 127.707 94.7877 132.865 90.4428 137.21C86.0979 141.555 80.9398 145.001 75.263 147.353C69.5862 149.704 63.5018 150.914 57.3572 150.914C51.2127 150.914 45.1283 149.704 39.4514 147.353C33.7746 145.001 28.6165 141.555 24.2717 137.21C19.9268 132.865 16.4803 127.707 14.1288 122.03C11.9721 116.823 11.8842 23.6775 11.8844 3.54794C11.8844 1.55627 13.4997 2.81572e-05 15.4914 2.7809e-05C17.4831 2.74607e-05 19.0956 1.56988 19.0927 3.56155C19.0638 23.3556 18.9758 114.884 20.7923 119.27C22.7813 124.072 25.6965 128.435 29.3717 132.11C33.0468 135.785 37.4098 138.7 42.2115 140.689C47.0133 142.678 52.1598 143.702 57.3572 143.702C62.5546 143.702 67.7011 142.678 72.5029 140.689C77.3047 138.7 81.6677 135.785 85.3428 132.11C89.0179 128.435 91.9332 124.072 93.9221 119.27C95.4502 115.581 96.4085 111.688 96.7706 107.726C96.9518 105.742 98.5494 104.124 100.541 104.124ZM88.0181 104.124C90.011 104.124 91.6462 105.744 91.4368 107.726C91.0918 110.99 90.2789 114.194 89.018 117.238C87.2959 121.396 84.7717 125.174 81.5895 128.356C78.4074 131.538 74.6296 134.062 70.4719 135.785C66.3142 137.507 61.8581 138.393 57.3578 138.393C52.8576 138.393 48.4014 137.507 44.2437 135.785C40.0861 134.062 36.3083 131.538 33.1261 128.356C29.944 125.174 27.4198 121.396 25.6976 117.238C24.1343 113.464 24.4134 28.5344 24.4781 9.52877C24.4849 7.53585 26.1047 5.93114 28.0976 5.93114C30.0905 5.93114 31.6996 7.52883 31.6891 9.52173L31.6863 10.0505C31.582 29.7059 31.1482 111.538 32.3653 114.477C33.7248 117.759 35.7174 120.741 38.2294 123.253C40.7413 125.765 43.7235 127.757 47.0056 129.117C50.2876 130.476 53.8053 131.176 57.3578 131.176C60.9103 131.176 64.428 130.476 67.7101 129.117C70.9921 127.757 73.9743 125.765 76.4863 123.253C78.9983 120.741 80.9909 117.759 82.3504 114.477C83.2484 112.309 83.8585 110.038 84.1692 107.722C84.4343 105.747 86.0251 104.124 88.0181 104.124ZM116.558 107.741C116.68 105.746 115.048 104.124 113.05 104.124C111.051 104.124 109.443 105.747 109.305 107.741C108.915 113.341 107.621 118.85 105.467 124.052C102.85 130.369 99.0139 136.11 94.1785 140.945C89.3431 145.781 83.6027 149.616 77.2849 152.233C70.9672 154.85 64.1959 156.197 57.3576 156.197C50.5193 156.197 43.7479 154.85 37.4302 152.233C31.1124 149.616 25.372 145.781 20.5366 140.945C15.7012 136.11 11.8655 130.37 9.24862 124.052C6.87269 118.316 7.17332 42.6721 7.24884 23.6717L7.2501 23.3545C7.25803 21.3557 5.64143 19.7705 3.64255 19.7705C1.64367 19.7705 0.0208849 21.3437 0.0163372 23.3425C-0.0266198 42.2236 -0.172846 120.222 2.56103 126.822C5.5417 134.018 9.91055 140.556 15.4181 146.064C20.9257 151.571 27.4641 155.94 34.6601 158.921C41.8561 161.902 49.5687 163.436 57.3576 163.436C65.1464 163.436 72.859 161.902 80.055 158.921C87.251 155.94 93.7894 151.571 99.297 146.064C104.805 140.556 109.173 134.018 112.154 126.822C114.672 120.742 116.158 114.293 116.558 107.741Z" fill="#BC2B8B"/>
<path fill-rule="evenodd" clip-rule="evenodd" d="M190.479 108.078C190.479 101.934 189.269 95.8495 186.917 90.1726C184.566 84.4958 181.119 79.3377 176.774 74.9929C172.429 70.648 167.271 67.2015 161.595 64.85C155.918 62.4986 149.833 61.2884 143.689 61.2884C137.544 61.2884 131.46 62.4986 125.783 64.8501C120.106 67.2015 114.948 70.648 110.603 74.9929C106.258 79.3377 102.812 84.4958 100.46 90.1727C98.109 95.8495 96.8987 101.934 96.8987 108.078L104.111 108.078C104.111 102.881 105.135 97.7345 107.124 92.9327C109.113 88.131 112.028 83.768 115.703 80.0929C119.378 76.4177 123.741 73.5025 128.543 71.5135C133.345 69.5246 138.491 68.5009 143.689 68.5009C148.886 68.5009 154.033 69.5246 158.834 71.5135C163.636 73.5025 167.999 76.4177 171.674 80.0928C175.349 83.768 178.265 88.131 180.254 92.9327C182.243 97.7345 183.266 102.881 183.266 108.078L190.479 108.078ZM177.958 108.078C177.958 103.578 177.072 99.122 175.349 94.9643C173.627 90.8066 171.103 87.0289 167.921 83.8467C164.739 80.6646 160.961 78.1404 156.803 76.4182C152.646 74.696 148.19 73.8096 143.689 73.8096C139.189 73.8096 134.733 74.696 130.575 76.4182C126.418 78.1404 122.64 80.6646 119.458 83.8467C116.275 87.0289 113.751 90.8066 112.029 94.9643C110.307 99.122 109.421 103.578 109.421 108.078L116.638 108.078C116.638 104.526 117.337 101.008 118.697 97.7262C120.056 94.4441 122.049 91.4619 124.561 88.9499C127.073 86.438 130.055 84.4453 133.337 83.0859C136.619 81.7264 140.137 81.0267 143.689 81.0267C147.242 81.0267 150.759 81.7264 154.042 83.0859C157.324 84.4453 160.306 86.438 162.818 88.9499C165.33 91.4619 167.322 94.4441 168.682 97.7262C170.041 101.008 170.741 104.526 170.741 108.078L177.958 108.078ZM198.485 85.3809C201.465 92.5769 203 100.29 203 108.078L195.761 108.078C195.761 101.24 194.414 94.4688 191.797 88.151C189.18 81.8333 185.345 76.0928 180.509 71.2574C175.674 66.422 169.933 62.5864 163.616 59.9695C157.298 57.3526 150.527 56.0057 143.688 56.0057C136.85 56.0057 130.079 57.3526 123.761 59.9695C117.443 62.5864 111.703 66.422 106.867 71.2574C102.032 76.0928 98.1962 81.8333 95.5793 88.151C92.9624 94.4688 91.6155 101.24 91.6155 108.078L84.377 108.078C84.377 100.29 85.9111 92.5769 88.8918 85.381C91.8724 78.185 96.2413 71.6465 101.749 66.139C107.256 60.6314 113.795 56.2626 120.991 53.2819C128.187 50.3012 135.899 48.7671 143.688 48.7671C151.477 48.7671 159.19 50.3012 166.386 53.2819C173.582 56.2625 180.12 60.6314 185.628 66.139C191.135 71.6465 195.504 78.185 198.485 85.3809Z" fill="#973540"/>
</svg>
