<svg width="714" height="239" viewBox="0 0 714 239" fill="none" xmlns="http://www.w3.org/2000/svg">
<path d="M662.5 150C662.5 177.89 639.89 200.5 612 200.5L109 200.5C81.1096 200.5 58.5 177.89 58.5 150L58.5 105C58.5 77.1096 81.1096 54.5 109 54.5L612 54.4999C639.89 54.4999 662.5 77.1096 662.5 105L662.5 150Z" fill="#272222" stroke="#BF3948"/>
<path d="M654.5 141C654.5 168.89 631.89 191.5 604 191.5L84 191.5C56.1096 191.5 33.5 168.89 33.5 141L33.5 93C33.5 65.1096 56.1096 42.5 84 42.5L604 42.4999C631.89 42.4999 654.5 65.1096 654.5 92.9999L654.5 141Z" fill="url(#paint0_linear_2064_149163)" stroke="#C154F3"/>
<path d="M685.246 166.919C695.463 166.919 703.746 158.636 703.746 148.419L703.746 105.165C703.746 94.9475 695.463 86.6648 685.246 86.6648L656.765 86.6648C646.548 86.6648 638.265 94.9475 638.265 105.165L638.265 148.419C638.265 158.636 646.548 166.919 656.765 166.919L685.246 166.919Z" fill="#6D2222" stroke="#BF3948"/>
<path d="M679.889 161.836C690.106 161.836 698.389 153.554 698.389 143.336L698.389 100.754C698.389 90.5365 690.106 82.2538 679.889 82.2538L651.408 82.2538C641.191 82.2538 632.908 90.5365 632.908 100.754L632.908 143.336C632.908 153.554 641.191 161.836 651.408 161.836L679.889 161.836Z" fill="#9A3641" stroke="#E63E50"/>
<path d="M674.531 156.754C684.749 156.754 693.031 148.472 693.031 138.254L693.031 95.0002C693.031 84.783 684.749 76.5002 674.531 76.5002L646.722 76.5002C636.505 76.5002 628.222 84.783 628.222 95.0002L628.222 138.254C628.222 148.472 636.505 156.754 646.722 156.754L674.531 156.754Z" fill="#E45261" stroke="#F251BC"/>
<path fill-rule="evenodd" clip-rule="evenodd" d="M629.684 109.993L618.181 98.7931L618.949 98.0456L630.457 109.25L624.229 94.6098L625.232 94.2053L631.459 108.843L631.459 93.0005L632.544 93.0005L632.544 108.843L638.771 94.2053L639.774 94.6098L633.548 109.245L645.051 98.0456L645.819 98.7931L634.316 109.993L649.347 103.931L649.763 104.908L634.729 110.97L651 110.97L651 112.028L634.729 112.028L649.763 118.09L649.347 119.067L634.311 113.003L645.819 124.208L645.051 124.955L633.548 113.756L639.774 128.391L638.771 128.796L632.544 114.158L632.544 130L631.459 130L631.459 114.158L625.232 128.796L624.229 128.391L630.457 113.751L618.949 124.955L618.181 124.208L629.689 113.003L614.653 119.067L614.237 118.09L629.271 112.028L613 112.028L613 110.97L629.271 110.97L614.237 104.908L614.653 103.931L629.684 109.993Z" fill="#FF9FA9"/>
<path d="M668.869 157.246C668.316 157.246 667.865 156.798 667.898 156.246C668.009 154.355 668.436 152.493 669.163 150.738C670.017 148.675 671.27 146.801 672.849 145.222C674.428 143.643 676.303 142.39 678.366 141.536C680.429 140.681 682.64 140.241 684.873 140.241C687.106 140.241 689.317 140.681 691.38 141.536C693.443 142.39 695.318 143.643 696.897 145.222C698.476 146.801 699.728 148.675 700.583 150.738C701.354 152.6 700.955 165.062 700.87 169.117C700.859 169.669 700.408 170.114 699.856 170.114L698.274 170.114C697.722 170.114 697.28 169.673 697.296 169.121C697.405 165.337 697.876 153.561 697.274 152.109C696.6 150.48 695.611 149.001 694.364 147.754C693.118 146.508 691.638 145.519 690.01 144.844C688.381 144.17 686.636 143.823 684.873 143.823C683.11 143.823 681.365 144.17 679.736 144.844C678.107 145.519 676.628 146.508 675.381 147.754C674.135 149.001 673.146 150.48 672.471 152.109C671.925 153.429 671.593 154.826 671.487 156.247C671.446 156.797 671.002 157.246 670.45 157.246L668.869 157.246Z" fill="#C154F3"/>
<path d="M662.435 157.246C661.882 157.246 661.432 156.798 661.456 156.246C661.573 153.51 662.169 150.812 663.219 148.277C664.397 145.433 666.123 142.849 668.299 140.673C670.476 138.496 673.06 136.77 675.903 135.592C678.747 134.414 681.795 133.808 684.873 133.808C687.951 133.808 690.999 134.414 693.842 135.592C696.686 136.77 699.27 138.496 701.446 140.673C703.623 142.849 705.349 145.433 706.527 148.277C707.602 150.871 707.435 160.906 707.398 164.981C707.393 165.534 706.944 165.978 706.392 165.978L704.779 165.978C704.227 165.978 703.781 165.533 703.789 164.98C703.845 161.247 704.088 151.829 703.189 149.659C702.193 147.254 700.733 145.068 698.892 143.227C697.051 141.386 694.865 139.926 692.46 138.93C690.054 137.934 687.476 137.421 684.873 137.421C682.269 137.421 679.691 137.934 677.286 138.93C674.881 139.926 672.695 141.386 670.854 143.227C669.013 145.068 667.553 147.254 666.557 149.659C665.688 151.756 665.187 153.985 665.073 156.247C665.045 156.798 664.6 157.246 664.047 157.246L662.435 157.246Z" fill="#C154F3"/>
<path d="M656 157.246C655.448 157.246 654.999 156.798 655.017 156.246C655.137 152.664 655.901 149.13 657.274 145.814C658.776 142.19 660.976 138.897 663.75 136.123C666.524 133.349 669.817 131.149 673.441 129.647C677.065 128.146 680.95 127.374 684.873 127.374C688.796 127.374 692.68 128.146 696.304 129.647C699.929 131.149 703.222 133.349 705.996 136.123C708.77 138.897 710.97 142.19 712.471 145.814C713.874 149.201 713.7 168.87 713.671 174.633C713.669 175.185 713.22 175.629 712.668 175.629L711.022 175.629C710.47 175.629 710.023 175.19 710.027 174.638C710.07 169.199 710.328 150.167 709.103 147.209C707.785 144.027 705.853 141.136 703.418 138.701C700.982 136.266 698.091 134.334 694.909 133.016C691.727 131.698 688.317 131.019 684.873 131.019C681.429 131.019 678.018 131.698 674.836 133.016C671.654 134.334 668.763 136.266 666.328 138.701C663.892 141.136 661.961 144.027 660.643 147.209C659.452 150.083 658.784 153.143 658.665 156.246C658.644 156.798 658.198 157.246 657.646 157.246L656 157.246Z" fill="#C154F3"/>
<g clip-path="url(#clip0_2064_149163)">
<mask id="mask0_2064_149163" style="mask-type:luminance" maskUnits="userSpaceOnUse" x="0" y="167" width="35" height="35">
<path d="M35 167H0V202H35V167Z" fill="white"/>
</mask>
<g mask="url(#mask0_2064_149163)">
<path d="M17.5 202C16.9933 185.421 16.5791 185.009 0 184.5C16.5791 183.993 16.9908 183.579 17.5 167C18.0066 183.579 18.4209 183.991 35 184.5C18.4209 185.009 18.0093 185.416 17.5 202Z" fill="#F251BC"/>
</g>
</g>
<g clip-path="url(#clip1_2064_149163)">
<mask id="mask1_2064_149163" style="mask-type:luminance" maskUnits="userSpaceOnUse" x="18" y="195" width="44" height="44">
<path d="M62 195H18V239H62V195Z" fill="white"/>
</mask>
<g mask="url(#mask1_2064_149163)">
<path d="M40 239C39.3631 218.158 38.8424 217.64 18 217C38.8424 216.363 39.3599 215.842 40 195C40.6369 215.842 41.1576 216.36 62 217C41.1576 217.64 40.6402 218.151 40 239Z" fill="#C154F3"/>
</g>
</g>
<g clip-path="url(#clip2_2064_149163)">
<mask id="mask2_2064_149163" style="mask-type:luminance" maskUnits="userSpaceOnUse" x="565" y="17" width="54" height="54">
<path d="M619 17H565V71H619V17Z" fill="white"/>
</mask>
<g mask="url(#mask2_2064_149163)">
<path d="M592 71C591.218 45.4207 590.579 44.7857 565 44C590.579 43.2183 591.214 42.5793 592 17C592.782 42.5793 593.421 43.2144 619 44C593.421 44.7857 592.786 45.4129 592 71Z" fill="#F251BC"/>
</g>
</g>
<g clip-path="url(#clip3_2064_149163)">
<mask id="mask3_2064_149163" style="mask-type:luminance" maskUnits="userSpaceOnUse" x="603" y="0" width="35" height="35">
<path d="M638 0H603V35H638V0Z" fill="white"/>
</mask>
<g mask="url(#mask3_2064_149163)">
<path d="M620.5 35C619.993 18.4209 619.579 18.0093 603 17.5C619.579 16.9933 619.991 16.5791 620.5 0C621.007 16.5791 621.421 16.9908 638 17.5C621.421 18.0093 621.009 18.4158 620.5 35Z" fill="#E63E50"/>
</g>
</g>
<path fill-rule="evenodd" clip-rule="evenodd" d="M91.6817 96.2887L105 83.5754L104.111 82.7269L90.7869 95.4458L97.998 78.8268L96.8365 78.3676L89.6268 94.9834V77H88.3697V94.9834L81.16 78.3676L79.9985 78.8268L87.2072 95.44L73.8885 82.7269L72.9996 83.5754L86.3181 96.2886L68.9138 89.4076L68.4328 90.5163L85.8398 97.3983H67V98.5983H85.8398L68.4328 105.48L68.9138 106.589L86.3242 99.7057L72.9996 112.425L73.8885 113.273L87.2072 100.56L79.9985 117.173L81.16 117.632L88.3697 101.017V119H89.6268V101.017L96.8365 117.632L97.998 117.173L90.7869 100.554L104.111 113.273L105 112.425L91.6758 99.7057L109.086 106.589L109.567 105.48L92.1602 98.5983H111V97.3983H92.1602L109.567 90.5163L109.086 89.4076L91.6817 96.2887Z" fill="#FF9FA9"/>
<path d="M141.95 126.238C141.035 126.238 140.251 126.079 139.598 125.762C138.954 125.435 138.427 125.011 138.016 124.488C137.615 123.965 137.321 123.401 137.134 122.794C136.947 122.178 136.854 121.581 136.854 121.002V120.736C136.854 120.111 136.947 119.49 137.134 118.874C137.33 118.249 137.629 117.684 138.03 117.18C138.441 116.676 138.963 116.275 139.598 115.976C140.233 115.668 140.984 115.514 141.852 115.514C142.729 115.514 143.485 115.668 144.12 115.976C144.764 116.284 145.277 116.718 145.66 117.278C146.043 117.829 146.276 118.482 146.36 119.238H145.282C145.207 118.631 145.011 118.127 144.694 117.726C144.377 117.315 143.971 117.007 143.476 116.802C142.991 116.597 142.449 116.494 141.852 116.494C141.208 116.494 140.639 116.611 140.144 116.844C139.659 117.068 139.253 117.385 138.926 117.796C138.599 118.197 138.352 118.664 138.184 119.196C138.016 119.719 137.932 120.279 137.932 120.876C137.932 121.445 138.011 121.991 138.17 122.514C138.338 123.037 138.59 123.508 138.926 123.928C139.262 124.339 139.682 124.665 140.186 124.908C140.69 125.141 141.278 125.258 141.95 125.258C142.883 125.258 143.667 125.025 144.302 124.558C144.937 124.082 145.329 123.401 145.478 122.514H146.556C146.453 123.214 146.211 123.849 145.828 124.418C145.445 124.978 144.927 125.421 144.274 125.748C143.63 126.075 142.855 126.238 141.95 126.238ZM152.291 126.238C151.657 126.238 151.097 126.131 150.611 125.916C150.135 125.692 149.729 125.398 149.393 125.034C149.067 124.661 148.815 124.245 148.637 123.788C148.469 123.331 148.385 122.864 148.385 122.388V122.192C148.385 121.716 148.474 121.249 148.651 120.792C148.829 120.325 149.085 119.91 149.421 119.546C149.757 119.182 150.163 118.893 150.639 118.678C151.125 118.454 151.675 118.342 152.291 118.342C152.917 118.342 153.467 118.454 153.943 118.678C154.429 118.893 154.839 119.182 155.175 119.546C155.511 119.91 155.763 120.325 155.931 120.792C156.109 121.249 156.197 121.716 156.197 122.192V122.388C156.197 122.864 156.113 123.331 155.945 123.788C155.777 124.245 155.525 124.661 155.189 125.034C154.863 125.398 154.457 125.692 153.971 125.916C153.486 126.131 152.926 126.238 152.291 126.238ZM152.291 125.3C152.907 125.3 153.425 125.165 153.845 124.894C154.275 124.614 154.601 124.25 154.825 123.802C155.049 123.345 155.161 122.841 155.161 122.29C155.161 121.73 155.045 121.226 154.811 120.778C154.587 120.321 154.261 119.961 153.831 119.7C153.402 119.429 152.889 119.294 152.291 119.294C151.703 119.294 151.195 119.429 150.765 119.7C150.336 119.961 150.005 120.321 149.771 120.778C149.547 121.226 149.435 121.73 149.435 122.29C149.435 122.841 149.547 123.345 149.771 123.802C149.995 124.25 150.317 124.614 150.737 124.894C151.167 125.165 151.685 125.3 152.291 125.3ZM158.838 126V118.594H159.678V121.702H159.51C159.51 121.011 159.613 120.419 159.818 119.924C160.024 119.429 160.332 119.047 160.742 118.776C161.153 118.505 161.671 118.37 162.296 118.37H162.338C163.272 118.37 163.967 118.664 164.424 119.252C164.882 119.831 165.11 120.647 165.11 121.702V126H164.074V121.478C164.074 120.834 163.897 120.316 163.542 119.924C163.188 119.532 162.693 119.336 162.058 119.336C161.405 119.336 160.878 119.541 160.476 119.952C160.084 120.353 159.888 120.885 159.888 121.548V126H158.838ZM171.053 128.898C170.708 128.898 170.358 128.879 170.003 128.842C169.658 128.814 169.327 128.777 169.009 128.73V127.834C169.345 127.881 169.695 127.918 170.059 127.946C170.433 127.983 170.783 128.002 171.109 128.002C171.819 128.002 172.383 127.909 172.803 127.722C173.223 127.535 173.522 127.237 173.699 126.826C173.886 126.425 173.979 125.893 173.979 125.23V123.746L174.371 122.71C174.353 123.419 174.203 124.031 173.923 124.544C173.643 125.048 173.265 125.435 172.789 125.706C172.313 125.977 171.772 126.112 171.165 126.112C170.633 126.112 170.148 126.009 169.709 125.804C169.28 125.599 168.911 125.319 168.603 124.964C168.295 124.6 168.057 124.189 167.889 123.732C167.721 123.275 167.637 122.794 167.637 122.29V122.094C167.637 121.599 167.721 121.128 167.889 120.68C168.057 120.223 168.295 119.821 168.603 119.476C168.911 119.121 169.285 118.846 169.723 118.65C170.171 118.445 170.666 118.342 171.207 118.342C171.861 118.342 172.43 118.487 172.915 118.776C173.401 119.065 173.779 119.467 174.049 119.98C174.329 120.493 174.479 121.095 174.497 121.786L174.161 121.604V118.594H174.987V125.188C174.987 126.075 174.857 126.789 174.595 127.33C174.334 127.871 173.914 128.268 173.335 128.52C172.766 128.772 172.005 128.898 171.053 128.898ZM171.347 125.146C171.851 125.146 172.299 125.039 172.691 124.824C173.093 124.6 173.41 124.287 173.643 123.886C173.877 123.485 173.993 123.018 173.993 122.486V121.8C173.993 121.287 173.872 120.839 173.629 120.456C173.396 120.073 173.083 119.775 172.691 119.56C172.299 119.345 171.851 119.238 171.347 119.238C170.806 119.238 170.335 119.369 169.933 119.63C169.532 119.891 169.224 120.246 169.009 120.694C168.795 121.133 168.687 121.632 168.687 122.192C168.687 122.761 168.795 123.27 169.009 123.718C169.233 124.166 169.546 124.516 169.947 124.768C170.349 125.02 170.815 125.146 171.347 125.146ZM178.118 126V118.594H178.958V121.688H178.874C178.874 120.605 179.112 119.807 179.588 119.294C180.064 118.771 180.81 118.51 181.828 118.51H182.066V119.462H181.632C180.829 119.462 180.218 119.672 179.798 120.092C179.378 120.503 179.168 121.109 179.168 121.912V126H178.118ZM188.745 126V123.774H188.577V121.142C188.577 120.591 188.432 120.171 188.143 119.882C187.854 119.583 187.406 119.434 186.799 119.434C186.519 119.434 186.234 119.439 185.945 119.448C185.665 119.457 185.394 119.471 185.133 119.49C184.881 119.499 184.657 119.513 184.461 119.532V118.608C184.666 118.589 184.876 118.571 185.091 118.552C185.306 118.533 185.525 118.524 185.749 118.524C185.982 118.515 186.206 118.51 186.421 118.51C187.177 118.51 187.784 118.603 188.241 118.79C188.708 118.977 189.048 119.271 189.263 119.672C189.478 120.064 189.585 120.587 189.585 121.24V126H188.745ZM186.239 126.196C185.716 126.196 185.254 126.103 184.853 125.916C184.452 125.729 184.139 125.459 183.915 125.104C183.7 124.749 183.593 124.32 183.593 123.816C183.593 123.321 183.705 122.901 183.929 122.556C184.162 122.211 184.494 121.949 184.923 121.772C185.362 121.585 185.889 121.492 186.505 121.492H188.675V122.29H186.435C185.847 122.29 185.394 122.435 185.077 122.724C184.769 123.004 184.615 123.373 184.615 123.83C184.615 124.297 184.778 124.67 185.105 124.95C185.432 125.221 185.875 125.356 186.435 125.356C186.78 125.356 187.112 125.295 187.429 125.174C187.746 125.043 188.012 124.829 188.227 124.53C188.442 124.222 188.558 123.802 188.577 123.27L188.885 123.704C188.848 124.255 188.717 124.717 188.493 125.09C188.269 125.454 187.966 125.729 187.583 125.916C187.2 126.103 186.752 126.196 186.239 126.196ZM195.396 126.084C194.882 126.084 194.439 126.009 194.066 125.86C193.692 125.711 193.403 125.459 193.198 125.104C192.992 124.74 192.89 124.255 192.89 123.648V116.256H193.898V123.802C193.898 124.231 194.014 124.563 194.248 124.796C194.481 125.02 194.812 125.132 195.242 125.132H196.572V126.084H195.396ZM191.56 119.392V118.594H196.572V119.392H191.56ZM201.662 126.21C200.776 126.21 200.099 125.925 199.632 125.356C199.166 124.777 198.932 123.975 198.932 122.948V118.58H199.968V123.158C199.968 123.802 200.136 124.315 200.472 124.698C200.818 125.071 201.294 125.258 201.9 125.258C202.535 125.258 203.039 125.057 203.412 124.656C203.795 124.255 203.986 123.718 203.986 123.046V118.58H205.036V126H204.196V122.906H204.364C204.364 123.597 204.266 124.189 204.07 124.684C203.874 125.169 203.58 125.547 203.188 125.818C202.796 126.079 202.302 126.21 201.704 126.21H201.662ZM208.352 126V115.78H209.402V126H208.352ZM207.274 116.634V115.78H209.402V116.634H207.274ZM217.132 126V123.774H216.964V121.142C216.964 120.591 216.819 120.171 216.53 119.882C216.24 119.583 215.792 119.434 215.186 119.434C214.906 119.434 214.621 119.439 214.332 119.448C214.052 119.457 213.781 119.471 213.52 119.49C213.268 119.499 213.044 119.513 212.848 119.532V118.608C213.053 118.589 213.263 118.571 213.478 118.552C213.692 118.533 213.912 118.524 214.136 118.524C214.369 118.515 214.593 118.51 214.808 118.51C215.564 118.51 216.17 118.603 216.628 118.79C217.094 118.977 217.435 119.271 217.65 119.672C217.864 120.064 217.972 120.587 217.972 121.24V126H217.132ZM214.626 126.196C214.103 126.196 213.641 126.103 213.24 125.916C212.838 125.729 212.526 125.459 212.302 125.104C212.087 124.749 211.98 124.32 211.98 123.816C211.98 123.321 212.092 122.901 212.316 122.556C212.549 122.211 212.88 121.949 213.31 121.772C213.748 121.585 214.276 121.492 214.892 121.492H217.062V122.29H214.822C214.234 122.29 213.781 122.435 213.464 122.724C213.156 123.004 213.002 123.373 213.002 123.83C213.002 124.297 213.165 124.67 213.492 124.95C213.818 125.221 214.262 125.356 214.822 125.356C215.167 125.356 215.498 125.295 215.816 125.174C216.133 125.043 216.399 124.829 216.614 124.53C216.828 124.222 216.945 123.802 216.964 123.27L217.272 123.704C217.234 124.255 217.104 124.717 216.88 125.09C216.656 125.454 216.352 125.729 215.97 125.916C215.587 126.103 215.139 126.196 214.626 126.196ZM223.782 126.084C223.269 126.084 222.826 126.009 222.452 125.86C222.079 125.711 221.79 125.459 221.584 125.104C221.379 124.74 221.276 124.255 221.276 123.648V116.256H222.284V123.802C222.284 124.231 222.401 124.563 222.634 124.796C222.868 125.02 223.199 125.132 223.628 125.132H224.958V126.084H223.782ZM219.946 119.392V118.594H224.958V119.392H219.946ZM227.879 126V118.594H228.915V126H227.879ZM226.689 119.434V118.594H228.915V119.434H226.689ZM228.103 117.222C227.851 117.222 227.66 117.157 227.529 117.026C227.408 116.886 227.347 116.713 227.347 116.508C227.347 116.303 227.408 116.135 227.529 116.004C227.66 115.864 227.851 115.794 228.103 115.794C228.355 115.794 228.542 115.864 228.663 116.004C228.784 116.135 228.845 116.303 228.845 116.508C228.845 116.713 228.784 116.886 228.663 117.026C228.542 117.157 228.355 117.222 228.103 117.222ZM235.489 126.238C234.854 126.238 234.294 126.131 233.809 125.916C233.333 125.692 232.927 125.398 232.591 125.034C232.264 124.661 232.012 124.245 231.835 123.788C231.667 123.331 231.583 122.864 231.583 122.388V122.192C231.583 121.716 231.671 121.249 231.849 120.792C232.026 120.325 232.283 119.91 232.619 119.546C232.955 119.182 233.361 118.893 233.837 118.678C234.322 118.454 234.873 118.342 235.489 118.342C236.114 118.342 236.665 118.454 237.141 118.678C237.626 118.893 238.037 119.182 238.373 119.546C238.709 119.91 238.961 120.325 239.129 120.792C239.306 121.249 239.395 121.716 239.395 122.192V122.388C239.395 122.864 239.311 123.331 239.143 123.788C238.975 124.245 238.723 124.661 238.387 125.034C238.06 125.398 237.654 125.692 237.169 125.916C236.683 126.131 236.123 126.238 235.489 126.238ZM235.489 125.3C236.105 125.3 236.623 125.165 237.043 124.894C237.472 124.614 237.799 124.25 238.023 123.802C238.247 123.345 238.359 122.841 238.359 122.29C238.359 121.73 238.242 121.226 238.008 120.778C237.785 120.321 237.458 119.961 237.029 119.7C236.599 119.429 236.086 119.294 235.489 119.294C234.901 119.294 234.392 119.429 233.963 119.7C233.533 119.961 233.202 120.321 232.969 120.778C232.745 121.226 232.633 121.73 232.633 122.29C232.633 122.841 232.745 123.345 232.969 123.802C233.193 124.25 233.515 124.614 233.935 124.894C234.364 125.165 234.882 125.3 235.489 125.3ZM242.036 126V118.594H242.876V121.702H242.708C242.708 121.011 242.81 120.419 243.016 119.924C243.221 119.429 243.529 119.047 243.94 118.776C244.35 118.505 244.868 118.37 245.494 118.37H245.536C246.469 118.37 247.164 118.664 247.622 119.252C248.079 119.831 248.308 120.647 248.308 121.702V126H247.272V121.478C247.272 120.834 247.094 120.316 246.74 119.924C246.385 119.532 245.89 119.336 245.256 119.336C244.602 119.336 244.075 119.541 243.674 119.952C243.282 120.353 243.086 120.885 243.086 121.548V126H242.036ZM253.76 126.21C252.808 126.21 252.076 126.005 251.562 125.594C251.049 125.174 250.788 124.614 250.778 123.914H251.758C251.777 124.269 251.936 124.591 252.234 124.88C252.542 125.169 253.051 125.314 253.76 125.314C254.423 125.314 254.918 125.179 255.244 124.908C255.58 124.628 255.748 124.292 255.748 123.9C255.748 123.536 255.608 123.256 255.328 123.06C255.058 122.855 254.661 122.724 254.138 122.668L253.298 122.584C252.626 122.509 252.08 122.304 251.66 121.968C251.25 121.623 251.044 121.151 251.044 120.554C251.044 120.115 251.156 119.733 251.38 119.406C251.604 119.079 251.917 118.827 252.318 118.65C252.729 118.463 253.21 118.37 253.76 118.37C254.554 118.37 255.198 118.557 255.692 118.93C256.196 119.303 256.453 119.835 256.462 120.526H255.482C255.473 120.171 255.324 119.873 255.034 119.63C254.745 119.387 254.32 119.266 253.76 119.266C253.182 119.266 252.748 119.392 252.458 119.644C252.178 119.896 252.038 120.204 252.038 120.568C252.038 120.876 252.146 121.133 252.36 121.338C252.575 121.534 252.911 121.655 253.368 121.702L254.208 121.786C254.955 121.87 255.562 122.085 256.028 122.43C256.504 122.775 256.742 123.27 256.742 123.914C256.742 124.353 256.616 124.749 256.364 125.104C256.122 125.449 255.776 125.72 255.328 125.916C254.88 126.112 254.358 126.21 253.76 126.21ZM259.182 128.142L258.328 127.834L259.546 124.46L260.428 124.782L259.182 128.142ZM272.113 126L269.131 122.528H267.927L271.441 118.594H272.561L269.411 122.108L269.481 121.534L273.345 126H272.113ZM267.073 126V115.78H268.123V126H267.073ZM278.2 126.238C277.565 126.238 277.015 126.131 276.548 125.916C276.081 125.692 275.699 125.398 275.4 125.034C275.101 124.661 274.877 124.245 274.728 123.788C274.588 123.331 274.518 122.859 274.518 122.374V122.178C274.518 121.702 274.588 121.235 274.728 120.778C274.877 120.321 275.101 119.91 275.4 119.546C275.699 119.182 276.072 118.893 276.52 118.678C276.977 118.454 277.509 118.342 278.116 118.342C278.891 118.342 279.535 118.515 280.048 118.86C280.571 119.205 280.963 119.649 281.224 120.19C281.485 120.722 281.616 121.296 281.616 121.912V122.458H274.994V121.646H280.888L280.622 122.052C280.622 121.501 280.524 121.021 280.328 120.61C280.141 120.19 279.861 119.863 279.488 119.63C279.124 119.387 278.667 119.266 278.116 119.266C277.537 119.266 277.057 119.401 276.674 119.672C276.291 119.943 276.002 120.302 275.806 120.75C275.619 121.198 275.526 121.707 275.526 122.276C275.526 122.836 275.619 123.349 275.806 123.816C276.002 124.273 276.296 124.637 276.688 124.908C277.089 125.179 277.593 125.314 278.2 125.314C278.844 125.314 279.367 125.169 279.768 124.88C280.169 124.581 280.417 124.231 280.51 123.83H281.49C281.397 124.325 281.201 124.754 280.902 125.118C280.603 125.473 280.225 125.748 279.768 125.944C279.311 126.14 278.788 126.238 278.2 126.238ZM287.231 126.238C286.597 126.238 286.046 126.131 285.579 125.916C285.113 125.692 284.73 125.398 284.431 125.034C284.133 124.661 283.909 124.245 283.759 123.788C283.619 123.331 283.549 122.859 283.549 122.374V122.178C283.549 121.702 283.619 121.235 283.759 120.778C283.909 120.321 284.133 119.91 284.431 119.546C284.73 119.182 285.103 118.893 285.551 118.678C286.009 118.454 286.541 118.342 287.147 118.342C287.922 118.342 288.566 118.515 289.079 118.86C289.602 119.205 289.994 119.649 290.255 120.19C290.517 120.722 290.647 121.296 290.647 121.912V122.458H284.025V121.646H289.919L289.653 122.052C289.653 121.501 289.555 121.021 289.359 120.61C289.173 120.19 288.893 119.863 288.519 119.63C288.155 119.387 287.698 119.266 287.147 119.266C286.569 119.266 286.088 119.401 285.705 119.672C285.323 119.943 285.033 120.302 284.837 120.75C284.651 121.198 284.557 121.707 284.557 122.276C284.557 122.836 284.651 123.349 284.837 123.816C285.033 124.273 285.327 124.637 285.719 124.908C286.121 125.179 286.625 125.314 287.231 125.314C287.875 125.314 288.398 125.169 288.799 124.88C289.201 124.581 289.448 124.231 289.541 123.83H290.521C290.428 124.325 290.232 124.754 289.933 125.118C289.635 125.473 289.257 125.748 288.799 125.944C288.342 126.14 287.819 126.238 287.231 126.238ZM293.169 128.8V118.594H294.009V121.772L293.757 121.8C293.794 121.053 293.953 120.423 294.233 119.91C294.522 119.397 294.909 119.009 295.395 118.748C295.889 118.477 296.44 118.342 297.047 118.342C297.588 118.342 298.078 118.449 298.517 118.664C298.965 118.869 299.343 119.154 299.651 119.518C299.968 119.873 300.206 120.283 300.365 120.75C300.533 121.207 300.617 121.688 300.617 122.192V122.388C300.617 122.892 300.533 123.377 300.365 123.844C300.197 124.301 299.954 124.712 299.637 125.076C299.329 125.431 298.951 125.715 298.503 125.93C298.064 126.135 297.569 126.238 297.019 126.238C296.431 126.238 295.889 126.107 295.395 125.846C294.909 125.575 294.513 125.179 294.205 124.656C293.906 124.133 293.743 123.489 293.715 122.724L294.219 123.774V128.8H293.169ZM296.879 125.314C297.439 125.314 297.919 125.183 298.321 124.922C298.722 124.651 299.03 124.287 299.245 123.83C299.459 123.363 299.567 122.85 299.567 122.29C299.567 121.711 299.455 121.198 299.231 120.75C299.016 120.293 298.708 119.933 298.307 119.672C297.905 119.401 297.429 119.266 296.879 119.266C296.375 119.266 295.917 119.378 295.507 119.602C295.096 119.826 294.769 120.143 294.527 120.554C294.293 120.955 294.177 121.431 294.177 121.982V122.668C294.177 123.191 294.293 123.653 294.527 124.054C294.769 124.446 295.096 124.754 295.507 124.978C295.917 125.202 296.375 125.314 296.879 125.314ZM308.616 126V116.326L309.078 116.69H306.292V115.78H309.666V126H308.616ZM317.336 126V115.78H319.114L324.714 125.034H325.162L324.882 125.258V115.78H325.904V126H324.112L318.512 116.746H318.064L318.344 116.522V126H317.336ZM329.594 126V115.78H330.658V126H329.594ZM330.378 121.282V120.316L334.9 120.302V121.268L330.378 121.282ZM330.378 116.732V115.78H335.166V116.732H330.378ZM340.053 126V116.48H341.117V126H340.053ZM336.861 116.746V115.78H344.309V116.746H336.861ZM350.717 126V118.594H351.753V126H350.717ZM349.527 119.434V118.594H351.753V119.434H349.527ZM350.941 117.222C350.689 117.222 350.497 117.157 350.367 117.026C350.245 116.886 350.185 116.713 350.185 116.508C350.185 116.303 350.245 116.135 350.367 116.004C350.497 115.864 350.689 115.794 350.941 115.794C351.193 115.794 351.379 115.864 351.501 116.004C351.622 116.135 351.683 116.303 351.683 116.508C351.683 116.713 351.622 116.886 351.501 117.026C351.379 117.157 351.193 117.222 350.941 117.222ZM355.008 126V118.594H355.848V121.702H355.68C355.68 121.011 355.783 120.419 355.988 119.924C356.194 119.429 356.502 119.047 356.912 118.776C357.323 118.505 357.841 118.37 358.466 118.37H358.508C359.442 118.37 360.137 118.664 360.594 119.252C361.052 119.831 361.28 120.647 361.28 121.702V126H360.244V121.478C360.244 120.834 360.067 120.316 359.712 119.924C359.358 119.532 358.863 119.336 358.228 119.336C357.575 119.336 357.048 119.541 356.646 119.952C356.254 120.353 356.058 120.885 356.058 121.548V126H355.008ZM371.257 126.238C370.622 126.238 370.071 126.131 369.605 125.916C369.138 125.692 368.755 125.398 368.457 125.034C368.158 124.661 367.934 124.245 367.785 123.788C367.645 123.331 367.575 122.859 367.575 122.374V122.178C367.575 121.702 367.645 121.235 367.785 120.778C367.934 120.321 368.158 119.91 368.457 119.546C368.755 119.182 369.129 118.893 369.577 118.678C370.034 118.454 370.566 118.342 371.173 118.342C371.947 118.342 372.591 118.515 373.105 118.86C373.627 119.205 374.019 119.649 374.281 120.19C374.542 120.722 374.673 121.296 374.673 121.912V122.458H368.051V121.646H373.945L373.679 122.052C373.679 121.501 373.581 121.021 373.385 120.61C373.198 120.19 372.918 119.863 372.545 119.63C372.181 119.387 371.723 119.266 371.173 119.266C370.594 119.266 370.113 119.401 369.731 119.672C369.348 119.943 369.059 120.302 368.863 120.75C368.676 121.198 368.583 121.707 368.583 122.276C368.583 122.836 368.676 123.349 368.863 123.816C369.059 124.273 369.353 124.637 369.745 124.908C370.146 125.179 370.65 125.314 371.257 125.314C371.901 125.314 372.423 125.169 372.825 124.88C373.226 124.581 373.473 124.231 373.567 123.83H374.547C374.453 124.325 374.257 124.754 373.959 125.118C373.66 125.473 373.282 125.748 372.825 125.944C372.367 126.14 371.845 126.238 371.257 126.238ZM381.702 126V123.774H381.534V121.142C381.534 120.591 381.389 120.171 381.1 119.882C380.811 119.583 380.363 119.434 379.756 119.434C379.476 119.434 379.191 119.439 378.902 119.448C378.622 119.457 378.351 119.471 378.09 119.49C377.838 119.499 377.614 119.513 377.418 119.532V118.608C377.623 118.589 377.833 118.571 378.048 118.552C378.263 118.533 378.482 118.524 378.706 118.524C378.939 118.515 379.163 118.51 379.378 118.51C380.134 118.51 380.741 118.603 381.198 118.79C381.665 118.977 382.005 119.271 382.22 119.672C382.435 120.064 382.542 120.587 382.542 121.24V126H381.702ZM379.196 126.196C378.673 126.196 378.211 126.103 377.81 125.916C377.409 125.729 377.096 125.459 376.872 125.104C376.657 124.749 376.55 124.32 376.55 123.816C376.55 123.321 376.662 122.901 376.886 122.556C377.119 122.211 377.451 121.949 377.88 121.772C378.319 121.585 378.846 121.492 379.462 121.492H381.632V122.29H379.392C378.804 122.29 378.351 122.435 378.034 122.724C377.726 123.004 377.572 123.373 377.572 123.83C377.572 124.297 377.735 124.67 378.062 124.95C378.389 125.221 378.832 125.356 379.392 125.356C379.737 125.356 380.069 125.295 380.386 125.174C380.703 125.043 380.969 124.829 381.184 124.53C381.399 124.222 381.515 123.802 381.534 123.27L381.842 123.704C381.805 124.255 381.674 124.717 381.45 125.09C381.226 125.454 380.923 125.729 380.54 125.916C380.157 126.103 379.709 126.196 379.196 126.196ZM388.787 126.238C388.161 126.238 387.615 126.131 387.149 125.916C386.691 125.692 386.309 125.393 386.001 125.02C385.693 124.637 385.459 124.217 385.301 123.76C385.151 123.303 385.077 122.841 385.077 122.374V122.178C385.077 121.702 385.151 121.24 385.301 120.792C385.459 120.335 385.693 119.924 386.001 119.56C386.309 119.187 386.691 118.893 387.149 118.678C387.615 118.454 388.152 118.342 388.759 118.342C389.375 118.342 389.921 118.454 390.397 118.678C390.882 118.902 391.274 119.219 391.573 119.63C391.871 120.041 392.049 120.526 392.105 121.086H391.097C391.013 120.573 390.77 120.148 390.369 119.812C389.977 119.467 389.44 119.294 388.759 119.294C388.171 119.294 387.681 119.429 387.289 119.7C386.906 119.961 386.617 120.321 386.421 120.778C386.225 121.226 386.127 121.725 386.127 122.276C386.127 122.817 386.225 123.321 386.421 123.788C386.617 124.245 386.911 124.614 387.303 124.894C387.695 125.165 388.189 125.3 388.787 125.3C389.244 125.3 389.641 125.221 389.977 125.062C390.322 124.894 390.597 124.67 390.803 124.39C391.017 124.11 391.143 123.802 391.181 123.466H392.189C392.151 124.026 391.974 124.516 391.657 124.936C391.349 125.347 390.947 125.669 390.453 125.902C389.958 126.126 389.403 126.238 388.787 126.238ZM394.614 126V115.78H395.664V121.562L395.356 121.8C395.356 121.109 395.454 120.507 395.65 119.994C395.855 119.481 396.159 119.084 396.56 118.804C396.971 118.515 397.484 118.37 398.1 118.37H398.156C399.052 118.37 399.729 118.664 400.186 119.252C400.653 119.84 400.886 120.657 400.886 121.702V126H399.85V121.478C399.85 120.815 399.668 120.293 399.304 119.91C398.94 119.527 398.45 119.336 397.834 119.336C397.171 119.336 396.644 119.551 396.252 119.98C395.86 120.4 395.664 120.955 395.664 121.646V126H394.614ZM407.838 126V115.78H408.888V126H407.838ZM406.76 116.634V115.78H408.888V116.634H406.76ZM415.204 126.238C414.569 126.238 414.019 126.131 413.552 125.916C413.085 125.692 412.703 125.398 412.404 125.034C412.105 124.661 411.881 124.245 411.732 123.788C411.592 123.331 411.522 122.859 411.522 122.374V122.178C411.522 121.702 411.592 121.235 411.732 120.778C411.881 120.321 412.105 119.91 412.404 119.546C412.703 119.182 413.076 118.893 413.524 118.678C413.981 118.454 414.513 118.342 415.12 118.342C415.895 118.342 416.539 118.515 417.052 118.86C417.575 119.205 417.967 119.649 418.228 120.19C418.489 120.722 418.62 121.296 418.62 121.912V122.458H411.998V121.646H417.892L417.626 122.052C417.626 121.501 417.528 121.021 417.332 120.61C417.145 120.19 416.865 119.863 416.492 119.63C416.128 119.387 415.671 119.266 415.12 119.266C414.541 119.266 414.061 119.401 413.678 119.672C413.295 119.943 413.006 120.302 412.81 120.75C412.623 121.198 412.53 121.707 412.53 122.276C412.53 122.836 412.623 123.349 412.81 123.816C413.006 124.273 413.3 124.637 413.692 124.908C414.093 125.179 414.597 125.314 415.204 125.314C415.848 125.314 416.371 125.169 416.772 124.88C417.173 124.581 417.421 124.231 417.514 123.83H418.494C418.401 124.325 418.205 124.754 417.906 125.118C417.607 125.473 417.229 125.748 416.772 125.944C416.315 126.14 415.792 126.238 415.204 126.238ZM422.739 126L420.135 118.594H421.213L423.789 126H422.739ZM423.019 126V125.146H424.349V126H423.019ZM423.593 126L425.847 118.594H426.883L424.587 126H423.593ZM432.214 126.238C431.579 126.238 431.028 126.131 430.562 125.916C430.095 125.692 429.712 125.398 429.414 125.034C429.115 124.661 428.891 124.245 428.742 123.788C428.602 123.331 428.532 122.859 428.532 122.374V122.178C428.532 121.702 428.602 121.235 428.742 120.778C428.891 120.321 429.115 119.91 429.414 119.546C429.712 119.182 430.086 118.893 430.534 118.678C430.991 118.454 431.523 118.342 432.13 118.342C432.904 118.342 433.548 118.515 434.062 118.86C434.584 119.205 434.976 119.649 435.238 120.19C435.499 120.722 435.63 121.296 435.63 121.912V122.458H429.008V121.646H434.902L434.636 122.052C434.636 121.501 434.538 121.021 434.342 120.61C434.155 120.19 433.875 119.863 433.502 119.63C433.138 119.387 432.68 119.266 432.13 119.266C431.551 119.266 431.07 119.401 430.688 119.672C430.305 119.943 430.016 120.302 429.82 120.75C429.633 121.198 429.54 121.707 429.54 122.276C429.54 122.836 429.633 123.349 429.82 123.816C430.016 124.273 430.31 124.637 430.702 124.908C431.103 125.179 431.607 125.314 432.214 125.314C432.858 125.314 433.38 125.169 433.782 124.88C434.183 124.581 434.43 124.231 434.524 123.83H435.504C435.41 124.325 435.214 124.754 434.916 125.118C434.617 125.473 434.239 125.748 433.782 125.944C433.324 126.14 432.802 126.238 432.214 126.238ZM438.221 126V115.78H439.271V126H438.221ZM437.143 116.634V115.78H439.271V116.634H437.143ZM448.822 126.21C447.936 126.21 447.259 125.925 446.792 125.356C446.326 124.777 446.092 123.975 446.092 122.948V118.58H447.128V123.158C447.128 123.802 447.296 124.315 447.632 124.698C447.978 125.071 448.454 125.258 449.06 125.258C449.695 125.258 450.199 125.057 450.572 124.656C450.955 124.255 451.146 123.718 451.146 123.046V118.58H452.196V126H451.356V122.906H451.524C451.524 123.597 451.426 124.189 451.23 124.684C451.034 125.169 450.74 125.547 450.348 125.818C449.956 126.079 449.462 126.21 448.864 126.21H448.822ZM455.442 126V118.594H456.282V121.702H456.114C456.114 121.011 456.217 120.419 456.422 119.924C456.627 119.429 456.935 119.047 457.346 118.776C457.757 118.505 458.275 118.37 458.9 118.37H458.942C459.875 118.37 460.571 118.664 461.028 119.252C461.485 119.831 461.714 120.647 461.714 121.702V126H460.678V121.478C460.678 120.834 460.501 120.316 460.146 119.924C459.791 119.532 459.297 119.336 458.662 119.336C458.009 119.336 457.481 119.541 457.08 119.952C456.688 120.353 456.492 120.885 456.492 121.548V126H455.442ZM467.517 126.084C467.003 126.084 466.56 126.009 466.187 125.86C465.813 125.711 465.524 125.459 465.319 125.104C465.113 124.74 465.011 124.255 465.011 123.648V116.256H466.019V123.802C466.019 124.231 466.135 124.563 466.369 124.796C466.602 125.02 466.933 125.132 467.363 125.132H468.693V126.084H467.517ZM463.681 119.392V118.594H468.693V119.392H463.681ZM471.613 126V118.594H472.649V126H471.613ZM470.423 119.434V118.594H472.649V119.434H470.423ZM471.837 117.222C471.585 117.222 471.394 117.157 471.263 117.026C471.142 116.886 471.081 116.713 471.081 116.508C471.081 116.303 471.142 116.135 471.263 116.004C471.394 115.864 471.585 115.794 471.837 115.794C472.089 115.794 472.276 115.864 472.397 116.004C472.519 116.135 472.579 116.303 472.579 116.508C472.579 116.713 472.519 116.886 472.397 117.026C472.276 117.157 472.089 117.222 471.837 117.222ZM475.975 126V115.78H477.025V126H475.975ZM474.897 116.634V115.78H477.025V116.634H474.897ZM486.702 126.084C486.189 126.084 485.746 126.009 485.372 125.86C484.999 125.711 484.71 125.459 484.504 125.104C484.299 124.74 484.196 124.255 484.196 123.648V116.256H485.204V123.802C485.204 124.231 485.321 124.563 485.554 124.796C485.788 125.02 486.119 125.132 486.548 125.132H487.878V126.084H486.702ZM482.866 119.392V118.594H487.878V119.392H482.866ZM490.407 126V115.78H491.457V121.562L491.149 121.8C491.149 121.109 491.247 120.507 491.443 119.994C491.648 119.481 491.951 119.084 492.353 118.804C492.763 118.515 493.277 118.37 493.893 118.37H493.949C494.845 118.37 495.521 118.664 495.979 119.252C496.445 119.84 496.679 120.657 496.679 121.702V126H495.643V121.478C495.643 120.815 495.461 120.293 495.097 119.91C494.733 119.527 494.243 119.336 493.627 119.336C492.964 119.336 492.437 119.551 492.045 119.98C491.653 120.4 491.457 120.955 491.457 121.646V126H490.407ZM502.888 126.238C502.253 126.238 501.702 126.131 501.236 125.916C500.769 125.692 500.386 125.398 500.088 125.034C499.789 124.661 499.565 124.245 499.416 123.788C499.276 123.331 499.206 122.859 499.206 122.374V122.178C499.206 121.702 499.276 121.235 499.416 120.778C499.565 120.321 499.789 119.91 500.088 119.546C500.386 119.182 500.76 118.893 501.208 118.678C501.665 118.454 502.197 118.342 502.804 118.342C503.578 118.342 504.222 118.515 504.736 118.86C505.258 119.205 505.65 119.649 505.912 120.19C506.173 120.722 506.304 121.296 506.304 121.912V122.458H499.682V121.646H505.576L505.31 122.052C505.31 121.501 505.212 121.021 505.016 120.61C504.829 120.19 504.549 119.863 504.176 119.63C503.812 119.387 503.354 119.266 502.804 119.266C502.225 119.266 501.744 119.401 501.362 119.672C500.979 119.943 500.69 120.302 500.494 120.75C500.307 121.198 500.214 121.707 500.214 122.276C500.214 122.836 500.307 123.349 500.494 123.816C500.69 124.273 500.984 124.637 501.376 124.908C501.777 125.179 502.281 125.314 502.888 125.314C503.532 125.314 504.054 125.169 504.456 124.88C504.857 124.581 505.104 124.231 505.198 123.83H506.178C506.084 124.325 505.888 124.754 505.59 125.118C505.291 125.473 504.913 125.748 504.456 125.944C503.998 126.14 503.476 126.238 502.888 126.238ZM515.42 128.898C515.075 128.898 514.725 128.879 514.37 128.842C514.025 128.814 513.694 128.777 513.376 128.73V127.834C513.712 127.881 514.062 127.918 514.426 127.946C514.8 127.983 515.15 128.002 515.476 128.002C516.186 128.002 516.75 127.909 517.17 127.722C517.59 127.535 517.889 127.237 518.066 126.826C518.253 126.425 518.346 125.893 518.346 125.23V123.746L518.738 122.71C518.72 123.419 518.57 124.031 518.29 124.544C518.01 125.048 517.632 125.435 517.156 125.706C516.68 125.977 516.139 126.112 515.532 126.112C515 126.112 514.515 126.009 514.076 125.804C513.647 125.599 513.278 125.319 512.97 124.964C512.662 124.6 512.424 124.189 512.256 123.732C512.088 123.275 512.004 122.794 512.004 122.29V122.094C512.004 121.599 512.088 121.128 512.256 120.68C512.424 120.223 512.662 119.821 512.97 119.476C513.278 119.121 513.652 118.846 514.09 118.65C514.538 118.445 515.033 118.342 515.574 118.342C516.228 118.342 516.797 118.487 517.282 118.776C517.768 119.065 518.146 119.467 518.416 119.98C518.696 120.493 518.846 121.095 518.864 121.786L518.528 121.604V118.594H519.354V125.188C519.354 126.075 519.224 126.789 518.962 127.33C518.701 127.871 518.281 128.268 517.702 128.52C517.133 128.772 516.372 128.898 515.42 128.898ZM515.714 125.146C516.218 125.146 516.666 125.039 517.058 124.824C517.46 124.6 517.777 124.287 518.01 123.886C518.244 123.485 518.36 123.018 518.36 122.486V121.8C518.36 121.287 518.239 120.839 517.996 120.456C517.763 120.073 517.45 119.775 517.058 119.56C516.666 119.345 516.218 119.238 515.714 119.238C515.173 119.238 514.702 119.369 514.3 119.63C513.899 119.891 513.591 120.246 513.376 120.694C513.162 121.133 513.054 121.632 513.054 122.192C513.054 122.761 513.162 123.27 513.376 123.718C513.6 124.166 513.913 124.516 514.314 124.768C514.716 125.02 515.182 125.146 515.714 125.146ZM526.993 126V123.774H526.825V121.142C526.825 120.591 526.68 120.171 526.391 119.882C526.102 119.583 525.654 119.434 525.047 119.434C524.767 119.434 524.482 119.439 524.193 119.448C523.913 119.457 523.642 119.471 523.381 119.49C523.129 119.499 522.905 119.513 522.709 119.532V118.608C522.914 118.589 523.124 118.571 523.339 118.552C523.554 118.533 523.773 118.524 523.997 118.524C524.23 118.515 524.454 118.51 524.669 118.51C525.425 118.51 526.032 118.603 526.489 118.79C526.956 118.977 527.296 119.271 527.511 119.672C527.726 120.064 527.833 120.587 527.833 121.24V126H526.993ZM524.487 126.196C523.964 126.196 523.502 126.103 523.101 125.916C522.7 125.729 522.387 125.459 522.163 125.104C521.948 124.749 521.841 124.32 521.841 123.816C521.841 123.321 521.953 122.901 522.177 122.556C522.41 122.211 522.742 121.949 523.171 121.772C523.61 121.585 524.137 121.492 524.753 121.492H526.923V122.29H524.683C524.095 122.29 523.642 122.435 523.325 122.724C523.017 123.004 522.863 123.373 522.863 123.83C522.863 124.297 523.026 124.67 523.353 124.95C523.68 125.221 524.123 125.356 524.683 125.356C525.028 125.356 525.36 125.295 525.677 125.174C525.994 125.043 526.26 124.829 526.475 124.53C526.69 124.222 526.806 123.802 526.825 123.27L527.133 123.704C527.096 124.255 526.965 124.717 526.741 125.09C526.517 125.454 526.214 125.729 525.831 125.916C525.448 126.103 525 126.196 524.487 126.196ZM530.956 126V118.58H531.796V121.702H531.628C531.628 121.021 531.721 120.433 531.908 119.938C532.104 119.443 532.393 119.061 532.776 118.79C533.158 118.51 533.644 118.37 534.232 118.37H534.274C534.862 118.37 535.347 118.505 535.73 118.776C536.112 119.047 536.397 119.429 536.584 119.924C536.77 120.419 536.864 121.011 536.864 121.702H536.528C536.528 121.021 536.621 120.433 536.808 119.938C537.004 119.443 537.293 119.061 537.676 118.79C538.068 118.51 538.558 118.37 539.146 118.37H539.188C539.776 118.37 540.261 118.505 540.644 118.776C541.036 119.047 541.325 119.429 541.512 119.924C541.708 120.419 541.806 121.011 541.806 121.702V126H540.756V121.464C540.756 120.811 540.597 120.293 540.28 119.91C539.962 119.527 539.505 119.336 538.908 119.336C538.292 119.336 537.802 119.537 537.438 119.938C537.083 120.33 536.906 120.862 536.906 121.534V126H535.856V121.464C535.856 120.811 535.697 120.293 535.38 119.91C535.062 119.527 534.605 119.336 534.008 119.336C533.392 119.336 532.902 119.537 532.538 119.938C532.183 120.33 532.006 120.862 532.006 121.534V126H530.956ZM548.016 126.238C547.382 126.238 546.831 126.131 546.364 125.916C545.898 125.692 545.515 125.398 545.216 125.034C544.918 124.661 544.694 124.245 544.544 123.788C544.404 123.331 544.334 122.859 544.334 122.374V122.178C544.334 121.702 544.404 121.235 544.544 120.778C544.694 120.321 544.918 119.91 545.216 119.546C545.515 119.182 545.888 118.893 546.336 118.678C546.794 118.454 547.326 118.342 547.932 118.342C548.707 118.342 549.351 118.515 549.864 118.86C550.387 119.205 550.779 119.649 551.04 120.19C551.302 120.722 551.432 121.296 551.432 121.912V122.458H544.81V121.646H550.704L550.438 122.052C550.438 121.501 550.34 121.021 550.144 120.61C549.958 120.19 549.678 119.863 549.304 119.63C548.94 119.387 548.483 119.266 547.932 119.266C547.354 119.266 546.873 119.401 546.49 119.672C546.108 119.943 545.818 120.302 545.622 120.75C545.436 121.198 545.342 121.707 545.342 122.276C545.342 122.836 545.436 123.349 545.622 123.816C545.818 124.273 546.112 124.637 546.504 124.908C546.906 125.179 547.41 125.314 548.016 125.314C548.66 125.314 549.183 125.169 549.584 124.88C549.986 124.581 550.233 124.231 550.326 123.83H551.306C551.213 124.325 551.017 124.754 550.718 125.118C550.42 125.473 550.042 125.748 549.584 125.944C549.127 126.14 548.604 126.238 548.016 126.238ZM140.676 145.238C140.041 145.238 139.481 145.131 138.996 144.916C138.52 144.692 138.114 144.398 137.778 144.034C137.451 143.661 137.199 143.245 137.022 142.788C136.854 142.331 136.77 141.864 136.77 141.388V141.192C136.77 140.716 136.859 140.249 137.036 139.792C137.213 139.325 137.47 138.91 137.806 138.546C138.142 138.182 138.548 137.893 139.024 137.678C139.509 137.454 140.06 137.342 140.676 137.342C141.301 137.342 141.852 137.454 142.328 137.678C142.813 137.893 143.224 138.182 143.56 138.546C143.896 138.91 144.148 139.325 144.316 139.792C144.493 140.249 144.582 140.716 144.582 141.192V141.388C144.582 141.864 144.498 142.331 144.33 142.788C144.162 143.245 143.91 143.661 143.574 144.034C143.247 144.398 142.841 144.692 142.356 144.916C141.871 145.131 141.311 145.238 140.676 145.238ZM140.676 144.3C141.292 144.3 141.81 144.165 142.23 143.894C142.659 143.614 142.986 143.25 143.21 142.802C143.434 142.345 143.546 141.841 143.546 141.29C143.546 140.73 143.429 140.226 143.196 139.778C142.972 139.321 142.645 138.961 142.216 138.7C141.787 138.429 141.273 138.294 140.676 138.294C140.088 138.294 139.579 138.429 139.15 138.7C138.721 138.961 138.389 139.321 138.156 139.778C137.932 140.226 137.82 140.73 137.82 141.29C137.82 141.841 137.932 142.345 138.156 142.802C138.38 143.25 138.702 143.614 139.122 143.894C139.551 144.165 140.069 144.3 140.676 144.3ZM147.433 145V136.88C147.433 136.105 147.634 135.531 148.035 135.158C148.437 134.785 149.039 134.598 149.841 134.598H150.639V135.494H149.645C149.253 135.494 148.955 135.597 148.749 135.802C148.544 136.007 148.441 136.297 148.441 136.67V145H147.433ZM152.179 145V136.964C152.179 136.189 152.38 135.615 152.781 135.242C153.183 134.869 153.785 134.682 154.587 134.682H155.427V135.578H154.391C153.999 135.578 153.701 135.681 153.495 135.886C153.29 136.091 153.187 136.381 153.187 136.754V145H152.179ZM157.331 145V137.594H158.367V145H157.331ZM146.355 138.392V137.594H155.399V138.392H146.355ZM156.183 138.434V137.594H158.367V138.434H156.183ZM157.555 136.222C157.303 136.222 157.112 136.157 156.981 136.026C156.86 135.886 156.799 135.713 156.799 135.508C156.799 135.303 156.86 135.135 156.981 135.004C157.112 134.864 157.303 134.794 157.555 134.794C157.807 134.794 157.994 134.864 158.115 135.004C158.237 135.135 158.297 135.303 158.297 135.508C158.297 135.713 158.237 135.886 158.115 136.026C157.994 136.157 157.807 136.222 157.555 136.222ZM164.75 145.238C164.124 145.238 163.578 145.131 163.112 144.916C162.654 144.692 162.272 144.393 161.964 144.02C161.656 143.637 161.422 143.217 161.264 142.76C161.114 142.303 161.04 141.841 161.04 141.374V141.178C161.04 140.702 161.114 140.24 161.264 139.792C161.422 139.335 161.656 138.924 161.964 138.56C162.272 138.187 162.654 137.893 163.112 137.678C163.578 137.454 164.115 137.342 164.722 137.342C165.338 137.342 165.884 137.454 166.36 137.678C166.845 137.902 167.237 138.219 167.536 138.63C167.834 139.041 168.012 139.526 168.068 140.086H167.06C166.976 139.573 166.733 139.148 166.332 138.812C165.94 138.467 165.403 138.294 164.722 138.294C164.134 138.294 163.644 138.429 163.252 138.7C162.869 138.961 162.58 139.321 162.384 139.778C162.188 140.226 162.09 140.725 162.09 141.276C162.09 141.817 162.188 142.321 162.384 142.788C162.58 143.245 162.874 143.614 163.266 143.894C163.658 144.165 164.152 144.3 164.75 144.3C165.207 144.3 165.604 144.221 165.94 144.062C166.285 143.894 166.56 143.67 166.766 143.39C166.98 143.11 167.106 142.802 167.144 142.466H168.152C168.114 143.026 167.937 143.516 167.62 143.936C167.312 144.347 166.91 144.669 166.416 144.902C165.921 145.126 165.366 145.238 164.75 145.238ZM170.969 145V137.594H172.005V145H170.969ZM169.779 138.434V137.594H172.005V138.434H169.779ZM171.193 136.222C170.941 136.222 170.749 136.157 170.619 136.026C170.497 135.886 170.437 135.713 170.437 135.508C170.437 135.303 170.497 135.135 170.619 135.004C170.749 134.864 170.941 134.794 171.193 134.794C171.445 134.794 171.631 134.864 171.753 135.004C171.874 135.135 171.935 135.303 171.935 135.508C171.935 135.713 171.874 135.886 171.753 136.026C171.631 136.157 171.445 136.222 171.193 136.222ZM179.768 145V142.774H179.6V140.142C179.6 139.591 179.456 139.171 179.166 138.882C178.877 138.583 178.429 138.434 177.822 138.434C177.542 138.434 177.258 138.439 176.968 138.448C176.688 138.457 176.418 138.471 176.156 138.49C175.904 138.499 175.68 138.513 175.484 138.532V137.608C175.69 137.589 175.9 137.571 176.114 137.552C176.329 137.533 176.548 137.524 176.772 137.524C177.006 137.515 177.23 137.51 177.444 137.51C178.2 137.51 178.807 137.603 179.264 137.79C179.731 137.977 180.072 138.271 180.286 138.672C180.501 139.064 180.608 139.587 180.608 140.24V145H179.768ZM177.262 145.196C176.74 145.196 176.278 145.103 175.876 144.916C175.475 144.729 175.162 144.459 174.938 144.104C174.724 143.749 174.616 143.32 174.616 142.816C174.616 142.321 174.728 141.901 174.952 141.556C175.186 141.211 175.517 140.949 175.946 140.772C176.385 140.585 176.912 140.492 177.528 140.492H179.698V141.29H177.458C176.87 141.29 176.418 141.435 176.1 141.724C175.792 142.004 175.638 142.373 175.638 142.83C175.638 143.297 175.802 143.67 176.128 143.95C176.455 144.221 176.898 144.356 177.458 144.356C177.804 144.356 178.135 144.295 178.452 144.174C178.77 144.043 179.036 143.829 179.25 143.53C179.465 143.222 179.582 142.802 179.6 142.27L179.908 142.704C179.871 143.255 179.74 143.717 179.516 144.09C179.292 144.454 178.989 144.729 178.606 144.916C178.224 145.103 177.776 145.196 177.262 145.196ZM183.801 145V134.78H184.851V145H183.801ZM182.723 135.634V134.78H184.851V135.634H182.723ZM188.143 145V134.78H189.193V145H188.143ZM187.065 135.634V134.78H189.193V135.634H187.065ZM191.757 147.884V146.946H192.709C193.035 146.946 193.315 146.904 193.549 146.82C193.782 146.745 193.978 146.61 194.137 146.414C194.295 146.218 194.431 145.947 194.543 145.602L197.035 137.594H198.057L195.453 145.896C195.303 146.372 195.098 146.755 194.837 147.044C194.575 147.343 194.263 147.557 193.899 147.688C193.535 147.819 193.119 147.884 192.653 147.884H191.757ZM194.165 144.818V143.936H195.495V144.818H194.165ZM194.039 144.818L191.351 137.594H192.429L195.019 144.818H194.039ZM207.255 145.238C206.62 145.238 206.069 145.131 205.603 144.916C205.136 144.692 204.753 144.398 204.455 144.034C204.156 143.661 203.932 143.245 203.783 142.788C203.643 142.331 203.573 141.859 203.573 141.374V141.178C203.573 140.702 203.643 140.235 203.783 139.778C203.932 139.321 204.156 138.91 204.455 138.546C204.753 138.182 205.127 137.893 205.575 137.678C206.032 137.454 206.564 137.342 207.171 137.342C207.945 137.342 208.589 137.515 209.103 137.86C209.625 138.205 210.017 138.649 210.279 139.19C210.54 139.722 210.671 140.296 210.671 140.912V141.458H204.049V140.646H209.943L209.677 141.052C209.677 140.501 209.579 140.021 209.383 139.61C209.196 139.19 208.916 138.863 208.543 138.63C208.179 138.387 207.721 138.266 207.171 138.266C206.592 138.266 206.111 138.401 205.729 138.672C205.346 138.943 205.057 139.302 204.861 139.75C204.674 140.198 204.581 140.707 204.581 141.276C204.581 141.836 204.674 142.349 204.861 142.816C205.057 143.273 205.351 143.637 205.743 143.908C206.144 144.179 206.648 144.314 207.255 144.314C207.899 144.314 208.421 144.169 208.823 143.88C209.224 143.581 209.471 143.231 209.565 142.83H210.545C210.451 143.325 210.255 143.754 209.957 144.118C209.658 144.473 209.28 144.748 208.823 144.944C208.365 145.14 207.843 145.238 207.255 145.238ZM213.192 145V137.594H214.032V140.702H213.864C213.864 140.011 213.967 139.419 214.172 138.924C214.377 138.429 214.685 138.047 215.096 137.776C215.507 137.505 216.025 137.37 216.65 137.37H216.692C217.625 137.37 218.321 137.664 218.778 138.252C219.235 138.831 219.464 139.647 219.464 140.702V145H218.428V140.478C218.428 139.834 218.251 139.316 217.896 138.924C217.541 138.532 217.047 138.336 216.412 138.336C215.759 138.336 215.231 138.541 214.83 138.952C214.438 139.353 214.242 139.885 214.242 140.548V145H213.192ZM225.617 145.238C225.075 145.238 224.581 145.14 224.133 144.944C223.694 144.739 223.311 144.459 222.985 144.104C222.667 143.74 222.42 143.329 222.243 142.872C222.075 142.405 221.991 141.911 221.991 141.388V141.192C221.991 140.688 222.075 140.207 222.243 139.75C222.411 139.283 222.649 138.873 222.957 138.518C223.274 138.154 223.652 137.869 224.091 137.664C224.539 137.449 225.038 137.342 225.589 137.342C226.214 137.342 226.765 137.477 227.241 137.748C227.717 138.019 228.099 138.411 228.389 138.924C228.678 139.428 228.832 140.049 228.851 140.786L228.389 139.918V134.78H229.439V145H228.599V141.71H228.935C228.916 142.485 228.753 143.138 228.445 143.67C228.146 144.193 227.749 144.585 227.255 144.846C226.769 145.107 226.223 145.238 225.617 145.238ZM225.757 144.314C226.261 144.314 226.713 144.202 227.115 143.978C227.525 143.754 227.847 143.437 228.081 143.026C228.314 142.606 228.431 142.125 228.431 141.584V140.912C228.431 140.389 228.314 139.932 228.081 139.54C227.847 139.139 227.525 138.826 227.115 138.602C226.713 138.378 226.256 138.266 225.743 138.266C225.192 138.266 224.711 138.401 224.301 138.672C223.899 138.933 223.587 139.293 223.363 139.75C223.148 140.207 223.041 140.721 223.041 141.29C223.041 141.878 223.153 142.401 223.377 142.858C223.601 143.315 223.918 143.675 224.329 143.936C224.739 144.188 225.215 144.314 225.757 144.314ZM234.987 145.21C234.035 145.21 233.302 145.005 232.789 144.594C232.276 144.174 232.014 143.614 232.005 142.914H232.985C233.004 143.269 233.162 143.591 233.461 143.88C233.769 144.169 234.278 144.314 234.987 144.314C235.65 144.314 236.144 144.179 236.471 143.908C236.807 143.628 236.975 143.292 236.975 142.9C236.975 142.536 236.835 142.256 236.555 142.06C236.284 141.855 235.888 141.724 235.365 141.668L234.525 141.584C233.853 141.509 233.307 141.304 232.887 140.968C232.476 140.623 232.271 140.151 232.271 139.554C232.271 139.115 232.383 138.733 232.607 138.406C232.831 138.079 233.144 137.827 233.545 137.65C233.956 137.463 234.436 137.37 234.987 137.37C235.78 137.37 236.424 137.557 236.919 137.93C237.423 138.303 237.68 138.835 237.689 139.526H236.709C236.7 139.171 236.55 138.873 236.261 138.63C235.972 138.387 235.547 138.266 234.987 138.266C234.408 138.266 233.974 138.392 233.685 138.644C233.405 138.896 233.265 139.204 233.265 139.568C233.265 139.876 233.372 140.133 233.587 140.338C233.802 140.534 234.138 140.655 234.595 140.702L235.435 140.786C236.182 140.87 236.788 141.085 237.255 141.43C237.731 141.775 237.969 142.27 237.969 142.914C237.969 143.353 237.843 143.749 237.591 144.104C237.348 144.449 237.003 144.72 236.555 144.916C236.107 145.112 235.584 145.21 234.987 145.21ZM240.212 145V143.614H241.528V145H240.212ZM253.999 145L251.171 134.78H252.263L254.825 144.314L254.335 144.034H255.693L255.161 144.314L257.247 135.228H258.255L255.959 145H253.999ZM260.145 145L257.625 135.228H258.661L260.985 144.314L260.467 144.034H261.853L261.321 144.314L263.631 134.78H264.695L262.105 145H260.145ZM269.811 145.238C269.177 145.238 268.626 145.131 268.159 144.916C267.693 144.692 267.31 144.398 267.011 144.034C266.713 143.661 266.489 143.245 266.339 142.788C266.199 142.331 266.129 141.859 266.129 141.374V141.178C266.129 140.702 266.199 140.235 266.339 139.778C266.489 139.321 266.713 138.91 267.011 138.546C267.31 138.182 267.683 137.893 268.131 137.678C268.589 137.454 269.121 137.342 269.727 137.342C270.502 137.342 271.146 137.515 271.659 137.86C272.182 138.205 272.574 138.649 272.835 139.19C273.097 139.722 273.227 140.296 273.227 140.912V141.458H266.605V140.646H272.499L272.233 141.052C272.233 140.501 272.135 140.021 271.939 139.61C271.753 139.19 271.473 138.863 271.099 138.63C270.735 138.387 270.278 138.266 269.727 138.266C269.149 138.266 268.668 138.401 268.285 138.672C267.903 138.943 267.613 139.302 267.417 139.75C267.231 140.198 267.137 140.707 267.137 141.276C267.137 141.836 267.231 142.349 267.417 142.816C267.613 143.273 267.907 143.637 268.299 143.908C268.701 144.179 269.205 144.314 269.811 144.314C270.455 144.314 270.978 144.169 271.379 143.88C271.781 143.581 272.028 143.231 272.121 142.83H273.101C273.008 143.325 272.812 143.754 272.513 144.118C272.215 144.473 271.837 144.748 271.379 144.944C270.922 145.14 270.399 145.238 269.811 145.238ZM281.588 145L283.17 137.832H284.64L286.474 145H285.564L283.73 137.874H284.066L282.47 145H281.588ZM280.986 145V144.146H282.26V145H280.986ZM280.734 145L278.592 137.594H279.6L281.714 145H280.734ZM285.802 145V144.146H287.048V145H285.802ZM286.348 145L288.196 137.594H289.162L287.272 145H286.348ZM291.988 145V137.594H293.024V145H291.988ZM290.798 138.434V137.594H293.024V138.434H290.798ZM292.212 136.222C291.96 136.222 291.769 136.157 291.638 136.026C291.517 135.886 291.456 135.713 291.456 135.508C291.456 135.303 291.517 135.135 291.638 135.004C291.769 134.864 291.96 134.794 292.212 134.794C292.464 134.794 292.651 134.864 292.772 135.004C292.894 135.135 292.954 135.303 292.954 135.508C292.954 135.713 292.894 135.886 292.772 136.026C292.651 136.157 292.464 136.222 292.212 136.222ZM296.35 145V134.78H297.4V145H296.35ZM295.272 135.634V134.78H297.4V135.634H295.272ZM300.692 145V134.78H301.742V145H300.692ZM299.614 135.634V134.78H301.742V135.634H299.614ZM308.731 145V137.594H309.571V140.688H309.487C309.487 139.605 309.725 138.807 310.201 138.294C310.677 137.771 311.424 137.51 312.441 137.51H312.679V138.462H312.245C311.442 138.462 310.831 138.672 310.411 139.092C309.991 139.503 309.781 140.109 309.781 140.912V145H308.731ZM317.876 145.238C317.241 145.238 316.69 145.131 316.224 144.916C315.757 144.692 315.374 144.398 315.076 144.034C314.777 143.661 314.553 143.245 314.404 142.788C314.264 142.331 314.194 141.859 314.194 141.374V141.178C314.194 140.702 314.264 140.235 314.404 139.778C314.553 139.321 314.777 138.91 315.076 138.546C315.374 138.182 315.748 137.893 316.196 137.678C316.653 137.454 317.185 137.342 317.792 137.342C318.566 137.342 319.21 137.515 319.724 137.86C320.246 138.205 320.638 138.649 320.9 139.19C321.161 139.722 321.292 140.296 321.292 140.912V141.458H314.67V140.646H320.564L320.298 141.052C320.298 140.501 320.2 140.021 320.004 139.61C319.817 139.19 319.537 138.863 319.164 138.63C318.8 138.387 318.342 138.266 317.792 138.266C317.213 138.266 316.732 138.401 316.35 138.672C315.967 138.943 315.678 139.302 315.482 139.75C315.295 140.198 315.202 140.707 315.202 141.276C315.202 141.836 315.295 142.349 315.482 142.816C315.678 143.273 315.972 143.637 316.364 143.908C316.765 144.179 317.269 144.314 317.876 144.314C318.52 144.314 319.042 144.169 319.444 143.88C319.845 143.581 320.092 143.231 320.186 142.83H321.166C321.072 143.325 320.876 143.754 320.578 144.118C320.279 144.473 319.901 144.748 319.444 144.944C318.986 145.14 318.464 145.238 317.876 145.238ZM328.321 145V142.774H328.153V140.142C328.153 139.591 328.008 139.171 327.719 138.882C327.43 138.583 326.982 138.434 326.375 138.434C326.095 138.434 325.81 138.439 325.521 138.448C325.241 138.457 324.97 138.471 324.709 138.49C324.457 138.499 324.233 138.513 324.037 138.532V137.608C324.242 137.589 324.452 137.571 324.667 137.552C324.882 137.533 325.101 137.524 325.325 137.524C325.558 137.515 325.782 137.51 325.997 137.51C326.753 137.51 327.36 137.603 327.817 137.79C328.284 137.977 328.624 138.271 328.839 138.672C329.054 139.064 329.161 139.587 329.161 140.24V145H328.321ZM325.815 145.196C325.292 145.196 324.83 145.103 324.429 144.916C324.028 144.729 323.715 144.459 323.491 144.104C323.276 143.749 323.169 143.32 323.169 142.816C323.169 142.321 323.281 141.901 323.505 141.556C323.738 141.211 324.07 140.949 324.499 140.772C324.938 140.585 325.465 140.492 326.081 140.492H328.251V141.29H326.011C325.423 141.29 324.97 141.435 324.653 141.724C324.345 142.004 324.191 142.373 324.191 142.83C324.191 143.297 324.354 143.67 324.681 143.95C325.008 144.221 325.451 144.356 326.011 144.356C326.356 144.356 326.688 144.295 327.005 144.174C327.322 144.043 327.588 143.829 327.803 143.53C328.018 143.222 328.134 142.802 328.153 142.27L328.461 142.704C328.424 143.255 328.293 143.717 328.069 144.09C327.845 144.454 327.542 144.729 327.159 144.916C326.776 145.103 326.328 145.196 325.815 145.196ZM335.406 145.238C334.78 145.238 334.234 145.131 333.768 144.916C333.31 144.692 332.928 144.393 332.62 144.02C332.312 143.637 332.078 143.217 331.92 142.76C331.77 142.303 331.696 141.841 331.696 141.374V141.178C331.696 140.702 331.77 140.24 331.92 139.792C332.078 139.335 332.312 138.924 332.62 138.56C332.928 138.187 333.31 137.893 333.768 137.678C334.234 137.454 334.771 137.342 335.378 137.342C335.994 137.342 336.54 137.454 337.016 137.678C337.501 137.902 337.893 138.219 338.192 138.63C338.49 139.041 338.668 139.526 338.724 140.086H337.716C337.632 139.573 337.389 139.148 336.988 138.812C336.596 138.467 336.059 138.294 335.378 138.294C334.79 138.294 334.3 138.429 333.908 138.7C333.525 138.961 333.236 139.321 333.04 139.778C332.844 140.226 332.746 140.725 332.746 141.276C332.746 141.817 332.844 142.321 333.04 142.788C333.236 143.245 333.53 143.614 333.922 143.894C334.314 144.165 334.808 144.3 335.406 144.3C335.863 144.3 336.26 144.221 336.596 144.062C336.941 143.894 337.216 143.67 337.422 143.39C337.636 143.11 337.762 142.802 337.8 142.466H338.808C338.77 143.026 338.593 143.516 338.276 143.936C337.968 144.347 337.566 144.669 337.072 144.902C336.577 145.126 336.022 145.238 335.406 145.238ZM341.233 145V134.78H342.283V140.562L341.975 140.8C341.975 140.109 342.073 139.507 342.269 138.994C342.474 138.481 342.778 138.084 343.179 137.804C343.59 137.515 344.103 137.37 344.719 137.37H344.775C345.671 137.37 346.348 137.664 346.805 138.252C347.272 138.84 347.505 139.657 347.505 140.702V145H346.469V140.478C346.469 139.815 346.287 139.293 345.923 138.91C345.559 138.527 345.069 138.336 344.453 138.336C343.79 138.336 343.263 138.551 342.871 138.98C342.479 139.4 342.283 139.955 342.283 140.646V145H341.233ZM357.705 145.238C357.071 145.238 356.511 145.131 356.025 144.916C355.549 144.692 355.143 144.398 354.807 144.034C354.481 143.661 354.229 143.245 354.051 142.788C353.883 142.331 353.799 141.864 353.799 141.388V141.192C353.799 140.716 353.888 140.249 354.065 139.792C354.243 139.325 354.499 138.91 354.835 138.546C355.171 138.182 355.577 137.893 356.053 137.678C356.539 137.454 357.089 137.342 357.705 137.342C358.331 137.342 358.881 137.454 359.357 137.678C359.843 137.893 360.253 138.182 360.589 138.546C360.925 138.91 361.177 139.325 361.345 139.792C361.523 140.249 361.611 140.716 361.611 141.192V141.388C361.611 141.864 361.527 142.331 361.359 142.788C361.191 143.245 360.939 143.661 360.603 144.034C360.277 144.398 359.871 144.692 359.385 144.916C358.9 145.131 358.34 145.238 357.705 145.238ZM357.705 144.3C358.321 144.3 358.839 144.165 359.259 143.894C359.689 143.614 360.015 143.25 360.239 142.802C360.463 142.345 360.575 141.841 360.575 141.29C360.575 140.73 360.459 140.226 360.225 139.778C360.001 139.321 359.675 138.961 359.245 138.7C358.816 138.429 358.303 138.294 357.705 138.294C357.117 138.294 356.609 138.429 356.179 138.7C355.75 138.961 355.419 139.321 355.185 139.778C354.961 140.226 354.849 140.73 354.849 141.29C354.849 141.841 354.961 142.345 355.185 142.802C355.409 143.25 355.731 143.614 356.151 143.894C356.581 144.165 357.099 144.3 357.705 144.3ZM366.815 145.21C365.928 145.21 365.251 144.925 364.785 144.356C364.318 143.777 364.085 142.975 364.085 141.948V137.58H365.121V142.158C365.121 142.802 365.289 143.315 365.625 143.698C365.97 144.071 366.446 144.258 367.053 144.258C367.687 144.258 368.191 144.057 368.565 143.656C368.947 143.255 369.139 142.718 369.139 142.046V137.58H370.189V145H369.349V141.906H369.517C369.517 142.597 369.419 143.189 369.223 143.684C369.027 144.169 368.733 144.547 368.341 144.818C367.949 145.079 367.454 145.21 366.857 145.21H366.815ZM376.122 145.084C375.609 145.084 375.166 145.009 374.792 144.86C374.419 144.711 374.13 144.459 373.924 144.104C373.719 143.74 373.616 143.255 373.616 142.648V135.256H374.624V142.802C374.624 143.231 374.741 143.563 374.974 143.796C375.208 144.02 375.539 144.132 375.968 144.132H377.298V145.084H376.122ZM372.286 138.392V137.594H377.298V138.392H372.286ZM386.282 145.084C385.769 145.084 385.326 145.009 384.952 144.86C384.579 144.711 384.29 144.459 384.084 144.104C383.879 143.74 383.776 143.255 383.776 142.648V135.256H384.784V142.802C384.784 143.231 384.901 143.563 385.134 143.796C385.368 144.02 385.699 144.132 386.128 144.132H387.458V145.084H386.282ZM382.446 138.392V137.594H387.458V138.392H382.446ZM393.237 145.238C392.602 145.238 392.042 145.131 391.557 144.916C391.081 144.692 390.675 144.398 390.339 144.034C390.012 143.661 389.76 143.245 389.583 142.788C389.415 142.331 389.331 141.864 389.331 141.388V141.192C389.331 140.716 389.419 140.249 389.597 139.792C389.774 139.325 390.031 138.91 390.367 138.546C390.703 138.182 391.109 137.893 391.585 137.678C392.07 137.454 392.621 137.342 393.237 137.342C393.862 137.342 394.413 137.454 394.889 137.678C395.374 137.893 395.785 138.182 396.121 138.546C396.457 138.91 396.709 139.325 396.877 139.792C397.054 140.249 397.143 140.716 397.143 141.192V141.388C397.143 141.864 397.059 142.331 396.891 142.788C396.723 143.245 396.471 143.661 396.135 144.034C395.808 144.398 395.402 144.692 394.917 144.916C394.431 145.131 393.871 145.238 393.237 145.238ZM393.237 144.3C393.853 144.3 394.371 144.165 394.791 143.894C395.22 143.614 395.547 143.25 395.771 142.802C395.995 142.345 396.107 141.841 396.107 141.29C396.107 140.73 395.99 140.226 395.757 139.778C395.533 139.321 395.206 138.961 394.777 138.7C394.347 138.429 393.834 138.294 393.237 138.294C392.649 138.294 392.14 138.429 391.711 138.7C391.281 138.961 390.95 139.321 390.717 139.778C390.493 140.226 390.381 140.73 390.381 141.29C390.381 141.841 390.493 142.345 390.717 142.802C390.941 143.25 391.263 143.614 391.683 143.894C392.112 144.165 392.63 144.3 393.237 144.3ZM402.893 147.884V146.946H403.845C404.172 146.946 404.452 146.904 404.685 146.82C404.919 146.745 405.115 146.61 405.273 146.414C405.432 146.218 405.567 145.947 405.679 145.602L408.171 137.594H409.193L406.589 145.896C406.44 146.372 406.235 146.755 405.973 147.044C405.712 147.343 405.399 147.557 405.035 147.688C404.671 147.819 404.256 147.884 403.789 147.884H402.893ZM405.301 144.818V143.936H406.631V144.818H405.301ZM405.175 144.818L402.487 137.594H403.565L406.155 144.818H405.175ZM414.725 145.238C414.09 145.238 413.53 145.131 413.045 144.916C412.569 144.692 412.163 144.398 411.827 144.034C411.5 143.661 411.248 143.245 411.071 142.788C410.903 142.331 410.819 141.864 410.819 141.388V141.192C410.819 140.716 410.907 140.249 411.085 139.792C411.262 139.325 411.519 138.91 411.855 138.546C412.191 138.182 412.597 137.893 413.073 137.678C413.558 137.454 414.109 137.342 414.725 137.342C415.35 137.342 415.901 137.454 416.377 137.678C416.862 137.893 417.273 138.182 417.609 138.546C417.945 138.91 418.197 139.325 418.365 139.792C418.542 140.249 418.631 140.716 418.631 141.192V141.388C418.631 141.864 418.547 142.331 418.379 142.788C418.211 143.245 417.959 143.661 417.623 144.034C417.296 144.398 416.89 144.692 416.405 144.916C415.919 145.131 415.359 145.238 414.725 145.238ZM414.725 144.3C415.341 144.3 415.859 144.165 416.279 143.894C416.708 143.614 417.035 143.25 417.259 142.802C417.483 142.345 417.595 141.841 417.595 141.29C417.595 140.73 417.478 140.226 417.245 139.778C417.021 139.321 416.694 138.961 416.265 138.7C415.835 138.429 415.322 138.294 414.725 138.294C414.137 138.294 413.628 138.429 413.199 138.7C412.769 138.961 412.438 139.321 412.205 139.778C411.981 140.226 411.869 140.73 411.869 141.29C411.869 141.841 411.981 142.345 412.205 142.802C412.429 143.25 412.751 143.614 413.171 143.894C413.6 144.165 414.118 144.3 414.725 144.3ZM423.834 145.21C422.947 145.21 422.271 144.925 421.804 144.356C421.337 143.777 421.104 142.975 421.104 141.948V137.58H422.14V142.158C422.14 142.802 422.308 143.315 422.644 143.698C422.989 144.071 423.465 144.258 424.072 144.258C424.707 144.258 425.211 144.057 425.584 143.656C425.967 143.255 426.158 142.718 426.158 142.046V137.58H427.208V145H426.368V141.906H426.536C426.536 142.597 426.438 143.189 426.242 143.684C426.046 144.169 425.752 144.547 425.36 144.818C424.968 145.079 424.473 145.21 423.876 145.21H423.834ZM430.244 145V143.614H431.56V145H430.244Z" fill="#F5F5F5"/>
<path d="M137.712 88.604L133.304 80.13H135.242L138.966 87.388L138.244 87.179H140.486L139.726 87.388L143.222 80.13H145.046L140.904 88.604H137.712ZM138.396 94V88.224H140.22V94H138.396ZM153.348 94.342C152.106 94.342 151.036 94.1203 150.137 93.677C149.237 93.2337 148.496 92.651 147.914 91.929C147.331 91.207 146.894 90.4343 146.603 89.611C146.324 88.7877 146.185 87.996 146.185 87.236V86.818C146.185 85.9947 146.33 85.165 146.622 84.329C146.913 83.493 147.356 82.733 147.952 82.049C148.547 81.3523 149.288 80.795 150.175 80.377C151.074 79.959 152.132 79.75 153.348 79.75C154.564 79.75 155.615 79.959 156.502 80.377C157.401 80.795 158.148 81.3523 158.744 82.049C159.339 82.733 159.782 83.493 160.074 84.329C160.365 85.165 160.511 85.9947 160.511 86.818V87.236C160.511 87.996 160.365 88.7877 160.074 89.611C159.795 90.4343 159.364 91.207 158.782 91.929C158.199 92.651 157.458 93.2337 156.559 93.677C155.659 94.1203 154.589 94.342 153.348 94.342ZM153.348 92.632C154.158 92.632 154.887 92.48 155.533 92.176C156.191 91.872 156.749 91.4603 157.205 90.941C157.661 90.409 158.009 89.8137 158.25 89.155C158.49 88.4837 158.611 87.7807 158.611 87.046C158.611 86.2733 158.49 85.5513 158.25 84.88C158.009 84.2087 157.661 83.6197 157.205 83.113C156.749 82.5937 156.191 82.1883 155.533 81.897C154.887 81.6057 154.158 81.46 153.348 81.46C152.537 81.46 151.802 81.6057 151.144 81.897C150.498 82.1883 149.947 82.5937 149.491 83.113C149.035 83.6197 148.686 84.2087 148.446 84.88C148.205 85.5513 148.085 86.2733 148.085 87.046C148.085 87.7807 148.205 88.4837 148.446 89.155C148.686 89.8137 149.035 90.409 149.491 90.941C149.947 91.4603 150.498 91.872 151.144 92.176C151.802 92.48 152.537 92.632 153.348 92.632ZM169.255 94.342C168.001 94.342 166.943 94.1013 166.082 93.62C165.233 93.126 164.587 92.442 164.144 91.568C163.713 90.6813 163.498 89.6553 163.498 88.49V80.13H165.36V88.718C165.36 89.4907 165.506 90.1747 165.797 90.77C166.101 91.3527 166.544 91.8087 167.127 92.138C167.71 92.4673 168.419 92.632 169.255 92.632C170.091 92.632 170.794 92.4737 171.364 92.157C171.947 91.8277 172.384 91.3717 172.675 90.789C172.979 90.1937 173.131 89.5033 173.131 88.718V80.13H174.993V88.49C174.993 89.6553 174.778 90.6813 174.347 91.568C173.916 92.442 173.277 93.126 172.428 93.62C171.579 94.1013 170.522 94.342 169.255 94.342ZM192.238 98.009C191.554 98.009 190.958 97.9077 190.452 97.705C189.945 97.515 189.552 97.1793 189.274 96.698C188.995 96.2167 188.856 95.558 188.856 94.722V93.05H190.566V95.007C190.566 95.425 190.686 95.7543 190.927 95.995C191.18 96.2357 191.509 96.356 191.915 96.356H194.271V98.009H192.238ZM189.673 94.342C188.431 94.342 187.361 94.1203 186.462 93.677C185.562 93.2337 184.821 92.651 184.239 91.929C183.656 91.207 183.219 90.4343 182.928 89.611C182.649 88.7877 182.51 87.996 182.51 87.236V86.818C182.51 85.9947 182.655 85.165 182.947 84.329C183.238 83.493 183.681 82.733 184.277 82.049C184.872 81.3523 185.613 80.795 186.5 80.377C187.399 79.959 188.457 79.75 189.673 79.75C190.889 79.75 191.94 79.959 192.827 80.377C193.726 80.795 194.473 81.3523 195.069 82.049C195.664 82.733 196.107 83.493 196.399 84.329C196.69 85.165 196.836 85.9947 196.836 86.818V87.236C196.836 87.996 196.69 88.7877 196.399 89.611C196.12 90.4343 195.689 91.207 195.107 91.929C194.524 92.651 193.783 93.2337 192.884 93.677C191.984 94.1203 190.914 94.342 189.673 94.342ZM189.673 92.632C190.483 92.632 191.212 92.48 191.858 92.176C192.516 91.872 193.074 91.4603 193.53 90.941C193.986 90.409 194.334 89.8137 194.575 89.155C194.815 88.4837 194.936 87.7807 194.936 87.046C194.936 86.2733 194.815 85.5513 194.575 84.88C194.334 84.2087 193.986 83.6197 193.53 83.113C193.074 82.5937 192.516 82.1883 191.858 81.897C191.212 81.6057 190.483 81.46 189.673 81.46C188.862 81.46 188.127 81.6057 187.469 81.897C186.823 82.1883 186.272 82.5937 185.816 83.113C185.36 83.6197 185.011 84.2087 184.771 84.88C184.53 85.5513 184.41 86.2733 184.41 87.046C184.41 87.7807 184.53 88.4837 184.771 89.155C185.011 89.8137 185.36 90.409 185.816 90.941C186.272 91.4603 186.823 91.872 187.469 92.176C188.127 92.48 188.862 92.632 189.673 92.632ZM205.58 94.342C204.326 94.342 203.268 94.1013 202.407 93.62C201.558 93.126 200.912 92.442 200.469 91.568C200.038 90.6813 199.823 89.6553 199.823 88.49V80.13H201.685V88.718C201.685 89.4907 201.831 90.1747 202.122 90.77C202.426 91.3527 202.869 91.8087 203.452 92.138C204.035 92.4673 204.744 92.632 205.58 92.632C206.416 92.632 207.119 92.4737 207.689 92.157C208.272 91.8277 208.709 91.3717 209 90.789C209.304 90.1937 209.456 89.5033 209.456 88.718V80.13H211.318V88.49C211.318 89.6553 211.103 90.6813 210.672 91.568C210.241 92.442 209.602 93.126 208.753 93.62C207.904 94.1013 206.847 94.342 205.58 94.342ZM213.325 94L218.322 80.13H221.476L226.625 94H224.706L220.051 81.346L220.963 81.802H218.721L219.69 81.346L215.187 94H213.325ZM216.308 89.858L216.935 88.186H222.92L223.547 89.858H216.308ZM229.359 94V80.13H231.221V94H229.359ZM230.841 94V92.328H237.187V94H230.841ZM239.922 94V80.13H241.784V94H239.922ZM246.048 94V80.13H247.91V94H246.048ZM247.53 87.825V86.153L253.477 86.134V87.806L247.53 87.825ZM247.53 81.802V80.13H253.8V81.802H247.53ZM259.679 88.604L255.271 80.13H257.209L260.933 87.388L260.211 87.179H262.453L261.693 87.388L265.189 80.13H267.013L262.871 88.604H259.679ZM260.363 94V88.224H262.187V94H260.363ZM272.597 94L277.594 80.13H280.748L285.897 94H283.978L279.323 81.346L280.235 81.802H277.993L278.962 81.346L274.459 94H272.597ZM275.58 89.858L276.207 88.186H282.192L282.819 89.858H275.58ZM293.022 94.342C291.869 94.342 290.888 94.152 290.077 93.772C289.266 93.392 288.646 92.8663 288.215 92.195C287.784 91.5237 287.569 90.7637 287.569 89.915H289.431C289.431 90.333 289.539 90.751 289.754 91.169C289.982 91.587 290.356 91.9353 290.875 92.214C291.407 92.4927 292.123 92.632 293.022 92.632C293.858 92.632 294.542 92.5117 295.074 92.271C295.606 92.0177 295.999 91.6947 296.252 91.302C296.505 90.8967 296.632 90.4597 296.632 89.991C296.632 89.421 296.385 88.9523 295.891 88.585C295.397 88.205 294.675 87.9707 293.725 87.882L292.186 87.749C290.957 87.6477 289.976 87.2677 289.241 86.609C288.506 85.9503 288.139 85.0827 288.139 84.006C288.139 83.1573 288.342 82.4163 288.747 81.783C289.165 81.1497 289.741 80.6557 290.476 80.301C291.211 79.9337 292.066 79.75 293.041 79.75C294.004 79.75 294.852 79.9273 295.587 80.282C296.322 80.6367 296.892 81.137 297.297 81.783C297.715 82.4163 297.924 83.1763 297.924 84.063H296.062C296.062 83.6197 295.954 83.2017 295.739 82.809C295.536 82.4163 295.213 82.0933 294.77 81.84C294.327 81.5867 293.75 81.46 293.041 81.46C292.357 81.46 291.787 81.5803 291.331 81.821C290.888 82.0617 290.552 82.3783 290.324 82.771C290.109 83.151 290.001 83.5627 290.001 84.006C290.001 84.5127 290.197 84.9623 290.59 85.355C290.983 85.7477 291.565 85.9757 292.338 86.039L293.877 86.172C294.827 86.248 295.644 86.4507 296.328 86.78C297.025 87.0967 297.557 87.5273 297.924 88.072C298.304 88.604 298.494 89.2437 298.494 89.991C298.494 90.8397 298.266 91.5933 297.81 92.252C297.354 92.9107 296.714 93.4237 295.891 93.791C295.068 94.1583 294.111 94.342 293.022 94.342ZM309.353 94L314.35 80.13H317.504L322.653 94H320.734L316.079 81.346L316.991 81.802H314.749L315.718 81.346L311.215 94H309.353ZM312.336 89.858L312.963 88.186H318.948L319.575 89.858H312.336ZM329.9 94V80.13H331.762V94H329.9ZM331.382 87.825V86.153L337.329 86.134V87.806L331.382 87.825ZM331.382 81.802V80.13H337.652V81.802H331.382ZM346.213 94.342C344.959 94.342 343.901 94.1013 343.04 93.62C342.191 93.126 341.545 92.442 341.102 91.568C340.671 90.6813 340.456 89.6553 340.456 88.49V80.13H342.318V88.718C342.318 89.4907 342.463 90.1747 342.755 90.77C343.059 91.3527 343.502 91.8087 344.085 92.138C344.667 92.4673 345.377 92.632 346.213 92.632C347.049 92.632 347.752 92.4737 348.322 92.157C348.904 91.8277 349.341 91.3717 349.633 90.789C349.937 90.1937 350.089 89.5033 350.089 88.718V80.13H351.951V88.49C351.951 89.6553 351.735 90.6813 351.305 91.568C350.874 92.442 350.234 93.126 349.386 93.62C348.537 94.1013 347.479 94.342 346.213 94.342ZM355.904 94V80.13H357.766V94H355.904ZM357.386 94V92.328H363.732V94H357.386ZM366.429 94V80.13H368.291V94H366.429ZM367.911 94V92.328H374.257V94H367.911ZM385.97 94.342C384.817 94.342 383.836 94.152 383.025 93.772C382.214 93.392 381.594 92.8663 381.163 92.195C380.732 91.5237 380.517 90.7637 380.517 89.915H382.379C382.379 90.333 382.487 90.751 382.702 91.169C382.93 91.587 383.304 91.9353 383.823 92.214C384.355 92.4927 385.071 92.632 385.97 92.632C386.806 92.632 387.49 92.5117 388.022 92.271C388.554 92.0177 388.947 91.6947 389.2 91.302C389.453 90.8967 389.58 90.4597 389.58 89.991C389.58 89.421 389.333 88.9523 388.839 88.585C388.345 88.205 387.623 87.9707 386.673 87.882L385.134 87.749C383.905 87.6477 382.924 87.2677 382.189 86.609C381.454 85.9503 381.087 85.0827 381.087 84.006C381.087 83.1573 381.29 82.4163 381.695 81.783C382.113 81.1497 382.689 80.6557 383.424 80.301C384.159 79.9337 385.014 79.75 385.989 79.75C386.952 79.75 387.8 79.9273 388.535 80.282C389.27 80.6367 389.84 81.137 390.245 81.783C390.663 82.4163 390.872 83.1763 390.872 84.063H389.01C389.01 83.6197 388.902 83.2017 388.687 82.809C388.484 82.4163 388.161 82.0933 387.718 81.84C387.275 81.5867 386.698 81.46 385.989 81.46C385.305 81.46 384.735 81.5803 384.279 81.821C383.836 82.0617 383.5 82.3783 383.272 82.771C383.057 83.151 382.949 83.5627 382.949 84.006C382.949 84.5127 383.145 84.9623 383.538 85.355C383.931 85.7477 384.513 85.9757 385.286 86.039L386.825 86.172C387.775 86.248 388.592 86.4507 389.276 86.78C389.973 87.0967 390.505 87.5273 390.872 88.072C391.252 88.604 391.442 89.2437 391.442 89.991C391.442 90.8397 391.214 91.5933 390.758 92.252C390.302 92.9107 389.662 93.4237 388.839 93.791C388.016 94.1583 387.059 94.342 385.97 94.342ZM394.757 94V80.13H396.619V94H394.757ZM396.239 94V92.328H402.965V94H396.239ZM396.239 87.787V86.115H402.376V87.787H396.239ZM396.239 81.802V80.13H402.775V81.802H396.239ZM409.037 94V81.422H410.899V94H409.037ZM404.819 81.802V80.13H415.117V81.802H404.819ZM431.71 94V80.13H433.572V94H431.71ZM422.324 94V80.13H424.186V94H422.324ZM423.806 87.939V86.267H432.09V87.939H423.806ZM443.997 94.342C442.756 94.342 441.686 94.1203 440.786 93.677C439.887 93.2337 439.146 92.651 438.563 91.929C437.981 91.207 437.544 90.4343 437.252 89.611C436.974 88.7877 436.834 87.996 436.834 87.236V86.818C436.834 85.9947 436.98 85.165 437.271 84.329C437.563 83.493 438.006 82.733 438.601 82.049C439.197 81.3523 439.938 80.795 440.824 80.377C441.724 79.959 442.781 79.75 443.997 79.75C445.213 79.75 446.265 79.959 447.151 80.377C448.051 80.795 448.798 81.3523 449.393 82.049C449.989 82.733 450.432 83.493 450.723 84.329C451.015 85.165 451.16 85.9947 451.16 86.818V87.236C451.16 87.996 451.015 88.7877 450.723 89.611C450.445 90.4343 450.014 91.207 449.431 91.929C448.849 92.651 448.108 93.2337 447.208 93.677C446.309 94.1203 445.239 94.342 443.997 94.342ZM443.997 92.632C444.808 92.632 445.536 92.48 446.182 92.176C446.841 91.872 447.398 91.4603 447.854 90.941C448.31 90.409 448.659 89.8137 448.899 89.155C449.14 88.4837 449.26 87.7807 449.26 87.046C449.26 86.2733 449.14 85.5513 448.899 84.88C448.659 84.2087 448.31 83.6197 447.854 83.113C447.398 82.5937 446.841 82.1883 446.182 81.897C445.536 81.6057 444.808 81.46 443.997 81.46C443.187 81.46 442.452 81.6057 441.793 81.897C441.147 82.1883 440.596 82.5937 440.14 83.113C439.684 83.6197 439.336 84.2087 439.095 84.88C438.855 85.5513 438.734 86.2733 438.734 87.046C438.734 87.7807 438.855 88.4837 439.095 89.155C439.336 89.8137 439.684 90.409 440.14 90.941C440.596 91.4603 441.147 91.872 441.793 92.176C442.452 92.48 443.187 92.632 443.997 92.632ZM454.414 94V80.13H456.276V94H454.414ZM455.896 94V92.328H462.242V94H455.896ZM466.421 94.076V92.366H469.879C470.715 92.366 471.456 92.233 472.102 91.967C472.76 91.6883 473.318 91.3083 473.774 90.827C474.242 90.3457 474.597 89.782 474.838 89.136C475.078 88.49 475.199 87.7933 475.199 87.046C475.199 86.2607 475.078 85.5513 474.838 84.918C474.597 84.272 474.242 83.7147 473.774 83.246C473.318 82.7647 472.76 82.3973 472.102 82.144C471.456 81.8907 470.715 81.764 469.879 81.764H466.421V80.054H469.689C470.943 80.054 472.032 80.2503 472.957 80.643C473.881 81.023 474.648 81.5423 475.256 82.201C475.876 82.847 476.339 83.5753 476.643 84.386C476.947 85.184 477.099 86.001 477.099 86.837V87.255C477.099 88.0657 476.947 88.8763 476.643 89.687C476.339 90.4977 475.876 91.2323 475.256 91.891C474.648 92.5497 473.881 93.0817 472.957 93.487C472.032 93.8797 470.943 94.076 469.689 94.076H466.421ZM464.939 94.076V80.054H466.801V94.076H464.939ZM480.158 94V80.13H482.02V94H480.158ZM481.64 94V92.328H488.366V94H481.64ZM481.64 87.787V86.115H487.777V87.787H481.64ZM481.64 81.802V80.13H488.176V81.802H481.64ZM491.74 94V80.054H493.602V94H491.74ZM500.309 94L495.711 87.825H497.896L502.57 94H500.309ZM492.899 88.984V87.331H496.623C497.206 87.331 497.706 87.2107 498.124 86.97C498.542 86.7293 498.865 86.4 499.093 85.982C499.321 85.5513 499.435 85.0637 499.435 84.519C499.435 83.9743 499.321 83.493 499.093 83.075C498.865 82.6443 498.542 82.3087 498.124 82.068C497.706 81.8147 497.206 81.688 496.623 81.688H492.899V80.054H496.281C497.295 80.054 498.181 80.206 498.941 80.51C499.701 80.814 500.29 81.2827 500.708 81.916C501.126 82.5493 501.335 83.3663 501.335 84.367V84.671C501.335 85.6717 501.12 86.4887 500.689 87.122C500.271 87.7553 499.682 88.224 498.922 88.528C498.175 88.832 497.295 88.984 496.281 88.984H492.899ZM505.101 89.858V80.13H506.963V89.858H505.101ZM504.93 94V91.682H507.134V94H504.93Z" fill="#FF9FA9"/>
<defs>
<linearGradient id="paint0_linear_2064_149163" x1="351" y1="190" x2="353" y2="42" gradientUnits="userSpaceOnUse">
<stop stop-color="#BF3948"/>
<stop offset="1" stop-color="#962BC7"/>
</linearGradient>
<clipPath id="clip0_2064_149163">
<rect width="35" height="35" fill="white" transform="translate(0 167)"/>
</clipPath>
<clipPath id="clip1_2064_149163">
<rect width="44" height="44" fill="white" transform="translate(18 195)"/>
</clipPath>
<clipPath id="clip2_2064_149163">
<rect width="54" height="54" fill="white" transform="translate(565 17)"/>
</clipPath>
<clipPath id="clip3_2064_149163">
<rect width="35" height="35" fill="white" transform="translate(603)"/>
</clipPath>
</defs>
</svg>
