<svg width="128" height="25" viewBox="0 0 128 25" fill="none" xmlns="http://www.w3.org/2000/svg">
<path d="M29.9062 0.5625L24.8672 20.8125C24.7578 21.2031 24.5938 21.5859 24.375 21.9609C23.7812 22.9453 22.9297 23.5781 21.8203 23.8594C20.6797 24.1406 19.6133 23.9844 18.6211 23.3906C17.6289 22.7969 17 21.9375 16.7344 20.8125L15.2578 14.7656L13.7578 20.8125C13.4922 21.9375 12.8594 22.7969 11.8594 23.3906C10.8594 23.9844 9.79688 24.1406 8.67188 23.8594C7.5625 23.5781 6.71094 22.9453 6.11719 21.9609C5.89844 21.5859 5.73438 21.2031 5.625 20.8125L0.585938 0.5625H7.42969L9.67969 9.60938L11.1562 3.75C11.2656 3.35938 11.4297 2.97656 11.6484 2.60156C12.2422 1.61719 13.0938 0.984375 14.2031 0.703125C15.3281 0.421875 16.3906 0.578125 17.3906 1.17188C18.3906 1.76563 19.0234 2.625 19.2891 3.75L20.7656 9.60938L23.0156 0.5625H29.9062ZM38.8528 0.5625V24H32.1966V0.5625H38.8528ZM60.2447 0.5625V19.8047C60.2447 20.9766 59.8384 21.9688 59.0259 22.7812C58.2134 23.5938 57.2291 24 56.0728 24C54.9166 24 53.9322 23.5938 53.1197 22.7812C52.9322 22.6094 52.7681 22.4219 52.6275 22.2188L52.6041 22.2422L47.7994 13.8984V24H41.1431V4.75781C41.1431 3.58594 41.5494 2.59375 42.3619 1.78125C43.1744 0.96875 44.1587 0.5625 45.315 0.5625C46.4712 0.5625 47.4556 0.96875 48.2681 1.78125C48.4556 1.95313 48.6197 2.14063 48.7603 2.34375L48.7837 2.32031L53.5884 10.6641V0.5625H60.2447ZM81.2381 0.5625V19.8047C81.2381 20.9766 80.8319 21.9688 80.0194 22.7812C79.2069 23.5938 78.2225 24 77.0662 24C75.91 24 74.9256 23.5938 74.1131 22.7812C73.9256 22.6094 73.7616 22.4219 73.6209 22.2188L73.5975 22.2422L68.7928 13.8984V24H62.1366V4.75781C62.1366 3.58594 62.5428 2.59375 63.3553 1.78125C64.1678 0.96875 65.1522 0.5625 66.3084 0.5625C67.4647 0.5625 68.4491 0.96875 69.2616 1.78125C69.4491 1.95313 69.6131 2.14063 69.7537 2.34375L69.7772 2.32031L74.5819 10.6641V0.5625H81.2381ZM97.8487 7.19531H90.7706C90.5206 7.19531 90.3019 7.28906 90.1144 7.47656C89.9269 7.66406 89.8331 7.88281 89.8331 8.13281V8.85938H96.3722V15.7031H89.8331V16.4062C89.8331 16.6562 89.9269 16.875 90.1144 17.0625C90.3019 17.25 90.5206 17.3438 90.7706 17.3438H97.8487V24H90.1378C88.2003 24 86.5441 23.3203 85.1691 21.9609C83.8878 20.6641 83.2081 19.125 83.13 17.3438V7.21875C83.2081 5.4375 83.8878 3.89844 85.1691 2.60156C86.5441 1.24219 88.2003 0.5625 90.1378 0.5625H97.8487V7.19531ZM99.7406 24V9.32812C99.7406 6.92188 100.6 4.85938 102.319 3.14062C104.037 1.42187 106.108 0.5625 108.53 0.5625C110.952 0.5625 113.018 1.42187 114.729 3.14062C116.44 4.85938 117.295 6.92188 117.295 9.32812C117.295 11.7656 116.444 13.8359 114.741 15.5391C114.647 15.6172 114.553 15.7031 114.459 15.7969C114.444 15.7969 114.366 15.8672 114.225 16.0078C114.069 16.1641 113.991 16.3516 113.991 16.5703C113.991 16.7734 114.069 16.9531 114.225 17.1094C114.381 17.2656 114.569 17.3438 114.787 17.3438H117.647V24H114.787C112.741 24 110.991 23.2734 109.537 21.8203C108.084 20.3672 107.358 18.6172 107.358 16.5703C107.358 14.5234 108.084 12.7656 109.537 11.2969C109.709 11.125 109.889 10.9609 110.077 10.8047C110.467 10.3984 110.662 9.90625 110.662 9.32812C110.662 8.75 110.452 8.25 110.03 7.82812C109.608 7.40625 109.108 7.19531 108.53 7.19531C107.936 7.19531 107.428 7.40625 107.006 7.82812C106.584 8.25 106.381 8.75 106.397 9.32812V24H99.7406ZM127.367 18.8438V24H120.711V18.8438H127.367ZM127.367 0.5625V17.9062H120.711V0.5625H127.367Z" fill="url(#paint0_linear_719_14438)"/>
<defs>
<linearGradient id="paint0_linear_719_14438" x1="1.5" y1="13.0308" x2="130" y2="13.0308" gradientUnits="userSpaceOnUse">
<stop stop-color="#FD6475"/>
<stop offset="1" stop-color="#AD0FF5"/>
</linearGradient>
</defs>
</svg>
