<svg width="344" height="597" viewBox="0 0 344 597" fill="none" xmlns="http://www.w3.org/2000/svg">
<rect width="11.2698" height="11.8088" transform="matrix(0.844553 -0.535472 0.465345 0.885129 267 280.035)" fill="#C154F3"/>
<ellipse cx="272.28" cy="211.897" rx="6.28019" ry="6.89674" fill="#C154F3"/>
<ellipse cx="104.28" cy="418.897" rx="6.28019" ry="6.89674" fill="#FF9FA9"/>
<path d="M249.205 229L258.043 245.811H240.367L249.205 229Z" fill="#E63E50"/>
<path d="M12.6441 446.425L29.4061 452.587L16.1662 465.448L12.6441 446.425Z" fill="#FF5DC8"/>
<g clip-path="url(#clip0_2817_166948)">
<mask id="mask0_2817_166948" style="mask-type:luminance" maskUnits="userSpaceOnUse" x="230" y="0" width="114" height="115">
<path d="M344 0H230V115H344V0Z" fill="white"/>
</mask>
<g mask="url(#mask0_2817_166948)">
<path d="M287 115C285.35 60.5257 284.001 59.1732 230 57.5C284.001 55.8353 285.341 54.4743 287 0C288.65 54.4743 289.999 55.8269 344 57.5C289.999 59.1732 288.659 60.509 287 115Z" fill="#F251BC"/>
</g>
</g>
<g clip-path="url(#clip1_2817_166948)">
<mask id="mask1_2817_166948" style="mask-type:luminance" maskUnits="userSpaceOnUse" x="215" y="91" width="93" height="93">
<path d="M308 91H215V184H308V91Z" fill="white"/>
</mask>
<g mask="url(#mask1_2817_166948)">
<path d="M261.5 184C260.154 139.947 259.053 138.853 215 137.5C259.053 136.154 260.147 135.053 261.5 91C262.846 135.053 263.947 136.147 308 137.5C263.947 138.853 262.853 139.933 261.5 184Z" fill="#C154F3"/>
</g>
</g>
<path fill-rule="evenodd" clip-rule="evenodd" d="M38.1975 390.577L11.8628 365.151L13.6205 363.454L39.9668 388.892L25.7085 355.654L28.0051 354.735L42.2606 387.967V352H44.7463V387.967L59.0019 354.735L61.2985 355.654L47.0449 388.88L73.3795 363.454L75.1372 365.151L48.8028 390.577L83.2159 376.815L84.1671 379.033L49.7486 392.797H87V395.197H49.7486L84.1671 408.961L83.2159 411.178L48.7908 397.411L75.1372 422.849L73.3795 424.546L47.0449 399.12L61.2985 432.346L59.0019 433.265L44.7463 400.033V436H42.2606V400.033L28.0051 433.265L25.7085 432.346L39.9668 399.108L13.6205 424.546L11.8628 422.849L38.2092 397.411L3.784 411.178L2.83298 408.961L37.2514 395.197H0V392.797H37.2514L2.83298 379.033L3.784 376.815L38.1975 390.577Z" fill="#C154F3"/>
<path d="M156.94 554.961C156.388 554.961 155.939 554.513 155.953 553.961C156.076 549.279 157.057 544.657 158.851 540.326C160.773 535.686 163.59 531.47 167.141 527.919C170.692 524.368 174.908 521.551 179.548 519.629C184.188 517.707 189.161 516.718 194.183 516.718C199.205 516.718 204.178 517.707 208.817 519.629C213.457 521.551 217.673 524.368 221.224 527.919C224.775 531.47 227.592 535.686 229.514 540.326C231.338 544.73 230.252 575.507 230.137 582.919C230.129 583.471 229.68 583.901 229.128 583.901H223.074C222.521 583.901 222.076 583.461 222.089 582.908C222.242 576.158 223.501 546.854 222.073 543.408C220.556 539.745 218.332 536.417 215.529 533.614C212.726 530.811 209.398 528.587 205.735 527.07C202.073 525.553 198.147 524.772 194.183 524.772C190.218 524.772 186.293 525.553 182.63 527.07C178.967 528.587 175.639 530.811 172.836 533.614C170.033 536.417 167.809 539.745 166.292 543.408C164.903 546.762 164.131 550.337 164.011 553.961C163.992 554.513 163.546 554.961 162.994 554.961H156.94Z" fill="#F251BC"/>
<path d="M142.471 554.961C141.919 554.961 141.47 554.513 141.481 553.961C141.605 547.379 142.962 540.876 145.484 534.788C148.133 528.393 152.015 522.582 156.91 517.687C161.805 512.792 167.616 508.909 174.012 506.26C180.407 503.611 187.261 502.248 194.184 502.248C201.106 502.248 207.961 503.611 214.356 506.26C220.752 508.909 226.563 512.792 231.457 517.687C236.352 522.582 240.235 528.393 242.884 534.788C245.42 540.911 244.883 565.456 244.833 573.611C244.829 574.163 244.382 574.599 243.829 574.599H237.704C237.152 574.599 236.704 574.164 236.71 573.611C236.785 566.32 237.509 543.045 235.377 537.898C233.136 532.488 229.852 527.573 225.712 523.433C221.572 519.292 216.656 516.008 211.247 513.767C205.837 511.527 200.039 510.373 194.184 510.373C188.329 510.373 182.531 511.527 177.121 513.767C171.711 516.008 166.796 519.292 162.656 523.433C158.516 527.573 155.231 532.488 152.991 537.898C150.877 542.999 149.731 548.446 149.608 553.961C149.595 554.513 149.149 554.961 148.597 554.961H142.471Z" fill="#F251BC"/>
<path d="M128 554.961C127.447 554.961 126.999 554.514 127.007 553.961C127.133 545.479 128.865 537.094 132.114 529.252C135.49 521.101 140.439 513.694 146.677 507.456C152.916 501.217 160.322 496.269 168.473 492.892C176.624 489.516 185.36 487.778 194.183 487.778C203.005 487.778 211.741 489.516 219.892 492.892C228.043 496.269 235.45 501.217 241.688 507.456C247.927 513.694 252.875 521.101 256.251 529.252C259.517 537.136 258.983 584.251 258.945 595.31C258.943 595.862 258.495 596.305 257.943 596.305H251.744C251.191 596.305 250.744 595.871 250.747 595.318C250.803 585.105 251.534 539.289 248.676 532.389C245.712 525.233 241.367 518.731 235.89 513.254C230.413 507.776 223.911 503.432 216.755 500.468C209.598 497.503 201.928 495.978 194.183 495.978C186.437 495.978 178.767 497.503 171.61 500.468C164.454 503.432 157.952 507.776 152.475 513.254C146.998 518.731 142.653 525.233 139.689 532.389C136.852 539.237 135.333 546.556 135.207 553.961C135.198 554.514 134.751 554.961 134.199 554.961H128Z" fill="#F251BC"/>
<defs>
<clipPath id="clip0_2817_166948">
<rect width="114" height="115" fill="white" transform="translate(230)"/>
</clipPath>
<clipPath id="clip1_2817_166948">
<rect width="93" height="93" fill="white" transform="translate(215 91)"/>
</clipPath>
</defs>
</svg>
