<svg width="323" height="597" viewBox="0 0 323 597" fill="none" xmlns="http://www.w3.org/2000/svg">
<rect width="11.2698" height="11.8088" transform="matrix(0.844553 -0.535472 0.465345 0.885129 246 280.035)" fill="#C154F3"/>
<ellipse cx="251.28" cy="211.897" rx="6.28019" ry="6.89674" fill="#C154F3"/>
<ellipse cx="83.2802" cy="418.897" rx="6.28019" ry="6.89674" fill="#FF9FA9"/>
<path d="M228.205 229L237.043 245.811H219.367L228.205 229Z" fill="#E63E50"/>
<path d="M114.644 435.425L131.406 441.587L118.166 454.448L114.644 435.425Z" fill="#FF5DC8"/>
<path d="M266 115C264.35 60.5256 263.001 59.1732 209 57.5C263.001 55.8353 264.341 54.4743 266 0C267.65 54.4743 268.999 55.8269 323 57.5C268.999 59.1732 267.659 60.509 266 115Z" fill="#F251BC"/>
<path d="M240.5 184C239.154 139.947 238.053 138.853 194 137.5C238.053 136.154 239.147 135.053 240.5 91C241.846 135.053 242.947 136.147 287 137.5C242.947 138.853 241.853 139.933 240.5 184Z" fill="#C154F3"/>
<path fill-rule="evenodd" clip-rule="evenodd" d="M38.1975 471.577L11.8628 446.151L13.6205 444.454L39.9668 469.892L25.7085 436.654L28.0051 435.735L42.2606 468.967V433H44.7463V468.967L59.0019 435.735L61.2985 436.654L47.0449 469.88L73.3795 444.454L75.1372 446.151L48.8028 471.577L83.2159 457.815L84.1671 460.033L49.7486 473.797H87V476.197H49.7486L84.1671 489.961L83.2159 492.178L48.7908 478.411L75.1372 503.849L73.3795 505.546L47.0449 480.12L61.2985 513.346L59.0019 514.265L44.7463 481.033V517H42.2606V481.033L28.0051 514.265L25.7085 513.346L39.9668 480.108L13.6205 505.546L11.8628 503.849L38.2092 478.411L3.78401 492.178L2.83298 489.961L37.2514 476.197H3.09944e-06V473.797H37.2514L2.83298 460.033L3.78401 457.815L38.1975 471.577Z" fill="#C154F3"/>
<path d="M135.94 554.961C135.388 554.961 134.939 554.513 134.953 553.961C135.076 549.28 136.057 544.658 137.851 540.326C139.773 535.686 142.59 531.47 146.141 527.919C149.692 524.368 153.908 521.551 158.548 519.629C163.188 517.707 168.161 516.718 173.183 516.718C178.205 516.718 183.178 517.707 187.817 519.629C192.457 521.551 196.673 524.368 200.224 527.919C203.775 531.47 206.592 535.686 208.514 540.326C210.338 544.73 209.252 575.507 209.137 582.919C209.129 583.471 208.68 583.901 208.128 583.901H202.074C201.521 583.901 201.076 583.461 201.089 582.909C201.242 576.158 202.501 546.855 201.073 543.408C199.556 539.745 197.332 536.418 194.529 533.614C191.726 530.811 188.398 528.587 184.735 527.07C181.073 525.553 177.147 524.772 173.183 524.772C169.218 524.772 165.293 525.553 161.63 527.07C157.967 528.587 154.639 530.811 151.836 533.614C149.033 536.418 146.809 539.745 145.292 543.408C143.903 546.763 143.131 550.338 143.011 553.961C142.992 554.513 142.546 554.961 141.994 554.961H135.94Z" fill="#F251BC"/>
<path d="M121.47 554.961C120.918 554.961 120.469 554.513 120.48 553.961C120.605 547.379 121.961 540.876 124.483 534.788C127.132 528.393 131.015 522.582 135.91 517.687C140.804 512.792 146.615 508.91 153.011 506.26C159.406 503.611 166.261 502.248 173.183 502.248C180.105 502.248 186.96 503.611 193.355 506.26C199.751 508.91 205.562 512.792 210.457 517.687C215.351 522.582 219.234 528.393 221.883 534.788C224.42 540.911 223.882 565.456 223.832 573.611C223.829 574.163 223.381 574.599 222.829 574.599H216.703C216.151 574.599 215.703 574.164 215.709 573.612C215.784 566.32 216.508 543.045 214.376 537.898C212.136 532.488 208.851 527.573 204.711 523.433C200.571 519.292 195.656 516.008 190.246 513.767C184.836 511.527 179.038 510.373 173.183 510.373C167.328 510.373 161.53 511.527 156.12 513.767C150.711 516.008 145.795 519.292 141.655 523.433C137.515 527.573 134.231 532.488 131.99 537.898C129.877 542.999 128.731 548.446 128.607 553.961C128.595 554.513 128.148 554.961 127.596 554.961H121.47Z" fill="#F251BC"/>
<path d="M107 554.961C106.447 554.961 105.999 554.514 106.007 553.961C106.133 545.479 107.865 537.095 111.114 529.252C114.49 521.101 119.439 513.694 125.677 507.456C131.916 501.217 139.322 496.269 147.473 492.892C155.624 489.516 164.36 487.778 173.183 487.778C182.005 487.778 190.741 489.516 198.892 492.892C207.043 496.269 214.45 501.217 220.688 507.456C226.927 513.694 231.875 521.101 235.251 529.252C238.517 537.136 237.983 584.251 237.945 595.31C237.943 595.862 237.495 596.305 236.943 596.305H230.744C230.191 596.305 229.744 595.871 229.747 595.318C229.803 585.105 230.534 539.289 227.676 532.389C224.712 525.233 220.367 518.731 214.89 513.254C209.413 507.777 202.911 503.432 195.755 500.468C188.598 497.503 180.928 495.978 173.183 495.978C165.437 495.978 157.767 497.503 150.61 500.468C143.454 503.432 136.952 507.776 131.475 513.254C125.998 518.731 121.653 525.233 118.689 532.389C115.852 539.237 114.333 546.556 114.207 553.961C114.198 554.514 113.751 554.961 113.199 554.961H107Z" fill="#F251BC"/>
</svg>
